%TF.GenerationSoftware,KiCad,Pcbnew,6.0.4-6f826c9f35~116~ubuntu20.04.1*%
%TF.CreationDate,2022-07-18T09:44:21+00:00*%
%TF.ProjectId,UST2BATTD01A,55535432-4241-4545-9444-3031412e6b69,rev?*%
%TF.SameCoordinates,PX463f660PY87a6900*%
%TF.FileFunction,Legend,Bot*%
%TF.FilePolarity,Positive*%
%FSLAX46Y46*%
G04 Gerber Fmt 4.6, Leading zero omitted, Abs format (unit mm)*
G04 Created by KiCad (PCBNEW 6.0.4-6f826c9f35~116~ubuntu20.04.1) date 2022-07-18 09:44:21*
%MOMM*%
%LPD*%
G01*
G04 APERTURE LIST*
%ADD10C,0.150000*%
%ADD11C,0.120000*%
G04 APERTURE END LIST*
D10*
%TO.C,D4*%
X90201380Y15216096D02*
X89201380Y15216096D01*
X89201380Y14978000D01*
X89249000Y14835143D01*
X89344238Y14739905D01*
X89439476Y14692286D01*
X89629952Y14644667D01*
X89772809Y14644667D01*
X89963285Y14692286D01*
X90058523Y14739905D01*
X90153761Y14835143D01*
X90201380Y14978000D01*
X90201380Y15216096D01*
X89534714Y13787524D02*
X90201380Y13787524D01*
X89153761Y14025620D02*
X89868047Y14263715D01*
X89868047Y13644667D01*
%TO.C,F3*%
X3635333Y22804429D02*
X3968666Y22804429D01*
X3968666Y22280620D02*
X3968666Y23280620D01*
X3492476Y23280620D01*
X3206761Y23280620D02*
X2587714Y23280620D01*
X2921047Y22899667D01*
X2778190Y22899667D01*
X2682952Y22852048D01*
X2635333Y22804429D01*
X2587714Y22709191D01*
X2587714Y22471096D01*
X2635333Y22375858D01*
X2682952Y22328239D01*
X2778190Y22280620D01*
X3063904Y22280620D01*
X3159142Y22328239D01*
X3206761Y22375858D01*
%TO.C,J4*%
X5802380Y8334334D02*
X6516666Y8334334D01*
X6659523Y8381953D01*
X6754761Y8477191D01*
X6802380Y8620048D01*
X6802380Y8715286D01*
X6135714Y7429572D02*
X6802380Y7429572D01*
X5754761Y7667667D02*
X6469047Y7905762D01*
X6469047Y7286715D01*
%TO.C,D3*%
X6635380Y15089096D02*
X5635380Y15089096D01*
X5635380Y14851000D01*
X5683000Y14708143D01*
X5778238Y14612905D01*
X5873476Y14565286D01*
X6063952Y14517667D01*
X6206809Y14517667D01*
X6397285Y14565286D01*
X6492523Y14612905D01*
X6587761Y14708143D01*
X6635380Y14851000D01*
X6635380Y15089096D01*
X5635380Y14184334D02*
X5635380Y13565286D01*
X6016333Y13898620D01*
X6016333Y13755762D01*
X6063952Y13660524D01*
X6111571Y13612905D01*
X6206809Y13565286D01*
X6444904Y13565286D01*
X6540142Y13612905D01*
X6587761Y13660524D01*
X6635380Y13755762D01*
X6635380Y14041477D01*
X6587761Y14136715D01*
X6540142Y14184334D01*
%TO.C,J3*%
X84542380Y8588334D02*
X85256666Y8588334D01*
X85399523Y8635953D01*
X85494761Y8731191D01*
X85542380Y8874048D01*
X85542380Y8969286D01*
X84542380Y8207381D02*
X84542380Y7588334D01*
X84923333Y7921667D01*
X84923333Y7778810D01*
X84970952Y7683572D01*
X85018571Y7635953D01*
X85113809Y7588334D01*
X85351904Y7588334D01*
X85447142Y7635953D01*
X85494761Y7683572D01*
X85542380Y7778810D01*
X85542380Y8064524D01*
X85494761Y8159762D01*
X85447142Y8207381D01*
%TO.C,F4*%
X87963333Y24200429D02*
X88296666Y24200429D01*
X88296666Y23676620D02*
X88296666Y24676620D01*
X87820476Y24676620D01*
X87010952Y24343286D02*
X87010952Y23676620D01*
X87249047Y24724239D02*
X87487142Y24009953D01*
X86868095Y24009953D01*
D11*
%TO.C,D4*%
X88899000Y10078000D02*
X85599000Y10078000D01*
X85599000Y10078000D02*
X85599000Y16978000D01*
X88899000Y10078000D02*
X88899000Y16978000D01*
%TO.C,F3*%
X3167748Y21665000D02*
X3690252Y21665000D01*
X3167748Y20245000D02*
X3690252Y20245000D01*
%TO.C,J4*%
X3816000Y8610000D02*
X5266000Y8610000D01*
X5266000Y3190000D02*
X6256000Y3190000D01*
X996000Y2660000D02*
X996000Y7340000D01*
X5266000Y8610000D02*
X5266000Y6810000D01*
X3816000Y1390000D02*
X5266000Y1390000D01*
X5266000Y1390000D02*
X5266000Y3190000D01*
%TO.C,D3*%
X5333000Y9951000D02*
X2033000Y9951000D01*
X2033000Y9951000D02*
X2033000Y16851000D01*
X5333000Y9951000D02*
X5333000Y16851000D01*
%TO.C,J3*%
X86174000Y1390000D02*
X86174000Y3190000D01*
X90444000Y7340000D02*
X90444000Y2660000D01*
X86174000Y8610000D02*
X86174000Y6810000D01*
X87624000Y8610000D02*
X86174000Y8610000D01*
X86174000Y6810000D02*
X85184000Y6810000D01*
X87624000Y1390000D02*
X86174000Y1390000D01*
%TO.C,F4*%
X87891252Y23189000D02*
X87368748Y23189000D01*
X87891252Y21769000D02*
X87368748Y21769000D01*
%TD*%
M02*
