%TF.GenerationSoftware,KiCad,Pcbnew,6.0.4-6f826c9f35~116~ubuntu20.04.1*%
%TF.CreationDate,2022-07-18T09:44:21+00:00*%
%TF.ProjectId,UST2BATTD01A,55535432-4241-4545-9444-3031412e6b69,rev?*%
%TF.SameCoordinates,PX463f660PY87a6900*%
%TF.FileFunction,Legend,Top*%
%TF.FilePolarity,Positive*%
%FSLAX46Y46*%
G04 Gerber Fmt 4.6, Leading zero omitted, Abs format (unit mm)*
G04 Created by KiCad (PCBNEW 6.0.4-6f826c9f35~116~ubuntu20.04.1) date 2022-07-18 09:44:21*
%MOMM*%
%LPD*%
G01*
G04 APERTURE LIST*
%ADD10C,0.200000*%
%ADD11C,0.150000*%
%ADD12C,0.120000*%
G04 APERTURE END LIST*
D10*
X2178595Y58276715D02*
X3230976Y58276715D01*
X3354785Y58338620D01*
X3416690Y58400524D01*
X3478595Y58524334D01*
X3478595Y58771953D01*
X3416690Y58895762D01*
X3354785Y58957667D01*
X3230976Y59019572D01*
X2178595Y59019572D01*
X3416690Y59576715D02*
X3478595Y59762429D01*
X3478595Y60071953D01*
X3416690Y60195762D01*
X3354785Y60257667D01*
X3230976Y60319572D01*
X3107166Y60319572D01*
X2983357Y60257667D01*
X2921452Y60195762D01*
X2859547Y60071953D01*
X2797642Y59824334D01*
X2735738Y59700524D01*
X2673833Y59638620D01*
X2550023Y59576715D01*
X2426214Y59576715D01*
X2302404Y59638620D01*
X2240500Y59700524D01*
X2178595Y59824334D01*
X2178595Y60133858D01*
X2240500Y60319572D01*
X2178595Y60691000D02*
X2178595Y61433858D01*
X3478595Y61062429D02*
X2178595Y61062429D01*
X3354785Y61867191D02*
X3416690Y61929096D01*
X3478595Y61867191D01*
X3416690Y61805286D01*
X3354785Y61867191D01*
X3478595Y61867191D01*
X3354785Y63229096D02*
X3416690Y63167191D01*
X3478595Y62981477D01*
X3478595Y62857667D01*
X3416690Y62671953D01*
X3292880Y62548143D01*
X3169071Y62486239D01*
X2921452Y62424334D01*
X2735738Y62424334D01*
X2488119Y62486239D01*
X2364309Y62548143D01*
X2240500Y62671953D01*
X2178595Y62857667D01*
X2178595Y62981477D01*
X2240500Y63167191D01*
X2302404Y63229096D01*
X2178595Y63662429D02*
X2178595Y64529096D01*
X3478595Y63662429D01*
X3478595Y64529096D01*
X4271595Y54593381D02*
X5323976Y54593381D01*
X5447785Y54655286D01*
X5509690Y54717191D01*
X5571595Y54841000D01*
X5571595Y55088620D01*
X5509690Y55212429D01*
X5447785Y55274334D01*
X5323976Y55336239D01*
X4271595Y55336239D01*
X5509690Y55893381D02*
X5571595Y56079096D01*
X5571595Y56388620D01*
X5509690Y56512429D01*
X5447785Y56574334D01*
X5323976Y56636239D01*
X5200166Y56636239D01*
X5076357Y56574334D01*
X5014452Y56512429D01*
X4952547Y56388620D01*
X4890642Y56141000D01*
X4828738Y56017191D01*
X4766833Y55955286D01*
X4643023Y55893381D01*
X4519214Y55893381D01*
X4395404Y55955286D01*
X4333500Y56017191D01*
X4271595Y56141000D01*
X4271595Y56450524D01*
X4333500Y56636239D01*
X4271595Y57007667D02*
X4271595Y57750524D01*
X5571595Y57379096D02*
X4271595Y57379096D01*
X4395404Y58121953D02*
X4333500Y58183858D01*
X4271595Y58307667D01*
X4271595Y58617191D01*
X4333500Y58741000D01*
X4395404Y58802905D01*
X4519214Y58864810D01*
X4643023Y58864810D01*
X4828738Y58802905D01*
X5571595Y58060048D01*
X5571595Y58864810D01*
X4890642Y59855286D02*
X4952547Y60041000D01*
X5014452Y60102905D01*
X5138261Y60164810D01*
X5323976Y60164810D01*
X5447785Y60102905D01*
X5509690Y60041000D01*
X5571595Y59917191D01*
X5571595Y59421953D01*
X4271595Y59421953D01*
X4271595Y59855286D01*
X4333500Y59979096D01*
X4395404Y60041000D01*
X4519214Y60102905D01*
X4643023Y60102905D01*
X4766833Y60041000D01*
X4828738Y59979096D01*
X4890642Y59855286D01*
X4890642Y59421953D01*
X5200166Y60660048D02*
X5200166Y61279096D01*
X5571595Y60536239D02*
X4271595Y60969572D01*
X5571595Y61402905D01*
X4271595Y61650524D02*
X4271595Y62393381D01*
X5571595Y62021953D02*
X4271595Y62021953D01*
X4271595Y62641000D02*
X4271595Y63383858D01*
X5571595Y63012429D02*
X4271595Y63012429D01*
X5571595Y63817191D02*
X4271595Y63817191D01*
X4271595Y64126715D01*
X4333500Y64312429D01*
X4457309Y64436239D01*
X4581119Y64498143D01*
X4828738Y64560048D01*
X5014452Y64560048D01*
X5262071Y64498143D01*
X5385880Y64436239D01*
X5509690Y64312429D01*
X5571595Y64126715D01*
X5571595Y63817191D01*
X4271595Y65364810D02*
X4271595Y65488620D01*
X4333500Y65612429D01*
X4395404Y65674334D01*
X4519214Y65736239D01*
X4766833Y65798143D01*
X5076357Y65798143D01*
X5323976Y65736239D01*
X5447785Y65674334D01*
X5509690Y65612429D01*
X5571595Y65488620D01*
X5571595Y65364810D01*
X5509690Y65241000D01*
X5447785Y65179096D01*
X5323976Y65117191D01*
X5076357Y65055286D01*
X4766833Y65055286D01*
X4519214Y65117191D01*
X4395404Y65179096D01*
X4333500Y65241000D01*
X4271595Y65364810D01*
X5571595Y67036239D02*
X5571595Y66293381D01*
X5571595Y66664810D02*
X4271595Y66664810D01*
X4457309Y66541000D01*
X4581119Y66417191D01*
X4643023Y66293381D01*
X5200166Y67531477D02*
X5200166Y68150524D01*
X5571595Y67407667D02*
X4271595Y67841000D01*
X5571595Y68274334D01*
X85744595Y35462667D02*
X86673166Y35462667D01*
X86858880Y35400762D01*
X86982690Y35276953D01*
X87044595Y35091239D01*
X87044595Y34967429D01*
X86673166Y36019810D02*
X86673166Y36638858D01*
X87044595Y35896000D02*
X85744595Y36329334D01*
X87044595Y36762667D01*
X86920785Y37938858D02*
X86982690Y37876953D01*
X87044595Y37691239D01*
X87044595Y37567429D01*
X86982690Y37381715D01*
X86858880Y37257905D01*
X86735071Y37196000D01*
X86487452Y37134096D01*
X86301738Y37134096D01*
X86054119Y37196000D01*
X85930309Y37257905D01*
X85806500Y37381715D01*
X85744595Y37567429D01*
X85744595Y37691239D01*
X85806500Y37876953D01*
X85868404Y37938858D01*
X87044595Y38496000D02*
X85744595Y38496000D01*
X86363642Y38496000D02*
X86363642Y39238858D01*
X87044595Y39238858D02*
X85744595Y39238858D01*
X85744595Y40105524D02*
X85744595Y40353143D01*
X85806500Y40476953D01*
X85930309Y40600762D01*
X86177928Y40662667D01*
X86611261Y40662667D01*
X86858880Y40600762D01*
X86982690Y40476953D01*
X87044595Y40353143D01*
X87044595Y40105524D01*
X86982690Y39981715D01*
X86858880Y39857905D01*
X86611261Y39796000D01*
X86177928Y39796000D01*
X85930309Y39857905D01*
X85806500Y39981715D01*
X85744595Y40105524D01*
X87961404Y35617429D02*
X87899500Y35679334D01*
X87837595Y35803143D01*
X87837595Y36112667D01*
X87899500Y36236477D01*
X87961404Y36298381D01*
X88085214Y36360286D01*
X88209023Y36360286D01*
X88394738Y36298381D01*
X89137595Y35555524D01*
X89137595Y36360286D01*
X87837595Y37165048D02*
X87837595Y37288858D01*
X87899500Y37412667D01*
X87961404Y37474572D01*
X88085214Y37536477D01*
X88332833Y37598381D01*
X88642357Y37598381D01*
X88889976Y37536477D01*
X89013785Y37474572D01*
X89075690Y37412667D01*
X89137595Y37288858D01*
X89137595Y37165048D01*
X89075690Y37041239D01*
X89013785Y36979334D01*
X88889976Y36917429D01*
X88642357Y36855524D01*
X88332833Y36855524D01*
X88085214Y36917429D01*
X87961404Y36979334D01*
X87899500Y37041239D01*
X87837595Y37165048D01*
X87961404Y38093620D02*
X87899500Y38155524D01*
X87837595Y38279334D01*
X87837595Y38588858D01*
X87899500Y38712667D01*
X87961404Y38774572D01*
X88085214Y38836477D01*
X88209023Y38836477D01*
X88394738Y38774572D01*
X89137595Y38031715D01*
X89137595Y38836477D01*
X87961404Y39331715D02*
X87899500Y39393620D01*
X87837595Y39517429D01*
X87837595Y39826953D01*
X87899500Y39950762D01*
X87961404Y40012667D01*
X88085214Y40074572D01*
X88209023Y40074572D01*
X88394738Y40012667D01*
X89137595Y39269810D01*
X89137595Y40074572D01*
D11*
%TO.C,BT1*%
X27098571Y35214286D02*
X27146190Y35357143D01*
X27193809Y35404762D01*
X27289047Y35452381D01*
X27431904Y35452381D01*
X27527142Y35404762D01*
X27574761Y35357143D01*
X27622380Y35261905D01*
X27622380Y34880953D01*
X26622380Y34880953D01*
X26622380Y35214286D01*
X26670000Y35309524D01*
X26717619Y35357143D01*
X26812857Y35404762D01*
X26908095Y35404762D01*
X27003333Y35357143D01*
X27050952Y35309524D01*
X27098571Y35214286D01*
X27098571Y34880953D01*
X26622380Y35738096D02*
X26622380Y36309524D01*
X27622380Y36023810D02*
X26622380Y36023810D01*
X27622380Y37166667D02*
X27622380Y36595239D01*
X27622380Y36880953D02*
X26622380Y36880953D01*
X26765238Y36785715D01*
X26860476Y36690477D01*
X26908095Y36595239D01*
X26114285Y5520477D02*
X26114285Y13139524D01*
X29923809Y9330000D02*
X22304761Y9330000D01*
%TO.C,J2*%
X5802380Y7794667D02*
X6516666Y7794667D01*
X6659523Y7747048D01*
X6754761Y7651810D01*
X6802380Y7508953D01*
X6802380Y7413715D01*
X5897619Y8223239D02*
X5850000Y8270858D01*
X5802380Y8366096D01*
X5802380Y8604191D01*
X5850000Y8699429D01*
X5897619Y8747048D01*
X5992857Y8794667D01*
X6088095Y8794667D01*
X6230952Y8747048D01*
X6802380Y8175620D01*
X6802380Y8794667D01*
%TO.C,D2*%
X85201380Y13739905D02*
X84201380Y13739905D01*
X84201380Y13978000D01*
X84249000Y14120858D01*
X84344238Y14216096D01*
X84439476Y14263715D01*
X84629952Y14311334D01*
X84772809Y14311334D01*
X84963285Y14263715D01*
X85058523Y14216096D01*
X85153761Y14120858D01*
X85201380Y13978000D01*
X85201380Y13739905D01*
X84296619Y14692286D02*
X84249000Y14739905D01*
X84201380Y14835143D01*
X84201380Y15073239D01*
X84249000Y15168477D01*
X84296619Y15216096D01*
X84391857Y15263715D01*
X84487095Y15263715D01*
X84629952Y15216096D01*
X85201380Y14644667D01*
X85201380Y15263715D01*
%TO.C,F1*%
X3095666Y22676429D02*
X2762333Y22676429D01*
X2762333Y22152620D02*
X2762333Y23152620D01*
X3238523Y23152620D01*
X4143285Y22152620D02*
X3571857Y22152620D01*
X3857571Y22152620D02*
X3857571Y23152620D01*
X3762333Y23009762D01*
X3667095Y22914524D01*
X3571857Y22866905D01*
%TO.C,BT2*%
X65198571Y35214286D02*
X65246190Y35357143D01*
X65293809Y35404762D01*
X65389047Y35452381D01*
X65531904Y35452381D01*
X65627142Y35404762D01*
X65674761Y35357143D01*
X65722380Y35261905D01*
X65722380Y34880953D01*
X64722380Y34880953D01*
X64722380Y35214286D01*
X64770000Y35309524D01*
X64817619Y35357143D01*
X64912857Y35404762D01*
X65008095Y35404762D01*
X65103333Y35357143D01*
X65150952Y35309524D01*
X65198571Y35214286D01*
X65198571Y34880953D01*
X64722380Y35738096D02*
X64722380Y36309524D01*
X65722380Y36023810D02*
X64722380Y36023810D01*
X64817619Y36595239D02*
X64770000Y36642858D01*
X64722380Y36738096D01*
X64722380Y36976191D01*
X64770000Y37071429D01*
X64817619Y37119048D01*
X64912857Y37166667D01*
X65008095Y37166667D01*
X65150952Y37119048D01*
X65722380Y36547620D01*
X65722380Y37166667D01*
X64214285Y5520477D02*
X64214285Y13139524D01*
X68023809Y9330000D02*
X60404761Y9330000D01*
%TO.C,D1*%
X1635380Y13612905D02*
X635380Y13612905D01*
X635380Y13851000D01*
X683000Y13993858D01*
X778238Y14089096D01*
X873476Y14136715D01*
X1063952Y14184334D01*
X1206809Y14184334D01*
X1397285Y14136715D01*
X1492523Y14089096D01*
X1587761Y13993858D01*
X1635380Y13851000D01*
X1635380Y13612905D01*
X1635380Y15136715D02*
X1635380Y14565286D01*
X1635380Y14851000D02*
X635380Y14851000D01*
X778238Y14755762D01*
X873476Y14660524D01*
X921095Y14565286D01*
%TO.C,F2*%
X87042666Y20391429D02*
X86709333Y20391429D01*
X86709333Y19867620D02*
X86709333Y20867620D01*
X87185523Y20867620D01*
X87518857Y20772381D02*
X87566476Y20820000D01*
X87661714Y20867620D01*
X87899809Y20867620D01*
X87995047Y20820000D01*
X88042666Y20772381D01*
X88090285Y20677143D01*
X88090285Y20581905D01*
X88042666Y20439048D01*
X87471238Y19867620D01*
X88090285Y19867620D01*
%TO.C,J1*%
X84415380Y8048667D02*
X85129666Y8048667D01*
X85272523Y8001048D01*
X85367761Y7905810D01*
X85415380Y7762953D01*
X85415380Y7667715D01*
X85415380Y9048667D02*
X85415380Y8477239D01*
X85415380Y8762953D02*
X84415380Y8762953D01*
X84558238Y8667715D01*
X84653476Y8572477D01*
X84701095Y8477239D01*
%TO.C,BT1*%
X7620000Y500000D02*
X45720000Y500000D01*
X7620000Y71500000D02*
X45720000Y71500000D01*
X45720000Y500000D02*
X45720000Y71500000D01*
X7620000Y500000D02*
X7620000Y71500000D01*
D12*
%TO.C,J2*%
X5266000Y8610000D02*
X5266000Y6810000D01*
X5266000Y1390000D02*
X5266000Y3190000D01*
X3816000Y1390000D02*
X5266000Y1390000D01*
X3816000Y8610000D02*
X5266000Y8610000D01*
X5266000Y6810000D02*
X6256000Y6810000D01*
X996000Y7340000D02*
X996000Y2660000D01*
%TO.C,D2*%
X85599000Y10078000D02*
X88899000Y10078000D01*
X85599000Y10078000D02*
X85599000Y16978000D01*
X88899000Y10078000D02*
X88899000Y16978000D01*
%TO.C,F1*%
X3167748Y21665000D02*
X3690252Y21665000D01*
X3167748Y20245000D02*
X3690252Y20245000D01*
D11*
%TO.C,BT2*%
X45720000Y500000D02*
X83820000Y500000D01*
X45720000Y71500000D02*
X83820000Y71500000D01*
X45720000Y500000D02*
X45720000Y71500000D01*
X83820000Y500000D02*
X83820000Y71500000D01*
D12*
%TO.C,D1*%
X5333000Y9951000D02*
X5333000Y16851000D01*
X2033000Y9951000D02*
X5333000Y9951000D01*
X2033000Y9951000D02*
X2033000Y16851000D01*
%TO.C,F2*%
X87891252Y21769000D02*
X87368748Y21769000D01*
X87891252Y23189000D02*
X87368748Y23189000D01*
%TO.C,J1*%
X87624000Y1390000D02*
X86174000Y1390000D01*
X86174000Y8610000D02*
X86174000Y6810000D01*
X90444000Y2660000D02*
X90444000Y7340000D01*
X86174000Y3190000D02*
X85184000Y3190000D01*
X87624000Y8610000D02*
X86174000Y8610000D01*
X86174000Y1390000D02*
X86174000Y3190000D01*
%TD*%
M02*
