%TF.GenerationSoftware,KiCad,Pcbnew,6.0.4-6f826c9f35~116~ubuntu20.04.1*%
%TF.CreationDate,2022-07-18T09:08:53+00:00*%
%TF.ProjectId,UST2BATTD01A,55535432-4241-4545-9444-3031412e6b69,rev?*%
%TF.SameCoordinates,PX463f660PY87a6900*%
%TF.FileFunction,Legend,Bot*%
%TF.FilePolarity,Positive*%
%FSLAX46Y46*%
G04 Gerber Fmt 4.6, Leading zero omitted, Abs format (unit mm)*
G04 Created by KiCad (PCBNEW 6.0.4-6f826c9f35~116~ubuntu20.04.1) date 2022-07-18 09:08:53*
%MOMM*%
%LPD*%
G01*
G04 APERTURE LIST*
%ADD10C,0.150000*%
%ADD11C,0.120000*%
G04 APERTURE END LIST*
D10*
%TO.C,D4*%
X6635380Y15049096D02*
X5635380Y15049096D01*
X5635380Y14811000D01*
X5683000Y14668143D01*
X5778238Y14572905D01*
X5873476Y14525286D01*
X6063952Y14477667D01*
X6206809Y14477667D01*
X6397285Y14525286D01*
X6492523Y14572905D01*
X6587761Y14668143D01*
X6635380Y14811000D01*
X6635380Y15049096D01*
X5968714Y13620524D02*
X6635380Y13620524D01*
X5587761Y13858620D02*
X6302047Y14096715D01*
X6302047Y13477667D01*
%TO.C,F3*%
X3762333Y19376429D02*
X4095666Y19376429D01*
X4095666Y18852620D02*
X4095666Y19852620D01*
X3619476Y19852620D01*
X3333761Y19852620D02*
X2714714Y19852620D01*
X3048047Y19471667D01*
X2905190Y19471667D01*
X2809952Y19424048D01*
X2762333Y19376429D01*
X2714714Y19281191D01*
X2714714Y19043096D01*
X2762333Y18947858D01*
X2809952Y18900239D01*
X2905190Y18852620D01*
X3190904Y18852620D01*
X3286142Y18900239D01*
X3333761Y18947858D01*
%TO.C,J4*%
X6908380Y5333334D02*
X7622666Y5333334D01*
X7765523Y5380953D01*
X7860761Y5476191D01*
X7908380Y5619048D01*
X7908380Y5714286D01*
X7241714Y4428572D02*
X7908380Y4428572D01*
X6860761Y4666667D02*
X7575047Y4904762D01*
X7575047Y4285715D01*
%TO.C,D3*%
X90201380Y15216096D02*
X89201380Y15216096D01*
X89201380Y14978000D01*
X89249000Y14835143D01*
X89344238Y14739905D01*
X89439476Y14692286D01*
X89629952Y14644667D01*
X89772809Y14644667D01*
X89963285Y14692286D01*
X90058523Y14739905D01*
X90153761Y14835143D01*
X90201380Y14978000D01*
X90201380Y15216096D01*
X89201380Y14311334D02*
X89201380Y13692286D01*
X89582333Y14025620D01*
X89582333Y13882762D01*
X89629952Y13787524D01*
X89677571Y13739905D01*
X89772809Y13692286D01*
X90010904Y13692286D01*
X90106142Y13739905D01*
X90153761Y13787524D01*
X90201380Y13882762D01*
X90201380Y14168477D01*
X90153761Y14263715D01*
X90106142Y14311334D01*
%TO.C,J3*%
X83436380Y5333334D02*
X84150666Y5333334D01*
X84293523Y5380953D01*
X84388761Y5476191D01*
X84436380Y5619048D01*
X84436380Y5714286D01*
X83436380Y4952381D02*
X83436380Y4333334D01*
X83817333Y4666667D01*
X83817333Y4523810D01*
X83864952Y4428572D01*
X83912571Y4380953D01*
X84007809Y4333334D01*
X84245904Y4333334D01*
X84341142Y4380953D01*
X84388761Y4428572D01*
X84436380Y4523810D01*
X84436380Y4809524D01*
X84388761Y4904762D01*
X84341142Y4952381D01*
%TO.C,F4*%
X87963333Y20900429D02*
X88296666Y20900429D01*
X88296666Y20376620D02*
X88296666Y21376620D01*
X87820476Y21376620D01*
X87010952Y21043286D02*
X87010952Y20376620D01*
X87249047Y21424239D02*
X87487142Y20709953D01*
X86868095Y20709953D01*
D11*
%TO.C,D4*%
X5333000Y9911000D02*
X2033000Y9911000D01*
X2033000Y9911000D02*
X2033000Y16811000D01*
X5333000Y9911000D02*
X5333000Y16811000D01*
%TO.C,F3*%
X3167748Y21665000D02*
X3690252Y21665000D01*
X3167748Y20245000D02*
X3690252Y20245000D01*
%TO.C,J4*%
X3816000Y8610000D02*
X5266000Y8610000D01*
X5266000Y3190000D02*
X6256000Y3190000D01*
X996000Y2660000D02*
X996000Y7340000D01*
X5266000Y8610000D02*
X5266000Y6810000D01*
X3816000Y1390000D02*
X5266000Y1390000D01*
X5266000Y1390000D02*
X5266000Y3190000D01*
%TO.C,D3*%
X88899000Y10078000D02*
X85599000Y10078000D01*
X85599000Y10078000D02*
X85599000Y16978000D01*
X88899000Y10078000D02*
X88899000Y16978000D01*
%TO.C,J3*%
X86174000Y1390000D02*
X86174000Y3190000D01*
X90444000Y7340000D02*
X90444000Y2660000D01*
X86174000Y8610000D02*
X86174000Y6810000D01*
X87624000Y8610000D02*
X86174000Y8610000D01*
X86174000Y6810000D02*
X85184000Y6810000D01*
X87624000Y1390000D02*
X86174000Y1390000D01*
%TO.C,F4*%
X87368748Y21769000D02*
X87891252Y21769000D01*
X87368748Y23189000D02*
X87891252Y23189000D01*
%TD*%
M02*
