%TF.GenerationSoftware,KiCad,Pcbnew,6.0.4-6f826c9f35~116~ubuntu20.04.1*%
%TF.CreationDate,2022-07-18T09:44:21+00:00*%
%TF.ProjectId,UST2BATTD01A,55535432-4241-4545-9444-3031412e6b69,rev?*%
%TF.SameCoordinates,PX463f660PY87a6900*%
%TF.FileFunction,Copper,L1,Top*%
%TF.FilePolarity,Positive*%
%FSLAX46Y46*%
G04 Gerber Fmt 4.6, Leading zero omitted, Abs format (unit mm)*
G04 Created by KiCad (PCBNEW 6.0.4-6f826c9f35~116~ubuntu20.04.1) date 2022-07-18 09:44:21*
%MOMM*%
%LPD*%
G01*
G04 APERTURE LIST*
G04 Aperture macros list*
%AMRoundRect*
0 Rectangle with rounded corners*
0 $1 Rounding radius*
0 $2 $3 $4 $5 $6 $7 $8 $9 X,Y pos of 4 corners*
0 Add a 4 corners polygon primitive as box body*
4,1,4,$2,$3,$4,$5,$6,$7,$8,$9,$2,$3,0*
0 Add four circle primitives for the rounded corners*
1,1,$1+$1,$2,$3*
1,1,$1+$1,$4,$5*
1,1,$1+$1,$6,$7*
1,1,$1+$1,$8,$9*
0 Add four rect primitives between the rounded corners*
20,1,$1+$1,$2,$3,$4,$5,0*
20,1,$1+$1,$4,$5,$6,$7,0*
20,1,$1+$1,$6,$7,$8,$9,0*
20,1,$1+$1,$8,$9,$2,$3,0*%
G04 Aperture macros list end*
%TA.AperFunction,WasherPad*%
%ADD10C,4.500000*%
%TD*%
%TA.AperFunction,ComponentPad*%
%ADD11C,2.500000*%
%TD*%
%TA.AperFunction,SMDPad,CuDef*%
%ADD12RoundRect,0.150000X-0.700000X0.150000X-0.700000X-0.150000X0.700000X-0.150000X0.700000X0.150000X0*%
%TD*%
%TA.AperFunction,SMDPad,CuDef*%
%ADD13RoundRect,0.250000X-1.100000X0.250000X-1.100000X-0.250000X1.100000X-0.250000X1.100000X0.250000X0*%
%TD*%
%TA.AperFunction,SMDPad,CuDef*%
%ADD14R,1.800000X3.500000*%
%TD*%
%TA.AperFunction,SMDPad,CuDef*%
%ADD15RoundRect,0.250000X-0.325000X-0.450000X0.325000X-0.450000X0.325000X0.450000X-0.325000X0.450000X0*%
%TD*%
%TA.AperFunction,SMDPad,CuDef*%
%ADD16RoundRect,0.250000X0.325000X0.450000X-0.325000X0.450000X-0.325000X-0.450000X0.325000X-0.450000X0*%
%TD*%
%TA.AperFunction,SMDPad,CuDef*%
%ADD17RoundRect,0.150000X0.700000X-0.150000X0.700000X0.150000X-0.700000X0.150000X-0.700000X-0.150000X0*%
%TD*%
%TA.AperFunction,SMDPad,CuDef*%
%ADD18RoundRect,0.250000X1.100000X-0.250000X1.100000X0.250000X-1.100000X0.250000X-1.100000X-0.250000X0*%
%TD*%
%TA.AperFunction,ViaPad*%
%ADD19C,0.800000*%
%TD*%
%TA.AperFunction,Conductor*%
%ADD20C,0.800000*%
%TD*%
%TA.AperFunction,Conductor*%
%ADD21C,0.400000*%
%TD*%
G04 APERTURE END LIST*
D10*
%TO.P,BT1,*%
%TO.N,*%
X26670000Y18200000D03*
X26670000Y53800000D03*
D11*
%TO.P,BT1,1,+*%
%TO.N,Net-(F1-Pad2)*%
X26670000Y2250000D03*
%TO.P,BT1,2,-*%
%TO.N,GND*%
X26670000Y69750000D03*
%TD*%
D12*
%TO.P,J2,1*%
%TO.N,GND*%
X5406000Y6250000D03*
%TO.P,J2,2*%
%TO.N,Net-(D1-Pad1)*%
X5406000Y5000000D03*
%TO.P,J2,3*%
%TO.N,GND*%
X5406000Y3750000D03*
D13*
%TO.P,J2,MP*%
X2206000Y1900000D03*
X2206000Y8100000D03*
%TD*%
D14*
%TO.P,D2,1,K*%
%TO.N,Net-(D1-Pad1)*%
X87249000Y11978000D03*
%TO.P,D2,2,A*%
%TO.N,Net-(D2-Pad2)*%
X87249000Y16978000D03*
%TD*%
D15*
%TO.P,F1,1*%
%TO.N,Net-(D1-Pad2)*%
X2404000Y20955000D03*
%TO.P,F1,2*%
%TO.N,Net-(F1-Pad2)*%
X4454000Y20955000D03*
%TD*%
D10*
%TO.P,BT2,*%
%TO.N,*%
X64770000Y53800000D03*
X64770000Y18200000D03*
D11*
%TO.P,BT2,1,+*%
%TO.N,Net-(F2-Pad2)*%
X64770000Y2250000D03*
%TO.P,BT2,2,-*%
%TO.N,GND*%
X64770000Y69750000D03*
%TD*%
D14*
%TO.P,D1,1,K*%
%TO.N,Net-(D1-Pad1)*%
X3683000Y11851000D03*
%TO.P,D1,2,A*%
%TO.N,Net-(D1-Pad2)*%
X3683000Y16851000D03*
%TD*%
D16*
%TO.P,F2,1*%
%TO.N,Net-(D2-Pad2)*%
X88655000Y22479000D03*
%TO.P,F2,2*%
%TO.N,Net-(F2-Pad2)*%
X86605000Y22479000D03*
%TD*%
D17*
%TO.P,J1,1*%
%TO.N,GND*%
X86034000Y3750000D03*
%TO.P,J1,2*%
%TO.N,Net-(D1-Pad1)*%
X86034000Y5000000D03*
%TO.P,J1,3*%
%TO.N,GND*%
X86034000Y6250000D03*
D18*
%TO.P,J1,MP*%
X89234000Y1900000D03*
X89234000Y8100000D03*
%TD*%
D19*
%TO.N,Net-(F1-Pad2)*%
X10541000Y20955000D03*
X9017000Y20955000D03*
%TO.N,Net-(F2-Pad2)*%
X81661000Y22479000D03*
X84201000Y22479000D03*
%TO.N,Net-(D1-Pad1)*%
X83185000Y9398000D03*
X83185000Y5461000D03*
X8763000Y5461000D03*
X8763000Y10795000D03*
%TD*%
D20*
%TO.N,Net-(F1-Pad2)*%
X4454000Y20955000D02*
X10541000Y20955000D01*
%TO.N,Net-(F2-Pad2)*%
X86605000Y22479000D02*
X84201000Y22479000D01*
X84201000Y22479000D02*
X81661000Y22479000D01*
%TO.N,Net-(D1-Pad2)*%
X3683000Y19676000D02*
X2404000Y20955000D01*
X3683000Y16851000D02*
X3683000Y19676000D01*
%TO.N,Net-(D2-Pad2)*%
X87249000Y16978000D02*
X87249000Y21073000D01*
X87249000Y21073000D02*
X88655000Y22479000D01*
%TO.N,Net-(D1-Pad1)*%
X83185000Y9398000D02*
X83185000Y5461000D01*
X8763000Y10795000D02*
X8763000Y5461000D01*
X83185000Y5461000D02*
X83646000Y5000000D01*
D21*
X83646000Y5000000D02*
X83566000Y5080000D01*
X5406000Y5000000D02*
X8302000Y5000000D01*
D20*
X3683000Y11851000D02*
X7707000Y11851000D01*
D21*
X86034000Y5000000D02*
X83646000Y5000000D01*
D20*
X8763000Y5461000D02*
X8382000Y5080000D01*
X87249000Y11978000D02*
X85765000Y11978000D01*
X8763000Y5461000D02*
X83185000Y5461000D01*
X85765000Y11978000D02*
X83185000Y9398000D01*
X7707000Y11851000D02*
X8763000Y10795000D01*
%TD*%
%TA.AperFunction,Conductor*%
%TO.N,GND*%
G36*
X26321073Y71479498D02*
G01*
X26367566Y71425842D01*
X26377670Y71355568D01*
X26348176Y71290988D01*
X26282366Y71250981D01*
X26194355Y71229851D01*
X26184970Y71226802D01*
X25968713Y71137226D01*
X25959919Y71132745D01*
X25760333Y71010438D01*
X25752351Y71004638D01*
X25698785Y70958889D01*
X25690355Y70945976D01*
X25696363Y70935769D01*
X26657188Y69974944D01*
X26671132Y69967330D01*
X26672965Y69967461D01*
X26679580Y69971712D01*
X27642179Y70934311D01*
X27649571Y70947848D01*
X27642783Y70957549D01*
X27587649Y71004638D01*
X27579667Y71010438D01*
X27380081Y71132745D01*
X27371287Y71137226D01*
X27155030Y71226802D01*
X27145645Y71229851D01*
X27057634Y71250981D01*
X26996065Y71286333D01*
X26963382Y71349360D01*
X26969963Y71420051D01*
X27013717Y71475962D01*
X27087048Y71499500D01*
X64352952Y71499500D01*
X64421073Y71479498D01*
X64467566Y71425842D01*
X64477670Y71355568D01*
X64448176Y71290988D01*
X64382366Y71250981D01*
X64294355Y71229851D01*
X64284970Y71226802D01*
X64068713Y71137226D01*
X64059919Y71132745D01*
X63860333Y71010438D01*
X63852351Y71004638D01*
X63798785Y70958889D01*
X63790355Y70945976D01*
X63796363Y70935769D01*
X64757188Y69974944D01*
X64771132Y69967330D01*
X64772965Y69967461D01*
X64779580Y69971712D01*
X65742179Y70934311D01*
X65749571Y70947848D01*
X65742783Y70957549D01*
X65687649Y71004638D01*
X65679667Y71010438D01*
X65480081Y71132745D01*
X65471287Y71137226D01*
X65255030Y71226802D01*
X65245645Y71229851D01*
X65157634Y71250981D01*
X65096065Y71286333D01*
X65063382Y71349360D01*
X65069963Y71420051D01*
X65113717Y71475962D01*
X65187048Y71499500D01*
X90559500Y71499500D01*
X90627621Y71479498D01*
X90674114Y71425842D01*
X90685500Y71373500D01*
X90685500Y8987813D01*
X90665498Y8919692D01*
X90611842Y8873199D01*
X90541568Y8863095D01*
X90513117Y8870661D01*
X90473957Y8886165D01*
X90458388Y8890119D01*
X90380498Y8899544D01*
X90372943Y8900000D01*
X89402115Y8900000D01*
X89386876Y8895525D01*
X89385671Y8894135D01*
X89384000Y8886452D01*
X89384000Y7318115D01*
X89388475Y7302876D01*
X89389865Y7301671D01*
X89397548Y7300000D01*
X90372943Y7300000D01*
X90380498Y7300456D01*
X90458388Y7309881D01*
X90473957Y7313835D01*
X90513117Y7329339D01*
X90583818Y7335818D01*
X90646797Y7303045D01*
X90682061Y7241425D01*
X90685500Y7212187D01*
X90685500Y2787813D01*
X90665498Y2719692D01*
X90611842Y2673199D01*
X90541568Y2663095D01*
X90513117Y2670661D01*
X90473957Y2686165D01*
X90458388Y2690119D01*
X90380498Y2699544D01*
X90372943Y2700000D01*
X89402115Y2700000D01*
X89386876Y2695525D01*
X89385671Y2694135D01*
X89384000Y2686452D01*
X89384000Y1118115D01*
X89388475Y1102876D01*
X89389865Y1101671D01*
X89397548Y1100000D01*
X90372943Y1100000D01*
X90380498Y1100456D01*
X90458388Y1109881D01*
X90473957Y1113835D01*
X90513117Y1129339D01*
X90583818Y1135818D01*
X90646797Y1103045D01*
X90682061Y1041425D01*
X90685500Y1012187D01*
X90685500Y626500D01*
X90665498Y558379D01*
X90611842Y511886D01*
X90559500Y500500D01*
X65189187Y500500D01*
X65121066Y520502D01*
X65074573Y574158D01*
X65064469Y644432D01*
X65093963Y709012D01*
X65159773Y749019D01*
X65245804Y769673D01*
X65245812Y769676D01*
X65250612Y770828D01*
X65255175Y772718D01*
X65255181Y772720D01*
X65471515Y862328D01*
X65471519Y862330D01*
X65476089Y864223D01*
X65684179Y991741D01*
X65869759Y1150241D01*
X66028259Y1335821D01*
X66155777Y1543911D01*
X66157672Y1548485D01*
X66183590Y1611057D01*
X87584000Y1611057D01*
X87584456Y1603502D01*
X87593881Y1525612D01*
X87597834Y1510047D01*
X87647165Y1385451D01*
X87655522Y1370620D01*
X87736243Y1264275D01*
X87748275Y1252243D01*
X87854620Y1171522D01*
X87869451Y1163165D01*
X87994047Y1113834D01*
X88009612Y1109881D01*
X88087502Y1100456D01*
X88095057Y1100000D01*
X89065885Y1100000D01*
X89081124Y1104475D01*
X89082329Y1105865D01*
X89084000Y1113548D01*
X89084000Y1731885D01*
X89079525Y1747124D01*
X89078135Y1748329D01*
X89070452Y1750000D01*
X87602115Y1750000D01*
X87586876Y1745525D01*
X87585671Y1744135D01*
X87584000Y1736452D01*
X87584000Y1611057D01*
X66183590Y1611057D01*
X66247280Y1764819D01*
X66247282Y1764825D01*
X66249172Y1769388D01*
X66306146Y2006698D01*
X66310980Y2068115D01*
X87584000Y2068115D01*
X87588475Y2052876D01*
X87589865Y2051671D01*
X87597548Y2050000D01*
X89065885Y2050000D01*
X89081124Y2054475D01*
X89082329Y2055865D01*
X89084000Y2063548D01*
X89084000Y2681885D01*
X89079525Y2697124D01*
X89078135Y2698329D01*
X89070452Y2700000D01*
X88095057Y2700000D01*
X88087502Y2699544D01*
X88009612Y2690119D01*
X87994047Y2686166D01*
X87869451Y2636835D01*
X87854620Y2628478D01*
X87748275Y2547757D01*
X87736243Y2535725D01*
X87655522Y2429380D01*
X87647165Y2414549D01*
X87597834Y2289953D01*
X87593881Y2274388D01*
X87584456Y2196498D01*
X87584000Y2188943D01*
X87584000Y2068115D01*
X66310980Y2068115D01*
X66325294Y2250000D01*
X66306146Y2493302D01*
X66258894Y2690119D01*
X66250326Y2725807D01*
X66250324Y2725812D01*
X66249172Y2730612D01*
X66247282Y2735175D01*
X66247280Y2735181D01*
X66157672Y2951515D01*
X66157670Y2951519D01*
X66155777Y2956089D01*
X66028259Y3164179D01*
X65869759Y3349759D01*
X65684179Y3508259D01*
X65617376Y3549196D01*
X84884001Y3549196D01*
X84884280Y3543275D01*
X84886256Y3522369D01*
X84889521Y3507484D01*
X84928694Y3395936D01*
X84937406Y3379480D01*
X85006616Y3285779D01*
X85019779Y3272616D01*
X85113480Y3203406D01*
X85129936Y3194694D01*
X85241479Y3155523D01*
X85256373Y3152255D01*
X85277281Y3150279D01*
X85283192Y3150000D01*
X85865885Y3150000D01*
X85881124Y3154475D01*
X85882329Y3155865D01*
X85884000Y3163548D01*
X85884000Y3168116D01*
X86184000Y3168116D01*
X86188475Y3152877D01*
X86189865Y3151672D01*
X86197548Y3150001D01*
X86784804Y3150001D01*
X86790725Y3150280D01*
X86811631Y3152256D01*
X86826516Y3155521D01*
X86938064Y3194694D01*
X86954520Y3203406D01*
X87048221Y3272616D01*
X87061384Y3285779D01*
X87130594Y3379480D01*
X87139306Y3395936D01*
X87178477Y3507479D01*
X87181745Y3522373D01*
X87183721Y3543281D01*
X87184000Y3549192D01*
X87184000Y3581885D01*
X87179525Y3597124D01*
X87178135Y3598329D01*
X87170452Y3600000D01*
X86202115Y3600000D01*
X86186876Y3595525D01*
X86185671Y3594135D01*
X86184000Y3586452D01*
X86184000Y3168116D01*
X85884000Y3168116D01*
X85884000Y3581885D01*
X85879525Y3597124D01*
X85878135Y3598329D01*
X85870452Y3600000D01*
X84902116Y3600000D01*
X84886877Y3595525D01*
X84885672Y3594135D01*
X84884001Y3586452D01*
X84884001Y3549196D01*
X65617376Y3549196D01*
X65476089Y3635777D01*
X65471519Y3637670D01*
X65471515Y3637672D01*
X65255181Y3727280D01*
X65255175Y3727282D01*
X65250612Y3729172D01*
X65245812Y3730324D01*
X65245807Y3730326D01*
X65137298Y3756377D01*
X65013302Y3786146D01*
X64770000Y3805294D01*
X64526698Y3786146D01*
X64402702Y3756377D01*
X64294193Y3730326D01*
X64294188Y3730324D01*
X64289388Y3729172D01*
X64284825Y3727282D01*
X64284819Y3727280D01*
X64068485Y3637672D01*
X64068481Y3637670D01*
X64063911Y3635777D01*
X63855821Y3508259D01*
X63670241Y3349759D01*
X63511741Y3164179D01*
X63384223Y2956089D01*
X63382330Y2951519D01*
X63382328Y2951515D01*
X63292720Y2735181D01*
X63292718Y2735175D01*
X63290828Y2730612D01*
X63289676Y2725812D01*
X63289674Y2725807D01*
X63281106Y2690119D01*
X63233854Y2493302D01*
X63214706Y2250000D01*
X63233854Y2006698D01*
X63290828Y1769388D01*
X63292718Y1764825D01*
X63292720Y1764819D01*
X63382328Y1548485D01*
X63384223Y1543911D01*
X63511741Y1335821D01*
X63670241Y1150241D01*
X63855821Y991741D01*
X64063911Y864223D01*
X64068481Y862330D01*
X64068485Y862328D01*
X64284819Y772720D01*
X64284825Y772718D01*
X64289388Y770828D01*
X64294188Y769676D01*
X64294196Y769673D01*
X64380227Y749019D01*
X64441797Y713667D01*
X64474479Y650640D01*
X64467898Y579949D01*
X64424144Y524037D01*
X64350813Y500500D01*
X27089187Y500500D01*
X27021066Y520502D01*
X26974573Y574158D01*
X26964469Y644432D01*
X26993963Y709012D01*
X27059773Y749019D01*
X27145804Y769673D01*
X27145812Y769676D01*
X27150612Y770828D01*
X27155175Y772718D01*
X27155181Y772720D01*
X27371515Y862328D01*
X27371519Y862330D01*
X27376089Y864223D01*
X27584179Y991741D01*
X27769759Y1150241D01*
X27928259Y1335821D01*
X28055777Y1543911D01*
X28057672Y1548485D01*
X28147280Y1764819D01*
X28147282Y1764825D01*
X28149172Y1769388D01*
X28206146Y2006698D01*
X28225294Y2250000D01*
X28206146Y2493302D01*
X28158894Y2690119D01*
X28150326Y2725807D01*
X28150324Y2725812D01*
X28149172Y2730612D01*
X28147282Y2735175D01*
X28147280Y2735181D01*
X28057672Y2951515D01*
X28057670Y2951519D01*
X28055777Y2956089D01*
X27928259Y3164179D01*
X27769759Y3349759D01*
X27584179Y3508259D01*
X27376089Y3635777D01*
X27371519Y3637670D01*
X27371515Y3637672D01*
X27155181Y3727280D01*
X27155175Y3727282D01*
X27150612Y3729172D01*
X27145812Y3730324D01*
X27145807Y3730326D01*
X27037298Y3756377D01*
X26913302Y3786146D01*
X26670000Y3805294D01*
X26426698Y3786146D01*
X26302702Y3756377D01*
X26194193Y3730326D01*
X26194188Y3730324D01*
X26189388Y3729172D01*
X26184825Y3727282D01*
X26184819Y3727280D01*
X25968485Y3637672D01*
X25968481Y3637670D01*
X25963911Y3635777D01*
X25755821Y3508259D01*
X25570241Y3349759D01*
X25411741Y3164179D01*
X25284223Y2956089D01*
X25282330Y2951519D01*
X25282328Y2951515D01*
X25192720Y2735181D01*
X25192718Y2735175D01*
X25190828Y2730612D01*
X25189676Y2725812D01*
X25189674Y2725807D01*
X25181106Y2690119D01*
X25133854Y2493302D01*
X25114706Y2250000D01*
X25133854Y2006698D01*
X25190828Y1769388D01*
X25192718Y1764825D01*
X25192720Y1764819D01*
X25282328Y1548485D01*
X25284223Y1543911D01*
X25411741Y1335821D01*
X25570241Y1150241D01*
X25755821Y991741D01*
X25963911Y864223D01*
X25968481Y862330D01*
X25968485Y862328D01*
X26184819Y772720D01*
X26184825Y772718D01*
X26189388Y770828D01*
X26194188Y769676D01*
X26194196Y769673D01*
X26280227Y749019D01*
X26341797Y713667D01*
X26374479Y650640D01*
X26367898Y579949D01*
X26324144Y524037D01*
X26250813Y500500D01*
X880500Y500500D01*
X812379Y520502D01*
X765886Y574158D01*
X754500Y626500D01*
X754500Y1012187D01*
X774502Y1080308D01*
X828158Y1126801D01*
X898432Y1136905D01*
X926883Y1129339D01*
X966043Y1113835D01*
X981612Y1109881D01*
X1059502Y1100456D01*
X1067057Y1100000D01*
X2037885Y1100000D01*
X2053124Y1104475D01*
X2054329Y1105865D01*
X2056000Y1113548D01*
X2056000Y1118115D01*
X2356000Y1118115D01*
X2360475Y1102876D01*
X2361865Y1101671D01*
X2369548Y1100000D01*
X3344943Y1100000D01*
X3352498Y1100456D01*
X3430388Y1109881D01*
X3445953Y1113834D01*
X3570549Y1163165D01*
X3585380Y1171522D01*
X3691725Y1252243D01*
X3703757Y1264275D01*
X3784478Y1370620D01*
X3792835Y1385451D01*
X3842166Y1510047D01*
X3846119Y1525612D01*
X3855544Y1603502D01*
X3856000Y1611057D01*
X3856000Y1731885D01*
X3851525Y1747124D01*
X3850135Y1748329D01*
X3842452Y1750000D01*
X2374115Y1750000D01*
X2358876Y1745525D01*
X2357671Y1744135D01*
X2356000Y1736452D01*
X2356000Y1118115D01*
X2056000Y1118115D01*
X2056000Y2068115D01*
X2356000Y2068115D01*
X2360475Y2052876D01*
X2361865Y2051671D01*
X2369548Y2050000D01*
X3837885Y2050000D01*
X3853124Y2054475D01*
X3854329Y2055865D01*
X3856000Y2063548D01*
X3856000Y2188943D01*
X3855544Y2196498D01*
X3846119Y2274388D01*
X3842166Y2289953D01*
X3792835Y2414549D01*
X3784478Y2429380D01*
X3703757Y2535725D01*
X3691725Y2547757D01*
X3585380Y2628478D01*
X3570549Y2636835D01*
X3445953Y2686166D01*
X3430388Y2690119D01*
X3352498Y2699544D01*
X3344943Y2700000D01*
X2374115Y2700000D01*
X2358876Y2695525D01*
X2357671Y2694135D01*
X2356000Y2686452D01*
X2356000Y2068115D01*
X2056000Y2068115D01*
X2056000Y2681885D01*
X2051525Y2697124D01*
X2050135Y2698329D01*
X2042452Y2700000D01*
X1067057Y2700000D01*
X1059502Y2699544D01*
X981612Y2690119D01*
X966043Y2686165D01*
X926883Y2670661D01*
X856182Y2664182D01*
X793203Y2696955D01*
X757939Y2758575D01*
X754500Y2787813D01*
X754500Y3549196D01*
X4256001Y3549196D01*
X4256280Y3543275D01*
X4258256Y3522369D01*
X4261521Y3507484D01*
X4300694Y3395936D01*
X4309406Y3379480D01*
X4378616Y3285779D01*
X4391779Y3272616D01*
X4485480Y3203406D01*
X4501936Y3194694D01*
X4613479Y3155523D01*
X4628373Y3152255D01*
X4649281Y3150279D01*
X4655192Y3150000D01*
X5237885Y3150000D01*
X5253124Y3154475D01*
X5254329Y3155865D01*
X5256000Y3163548D01*
X5256000Y3168116D01*
X5556000Y3168116D01*
X5560475Y3152877D01*
X5561865Y3151672D01*
X5569548Y3150001D01*
X6156804Y3150001D01*
X6162725Y3150280D01*
X6183631Y3152256D01*
X6198516Y3155521D01*
X6310064Y3194694D01*
X6326520Y3203406D01*
X6420221Y3272616D01*
X6433384Y3285779D01*
X6502594Y3379480D01*
X6511306Y3395936D01*
X6550477Y3507479D01*
X6553745Y3522373D01*
X6555721Y3543281D01*
X6556000Y3549192D01*
X6556000Y3581885D01*
X6551525Y3597124D01*
X6550135Y3598329D01*
X6542452Y3600000D01*
X5574115Y3600000D01*
X5558876Y3595525D01*
X5557671Y3594135D01*
X5556000Y3586452D01*
X5556000Y3168116D01*
X5256000Y3168116D01*
X5256000Y3581885D01*
X5251525Y3597124D01*
X5250135Y3598329D01*
X5242452Y3600000D01*
X4274116Y3600000D01*
X4258877Y3595525D01*
X4257672Y3594135D01*
X4256001Y3586452D01*
X4256001Y3549196D01*
X754500Y3549196D01*
X754500Y6418115D01*
X4256000Y6418115D01*
X4260475Y6402876D01*
X4261865Y6401671D01*
X4269548Y6400000D01*
X5237885Y6400000D01*
X5253124Y6404475D01*
X5254329Y6405865D01*
X5256000Y6413548D01*
X5256000Y6418115D01*
X5556000Y6418115D01*
X5560475Y6402876D01*
X5561865Y6401671D01*
X5569548Y6400000D01*
X6537884Y6400000D01*
X6553123Y6404475D01*
X6554328Y6405865D01*
X6555999Y6413548D01*
X6555999Y6450804D01*
X6555720Y6456725D01*
X6553744Y6477631D01*
X6550479Y6492516D01*
X6511306Y6604064D01*
X6502594Y6620520D01*
X6433384Y6714221D01*
X6420221Y6727384D01*
X6326520Y6796594D01*
X6310064Y6805306D01*
X6198521Y6844477D01*
X6183627Y6847745D01*
X6162719Y6849721D01*
X6156808Y6850000D01*
X5574115Y6850000D01*
X5558876Y6845525D01*
X5557671Y6844135D01*
X5556000Y6836452D01*
X5556000Y6418115D01*
X5256000Y6418115D01*
X5256000Y6831884D01*
X5251525Y6847123D01*
X5250135Y6848328D01*
X5242452Y6849999D01*
X4655196Y6849999D01*
X4649275Y6849720D01*
X4628369Y6847744D01*
X4613484Y6844479D01*
X4501936Y6805306D01*
X4485480Y6796594D01*
X4391779Y6727384D01*
X4378616Y6714221D01*
X4309406Y6620520D01*
X4300694Y6604064D01*
X4261523Y6492521D01*
X4258255Y6477627D01*
X4256279Y6456719D01*
X4256000Y6450808D01*
X4256000Y6418115D01*
X754500Y6418115D01*
X754500Y7212187D01*
X774502Y7280308D01*
X828158Y7326801D01*
X898432Y7336905D01*
X926883Y7329339D01*
X966043Y7313835D01*
X981612Y7309881D01*
X1059502Y7300456D01*
X1067057Y7300000D01*
X2037885Y7300000D01*
X2053124Y7304475D01*
X2054329Y7305865D01*
X2056000Y7313548D01*
X2056000Y7318115D01*
X2356000Y7318115D01*
X2360475Y7302876D01*
X2361865Y7301671D01*
X2369548Y7300000D01*
X3344943Y7300000D01*
X3352498Y7300456D01*
X3430388Y7309881D01*
X3445953Y7313834D01*
X3570549Y7363165D01*
X3585380Y7371522D01*
X3691725Y7452243D01*
X3703757Y7464275D01*
X3784478Y7570620D01*
X3792835Y7585451D01*
X3842166Y7710047D01*
X3846119Y7725612D01*
X3855544Y7803502D01*
X3856000Y7811057D01*
X3856000Y7931885D01*
X3851525Y7947124D01*
X3850135Y7948329D01*
X3842452Y7950000D01*
X2374115Y7950000D01*
X2358876Y7945525D01*
X2357671Y7944135D01*
X2356000Y7936452D01*
X2356000Y7318115D01*
X2056000Y7318115D01*
X2056000Y8268115D01*
X2356000Y8268115D01*
X2360475Y8252876D01*
X2361865Y8251671D01*
X2369548Y8250000D01*
X3837885Y8250000D01*
X3853124Y8254475D01*
X3854329Y8255865D01*
X3856000Y8263548D01*
X3856000Y8388943D01*
X3855544Y8396498D01*
X3846119Y8474388D01*
X3842166Y8489953D01*
X3792835Y8614549D01*
X3784478Y8629380D01*
X3703757Y8735725D01*
X3691725Y8747757D01*
X3585380Y8828478D01*
X3570549Y8836835D01*
X3445953Y8886166D01*
X3430388Y8890119D01*
X3352498Y8899544D01*
X3344943Y8900000D01*
X2374115Y8900000D01*
X2358876Y8895525D01*
X2357671Y8894135D01*
X2356000Y8886452D01*
X2356000Y8268115D01*
X2056000Y8268115D01*
X2056000Y8881885D01*
X2051525Y8897124D01*
X2050135Y8898329D01*
X2042452Y8900000D01*
X1067057Y8900000D01*
X1059502Y8899544D01*
X981612Y8890119D01*
X966043Y8886165D01*
X926883Y8870661D01*
X856182Y8864182D01*
X793203Y8896955D01*
X757939Y8958575D01*
X754500Y8987813D01*
X754500Y10056354D01*
X2482500Y10056354D01*
X2485618Y10030154D01*
X2531061Y9927847D01*
X2610287Y9848759D01*
X2620924Y9844056D01*
X2620926Y9844055D01*
X2678647Y9818537D01*
X2712673Y9803494D01*
X2738354Y9800500D01*
X4627646Y9800500D01*
X4631350Y9800941D01*
X4631353Y9800941D01*
X4638746Y9801821D01*
X4653846Y9803618D01*
X4681333Y9815827D01*
X4745518Y9844337D01*
X4756153Y9849061D01*
X4835241Y9928287D01*
X4854274Y9971337D01*
X4876675Y10022008D01*
X4880506Y10030673D01*
X4883500Y10056354D01*
X4883500Y11024500D01*
X4903502Y11092621D01*
X4957158Y11139114D01*
X5009500Y11150500D01*
X7364653Y11150500D01*
X7432774Y11130498D01*
X7453749Y11113595D01*
X8025596Y10541747D01*
X8059621Y10479435D01*
X8062500Y10452652D01*
X8062500Y5803347D01*
X8042498Y5735226D01*
X8025595Y5714252D01*
X7856608Y5545265D01*
X7854707Y5542840D01*
X7794683Y5505212D01*
X7760546Y5500500D01*
X6434475Y5500500D01*
X6366354Y5520502D01*
X6319861Y5574158D01*
X6309757Y5644432D01*
X6339251Y5709012D01*
X6359615Y5727851D01*
X6420221Y5772616D01*
X6433384Y5785779D01*
X6502594Y5879480D01*
X6511306Y5895936D01*
X6550477Y6007479D01*
X6553745Y6022373D01*
X6555721Y6043281D01*
X6556000Y6049192D01*
X6556000Y6081885D01*
X6551525Y6097124D01*
X6550135Y6098329D01*
X6542452Y6100000D01*
X4274116Y6100000D01*
X4258877Y6095525D01*
X4257672Y6094135D01*
X4256001Y6086452D01*
X4256001Y6049196D01*
X4256280Y6043275D01*
X4258256Y6022369D01*
X4261521Y6007484D01*
X4300694Y5895936D01*
X4309406Y5879480D01*
X4378616Y5785779D01*
X4391779Y5772616D01*
X4453995Y5726662D01*
X4496905Y5670101D01*
X4502425Y5599319D01*
X4468801Y5536789D01*
X4453994Y5523960D01*
X4391424Y5477745D01*
X4391421Y5477742D01*
X4383850Y5472150D01*
X4378258Y5464579D01*
X4308959Y5370757D01*
X4308958Y5370754D01*
X4303366Y5363184D01*
X4258481Y5235369D01*
X4255500Y5203834D01*
X4255500Y4796166D01*
X4258481Y4764631D01*
X4303366Y4636816D01*
X4308958Y4629246D01*
X4308959Y4629243D01*
X4363839Y4554943D01*
X4383850Y4527850D01*
X4391421Y4522258D01*
X4391424Y4522255D01*
X4453994Y4476040D01*
X4496905Y4419479D01*
X4502425Y4348697D01*
X4468801Y4286168D01*
X4453995Y4273338D01*
X4391779Y4227384D01*
X4378616Y4214221D01*
X4309406Y4120520D01*
X4300694Y4104064D01*
X4261523Y3992521D01*
X4258255Y3977627D01*
X4256279Y3956719D01*
X4256000Y3950808D01*
X4256000Y3918115D01*
X4260475Y3902876D01*
X4261865Y3901671D01*
X4269548Y3900000D01*
X6537884Y3900000D01*
X6553123Y3904475D01*
X6554328Y3905865D01*
X6555999Y3913548D01*
X6555999Y3950804D01*
X6555720Y3956725D01*
X6553744Y3977631D01*
X6550479Y3992516D01*
X6511306Y4104064D01*
X6502594Y4120520D01*
X6433384Y4214221D01*
X6420221Y4227384D01*
X6359615Y4272149D01*
X6316704Y4328711D01*
X6311185Y4399492D01*
X6344809Y4462022D01*
X6406902Y4496446D01*
X6434475Y4499500D01*
X7953015Y4499500D01*
X8018849Y4480933D01*
X8088254Y4438402D01*
X8127610Y4425842D01*
X8242536Y4389164D01*
X8242538Y4389164D01*
X8249775Y4386854D01*
X8257355Y4386337D01*
X8257356Y4386337D01*
X8411354Y4375838D01*
X8411358Y4375838D01*
X8418930Y4375322D01*
X8426407Y4376627D01*
X8426408Y4376627D01*
X8578477Y4403168D01*
X8585954Y4404473D01*
X8592903Y4407524D01*
X8592905Y4407524D01*
X8717056Y4462022D01*
X8741202Y4472621D01*
X8747295Y4477296D01*
X8841407Y4549512D01*
X8844678Y4552022D01*
X9016251Y4723595D01*
X9078563Y4757621D01*
X9105346Y4760500D01*
X82842654Y4760500D01*
X82910775Y4740498D01*
X82931749Y4723595D01*
X83180735Y4474609D01*
X83183722Y4472267D01*
X83183723Y4472266D01*
X83270183Y4404473D01*
X83280457Y4396417D01*
X83434983Y4326645D01*
X83442451Y4325261D01*
X83442454Y4325260D01*
X83551388Y4305071D01*
X83601692Y4295748D01*
X83609272Y4296185D01*
X83609273Y4296185D01*
X83644804Y4298234D01*
X83770959Y4305508D01*
X83933011Y4355361D01*
X83966363Y4375322D01*
X84071972Y4438527D01*
X84071976Y4438530D01*
X84078494Y4442431D01*
X84083897Y4447778D01*
X84083900Y4447780D01*
X84099344Y4463062D01*
X84161834Y4496760D01*
X84187970Y4499500D01*
X85005525Y4499500D01*
X85073646Y4479498D01*
X85120139Y4425842D01*
X85130243Y4355568D01*
X85100749Y4290988D01*
X85080385Y4272149D01*
X85019779Y4227384D01*
X85006616Y4214221D01*
X84937406Y4120520D01*
X84928694Y4104064D01*
X84889523Y3992521D01*
X84886255Y3977627D01*
X84884279Y3956719D01*
X84884000Y3950808D01*
X84884000Y3918115D01*
X84888475Y3902876D01*
X84889865Y3901671D01*
X84897548Y3900000D01*
X87165884Y3900000D01*
X87181123Y3904475D01*
X87182328Y3905865D01*
X87183999Y3913548D01*
X87183999Y3950804D01*
X87183720Y3956725D01*
X87181744Y3977631D01*
X87178479Y3992516D01*
X87139306Y4104064D01*
X87130594Y4120520D01*
X87061384Y4214221D01*
X87048221Y4227384D01*
X86986005Y4273338D01*
X86943095Y4329899D01*
X86937575Y4400681D01*
X86971199Y4463211D01*
X86986006Y4476040D01*
X87048576Y4522255D01*
X87048579Y4522258D01*
X87056150Y4527850D01*
X87076161Y4554943D01*
X87131041Y4629243D01*
X87131042Y4629246D01*
X87136634Y4636816D01*
X87181519Y4764631D01*
X87184500Y4796166D01*
X87184500Y5203834D01*
X87181519Y5235369D01*
X87136634Y5363184D01*
X87131042Y5370754D01*
X87131041Y5370757D01*
X87061742Y5464579D01*
X87056150Y5472150D01*
X87048579Y5477742D01*
X87048576Y5477745D01*
X86986006Y5523960D01*
X86943095Y5580521D01*
X86937575Y5651303D01*
X86971199Y5713832D01*
X86986005Y5726662D01*
X87048221Y5772616D01*
X87061384Y5785779D01*
X87130594Y5879480D01*
X87139306Y5895936D01*
X87178477Y6007479D01*
X87181745Y6022373D01*
X87183721Y6043281D01*
X87184000Y6049192D01*
X87184000Y6081885D01*
X87179525Y6097124D01*
X87178135Y6098329D01*
X87170452Y6100000D01*
X84902116Y6100000D01*
X84886877Y6095525D01*
X84885672Y6094135D01*
X84884001Y6086452D01*
X84884001Y6049196D01*
X84884280Y6043275D01*
X84886256Y6022369D01*
X84889521Y6007484D01*
X84928694Y5895936D01*
X84937406Y5879480D01*
X85006616Y5785779D01*
X85019779Y5772616D01*
X85080385Y5727851D01*
X85123296Y5671289D01*
X85128815Y5600508D01*
X85095191Y5537978D01*
X85033098Y5503554D01*
X85005525Y5500500D01*
X84188347Y5500500D01*
X84120226Y5520502D01*
X84099252Y5537405D01*
X83922405Y5714252D01*
X83888379Y5776564D01*
X83885500Y5803347D01*
X83885500Y6418115D01*
X84884000Y6418115D01*
X84888475Y6402876D01*
X84889865Y6401671D01*
X84897548Y6400000D01*
X85865885Y6400000D01*
X85881124Y6404475D01*
X85882329Y6405865D01*
X85884000Y6413548D01*
X85884000Y6418115D01*
X86184000Y6418115D01*
X86188475Y6402876D01*
X86189865Y6401671D01*
X86197548Y6400000D01*
X87165884Y6400000D01*
X87181123Y6404475D01*
X87182328Y6405865D01*
X87183999Y6413548D01*
X87183999Y6450804D01*
X87183720Y6456725D01*
X87181744Y6477631D01*
X87178479Y6492516D01*
X87139306Y6604064D01*
X87130594Y6620520D01*
X87061384Y6714221D01*
X87048221Y6727384D01*
X86954520Y6796594D01*
X86938064Y6805306D01*
X86826521Y6844477D01*
X86811627Y6847745D01*
X86790719Y6849721D01*
X86784808Y6850000D01*
X86202115Y6850000D01*
X86186876Y6845525D01*
X86185671Y6844135D01*
X86184000Y6836452D01*
X86184000Y6418115D01*
X85884000Y6418115D01*
X85884000Y6831884D01*
X85879525Y6847123D01*
X85878135Y6848328D01*
X85870452Y6849999D01*
X85283196Y6849999D01*
X85277275Y6849720D01*
X85256369Y6847744D01*
X85241484Y6844479D01*
X85129936Y6805306D01*
X85113480Y6796594D01*
X85019779Y6727384D01*
X85006616Y6714221D01*
X84937406Y6620520D01*
X84928694Y6604064D01*
X84889523Y6492521D01*
X84886255Y6477627D01*
X84884279Y6456719D01*
X84884000Y6450808D01*
X84884000Y6418115D01*
X83885500Y6418115D01*
X83885500Y7811057D01*
X87584000Y7811057D01*
X87584456Y7803502D01*
X87593881Y7725612D01*
X87597834Y7710047D01*
X87647165Y7585451D01*
X87655522Y7570620D01*
X87736243Y7464275D01*
X87748275Y7452243D01*
X87854620Y7371522D01*
X87869451Y7363165D01*
X87994047Y7313834D01*
X88009612Y7309881D01*
X88087502Y7300456D01*
X88095057Y7300000D01*
X89065885Y7300000D01*
X89081124Y7304475D01*
X89082329Y7305865D01*
X89084000Y7313548D01*
X89084000Y7931885D01*
X89079525Y7947124D01*
X89078135Y7948329D01*
X89070452Y7950000D01*
X87602115Y7950000D01*
X87586876Y7945525D01*
X87585671Y7944135D01*
X87584000Y7936452D01*
X87584000Y7811057D01*
X83885500Y7811057D01*
X83885500Y8268115D01*
X87584000Y8268115D01*
X87588475Y8252876D01*
X87589865Y8251671D01*
X87597548Y8250000D01*
X89065885Y8250000D01*
X89081124Y8254475D01*
X89082329Y8255865D01*
X89084000Y8263548D01*
X89084000Y8881885D01*
X89079525Y8897124D01*
X89078135Y8898329D01*
X89070452Y8900000D01*
X88095057Y8900000D01*
X88087502Y8899544D01*
X88009612Y8890119D01*
X87994047Y8886166D01*
X87869451Y8836835D01*
X87854620Y8828478D01*
X87748275Y8747757D01*
X87736243Y8735725D01*
X87655522Y8629380D01*
X87647165Y8614549D01*
X87597834Y8489953D01*
X87593881Y8474388D01*
X87584456Y8396498D01*
X87584000Y8388943D01*
X87584000Y8268115D01*
X83885500Y8268115D01*
X83885500Y9055654D01*
X83905502Y9123775D01*
X83922405Y9144749D01*
X85833405Y11055748D01*
X85895717Y11089774D01*
X85966533Y11084709D01*
X86023368Y11042162D01*
X86048179Y10975642D01*
X86048500Y10966653D01*
X86048500Y10183354D01*
X86051618Y10157154D01*
X86097061Y10054847D01*
X86105294Y10046628D01*
X86105295Y10046627D01*
X86121277Y10030673D01*
X86176287Y9975759D01*
X86186924Y9971056D01*
X86186926Y9971055D01*
X86246462Y9944735D01*
X86278673Y9930494D01*
X86304354Y9927500D01*
X88193646Y9927500D01*
X88197350Y9927941D01*
X88197353Y9927941D01*
X88204746Y9928821D01*
X88219846Y9930618D01*
X88237551Y9938482D01*
X88311518Y9971337D01*
X88322153Y9976061D01*
X88401241Y10055287D01*
X88446506Y10157673D01*
X88449500Y10183354D01*
X88449500Y13772646D01*
X88446382Y13798846D01*
X88400939Y13901153D01*
X88321713Y13980241D01*
X88311076Y13984944D01*
X88311074Y13984945D01*
X88251538Y14011265D01*
X88219327Y14025506D01*
X88193646Y14028500D01*
X86304354Y14028500D01*
X86300650Y14028059D01*
X86300647Y14028059D01*
X86293254Y14027179D01*
X86278154Y14025382D01*
X86175847Y13979939D01*
X86096759Y13900713D01*
X86092056Y13890076D01*
X86092055Y13890074D01*
X86075638Y13852939D01*
X86051494Y13798327D01*
X86048500Y13772646D01*
X86048500Y12804500D01*
X86028498Y12736379D01*
X85974842Y12689886D01*
X85922500Y12678500D01*
X85793641Y12678500D01*
X85785071Y12678792D01*
X85735646Y12682162D01*
X85735642Y12682162D01*
X85728070Y12682678D01*
X85720594Y12681373D01*
X85720591Y12681373D01*
X85665868Y12671822D01*
X85659342Y12670859D01*
X85618904Y12665965D01*
X85596680Y12663276D01*
X85589573Y12660591D01*
X85586280Y12659782D01*
X85571809Y12655823D01*
X85568533Y12654834D01*
X85561046Y12653527D01*
X85554087Y12650472D01*
X85554086Y12650472D01*
X85503240Y12628153D01*
X85497134Y12625661D01*
X85445182Y12606030D01*
X85445180Y12606029D01*
X85438077Y12603345D01*
X85431822Y12599046D01*
X85428797Y12597465D01*
X85415701Y12590175D01*
X85412757Y12588434D01*
X85405798Y12585379D01*
X85399770Y12580754D01*
X85399769Y12580753D01*
X85355727Y12546958D01*
X85350391Y12543081D01*
X85304614Y12511619D01*
X85304608Y12511614D01*
X85298349Y12507312D01*
X85288110Y12495820D01*
X85257392Y12461343D01*
X85252411Y12456067D01*
X82709926Y9913583D01*
X82703661Y9907730D01*
X82660604Y9870169D01*
X82624317Y9818537D01*
X82620384Y9813242D01*
X82586105Y9769524D01*
X82586103Y9769520D01*
X82581416Y9763543D01*
X82578290Y9756620D01*
X82576505Y9753672D01*
X82569113Y9740712D01*
X82567480Y9737666D01*
X82563113Y9731453D01*
X82560354Y9724376D01*
X82540180Y9672634D01*
X82537625Y9666555D01*
X82511645Y9609016D01*
X82510260Y9601545D01*
X82509236Y9598277D01*
X82505123Y9583836D01*
X82504283Y9580563D01*
X82501524Y9573487D01*
X82500533Y9565958D01*
X82493284Y9510894D01*
X82492252Y9504378D01*
X82480748Y9442308D01*
X82481185Y9434729D01*
X82480972Y9431345D01*
X82480421Y9416318D01*
X82480386Y9412920D01*
X82479394Y9405389D01*
X82480228Y9397839D01*
X82483739Y9366032D01*
X82484500Y9352206D01*
X82484500Y6287500D01*
X82464498Y6219379D01*
X82410842Y6172886D01*
X82358500Y6161500D01*
X9589500Y6161500D01*
X9521379Y6181502D01*
X9474886Y6235158D01*
X9463500Y6287500D01*
X9463500Y10736239D01*
X9464757Y10753992D01*
X9467909Y10776138D01*
X9467909Y10776142D01*
X9468490Y10780222D01*
X9468645Y10795000D01*
X9467847Y10801595D01*
X9467340Y10820944D01*
X9467161Y10824353D01*
X9467678Y10831930D01*
X9456823Y10894130D01*
X9455860Y10900654D01*
X9449189Y10955779D01*
X9449188Y10955782D01*
X9448276Y10963320D01*
X9445592Y10970422D01*
X9444773Y10973758D01*
X9440817Y10988215D01*
X9439834Y10991472D01*
X9438528Y10998953D01*
X9427314Y11024500D01*
X9413151Y11056767D01*
X9410660Y11062872D01*
X9391033Y11114811D01*
X9391031Y11114815D01*
X9388345Y11121923D01*
X9384040Y11128187D01*
X9382451Y11131226D01*
X9375168Y11144313D01*
X9373430Y11147252D01*
X9370379Y11154202D01*
X9365754Y11160230D01*
X9331936Y11204303D01*
X9328071Y11209622D01*
X9292312Y11261651D01*
X9246351Y11302601D01*
X9241076Y11307581D01*
X8222582Y12326075D01*
X8216728Y12332341D01*
X8184165Y12369669D01*
X8179169Y12375396D01*
X8127527Y12411690D01*
X8122242Y12415616D01*
X8078524Y12449895D01*
X8078520Y12449897D01*
X8072543Y12454584D01*
X8065620Y12457710D01*
X8062672Y12459495D01*
X8049712Y12466887D01*
X8046666Y12468520D01*
X8040453Y12472887D01*
X7981633Y12495820D01*
X7975554Y12498376D01*
X7968329Y12501638D01*
X7918016Y12524355D01*
X7910545Y12525740D01*
X7907277Y12526764D01*
X7892836Y12530877D01*
X7889563Y12531717D01*
X7882487Y12534476D01*
X7837817Y12540356D01*
X7819894Y12542716D01*
X7813377Y12543748D01*
X7758775Y12553868D01*
X7751308Y12555252D01*
X7743728Y12554815D01*
X7743727Y12554815D01*
X7689856Y12551709D01*
X7682604Y12551500D01*
X5009500Y12551500D01*
X4941379Y12571502D01*
X4894886Y12625158D01*
X4883500Y12677500D01*
X4883500Y13645646D01*
X4880382Y13671846D01*
X4834939Y13774153D01*
X4820151Y13788916D01*
X4763945Y13845023D01*
X4755713Y13853241D01*
X4745076Y13857944D01*
X4745074Y13857945D01*
X4685538Y13884265D01*
X4653327Y13898506D01*
X4627646Y13901500D01*
X2738354Y13901500D01*
X2734650Y13901059D01*
X2734647Y13901059D01*
X2727254Y13900179D01*
X2712154Y13898382D01*
X2703514Y13894544D01*
X2703513Y13894544D01*
X2693450Y13890074D01*
X2609847Y13852939D01*
X2530759Y13773713D01*
X2485494Y13671327D01*
X2482500Y13645646D01*
X2482500Y10056354D01*
X754500Y10056354D01*
X754500Y20462228D01*
X1528500Y20462228D01*
X1539364Y20372453D01*
X1542344Y20364925D01*
X1542345Y20364923D01*
X1569700Y20295832D01*
X1594887Y20232217D01*
X1686078Y20112078D01*
X1806217Y20020887D01*
X1869832Y19995700D01*
X1938923Y19968345D01*
X1938925Y19968344D01*
X1946453Y19965364D01*
X2036228Y19954500D01*
X2361653Y19954500D01*
X2429774Y19934498D01*
X2450749Y19917595D01*
X2945596Y19422747D01*
X2979621Y19360435D01*
X2982500Y19333652D01*
X2982500Y19027500D01*
X2962498Y18959379D01*
X2908842Y18912886D01*
X2856500Y18901500D01*
X2738354Y18901500D01*
X2734650Y18901059D01*
X2734647Y18901059D01*
X2727254Y18900179D01*
X2712154Y18898382D01*
X2703514Y18894544D01*
X2703513Y18894544D01*
X2693450Y18890074D01*
X2609847Y18852939D01*
X2601628Y18844706D01*
X2601627Y18844705D01*
X2592476Y18835538D01*
X2530759Y18773713D01*
X2485494Y18671327D01*
X2482500Y18645646D01*
X2482500Y15056354D01*
X2485618Y15030154D01*
X2531061Y14927847D01*
X2610287Y14848759D01*
X2620924Y14844056D01*
X2620926Y14844055D01*
X2680462Y14817735D01*
X2712673Y14803494D01*
X2738354Y14800500D01*
X4627646Y14800500D01*
X4631350Y14800941D01*
X4631353Y14800941D01*
X4638746Y14801821D01*
X4653846Y14803618D01*
X4756153Y14849061D01*
X4835241Y14928287D01*
X4854274Y14971337D01*
X4876675Y15022008D01*
X4880506Y15030673D01*
X4883500Y15056354D01*
X4883500Y18200000D01*
X24114457Y18200000D01*
X24134608Y17879706D01*
X24194744Y17564462D01*
X24293916Y17259242D01*
X24295603Y17255656D01*
X24295605Y17255652D01*
X24428873Y16972444D01*
X24428877Y16972437D01*
X24430561Y16968858D01*
X24602522Y16697890D01*
X24807089Y16450610D01*
X25041036Y16230920D01*
X25044238Y16228593D01*
X25044240Y16228592D01*
X25297463Y16044615D01*
X25297468Y16044612D01*
X25300672Y16042284D01*
X25581903Y15887676D01*
X25880294Y15769534D01*
X26191139Y15689723D01*
X26509536Y15649500D01*
X26830464Y15649500D01*
X27148861Y15689723D01*
X27459706Y15769534D01*
X27758097Y15887676D01*
X28039328Y16042284D01*
X28042532Y16044612D01*
X28042537Y16044615D01*
X28295760Y16228592D01*
X28295762Y16228593D01*
X28298964Y16230920D01*
X28532911Y16450610D01*
X28737478Y16697890D01*
X28909439Y16968858D01*
X28911123Y16972437D01*
X28911127Y16972444D01*
X29044395Y17255652D01*
X29044397Y17255656D01*
X29046084Y17259242D01*
X29145256Y17564462D01*
X29205392Y17879706D01*
X29225543Y18200000D01*
X62214457Y18200000D01*
X62234608Y17879706D01*
X62294744Y17564462D01*
X62393916Y17259242D01*
X62395603Y17255656D01*
X62395605Y17255652D01*
X62528873Y16972444D01*
X62528877Y16972437D01*
X62530561Y16968858D01*
X62702522Y16697890D01*
X62907089Y16450610D01*
X63141036Y16230920D01*
X63144238Y16228593D01*
X63144240Y16228592D01*
X63397463Y16044615D01*
X63397468Y16044612D01*
X63400672Y16042284D01*
X63681903Y15887676D01*
X63980294Y15769534D01*
X64291139Y15689723D01*
X64609536Y15649500D01*
X64930464Y15649500D01*
X65248861Y15689723D01*
X65559706Y15769534D01*
X65858097Y15887676D01*
X66139328Y16042284D01*
X66142532Y16044612D01*
X66142537Y16044615D01*
X66395760Y16228592D01*
X66395762Y16228593D01*
X66398964Y16230920D01*
X66632911Y16450610D01*
X66837478Y16697890D01*
X67009439Y16968858D01*
X67011123Y16972437D01*
X67011127Y16972444D01*
X67144395Y17255652D01*
X67144397Y17255656D01*
X67146084Y17259242D01*
X67245256Y17564462D01*
X67305392Y17879706D01*
X67325543Y18200000D01*
X67305392Y18520294D01*
X67245256Y18835538D01*
X67146084Y19140758D01*
X67144395Y19144348D01*
X67011127Y19427556D01*
X67011123Y19427563D01*
X67009439Y19431142D01*
X66837478Y19702110D01*
X66632911Y19949390D01*
X66398964Y20169080D01*
X66291927Y20246847D01*
X66142537Y20355385D01*
X66142532Y20355388D01*
X66139328Y20357716D01*
X66121981Y20367253D01*
X65861559Y20510421D01*
X65861556Y20510422D01*
X65858097Y20512324D01*
X65559706Y20630466D01*
X65248861Y20710277D01*
X64930464Y20750500D01*
X64609536Y20750500D01*
X64291139Y20710277D01*
X63980294Y20630466D01*
X63681903Y20512324D01*
X63678444Y20510422D01*
X63678441Y20510421D01*
X63418020Y20367253D01*
X63400672Y20357716D01*
X63397468Y20355388D01*
X63397463Y20355385D01*
X63248073Y20246847D01*
X63141036Y20169080D01*
X62907089Y19949390D01*
X62702522Y19702110D01*
X62530561Y19431142D01*
X62528877Y19427563D01*
X62528873Y19427556D01*
X62395605Y19144348D01*
X62393916Y19140758D01*
X62294744Y18835538D01*
X62234608Y18520294D01*
X62214457Y18200000D01*
X29225543Y18200000D01*
X29205392Y18520294D01*
X29145256Y18835538D01*
X29046084Y19140758D01*
X29044395Y19144348D01*
X28911127Y19427556D01*
X28911123Y19427563D01*
X28909439Y19431142D01*
X28737478Y19702110D01*
X28532911Y19949390D01*
X28298964Y20169080D01*
X28191927Y20246847D01*
X28042537Y20355385D01*
X28042532Y20355388D01*
X28039328Y20357716D01*
X28021981Y20367253D01*
X27761559Y20510421D01*
X27761556Y20510422D01*
X27758097Y20512324D01*
X27459706Y20630466D01*
X27148861Y20710277D01*
X26830464Y20750500D01*
X26509536Y20750500D01*
X26191139Y20710277D01*
X25880294Y20630466D01*
X25581903Y20512324D01*
X25578444Y20510422D01*
X25578441Y20510421D01*
X25318020Y20367253D01*
X25300672Y20357716D01*
X25297468Y20355388D01*
X25297463Y20355385D01*
X25148073Y20246847D01*
X25041036Y20169080D01*
X24807089Y19949390D01*
X24602522Y19702110D01*
X24430561Y19431142D01*
X24428877Y19427563D01*
X24428873Y19427556D01*
X24295605Y19144348D01*
X24293916Y19140758D01*
X24194744Y18835538D01*
X24134608Y18520294D01*
X24114457Y18200000D01*
X4883500Y18200000D01*
X4883500Y18645646D01*
X4880382Y18671846D01*
X4834939Y18774153D01*
X4820151Y18788916D01*
X4763945Y18845023D01*
X4755713Y18853241D01*
X4745076Y18857944D01*
X4745074Y18857945D01*
X4685538Y18884265D01*
X4653327Y18898506D01*
X4627646Y18901500D01*
X4509500Y18901500D01*
X4441379Y18921502D01*
X4394886Y18975158D01*
X4383500Y19027500D01*
X4383500Y19647359D01*
X4383792Y19655929D01*
X4387162Y19705354D01*
X4387162Y19705358D01*
X4387678Y19712930D01*
X4386373Y19720409D01*
X4376822Y19775132D01*
X4375859Y19781657D01*
X4372022Y19813362D01*
X4383694Y19883392D01*
X4431376Y19935995D01*
X4497109Y19954500D01*
X4821772Y19954500D01*
X4911547Y19965364D01*
X4919075Y19968344D01*
X4919077Y19968345D01*
X4988168Y19995700D01*
X5051783Y20020887D01*
X5171922Y20112078D01*
X5242211Y20204680D01*
X5299329Y20246847D01*
X5342574Y20254500D01*
X9008379Y20254500D01*
X9010358Y20254484D01*
X9083165Y20253340D01*
X9083168Y20253340D01*
X9090760Y20253221D01*
X9095022Y20254197D01*
X9100802Y20254500D01*
X10532379Y20254500D01*
X10534358Y20254484D01*
X10607161Y20253340D01*
X10607164Y20253340D01*
X10614760Y20253221D01*
X10655182Y20262479D01*
X10668144Y20264741D01*
X10709320Y20269724D01*
X10735913Y20279773D01*
X10752318Y20284725D01*
X10780029Y20291072D01*
X10817065Y20309700D01*
X10829144Y20315002D01*
X10832063Y20316105D01*
X10867923Y20329655D01*
X10874180Y20333956D01*
X10874183Y20333957D01*
X10891351Y20345756D01*
X10906099Y20354479D01*
X10931498Y20367253D01*
X10937271Y20372184D01*
X10937276Y20372187D01*
X10963023Y20394177D01*
X10973485Y20402205D01*
X11001386Y20421381D01*
X11001392Y20421386D01*
X11007651Y20425688D01*
X11026562Y20446913D01*
X11038807Y20458904D01*
X11047135Y20466017D01*
X11060423Y20477366D01*
X11084609Y20511026D01*
X11092856Y20521320D01*
X11115392Y20546613D01*
X11115393Y20546615D01*
X11120440Y20552279D01*
X11123993Y20558989D01*
X11133747Y20577410D01*
X11142773Y20591968D01*
X11159361Y20615053D01*
X11174823Y20653516D01*
X11180376Y20665479D01*
X11196221Y20695405D01*
X11199776Y20702119D01*
X11201628Y20709490D01*
X11206704Y20729696D01*
X11211999Y20745993D01*
X11213811Y20750500D01*
X11222601Y20772366D01*
X11228443Y20813411D01*
X11230982Y20826350D01*
X11239229Y20859185D01*
X11239229Y20859186D01*
X11241081Y20866559D01*
X11241230Y20894987D01*
X11242485Y20912080D01*
X11245909Y20936138D01*
X11245909Y20936141D01*
X11246490Y20940222D01*
X11246562Y20947068D01*
X11246602Y20950865D01*
X11246602Y20950871D01*
X11246645Y20955000D01*
X11242707Y20987539D01*
X11241797Y21003329D01*
X11241818Y21007227D01*
X11241969Y21036105D01*
X11233303Y21072203D01*
X11230735Y21086477D01*
X11227189Y21115778D01*
X11227189Y21115780D01*
X11226276Y21123320D01*
X11223590Y21130429D01*
X11214692Y21153978D01*
X11210040Y21169099D01*
X11204161Y21193584D01*
X11204160Y21193586D01*
X11202388Y21200968D01*
X11198908Y21207710D01*
X11198906Y21207716D01*
X11185366Y21233949D01*
X11179466Y21247199D01*
X11169028Y21274822D01*
X11166345Y21281923D01*
X11147781Y21308933D01*
X11139654Y21322513D01*
X11128111Y21344877D01*
X11128111Y21344878D01*
X11124625Y21351631D01*
X11100227Y21379599D01*
X11091336Y21391061D01*
X11074614Y21415392D01*
X11074613Y21415394D01*
X11070312Y21421651D01*
X11045841Y21443454D01*
X11034716Y21454696D01*
X11031399Y21458498D01*
X11013169Y21479396D01*
X10982795Y21500743D01*
X10971433Y21509749D01*
X10949394Y21529386D01*
X10949392Y21529388D01*
X10943721Y21534440D01*
X10929962Y21541725D01*
X10914759Y21549775D01*
X10901270Y21558041D01*
X10880666Y21572521D01*
X10880663Y21572523D01*
X10874453Y21576887D01*
X10839875Y21590369D01*
X10826687Y21596407D01*
X10800596Y21610222D01*
X10800586Y21610226D01*
X10793881Y21613776D01*
X10786519Y21615625D01*
X10786517Y21615626D01*
X10762096Y21621760D01*
X10747027Y21626569D01*
X10716487Y21638476D01*
X10708960Y21639467D01*
X10679688Y21643321D01*
X10665441Y21646039D01*
X10636814Y21653229D01*
X10629441Y21655081D01*
X10621842Y21655121D01*
X10621840Y21655121D01*
X10589766Y21655289D01*
X10588413Y21655337D01*
X10587174Y21655500D01*
X10549719Y21655500D01*
X10549059Y21655502D01*
X10459895Y21655969D01*
X10458391Y21655608D01*
X10456519Y21655500D01*
X9025719Y21655500D01*
X9025059Y21655502D01*
X8935895Y21655969D01*
X8934391Y21655608D01*
X8932519Y21655500D01*
X5342574Y21655500D01*
X5274453Y21675502D01*
X5242211Y21705320D01*
X5197516Y21764204D01*
X5171922Y21797922D01*
X5051783Y21889113D01*
X4988168Y21914300D01*
X4919077Y21941655D01*
X4919075Y21941656D01*
X4911547Y21944636D01*
X4821772Y21955500D01*
X4086228Y21955500D01*
X3996453Y21944636D01*
X3988925Y21941656D01*
X3988923Y21941655D01*
X3919832Y21914300D01*
X3856217Y21889113D01*
X3736078Y21797922D01*
X3644887Y21677783D01*
X3632319Y21646039D01*
X3594326Y21550079D01*
X3589364Y21537547D01*
X3578500Y21447772D01*
X3578500Y21075348D01*
X3558498Y21007227D01*
X3504842Y20960734D01*
X3434568Y20950630D01*
X3369988Y20980124D01*
X3363405Y20986253D01*
X3316405Y21033253D01*
X3282379Y21095565D01*
X3279500Y21122348D01*
X3279500Y21447772D01*
X3268636Y21537547D01*
X3263675Y21550079D01*
X3225681Y21646039D01*
X3213113Y21677783D01*
X3121922Y21797922D01*
X3001783Y21889113D01*
X2938168Y21914300D01*
X2869077Y21941655D01*
X2869075Y21941656D01*
X2861547Y21944636D01*
X2771772Y21955500D01*
X2036228Y21955500D01*
X1946453Y21944636D01*
X1938925Y21941656D01*
X1938923Y21941655D01*
X1869832Y21914300D01*
X1806217Y21889113D01*
X1686078Y21797922D01*
X1594887Y21677783D01*
X1582319Y21646039D01*
X1544326Y21550079D01*
X1539364Y21537547D01*
X1528500Y21447772D01*
X1528500Y20462228D01*
X754500Y20462228D01*
X754500Y22486389D01*
X80955394Y22486389D01*
X80956228Y22478838D01*
X80959466Y22449501D01*
X80960225Y22435018D01*
X80960031Y22397895D01*
X80967684Y22366018D01*
X80970402Y22350443D01*
X80973999Y22317865D01*
X80986761Y22282992D01*
X80990943Y22269138D01*
X80999612Y22233032D01*
X81003097Y22226280D01*
X81014643Y22203911D01*
X81021003Y22189423D01*
X81032266Y22158644D01*
X81036502Y22152340D01*
X81052970Y22127832D01*
X81060351Y22115351D01*
X81077375Y22082369D01*
X81082367Y22076647D01*
X81082370Y22076642D01*
X81098921Y22057669D01*
X81108553Y22045116D01*
X81126830Y22017917D01*
X81132448Y22012805D01*
X81154285Y21992935D01*
X81164435Y21982570D01*
X81188831Y21954604D01*
X81195041Y21950239D01*
X81195044Y21950237D01*
X81215641Y21935762D01*
X81227991Y21925867D01*
X81246611Y21908924D01*
X81246615Y21908921D01*
X81252233Y21903809D01*
X81265781Y21896453D01*
X81284854Y21886097D01*
X81297178Y21878455D01*
X81321325Y21861485D01*
X81321330Y21861483D01*
X81327547Y21857113D01*
X81358082Y21845208D01*
X81372432Y21838546D01*
X81394558Y21826532D01*
X81394567Y21826528D01*
X81401235Y21822908D01*
X81408579Y21820981D01*
X81408580Y21820981D01*
X81437128Y21813492D01*
X81450927Y21809009D01*
X81478436Y21798283D01*
X81478438Y21798282D01*
X81485513Y21795524D01*
X81511480Y21792105D01*
X81518012Y21791245D01*
X81533529Y21788201D01*
X81565233Y21779884D01*
X81604971Y21779260D01*
X81610873Y21779020D01*
X81614826Y21778500D01*
X81652379Y21778500D01*
X81654358Y21778484D01*
X81727165Y21777340D01*
X81727168Y21777340D01*
X81734760Y21777221D01*
X81739022Y21778197D01*
X81744802Y21778500D01*
X84192379Y21778500D01*
X84194358Y21778484D01*
X84267165Y21777340D01*
X84267168Y21777340D01*
X84274760Y21777221D01*
X84279022Y21778197D01*
X84284802Y21778500D01*
X85716426Y21778500D01*
X85784547Y21758498D01*
X85816788Y21728680D01*
X85887078Y21636078D01*
X86007217Y21544887D01*
X86070832Y21519700D01*
X86139923Y21492345D01*
X86139925Y21492344D01*
X86147453Y21489364D01*
X86237228Y21478500D01*
X86468318Y21478500D01*
X86536439Y21458498D01*
X86582932Y21404842D01*
X86593036Y21334568D01*
X86583156Y21300652D01*
X86575645Y21284016D01*
X86574260Y21276546D01*
X86573236Y21273277D01*
X86569123Y21258836D01*
X86568283Y21255563D01*
X86565524Y21248487D01*
X86564533Y21240957D01*
X86557284Y21185894D01*
X86556252Y21179377D01*
X86544748Y21117308D01*
X86545185Y21109728D01*
X86545185Y21109727D01*
X86548291Y21055856D01*
X86548500Y21048604D01*
X86548500Y19154500D01*
X86528498Y19086379D01*
X86474842Y19039886D01*
X86422500Y19028500D01*
X86304354Y19028500D01*
X86300650Y19028059D01*
X86300647Y19028059D01*
X86295951Y19027500D01*
X86278154Y19025382D01*
X86175847Y18979939D01*
X86096759Y18900713D01*
X86092056Y18890076D01*
X86092055Y18890074D01*
X86075638Y18852939D01*
X86051494Y18798327D01*
X86048500Y18772646D01*
X86048500Y15183354D01*
X86051618Y15157154D01*
X86097061Y15054847D01*
X86105294Y15046628D01*
X86105295Y15046627D01*
X86121277Y15030673D01*
X86176287Y14975759D01*
X86186924Y14971056D01*
X86186926Y14971055D01*
X86246462Y14944735D01*
X86278673Y14930494D01*
X86304354Y14927500D01*
X88193646Y14927500D01*
X88197350Y14927941D01*
X88197353Y14927941D01*
X88204746Y14928821D01*
X88219846Y14930618D01*
X88237551Y14938482D01*
X88311518Y14971337D01*
X88322153Y14976061D01*
X88401241Y15055287D01*
X88446506Y15157673D01*
X88449500Y15183354D01*
X88449500Y18772646D01*
X88446382Y18798846D01*
X88400939Y18901153D01*
X88380555Y18921502D01*
X88329945Y18972023D01*
X88321713Y18980241D01*
X88311076Y18984944D01*
X88311074Y18984945D01*
X88251538Y19011265D01*
X88219327Y19025506D01*
X88193646Y19028500D01*
X88075500Y19028500D01*
X88007379Y19048502D01*
X87960886Y19102158D01*
X87949500Y19154500D01*
X87949500Y20730654D01*
X87969502Y20798775D01*
X87986405Y20819749D01*
X88608251Y21441595D01*
X88670563Y21475621D01*
X88697346Y21478500D01*
X89022772Y21478500D01*
X89112547Y21489364D01*
X89120075Y21492344D01*
X89120077Y21492345D01*
X89189168Y21519700D01*
X89252783Y21544887D01*
X89372922Y21636078D01*
X89464113Y21756217D01*
X89490518Y21822908D01*
X89516655Y21888923D01*
X89516656Y21888925D01*
X89519636Y21896453D01*
X89530500Y21986228D01*
X89530500Y22971772D01*
X89519636Y23061547D01*
X89511820Y23081290D01*
X89478601Y23165189D01*
X89464113Y23201783D01*
X89372922Y23321922D01*
X89252783Y23413113D01*
X89189168Y23438300D01*
X89120077Y23465655D01*
X89120075Y23465656D01*
X89112547Y23468636D01*
X89022772Y23479500D01*
X88287228Y23479500D01*
X88197453Y23468636D01*
X88189925Y23465656D01*
X88189923Y23465655D01*
X88120832Y23438300D01*
X88057217Y23413113D01*
X87937078Y23321922D01*
X87845887Y23201783D01*
X87831399Y23165189D01*
X87798181Y23081290D01*
X87790364Y23061547D01*
X87779500Y22971772D01*
X87779500Y22646347D01*
X87759498Y22578226D01*
X87742595Y22557252D01*
X87695595Y22510252D01*
X87633283Y22476226D01*
X87562468Y22481291D01*
X87505632Y22523838D01*
X87480821Y22590358D01*
X87480500Y22599347D01*
X87480500Y22971772D01*
X87469636Y23061547D01*
X87461820Y23081290D01*
X87428601Y23165189D01*
X87414113Y23201783D01*
X87322922Y23321922D01*
X87202783Y23413113D01*
X87139168Y23438300D01*
X87070077Y23465655D01*
X87070075Y23465656D01*
X87062547Y23468636D01*
X86972772Y23479500D01*
X86237228Y23479500D01*
X86147453Y23468636D01*
X86139925Y23465656D01*
X86139923Y23465655D01*
X86070832Y23438300D01*
X86007217Y23413113D01*
X85887078Y23321922D01*
X85881890Y23315087D01*
X85816789Y23229320D01*
X85759671Y23187153D01*
X85716426Y23179500D01*
X84209719Y23179500D01*
X84209059Y23179502D01*
X84119895Y23179969D01*
X84118391Y23179608D01*
X84116519Y23179500D01*
X81669719Y23179500D01*
X81669059Y23179502D01*
X81579895Y23179969D01*
X81550545Y23172923D01*
X81543797Y23171303D01*
X81529523Y23168735D01*
X81500222Y23165189D01*
X81500220Y23165189D01*
X81492680Y23164276D01*
X81485573Y23161591D01*
X81485571Y23161590D01*
X81462022Y23152692D01*
X81446901Y23148040D01*
X81422416Y23142161D01*
X81422414Y23142160D01*
X81415032Y23140388D01*
X81408290Y23136908D01*
X81408284Y23136906D01*
X81382051Y23123366D01*
X81368801Y23117466D01*
X81334077Y23104345D01*
X81311464Y23088803D01*
X81307067Y23085781D01*
X81293487Y23077654D01*
X81271123Y23066111D01*
X81264369Y23062625D01*
X81258644Y23057630D01*
X81258643Y23057630D01*
X81236401Y23038227D01*
X81224939Y23029336D01*
X81194349Y23008312D01*
X81172548Y22983843D01*
X81161305Y22972717D01*
X81136604Y22951169D01*
X81115257Y22920795D01*
X81106254Y22909437D01*
X81081560Y22881721D01*
X81078005Y22875007D01*
X81066225Y22852759D01*
X81057959Y22839270D01*
X81043479Y22818666D01*
X81039113Y22812453D01*
X81036356Y22805381D01*
X81025632Y22777876D01*
X81019593Y22764687D01*
X81005778Y22738596D01*
X81005774Y22738586D01*
X81002224Y22731881D01*
X81000375Y22724519D01*
X81000374Y22724517D01*
X80994240Y22700096D01*
X80989431Y22685027D01*
X80977524Y22654487D01*
X80976533Y22646960D01*
X80972679Y22617688D01*
X80969961Y22603441D01*
X80960919Y22567441D01*
X80960879Y22559842D01*
X80960879Y22559840D01*
X80960747Y22534665D01*
X80959671Y22518881D01*
X80956385Y22493923D01*
X80956385Y22493916D01*
X80955394Y22486389D01*
X754500Y22486389D01*
X754500Y53800000D01*
X24114457Y53800000D01*
X24134608Y53479706D01*
X24194744Y53164462D01*
X24293916Y52859242D01*
X24295603Y52855656D01*
X24295605Y52855652D01*
X24428873Y52572444D01*
X24428877Y52572437D01*
X24430561Y52568858D01*
X24602522Y52297890D01*
X24807089Y52050610D01*
X25041036Y51830920D01*
X25044238Y51828593D01*
X25044240Y51828592D01*
X25297463Y51644615D01*
X25297468Y51644612D01*
X25300672Y51642284D01*
X25581903Y51487676D01*
X25880294Y51369534D01*
X26191139Y51289723D01*
X26509536Y51249500D01*
X26830464Y51249500D01*
X27148861Y51289723D01*
X27459706Y51369534D01*
X27758097Y51487676D01*
X28039328Y51642284D01*
X28042532Y51644612D01*
X28042537Y51644615D01*
X28295760Y51828592D01*
X28295762Y51828593D01*
X28298964Y51830920D01*
X28532911Y52050610D01*
X28737478Y52297890D01*
X28909439Y52568858D01*
X28911123Y52572437D01*
X28911127Y52572444D01*
X29044395Y52855652D01*
X29044397Y52855656D01*
X29046084Y52859242D01*
X29145256Y53164462D01*
X29205392Y53479706D01*
X29225543Y53800000D01*
X62214457Y53800000D01*
X62234608Y53479706D01*
X62294744Y53164462D01*
X62393916Y52859242D01*
X62395603Y52855656D01*
X62395605Y52855652D01*
X62528873Y52572444D01*
X62528877Y52572437D01*
X62530561Y52568858D01*
X62702522Y52297890D01*
X62907089Y52050610D01*
X63141036Y51830920D01*
X63144238Y51828593D01*
X63144240Y51828592D01*
X63397463Y51644615D01*
X63397468Y51644612D01*
X63400672Y51642284D01*
X63681903Y51487676D01*
X63980294Y51369534D01*
X64291139Y51289723D01*
X64609536Y51249500D01*
X64930464Y51249500D01*
X65248861Y51289723D01*
X65559706Y51369534D01*
X65858097Y51487676D01*
X66139328Y51642284D01*
X66142532Y51644612D01*
X66142537Y51644615D01*
X66395760Y51828592D01*
X66395762Y51828593D01*
X66398964Y51830920D01*
X66632911Y52050610D01*
X66837478Y52297890D01*
X67009439Y52568858D01*
X67011123Y52572437D01*
X67011127Y52572444D01*
X67144395Y52855652D01*
X67144397Y52855656D01*
X67146084Y52859242D01*
X67245256Y53164462D01*
X67305392Y53479706D01*
X67325543Y53800000D01*
X67305392Y54120294D01*
X67245256Y54435538D01*
X67146084Y54740758D01*
X67144395Y54744348D01*
X67011127Y55027556D01*
X67011123Y55027563D01*
X67009439Y55031142D01*
X66837478Y55302110D01*
X66632911Y55549390D01*
X66398964Y55769080D01*
X66395760Y55771408D01*
X66142537Y55955385D01*
X66142532Y55955388D01*
X66139328Y55957716D01*
X65858097Y56112324D01*
X65559706Y56230466D01*
X65248861Y56310277D01*
X64930464Y56350500D01*
X64609536Y56350500D01*
X64291139Y56310277D01*
X63980294Y56230466D01*
X63681903Y56112324D01*
X63400672Y55957716D01*
X63397468Y55955388D01*
X63397463Y55955385D01*
X63144240Y55771408D01*
X63141036Y55769080D01*
X62907089Y55549390D01*
X62702522Y55302110D01*
X62530561Y55031142D01*
X62528877Y55027563D01*
X62528873Y55027556D01*
X62395605Y54744348D01*
X62393916Y54740758D01*
X62294744Y54435538D01*
X62234608Y54120294D01*
X62214457Y53800000D01*
X29225543Y53800000D01*
X29205392Y54120294D01*
X29145256Y54435538D01*
X29046084Y54740758D01*
X29044395Y54744348D01*
X28911127Y55027556D01*
X28911123Y55027563D01*
X28909439Y55031142D01*
X28737478Y55302110D01*
X28532911Y55549390D01*
X28298964Y55769080D01*
X28295760Y55771408D01*
X28042537Y55955385D01*
X28042532Y55955388D01*
X28039328Y55957716D01*
X27758097Y56112324D01*
X27459706Y56230466D01*
X27148861Y56310277D01*
X26830464Y56350500D01*
X26509536Y56350500D01*
X26191139Y56310277D01*
X25880294Y56230466D01*
X25581903Y56112324D01*
X25300672Y55957716D01*
X25297468Y55955388D01*
X25297463Y55955385D01*
X25044240Y55771408D01*
X25041036Y55769080D01*
X24807089Y55549390D01*
X24602522Y55302110D01*
X24430561Y55031142D01*
X24428877Y55027563D01*
X24428873Y55027556D01*
X24295605Y54744348D01*
X24293916Y54740758D01*
X24194744Y54435538D01*
X24134608Y54120294D01*
X24114457Y53800000D01*
X754500Y53800000D01*
X754500Y68552152D01*
X25690429Y68552152D01*
X25697217Y68542451D01*
X25752351Y68495362D01*
X25760333Y68489562D01*
X25959919Y68367255D01*
X25968713Y68362774D01*
X26184970Y68273198D01*
X26194355Y68270149D01*
X26421964Y68215504D01*
X26431711Y68213961D01*
X26665070Y68195595D01*
X26674930Y68195595D01*
X26908289Y68213961D01*
X26918036Y68215504D01*
X27145645Y68270149D01*
X27155030Y68273198D01*
X27371287Y68362774D01*
X27380081Y68367255D01*
X27579667Y68489562D01*
X27587649Y68495362D01*
X27641215Y68541111D01*
X27648423Y68552152D01*
X63790429Y68552152D01*
X63797217Y68542451D01*
X63852351Y68495362D01*
X63860333Y68489562D01*
X64059919Y68367255D01*
X64068713Y68362774D01*
X64284970Y68273198D01*
X64294355Y68270149D01*
X64521964Y68215504D01*
X64531711Y68213961D01*
X64765070Y68195595D01*
X64774930Y68195595D01*
X65008289Y68213961D01*
X65018036Y68215504D01*
X65245645Y68270149D01*
X65255030Y68273198D01*
X65471287Y68362774D01*
X65480081Y68367255D01*
X65679667Y68489562D01*
X65687649Y68495362D01*
X65741215Y68541111D01*
X65749645Y68554024D01*
X65743637Y68564231D01*
X64782812Y69525056D01*
X64768868Y69532670D01*
X64767035Y69532539D01*
X64760420Y69528288D01*
X63797821Y68565689D01*
X63790429Y68552152D01*
X27648423Y68552152D01*
X27649645Y68554024D01*
X27643637Y68564231D01*
X26682812Y69525056D01*
X26668868Y69532670D01*
X26667035Y69532539D01*
X26660420Y69528288D01*
X25697821Y68565689D01*
X25690429Y68552152D01*
X754500Y68552152D01*
X754500Y69745070D01*
X25115595Y69745070D01*
X25133961Y69511711D01*
X25135504Y69501964D01*
X25190149Y69274355D01*
X25193198Y69264970D01*
X25282774Y69048713D01*
X25287255Y69039919D01*
X25409562Y68840333D01*
X25415362Y68832351D01*
X25461111Y68778785D01*
X25474024Y68770355D01*
X25484231Y68776363D01*
X26445056Y69737188D01*
X26451434Y69748868D01*
X26887330Y69748868D01*
X26887461Y69747035D01*
X26891712Y69740420D01*
X27854311Y68777821D01*
X27867848Y68770429D01*
X27877549Y68777217D01*
X27924638Y68832351D01*
X27930438Y68840333D01*
X28052745Y69039919D01*
X28057226Y69048713D01*
X28146802Y69264970D01*
X28149851Y69274355D01*
X28204496Y69501964D01*
X28206039Y69511711D01*
X28224405Y69745070D01*
X63215595Y69745070D01*
X63233961Y69511711D01*
X63235504Y69501964D01*
X63290149Y69274355D01*
X63293198Y69264970D01*
X63382774Y69048713D01*
X63387255Y69039919D01*
X63509562Y68840333D01*
X63515362Y68832351D01*
X63561111Y68778785D01*
X63574024Y68770355D01*
X63584231Y68776363D01*
X64545056Y69737188D01*
X64551434Y69748868D01*
X64987330Y69748868D01*
X64987461Y69747035D01*
X64991712Y69740420D01*
X65954311Y68777821D01*
X65967848Y68770429D01*
X65977549Y68777217D01*
X66024638Y68832351D01*
X66030438Y68840333D01*
X66152745Y69039919D01*
X66157226Y69048713D01*
X66246802Y69264970D01*
X66249851Y69274355D01*
X66304496Y69501964D01*
X66306039Y69511711D01*
X66324405Y69745070D01*
X66324405Y69754930D01*
X66306039Y69988289D01*
X66304496Y69998036D01*
X66249851Y70225645D01*
X66246802Y70235030D01*
X66157226Y70451287D01*
X66152745Y70460081D01*
X66030438Y70659667D01*
X66024638Y70667649D01*
X65978889Y70721215D01*
X65965976Y70729645D01*
X65955769Y70723637D01*
X64994944Y69762812D01*
X64987330Y69748868D01*
X64551434Y69748868D01*
X64552670Y69751132D01*
X64552539Y69752965D01*
X64548288Y69759580D01*
X63585689Y70722179D01*
X63572152Y70729571D01*
X63562451Y70722783D01*
X63515362Y70667649D01*
X63509562Y70659667D01*
X63387255Y70460081D01*
X63382774Y70451287D01*
X63293198Y70235030D01*
X63290149Y70225645D01*
X63235504Y69998036D01*
X63233961Y69988289D01*
X63215595Y69754930D01*
X63215595Y69745070D01*
X28224405Y69745070D01*
X28224405Y69754930D01*
X28206039Y69988289D01*
X28204496Y69998036D01*
X28149851Y70225645D01*
X28146802Y70235030D01*
X28057226Y70451287D01*
X28052745Y70460081D01*
X27930438Y70659667D01*
X27924638Y70667649D01*
X27878889Y70721215D01*
X27865976Y70729645D01*
X27855769Y70723637D01*
X26894944Y69762812D01*
X26887330Y69748868D01*
X26451434Y69748868D01*
X26452670Y69751132D01*
X26452539Y69752965D01*
X26448288Y69759580D01*
X25485689Y70722179D01*
X25472152Y70729571D01*
X25462451Y70722783D01*
X25415362Y70667649D01*
X25409562Y70659667D01*
X25287255Y70460081D01*
X25282774Y70451287D01*
X25193198Y70235030D01*
X25190149Y70225645D01*
X25135504Y69998036D01*
X25133961Y69988289D01*
X25115595Y69754930D01*
X25115595Y69745070D01*
X754500Y69745070D01*
X754500Y71373500D01*
X774502Y71441621D01*
X828158Y71488114D01*
X880500Y71499500D01*
X26252952Y71499500D01*
X26321073Y71479498D01*
G37*
%TD.AperFunction*%
%TD*%
M02*
