  0
SECTION
  2
HEADER
  9
$ANGBASE
  50
0.0
  9
$ANGDIR
  70
1
  9
$MEASUREMENT
  70
0
  0
ENDSEC
  0
SECTION
  2
TABLES
  0
TABLE
  2
LTYPE
  70
4
  0
LTYPE
  5
40F
  2
CONTINUOUS
  70
0
  3
Solid line
  72
65
  73
0
  40
0.0
  0
LTYPE
  5
410
  2
DASHDOT
 70
0
  3
Dash Dot ____ _ ____ _
 72
65
 73
4
 40
2.0
 49
1.25
 49
-0.25
 49
0.25
 49
-0.25
  0
LTYPE
  5
411
  2
DASHED
 70
0
  3
Dashed __ __ __ __ __
 72
65
 73
2
 40
0.75
 49
0.5
 49
-0.25
  0
LTYPE
  5
43B
  2
DOTTED
 70
0
  3
Dotted .  .  .  .
 72
65
 73
2
 40
0.2
 49
0.0
 49
-0.2
  0
ENDTAB
  0
TABLE
  2
STYLE
  70
4
  0
STYLE
  2
KICAD
  70
0
  40
0
  41
1
  42
1
  50
0
  71
0
  3
isocp.shx
  0
STYLE
  2
KICADB
  70
0
  40
0
  41
1
  42
1
  50
0
  71
0
  3
isocp.shx
  0
STYLE
  2
KICADI
  70
0
  40
0
  41
1
  42
1
  50
15
  71
0
  3
isocp.shx
  0
STYLE
  2
KICADBI
  70
0
  40
0
  41
1
  42
1
  50
15
  71
0
  3
isocp.shx
  0
ENDTAB
  0
TABLE
  2
LAYER
  70
1
  0
LAYER
  2
BLACK
  70
0
  62
7
  6
CONTINUOUS
  0
ENDTAB
  0
ENDSEC
  0
SECTION
  2
ENTITIES
0
LINE
8
BLACK
6
CONTINUOUS
10
0.148566
20
0.0530541
11
0.147874
21
0.0547244
0
LINE
8
BLACK
6
CONTINUOUS
10
0.147874
20
0.0547244
11
0.148566
21
0.0563947
0
LINE
8
BLACK
6
CONTINUOUS
10
0.148566
20
0.0563947
11
0.150236
21
0.0570866
0
LINE
8
BLACK
6
CONTINUOUS
10
0.150236
20
0.0570866
11
0.204961
21
0.0570866
0
LINE
8
BLACK
6
CONTINUOUS
10
0.204961
20
0.0570866
11
0.204961
21
0.125591
0
LINE
8
BLACK
6
CONTINUOUS
10
0.204961
20
0.125591
11
0.205653
21
0.127261
0
LINE
8
BLACK
6
CONTINUOUS
10
0.205653
20
0.127261
11
0.207323
21
0.127953
0
LINE
8
BLACK
6
CONTINUOUS
10
0.207323
20
0.127953
11
0.246299
21
0.127953
0
LINE
8
BLACK
6
CONTINUOUS
10
0.246299
20
0.127953
11
0.24797
21
0.127261
0
LINE
8
BLACK
6
CONTINUOUS
10
0.24797
20
0.127261
11
0.248661
21
0.125591
0
LINE
8
BLACK
6
CONTINUOUS
10
0.248661
20
0.125591
11
0.24797
21
0.12392
0
LINE
8
BLACK
6
CONTINUOUS
10
0.24797
20
0.12392
11
0.246299
21
0.123228
0
LINE
8
BLACK
6
CONTINUOUS
10
0.246299
20
0.123228
11
0.209685
21
0.123228
0
LINE
8
BLACK
6
CONTINUOUS
10
0.209685
20
0.123228
11
0.209685
21
0.0547244
0
LINE
8
BLACK
6
CONTINUOUS
10
0.209685
20
0.0547244
11
0.208993
21
0.0530541
0
LINE
8
BLACK
6
CONTINUOUS
10
0.208993
20
0.0530541
11
0.207323
21
0.0523622
0
LINE
8
BLACK
6
CONTINUOUS
10
0.207323
20
0.0523622
11
0.150236
21
0.0523622
0
LINE
8
BLACK
6
CONTINUOUS
10
0.150236
20
0.0523622
11
0.148566
21
0.0530541
0
LINE
8
BLACK
6
CONTINUOUS
10
3.39435
20
0.127261
11
3.39504
21
0.125591
0
LINE
8
BLACK
6
CONTINUOUS
10
3.39504
20
0.125591
11
3.39504
21
0.0570866
0
LINE
8
BLACK
6
CONTINUOUS
10
3.39504
20
0.0570866
11
3.44976
21
0.0570866
0
LINE
8
BLACK
6
CONTINUOUS
10
3.44976
20
0.0570866
11
3.45143
21
0.0563947
0
LINE
8
BLACK
6
CONTINUOUS
10
3.45143
20
0.0563947
11
3.45213
21
0.0547244
0
LINE
8
BLACK
6
CONTINUOUS
10
3.45213
20
0.0547244
11
3.45143
21
0.0530541
0
LINE
8
BLACK
6
CONTINUOUS
10
3.45143
20
0.0530541
11
3.44976
21
0.0523622
0
LINE
8
BLACK
6
CONTINUOUS
10
3.44976
20
0.0523622
11
3.39268
21
0.0523622
0
LINE
8
BLACK
6
CONTINUOUS
10
3.39268
20
0.0523622
11
3.39101
21
0.0530541
0
LINE
8
BLACK
6
CONTINUOUS
10
3.39101
20
0.0530541
11
3.39031
21
0.0547244
0
LINE
8
BLACK
6
CONTINUOUS
10
3.39031
20
0.0547244
11
3.39031
21
0.125591
0
LINE
8
BLACK
6
CONTINUOUS
10
3.39031
20
0.125591
11
3.39101
21
0.127261
0
LINE
8
BLACK
6
CONTINUOUS
10
3.39101
20
0.127261
11
3.39268
21
0.127953
0
LINE
8
BLACK
6
CONTINUOUS
10
3.39268
20
0.127953
11
3.39435
21
0.127261
0
LINE
8
BLACK
6
CONTINUOUS
10
3.56246
20
0.290647
11
3.56315
21
0.288976
0
LINE
8
BLACK
6
CONTINUOUS
10
3.56315
20
0.288976
11
3.56315
21
0.104724
0
LINE
8
BLACK
6
CONTINUOUS
10
3.56315
20
0.104724
11
3.56246
21
0.103054
0
LINE
8
BLACK
6
CONTINUOUS
10
3.56246
20
0.103054
11
3.56079
21
0.102362
0
LINE
8
BLACK
6
CONTINUOUS
10
3.56079
20
0.102362
11
3.55912
21
0.103054
0
LINE
8
BLACK
6
CONTINUOUS
10
3.55912
20
0.103054
11
3.55843
21
0.104724
0
LINE
8
BLACK
6
CONTINUOUS
10
3.55843
20
0.104724
11
3.55843
21
0.288976
0
LINE
8
BLACK
6
CONTINUOUS
10
3.55843
20
0.288976
11
3.55912
21
0.290647
0
LINE
8
BLACK
6
CONTINUOUS
10
3.55912
20
0.290647
11
3.56079
21
0.291339
0
LINE
8
BLACK
6
CONTINUOUS
10
3.56079
20
0.291339
11
3.56246
21
0.290647
0
LINE
8
BLACK
6
CONTINUOUS
10
0.0408829
20
0.290647
11
0.0415748
21
0.288976
0
LINE
8
BLACK
6
CONTINUOUS
10
0.0415748
20
0.288976
11
0.0415748
21
0.104724
0
LINE
8
BLACK
6
CONTINUOUS
10
0.0415748
20
0.104724
11
0.0408829
21
0.103054
0
LINE
8
BLACK
6
CONTINUOUS
10
0.0408829
20
0.103054
11
0.0392126
21
0.102362
0
LINE
8
BLACK
6
CONTINUOUS
10
0.0392126
20
0.102362
11
0.0375423
21
0.103054
0
LINE
8
BLACK
6
CONTINUOUS
10
0.0375423
20
0.103054
11
0.0368504
21
0.104724
0
LINE
8
BLACK
6
CONTINUOUS
10
0.0368504
20
0.104724
11
0.0368504
21
0.288976
0
LINE
8
BLACK
6
CONTINUOUS
10
0.0368504
20
0.288976
11
0.0375423
21
0.290647
0
LINE
8
BLACK
6
CONTINUOUS
10
0.0375423
20
0.290647
11
0.0392126
21
0.291339
0
LINE
8
BLACK
6
CONTINUOUS
10
0.0392126
20
0.291339
11
0.0408829
21
0.290647
0
LINE
8
BLACK
6
CONTINUOUS
10
3.35203
20
0.26644
11
3.35134
21
0.26811
0
LINE
8
BLACK
6
CONTINUOUS
10
3.35134
20
0.26811
11
3.35203
21
0.269781
0
LINE
8
BLACK
6
CONTINUOUS
10
3.35203
20
0.269781
11
3.3537
21
0.270472
0
LINE
8
BLACK
6
CONTINUOUS
10
3.3537
20
0.270472
11
3.39031
21
0.270472
0
LINE
8
BLACK
6
CONTINUOUS
10
3.39031
20
0.270472
11
3.39031
21
0.338976
0
LINE
8
BLACK
6
CONTINUOUS
10
3.39031
20
0.338976
11
3.39101
21
0.340647
0
LINE
8
BLACK
6
CONTINUOUS
10
3.39101
20
0.340647
11
3.39268
21
0.341339
0
LINE
8
BLACK
6
CONTINUOUS
10
3.39268
20
0.341339
11
3.44976
21
0.341339
0
LINE
8
BLACK
6
CONTINUOUS
10
3.44976
20
0.341339
11
3.45143
21
0.340647
0
LINE
8
BLACK
6
CONTINUOUS
10
3.45143
20
0.340647
11
3.45213
21
0.338976
0
LINE
8
BLACK
6
CONTINUOUS
10
3.45213
20
0.338976
11
3.45143
21
0.337306
0
LINE
8
BLACK
6
CONTINUOUS
10
3.45143
20
0.337306
11
3.44976
21
0.336614
0
LINE
8
BLACK
6
CONTINUOUS
10
3.44976
20
0.336614
11
3.39504
21
0.336614
0
LINE
8
BLACK
6
CONTINUOUS
10
3.39504
20
0.336614
11
3.39504
21
0.26811
0
LINE
8
BLACK
6
CONTINUOUS
10
3.39504
20
0.26811
11
3.39435
21
0.26644
0
LINE
8
BLACK
6
CONTINUOUS
10
3.39435
20
0.26644
11
3.39268
21
0.265748
0
LINE
8
BLACK
6
CONTINUOUS
10
3.39268
20
0.265748
11
3.3537
21
0.265748
0
LINE
8
BLACK
6
CONTINUOUS
10
3.3537
20
0.265748
11
3.35203
21
0.26644
0
LINE
8
BLACK
6
CONTINUOUS
10
0.208993
20
0.340647
11
0.209685
21
0.338976
0
LINE
8
BLACK
6
CONTINUOUS
10
0.209685
20
0.338976
11
0.209685
21
0.26811
0
LINE
8
BLACK
6
CONTINUOUS
10
0.209685
20
0.26811
11
0.208993
21
0.26644
0
LINE
8
BLACK
6
CONTINUOUS
10
0.208993
20
0.26644
11
0.207323
21
0.265748
0
LINE
8
BLACK
6
CONTINUOUS
10
0.207323
20
0.265748
11
0.205653
21
0.26644
0
LINE
8
BLACK
6
CONTINUOUS
10
0.205653
20
0.26644
11
0.204961
21
0.26811
0
LINE
8
BLACK
6
CONTINUOUS
10
0.204961
20
0.26811
11
0.204961
21
0.336614
0
LINE
8
BLACK
6
CONTINUOUS
10
0.204961
20
0.336614
11
0.150236
21
0.336614
0
LINE
8
BLACK
6
CONTINUOUS
10
0.150236
20
0.336614
11
0.148566
21
0.337306
0
LINE
8
BLACK
6
CONTINUOUS
10
0.148566
20
0.337306
11
0.147874
21
0.338976
0
LINE
8
BLACK
6
CONTINUOUS
10
0.147874
20
0.338976
11
0.148566
21
0.340647
0
LINE
8
BLACK
6
CONTINUOUS
10
0.148566
20
0.340647
11
0.150236
21
0.341339
0
LINE
8
BLACK
6
CONTINUOUS
10
0.150236
20
0.341339
11
0.207323
21
0.341339
0
LINE
8
BLACK
6
CONTINUOUS
10
0.207323
20
0.341339
11
0.208993
21
0.340647
0
LINE
8
BLACK
6
CONTINUOUS
10
0.254977
20
0.314119
11
0.2552
21
0.314158
0
LINE
8
BLACK
6
CONTINUOUS
10
0.2552
20
0.314158
11
0.255897
21
0.313756
0
LINE
8
BLACK
6
CONTINUOUS
10
0.255897
20
0.313756
11
0.256646
21
0.31346
0
LINE
8
BLACK
6
CONTINUOUS
10
0.256646
20
0.31346
11
0.256753
21
0.313261
0
LINE
8
BLACK
6
CONTINUOUS
10
0.256753
20
0.313261
11
0.256949
21
0.313148
0
LINE
8
BLACK
6
CONTINUOUS
10
0.256949
20
0.313148
11
0.257224
21
0.312392
0
LINE
8
BLACK
6
CONTINUOUS
10
0.257224
20
0.312392
11
0.257608
21
0.311684
0
LINE
8
BLACK
6
CONTINUOUS
10
0.257608
20
0.311684
11
0.257562
21
0.311463
0
LINE
8
BLACK
6
CONTINUOUS
10
0.257562
20
0.311463
11
0.25764
21
0.31125
0
LINE
8
BLACK
6
CONTINUOUS
10
0.25764
20
0.31125
11
0.25764
21
0.295456
0
LINE
8
BLACK
6
CONTINUOUS
10
0.25764
20
0.295456
11
0.26781
21
0.295456
0
LINE
8
BLACK
6
CONTINUOUS
10
0.26781
20
0.295456
11
0.26882
21
0.295278
0
LINE
8
BLACK
6
CONTINUOUS
10
0.26882
20
0.295278
11
0.270367
21
0.293979
0
LINE
8
BLACK
6
CONTINUOUS
10
0.270367
20
0.293979
11
0.270718
21
0.29199
0
LINE
8
BLACK
6
CONTINUOUS
10
0.270718
20
0.29199
11
0.269708
21
0.290241
0
LINE
8
BLACK
6
CONTINUOUS
10
0.269708
20
0.290241
11
0.26781
21
0.28955
0
LINE
8
BLACK
6
CONTINUOUS
10
0.26781
20
0.28955
11
0.25764
21
0.28955
0
LINE
8
BLACK
6
CONTINUOUS
10
0.25764
20
0.28955
11
0.25764
21
0.286879
0
LINE
8
BLACK
6
CONTINUOUS
10
0.25764
20
0.286879
11
0.257462
21
0.285869
0
LINE
8
BLACK
6
CONTINUOUS
10
0.257462
20
0.285869
11
0.256163
21
0.284321
0
LINE
8
BLACK
6
CONTINUOUS
10
0.256163
20
0.284321
11
0.254174
21
0.283971
0
LINE
8
BLACK
6
CONTINUOUS
10
0.254174
20
0.283971
11
0.252425
21
0.284981
0
LINE
8
BLACK
6
CONTINUOUS
10
0.252425
20
0.284981
11
0.251734
21
0.286879
0
LINE
8
BLACK
6
CONTINUOUS
10
0.251734
20
0.286879
11
0.251734
21
0.28955
0
LINE
8
BLACK
6
CONTINUOUS
10
0.251734
20
0.28955
11
0.241564
21
0.28955
0
LINE
8
BLACK
6
CONTINUOUS
10
0.241564
20
0.28955
11
0.240554
21
0.289728
0
LINE
8
BLACK
6
CONTINUOUS
10
0.240554
20
0.289728
11
0.239006
21
0.291026
0
LINE
8
BLACK
6
CONTINUOUS
10
0.239006
20
0.291026
11
0.238656
21
0.293016
0
LINE
8
BLACK
6
CONTINUOUS
10
0.238656
20
0.293016
11
0.239666
21
0.294765
0
LINE
8
BLACK
6
CONTINUOUS
10
0.239666
20
0.294765
11
0.241564
21
0.295456
0
LINE
8
BLACK
6
CONTINUOUS
10
0.241564
20
0.295456
11
0.251734
21
0.295456
0
LINE
8
BLACK
6
CONTINUOUS
10
0.251734
20
0.295456
11
0.251734
21
0.307154
0
LINE
8
BLACK
6
CONTINUOUS
10
0.251734
20
0.307154
11
0.227499
21
0.299075
0
LINE
8
BLACK
6
CONTINUOUS
10
0.227499
20
0.299075
11
0.226485
21
0.298925
0
LINE
8
BLACK
6
CONTINUOUS
10
0.226485
20
0.298925
11
0.224606
21
0.299667
0
LINE
8
BLACK
6
CONTINUOUS
10
0.224606
20
0.299667
11
0.223645
21
0.301444
0
LINE
8
BLACK
6
CONTINUOUS
10
0.223645
20
0.301444
11
0.22405
21
0.303422
0
LINE
8
BLACK
6
CONTINUOUS
10
0.22405
20
0.303422
11
0.225632
21
0.304678
0
LINE
8
BLACK
6
CONTINUOUS
10
0.225632
20
0.304678
11
0.253753
21
0.314052
0
LINE
8
BLACK
6
CONTINUOUS
10
0.253753
20
0.314052
11
0.254768
21
0.314202
0
LINE
8
BLACK
6
CONTINUOUS
10
0.254768
20
0.314202
11
0.254977
21
0.314119
0
LINE
8
BLACK
6
CONTINUOUS
10
3.36615
20
0.325213
11
3.36802
21
0.323338
0
LINE
8
BLACK
6
CONTINUOUS
10
3.36802
20
0.323338
11
3.36853
21
0.322615
0
LINE
8
BLACK
6
CONTINUOUS
10
3.36853
20
0.322615
11
3.36858
21
0.322571
0
LINE
8
BLACK
6
CONTINUOUS
10
3.36858
20
0.322571
11
3.37045
21
0.318821
0
LINE
8
BLACK
6
CONTINUOUS
10
3.37045
20
0.318821
11
3.37074
21
0.317839
0
LINE
8
BLACK
6
CONTINUOUS
10
3.37074
20
0.317839
11
3.3707
21
0.317667
0
LINE
8
BLACK
6
CONTINUOUS
10
3.3707
20
0.317667
11
3.37076
21
0.317501
0
LINE
8
BLACK
6
CONTINUOUS
10
3.37076
20
0.317501
11
3.37076
21
0.306252
0
LINE
8
BLACK
6
CONTINUOUS
10
3.37076
20
0.306252
11
3.37058
21
0.305242
0
LINE
8
BLACK
6
CONTINUOUS
10
3.37058
20
0.305242
11
3.37047
21
0.305107
0
LINE
8
BLACK
6
CONTINUOUS
10
3.37047
20
0.305107
11
3.37045
21
0.304932
0
LINE
8
BLACK
6
CONTINUOUS
10
3.37045
20
0.304932
11
3.36858
21
0.301182
0
LINE
8
BLACK
6
CONTINUOUS
10
3.36858
20
0.301182
11
3.36805
21
0.300473
0
LINE
8
BLACK
6
CONTINUOUS
10
3.36805
20
0.300473
11
3.36802
21
0.300415
0
LINE
8
BLACK
6
CONTINUOUS
10
3.36802
20
0.300415
11
3.36615
21
0.29854
0
LINE
8
BLACK
6
CONTINUOUS
10
3.36615
20
0.29854
11
3.36543
21
0.298034
0
LINE
8
BLACK
6
CONTINUOUS
10
3.36543
20
0.298034
11
3.36538
21
0.297987
0
LINE
8
BLACK
6
CONTINUOUS
10
3.36538
20
0.297987
11
3.36163
21
0.296112
0
LINE
8
BLACK
6
CONTINUOUS
10
3.36163
20
0.296112
11
3.36065
21
0.29582
0
LINE
8
BLACK
6
CONTINUOUS
10
3.36065
20
0.29582
11
3.36048
21
0.295861
0
LINE
8
BLACK
6
CONTINUOUS
10
3.36048
20
0.295861
11
3.36031
21
0.295801
0
LINE
8
BLACK
6
CONTINUOUS
10
3.36031
20
0.295801
11
3.35094
21
0.295801
0
LINE
8
BLACK
6
CONTINUOUS
10
3.35094
20
0.295801
11
3.34993
21
0.295979
0
LINE
8
BLACK
6
CONTINUOUS
10
3.34993
20
0.295979
11
3.34979
21
0.296092
0
LINE
8
BLACK
6
CONTINUOUS
10
3.34979
20
0.296092
11
3.34962
21
0.296112
0
LINE
8
BLACK
6
CONTINUOUS
10
3.34962
20
0.296112
11
3.34587
21
0.297987
0
LINE
8
BLACK
6
CONTINUOUS
10
3.34587
20
0.297987
11
3.34516
21
0.298513
0
LINE
8
BLACK
6
CONTINUOUS
10
3.34516
20
0.298513
11
3.3451
21
0.29854
0
LINE
8
BLACK
6
CONTINUOUS
10
3.3451
20
0.29854
11
3.34323
21
0.300415
0
LINE
8
BLACK
6
CONTINUOUS
10
3.34323
20
0.300415
11
3.34272
21
0.301138
0
LINE
8
BLACK
6
CONTINUOUS
10
3.34272
20
0.301138
11
3.34267
21
0.301182
0
LINE
8
BLACK
6
CONTINUOUS
10
3.34267
20
0.301182
11
3.3408
21
0.304932
0
LINE
8
BLACK
6
CONTINUOUS
10
3.3408
20
0.304932
11
3.34063
21
0.305496
0
LINE
8
BLACK
6
CONTINUOUS
10
3.34063
20
0.305496
11
3.33038
21
0.296531
0
LINE
8
BLACK
6
CONTINUOUS
10
3.33038
20
0.296531
11
3.33
21
0.296301
0
LINE
8
BLACK
6
CONTINUOUS
10
3.33
20
0.296301
11
3.32992
21
0.296196
0
LINE
8
BLACK
6
CONTINUOUS
10
3.32992
20
0.296196
11
3.3298
21
0.296175
0
LINE
8
BLACK
6
CONTINUOUS
10
3.3298
20
0.296175
11
3.32951
21
0.296
0
LINE
8
BLACK
6
CONTINUOUS
10
3.32951
20
0.296
11
3.32871
21
0.295984
0
LINE
8
BLACK
6
CONTINUOUS
10
3.32871
20
0.295984
11
3.32793
21
0.295845
0
LINE
8
BLACK
6
CONTINUOUS
10
3.32793
20
0.295845
11
3.32772
21
0.295963
0
LINE
8
BLACK
6
CONTINUOUS
10
3.32772
20
0.295963
11
3.32749
21
0.295958
0
LINE
8
BLACK
6
CONTINUOUS
10
3.32749
20
0.295958
11
3.32687
21
0.296457
0
LINE
8
BLACK
6
CONTINUOUS
10
3.32687
20
0.296457
11
3.32618
21
0.296855
0
LINE
8
BLACK
6
CONTINUOUS
10
3.32618
20
0.296855
11
3.3261
21
0.297077
0
LINE
8
BLACK
6
CONTINUOUS
10
3.3261
20
0.297077
11
3.32591
21
0.297224
0
LINE
8
BLACK
6
CONTINUOUS
10
3.32591
20
0.297224
11
3.32576
21
0.298005
0
LINE
8
BLACK
6
CONTINUOUS
10
3.32576
20
0.298005
11
3.32549
21
0.298753
0
LINE
8
BLACK
6
CONTINUOUS
10
3.32549
20
0.298753
11
3.32549
21
0.323125
0
LINE
8
BLACK
6
CONTINUOUS
10
3.32549
20
0.323125
11
3.32567
21
0.324135
0
LINE
8
BLACK
6
CONTINUOUS
10
3.32567
20
0.324135
11
3.32696
21
0.325682
0
LINE
8
BLACK
6
CONTINUOUS
10
3.32696
20
0.325682
11
3.32895
21
0.326033
0
LINE
8
BLACK
6
CONTINUOUS
10
3.32895
20
0.326033
11
3.3307
21
0.325023
0
LINE
8
BLACK
6
CONTINUOUS
10
3.3307
20
0.325023
11
3.33139
21
0.323125
0
LINE
8
BLACK
6
CONTINUOUS
10
3.33139
20
0.323125
11
3.33139
21
0.305261
0
LINE
8
BLACK
6
CONTINUOUS
10
3.33139
20
0.305261
11
3.34149
21
0.314099
0
LINE
8
BLACK
6
CONTINUOUS
10
3.34149
20
0.314099
11
3.34187
21
0.314329
0
LINE
8
BLACK
6
CONTINUOUS
10
3.34187
20
0.314329
11
3.34196
21
0.314434
0
LINE
8
BLACK
6
CONTINUOUS
10
3.34196
20
0.314434
11
3.34208
21
0.314455
0
LINE
8
BLACK
6
CONTINUOUS
10
3.34208
20
0.314455
11
3.34237
21
0.31463
0
LINE
8
BLACK
6
CONTINUOUS
10
3.34237
20
0.31463
11
3.34317
21
0.314646
0
LINE
8
BLACK
6
CONTINUOUS
10
3.34317
20
0.314646
11
3.34395
21
0.314785
0
LINE
8
BLACK
6
CONTINUOUS
10
3.34395
20
0.314785
11
3.34416
21
0.314667
0
LINE
8
BLACK
6
CONTINUOUS
10
3.34416
20
0.314667
11
3.34439
21
0.314672
0
LINE
8
BLACK
6
CONTINUOUS
10
3.34439
20
0.314672
11
3.34501
21
0.314173
0
LINE
8
BLACK
6
CONTINUOUS
10
3.34501
20
0.314173
11
3.3457
21
0.313775
0
LINE
8
BLACK
6
CONTINUOUS
10
3.3457
20
0.313775
11
3.34578
21
0.313553
0
LINE
8
BLACK
6
CONTINUOUS
10
3.34578
20
0.313553
11
3.34596
21
0.313406
0
LINE
8
BLACK
6
CONTINUOUS
10
3.34596
20
0.313406
11
3.34612
21
0.312625
0
LINE
8
BLACK
6
CONTINUOUS
10
3.34612
20
0.312625
11
3.34639
21
0.311877
0
LINE
8
BLACK
6
CONTINUOUS
10
3.34639
20
0.311877
11
3.34639
21
0.306949
0
LINE
8
BLACK
6
CONTINUOUS
10
3.34639
20
0.306949
11
3.34774
21
0.304252
0
LINE
8
BLACK
6
CONTINUOUS
10
3.34774
20
0.304252
11
3.34894
21
0.303055
0
LINE
8
BLACK
6
CONTINUOUS
10
3.34894
20
0.303055
11
3.35163
21
0.301706
0
LINE
8
BLACK
6
CONTINUOUS
10
3.35163
20
0.301706
11
3.35961
21
0.301706
0
LINE
8
BLACK
6
CONTINUOUS
10
3.35961
20
0.301706
11
3.36231
21
0.303055
0
LINE
8
BLACK
6
CONTINUOUS
10
3.36231
20
0.303055
11
3.36351
21
0.304252
0
LINE
8
BLACK
6
CONTINUOUS
10
3.36351
20
0.304252
11
3.36486
21
0.306949
0
LINE
8
BLACK
6
CONTINUOUS
10
3.36486
20
0.306949
11
3.36486
21
0.316804
0
LINE
8
BLACK
6
CONTINUOUS
10
3.36486
20
0.316804
11
3.36351
21
0.319501
0
LINE
8
BLACK
6
CONTINUOUS
10
3.36351
20
0.319501
11
3.36197
21
0.321037
0
LINE
8
BLACK
6
CONTINUOUS
10
3.36197
20
0.321037
11
3.36138
21
0.321877
0
LINE
8
BLACK
6
CONTINUOUS
10
3.36138
20
0.321877
11
3.36121
21
0.323889
0
LINE
8
BLACK
6
CONTINUOUS
10
3.36121
20
0.323889
11
3.36237
21
0.325544
0
LINE
8
BLACK
6
CONTINUOUS
10
3.36237
20
0.325544
11
3.36432
21
0.326067
0
LINE
8
BLACK
6
CONTINUOUS
10
3.36432
20
0.326067
11
3.36615
21
0.325213
0
LINE
8
BLACK
6
CONTINUOUS
10
0.270072
20
0.345019
11
0.270763
21
0.343121
0
LINE
8
BLACK
6
CONTINUOUS
10
0.270763
20
0.343121
11
0.270763
21
0.339372
0
LINE
8
BLACK
6
CONTINUOUS
10
0.270763
20
0.339372
11
0.27061
21
0.338503
0
LINE
8
BLACK
6
CONTINUOUS
10
0.27061
20
0.338503
11
0.270611
21
0.338438
0
LINE
8
BLACK
6
CONTINUOUS
10
0.270611
20
0.338438
11
0.268737
21
0.332814
0
LINE
8
BLACK
6
CONTINUOUS
10
0.268737
20
0.332814
11
0.268248
21
0.331912
0
LINE
8
BLACK
6
CONTINUOUS
10
0.268248
20
0.331912
11
0.268098
21
0.33182
0
LINE
8
BLACK
6
CONTINUOUS
10
0.268098
20
0.33182
11
0.268023
21
0.33166
0
LINE
8
BLACK
6
CONTINUOUS
10
0.268023
20
0.33166
11
0.264274
21
0.32791
0
LINE
8
BLACK
6
CONTINUOUS
10
0.264274
20
0.32791
11
0.263434
21
0.327322
0
LINE
8
BLACK
6
CONTINUOUS
10
0.263434
20
0.327322
11
0.263258
21
0.327307
0
LINE
8
BLACK
6
CONTINUOUS
10
0.263258
20
0.327307
11
0.26312
21
0.327197
0
LINE
8
BLACK
6
CONTINUOUS
10
0.26312
20
0.327197
11
0.257495
21
0.325322
0
LINE
8
BLACK
6
CONTINUOUS
10
0.257495
20
0.325322
11
0.256622
21
0.325193
0
LINE
8
BLACK
6
CONTINUOUS
10
0.256622
20
0.325193
11
0.256562
21
0.325171
0
LINE
8
BLACK
6
CONTINUOUS
10
0.256562
20
0.325171
11
0.22844
21
0.325171
0
LINE
8
BLACK
6
CONTINUOUS
10
0.22844
20
0.325171
11
0.22743
21
0.325349
0
LINE
8
BLACK
6
CONTINUOUS
10
0.22743
20
0.325349
11
0.225883
21
0.326647
0
LINE
8
BLACK
6
CONTINUOUS
10
0.225883
20
0.326647
11
0.225532
21
0.328636
0
LINE
8
BLACK
6
CONTINUOUS
10
0.225532
20
0.328636
11
0.226542
21
0.330385
0
LINE
8
BLACK
6
CONTINUOUS
10
0.226542
20
0.330385
11
0.22844
21
0.331076
0
LINE
8
BLACK
6
CONTINUOUS
10
0.22844
20
0.331076
11
0.256083
21
0.331076
0
LINE
8
BLACK
6
CONTINUOUS
10
0.256083
20
0.331076
11
0.260591
21
0.332579
0
LINE
8
BLACK
6
CONTINUOUS
10
0.260591
20
0.332579
11
0.263355
21
0.335343
0
LINE
8
BLACK
6
CONTINUOUS
10
0.263355
20
0.335343
11
0.264857
21
0.339851
0
LINE
8
BLACK
6
CONTINUOUS
10
0.264857
20
0.339851
11
0.264857
21
0.343121
0
LINE
8
BLACK
6
CONTINUOUS
10
0.264857
20
0.343121
11
0.265036
21
0.344131
0
LINE
8
BLACK
6
CONTINUOUS
10
0.265036
20
0.344131
11
0.266334
21
0.345679
0
LINE
8
BLACK
6
CONTINUOUS
10
0.266334
20
0.345679
11
0.268323
21
0.346029
0
LINE
8
BLACK
6
CONTINUOUS
10
0.268323
20
0.346029
11
0.270072
21
0.345019
0
LINE
8
BLACK
6
CONTINUOUS
10
3.37007
20
0.355019
11
3.37076
21
0.353121
0
LINE
8
BLACK
6
CONTINUOUS
10
3.37076
20
0.353121
11
3.37076
21
0.349372
0
LINE
8
BLACK
6
CONTINUOUS
10
3.37076
20
0.349372
11
3.37061
21
0.348503
0
LINE
8
BLACK
6
CONTINUOUS
10
3.37061
20
0.348503
11
3.37061
21
0.348438
0
LINE
8
BLACK
6
CONTINUOUS
10
3.37061
20
0.348438
11
3.36874
21
0.342814
0
LINE
8
BLACK
6
CONTINUOUS
10
3.36874
20
0.342814
11
3.36825
21
0.341912
0
LINE
8
BLACK
6
CONTINUOUS
10
3.36825
20
0.341912
11
3.3681
21
0.34182
0
LINE
8
BLACK
6
CONTINUOUS
10
3.3681
20
0.34182
11
3.36802
21
0.34166
0
LINE
8
BLACK
6
CONTINUOUS
10
3.36802
20
0.34166
11
3.36427
21
0.33791
0
LINE
8
BLACK
6
CONTINUOUS
10
3.36427
20
0.33791
11
3.36343
21
0.337322
0
LINE
8
BLACK
6
CONTINUOUS
10
3.36343
20
0.337322
11
3.36326
21
0.337307
0
LINE
8
BLACK
6
CONTINUOUS
10
3.36326
20
0.337307
11
3.36312
21
0.337197
0
LINE
8
BLACK
6
CONTINUOUS
10
3.36312
20
0.337197
11
3.3575
21
0.335322
0
LINE
8
BLACK
6
CONTINUOUS
10
3.3575
20
0.335322
11
3.35662
21
0.335193
0
LINE
8
BLACK
6
CONTINUOUS
10
3.35662
20
0.335193
11
3.35656
21
0.335171
0
LINE
8
BLACK
6
CONTINUOUS
10
3.35656
20
0.335171
11
3.32844
21
0.335171
0
LINE
8
BLACK
6
CONTINUOUS
10
3.32844
20
0.335171
11
3.32743
21
0.335349
0
LINE
8
BLACK
6
CONTINUOUS
10
3.32743
20
0.335349
11
3.32588
21
0.336647
0
LINE
8
BLACK
6
CONTINUOUS
10
3.32588
20
0.336647
11
3.32553
21
0.338636
0
LINE
8
BLACK
6
CONTINUOUS
10
3.32553
20
0.338636
11
3.32654
21
0.340385
0
LINE
8
BLACK
6
CONTINUOUS
10
3.32654
20
0.340385
11
3.32844
21
0.341076
0
LINE
8
BLACK
6
CONTINUOUS
10
3.32844
20
0.341076
11
3.35608
21
0.341076
0
LINE
8
BLACK
6
CONTINUOUS
10
3.35608
20
0.341076
11
3.36059
21
0.342579
0
LINE
8
BLACK
6
CONTINUOUS
10
3.36059
20
0.342579
11
3.36335
21
0.345343
0
LINE
8
BLACK
6
CONTINUOUS
10
3.36335
20
0.345343
11
3.36486
21
0.349851
0
LINE
8
BLACK
6
CONTINUOUS
10
3.36486
20
0.349851
11
3.36486
21
0.353121
0
LINE
8
BLACK
6
CONTINUOUS
10
3.36486
20
0.353121
11
3.36504
21
0.354131
0
LINE
8
BLACK
6
CONTINUOUS
10
3.36504
20
0.354131
11
3.36633
21
0.355679
0
LINE
8
BLACK
6
CONTINUOUS
10
3.36633
20
0.355679
11
3.36832
21
0.356029
0
LINE
8
BLACK
6
CONTINUOUS
10
3.36832
20
0.356029
11
3.37007
21
0.355019
0
LINE
8
BLACK
6
CONTINUOUS
10
0.0783691
20
0.390101
11
0.0776772
21
0.391772
0
LINE
8
BLACK
6
CONTINUOUS
10
0.0776772
20
0.391772
11
0.0776772
21
0.663425
0
LINE
8
BLACK
6
CONTINUOUS
10
0.0776772
20
0.663425
11
0.0783691
21
0.665096
0
LINE
8
BLACK
6
CONTINUOUS
10
0.0783691
20
0.665096
11
0.0800394
21
0.665787
0
LINE
8
BLACK
6
CONTINUOUS
10
0.0800394
20
0.665787
11
0.0817097
21
0.665096
0
LINE
8
BLACK
6
CONTINUOUS
10
0.0817097
20
0.665096
11
0.0824016
21
0.663425
0
LINE
8
BLACK
6
CONTINUOUS
10
0.0824016
20
0.663425
11
0.0824016
21
0.394134
0
LINE
8
BLACK
6
CONTINUOUS
10
0.0824016
20
0.394134
11
0.207598
21
0.394134
0
LINE
8
BLACK
6
CONTINUOUS
10
0.207598
20
0.394134
11
0.207598
21
0.663425
0
LINE
8
BLACK
6
CONTINUOUS
10
0.207598
20
0.663425
11
0.20829
21
0.665096
0
LINE
8
BLACK
6
CONTINUOUS
10
0.20829
20
0.665096
11
0.209961
21
0.665787
0
LINE
8
BLACK
6
CONTINUOUS
10
0.209961
20
0.665787
11
0.211631
21
0.665096
0
LINE
8
BLACK
6
CONTINUOUS
10
0.211631
20
0.665096
11
0.212323
21
0.663425
0
LINE
8
BLACK
6
CONTINUOUS
10
0.212323
20
0.663425
11
0.212323
21
0.391772
0
LINE
8
BLACK
6
CONTINUOUS
10
0.212323
20
0.391772
11
0.211631
21
0.390101
0
LINE
8
BLACK
6
CONTINUOUS
10
0.211631
20
0.390101
11
0.209961
21
0.389409
0
LINE
8
BLACK
6
CONTINUOUS
10
0.209961
20
0.389409
11
0.0800394
21
0.389409
0
LINE
8
BLACK
6
CONTINUOUS
10
0.0800394
20
0.389409
11
0.0783691
21
0.390101
0
LINE
8
BLACK
6
CONTINUOUS
10
3.36837
20
0.395101
11
3.36768
21
0.396772
0
LINE
8
BLACK
6
CONTINUOUS
10
3.36768
20
0.396772
11
3.36768
21
0.668425
0
LINE
8
BLACK
6
CONTINUOUS
10
3.36768
20
0.668425
11
3.36837
21
0.670096
0
LINE
8
BLACK
6
CONTINUOUS
10
3.36837
20
0.670096
11
3.37004
21
0.670787
0
LINE
8
BLACK
6
CONTINUOUS
10
3.37004
20
0.670787
11
3.37171
21
0.670096
0
LINE
8
BLACK
6
CONTINUOUS
10
3.37171
20
0.670096
11
3.3724
21
0.668425
0
LINE
8
BLACK
6
CONTINUOUS
10
3.3724
20
0.668425
11
3.3724
21
0.399134
0
LINE
8
BLACK
6
CONTINUOUS
10
3.3724
20
0.399134
11
3.4976
21
0.399134
0
LINE
8
BLACK
6
CONTINUOUS
10
3.4976
20
0.399134
11
3.4976
21
0.668425
0
LINE
8
BLACK
6
CONTINUOUS
10
3.4976
20
0.668425
11
3.49829
21
0.670096
0
LINE
8
BLACK
6
CONTINUOUS
10
3.49829
20
0.670096
11
3.49996
21
0.670787
0
LINE
8
BLACK
6
CONTINUOUS
10
3.49996
20
0.670787
11
3.50163
21
0.670096
0
LINE
8
BLACK
6
CONTINUOUS
10
3.50163
20
0.670096
11
3.50232
21
0.668425
0
LINE
8
BLACK
6
CONTINUOUS
10
3.50232
20
0.668425
11
3.50232
21
0.396772
0
LINE
8
BLACK
6
CONTINUOUS
10
3.50232
20
0.396772
11
3.50163
21
0.395101
0
LINE
8
BLACK
6
CONTINUOUS
10
3.50163
20
0.395101
11
3.49996
21
0.394409
0
LINE
8
BLACK
6
CONTINUOUS
10
3.49996
20
0.394409
11
3.37004
21
0.394409
0
LINE
8
BLACK
6
CONTINUOUS
10
3.37004
20
0.394409
11
3.36837
21
0.395101
0
LINE
8
BLACK
6
CONTINUOUS
10
0.259574
20
0.560526
11
0.261449
21
0.558651
0
LINE
8
BLACK
6
CONTINUOUS
10
0.261449
20
0.558651
11
0.261955
21
0.557928
0
LINE
8
BLACK
6
CONTINUOUS
10
0.261955
20
0.557928
11
0.262002
21
0.557884
0
LINE
8
BLACK
6
CONTINUOUS
10
0.262002
20
0.557884
11
0.263876
21
0.554135
0
LINE
8
BLACK
6
CONTINUOUS
10
0.263876
20
0.554135
11
0.264169
21
0.553152
0
LINE
8
BLACK
6
CONTINUOUS
10
0.264169
20
0.553152
11
0.264128
21
0.55298
0
LINE
8
BLACK
6
CONTINUOUS
10
0.264128
20
0.55298
11
0.264188
21
0.552814
0
LINE
8
BLACK
6
CONTINUOUS
10
0.264188
20
0.552814
11
0.264188
21
0.541565
0
LINE
8
BLACK
6
CONTINUOUS
10
0.264188
20
0.541565
11
0.26401
21
0.540556
0
LINE
8
BLACK
6
CONTINUOUS
10
0.26401
20
0.540556
11
0.263897
21
0.54042
0
LINE
8
BLACK
6
CONTINUOUS
10
0.263897
20
0.54042
11
0.263876
21
0.540245
0
LINE
8
BLACK
6
CONTINUOUS
10
0.263876
20
0.540245
11
0.262002
21
0.536495
0
LINE
8
BLACK
6
CONTINUOUS
10
0.262002
20
0.536495
11
0.261476
21
0.535786
0
LINE
8
BLACK
6
CONTINUOUS
10
0.261476
20
0.535786
11
0.261449
21
0.535728
0
LINE
8
BLACK
6
CONTINUOUS
10
0.261449
20
0.535728
11
0.259574
21
0.533853
0
LINE
8
BLACK
6
CONTINUOUS
10
0.259574
20
0.533853
11
0.258851
21
0.533347
0
LINE
8
BLACK
6
CONTINUOUS
10
0.258851
20
0.533347
11
0.258806
21
0.5333
0
LINE
8
BLACK
6
CONTINUOUS
10
0.258806
20
0.5333
11
0.255057
21
0.531425
0
LINE
8
BLACK
6
CONTINUOUS
10
0.255057
20
0.531425
11
0.254074
21
0.531133
0
LINE
8
BLACK
6
CONTINUOUS
10
0.254074
20
0.531133
11
0.253902
21
0.531174
0
LINE
8
BLACK
6
CONTINUOUS
10
0.253902
20
0.531174
11
0.253736
21
0.531114
0
LINE
8
BLACK
6
CONTINUOUS
10
0.253736
20
0.531114
11
0.244363
21
0.531114
0
LINE
8
BLACK
6
CONTINUOUS
10
0.244363
20
0.531114
11
0.243353
21
0.531292
0
LINE
8
BLACK
6
CONTINUOUS
10
0.243353
20
0.531292
11
0.243217
21
0.531405
0
LINE
8
BLACK
6
CONTINUOUS
10
0.243217
20
0.531405
11
0.243042
21
0.531425
0
LINE
8
BLACK
6
CONTINUOUS
10
0.243042
20
0.531425
11
0.239293
21
0.5333
0
LINE
8
BLACK
6
CONTINUOUS
10
0.239293
20
0.5333
11
0.238583
21
0.533826
0
LINE
8
BLACK
6
CONTINUOUS
10
0.238583
20
0.533826
11
0.238525
21
0.533853
0
LINE
8
BLACK
6
CONTINUOUS
10
0.238525
20
0.533853
11
0.23665
21
0.535728
0
LINE
8
BLACK
6
CONTINUOUS
10
0.23665
20
0.535728
11
0.236144
21
0.536451
0
LINE
8
BLACK
6
CONTINUOUS
10
0.236144
20
0.536451
11
0.236097
21
0.536495
0
LINE
8
BLACK
6
CONTINUOUS
10
0.236097
20
0.536495
11
0.234222
21
0.540245
0
LINE
8
BLACK
6
CONTINUOUS
10
0.234222
20
0.540245
11
0.234055
21
0.540809
0
LINE
8
BLACK
6
CONTINUOUS
10
0.234055
20
0.540809
11
0.22381
21
0.531844
0
LINE
8
BLACK
6
CONTINUOUS
10
0.22381
20
0.531844
11
0.22343
21
0.531614
0
LINE
8
BLACK
6
CONTINUOUS
10
0.22343
20
0.531614
11
0.223342
21
0.531509
0
LINE
8
BLACK
6
CONTINUOUS
10
0.223342
20
0.531509
11
0.223221
21
0.531488
0
LINE
8
BLACK
6
CONTINUOUS
10
0.223221
20
0.531488
11
0.222932
21
0.531313
0
LINE
8
BLACK
6
CONTINUOUS
10
0.222932
20
0.531313
11
0.222137
21
0.531297
0
LINE
8
BLACK
6
CONTINUOUS
10
0.222137
20
0.531297
11
0.221353
21
0.531158
0
LINE
8
BLACK
6
CONTINUOUS
10
0.221353
20
0.531158
11
0.221149
21
0.531276
0
LINE
8
BLACK
6
CONTINUOUS
10
0.221149
20
0.531276
11
0.220913
21
0.531271
0
LINE
8
BLACK
6
CONTINUOUS
10
0.220913
20
0.531271
11
0.220293
21
0.53177
0
LINE
8
BLACK
6
CONTINUOUS
10
0.220293
20
0.53177
11
0.219603
21
0.532168
0
LINE
8
BLACK
6
CONTINUOUS
10
0.219603
20
0.532168
11
0.219523
21
0.53239
0
LINE
8
BLACK
6
CONTINUOUS
10
0.219523
20
0.53239
11
0.219339
21
0.532537
0
LINE
8
BLACK
6
CONTINUOUS
10
0.219339
20
0.532537
11
0.219185
21
0.533318
0
LINE
8
BLACK
6
CONTINUOUS
10
0.219185
20
0.533318
11
0.218913
21
0.534066
0
LINE
8
BLACK
6
CONTINUOUS
10
0.218913
20
0.534066
11
0.218913
21
0.558438
0
LINE
8
BLACK
6
CONTINUOUS
10
0.218913
20
0.558438
11
0.219091
21
0.559448
0
LINE
8
BLACK
6
CONTINUOUS
10
0.219091
20
0.559448
11
0.220389
21
0.560996
0
LINE
8
BLACK
6
CONTINUOUS
10
0.220389
20
0.560996
11
0.222378
21
0.561346
0
LINE
8
BLACK
6
CONTINUOUS
10
0.222378
20
0.561346
11
0.224127
21
0.560336
0
LINE
8
BLACK
6
CONTINUOUS
10
0.224127
20
0.560336
11
0.224818
21
0.558438
0
LINE
8
BLACK
6
CONTINUOUS
10
0.224818
20
0.558438
11
0.224818
21
0.540574
0
LINE
8
BLACK
6
CONTINUOUS
10
0.224818
20
0.540574
11
0.234919
21
0.549412
0
LINE
8
BLACK
6
CONTINUOUS
10
0.234919
20
0.549412
11
0.235299
21
0.549642
0
LINE
8
BLACK
6
CONTINUOUS
10
0.235299
20
0.549642
11
0.235387
21
0.549747
0
LINE
8
BLACK
6
CONTINUOUS
10
0.235387
20
0.549747
11
0.235508
21
0.549768
0
LINE
8
BLACK
6
CONTINUOUS
10
0.235508
20
0.549768
11
0.235796
21
0.549943
0
LINE
8
BLACK
6
CONTINUOUS
10
0.235796
20
0.549943
11
0.236592
21
0.549959
0
LINE
8
BLACK
6
CONTINUOUS
10
0.236592
20
0.549959
11
0.237376
21
0.550098
0
LINE
8
BLACK
6
CONTINUOUS
10
0.237376
20
0.550098
11
0.23758
21
0.54998
0
LINE
8
BLACK
6
CONTINUOUS
10
0.23758
20
0.54998
11
0.237816
21
0.549985
0
LINE
8
BLACK
6
CONTINUOUS
10
0.237816
20
0.549985
11
0.238436
21
0.549486
0
LINE
8
BLACK
6
CONTINUOUS
10
0.238436
20
0.549486
11
0.239125
21
0.549088
0
LINE
8
BLACK
6
CONTINUOUS
10
0.239125
20
0.549088
11
0.239206
21
0.548866
0
LINE
8
BLACK
6
CONTINUOUS
10
0.239206
20
0.548866
11
0.23939
21
0.548719
0
LINE
8
BLACK
6
CONTINUOUS
10
0.23939
20
0.548719
11
0.239544
21
0.547938
0
LINE
8
BLACK
6
CONTINUOUS
10
0.239544
20
0.547938
11
0.239816
21
0.54719
0
LINE
8
BLACK
6
CONTINUOUS
10
0.239816
20
0.54719
11
0.239816
21
0.542262
0
LINE
8
BLACK
6
CONTINUOUS
10
0.239816
20
0.542262
11
0.241165
21
0.539565
0
LINE
8
BLACK
6
CONTINUOUS
10
0.241165
20
0.539565
11
0.242362
21
0.538368
0
LINE
8
BLACK
6
CONTINUOUS
10
0.242362
20
0.538368
11
0.24506
21
0.537019
0
LINE
8
BLACK
6
CONTINUOUS
10
0.24506
20
0.537019
11
0.253039
21
0.537019
0
LINE
8
BLACK
6
CONTINUOUS
10
0.253039
20
0.537019
11
0.255737
21
0.538368
0
LINE
8
BLACK
6
CONTINUOUS
10
0.255737
20
0.538368
11
0.256934
21
0.539565
0
LINE
8
BLACK
6
CONTINUOUS
10
0.256934
20
0.539565
11
0.258283
21
0.542262
0
LINE
8
BLACK
6
CONTINUOUS
10
0.258283
20
0.542262
11
0.258283
21
0.552117
0
LINE
8
BLACK
6
CONTINUOUS
10
0.258283
20
0.552117
11
0.256934
21
0.554814
0
LINE
8
BLACK
6
CONTINUOUS
10
0.256934
20
0.554814
11
0.255398
21
0.55635
0
LINE
8
BLACK
6
CONTINUOUS
10
0.255398
20
0.55635
11
0.25481
21
0.55719
0
LINE
8
BLACK
6
CONTINUOUS
10
0.25481
20
0.55719
11
0.254634
21
0.559203
0
LINE
8
BLACK
6
CONTINUOUS
10
0.254634
20
0.559203
11
0.255792
21
0.560857
0
LINE
8
BLACK
6
CONTINUOUS
10
0.255792
20
0.560857
11
0.257743
21
0.56138
0
LINE
8
BLACK
6
CONTINUOUS
10
0.257743
20
0.56138
11
0.259574
21
0.560526
0
LINE
8
BLACK
6
CONTINUOUS
10
3.5384
20
0.564432
11
3.53862
21
0.564471
0
LINE
8
BLACK
6
CONTINUOUS
10
3.53862
20
0.564471
11
3.53932
21
0.564069
0
LINE
8
BLACK
6
CONTINUOUS
10
3.53932
20
0.564069
11
3.54007
21
0.563773
0
LINE
8
BLACK
6
CONTINUOUS
10
3.54007
20
0.563773
11
3.54018
21
0.563574
0
LINE
8
BLACK
6
CONTINUOUS
10
3.54018
20
0.563574
11
3.54037
21
0.563462
0
LINE
8
BLACK
6
CONTINUOUS
10
3.54037
20
0.563462
11
3.54065
21
0.562705
0
LINE
8
BLACK
6
CONTINUOUS
10
3.54065
20
0.562705
11
3.54103
21
0.561997
0
LINE
8
BLACK
6
CONTINUOUS
10
3.54103
20
0.561997
11
3.54099
21
0.561776
0
LINE
8
BLACK
6
CONTINUOUS
10
3.54099
20
0.561776
11
3.54106
21
0.561564
0
LINE
8
BLACK
6
CONTINUOUS
10
3.54106
20
0.561564
11
3.54106
21
0.545769
0
LINE
8
BLACK
6
CONTINUOUS
10
3.54106
20
0.545769
11
3.55124
21
0.545769
0
LINE
8
BLACK
6
CONTINUOUS
10
3.55124
20
0.545769
11
3.55225
21
0.545591
0
LINE
8
BLACK
6
CONTINUOUS
10
3.55225
20
0.545591
11
3.55379
21
0.544292
0
LINE
8
BLACK
6
CONTINUOUS
10
3.55379
20
0.544292
11
3.55414
21
0.542303
0
LINE
8
BLACK
6
CONTINUOUS
10
3.55414
20
0.542303
11
3.55313
21
0.540554
0
LINE
8
BLACK
6
CONTINUOUS
10
3.55313
20
0.540554
11
3.55124
21
0.539863
0
LINE
8
BLACK
6
CONTINUOUS
10
3.55124
20
0.539863
11
3.54106
21
0.539863
0
LINE
8
BLACK
6
CONTINUOUS
10
3.54106
20
0.539863
11
3.54106
21
0.537192
0
LINE
8
BLACK
6
CONTINUOUS
10
3.54106
20
0.537192
11
3.54089
21
0.536182
0
LINE
8
BLACK
6
CONTINUOUS
10
3.54089
20
0.536182
11
3.53959
21
0.534634
0
LINE
8
BLACK
6
CONTINUOUS
10
3.53959
20
0.534634
11
3.5376
21
0.534284
0
LINE
8
BLACK
6
CONTINUOUS
10
3.5376
20
0.534284
11
3.53585
21
0.535294
0
LINE
8
BLACK
6
CONTINUOUS
10
3.53585
20
0.535294
11
3.53516
21
0.537192
0
LINE
8
BLACK
6
CONTINUOUS
10
3.53516
20
0.537192
11
3.53516
21
0.539863
0
LINE
8
BLACK
6
CONTINUOUS
10
3.53516
20
0.539863
11
3.52499
21
0.539863
0
LINE
8
BLACK
6
CONTINUOUS
10
3.52499
20
0.539863
11
3.52398
21
0.540041
0
LINE
8
BLACK
6
CONTINUOUS
10
3.52398
20
0.540041
11
3.52243
21
0.54134
0
LINE
8
BLACK
6
CONTINUOUS
10
3.52243
20
0.54134
11
3.52208
21
0.543329
0
LINE
8
BLACK
6
CONTINUOUS
10
3.52208
20
0.543329
11
3.52309
21
0.545078
0
LINE
8
BLACK
6
CONTINUOUS
10
3.52309
20
0.545078
11
3.52499
21
0.545769
0
LINE
8
BLACK
6
CONTINUOUS
10
3.52499
20
0.545769
11
3.53516
21
0.545769
0
LINE
8
BLACK
6
CONTINUOUS
10
3.53516
20
0.545769
11
3.53516
21
0.557467
0
LINE
8
BLACK
6
CONTINUOUS
10
3.53516
20
0.557467
11
3.51092
21
0.549389
0
LINE
8
BLACK
6
CONTINUOUS
10
3.51092
20
0.549389
11
3.50991
21
0.549238
0
LINE
8
BLACK
6
CONTINUOUS
10
3.50991
20
0.549238
11
3.50803
21
0.549981
0
LINE
8
BLACK
6
CONTINUOUS
10
3.50803
20
0.549981
11
3.50707
21
0.551757
0
LINE
8
BLACK
6
CONTINUOUS
10
3.50707
20
0.551757
11
3.50747
21
0.553735
0
LINE
8
BLACK
6
CONTINUOUS
10
3.50747
20
0.553735
11
3.50906
21
0.554991
0
LINE
8
BLACK
6
CONTINUOUS
10
3.50906
20
0.554991
11
3.53718
21
0.564365
0
LINE
8
BLACK
6
CONTINUOUS
10
3.53718
20
0.564365
11
3.53819
21
0.564515
0
LINE
8
BLACK
6
CONTINUOUS
10
3.53819
20
0.564515
11
3.5384
21
0.564432
0
LINE
8
BLACK
6
CONTINUOUS
10
0.261619
20
0.596944
11
0.261748
21
0.596967
0
LINE
8
BLACK
6
CONTINUOUS
10
0.261748
20
0.596967
11
0.261862
21
0.596901
0
LINE
8
BLACK
6
CONTINUOUS
10
0.261862
20
0.596901
11
0.262245
21
0.596834
0
LINE
8
BLACK
6
CONTINUOUS
10
0.262245
20
0.596834
11
0.262833
21
0.59634
0
LINE
8
BLACK
6
CONTINUOUS
10
0.262833
20
0.59634
11
0.263497
21
0.595957
0
LINE
8
BLACK
6
CONTINUOUS
10
0.263497
20
0.595957
11
0.263588
21
0.595707
0
LINE
8
BLACK
6
CONTINUOUS
10
0.263588
20
0.595707
11
0.263793
21
0.595535
0
LINE
8
BLACK
6
CONTINUOUS
10
0.263793
20
0.595535
11
0.263926
21
0.59478
0
LINE
8
BLACK
6
CONTINUOUS
10
0.263926
20
0.59478
11
0.264188
21
0.594059
0
LINE
8
BLACK
6
CONTINUOUS
10
0.264188
20
0.594059
11
0.264188
21
0.584685
0
LINE
8
BLACK
6
CONTINUOUS
10
0.264188
20
0.584685
11
0.264035
21
0.583816
0
LINE
8
BLACK
6
CONTINUOUS
10
0.264035
20
0.583816
11
0.264037
21
0.583751
0
LINE
8
BLACK
6
CONTINUOUS
10
0.264037
20
0.583751
11
0.262162
21
0.578127
0
LINE
8
BLACK
6
CONTINUOUS
10
0.262162
20
0.578127
11
0.261674
21
0.577225
0
LINE
8
BLACK
6
CONTINUOUS
10
0.261674
20
0.577225
11
0.261523
21
0.577133
0
LINE
8
BLACK
6
CONTINUOUS
10
0.261523
20
0.577133
11
0.261449
21
0.576973
0
LINE
8
BLACK
6
CONTINUOUS
10
0.261449
20
0.576973
11
0.257699
21
0.573223
0
LINE
8
BLACK
6
CONTINUOUS
10
0.257699
20
0.573223
11
0.256976
21
0.572717
0
LINE
8
BLACK
6
CONTINUOUS
10
0.256976
20
0.572717
11
0.256932
21
0.57267
0
LINE
8
BLACK
6
CONTINUOUS
10
0.256932
20
0.57267
11
0.253182
21
0.570795
0
LINE
8
BLACK
6
CONTINUOUS
10
0.253182
20
0.570795
11
0.252694
21
0.57065
0
LINE
8
BLACK
6
CONTINUOUS
10
0.252694
20
0.57065
11
0.252578
21
0.570572
0
LINE
8
BLACK
6
CONTINUOUS
10
0.252578
20
0.570572
11
0.245079
21
0.568697
0
LINE
8
BLACK
6
CONTINUOUS
10
0.245079
20
0.568697
11
0.244491
21
0.568656
0
LINE
8
BLACK
6
CONTINUOUS
10
0.244491
20
0.568656
11
0.244363
21
0.568609
0
LINE
8
BLACK
6
CONTINUOUS
10
0.244363
20
0.568609
11
0.238738
21
0.568609
0
LINE
8
BLACK
6
CONTINUOUS
10
0.238738
20
0.568609
11
0.238158
21
0.568711
0
LINE
8
BLACK
6
CONTINUOUS
10
0.238158
20
0.568711
11
0.238022
21
0.568697
0
LINE
8
BLACK
6
CONTINUOUS
10
0.238022
20
0.568697
11
0.230523
21
0.570572
0
LINE
8
BLACK
6
CONTINUOUS
10
0.230523
20
0.570572
11
0.230058
21
0.570779
0
LINE
8
BLACK
6
CONTINUOUS
10
0.230058
20
0.570779
11
0.229919
21
0.570795
0
LINE
8
BLACK
6
CONTINUOUS
10
0.229919
20
0.570795
11
0.226169
21
0.57267
0
LINE
8
BLACK
6
CONTINUOUS
10
0.226169
20
0.57267
11
0.22546
21
0.573196
0
LINE
8
BLACK
6
CONTINUOUS
10
0.22546
20
0.573196
11
0.225402
21
0.573223
0
LINE
8
BLACK
6
CONTINUOUS
10
0.225402
20
0.573223
11
0.221652
21
0.576973
0
LINE
8
BLACK
6
CONTINUOUS
10
0.221652
20
0.576973
11
0.221064
21
0.577813
0
LINE
8
BLACK
6
CONTINUOUS
10
0.221064
20
0.577813
11
0.221049
21
0.577989
0
LINE
8
BLACK
6
CONTINUOUS
10
0.221049
20
0.577989
11
0.220939
21
0.578127
0
LINE
8
BLACK
6
CONTINUOUS
10
0.220939
20
0.578127
11
0.219064
21
0.583751
0
LINE
8
BLACK
6
CONTINUOUS
10
0.219064
20
0.583751
11
0.218935
21
0.584624
0
LINE
8
BLACK
6
CONTINUOUS
10
0.218935
20
0.584624
11
0.218913
21
0.584685
0
LINE
8
BLACK
6
CONTINUOUS
10
0.218913
20
0.584685
11
0.218913
21
0.594059
0
LINE
8
BLACK
6
CONTINUOUS
10
0.218913
20
0.594059
11
0.21898
21
0.594442
0
LINE
8
BLACK
6
CONTINUOUS
10
0.21898
20
0.594442
11
0.218957
21
0.594572
0
LINE
8
BLACK
6
CONTINUOUS
10
0.218957
20
0.594572
11
0.219023
21
0.594685
0
LINE
8
BLACK
6
CONTINUOUS
10
0.219023
20
0.594685
11
0.219091
21
0.595069
0
LINE
8
BLACK
6
CONTINUOUS
10
0.219091
20
0.595069
11
0.219584
21
0.595656
0
LINE
8
BLACK
6
CONTINUOUS
10
0.219584
20
0.595656
11
0.219967
21
0.596321
0
LINE
8
BLACK
6
CONTINUOUS
10
0.219967
20
0.596321
11
0.220218
21
0.596412
0
LINE
8
BLACK
6
CONTINUOUS
10
0.220218
20
0.596412
11
0.220389
21
0.596616
0
LINE
8
BLACK
6
CONTINUOUS
10
0.220389
20
0.596616
11
0.221145
21
0.596749
0
LINE
8
BLACK
6
CONTINUOUS
10
0.221145
20
0.596749
11
0.221865
21
0.597012
0
LINE
8
BLACK
6
CONTINUOUS
10
0.221865
20
0.597012
11
0.261235
21
0.597012
0
LINE
8
BLACK
6
CONTINUOUS
10
0.261235
20
0.597012
11
0.261619
21
0.596944
0
LINE
8
BLACK
6
CONTINUOUS
10
0.224818
20
0.591106
11
0.224818
21
0.585164
0
LINE
8
BLACK
6
CONTINUOUS
10
0.224818
20
0.585164
11
0.226321
21
0.580656
0
LINE
8
BLACK
6
CONTINUOUS
10
0.226321
20
0.580656
11
0.229239
21
0.577738
0
LINE
8
BLACK
6
CONTINUOUS
10
0.229239
20
0.577738
11
0.23227
21
0.576222
0
LINE
8
BLACK
6
CONTINUOUS
10
0.23227
20
0.576222
11
0.239102
21
0.574514
0
LINE
8
BLACK
6
CONTINUOUS
10
0.239102
20
0.574514
11
0.243999
21
0.574514
0
LINE
8
BLACK
6
CONTINUOUS
10
0.243999
20
0.574514
11
0.250831
21
0.576222
0
LINE
8
BLACK
6
CONTINUOUS
10
0.250831
20
0.576222
11
0.253862
21
0.577738
0
LINE
8
BLACK
6
CONTINUOUS
10
0.253862
20
0.577738
11
0.25678
21
0.580656
0
LINE
8
BLACK
6
CONTINUOUS
10
0.25678
20
0.580656
11
0.258283
21
0.585164
0
LINE
8
BLACK
6
CONTINUOUS
10
0.258283
20
0.585164
11
0.258283
21
0.591106
0
LINE
8
BLACK
6
CONTINUOUS
10
0.258283
20
0.591106
11
0.224818
21
0.591106
0
LINE
8
BLACK
6
CONTINUOUS
10
3.55162
20
0.601944
11
3.55175
21
0.601967
0
LINE
8
BLACK
6
CONTINUOUS
10
3.55175
20
0.601967
11
3.55186
21
0.601901
0
LINE
8
BLACK
6
CONTINUOUS
10
3.55186
20
0.601901
11
3.55225
21
0.601834
0
LINE
8
BLACK
6
CONTINUOUS
10
3.55225
20
0.601834
11
3.55283
21
0.60134
0
LINE
8
BLACK
6
CONTINUOUS
10
3.55283
20
0.60134
11
3.5535
21
0.600957
0
LINE
8
BLACK
6
CONTINUOUS
10
3.5535
20
0.600957
11
3.55359
21
0.600707
0
LINE
8
BLACK
6
CONTINUOUS
10
3.55359
20
0.600707
11
3.55379
21
0.600535
0
LINE
8
BLACK
6
CONTINUOUS
10
3.55379
20
0.600535
11
3.55393
21
0.59978
0
LINE
8
BLACK
6
CONTINUOUS
10
3.55393
20
0.59978
11
3.55419
21
0.599059
0
LINE
8
BLACK
6
CONTINUOUS
10
3.55419
20
0.599059
11
3.55419
21
0.589685
0
LINE
8
BLACK
6
CONTINUOUS
10
3.55419
20
0.589685
11
3.55403
21
0.588816
0
LINE
8
BLACK
6
CONTINUOUS
10
3.55403
20
0.588816
11
3.55404
21
0.588751
0
LINE
8
BLACK
6
CONTINUOUS
10
3.55404
20
0.588751
11
3.55216
21
0.583127
0
LINE
8
BLACK
6
CONTINUOUS
10
3.55216
20
0.583127
11
3.55167
21
0.582225
0
LINE
8
BLACK
6
CONTINUOUS
10
3.55167
20
0.582225
11
3.55152
21
0.582133
0
LINE
8
BLACK
6
CONTINUOUS
10
3.55152
20
0.582133
11
3.55145
21
0.581973
0
LINE
8
BLACK
6
CONTINUOUS
10
3.55145
20
0.581973
11
3.5477
21
0.578223
0
LINE
8
BLACK
6
CONTINUOUS
10
3.5477
20
0.578223
11
3.54698
21
0.577717
0
LINE
8
BLACK
6
CONTINUOUS
10
3.54698
20
0.577717
11
3.54693
21
0.57767
0
LINE
8
BLACK
6
CONTINUOUS
10
3.54693
20
0.57767
11
3.54318
21
0.575795
0
LINE
8
BLACK
6
CONTINUOUS
10
3.54318
20
0.575795
11
3.54269
21
0.57565
0
LINE
8
BLACK
6
CONTINUOUS
10
3.54269
20
0.57565
11
3.54258
21
0.575572
0
LINE
8
BLACK
6
CONTINUOUS
10
3.54258
20
0.575572
11
3.53508
21
0.573697
0
LINE
8
BLACK
6
CONTINUOUS
10
3.53508
20
0.573697
11
3.53449
21
0.573656
0
LINE
8
BLACK
6
CONTINUOUS
10
3.53449
20
0.573656
11
3.53436
21
0.573609
0
LINE
8
BLACK
6
CONTINUOUS
10
3.53436
20
0.573609
11
3.52874
21
0.573609
0
LINE
8
BLACK
6
CONTINUOUS
10
3.52874
20
0.573609
11
3.52816
21
0.573711
0
LINE
8
BLACK
6
CONTINUOUS
10
3.52816
20
0.573711
11
3.52802
21
0.573697
0
LINE
8
BLACK
6
CONTINUOUS
10
3.52802
20
0.573697
11
3.52052
21
0.575572
0
LINE
8
BLACK
6
CONTINUOUS
10
3.52052
20
0.575572
11
3.52006
21
0.575779
0
LINE
8
BLACK
6
CONTINUOUS
10
3.52006
20
0.575779
11
3.51992
21
0.575795
0
LINE
8
BLACK
6
CONTINUOUS
10
3.51992
20
0.575795
11
3.51617
21
0.57767
0
LINE
8
BLACK
6
CONTINUOUS
10
3.51617
20
0.57767
11
3.51546
21
0.578196
0
LINE
8
BLACK
6
CONTINUOUS
10
3.51546
20
0.578196
11
3.5154
21
0.578223
0
LINE
8
BLACK
6
CONTINUOUS
10
3.5154
20
0.578223
11
3.51165
21
0.581973
0
LINE
8
BLACK
6
CONTINUOUS
10
3.51165
20
0.581973
11
3.51106
21
0.582813
0
LINE
8
BLACK
6
CONTINUOUS
10
3.51106
20
0.582813
11
3.51105
21
0.582989
0
LINE
8
BLACK
6
CONTINUOUS
10
3.51105
20
0.582989
11
3.51094
21
0.583127
0
LINE
8
BLACK
6
CONTINUOUS
10
3.51094
20
0.583127
11
3.50906
21
0.588751
0
LINE
8
BLACK
6
CONTINUOUS
10
3.50906
20
0.588751
11
3.50893
21
0.589624
0
LINE
8
BLACK
6
CONTINUOUS
10
3.50893
20
0.589624
11
3.50891
21
0.589685
0
LINE
8
BLACK
6
CONTINUOUS
10
3.50891
20
0.589685
11
3.50891
21
0.599059
0
LINE
8
BLACK
6
CONTINUOUS
10
3.50891
20
0.599059
11
3.50898
21
0.599442
0
LINE
8
BLACK
6
CONTINUOUS
10
3.50898
20
0.599442
11
3.50896
21
0.599572
0
LINE
8
BLACK
6
CONTINUOUS
10
3.50896
20
0.599572
11
3.50902
21
0.599685
0
LINE
8
BLACK
6
CONTINUOUS
10
3.50902
20
0.599685
11
3.50909
21
0.600069
0
LINE
8
BLACK
6
CONTINUOUS
10
3.50909
20
0.600069
11
3.50958
21
0.600656
0
LINE
8
BLACK
6
CONTINUOUS
10
3.50958
20
0.600656
11
3.50997
21
0.601321
0
LINE
8
BLACK
6
CONTINUOUS
10
3.50997
20
0.601321
11
3.51022
21
0.601412
0
LINE
8
BLACK
6
CONTINUOUS
10
3.51022
20
0.601412
11
3.51039
21
0.601616
0
LINE
8
BLACK
6
CONTINUOUS
10
3.51039
20
0.601616
11
3.51114
21
0.601749
0
LINE
8
BLACK
6
CONTINUOUS
10
3.51114
20
0.601749
11
3.51187
21
0.602012
0
LINE
8
BLACK
6
CONTINUOUS
10
3.51187
20
0.602012
11
3.55124
21
0.602012
0
LINE
8
BLACK
6
CONTINUOUS
10
3.55124
20
0.602012
11
3.55162
21
0.601944
0
LINE
8
BLACK
6
CONTINUOUS
10
3.51482
20
0.596106
11
3.51482
21
0.590164
0
LINE
8
BLACK
6
CONTINUOUS
10
3.51482
20
0.590164
11
3.51632
21
0.585656
0
LINE
8
BLACK
6
CONTINUOUS
10
3.51632
20
0.585656
11
3.51924
21
0.582738
0
LINE
8
BLACK
6
CONTINUOUS
10
3.51924
20
0.582738
11
3.52227
21
0.581222
0
LINE
8
BLACK
6
CONTINUOUS
10
3.52227
20
0.581222
11
3.5291
21
0.579514
0
LINE
8
BLACK
6
CONTINUOUS
10
3.5291
20
0.579514
11
3.534
21
0.579514
0
LINE
8
BLACK
6
CONTINUOUS
10
3.534
20
0.579514
11
3.54083
21
0.581222
0
LINE
8
BLACK
6
CONTINUOUS
10
3.54083
20
0.581222
11
3.54386
21
0.582738
0
LINE
8
BLACK
6
CONTINUOUS
10
3.54386
20
0.582738
11
3.54678
21
0.585656
0
LINE
8
BLACK
6
CONTINUOUS
10
3.54678
20
0.585656
11
3.54828
21
0.590164
0
LINE
8
BLACK
6
CONTINUOUS
10
3.54828
20
0.590164
11
3.54828
21
0.596106
0
LINE
8
BLACK
6
CONTINUOUS
10
3.54828
20
0.596106
11
3.51482
21
0.596106
0
LINE
8
BLACK
6
CONTINUOUS
10
0.146956
20
0.798718
11
0.147648
21
0.797047
0
LINE
8
BLACK
6
CONTINUOUS
10
0.147648
20
0.797047
11
0.146956
21
0.795377
0
LINE
8
BLACK
6
CONTINUOUS
10
0.146956
20
0.795377
11
0.145286
21
0.794685
0
LINE
8
BLACK
6
CONTINUOUS
10
0.145286
20
0.794685
11
0.124714
21
0.794685
0
LINE
8
BLACK
6
CONTINUOUS
10
0.124714
20
0.794685
11
0.123044
21
0.795377
0
LINE
8
BLACK
6
CONTINUOUS
10
0.123044
20
0.795377
11
0.122352
21
0.797047
0
LINE
8
BLACK
6
CONTINUOUS
10
0.122352
20
0.797047
11
0.123044
21
0.798718
0
LINE
8
BLACK
6
CONTINUOUS
10
0.123044
20
0.798718
11
0.124714
21
0.799409
0
LINE
8
BLACK
6
CONTINUOUS
10
0.124714
20
0.799409
11
0.145286
21
0.799409
0
LINE
8
BLACK
6
CONTINUOUS
10
0.145286
20
0.799409
11
0.146956
21
0.798718
0
LINE
8
BLACK
6
CONTINUOUS
10
0.146956
20
0.854623
11
0.147648
21
0.852953
0
LINE
8
BLACK
6
CONTINUOUS
10
0.147648
20
0.852953
11
0.146956
21
0.851282
0
LINE
8
BLACK
6
CONTINUOUS
10
0.146956
20
0.851282
11
0.145286
21
0.850591
0
LINE
8
BLACK
6
CONTINUOUS
10
0.145286
20
0.850591
11
0.124714
21
0.850591
0
LINE
8
BLACK
6
CONTINUOUS
10
0.124714
20
0.850591
11
0.123044
21
0.851282
0
LINE
8
BLACK
6
CONTINUOUS
10
0.123044
20
0.851282
11
0.122352
21
0.852953
0
LINE
8
BLACK
6
CONTINUOUS
10
0.122352
20
0.852953
11
0.123044
21
0.854623
0
LINE
8
BLACK
6
CONTINUOUS
10
0.123044
20
0.854623
11
0.124714
21
0.855315
0
LINE
8
BLACK
6
CONTINUOUS
10
0.124714
20
0.855315
11
0.145286
21
0.855315
0
LINE
8
BLACK
6
CONTINUOUS
10
0.145286
20
0.855315
11
0.146956
21
0.854623
0
LINE
8
BLACK
6
CONTINUOUS
10
3.46196
20
0.858718
11
3.46265
21
0.857047
0
LINE
8
BLACK
6
CONTINUOUS
10
3.46265
20
0.857047
11
3.46196
21
0.855377
0
LINE
8
BLACK
6
CONTINUOUS
10
3.46196
20
0.855377
11
3.46029
21
0.854685
0
LINE
8
BLACK
6
CONTINUOUS
10
3.46029
20
0.854685
11
3.43971
21
0.854685
0
LINE
8
BLACK
6
CONTINUOUS
10
3.43971
20
0.854685
11
3.43804
21
0.855377
0
LINE
8
BLACK
6
CONTINUOUS
10
3.43804
20
0.855377
11
3.43735
21
0.857047
0
LINE
8
BLACK
6
CONTINUOUS
10
3.43735
20
0.857047
11
3.43804
21
0.858718
0
LINE
8
BLACK
6
CONTINUOUS
10
3.43804
20
0.858718
11
3.43971
21
0.859409
0
LINE
8
BLACK
6
CONTINUOUS
10
3.43971
20
0.859409
11
3.46029
21
0.859409
0
LINE
8
BLACK
6
CONTINUOUS
10
3.46029
20
0.859409
11
3.46196
21
0.858718
0
LINE
8
BLACK
6
CONTINUOUS
10
0.12726
20
0.919335
11
0.128808
21
0.918036
0
LINE
8
BLACK
6
CONTINUOUS
10
0.128808
20
0.918036
11
0.129158
21
0.916047
0
LINE
8
BLACK
6
CONTINUOUS
10
0.129158
20
0.916047
11
0.128148
21
0.914298
0
LINE
8
BLACK
6
CONTINUOUS
10
0.128148
20
0.914298
11
0.12625
21
0.913607
0
LINE
8
BLACK
6
CONTINUOUS
10
0.12625
20
0.913607
11
0.108386
21
0.913607
0
LINE
8
BLACK
6
CONTINUOUS
10
0.108386
20
0.913607
11
0.117224
21
0.903506
0
LINE
8
BLACK
6
CONTINUOUS
10
0.117224
20
0.903506
11
0.117454
21
0.903126
0
LINE
8
BLACK
6
CONTINUOUS
10
0.117454
20
0.903126
11
0.117559
21
0.903038
0
LINE
8
BLACK
6
CONTINUOUS
10
0.117559
20
0.903038
11
0.11758
21
0.902918
0
LINE
8
BLACK
6
CONTINUOUS
10
0.11758
20
0.902918
11
0.117755
21
0.902629
0
LINE
8
BLACK
6
CONTINUOUS
10
0.117755
20
0.902629
11
0.117772
21
0.901833
0
LINE
8
BLACK
6
CONTINUOUS
10
0.117772
20
0.901833
11
0.11791
21
0.901049
0
LINE
8
BLACK
6
CONTINUOUS
10
0.11791
20
0.901049
11
0.117792
21
0.900845
0
LINE
8
BLACK
6
CONTINUOUS
10
0.117792
20
0.900845
11
0.117797
21
0.900609
0
LINE
8
BLACK
6
CONTINUOUS
10
0.117797
20
0.900609
11
0.117298
21
0.899989
0
LINE
8
BLACK
6
CONTINUOUS
10
0.117298
20
0.899989
11
0.1169
21
0.8993
0
LINE
8
BLACK
6
CONTINUOUS
10
0.1169
20
0.8993
11
0.116679
21
0.899219
0
LINE
8
BLACK
6
CONTINUOUS
10
0.116679
20
0.899219
11
0.116531
21
0.899036
0
LINE
8
BLACK
6
CONTINUOUS
10
0.116531
20
0.899036
11
0.11575
21
0.898881
0
LINE
8
BLACK
6
CONTINUOUS
10
0.11575
20
0.898881
11
0.115002
21
0.898609
0
LINE
8
BLACK
6
CONTINUOUS
10
0.115002
20
0.898609
11
0.110075
21
0.898609
0
LINE
8
BLACK
6
CONTINUOUS
10
0.110075
20
0.898609
11
0.107377
21
0.89726
0
LINE
8
BLACK
6
CONTINUOUS
10
0.107377
20
0.89726
11
0.10618
21
0.896063
0
LINE
8
BLACK
6
CONTINUOUS
10
0.10618
20
0.896063
11
0.104831
21
0.893366
0
LINE
8
BLACK
6
CONTINUOUS
10
0.104831
20
0.893366
11
0.104831
21
0.885386
0
LINE
8
BLACK
6
CONTINUOUS
10
0.104831
20
0.885386
11
0.10618
21
0.882688
0
LINE
8
BLACK
6
CONTINUOUS
10
0.10618
20
0.882688
11
0.107377
21
0.881491
0
LINE
8
BLACK
6
CONTINUOUS
10
0.107377
20
0.881491
11
0.110075
21
0.880143
0
LINE
8
BLACK
6
CONTINUOUS
10
0.110075
20
0.880143
11
0.119929
21
0.880143
0
LINE
8
BLACK
6
CONTINUOUS
10
0.119929
20
0.880143
11
0.122627
21
0.881491
0
LINE
8
BLACK
6
CONTINUOUS
10
0.122627
20
0.881491
11
0.124163
21
0.883027
0
LINE
8
BLACK
6
CONTINUOUS
10
0.124163
20
0.883027
11
0.125003
21
0.883615
0
LINE
8
BLACK
6
CONTINUOUS
10
0.125003
20
0.883615
11
0.127015
21
0.883791
0
LINE
8
BLACK
6
CONTINUOUS
10
0.127015
20
0.883791
11
0.128669
21
0.882633
0
LINE
8
BLACK
6
CONTINUOUS
10
0.128669
20
0.882633
11
0.129192
21
0.880682
0
LINE
8
BLACK
6
CONTINUOUS
10
0.129192
20
0.880682
11
0.128338
21
0.878851
0
LINE
8
BLACK
6
CONTINUOUS
10
0.128338
20
0.878851
11
0.126464
21
0.876977
0
LINE
8
BLACK
6
CONTINUOUS
10
0.126464
20
0.876977
11
0.125741
21
0.87647
0
LINE
8
BLACK
6
CONTINUOUS
10
0.125741
20
0.87647
11
0.125696
21
0.876424
0
LINE
8
BLACK
6
CONTINUOUS
10
0.125696
20
0.876424
11
0.121947
21
0.874549
0
LINE
8
BLACK
6
CONTINUOUS
10
0.121947
20
0.874549
11
0.120964
21
0.874256
0
LINE
8
BLACK
6
CONTINUOUS
10
0.120964
20
0.874256
11
0.120792
21
0.874297
0
LINE
8
BLACK
6
CONTINUOUS
10
0.120792
20
0.874297
11
0.120626
21
0.874237
0
LINE
8
BLACK
6
CONTINUOUS
10
0.120626
20
0.874237
11
0.109378
21
0.874237
0
LINE
8
BLACK
6
CONTINUOUS
10
0.109378
20
0.874237
11
0.108368
21
0.874415
0
LINE
8
BLACK
6
CONTINUOUS
10
0.108368
20
0.874415
11
0.108232
21
0.874529
0
LINE
8
BLACK
6
CONTINUOUS
10
0.108232
20
0.874529
11
0.108057
21
0.874549
0
LINE
8
BLACK
6
CONTINUOUS
10
0.108057
20
0.874549
11
0.104308
21
0.876424
0
LINE
8
BLACK
6
CONTINUOUS
10
0.104308
20
0.876424
11
0.103598
21
0.876949
0
LINE
8
BLACK
6
CONTINUOUS
10
0.103598
20
0.876949
11
0.10354
21
0.876977
0
LINE
8
BLACK
6
CONTINUOUS
10
0.10354
20
0.876977
11
0.101665
21
0.878851
0
LINE
8
BLACK
6
CONTINUOUS
10
0.101665
20
0.878851
11
0.101159
21
0.879574
0
LINE
8
BLACK
6
CONTINUOUS
10
0.101159
20
0.879574
11
0.101112
21
0.879619
0
LINE
8
BLACK
6
CONTINUOUS
10
0.101112
20
0.879619
11
0.0992375
21
0.883368
0
LINE
8
BLACK
6
CONTINUOUS
10
0.0992375
20
0.883368
11
0.0989451
21
0.884351
0
LINE
8
BLACK
6
CONTINUOUS
10
0.0989451
20
0.884351
11
0.0989861
21
0.884523
0
LINE
8
BLACK
6
CONTINUOUS
10
0.0989861
20
0.884523
11
0.0989257
21
0.884689
0
LINE
8
BLACK
6
CONTINUOUS
10
0.0989257
20
0.884689
11
0.0989257
21
0.894063
0
LINE
8
BLACK
6
CONTINUOUS
10
0.0989257
20
0.894063
11
0.0991038
21
0.895073
0
LINE
8
BLACK
6
CONTINUOUS
10
0.0991038
20
0.895073
11
0.0992173
21
0.895208
0
LINE
8
BLACK
6
CONTINUOUS
10
0.0992173
20
0.895208
11
0.0992375
21
0.895383
0
LINE
8
BLACK
6
CONTINUOUS
10
0.0992375
20
0.895383
11
0.101112
21
0.899133
0
LINE
8
BLACK
6
CONTINUOUS
10
0.101112
20
0.899133
11
0.101638
21
0.899842
0
LINE
8
BLACK
6
CONTINUOUS
10
0.101638
20
0.899842
11
0.101665
21
0.8999
0
LINE
8
BLACK
6
CONTINUOUS
10
0.101665
20
0.8999
11
0.10354
21
0.901775
0
LINE
8
BLACK
6
CONTINUOUS
10
0.10354
20
0.901775
11
0.104263
21
0.902281
0
LINE
8
BLACK
6
CONTINUOUS
10
0.104263
20
0.902281
11
0.104308
21
0.902328
0
LINE
8
BLACK
6
CONTINUOUS
10
0.104308
20
0.902328
11
0.108057
21
0.904203
0
LINE
8
BLACK
6
CONTINUOUS
10
0.108057
20
0.904203
11
0.108621
21
0.90437
0
LINE
8
BLACK
6
CONTINUOUS
10
0.108621
20
0.90437
11
0.0996563
21
0.914615
0
LINE
8
BLACK
6
CONTINUOUS
10
0.0996563
20
0.914615
11
0.0994264
21
0.914995
0
LINE
8
BLACK
6
CONTINUOUS
10
0.0994264
20
0.914995
11
0.0993213
21
0.915083
0
LINE
8
BLACK
6
CONTINUOUS
10
0.0993213
20
0.915083
11
0.0993001
21
0.915204
0
LINE
8
BLACK
6
CONTINUOUS
10
0.0993001
20
0.915204
11
0.0991253
21
0.915493
0
LINE
8
BLACK
6
CONTINUOUS
10
0.0991253
20
0.915493
11
0.0991088
21
0.916289
0
LINE
8
BLACK
6
CONTINUOUS
10
0.0991088
20
0.916289
11
0.0989706
21
0.917073
0
LINE
8
BLACK
6
CONTINUOUS
10
0.0989706
20
0.917073
11
0.0990884
21
0.917277
0
LINE
8
BLACK
6
CONTINUOUS
10
0.0990884
20
0.917277
11
0.0990835
21
0.917512
0
LINE
8
BLACK
6
CONTINUOUS
10
0.0990835
20
0.917512
11
0.0995825
21
0.918132
0
LINE
8
BLACK
6
CONTINUOUS
10
0.0995825
20
0.918132
11
0.0999805
21
0.918822
0
LINE
8
BLACK
6
CONTINUOUS
10
0.0999805
20
0.918822
11
0.100202
21
0.918902
0
LINE
8
BLACK
6
CONTINUOUS
10
0.100202
20
0.918902
11
0.10035
21
0.919086
0
LINE
8
BLACK
6
CONTINUOUS
10
0.10035
20
0.919086
11
0.10113
21
0.91924
0
LINE
8
BLACK
6
CONTINUOUS
10
0.10113
20
0.91924
11
0.101879
21
0.919513
0
LINE
8
BLACK
6
CONTINUOUS
10
0.101879
20
0.919513
11
0.12625
21
0.919513
0
LINE
8
BLACK
6
CONTINUOUS
10
0.12625
20
0.919513
11
0.12726
21
0.919335
0
LINE
8
BLACK
6
CONTINUOUS
10
0.15663
20
0.919445
11
0.156759
21
0.919468
0
LINE
8
BLACK
6
CONTINUOUS
10
0.156759
20
0.919468
11
0.156873
21
0.919402
0
LINE
8
BLACK
6
CONTINUOUS
10
0.156873
20
0.919402
11
0.157257
21
0.919335
0
LINE
8
BLACK
6
CONTINUOUS
10
0.157257
20
0.919335
11
0.157844
21
0.918841
0
LINE
8
BLACK
6
CONTINUOUS
10
0.157844
20
0.918841
11
0.158509
21
0.918458
0
LINE
8
BLACK
6
CONTINUOUS
10
0.158509
20
0.918458
11
0.1586
21
0.918207
0
LINE
8
BLACK
6
CONTINUOUS
10
0.1586
20
0.918207
11
0.158804
21
0.918036
0
LINE
8
BLACK
6
CONTINUOUS
10
0.158804
20
0.918036
11
0.158937
21
0.917281
0
LINE
8
BLACK
6
CONTINUOUS
10
0.158937
20
0.917281
11
0.159199
21
0.91656
0
LINE
8
BLACK
6
CONTINUOUS
10
0.159199
20
0.91656
11
0.159199
21
0.87719
0
LINE
8
BLACK
6
CONTINUOUS
10
0.159199
20
0.87719
11
0.159021
21
0.87618
0
LINE
8
BLACK
6
CONTINUOUS
10
0.159021
20
0.87618
11
0.157723
21
0.874633
0
LINE
8
BLACK
6
CONTINUOUS
10
0.157723
20
0.874633
11
0.155734
21
0.874282
0
LINE
8
BLACK
6
CONTINUOUS
10
0.155734
20
0.874282
11
0.153985
21
0.875292
0
LINE
8
BLACK
6
CONTINUOUS
10
0.153985
20
0.875292
11
0.153294
21
0.87719
0
LINE
8
BLACK
6
CONTINUOUS
10
0.153294
20
0.87719
11
0.153294
21
0.894859
0
LINE
8
BLACK
6
CONTINUOUS
10
0.153294
20
0.894859
11
0.143123
21
0.894859
0
LINE
8
BLACK
6
CONTINUOUS
10
0.143123
20
0.894859
11
0.142113
21
0.895037
0
LINE
8
BLACK
6
CONTINUOUS
10
0.142113
20
0.895037
11
0.140566
21
0.896336
0
LINE
8
BLACK
6
CONTINUOUS
10
0.140566
20
0.896336
11
0.140215
21
0.898325
0
LINE
8
BLACK
6
CONTINUOUS
10
0.140215
20
0.898325
11
0.141225
21
0.900074
0
LINE
8
BLACK
6
CONTINUOUS
10
0.141225
20
0.900074
11
0.143123
21
0.900765
0
LINE
8
BLACK
6
CONTINUOUS
10
0.143123
20
0.900765
11
0.153294
21
0.900765
0
LINE
8
BLACK
6
CONTINUOUS
10
0.153294
20
0.900765
11
0.153294
21
0.913607
0
LINE
8
BLACK
6
CONTINUOUS
10
0.153294
20
0.913607
11
0.137499
21
0.913607
0
LINE
8
BLACK
6
CONTINUOUS
10
0.137499
20
0.913607
11
0.136489
21
0.913785
0
LINE
8
BLACK
6
CONTINUOUS
10
0.136489
20
0.913785
11
0.134942
21
0.915083
0
LINE
8
BLACK
6
CONTINUOUS
10
0.134942
20
0.915083
11
0.134591
21
0.917073
0
LINE
8
BLACK
6
CONTINUOUS
10
0.134591
20
0.917073
11
0.135601
21
0.918822
0
LINE
8
BLACK
6
CONTINUOUS
10
0.135601
20
0.918822
11
0.137499
21
0.919513
0
LINE
8
BLACK
6
CONTINUOUS
10
0.137499
20
0.919513
11
0.156247
21
0.919513
0
LINE
8
BLACK
6
CONTINUOUS
10
0.156247
20
0.919513
11
0.15663
21
0.919445
0
LINE
8
BLACK
6
CONTINUOUS
10
3.46196
20
0.914623
11
3.46265
21
0.912953
0
LINE
8
BLACK
6
CONTINUOUS
10
3.46265
20
0.912953
11
3.46196
21
0.911282
0
LINE
8
BLACK
6
CONTINUOUS
10
3.46196
20
0.911282
11
3.46029
21
0.910591
0
LINE
8
BLACK
6
CONTINUOUS
10
3.46029
20
0.910591
11
3.43971
21
0.910591
0
LINE
8
BLACK
6
CONTINUOUS
10
3.43971
20
0.910591
11
3.43804
21
0.911282
0
LINE
8
BLACK
6
CONTINUOUS
10
3.43804
20
0.911282
11
3.43735
21
0.912953
0
LINE
8
BLACK
6
CONTINUOUS
10
3.43735
20
0.912953
11
3.43804
21
0.914623
0
LINE
8
BLACK
6
CONTINUOUS
10
3.43804
20
0.914623
11
3.43971
21
0.915315
0
LINE
8
BLACK
6
CONTINUOUS
10
3.43971
20
0.915315
11
3.46029
21
0.915315
0
LINE
8
BLACK
6
CONTINUOUS
10
3.46029
20
0.915315
11
3.46196
21
0.914623
0
LINE
8
BLACK
6
CONTINUOUS
10
3.47663
20
0.974406
11
3.47676
21
0.974428
0
LINE
8
BLACK
6
CONTINUOUS
10
3.47676
20
0.974428
11
3.47687
21
0.974363
0
LINE
8
BLACK
6
CONTINUOUS
10
3.47687
20
0.974363
11
3.47726
21
0.974295
0
LINE
8
BLACK
6
CONTINUOUS
10
3.47726
20
0.974295
11
3.47784
21
0.973802
0
LINE
8
BLACK
6
CONTINUOUS
10
3.47784
20
0.973802
11
3.47851
21
0.973418
0
LINE
8
BLACK
6
CONTINUOUS
10
3.47851
20
0.973418
11
3.4786
21
0.973168
0
LINE
8
BLACK
6
CONTINUOUS
10
3.4786
20
0.973168
11
3.4788
21
0.972997
0
LINE
8
BLACK
6
CONTINUOUS
10
3.4788
20
0.972997
11
3.47894
21
0.972241
0
LINE
8
BLACK
6
CONTINUOUS
10
3.47894
20
0.972241
11
3.4792
21
0.97152
0
LINE
8
BLACK
6
CONTINUOUS
10
3.4792
20
0.97152
11
3.4792
21
0.93215
0
LINE
8
BLACK
6
CONTINUOUS
10
3.4792
20
0.93215
11
3.47902
21
0.93114
0
LINE
8
BLACK
6
CONTINUOUS
10
3.47902
20
0.93114
11
3.47772
21
0.929593
0
LINE
8
BLACK
6
CONTINUOUS
10
3.47772
20
0.929593
11
3.47573
21
0.929242
0
LINE
8
BLACK
6
CONTINUOUS
10
3.47573
20
0.929242
11
3.47398
21
0.930252
0
LINE
8
BLACK
6
CONTINUOUS
10
3.47398
20
0.930252
11
3.47329
21
0.93215
0
LINE
8
BLACK
6
CONTINUOUS
10
3.47329
20
0.93215
11
3.47329
21
0.94982
0
LINE
8
BLACK
6
CONTINUOUS
10
3.47329
20
0.94982
11
3.46312
21
0.94982
0
LINE
8
BLACK
6
CONTINUOUS
10
3.46312
20
0.94982
11
3.46211
21
0.949998
0
LINE
8
BLACK
6
CONTINUOUS
10
3.46211
20
0.949998
11
3.46057
21
0.951296
0
LINE
8
BLACK
6
CONTINUOUS
10
3.46057
20
0.951296
11
3.46022
21
0.953286
0
LINE
8
BLACK
6
CONTINUOUS
10
3.46022
20
0.953286
11
3.46123
21
0.955035
0
LINE
8
BLACK
6
CONTINUOUS
10
3.46123
20
0.955035
11
3.46312
21
0.955726
0
LINE
8
BLACK
6
CONTINUOUS
10
3.46312
20
0.955726
11
3.47329
21
0.955726
0
LINE
8
BLACK
6
CONTINUOUS
10
3.47329
20
0.955726
11
3.47329
21
0.968568
0
LINE
8
BLACK
6
CONTINUOUS
10
3.47329
20
0.968568
11
3.4575
21
0.968568
0
LINE
8
BLACK
6
CONTINUOUS
10
3.4575
20
0.968568
11
3.45649
21
0.968746
0
LINE
8
BLACK
6
CONTINUOUS
10
3.45649
20
0.968746
11
3.45494
21
0.970044
0
LINE
8
BLACK
6
CONTINUOUS
10
3.45494
20
0.970044
11
3.45459
21
0.972033
0
LINE
8
BLACK
6
CONTINUOUS
10
3.45459
20
0.972033
11
3.4556
21
0.973782
0
LINE
8
BLACK
6
CONTINUOUS
10
3.4556
20
0.973782
11
3.4575
21
0.974473
0
LINE
8
BLACK
6
CONTINUOUS
10
3.4575
20
0.974473
11
3.47625
21
0.974473
0
LINE
8
BLACK
6
CONTINUOUS
10
3.47625
20
0.974473
11
3.47663
21
0.974406
0
LINE
8
BLACK
6
CONTINUOUS
10
3.43655
20
0.975911
11
3.4378
21
0.974329
0
LINE
8
BLACK
6
CONTINUOUS
10
3.4378
20
0.974329
11
3.44718
21
0.946207
0
LINE
8
BLACK
6
CONTINUOUS
10
3.44718
20
0.946207
11
3.44733
21
0.945193
0
LINE
8
BLACK
6
CONTINUOUS
10
3.44733
20
0.945193
11
3.44724
21
0.944983
0
LINE
8
BLACK
6
CONTINUOUS
10
3.44724
20
0.944983
11
3.44728
21
0.944761
0
LINE
8
BLACK
6
CONTINUOUS
10
3.44728
20
0.944761
11
3.44688
21
0.944063
0
LINE
8
BLACK
6
CONTINUOUS
10
3.44688
20
0.944063
11
3.44658
21
0.943315
0
LINE
8
BLACK
6
CONTINUOUS
10
3.44658
20
0.943315
11
3.44639
21
0.943207
0
LINE
8
BLACK
6
CONTINUOUS
10
3.44639
20
0.943207
11
3.44627
21
0.943012
0
LINE
8
BLACK
6
CONTINUOUS
10
3.44627
20
0.943012
11
3.44552
21
0.942736
0
LINE
8
BLACK
6
CONTINUOUS
10
3.44552
20
0.942736
11
3.44481
21
0.942353
0
LINE
8
BLACK
6
CONTINUOUS
10
3.44481
20
0.942353
11
3.44459
21
0.942398
0
LINE
8
BLACK
6
CONTINUOUS
10
3.44459
20
0.942398
11
3.44438
21
0.942321
0
LINE
8
BLACK
6
CONTINUOUS
10
3.44438
20
0.942321
11
3.42858
21
0.942321
0
LINE
8
BLACK
6
CONTINUOUS
10
3.42858
20
0.942321
11
3.42858
21
0.93215
0
LINE
8
BLACK
6
CONTINUOUS
10
3.42858
20
0.93215
11
3.4284
21
0.93114
0
LINE
8
BLACK
6
CONTINUOUS
10
3.4284
20
0.93114
11
3.4271
21
0.929593
0
LINE
8
BLACK
6
CONTINUOUS
10
3.4271
20
0.929593
11
3.42512
21
0.929242
0
LINE
8
BLACK
6
CONTINUOUS
10
3.42512
20
0.929242
11
3.42337
21
0.930252
0
LINE
8
BLACK
6
CONTINUOUS
10
3.42337
20
0.930252
11
3.42268
21
0.93215
0
LINE
8
BLACK
6
CONTINUOUS
10
3.42268
20
0.93215
11
3.42268
21
0.942321
0
LINE
8
BLACK
6
CONTINUOUS
10
3.42268
20
0.942321
11
3.42
21
0.942321
0
LINE
8
BLACK
6
CONTINUOUS
10
3.42
20
0.942321
11
3.41899
21
0.942499
0
LINE
8
BLACK
6
CONTINUOUS
10
3.41899
20
0.942499
11
3.41745
21
0.943797
0
LINE
8
BLACK
6
CONTINUOUS
10
3.41745
20
0.943797
11
3.4171
21
0.945786
0
LINE
8
BLACK
6
CONTINUOUS
10
3.4171
20
0.945786
11
3.41811
21
0.947536
0
LINE
8
BLACK
6
CONTINUOUS
10
3.41811
20
0.947536
11
3.42
21
0.948226
0
LINE
8
BLACK
6
CONTINUOUS
10
3.42
20
0.948226
11
3.42268
21
0.948226
0
LINE
8
BLACK
6
CONTINUOUS
10
3.42268
20
0.948226
11
3.42268
21
0.958397
0
LINE
8
BLACK
6
CONTINUOUS
10
3.42268
20
0.958397
11
3.42285
21
0.959407
0
LINE
8
BLACK
6
CONTINUOUS
10
3.42285
20
0.959407
11
3.42415
21
0.960954
0
LINE
8
BLACK
6
CONTINUOUS
10
3.42415
20
0.960954
11
3.42614
21
0.961305
0
LINE
8
BLACK
6
CONTINUOUS
10
3.42614
20
0.961305
11
3.42789
21
0.960295
0
LINE
8
BLACK
6
CONTINUOUS
10
3.42789
20
0.960295
11
3.42858
21
0.958397
0
LINE
8
BLACK
6
CONTINUOUS
10
3.42858
20
0.958397
11
3.42858
21
0.948226
0
LINE
8
BLACK
6
CONTINUOUS
10
3.42858
20
0.948226
11
3.44028
21
0.948226
0
LINE
8
BLACK
6
CONTINUOUS
10
3.44028
20
0.948226
11
3.4322
21
0.972461
0
LINE
8
BLACK
6
CONTINUOUS
10
3.4322
20
0.972461
11
3.43205
21
0.973476
0
LINE
8
BLACK
6
CONTINUOUS
10
3.43205
20
0.973476
11
3.43279
21
0.975354
0
LINE
8
BLACK
6
CONTINUOUS
10
3.43279
20
0.975354
11
3.43457
21
0.976316
0
LINE
8
BLACK
6
CONTINUOUS
10
3.43457
20
0.976316
11
3.43655
21
0.975911
  0
ENDSEC
  0
EOF
