  0
SECTION
  2
HEADER
  9
$ANGBASE
  50
0.0
  9
$ANGDIR
  70
1
  9
$MEASUREMENT
  70
0
  0
ENDSEC
  0
SECTION
  2
TABLES
  0
TABLE
  2
LTYPE
  70
4
  0
LTYPE
  5
40F
  2
CONTINUOUS
  70
0
  3
Solid line
  72
65
  73
0
  40
0.0
  0
LTYPE
  5
410
  2
DASHDOT
 70
0
  3
Dash Dot ____ _ ____ _
 72
65
 73
4
 40
2.0
 49
1.25
 49
-0.25
 49
0.25
 49
-0.25
  0
LTYPE
  5
411
  2
DASHED
 70
0
  3
Dashed __ __ __ __ __
 72
65
 73
2
 40
0.75
 49
0.5
 49
-0.25
  0
LTYPE
  5
43B
  2
DOTTED
 70
0
  3
Dotted .  .  .  .
 72
65
 73
2
 40
0.2
 49
0.0
 49
-0.2
  0
ENDTAB
  0
TABLE
  2
STYLE
  70
4
  0
STYLE
  2
KICAD
  70
0
  40
0
  41
1
  42
1
  50
0
  71
0
  3
isocp.shx
  0
STYLE
  2
KICADB
  70
0
  40
0
  41
1
  42
1
  50
0
  71
0
  3
isocp.shx
  0
STYLE
  2
KICADI
  70
0
  40
0
  41
1
  42
1
  50
15
  71
0
  3
isocp.shx
  0
STYLE
  2
KICADBI
  70
0
  40
0
  41
1
  42
1
  50
15
  71
0
  3
isocp.shx
  0
ENDTAB
  0
TABLE
  2
LAYER
  70
1
  0
LAYER
  2
BLACK
  70
0
  62
7
  6
CONTINUOUS
  0
ENDTAB
  0
ENDSEC
  0
SECTION
  2
ENTITIES
0
LINE
8
BLACK
6
CONTINUOUS
10
3.39435
20
0.127261
11
3.39504
21
0.125591
0
LINE
8
BLACK
6
CONTINUOUS
10
3.39504
20
0.125591
11
3.39504
21
0.0570866
0
LINE
8
BLACK
6
CONTINUOUS
10
3.39504
20
0.0570866
11
3.44976
21
0.0570866
0
LINE
8
BLACK
6
CONTINUOUS
10
3.44976
20
0.0570866
11
3.45143
21
0.0563947
0
LINE
8
BLACK
6
CONTINUOUS
10
3.45143
20
0.0563947
11
3.45213
21
0.0547244
0
LINE
8
BLACK
6
CONTINUOUS
10
3.45213
20
0.0547244
11
3.45143
21
0.0530541
0
LINE
8
BLACK
6
CONTINUOUS
10
3.45143
20
0.0530541
11
3.44976
21
0.0523622
0
LINE
8
BLACK
6
CONTINUOUS
10
3.44976
20
0.0523622
11
3.39268
21
0.0523622
0
LINE
8
BLACK
6
CONTINUOUS
10
3.39268
20
0.0523622
11
3.39101
21
0.0530541
0
LINE
8
BLACK
6
CONTINUOUS
10
3.39101
20
0.0530541
11
3.39031
21
0.0547244
0
LINE
8
BLACK
6
CONTINUOUS
10
3.39031
20
0.0547244
11
3.39031
21
0.125591
0
LINE
8
BLACK
6
CONTINUOUS
10
3.39031
20
0.125591
11
3.39101
21
0.127261
0
LINE
8
BLACK
6
CONTINUOUS
10
3.39101
20
0.127261
11
3.39268
21
0.127953
0
LINE
8
BLACK
6
CONTINUOUS
10
3.39268
20
0.127953
11
3.39435
21
0.127261
0
LINE
8
BLACK
6
CONTINUOUS
10
0.148566
20
0.0530541
11
0.147874
21
0.0547244
0
LINE
8
BLACK
6
CONTINUOUS
10
0.147874
20
0.0547244
11
0.148566
21
0.0563947
0
LINE
8
BLACK
6
CONTINUOUS
10
0.148566
20
0.0563947
11
0.150236
21
0.0570866
0
LINE
8
BLACK
6
CONTINUOUS
10
0.150236
20
0.0570866
11
0.204961
21
0.0570866
0
LINE
8
BLACK
6
CONTINUOUS
10
0.204961
20
0.0570866
11
0.204961
21
0.125591
0
LINE
8
BLACK
6
CONTINUOUS
10
0.204961
20
0.125591
11
0.205653
21
0.127261
0
LINE
8
BLACK
6
CONTINUOUS
10
0.205653
20
0.127261
11
0.207323
21
0.127953
0
LINE
8
BLACK
6
CONTINUOUS
10
0.207323
20
0.127953
11
0.246299
21
0.127953
0
LINE
8
BLACK
6
CONTINUOUS
10
0.246299
20
0.127953
11
0.24797
21
0.127261
0
LINE
8
BLACK
6
CONTINUOUS
10
0.24797
20
0.127261
11
0.248661
21
0.125591
0
LINE
8
BLACK
6
CONTINUOUS
10
0.248661
20
0.125591
11
0.24797
21
0.12392
0
LINE
8
BLACK
6
CONTINUOUS
10
0.24797
20
0.12392
11
0.246299
21
0.123228
0
LINE
8
BLACK
6
CONTINUOUS
10
0.246299
20
0.123228
11
0.209685
21
0.123228
0
LINE
8
BLACK
6
CONTINUOUS
10
0.209685
20
0.123228
11
0.209685
21
0.0547244
0
LINE
8
BLACK
6
CONTINUOUS
10
0.209685
20
0.0547244
11
0.208993
21
0.0530541
0
LINE
8
BLACK
6
CONTINUOUS
10
0.208993
20
0.0530541
11
0.207323
21
0.0523622
0
LINE
8
BLACK
6
CONTINUOUS
10
0.207323
20
0.0523622
11
0.150236
21
0.0523622
0
LINE
8
BLACK
6
CONTINUOUS
10
0.150236
20
0.0523622
11
0.148566
21
0.0530541
0
LINE
8
BLACK
6
CONTINUOUS
10
0.0408829
20
0.290647
11
0.0415748
21
0.288976
0
LINE
8
BLACK
6
CONTINUOUS
10
0.0415748
20
0.288976
11
0.0415748
21
0.104724
0
LINE
8
BLACK
6
CONTINUOUS
10
0.0415748
20
0.104724
11
0.0408829
21
0.103054
0
LINE
8
BLACK
6
CONTINUOUS
10
0.0408829
20
0.103054
11
0.0392126
21
0.102362
0
LINE
8
BLACK
6
CONTINUOUS
10
0.0392126
20
0.102362
11
0.0375423
21
0.103054
0
LINE
8
BLACK
6
CONTINUOUS
10
0.0375423
20
0.103054
11
0.0368504
21
0.104724
0
LINE
8
BLACK
6
CONTINUOUS
10
0.0368504
20
0.104724
11
0.0368504
21
0.288976
0
LINE
8
BLACK
6
CONTINUOUS
10
0.0368504
20
0.288976
11
0.0375423
21
0.290647
0
LINE
8
BLACK
6
CONTINUOUS
10
0.0375423
20
0.290647
11
0.0392126
21
0.291339
0
LINE
8
BLACK
6
CONTINUOUS
10
0.0392126
20
0.291339
11
0.0408829
21
0.290647
0
LINE
8
BLACK
6
CONTINUOUS
10
3.56246
20
0.290647
11
3.56315
21
0.288976
0
LINE
8
BLACK
6
CONTINUOUS
10
3.56315
20
0.288976
11
3.56315
21
0.104724
0
LINE
8
BLACK
6
CONTINUOUS
10
3.56315
20
0.104724
11
3.56246
21
0.103054
0
LINE
8
BLACK
6
CONTINUOUS
10
3.56246
20
0.103054
11
3.56079
21
0.102362
0
LINE
8
BLACK
6
CONTINUOUS
10
3.56079
20
0.102362
11
3.55912
21
0.103054
0
LINE
8
BLACK
6
CONTINUOUS
10
3.55912
20
0.103054
11
3.55843
21
0.104724
0
LINE
8
BLACK
6
CONTINUOUS
10
3.55843
20
0.104724
11
3.55843
21
0.288976
0
LINE
8
BLACK
6
CONTINUOUS
10
3.55843
20
0.288976
11
3.55912
21
0.290647
0
LINE
8
BLACK
6
CONTINUOUS
10
3.55912
20
0.290647
11
3.56079
21
0.291339
0
LINE
8
BLACK
6
CONTINUOUS
10
3.56079
20
0.291339
11
3.56246
21
0.290647
0
LINE
8
BLACK
6
CONTINUOUS
10
0.298521
20
0.19597
11
0.298743
21
0.196009
0
LINE
8
BLACK
6
CONTINUOUS
10
0.298743
20
0.196009
11
0.29944
21
0.195606
0
LINE
8
BLACK
6
CONTINUOUS
10
0.29944
20
0.195606
11
0.300189
21
0.19531
0
LINE
8
BLACK
6
CONTINUOUS
10
0.300189
20
0.19531
11
0.300297
21
0.195112
0
LINE
8
BLACK
6
CONTINUOUS
10
0.300297
20
0.195112
11
0.300492
21
0.194999
0
LINE
8
BLACK
6
CONTINUOUS
10
0.300492
20
0.194999
11
0.300768
21
0.194242
0
LINE
8
BLACK
6
CONTINUOUS
10
0.300768
20
0.194242
11
0.301151
21
0.193534
0
LINE
8
BLACK
6
CONTINUOUS
10
0.301151
20
0.193534
11
0.301106
21
0.193313
0
LINE
8
BLACK
6
CONTINUOUS
10
0.301106
20
0.193313
11
0.301183
21
0.193101
0
LINE
8
BLACK
6
CONTINUOUS
10
0.301183
20
0.193101
11
0.301183
21
0.177306
0
LINE
8
BLACK
6
CONTINUOUS
10
0.301183
20
0.177306
11
0.311354
21
0.177306
0
LINE
8
BLACK
6
CONTINUOUS
10
0.311354
20
0.177306
11
0.312363
21
0.177128
0
LINE
8
BLACK
6
CONTINUOUS
10
0.312363
20
0.177128
11
0.313911
21
0.17583
0
LINE
8
BLACK
6
CONTINUOUS
10
0.313911
20
0.17583
11
0.314261
21
0.17384
0
LINE
8
BLACK
6
CONTINUOUS
10
0.314261
20
0.17384
11
0.313252
21
0.172091
0
LINE
8
BLACK
6
CONTINUOUS
10
0.313252
20
0.172091
11
0.311354
21
0.1714
0
LINE
8
BLACK
6
CONTINUOUS
10
0.311354
20
0.1714
11
0.301183
21
0.1714
0
LINE
8
BLACK
6
CONTINUOUS
10
0.301183
20
0.1714
11
0.301183
21
0.168729
0
LINE
8
BLACK
6
CONTINUOUS
10
0.301183
20
0.168729
11
0.301005
21
0.167719
0
LINE
8
BLACK
6
CONTINUOUS
10
0.301005
20
0.167719
11
0.299707
21
0.166172
0
LINE
8
BLACK
6
CONTINUOUS
10
0.299707
20
0.166172
11
0.297717
21
0.165821
0
LINE
8
BLACK
6
CONTINUOUS
10
0.297717
20
0.165821
11
0.295968
21
0.166831
0
LINE
8
BLACK
6
CONTINUOUS
10
0.295968
20
0.166831
11
0.295277
21
0.168729
0
LINE
8
BLACK
6
CONTINUOUS
10
0.295277
20
0.168729
11
0.295277
21
0.1714
0
LINE
8
BLACK
6
CONTINUOUS
10
0.295277
20
0.1714
11
0.285107
21
0.1714
0
LINE
8
BLACK
6
CONTINUOUS
10
0.285107
20
0.1714
11
0.284097
21
0.171579
0
LINE
8
BLACK
6
CONTINUOUS
10
0.284097
20
0.171579
11
0.28255
21
0.172877
0
LINE
8
BLACK
6
CONTINUOUS
10
0.28255
20
0.172877
11
0.282199
21
0.174866
0
LINE
8
BLACK
6
CONTINUOUS
10
0.282199
20
0.174866
11
0.283209
21
0.176615
0
LINE
8
BLACK
6
CONTINUOUS
10
0.283209
20
0.176615
11
0.285107
21
0.177306
0
LINE
8
BLACK
6
CONTINUOUS
10
0.285107
20
0.177306
11
0.295277
21
0.177306
0
LINE
8
BLACK
6
CONTINUOUS
10
0.295277
20
0.177306
11
0.295277
21
0.189004
0
LINE
8
BLACK
6
CONTINUOUS
10
0.295277
20
0.189004
11
0.271042
21
0.180926
0
LINE
8
BLACK
6
CONTINUOUS
10
0.271042
20
0.180926
11
0.270028
21
0.180775
0
LINE
8
BLACK
6
CONTINUOUS
10
0.270028
20
0.180775
11
0.26815
21
0.181518
0
LINE
8
BLACK
6
CONTINUOUS
10
0.26815
20
0.181518
11
0.267188
21
0.183294
0
LINE
8
BLACK
6
CONTINUOUS
10
0.267188
20
0.183294
11
0.267593
21
0.185273
0
LINE
8
BLACK
6
CONTINUOUS
10
0.267593
20
0.185273
11
0.269175
21
0.186528
0
LINE
8
BLACK
6
CONTINUOUS
10
0.269175
20
0.186528
11
0.297296
21
0.195902
0
LINE
8
BLACK
6
CONTINUOUS
10
0.297296
20
0.195902
11
0.298311
21
0.196053
0
LINE
8
BLACK
6
CONTINUOUS
10
0.298311
20
0.196053
11
0.298521
21
0.19597
0
LINE
8
BLACK
6
CONTINUOUS
10
3.32261
20
0.197064
11
3.32448
21
0.195189
0
LINE
8
BLACK
6
CONTINUOUS
10
3.32448
20
0.195189
11
3.32499
21
0.194466
0
LINE
8
BLACK
6
CONTINUOUS
10
3.32499
20
0.194466
11
3.32503
21
0.194421
0
LINE
8
BLACK
6
CONTINUOUS
10
3.32503
20
0.194421
11
3.32691
21
0.190672
0
LINE
8
BLACK
6
CONTINUOUS
10
3.32691
20
0.190672
11
3.3272
21
0.189689
0
LINE
8
BLACK
6
CONTINUOUS
10
3.3272
20
0.189689
11
3.32716
21
0.189517
0
LINE
8
BLACK
6
CONTINUOUS
10
3.32716
20
0.189517
11
3.32722
21
0.189351
0
LINE
8
BLACK
6
CONTINUOUS
10
3.32722
20
0.189351
11
3.32722
21
0.178103
0
LINE
8
BLACK
6
CONTINUOUS
10
3.32722
20
0.178103
11
3.32704
21
0.177093
0
LINE
8
BLACK
6
CONTINUOUS
10
3.32704
20
0.177093
11
3.32693
21
0.176958
0
LINE
8
BLACK
6
CONTINUOUS
10
3.32693
20
0.176958
11
3.32691
21
0.176782
0
LINE
8
BLACK
6
CONTINUOUS
10
3.32691
20
0.176782
11
3.32503
21
0.173033
0
LINE
8
BLACK
6
CONTINUOUS
10
3.32503
20
0.173033
11
3.32451
21
0.172324
0
LINE
8
BLACK
6
CONTINUOUS
10
3.32451
20
0.172324
11
3.32448
21
0.172265
0
LINE
8
BLACK
6
CONTINUOUS
10
3.32448
20
0.172265
11
3.32261
21
0.170391
0
LINE
8
BLACK
6
CONTINUOUS
10
3.32261
20
0.170391
11
3.32188
21
0.169884
0
LINE
8
BLACK
6
CONTINUOUS
10
3.32188
20
0.169884
11
3.32184
21
0.169837
0
LINE
8
BLACK
6
CONTINUOUS
10
3.32184
20
0.169837
11
3.31809
21
0.167963
0
LINE
8
BLACK
6
CONTINUOUS
10
3.31809
20
0.167963
11
3.31711
21
0.16767
0
LINE
8
BLACK
6
CONTINUOUS
10
3.31711
20
0.16767
11
3.31693
21
0.167711
0
LINE
8
BLACK
6
CONTINUOUS
10
3.31693
20
0.167711
11
3.31677
21
0.167651
0
LINE
8
BLACK
6
CONTINUOUS
10
3.31677
20
0.167651
11
3.30739
21
0.167651
0
LINE
8
BLACK
6
CONTINUOUS
10
3.30739
20
0.167651
11
3.30638
21
0.167829
0
LINE
8
BLACK
6
CONTINUOUS
10
3.30638
20
0.167829
11
3.30625
21
0.167942
0
LINE
8
BLACK
6
CONTINUOUS
10
3.30625
20
0.167942
11
3.30607
21
0.167963
0
LINE
8
BLACK
6
CONTINUOUS
10
3.30607
20
0.167963
11
3.30232
21
0.169837
0
LINE
8
BLACK
6
CONTINUOUS
10
3.30232
20
0.169837
11
3.30161
21
0.170363
0
LINE
8
BLACK
6
CONTINUOUS
10
3.30161
20
0.170363
11
3.30156
21
0.170391
0
LINE
8
BLACK
6
CONTINUOUS
10
3.30156
20
0.170391
11
3.29968
21
0.172265
0
LINE
8
BLACK
6
CONTINUOUS
10
3.29968
20
0.172265
11
3.29918
21
0.172988
0
LINE
8
BLACK
6
CONTINUOUS
10
3.29918
20
0.172988
11
3.29913
21
0.173033
0
LINE
8
BLACK
6
CONTINUOUS
10
3.29913
20
0.173033
11
3.29725
21
0.176782
0
LINE
8
BLACK
6
CONTINUOUS
10
3.29725
20
0.176782
11
3.29709
21
0.177346
0
LINE
8
BLACK
6
CONTINUOUS
10
3.29709
20
0.177346
11
3.28684
21
0.168382
0
LINE
8
BLACK
6
CONTINUOUS
10
3.28684
20
0.168382
11
3.28646
21
0.168152
0
LINE
8
BLACK
6
CONTINUOUS
10
3.28646
20
0.168152
11
3.28637
21
0.168047
0
LINE
8
BLACK
6
CONTINUOUS
10
3.28637
20
0.168047
11
3.28625
21
0.168025
0
LINE
8
BLACK
6
CONTINUOUS
10
3.28625
20
0.168025
11
3.28596
21
0.167851
0
LINE
8
BLACK
6
CONTINUOUS
10
3.28596
20
0.167851
11
3.28517
21
0.167834
0
LINE
8
BLACK
6
CONTINUOUS
10
3.28517
20
0.167834
11
3.28438
21
0.167696
0
LINE
8
BLACK
6
CONTINUOUS
10
3.28438
20
0.167696
11
3.28418
21
0.167814
0
LINE
8
BLACK
6
CONTINUOUS
10
3.28418
20
0.167814
11
3.28394
21
0.167809
0
LINE
8
BLACK
6
CONTINUOUS
10
3.28394
20
0.167809
11
3.28332
21
0.168308
0
LINE
8
BLACK
6
CONTINUOUS
10
3.28332
20
0.168308
11
3.28263
21
0.168706
0
LINE
8
BLACK
6
CONTINUOUS
10
3.28263
20
0.168706
11
3.28255
21
0.168927
0
LINE
8
BLACK
6
CONTINUOUS
10
3.28255
20
0.168927
11
3.28237
21
0.169075
0
LINE
8
BLACK
6
CONTINUOUS
10
3.28237
20
0.169075
11
3.28222
21
0.169856
0
LINE
8
BLACK
6
CONTINUOUS
10
3.28222
20
0.169856
11
3.28194
21
0.170604
0
LINE
8
BLACK
6
CONTINUOUS
10
3.28194
20
0.170604
11
3.28194
21
0.194976
0
LINE
8
BLACK
6
CONTINUOUS
10
3.28194
20
0.194976
11
3.28212
21
0.195986
0
LINE
8
BLACK
6
CONTINUOUS
10
3.28212
20
0.195986
11
3.28342
21
0.197533
0
LINE
8
BLACK
6
CONTINUOUS
10
3.28342
20
0.197533
11
3.28541
21
0.197884
0
LINE
8
BLACK
6
CONTINUOUS
10
3.28541
20
0.197884
11
3.28716
21
0.196874
0
LINE
8
BLACK
6
CONTINUOUS
10
3.28716
20
0.196874
11
3.28785
21
0.194976
0
LINE
8
BLACK
6
CONTINUOUS
10
3.28785
20
0.194976
11
3.28785
21
0.177111
0
LINE
8
BLACK
6
CONTINUOUS
10
3.28785
20
0.177111
11
3.29795
21
0.185949
0
LINE
8
BLACK
6
CONTINUOUS
10
3.29795
20
0.185949
11
3.29833
21
0.186179
0
LINE
8
BLACK
6
CONTINUOUS
10
3.29833
20
0.186179
11
3.29842
21
0.186284
0
LINE
8
BLACK
6
CONTINUOUS
10
3.29842
20
0.186284
11
3.29854
21
0.186305
0
LINE
8
BLACK
6
CONTINUOUS
10
3.29854
20
0.186305
11
3.29883
21
0.18648
0
LINE
8
BLACK
6
CONTINUOUS
10
3.29883
20
0.18648
11
3.29962
21
0.186497
0
LINE
8
BLACK
6
CONTINUOUS
10
3.29962
20
0.186497
11
3.30041
21
0.186635
0
LINE
8
BLACK
6
CONTINUOUS
10
3.30041
20
0.186635
11
3.30061
21
0.186517
0
LINE
8
BLACK
6
CONTINUOUS
10
3.30061
20
0.186517
11
3.30085
21
0.186522
0
LINE
8
BLACK
6
CONTINUOUS
10
3.30085
20
0.186522
11
3.30147
21
0.186023
0
LINE
8
BLACK
6
CONTINUOUS
10
3.30147
20
0.186023
11
3.30216
21
0.185625
0
LINE
8
BLACK
6
CONTINUOUS
10
3.30216
20
0.185625
11
3.30224
21
0.185404
0
LINE
8
BLACK
6
CONTINUOUS
10
3.30224
20
0.185404
11
3.30242
21
0.185256
0
LINE
8
BLACK
6
CONTINUOUS
10
3.30242
20
0.185256
11
3.30258
21
0.184475
0
LINE
8
BLACK
6
CONTINUOUS
10
3.30258
20
0.184475
11
3.30285
21
0.183727
0
LINE
8
BLACK
6
CONTINUOUS
10
3.30285
20
0.183727
11
3.30285
21
0.1788
0
LINE
8
BLACK
6
CONTINUOUS
10
3.30285
20
0.1788
11
3.3042
21
0.176102
0
LINE
8
BLACK
6
CONTINUOUS
10
3.3042
20
0.176102
11
3.30539
21
0.174905
0
LINE
8
BLACK
6
CONTINUOUS
10
3.30539
20
0.174905
11
3.30809
21
0.173556
0
LINE
8
BLACK
6
CONTINUOUS
10
3.30809
20
0.173556
11
3.31607
21
0.173556
0
LINE
8
BLACK
6
CONTINUOUS
10
3.31607
20
0.173556
11
3.31877
21
0.174905
0
LINE
8
BLACK
6
CONTINUOUS
10
3.31877
20
0.174905
11
3.31997
21
0.176102
0
LINE
8
BLACK
6
CONTINUOUS
10
3.31997
20
0.176102
11
3.32131
21
0.1788
0
LINE
8
BLACK
6
CONTINUOUS
10
3.32131
20
0.1788
11
3.32131
21
0.188654
0
LINE
8
BLACK
6
CONTINUOUS
10
3.32131
20
0.188654
11
3.31997
21
0.191352
0
LINE
8
BLACK
6
CONTINUOUS
10
3.31997
20
0.191352
11
3.31843
21
0.192888
0
LINE
8
BLACK
6
CONTINUOUS
10
3.31843
20
0.192888
11
3.31784
21
0.193728
0
LINE
8
BLACK
6
CONTINUOUS
10
3.31784
20
0.193728
11
3.31767
21
0.19574
0
LINE
8
BLACK
6
CONTINUOUS
10
3.31767
20
0.19574
11
3.31882
21
0.197394
0
LINE
8
BLACK
6
CONTINUOUS
10
3.31882
20
0.197394
11
3.32077
21
0.197917
0
LINE
8
BLACK
6
CONTINUOUS
10
3.32077
20
0.197917
11
3.32261
21
0.197064
0
LINE
8
BLACK
6
CONTINUOUS
10
3.32653
20
0.22687
11
3.32722
21
0.224972
0
LINE
8
BLACK
6
CONTINUOUS
10
3.32722
20
0.224972
11
3.32722
21
0.221222
0
LINE
8
BLACK
6
CONTINUOUS
10
3.32722
20
0.221222
11
3.32707
21
0.220353
0
LINE
8
BLACK
6
CONTINUOUS
10
3.32707
20
0.220353
11
3.32707
21
0.220289
0
LINE
8
BLACK
6
CONTINUOUS
10
3.32707
20
0.220289
11
3.32519
21
0.214664
0
LINE
8
BLACK
6
CONTINUOUS
10
3.32519
20
0.214664
11
3.32471
21
0.213763
0
LINE
8
BLACK
6
CONTINUOUS
10
3.32471
20
0.213763
11
3.32455
21
0.21367
0
LINE
8
BLACK
6
CONTINUOUS
10
3.32455
20
0.21367
11
3.32448
21
0.21351
0
LINE
8
BLACK
6
CONTINUOUS
10
3.32448
20
0.21351
11
3.32073
21
0.209761
0
LINE
8
BLACK
6
CONTINUOUS
10
3.32073
20
0.209761
11
3.31989
21
0.209172
0
LINE
8
BLACK
6
CONTINUOUS
10
3.31989
20
0.209172
11
3.31971
21
0.209157
0
LINE
8
BLACK
6
CONTINUOUS
10
3.31971
20
0.209157
11
3.31958
21
0.209047
0
LINE
8
BLACK
6
CONTINUOUS
10
3.31958
20
0.209047
11
3.31395
21
0.207173
0
LINE
8
BLACK
6
CONTINUOUS
10
3.31395
20
0.207173
11
3.31308
21
0.207043
0
LINE
8
BLACK
6
CONTINUOUS
10
3.31308
20
0.207043
11
3.31302
21
0.207021
0
LINE
8
BLACK
6
CONTINUOUS
10
3.31302
20
0.207021
11
3.2849
21
0.207021
0
LINE
8
BLACK
6
CONTINUOUS
10
3.2849
20
0.207021
11
3.28389
21
0.207199
0
LINE
8
BLACK
6
CONTINUOUS
10
3.28389
20
0.207199
11
3.28234
21
0.208497
0
LINE
8
BLACK
6
CONTINUOUS
10
3.28234
20
0.208497
11
3.28199
21
0.210487
0
LINE
8
BLACK
6
CONTINUOUS
10
3.28199
20
0.210487
11
3.283
21
0.212236
0
LINE
8
BLACK
6
CONTINUOUS
10
3.283
20
0.212236
11
3.2849
21
0.212927
0
LINE
8
BLACK
6
CONTINUOUS
10
3.2849
20
0.212927
11
3.31254
21
0.212927
0
LINE
8
BLACK
6
CONTINUOUS
10
3.31254
20
0.212927
11
3.31705
21
0.214429
0
LINE
8
BLACK
6
CONTINUOUS
10
3.31705
20
0.214429
11
3.31981
21
0.217193
0
LINE
8
BLACK
6
CONTINUOUS
10
3.31981
20
0.217193
11
3.32131
21
0.221701
0
LINE
8
BLACK
6
CONTINUOUS
10
3.32131
20
0.221701
11
3.32131
21
0.224972
0
LINE
8
BLACK
6
CONTINUOUS
10
3.32131
20
0.224972
11
3.32149
21
0.225982
0
LINE
8
BLACK
6
CONTINUOUS
10
3.32149
20
0.225982
11
3.32279
21
0.227529
0
LINE
8
BLACK
6
CONTINUOUS
10
3.32279
20
0.227529
11
3.32478
21
0.22788
0
LINE
8
BLACK
6
CONTINUOUS
10
3.32478
20
0.22788
11
3.32653
21
0.22687
0
LINE
8
BLACK
6
CONTINUOUS
10
0.313615
20
0.22687
11
0.314306
21
0.224972
0
LINE
8
BLACK
6
CONTINUOUS
10
0.314306
20
0.224972
11
0.314306
21
0.221222
0
LINE
8
BLACK
6
CONTINUOUS
10
0.314306
20
0.221222
11
0.314153
21
0.220353
0
LINE
8
BLACK
6
CONTINUOUS
10
0.314153
20
0.220353
11
0.314155
21
0.220289
0
LINE
8
BLACK
6
CONTINUOUS
10
0.314155
20
0.220289
11
0.31228
21
0.214664
0
LINE
8
BLACK
6
CONTINUOUS
10
0.31228
20
0.214664
11
0.311792
21
0.213763
0
LINE
8
BLACK
6
CONTINUOUS
10
0.311792
20
0.213763
11
0.311641
21
0.21367
0
LINE
8
BLACK
6
CONTINUOUS
10
0.311641
20
0.21367
11
0.311567
21
0.21351
0
LINE
8
BLACK
6
CONTINUOUS
10
0.311567
20
0.21351
11
0.307817
21
0.209761
0
LINE
8
BLACK
6
CONTINUOUS
10
0.307817
20
0.209761
11
0.306977
21
0.209172
0
LINE
8
BLACK
6
CONTINUOUS
10
0.306977
20
0.209172
11
0.306801
21
0.209157
0
LINE
8
BLACK
6
CONTINUOUS
10
0.306801
20
0.209157
11
0.306663
21
0.209047
0
LINE
8
BLACK
6
CONTINUOUS
10
0.306663
20
0.209047
11
0.301039
21
0.207173
0
LINE
8
BLACK
6
CONTINUOUS
10
0.301039
20
0.207173
11
0.300166
21
0.207043
0
LINE
8
BLACK
6
CONTINUOUS
10
0.300166
20
0.207043
11
0.300105
21
0.207021
0
LINE
8
BLACK
6
CONTINUOUS
10
0.300105
20
0.207021
11
0.271983
21
0.207021
0
LINE
8
BLACK
6
CONTINUOUS
10
0.271983
20
0.207021
11
0.270974
21
0.207199
0
LINE
8
BLACK
6
CONTINUOUS
10
0.270974
20
0.207199
11
0.269426
21
0.208497
0
LINE
8
BLACK
6
CONTINUOUS
10
0.269426
20
0.208497
11
0.269076
21
0.210487
0
LINE
8
BLACK
6
CONTINUOUS
10
0.269076
20
0.210487
11
0.270085
21
0.212236
0
LINE
8
BLACK
6
CONTINUOUS
10
0.270085
20
0.212236
11
0.271983
21
0.212927
0
LINE
8
BLACK
6
CONTINUOUS
10
0.271983
20
0.212927
11
0.299626
21
0.212927
0
LINE
8
BLACK
6
CONTINUOUS
10
0.299626
20
0.212927
11
0.304134
21
0.214429
0
LINE
8
BLACK
6
CONTINUOUS
10
0.304134
20
0.214429
11
0.306898
21
0.217193
0
LINE
8
BLACK
6
CONTINUOUS
10
0.306898
20
0.217193
11
0.308401
21
0.221701
0
LINE
8
BLACK
6
CONTINUOUS
10
0.308401
20
0.221701
11
0.308401
21
0.224972
0
LINE
8
BLACK
6
CONTINUOUS
10
0.308401
20
0.224972
11
0.308579
21
0.225982
0
LINE
8
BLACK
6
CONTINUOUS
10
0.308579
20
0.225982
11
0.309877
21
0.227529
0
LINE
8
BLACK
6
CONTINUOUS
10
0.309877
20
0.227529
11
0.311866
21
0.22788
0
LINE
8
BLACK
6
CONTINUOUS
10
0.311866
20
0.22788
11
0.313615
21
0.22687
0
LINE
8
BLACK
6
CONTINUOUS
10
3.35203
20
0.26644
11
3.35134
21
0.26811
0
LINE
8
BLACK
6
CONTINUOUS
10
3.35134
20
0.26811
11
3.35203
21
0.269781
0
LINE
8
BLACK
6
CONTINUOUS
10
3.35203
20
0.269781
11
3.3537
21
0.270472
0
LINE
8
BLACK
6
CONTINUOUS
10
3.3537
20
0.270472
11
3.39031
21
0.270472
0
LINE
8
BLACK
6
CONTINUOUS
10
3.39031
20
0.270472
11
3.39031
21
0.338976
0
LINE
8
BLACK
6
CONTINUOUS
10
3.39031
20
0.338976
11
3.39101
21
0.340647
0
LINE
8
BLACK
6
CONTINUOUS
10
3.39101
20
0.340647
11
3.39268
21
0.341339
0
LINE
8
BLACK
6
CONTINUOUS
10
3.39268
20
0.341339
11
3.44976
21
0.341339
0
LINE
8
BLACK
6
CONTINUOUS
10
3.44976
20
0.341339
11
3.45143
21
0.340647
0
LINE
8
BLACK
6
CONTINUOUS
10
3.45143
20
0.340647
11
3.45213
21
0.338976
0
LINE
8
BLACK
6
CONTINUOUS
10
3.45213
20
0.338976
11
3.45143
21
0.337306
0
LINE
8
BLACK
6
CONTINUOUS
10
3.45143
20
0.337306
11
3.44976
21
0.336614
0
LINE
8
BLACK
6
CONTINUOUS
10
3.44976
20
0.336614
11
3.39504
21
0.336614
0
LINE
8
BLACK
6
CONTINUOUS
10
3.39504
20
0.336614
11
3.39504
21
0.26811
0
LINE
8
BLACK
6
CONTINUOUS
10
3.39504
20
0.26811
11
3.39435
21
0.26644
0
LINE
8
BLACK
6
CONTINUOUS
10
3.39435
20
0.26644
11
3.39268
21
0.265748
0
LINE
8
BLACK
6
CONTINUOUS
10
3.39268
20
0.265748
11
3.3537
21
0.265748
0
LINE
8
BLACK
6
CONTINUOUS
10
3.3537
20
0.265748
11
3.35203
21
0.26644
0
LINE
8
BLACK
6
CONTINUOUS
10
0.208993
20
0.340647
11
0.209685
21
0.338976
0
LINE
8
BLACK
6
CONTINUOUS
10
0.209685
20
0.338976
11
0.209685
21
0.26811
0
LINE
8
BLACK
6
CONTINUOUS
10
0.209685
20
0.26811
11
0.208993
21
0.26644
0
LINE
8
BLACK
6
CONTINUOUS
10
0.208993
20
0.26644
11
0.207323
21
0.265748
0
LINE
8
BLACK
6
CONTINUOUS
10
0.207323
20
0.265748
11
0.205653
21
0.26644
0
LINE
8
BLACK
6
CONTINUOUS
10
0.205653
20
0.26644
11
0.204961
21
0.26811
0
LINE
8
BLACK
6
CONTINUOUS
10
0.204961
20
0.26811
11
0.204961
21
0.336614
0
LINE
8
BLACK
6
CONTINUOUS
10
0.204961
20
0.336614
11
0.150236
21
0.336614
0
LINE
8
BLACK
6
CONTINUOUS
10
0.150236
20
0.336614
11
0.148566
21
0.337306
0
LINE
8
BLACK
6
CONTINUOUS
10
0.148566
20
0.337306
11
0.147874
21
0.338976
0
LINE
8
BLACK
6
CONTINUOUS
10
0.147874
20
0.338976
11
0.148566
21
0.340647
0
LINE
8
BLACK
6
CONTINUOUS
10
0.148566
20
0.340647
11
0.150236
21
0.341339
0
LINE
8
BLACK
6
CONTINUOUS
10
0.150236
20
0.341339
11
0.207323
21
0.341339
0
LINE
8
BLACK
6
CONTINUOUS
10
0.207323
20
0.341339
11
0.208993
21
0.340647
0
LINE
8
BLACK
6
CONTINUOUS
10
0.0783691
20
0.388527
11
0.0776772
21
0.390197
0
LINE
8
BLACK
6
CONTINUOUS
10
0.0776772
20
0.390197
11
0.0776772
21
0.66185
0
LINE
8
BLACK
6
CONTINUOUS
10
0.0776772
20
0.66185
11
0.0783691
21
0.663521
0
LINE
8
BLACK
6
CONTINUOUS
10
0.0783691
20
0.663521
11
0.0800394
21
0.664213
0
LINE
8
BLACK
6
CONTINUOUS
10
0.0800394
20
0.664213
11
0.0817097
21
0.663521
0
LINE
8
BLACK
6
CONTINUOUS
10
0.0817097
20
0.663521
11
0.0824016
21
0.66185
0
LINE
8
BLACK
6
CONTINUOUS
10
0.0824016
20
0.66185
11
0.0824016
21
0.392559
0
LINE
8
BLACK
6
CONTINUOUS
10
0.0824016
20
0.392559
11
0.207598
21
0.392559
0
LINE
8
BLACK
6
CONTINUOUS
10
0.207598
20
0.392559
11
0.207598
21
0.66185
0
LINE
8
BLACK
6
CONTINUOUS
10
0.207598
20
0.66185
11
0.20829
21
0.663521
0
LINE
8
BLACK
6
CONTINUOUS
10
0.20829
20
0.663521
11
0.209961
21
0.664213
0
LINE
8
BLACK
6
CONTINUOUS
10
0.209961
20
0.664213
11
0.211631
21
0.663521
0
LINE
8
BLACK
6
CONTINUOUS
10
0.211631
20
0.663521
11
0.212323
21
0.66185
0
LINE
8
BLACK
6
CONTINUOUS
10
0.212323
20
0.66185
11
0.212323
21
0.390197
0
LINE
8
BLACK
6
CONTINUOUS
10
0.212323
20
0.390197
11
0.211631
21
0.388527
0
LINE
8
BLACK
6
CONTINUOUS
10
0.211631
20
0.388527
11
0.209961
21
0.387835
0
LINE
8
BLACK
6
CONTINUOUS
10
0.209961
20
0.387835
11
0.0800394
21
0.387835
0
LINE
8
BLACK
6
CONTINUOUS
10
0.0800394
20
0.387835
11
0.0783691
21
0.388527
0
LINE
8
BLACK
6
CONTINUOUS
10
3.36837
20
0.395101
11
3.36768
21
0.396772
0
LINE
8
BLACK
6
CONTINUOUS
10
3.36768
20
0.396772
11
3.36768
21
0.668425
0
LINE
8
BLACK
6
CONTINUOUS
10
3.36768
20
0.668425
11
3.36837
21
0.670096
0
LINE
8
BLACK
6
CONTINUOUS
10
3.36837
20
0.670096
11
3.37004
21
0.670787
0
LINE
8
BLACK
6
CONTINUOUS
10
3.37004
20
0.670787
11
3.37171
21
0.670096
0
LINE
8
BLACK
6
CONTINUOUS
10
3.37171
20
0.670096
11
3.3724
21
0.668425
0
LINE
8
BLACK
6
CONTINUOUS
10
3.3724
20
0.668425
11
3.3724
21
0.399134
0
LINE
8
BLACK
6
CONTINUOUS
10
3.3724
20
0.399134
11
3.4976
21
0.399134
0
LINE
8
BLACK
6
CONTINUOUS
10
3.4976
20
0.399134
11
3.4976
21
0.668425
0
LINE
8
BLACK
6
CONTINUOUS
10
3.4976
20
0.668425
11
3.49829
21
0.670096
0
LINE
8
BLACK
6
CONTINUOUS
10
3.49829
20
0.670096
11
3.49996
21
0.670787
0
LINE
8
BLACK
6
CONTINUOUS
10
3.49996
20
0.670787
11
3.50163
21
0.670096
0
LINE
8
BLACK
6
CONTINUOUS
10
3.50163
20
0.670096
11
3.50232
21
0.668425
0
LINE
8
BLACK
6
CONTINUOUS
10
3.50232
20
0.668425
11
3.50232
21
0.396772
0
LINE
8
BLACK
6
CONTINUOUS
10
3.50232
20
0.396772
11
3.50163
21
0.395101
0
LINE
8
BLACK
6
CONTINUOUS
10
3.50163
20
0.395101
11
3.49996
21
0.394409
0
LINE
8
BLACK
6
CONTINUOUS
10
3.49996
20
0.394409
11
3.37004
21
0.394409
0
LINE
8
BLACK
6
CONTINUOUS
10
3.37004
20
0.394409
11
3.36837
21
0.395101
0
LINE
8
BLACK
6
CONTINUOUS
10
0.248403
20
0.557857
11
0.248625
21
0.557897
0
LINE
8
BLACK
6
CONTINUOUS
10
0.248625
20
0.557897
11
0.249322
21
0.557494
0
LINE
8
BLACK
6
CONTINUOUS
10
0.249322
20
0.557494
11
0.250071
21
0.557198
0
LINE
8
BLACK
6
CONTINUOUS
10
0.250071
20
0.557198
11
0.250179
21
0.557
0
LINE
8
BLACK
6
CONTINUOUS
10
0.250179
20
0.557
11
0.250374
21
0.556887
0
LINE
8
BLACK
6
CONTINUOUS
10
0.250374
20
0.556887
11
0.250649
21
0.55613
0
LINE
8
BLACK
6
CONTINUOUS
10
0.250649
20
0.55613
11
0.251033
21
0.555422
0
LINE
8
BLACK
6
CONTINUOUS
10
0.251033
20
0.555422
11
0.250988
21
0.555201
0
LINE
8
BLACK
6
CONTINUOUS
10
0.250988
20
0.555201
11
0.251065
21
0.554989
0
LINE
8
BLACK
6
CONTINUOUS
10
0.251065
20
0.554989
11
0.251065
21
0.539194
0
LINE
8
BLACK
6
CONTINUOUS
10
0.251065
20
0.539194
11
0.261235
21
0.539194
0
LINE
8
BLACK
6
CONTINUOUS
10
0.261235
20
0.539194
11
0.262245
21
0.539016
0
LINE
8
BLACK
6
CONTINUOUS
10
0.262245
20
0.539016
11
0.263793
21
0.537717
0
LINE
8
BLACK
6
CONTINUOUS
10
0.263793
20
0.537717
11
0.264143
21
0.535728
0
LINE
8
BLACK
6
CONTINUOUS
10
0.264143
20
0.535728
11
0.263133
21
0.533979
0
LINE
8
BLACK
6
CONTINUOUS
10
0.263133
20
0.533979
11
0.261235
21
0.533288
0
LINE
8
BLACK
6
CONTINUOUS
10
0.261235
20
0.533288
11
0.251065
21
0.533288
0
LINE
8
BLACK
6
CONTINUOUS
10
0.251065
20
0.533288
11
0.251065
21
0.530617
0
LINE
8
BLACK
6
CONTINUOUS
10
0.251065
20
0.530617
11
0.250887
21
0.529607
0
LINE
8
BLACK
6
CONTINUOUS
10
0.250887
20
0.529607
11
0.249588
21
0.52806
0
LINE
8
BLACK
6
CONTINUOUS
10
0.249588
20
0.52806
11
0.247599
21
0.527709
0
LINE
8
BLACK
6
CONTINUOUS
10
0.247599
20
0.527709
11
0.24585
21
0.528719
0
LINE
8
BLACK
6
CONTINUOUS
10
0.24585
20
0.528719
11
0.245159
21
0.530617
0
LINE
8
BLACK
6
CONTINUOUS
10
0.245159
20
0.530617
11
0.245159
21
0.533288
0
LINE
8
BLACK
6
CONTINUOUS
10
0.245159
20
0.533288
11
0.234989
21
0.533288
0
LINE
8
BLACK
6
CONTINUOUS
10
0.234989
20
0.533288
11
0.233979
21
0.533466
0
LINE
8
BLACK
6
CONTINUOUS
10
0.233979
20
0.533466
11
0.232432
21
0.534765
0
LINE
8
BLACK
6
CONTINUOUS
10
0.232432
20
0.534765
11
0.232081
21
0.536754
0
LINE
8
BLACK
6
CONTINUOUS
10
0.232081
20
0.536754
11
0.233091
21
0.538503
0
LINE
8
BLACK
6
CONTINUOUS
10
0.233091
20
0.538503
11
0.234989
21
0.539194
0
LINE
8
BLACK
6
CONTINUOUS
10
0.234989
20
0.539194
11
0.245159
21
0.539194
0
LINE
8
BLACK
6
CONTINUOUS
10
0.245159
20
0.539194
11
0.245159
21
0.550892
0
LINE
8
BLACK
6
CONTINUOUS
10
0.245159
20
0.550892
11
0.220924
21
0.542814
0
LINE
8
BLACK
6
CONTINUOUS
10
0.220924
20
0.542814
11
0.21991
21
0.542663
0
LINE
8
BLACK
6
CONTINUOUS
10
0.21991
20
0.542663
11
0.218032
21
0.543406
0
LINE
8
BLACK
6
CONTINUOUS
10
0.218032
20
0.543406
11
0.21707
21
0.545182
0
LINE
8
BLACK
6
CONTINUOUS
10
0.21707
20
0.545182
11
0.217475
21
0.547161
0
LINE
8
BLACK
6
CONTINUOUS
10
0.217475
20
0.547161
11
0.219057
21
0.548416
0
LINE
8
BLACK
6
CONTINUOUS
10
0.219057
20
0.548416
11
0.247178
21
0.55779
0
LINE
8
BLACK
6
CONTINUOUS
10
0.247178
20
0.55779
11
0.248193
21
0.55794
0
LINE
8
BLACK
6
CONTINUOUS
10
0.248193
20
0.55794
11
0.248403
21
0.557857
0
LINE
8
BLACK
6
CONTINUOUS
10
3.54957
20
0.565526
11
3.55145
21
0.563651
0
LINE
8
BLACK
6
CONTINUOUS
10
3.55145
20
0.563651
11
3.55195
21
0.562928
0
LINE
8
BLACK
6
CONTINUOUS
10
3.55195
20
0.562928
11
3.552
21
0.562884
0
LINE
8
BLACK
6
CONTINUOUS
10
3.552
20
0.562884
11
3.55388
21
0.559135
0
LINE
8
BLACK
6
CONTINUOUS
10
3.55388
20
0.559135
11
3.55417
21
0.558152
0
LINE
8
BLACK
6
CONTINUOUS
10
3.55417
20
0.558152
11
3.55413
21
0.55798
0
LINE
8
BLACK
6
CONTINUOUS
10
3.55413
20
0.55798
11
3.55419
21
0.557814
0
LINE
8
BLACK
6
CONTINUOUS
10
3.55419
20
0.557814
11
3.55419
21
0.546565
0
LINE
8
BLACK
6
CONTINUOUS
10
3.55419
20
0.546565
11
3.55401
21
0.545556
0
LINE
8
BLACK
6
CONTINUOUS
10
3.55401
20
0.545556
11
3.5539
21
0.54542
0
LINE
8
BLACK
6
CONTINUOUS
10
3.5539
20
0.54542
11
3.55388
21
0.545245
0
LINE
8
BLACK
6
CONTINUOUS
10
3.55388
20
0.545245
11
3.552
21
0.541495
0
LINE
8
BLACK
6
CONTINUOUS
10
3.552
20
0.541495
11
3.55148
21
0.540786
0
LINE
8
BLACK
6
CONTINUOUS
10
3.55148
20
0.540786
11
3.55145
21
0.540728
0
LINE
8
BLACK
6
CONTINUOUS
10
3.55145
20
0.540728
11
3.54957
21
0.538853
0
LINE
8
BLACK
6
CONTINUOUS
10
3.54957
20
0.538853
11
3.54885
21
0.538347
0
LINE
8
BLACK
6
CONTINUOUS
10
3.54885
20
0.538347
11
3.54881
21
0.5383
0
LINE
8
BLACK
6
CONTINUOUS
10
3.54881
20
0.5383
11
3.54506
21
0.536425
0
LINE
8
BLACK
6
CONTINUOUS
10
3.54506
20
0.536425
11
3.54407
21
0.536133
0
LINE
8
BLACK
6
CONTINUOUS
10
3.54407
20
0.536133
11
3.5439
21
0.536174
0
LINE
8
BLACK
6
CONTINUOUS
10
3.5439
20
0.536174
11
3.54374
21
0.536114
0
LINE
8
BLACK
6
CONTINUOUS
10
3.54374
20
0.536114
11
3.53436
21
0.536114
0
LINE
8
BLACK
6
CONTINUOUS
10
3.53436
20
0.536114
11
3.53335
21
0.536292
0
LINE
8
BLACK
6
CONTINUOUS
10
3.53335
20
0.536292
11
3.53322
21
0.536405
0
LINE
8
BLACK
6
CONTINUOUS
10
3.53322
20
0.536405
11
3.53304
21
0.536425
0
LINE
8
BLACK
6
CONTINUOUS
10
3.53304
20
0.536425
11
3.52929
21
0.5383
0
LINE
8
BLACK
6
CONTINUOUS
10
3.52929
20
0.5383
11
3.52858
21
0.538826
0
LINE
8
BLACK
6
CONTINUOUS
10
3.52858
20
0.538826
11
3.52853
21
0.538853
0
LINE
8
BLACK
6
CONTINUOUS
10
3.52853
20
0.538853
11
3.52665
21
0.540728
0
LINE
8
BLACK
6
CONTINUOUS
10
3.52665
20
0.540728
11
3.52614
21
0.541451
0
LINE
8
BLACK
6
CONTINUOUS
10
3.52614
20
0.541451
11
3.5261
21
0.541495
0
LINE
8
BLACK
6
CONTINUOUS
10
3.5261
20
0.541495
11
3.52422
21
0.545245
0
LINE
8
BLACK
6
CONTINUOUS
10
3.52422
20
0.545245
11
3.52405
21
0.545809
0
LINE
8
BLACK
6
CONTINUOUS
10
3.52405
20
0.545809
11
3.51381
21
0.536844
0
LINE
8
BLACK
6
CONTINUOUS
10
3.51381
20
0.536844
11
3.51343
21
0.536614
0
LINE
8
BLACK
6
CONTINUOUS
10
3.51343
20
0.536614
11
3.51334
21
0.536509
0
LINE
8
BLACK
6
CONTINUOUS
10
3.51334
20
0.536509
11
3.51322
21
0.536488
0
LINE
8
BLACK
6
CONTINUOUS
10
3.51322
20
0.536488
11
3.51293
21
0.536313
0
LINE
8
BLACK
6
CONTINUOUS
10
3.51293
20
0.536313
11
3.51214
21
0.536297
0
LINE
8
BLACK
6
CONTINUOUS
10
3.51214
20
0.536297
11
3.51135
21
0.536158
0
LINE
8
BLACK
6
CONTINUOUS
10
3.51135
20
0.536158
11
3.51115
21
0.536276
0
LINE
8
BLACK
6
CONTINUOUS
10
3.51115
20
0.536276
11
3.51091
21
0.536271
0
LINE
8
BLACK
6
CONTINUOUS
10
3.51091
20
0.536271
11
3.51029
21
0.53677
0
LINE
8
BLACK
6
CONTINUOUS
10
3.51029
20
0.53677
11
3.5096
21
0.537168
0
LINE
8
BLACK
6
CONTINUOUS
10
3.5096
20
0.537168
11
3.50952
21
0.53739
0
LINE
8
BLACK
6
CONTINUOUS
10
3.50952
20
0.53739
11
3.50934
21
0.537537
0
LINE
8
BLACK
6
CONTINUOUS
10
3.50934
20
0.537537
11
3.50918
21
0.538318
0
LINE
8
BLACK
6
CONTINUOUS
10
3.50918
20
0.538318
11
3.50891
21
0.539066
0
LINE
8
BLACK
6
CONTINUOUS
10
3.50891
20
0.539066
11
3.50891
21
0.563438
0
LINE
8
BLACK
6
CONTINUOUS
10
3.50891
20
0.563438
11
3.50909
21
0.564448
0
LINE
8
BLACK
6
CONTINUOUS
10
3.50909
20
0.564448
11
3.51039
21
0.565996
0
LINE
8
BLACK
6
CONTINUOUS
10
3.51039
20
0.565996
11
3.51238
21
0.566346
0
LINE
8
BLACK
6
CONTINUOUS
10
3.51238
20
0.566346
11
3.51413
21
0.565336
0
LINE
8
BLACK
6
CONTINUOUS
10
3.51413
20
0.565336
11
3.51482
21
0.563438
0
LINE
8
BLACK
6
CONTINUOUS
10
3.51482
20
0.563438
11
3.51482
21
0.545574
0
LINE
8
BLACK
6
CONTINUOUS
10
3.51482
20
0.545574
11
3.52492
21
0.554412
0
LINE
8
BLACK
6
CONTINUOUS
10
3.52492
20
0.554412
11
3.5253
21
0.554642
0
LINE
8
BLACK
6
CONTINUOUS
10
3.5253
20
0.554642
11
3.52539
21
0.554747
0
LINE
8
BLACK
6
CONTINUOUS
10
3.52539
20
0.554747
11
3.52551
21
0.554768
0
LINE
8
BLACK
6
CONTINUOUS
10
3.52551
20
0.554768
11
3.5258
21
0.554943
0
LINE
8
BLACK
6
CONTINUOUS
10
3.5258
20
0.554943
11
3.52659
21
0.554959
0
LINE
8
BLACK
6
CONTINUOUS
10
3.52659
20
0.554959
11
3.52738
21
0.555098
0
LINE
8
BLACK
6
CONTINUOUS
10
3.52738
20
0.555098
11
3.52758
21
0.55498
0
LINE
8
BLACK
6
CONTINUOUS
10
3.52758
20
0.55498
11
3.52782
21
0.554985
0
LINE
8
BLACK
6
CONTINUOUS
10
3.52782
20
0.554985
11
3.52844
21
0.554486
0
LINE
8
BLACK
6
CONTINUOUS
10
3.52844
20
0.554486
11
3.52913
21
0.554088
0
LINE
8
BLACK
6
CONTINUOUS
10
3.52913
20
0.554088
11
3.52921
21
0.553866
0
LINE
8
BLACK
6
CONTINUOUS
10
3.52921
20
0.553866
11
3.52939
21
0.553719
0
LINE
8
BLACK
6
CONTINUOUS
10
3.52939
20
0.553719
11
3.52954
21
0.552938
0
LINE
8
BLACK
6
CONTINUOUS
10
3.52954
20
0.552938
11
3.52982
21
0.55219
0
LINE
8
BLACK
6
CONTINUOUS
10
3.52982
20
0.55219
11
3.52982
21
0.547262
0
LINE
8
BLACK
6
CONTINUOUS
10
3.52982
20
0.547262
11
3.53117
21
0.544565
0
LINE
8
BLACK
6
CONTINUOUS
10
3.53117
20
0.544565
11
3.53236
21
0.543368
0
LINE
8
BLACK
6
CONTINUOUS
10
3.53236
20
0.543368
11
3.53506
21
0.542019
0
LINE
8
BLACK
6
CONTINUOUS
10
3.53506
20
0.542019
11
3.54304
21
0.542019
0
LINE
8
BLACK
6
CONTINUOUS
10
3.54304
20
0.542019
11
3.54574
21
0.543368
0
LINE
8
BLACK
6
CONTINUOUS
10
3.54574
20
0.543368
11
3.54693
21
0.544565
0
LINE
8
BLACK
6
CONTINUOUS
10
3.54693
20
0.544565
11
3.54828
21
0.547262
0
LINE
8
BLACK
6
CONTINUOUS
10
3.54828
20
0.547262
11
3.54828
21
0.557117
0
LINE
8
BLACK
6
CONTINUOUS
10
3.54828
20
0.557117
11
3.54693
21
0.559814
0
LINE
8
BLACK
6
CONTINUOUS
10
3.54693
20
0.559814
11
3.5454
21
0.56135
0
LINE
8
BLACK
6
CONTINUOUS
10
3.5454
20
0.56135
11
3.54481
21
0.56219
0
LINE
8
BLACK
6
CONTINUOUS
10
3.54481
20
0.56219
11
3.54463
21
0.564203
0
LINE
8
BLACK
6
CONTINUOUS
10
3.54463
20
0.564203
11
3.54579
21
0.565857
0
LINE
8
BLACK
6
CONTINUOUS
10
3.54579
20
0.565857
11
3.54774
21
0.56638
0
LINE
8
BLACK
6
CONTINUOUS
10
3.54774
20
0.56638
11
3.54957
21
0.565526
0
LINE
8
BLACK
6
CONTINUOUS
10
0.261619
20
0.595369
11
0.261748
21
0.595392
0
LINE
8
BLACK
6
CONTINUOUS
10
0.261748
20
0.595392
11
0.261862
21
0.595326
0
LINE
8
BLACK
6
CONTINUOUS
10
0.261862
20
0.595326
11
0.262245
21
0.595259
0
LINE
8
BLACK
6
CONTINUOUS
10
0.262245
20
0.595259
11
0.262833
21
0.594766
0
LINE
8
BLACK
6
CONTINUOUS
10
0.262833
20
0.594766
11
0.263497
21
0.594382
0
LINE
8
BLACK
6
CONTINUOUS
10
0.263497
20
0.594382
11
0.263588
21
0.594132
0
LINE
8
BLACK
6
CONTINUOUS
10
0.263588
20
0.594132
11
0.263793
21
0.59396
0
LINE
8
BLACK
6
CONTINUOUS
10
0.263793
20
0.59396
11
0.263926
21
0.593205
0
LINE
8
BLACK
6
CONTINUOUS
10
0.263926
20
0.593205
11
0.264188
21
0.592484
0
LINE
8
BLACK
6
CONTINUOUS
10
0.264188
20
0.592484
11
0.264188
21
0.58311
0
LINE
8
BLACK
6
CONTINUOUS
10
0.264188
20
0.58311
11
0.264035
21
0.582241
0
LINE
8
BLACK
6
CONTINUOUS
10
0.264035
20
0.582241
11
0.264037
21
0.582176
0
LINE
8
BLACK
6
CONTINUOUS
10
0.264037
20
0.582176
11
0.262162
21
0.576552
0
LINE
8
BLACK
6
CONTINUOUS
10
0.262162
20
0.576552
11
0.261674
21
0.57565
0
LINE
8
BLACK
6
CONTINUOUS
10
0.261674
20
0.57565
11
0.261523
21
0.575558
0
LINE
8
BLACK
6
CONTINUOUS
10
0.261523
20
0.575558
11
0.261449
21
0.575398
0
LINE
8
BLACK
6
CONTINUOUS
10
0.261449
20
0.575398
11
0.257699
21
0.571649
0
LINE
8
BLACK
6
CONTINUOUS
10
0.257699
20
0.571649
11
0.256976
21
0.571142
0
LINE
8
BLACK
6
CONTINUOUS
10
0.256976
20
0.571142
11
0.256932
21
0.571095
0
LINE
8
BLACK
6
CONTINUOUS
10
0.256932
20
0.571095
11
0.253182
21
0.569221
0
LINE
8
BLACK
6
CONTINUOUS
10
0.253182
20
0.569221
11
0.252694
21
0.569075
0
LINE
8
BLACK
6
CONTINUOUS
10
0.252694
20
0.569075
11
0.252578
21
0.568997
0
LINE
8
BLACK
6
CONTINUOUS
10
0.252578
20
0.568997
11
0.245079
21
0.567122
0
LINE
8
BLACK
6
CONTINUOUS
10
0.245079
20
0.567122
11
0.244491
21
0.567081
0
LINE
8
BLACK
6
CONTINUOUS
10
0.244491
20
0.567081
11
0.244363
21
0.567034
0
LINE
8
BLACK
6
CONTINUOUS
10
0.244363
20
0.567034
11
0.238738
21
0.567034
0
LINE
8
BLACK
6
CONTINUOUS
10
0.238738
20
0.567034
11
0.238158
21
0.567136
0
LINE
8
BLACK
6
CONTINUOUS
10
0.238158
20
0.567136
11
0.238022
21
0.567122
0
LINE
8
BLACK
6
CONTINUOUS
10
0.238022
20
0.567122
11
0.230523
21
0.568997
0
LINE
8
BLACK
6
CONTINUOUS
10
0.230523
20
0.568997
11
0.230058
21
0.569205
0
LINE
8
BLACK
6
CONTINUOUS
10
0.230058
20
0.569205
11
0.229919
21
0.569221
0
LINE
8
BLACK
6
CONTINUOUS
10
0.229919
20
0.569221
11
0.226169
21
0.571095
0
LINE
8
BLACK
6
CONTINUOUS
10
0.226169
20
0.571095
11
0.22546
21
0.571621
0
LINE
8
BLACK
6
CONTINUOUS
10
0.22546
20
0.571621
11
0.225402
21
0.571649
0
LINE
8
BLACK
6
CONTINUOUS
10
0.225402
20
0.571649
11
0.221652
21
0.575398
0
LINE
8
BLACK
6
CONTINUOUS
10
0.221652
20
0.575398
11
0.221064
21
0.576238
0
LINE
8
BLACK
6
CONTINUOUS
10
0.221064
20
0.576238
11
0.221049
21
0.576414
0
LINE
8
BLACK
6
CONTINUOUS
10
0.221049
20
0.576414
11
0.220939
21
0.576552
0
LINE
8
BLACK
6
CONTINUOUS
10
0.220939
20
0.576552
11
0.219064
21
0.582176
0
LINE
8
BLACK
6
CONTINUOUS
10
0.219064
20
0.582176
11
0.218935
21
0.58305
0
LINE
8
BLACK
6
CONTINUOUS
10
0.218935
20
0.58305
11
0.218913
21
0.58311
0
LINE
8
BLACK
6
CONTINUOUS
10
0.218913
20
0.58311
11
0.218913
21
0.592484
0
LINE
8
BLACK
6
CONTINUOUS
10
0.218913
20
0.592484
11
0.21898
21
0.592868
0
LINE
8
BLACK
6
CONTINUOUS
10
0.21898
20
0.592868
11
0.218957
21
0.592997
0
LINE
8
BLACK
6
CONTINUOUS
10
0.218957
20
0.592997
11
0.219023
21
0.59311
0
LINE
8
BLACK
6
CONTINUOUS
10
0.219023
20
0.59311
11
0.219091
21
0.593494
0
LINE
8
BLACK
6
CONTINUOUS
10
0.219091
20
0.593494
11
0.219584
21
0.594082
0
LINE
8
BLACK
6
CONTINUOUS
10
0.219584
20
0.594082
11
0.219967
21
0.594746
0
LINE
8
BLACK
6
CONTINUOUS
10
0.219967
20
0.594746
11
0.220218
21
0.594837
0
LINE
8
BLACK
6
CONTINUOUS
10
0.220218
20
0.594837
11
0.220389
21
0.595041
0
LINE
8
BLACK
6
CONTINUOUS
10
0.220389
20
0.595041
11
0.221145
21
0.595174
0
LINE
8
BLACK
6
CONTINUOUS
10
0.221145
20
0.595174
11
0.221865
21
0.595437
0
LINE
8
BLACK
6
CONTINUOUS
10
0.221865
20
0.595437
11
0.261235
21
0.595437
0
LINE
8
BLACK
6
CONTINUOUS
10
0.261235
20
0.595437
11
0.261619
21
0.595369
0
LINE
8
BLACK
6
CONTINUOUS
10
0.224818
20
0.589531
11
0.224818
21
0.583589
0
LINE
8
BLACK
6
CONTINUOUS
10
0.224818
20
0.583589
11
0.226321
21
0.579081
0
LINE
8
BLACK
6
CONTINUOUS
10
0.226321
20
0.579081
11
0.229239
21
0.576163
0
LINE
8
BLACK
6
CONTINUOUS
10
0.229239
20
0.576163
11
0.23227
21
0.574648
0
LINE
8
BLACK
6
CONTINUOUS
10
0.23227
20
0.574648
11
0.239102
21
0.57294
0
LINE
8
BLACK
6
CONTINUOUS
10
0.239102
20
0.57294
11
0.243999
21
0.57294
0
LINE
8
BLACK
6
CONTINUOUS
10
0.243999
20
0.57294
11
0.250831
21
0.574648
0
LINE
8
BLACK
6
CONTINUOUS
10
0.250831
20
0.574648
11
0.253862
21
0.576163
0
LINE
8
BLACK
6
CONTINUOUS
10
0.253862
20
0.576163
11
0.25678
21
0.579081
0
LINE
8
BLACK
6
CONTINUOUS
10
0.25678
20
0.579081
11
0.258283
21
0.583589
0
LINE
8
BLACK
6
CONTINUOUS
10
0.258283
20
0.583589
11
0.258283
21
0.589531
0
LINE
8
BLACK
6
CONTINUOUS
10
0.258283
20
0.589531
11
0.224818
21
0.589531
0
LINE
8
BLACK
6
CONTINUOUS
10
3.55162
20
0.601944
11
3.55175
21
0.601967
0
LINE
8
BLACK
6
CONTINUOUS
10
3.55175
20
0.601967
11
3.55186
21
0.601901
0
LINE
8
BLACK
6
CONTINUOUS
10
3.55186
20
0.601901
11
3.55225
21
0.601834
0
LINE
8
BLACK
6
CONTINUOUS
10
3.55225
20
0.601834
11
3.55283
21
0.60134
0
LINE
8
BLACK
6
CONTINUOUS
10
3.55283
20
0.60134
11
3.5535
21
0.600957
0
LINE
8
BLACK
6
CONTINUOUS
10
3.5535
20
0.600957
11
3.55359
21
0.600707
0
LINE
8
BLACK
6
CONTINUOUS
10
3.55359
20
0.600707
11
3.55379
21
0.600535
0
LINE
8
BLACK
6
CONTINUOUS
10
3.55379
20
0.600535
11
3.55393
21
0.59978
0
LINE
8
BLACK
6
CONTINUOUS
10
3.55393
20
0.59978
11
3.55419
21
0.599059
0
LINE
8
BLACK
6
CONTINUOUS
10
3.55419
20
0.599059
11
3.55419
21
0.589685
0
LINE
8
BLACK
6
CONTINUOUS
10
3.55419
20
0.589685
11
3.55403
21
0.588816
0
LINE
8
BLACK
6
CONTINUOUS
10
3.55403
20
0.588816
11
3.55404
21
0.588751
0
LINE
8
BLACK
6
CONTINUOUS
10
3.55404
20
0.588751
11
3.55216
21
0.583127
0
LINE
8
BLACK
6
CONTINUOUS
10
3.55216
20
0.583127
11
3.55167
21
0.582225
0
LINE
8
BLACK
6
CONTINUOUS
10
3.55167
20
0.582225
11
3.55152
21
0.582133
0
LINE
8
BLACK
6
CONTINUOUS
10
3.55152
20
0.582133
11
3.55145
21
0.581973
0
LINE
8
BLACK
6
CONTINUOUS
10
3.55145
20
0.581973
11
3.5477
21
0.578223
0
LINE
8
BLACK
6
CONTINUOUS
10
3.5477
20
0.578223
11
3.54698
21
0.577717
0
LINE
8
BLACK
6
CONTINUOUS
10
3.54698
20
0.577717
11
3.54693
21
0.57767
0
LINE
8
BLACK
6
CONTINUOUS
10
3.54693
20
0.57767
11
3.54318
21
0.575795
0
LINE
8
BLACK
6
CONTINUOUS
10
3.54318
20
0.575795
11
3.54269
21
0.57565
0
LINE
8
BLACK
6
CONTINUOUS
10
3.54269
20
0.57565
11
3.54258
21
0.575572
0
LINE
8
BLACK
6
CONTINUOUS
10
3.54258
20
0.575572
11
3.53508
21
0.573697
0
LINE
8
BLACK
6
CONTINUOUS
10
3.53508
20
0.573697
11
3.53449
21
0.573656
0
LINE
8
BLACK
6
CONTINUOUS
10
3.53449
20
0.573656
11
3.53436
21
0.573609
0
LINE
8
BLACK
6
CONTINUOUS
10
3.53436
20
0.573609
11
3.52874
21
0.573609
0
LINE
8
BLACK
6
CONTINUOUS
10
3.52874
20
0.573609
11
3.52816
21
0.573711
0
LINE
8
BLACK
6
CONTINUOUS
10
3.52816
20
0.573711
11
3.52802
21
0.573697
0
LINE
8
BLACK
6
CONTINUOUS
10
3.52802
20
0.573697
11
3.52052
21
0.575572
0
LINE
8
BLACK
6
CONTINUOUS
10
3.52052
20
0.575572
11
3.52006
21
0.575779
0
LINE
8
BLACK
6
CONTINUOUS
10
3.52006
20
0.575779
11
3.51992
21
0.575795
0
LINE
8
BLACK
6
CONTINUOUS
10
3.51992
20
0.575795
11
3.51617
21
0.57767
0
LINE
8
BLACK
6
CONTINUOUS
10
3.51617
20
0.57767
11
3.51546
21
0.578196
0
LINE
8
BLACK
6
CONTINUOUS
10
3.51546
20
0.578196
11
3.5154
21
0.578223
0
LINE
8
BLACK
6
CONTINUOUS
10
3.5154
20
0.578223
11
3.51165
21
0.581973
0
LINE
8
BLACK
6
CONTINUOUS
10
3.51165
20
0.581973
11
3.51106
21
0.582813
0
LINE
8
BLACK
6
CONTINUOUS
10
3.51106
20
0.582813
11
3.51105
21
0.582989
0
LINE
8
BLACK
6
CONTINUOUS
10
3.51105
20
0.582989
11
3.51094
21
0.583127
0
LINE
8
BLACK
6
CONTINUOUS
10
3.51094
20
0.583127
11
3.50906
21
0.588751
0
LINE
8
BLACK
6
CONTINUOUS
10
3.50906
20
0.588751
11
3.50893
21
0.589624
0
LINE
8
BLACK
6
CONTINUOUS
10
3.50893
20
0.589624
11
3.50891
21
0.589685
0
LINE
8
BLACK
6
CONTINUOUS
10
3.50891
20
0.589685
11
3.50891
21
0.599059
0
LINE
8
BLACK
6
CONTINUOUS
10
3.50891
20
0.599059
11
3.50898
21
0.599442
0
LINE
8
BLACK
6
CONTINUOUS
10
3.50898
20
0.599442
11
3.50896
21
0.599572
0
LINE
8
BLACK
6
CONTINUOUS
10
3.50896
20
0.599572
11
3.50902
21
0.599685
0
LINE
8
BLACK
6
CONTINUOUS
10
3.50902
20
0.599685
11
3.50909
21
0.600069
0
LINE
8
BLACK
6
CONTINUOUS
10
3.50909
20
0.600069
11
3.50958
21
0.600656
0
LINE
8
BLACK
6
CONTINUOUS
10
3.50958
20
0.600656
11
3.50997
21
0.601321
0
LINE
8
BLACK
6
CONTINUOUS
10
3.50997
20
0.601321
11
3.51022
21
0.601412
0
LINE
8
BLACK
6
CONTINUOUS
10
3.51022
20
0.601412
11
3.51039
21
0.601616
0
LINE
8
BLACK
6
CONTINUOUS
10
3.51039
20
0.601616
11
3.51114
21
0.601749
0
LINE
8
BLACK
6
CONTINUOUS
10
3.51114
20
0.601749
11
3.51187
21
0.602012
0
LINE
8
BLACK
6
CONTINUOUS
10
3.51187
20
0.602012
11
3.55124
21
0.602012
0
LINE
8
BLACK
6
CONTINUOUS
10
3.55124
20
0.602012
11
3.55162
21
0.601944
0
LINE
8
BLACK
6
CONTINUOUS
10
3.51482
20
0.596106
11
3.51482
21
0.590164
0
LINE
8
BLACK
6
CONTINUOUS
10
3.51482
20
0.590164
11
3.51632
21
0.585656
0
LINE
8
BLACK
6
CONTINUOUS
10
3.51632
20
0.585656
11
3.51924
21
0.582738
0
LINE
8
BLACK
6
CONTINUOUS
10
3.51924
20
0.582738
11
3.52227
21
0.581222
0
LINE
8
BLACK
6
CONTINUOUS
10
3.52227
20
0.581222
11
3.5291
21
0.579514
0
LINE
8
BLACK
6
CONTINUOUS
10
3.5291
20
0.579514
11
3.534
21
0.579514
0
LINE
8
BLACK
6
CONTINUOUS
10
3.534
20
0.579514
11
3.54083
21
0.581222
0
LINE
8
BLACK
6
CONTINUOUS
10
3.54083
20
0.581222
11
3.54386
21
0.582738
0
LINE
8
BLACK
6
CONTINUOUS
10
3.54386
20
0.582738
11
3.54678
21
0.585656
0
LINE
8
BLACK
6
CONTINUOUS
10
3.54678
20
0.585656
11
3.54828
21
0.590164
0
LINE
8
BLACK
6
CONTINUOUS
10
3.54828
20
0.590164
11
3.54828
21
0.596106
0
LINE
8
BLACK
6
CONTINUOUS
10
3.54828
20
0.596106
11
3.51482
21
0.596106
0
LINE
8
BLACK
6
CONTINUOUS
10
0.13226
20
0.784374
11
0.133808
21
0.783076
0
LINE
8
BLACK
6
CONTINUOUS
10
0.133808
20
0.783076
11
0.134158
21
0.781086
0
LINE
8
BLACK
6
CONTINUOUS
10
0.134158
20
0.781086
11
0.133148
21
0.779337
0
LINE
8
BLACK
6
CONTINUOUS
10
0.133148
20
0.779337
11
0.13125
21
0.778646
0
LINE
8
BLACK
6
CONTINUOUS
10
0.13125
20
0.778646
11
0.113386
21
0.778646
0
LINE
8
BLACK
6
CONTINUOUS
10
0.113386
20
0.778646
11
0.122224
21
0.768545
0
LINE
8
BLACK
6
CONTINUOUS
10
0.122224
20
0.768545
11
0.122454
21
0.768166
0
LINE
8
BLACK
6
CONTINUOUS
10
0.122454
20
0.768166
11
0.122559
21
0.768077
0
LINE
8
BLACK
6
CONTINUOUS
10
0.122559
20
0.768077
11
0.12258
21
0.767957
0
LINE
8
BLACK
6
CONTINUOUS
10
0.12258
20
0.767957
11
0.122755
21
0.767668
0
LINE
8
BLACK
6
CONTINUOUS
10
0.122755
20
0.767668
11
0.122772
21
0.766872
0
LINE
8
BLACK
6
CONTINUOUS
10
0.122772
20
0.766872
11
0.12291
21
0.766088
0
LINE
8
BLACK
6
CONTINUOUS
10
0.12291
20
0.766088
11
0.122792
21
0.765884
0
LINE
8
BLACK
6
CONTINUOUS
10
0.122792
20
0.765884
11
0.122797
21
0.765649
0
LINE
8
BLACK
6
CONTINUOUS
10
0.122797
20
0.765649
11
0.122298
21
0.765028
0
LINE
8
BLACK
6
CONTINUOUS
10
0.122298
20
0.765028
11
0.1219
21
0.764339
0
LINE
8
BLACK
6
CONTINUOUS
10
0.1219
20
0.764339
11
0.121679
21
0.764259
0
LINE
8
BLACK
6
CONTINUOUS
10
0.121679
20
0.764259
11
0.121531
21
0.764075
0
LINE
8
BLACK
6
CONTINUOUS
10
0.121531
20
0.764075
11
0.12075
21
0.763921
0
LINE
8
BLACK
6
CONTINUOUS
10
0.12075
20
0.763921
11
0.120002
21
0.763648
0
LINE
8
BLACK
6
CONTINUOUS
10
0.120002
20
0.763648
11
0.115075
21
0.763648
0
LINE
8
BLACK
6
CONTINUOUS
10
0.115075
20
0.763648
11
0.112377
21
0.7623
0
LINE
8
BLACK
6
CONTINUOUS
10
0.112377
20
0.7623
11
0.11118
21
0.761102
0
LINE
8
BLACK
6
CONTINUOUS
10
0.11118
20
0.761102
11
0.109831
21
0.758405
0
LINE
8
BLACK
6
CONTINUOUS
10
0.109831
20
0.758405
11
0.109831
21
0.750425
0
LINE
8
BLACK
6
CONTINUOUS
10
0.109831
20
0.750425
11
0.11118
21
0.747728
0
LINE
8
BLACK
6
CONTINUOUS
10
0.11118
20
0.747728
11
0.112377
21
0.746531
0
LINE
8
BLACK
6
CONTINUOUS
10
0.112377
20
0.746531
11
0.115075
21
0.745182
0
LINE
8
BLACK
6
CONTINUOUS
10
0.115075
20
0.745182
11
0.124929
21
0.745182
0
LINE
8
BLACK
6
CONTINUOUS
10
0.124929
20
0.745182
11
0.127627
21
0.746531
0
LINE
8
BLACK
6
CONTINUOUS
10
0.127627
20
0.746531
11
0.129163
21
0.748067
0
LINE
8
BLACK
6
CONTINUOUS
10
0.129163
20
0.748067
11
0.130003
21
0.748655
0
LINE
8
BLACK
6
CONTINUOUS
10
0.130003
20
0.748655
11
0.132015
21
0.748831
0
LINE
8
BLACK
6
CONTINUOUS
10
0.132015
20
0.748831
11
0.133669
21
0.747672
0
LINE
8
BLACK
6
CONTINUOUS
10
0.133669
20
0.747672
11
0.134192
21
0.745721
0
LINE
8
BLACK
6
CONTINUOUS
10
0.134192
20
0.745721
11
0.133338
21
0.743891
0
LINE
8
BLACK
6
CONTINUOUS
10
0.133338
20
0.743891
11
0.131464
21
0.742016
0
LINE
8
BLACK
6
CONTINUOUS
10
0.131464
20
0.742016
11
0.130741
21
0.74151
0
LINE
8
BLACK
6
CONTINUOUS
10
0.130741
20
0.74151
11
0.130696
21
0.741463
0
LINE
8
BLACK
6
CONTINUOUS
10
0.130696
20
0.741463
11
0.126947
21
0.739588
0
LINE
8
BLACK
6
CONTINUOUS
10
0.126947
20
0.739588
11
0.125964
21
0.739296
0
LINE
8
BLACK
6
CONTINUOUS
10
0.125964
20
0.739296
11
0.125792
21
0.739337
0
LINE
8
BLACK
6
CONTINUOUS
10
0.125792
20
0.739337
11
0.125626
21
0.739276
0
LINE
8
BLACK
6
CONTINUOUS
10
0.125626
20
0.739276
11
0.114378
21
0.739276
0
LINE
8
BLACK
6
CONTINUOUS
10
0.114378
20
0.739276
11
0.113368
21
0.739454
0
LINE
8
BLACK
6
CONTINUOUS
10
0.113368
20
0.739454
11
0.113232
21
0.739568
0
LINE
8
BLACK
6
CONTINUOUS
10
0.113232
20
0.739568
11
0.113057
21
0.739588
0
LINE
8
BLACK
6
CONTINUOUS
10
0.113057
20
0.739588
11
0.109308
21
0.741463
0
LINE
8
BLACK
6
CONTINUOUS
10
0.109308
20
0.741463
11
0.108598
21
0.741989
0
LINE
8
BLACK
6
CONTINUOUS
10
0.108598
20
0.741989
11
0.10854
21
0.742016
0
LINE
8
BLACK
6
CONTINUOUS
10
0.10854
20
0.742016
11
0.106665
21
0.743891
0
LINE
8
BLACK
6
CONTINUOUS
10
0.106665
20
0.743891
11
0.106159
21
0.744614
0
LINE
8
BLACK
6
CONTINUOUS
10
0.106159
20
0.744614
11
0.106112
21
0.744658
0
LINE
8
BLACK
6
CONTINUOUS
10
0.106112
20
0.744658
11
0.104237
21
0.748408
0
LINE
8
BLACK
6
CONTINUOUS
10
0.104237
20
0.748408
11
0.103945
21
0.749391
0
LINE
8
BLACK
6
CONTINUOUS
10
0.103945
20
0.749391
11
0.103986
21
0.749562
0
LINE
8
BLACK
6
CONTINUOUS
10
0.103986
20
0.749562
11
0.103926
21
0.749728
0
LINE
8
BLACK
6
CONTINUOUS
10
0.103926
20
0.749728
11
0.103926
21
0.759102
0
LINE
8
BLACK
6
CONTINUOUS
10
0.103926
20
0.759102
11
0.104104
21
0.760112
0
LINE
8
BLACK
6
CONTINUOUS
10
0.104104
20
0.760112
11
0.104217
21
0.760247
0
LINE
8
BLACK
6
CONTINUOUS
10
0.104217
20
0.760247
11
0.104237
21
0.760423
0
LINE
8
BLACK
6
CONTINUOUS
10
0.104237
20
0.760423
11
0.106112
21
0.764172
0
LINE
8
BLACK
6
CONTINUOUS
10
0.106112
20
0.764172
11
0.106638
21
0.764881
0
LINE
8
BLACK
6
CONTINUOUS
10
0.106638
20
0.764881
11
0.106665
21
0.764939
0
LINE
8
BLACK
6
CONTINUOUS
10
0.106665
20
0.764939
11
0.10854
21
0.766814
0
LINE
8
BLACK
6
CONTINUOUS
10
0.10854
20
0.766814
11
0.109263
21
0.767321
0
LINE
8
BLACK
6
CONTINUOUS
10
0.109263
20
0.767321
11
0.109308
21
0.767367
0
LINE
8
BLACK
6
CONTINUOUS
10
0.109308
20
0.767367
11
0.113057
21
0.769242
0
LINE
8
BLACK
6
CONTINUOUS
10
0.113057
20
0.769242
11
0.113621
21
0.76941
0
LINE
8
BLACK
6
CONTINUOUS
10
0.113621
20
0.76941
11
0.104656
21
0.779655
0
LINE
8
BLACK
6
CONTINUOUS
10
0.104656
20
0.779655
11
0.104426
21
0.780035
0
LINE
8
BLACK
6
CONTINUOUS
10
0.104426
20
0.780035
11
0.104321
21
0.780123
0
LINE
8
BLACK
6
CONTINUOUS
10
0.104321
20
0.780123
11
0.1043
21
0.780243
0
LINE
8
BLACK
6
CONTINUOUS
10
0.1043
20
0.780243
11
0.104125
21
0.780532
0
LINE
8
BLACK
6
CONTINUOUS
10
0.104125
20
0.780532
11
0.104109
21
0.781328
0
LINE
8
BLACK
6
CONTINUOUS
10
0.104109
20
0.781328
11
0.103971
21
0.782112
0
LINE
8
BLACK
6
CONTINUOUS
10
0.103971
20
0.782112
11
0.104088
21
0.782316
0
LINE
8
BLACK
6
CONTINUOUS
10
0.104088
20
0.782316
11
0.104084
21
0.782551
0
LINE
8
BLACK
6
CONTINUOUS
10
0.104084
20
0.782551
11
0.104583
21
0.783172
0
LINE
8
BLACK
6
CONTINUOUS
10
0.104583
20
0.783172
11
0.104981
21
0.783861
0
LINE
8
BLACK
6
CONTINUOUS
10
0.104981
20
0.783861
11
0.105202
21
0.783942
0
LINE
8
BLACK
6
CONTINUOUS
10
0.105202
20
0.783942
11
0.10535
21
0.784125
0
LINE
8
BLACK
6
CONTINUOUS
10
0.10535
20
0.784125
11
0.10613
21
0.78428
0
LINE
8
BLACK
6
CONTINUOUS
10
0.10613
20
0.78428
11
0.106879
21
0.784552
0
LINE
8
BLACK
6
CONTINUOUS
10
0.106879
20
0.784552
11
0.13125
21
0.784552
0
LINE
8
BLACK
6
CONTINUOUS
10
0.13125
20
0.784552
11
0.13226
21
0.784374
0
LINE
8
BLACK
6
CONTINUOUS
10
0.16163
20
0.784484
11
0.161759
21
0.784507
0
LINE
8
BLACK
6
CONTINUOUS
10
0.161759
20
0.784507
11
0.161873
21
0.784442
0
LINE
8
BLACK
6
CONTINUOUS
10
0.161873
20
0.784442
11
0.162257
21
0.784374
0
LINE
8
BLACK
6
CONTINUOUS
10
0.162257
20
0.784374
11
0.162844
21
0.783881
0
LINE
8
BLACK
6
CONTINUOUS
10
0.162844
20
0.783881
11
0.163509
21
0.783497
0
LINE
8
BLACK
6
CONTINUOUS
10
0.163509
20
0.783497
11
0.1636
21
0.783247
0
LINE
8
BLACK
6
CONTINUOUS
10
0.1636
20
0.783247
11
0.163804
21
0.783076
0
LINE
8
BLACK
6
CONTINUOUS
10
0.163804
20
0.783076
11
0.163937
21
0.78232
0
LINE
8
BLACK
6
CONTINUOUS
10
0.163937
20
0.78232
11
0.164199
21
0.781599
0
LINE
8
BLACK
6
CONTINUOUS
10
0.164199
20
0.781599
11
0.164199
21
0.742229
0
LINE
8
BLACK
6
CONTINUOUS
10
0.164199
20
0.742229
11
0.164021
21
0.741219
0
LINE
8
BLACK
6
CONTINUOUS
10
0.164021
20
0.741219
11
0.162723
21
0.739672
0
LINE
8
BLACK
6
CONTINUOUS
10
0.162723
20
0.739672
11
0.160734
21
0.739321
0
LINE
8
BLACK
6
CONTINUOUS
10
0.160734
20
0.739321
11
0.158985
21
0.740331
0
LINE
8
BLACK
6
CONTINUOUS
10
0.158985
20
0.740331
11
0.158294
21
0.742229
0
LINE
8
BLACK
6
CONTINUOUS
10
0.158294
20
0.742229
11
0.158294
21
0.759899
0
LINE
8
BLACK
6
CONTINUOUS
10
0.158294
20
0.759899
11
0.148123
21
0.759899
0
LINE
8
BLACK
6
CONTINUOUS
10
0.148123
20
0.759899
11
0.147113
21
0.760077
0
LINE
8
BLACK
6
CONTINUOUS
10
0.147113
20
0.760077
11
0.145566
21
0.761375
0
LINE
8
BLACK
6
CONTINUOUS
10
0.145566
20
0.761375
11
0.145215
21
0.763364
0
LINE
8
BLACK
6
CONTINUOUS
10
0.145215
20
0.763364
11
0.146225
21
0.765113
0
LINE
8
BLACK
6
CONTINUOUS
10
0.146225
20
0.765113
11
0.148123
21
0.765804
0
LINE
8
BLACK
6
CONTINUOUS
10
0.148123
20
0.765804
11
0.158294
21
0.765804
0
LINE
8
BLACK
6
CONTINUOUS
10
0.158294
20
0.765804
11
0.158294
21
0.778646
0
LINE
8
BLACK
6
CONTINUOUS
10
0.158294
20
0.778646
11
0.142499
21
0.778646
0
LINE
8
BLACK
6
CONTINUOUS
10
0.142499
20
0.778646
11
0.141489
21
0.778825
0
LINE
8
BLACK
6
CONTINUOUS
10
0.141489
20
0.778825
11
0.139942
21
0.780123
0
LINE
8
BLACK
6
CONTINUOUS
10
0.139942
20
0.780123
11
0.139591
21
0.782112
0
LINE
8
BLACK
6
CONTINUOUS
10
0.139591
20
0.782112
11
0.140601
21
0.783861
0
LINE
8
BLACK
6
CONTINUOUS
10
0.140601
20
0.783861
11
0.142499
21
0.784552
0
LINE
8
BLACK
6
CONTINUOUS
10
0.142499
20
0.784552
11
0.161247
21
0.784552
0
LINE
8
BLACK
6
CONTINUOUS
10
0.161247
20
0.784552
11
0.16163
21
0.784484
0
LINE
8
BLACK
6
CONTINUOUS
10
0.146956
20
0.798718
11
0.147648
21
0.797047
0
LINE
8
BLACK
6
CONTINUOUS
10
0.147648
20
0.797047
11
0.146956
21
0.795377
0
LINE
8
BLACK
6
CONTINUOUS
10
0.146956
20
0.795377
11
0.145286
21
0.794685
0
LINE
8
BLACK
6
CONTINUOUS
10
0.145286
20
0.794685
11
0.124714
21
0.794685
0
LINE
8
BLACK
6
CONTINUOUS
10
0.124714
20
0.794685
11
0.123044
21
0.795377
0
LINE
8
BLACK
6
CONTINUOUS
10
0.123044
20
0.795377
11
0.122352
21
0.797047
0
LINE
8
BLACK
6
CONTINUOUS
10
0.122352
20
0.797047
11
0.123044
21
0.798718
0
LINE
8
BLACK
6
CONTINUOUS
10
0.123044
20
0.798718
11
0.124714
21
0.799409
0
LINE
8
BLACK
6
CONTINUOUS
10
0.124714
20
0.799409
11
0.145286
21
0.799409
0
LINE
8
BLACK
6
CONTINUOUS
10
0.145286
20
0.799409
11
0.146956
21
0.798718
0
LINE
8
BLACK
6
CONTINUOUS
10
3.47663
20
0.844484
11
3.47676
21
0.844507
0
LINE
8
BLACK
6
CONTINUOUS
10
3.47676
20
0.844507
11
3.47687
21
0.844442
0
LINE
8
BLACK
6
CONTINUOUS
10
3.47687
20
0.844442
11
3.47726
21
0.844374
0
LINE
8
BLACK
6
CONTINUOUS
10
3.47726
20
0.844374
11
3.47784
21
0.843881
0
LINE
8
BLACK
6
CONTINUOUS
10
3.47784
20
0.843881
11
3.47851
21
0.843497
0
LINE
8
BLACK
6
CONTINUOUS
10
3.47851
20
0.843497
11
3.4786
21
0.843247
0
LINE
8
BLACK
6
CONTINUOUS
10
3.4786
20
0.843247
11
3.4788
21
0.843076
0
LINE
8
BLACK
6
CONTINUOUS
10
3.4788
20
0.843076
11
3.47894
21
0.84232
0
LINE
8
BLACK
6
CONTINUOUS
10
3.47894
20
0.84232
11
3.4792
21
0.841599
0
LINE
8
BLACK
6
CONTINUOUS
10
3.4792
20
0.841599
11
3.4792
21
0.802229
0
LINE
8
BLACK
6
CONTINUOUS
10
3.4792
20
0.802229
11
3.47902
21
0.801219
0
LINE
8
BLACK
6
CONTINUOUS
10
3.47902
20
0.801219
11
3.47772
21
0.799672
0
LINE
8
BLACK
6
CONTINUOUS
10
3.47772
20
0.799672
11
3.47573
21
0.799321
0
LINE
8
BLACK
6
CONTINUOUS
10
3.47573
20
0.799321
11
3.47398
21
0.800331
0
LINE
8
BLACK
6
CONTINUOUS
10
3.47398
20
0.800331
11
3.47329
21
0.802229
0
LINE
8
BLACK
6
CONTINUOUS
10
3.47329
20
0.802229
11
3.47329
21
0.819899
0
LINE
8
BLACK
6
CONTINUOUS
10
3.47329
20
0.819899
11
3.46312
21
0.819899
0
LINE
8
BLACK
6
CONTINUOUS
10
3.46312
20
0.819899
11
3.46211
21
0.820077
0
LINE
8
BLACK
6
CONTINUOUS
10
3.46211
20
0.820077
11
3.46057
21
0.821375
0
LINE
8
BLACK
6
CONTINUOUS
10
3.46057
20
0.821375
11
3.46022
21
0.823364
0
LINE
8
BLACK
6
CONTINUOUS
10
3.46022
20
0.823364
11
3.46123
21
0.825113
0
LINE
8
BLACK
6
CONTINUOUS
10
3.46123
20
0.825113
11
3.46312
21
0.825804
0
LINE
8
BLACK
6
CONTINUOUS
10
3.46312
20
0.825804
11
3.47329
21
0.825804
0
LINE
8
BLACK
6
CONTINUOUS
10
3.47329
20
0.825804
11
3.47329
21
0.838646
0
LINE
8
BLACK
6
CONTINUOUS
10
3.47329
20
0.838646
11
3.4575
21
0.838646
0
LINE
8
BLACK
6
CONTINUOUS
10
3.4575
20
0.838646
11
3.45649
21
0.838825
0
LINE
8
BLACK
6
CONTINUOUS
10
3.45649
20
0.838825
11
3.45494
21
0.840123
0
LINE
8
BLACK
6
CONTINUOUS
10
3.45494
20
0.840123
11
3.45459
21
0.842112
0
LINE
8
BLACK
6
CONTINUOUS
10
3.45459
20
0.842112
11
3.4556
21
0.843861
0
LINE
8
BLACK
6
CONTINUOUS
10
3.4556
20
0.843861
11
3.4575
21
0.844552
0
LINE
8
BLACK
6
CONTINUOUS
10
3.4575
20
0.844552
11
3.47625
21
0.844552
0
LINE
8
BLACK
6
CONTINUOUS
10
3.47625
20
0.844552
11
3.47663
21
0.844484
0
LINE
8
BLACK
6
CONTINUOUS
10
3.43655
20
0.84599
11
3.4378
21
0.844408
0
LINE
8
BLACK
6
CONTINUOUS
10
3.4378
20
0.844408
11
3.44718
21
0.816286
0
LINE
8
BLACK
6
CONTINUOUS
10
3.44718
20
0.816286
11
3.44733
21
0.815272
0
LINE
8
BLACK
6
CONTINUOUS
10
3.44733
20
0.815272
11
3.44724
21
0.815062
0
LINE
8
BLACK
6
CONTINUOUS
10
3.44724
20
0.815062
11
3.44728
21
0.81484
0
LINE
8
BLACK
6
CONTINUOUS
10
3.44728
20
0.81484
11
3.44688
21
0.814142
0
LINE
8
BLACK
6
CONTINUOUS
10
3.44688
20
0.814142
11
3.44658
21
0.813393
0
LINE
8
BLACK
6
CONTINUOUS
10
3.44658
20
0.813393
11
3.44639
21
0.813286
0
LINE
8
BLACK
6
CONTINUOUS
10
3.44639
20
0.813286
11
3.44627
21
0.813091
0
LINE
8
BLACK
6
CONTINUOUS
10
3.44627
20
0.813091
11
3.44552
21
0.812815
0
LINE
8
BLACK
6
CONTINUOUS
10
3.44552
20
0.812815
11
3.44481
21
0.812432
0
LINE
8
BLACK
6
CONTINUOUS
10
3.44481
20
0.812432
11
3.44459
21
0.812477
0
LINE
8
BLACK
6
CONTINUOUS
10
3.44459
20
0.812477
11
3.44438
21
0.8124
0
LINE
8
BLACK
6
CONTINUOUS
10
3.44438
20
0.8124
11
3.42858
21
0.8124
0
LINE
8
BLACK
6
CONTINUOUS
10
3.42858
20
0.8124
11
3.42858
21
0.802229
0
LINE
8
BLACK
6
CONTINUOUS
10
3.42858
20
0.802229
11
3.4284
21
0.801219
0
LINE
8
BLACK
6
CONTINUOUS
10
3.4284
20
0.801219
11
3.4271
21
0.799672
0
LINE
8
BLACK
6
CONTINUOUS
10
3.4271
20
0.799672
11
3.42512
21
0.799321
0
LINE
8
BLACK
6
CONTINUOUS
10
3.42512
20
0.799321
11
3.42337
21
0.800331
0
LINE
8
BLACK
6
CONTINUOUS
10
3.42337
20
0.800331
11
3.42268
21
0.802229
0
LINE
8
BLACK
6
CONTINUOUS
10
3.42268
20
0.802229
11
3.42268
21
0.8124
0
LINE
8
BLACK
6
CONTINUOUS
10
3.42268
20
0.8124
11
3.42
21
0.8124
0
LINE
8
BLACK
6
CONTINUOUS
10
3.42
20
0.8124
11
3.41899
21
0.812578
0
LINE
8
BLACK
6
CONTINUOUS
10
3.41899
20
0.812578
11
3.41745
21
0.813876
0
LINE
8
BLACK
6
CONTINUOUS
10
3.41745
20
0.813876
11
3.4171
21
0.815865
0
LINE
8
BLACK
6
CONTINUOUS
10
3.4171
20
0.815865
11
3.41811
21
0.817614
0
LINE
8
BLACK
6
CONTINUOUS
10
3.41811
20
0.817614
11
3.42
21
0.818305
0
LINE
8
BLACK
6
CONTINUOUS
10
3.42
20
0.818305
11
3.42268
21
0.818305
0
LINE
8
BLACK
6
CONTINUOUS
10
3.42268
20
0.818305
11
3.42268
21
0.828476
0
LINE
8
BLACK
6
CONTINUOUS
10
3.42268
20
0.828476
11
3.42285
21
0.829486
0
LINE
8
BLACK
6
CONTINUOUS
10
3.42285
20
0.829486
11
3.42415
21
0.831033
0
LINE
8
BLACK
6
CONTINUOUS
10
3.42415
20
0.831033
11
3.42614
21
0.831384
0
LINE
8
BLACK
6
CONTINUOUS
10
3.42614
20
0.831384
11
3.42789
21
0.830374
0
LINE
8
BLACK
6
CONTINUOUS
10
3.42789
20
0.830374
11
3.42858
21
0.828476
0
LINE
8
BLACK
6
CONTINUOUS
10
3.42858
20
0.828476
11
3.42858
21
0.818305
0
LINE
8
BLACK
6
CONTINUOUS
10
3.42858
20
0.818305
11
3.44028
21
0.818305
0
LINE
8
BLACK
6
CONTINUOUS
10
3.44028
20
0.818305
11
3.4322
21
0.84254
0
LINE
8
BLACK
6
CONTINUOUS
10
3.4322
20
0.84254
11
3.43205
21
0.843555
0
LINE
8
BLACK
6
CONTINUOUS
10
3.43205
20
0.843555
11
3.43279
21
0.845433
0
LINE
8
BLACK
6
CONTINUOUS
10
3.43279
20
0.845433
11
3.43457
21
0.846395
0
LINE
8
BLACK
6
CONTINUOUS
10
3.43457
20
0.846395
11
3.43655
21
0.84599
0
LINE
8
BLACK
6
CONTINUOUS
10
0.146956
20
0.854623
11
0.147648
21
0.852953
0
LINE
8
BLACK
6
CONTINUOUS
10
0.147648
20
0.852953
11
0.146956
21
0.851282
0
LINE
8
BLACK
6
CONTINUOUS
10
0.146956
20
0.851282
11
0.145286
21
0.850591
0
LINE
8
BLACK
6
CONTINUOUS
10
0.145286
20
0.850591
11
0.124714
21
0.850591
0
LINE
8
BLACK
6
CONTINUOUS
10
0.124714
20
0.850591
11
0.123044
21
0.851282
0
LINE
8
BLACK
6
CONTINUOUS
10
0.123044
20
0.851282
11
0.122352
21
0.852953
0
LINE
8
BLACK
6
CONTINUOUS
10
0.122352
20
0.852953
11
0.123044
21
0.854623
0
LINE
8
BLACK
6
CONTINUOUS
10
0.123044
20
0.854623
11
0.124714
21
0.855315
0
LINE
8
BLACK
6
CONTINUOUS
10
0.124714
20
0.855315
11
0.145286
21
0.855315
0
LINE
8
BLACK
6
CONTINUOUS
10
0.145286
20
0.855315
11
0.146956
21
0.854623
0
LINE
8
BLACK
6
CONTINUOUS
10
3.46196
20
0.858718
11
3.46265
21
0.857047
0
LINE
8
BLACK
6
CONTINUOUS
10
3.46265
20
0.857047
11
3.46196
21
0.855377
0
LINE
8
BLACK
6
CONTINUOUS
10
3.46196
20
0.855377
11
3.46029
21
0.854685
0
LINE
8
BLACK
6
CONTINUOUS
10
3.46029
20
0.854685
11
3.43971
21
0.854685
0
LINE
8
BLACK
6
CONTINUOUS
10
3.43971
20
0.854685
11
3.43804
21
0.855377
0
LINE
8
BLACK
6
CONTINUOUS
10
3.43804
20
0.855377
11
3.43735
21
0.857047
0
LINE
8
BLACK
6
CONTINUOUS
10
3.43735
20
0.857047
11
3.43804
21
0.858718
0
LINE
8
BLACK
6
CONTINUOUS
10
3.43804
20
0.858718
11
3.43971
21
0.859409
0
LINE
8
BLACK
6
CONTINUOUS
10
3.43971
20
0.859409
11
3.46029
21
0.859409
0
LINE
8
BLACK
6
CONTINUOUS
10
3.46029
20
0.859409
11
3.46196
21
0.858718
0
LINE
8
BLACK
6
CONTINUOUS
10
3.46196
20
0.914623
11
3.46265
21
0.912953
0
LINE
8
BLACK
6
CONTINUOUS
10
3.46265
20
0.912953
11
3.46196
21
0.911282
0
LINE
8
BLACK
6
CONTINUOUS
10
3.46196
20
0.911282
11
3.46029
21
0.910591
0
LINE
8
BLACK
6
CONTINUOUS
10
3.46029
20
0.910591
11
3.43971
21
0.910591
0
LINE
8
BLACK
6
CONTINUOUS
10
3.43971
20
0.910591
11
3.43804
21
0.911282
0
LINE
8
BLACK
6
CONTINUOUS
10
3.43804
20
0.911282
11
3.43735
21
0.912953
0
LINE
8
BLACK
6
CONTINUOUS
10
3.43735
20
0.912953
11
3.43804
21
0.914623
0
LINE
8
BLACK
6
CONTINUOUS
10
3.43804
20
0.914623
11
3.43971
21
0.915315
0
LINE
8
BLACK
6
CONTINUOUS
10
3.43971
20
0.915315
11
3.46029
21
0.915315
0
LINE
8
BLACK
6
CONTINUOUS
10
3.46029
20
0.915315
11
3.46196
21
0.914623
  0
ENDSEC
  0
EOF
