  0
SECTION
  2
HEADER
  9
$ANGBASE
  50
0.0
  9
$ANGDIR
  70
1
  9
$MEASUREMENT
  70
0
  0
ENDSEC
  0
SECTION
  2
TABLES
  0
TABLE
  2
LTYPE
  70
4
  0
LTYPE
  5
40F
  2
CONTINUOUS
  70
0
  3
Solid line
  72
65
  73
0
  40
0.0
  0
LTYPE
  5
410
  2
DASHDOT
 70
0
  3
Dash Dot ____ _ ____ _
 72
65
 73
4
 40
2.0
 49
1.25
 49
-0.25
 49
0.25
 49
-0.25
  0
LTYPE
  5
411
  2
DASHED
 70
0
  3
Dashed __ __ __ __ __
 72
65
 73
2
 40
0.75
 49
0.5
 49
-0.25
  0
LTYPE
  5
43B
  2
DOTTED
 70
0
  3
Dotted .  .  .  .
 72
65
 73
2
 40
0.2
 49
0.0
 49
-0.2
  0
ENDTAB
  0
TABLE
  2
STYLE
  70
4
  0
STYLE
  2
KICAD
  70
0
  40
0
  41
1
  42
1
  50
0
  71
0
  3
isocp.shx
  0
STYLE
  2
KICADB
  70
0
  40
0
  41
1
  42
1
  50
0
  71
0
  3
isocp.shx
  0
STYLE
  2
KICADI
  70
0
  40
0
  41
1
  42
1
  50
15
  71
0
  3
isocp.shx
  0
STYLE
  2
KICADBI
  70
0
  40
0
  41
1
  42
1
  50
15
  71
0
  3
isocp.shx
  0
ENDTAB
  0
TABLE
  2
LAYER
  70
1
  0
LAYER
  2
BLACK
  70
0
  62
7
  6
CONTINUOUS
  0
ENDTAB
  0
ENDSEC
  0
SECTION
  2
ENTITIES
0
LINE
8
BLACK
6
CONTINUOUS
10
1.05537
20
0.145416
11
1.06458
21
0.143775
0
LINE
8
BLACK
6
CONTINUOUS
10
1.06458
20
0.143775
11
1.0734
21
0.140653
0
LINE
8
BLACK
6
CONTINUOUS
10
1.0734
20
0.140653
11
1.08159
21
0.136131
0
LINE
8
BLACK
6
CONTINUOUS
10
1.08159
20
0.136131
11
1.08893
21
0.130333
0
LINE
8
BLACK
6
CONTINUOUS
10
1.08893
20
0.130333
11
1.09523
21
0.123414
0
LINE
8
BLACK
6
CONTINUOUS
10
1.09523
20
0.123414
11
1.10031
21
0.115559
0
LINE
8
BLACK
6
CONTINUOUS
10
1.10031
20
0.115559
11
1.10404
21
0.10698
0
LINE
8
BLACK
6
CONTINUOUS
10
1.10404
20
0.10698
11
1.10632
21
0.0979064
0
LINE
8
BLACK
6
CONTINUOUS
10
1.10632
20
0.0979064
11
1.10709
21
0.0885827
0
LINE
8
BLACK
6
CONTINUOUS
10
1.10709
20
0.0885827
11
1.10702
21
0.085794
0
LINE
8
BLACK
6
CONTINUOUS
10
1.10702
20
0.085794
11
1.1058
21
0.0765189
0
LINE
8
BLACK
6
CONTINUOUS
10
1.1058
20
0.0765189
11
1.10308
21
0.0675677
0
LINE
8
BLACK
6
CONTINUOUS
10
1.10308
20
0.0675677
11
1.09893
21
0.0591809
0
LINE
8
BLACK
6
CONTINUOUS
10
1.09893
20
0.0591809
11
1.09347
21
0.0515837
0
LINE
8
BLACK
6
CONTINUOUS
10
1.09347
20
0.0515837
11
1.08685
21
0.0449802
0
LINE
8
BLACK
6
CONTINUOUS
10
1.08685
20
0.0449802
11
1.07923
21
0.0395476
0
LINE
8
BLACK
6
CONTINUOUS
10
1.07923
20
0.0395476
11
1.07083
21
0.0354319
0
LINE
8
BLACK
6
CONTINUOUS
10
1.07083
20
0.0354319
11
1.06187
21
0.0327435
0
LINE
8
BLACK
6
CONTINUOUS
10
1.06187
20
0.0327435
11
1.05259
21
0.0315548
0
LINE
8
BLACK
6
CONTINUOUS
10
1.05259
20
0.0315548
11
1.04324
21
0.0318976
0
LINE
8
BLACK
6
CONTINUOUS
10
1.04324
20
0.0318976
11
1.03407
21
0.0337628
0
LINE
8
BLACK
6
CONTINUOUS
10
1.03407
20
0.0337628
11
1.02533
21
0.0371001
0
LINE
8
BLACK
6
CONTINUOUS
10
1.02533
20
0.0371001
11
1.01726
21
0.0418201
0
LINE
8
BLACK
6
CONTINUOUS
10
1.01726
20
0.0418201
11
1.01006
21
0.0477959
0
LINE
8
BLACK
6
CONTINUOUS
10
1.01006
20
0.0477959
11
1.00393
21
0.054867
0
LINE
8
BLACK
6
CONTINUOUS
10
1.00393
20
0.054867
11
0.999045
21
0.0628436
0
LINE
8
BLACK
6
CONTINUOUS
10
0.999045
20
0.0628436
11
0.995526
21
0.0715115
0
LINE
8
BLACK
6
CONTINUOUS
10
0.995526
20
0.0715115
11
0.993469
21
0.0806378
0
LINE
8
BLACK
6
CONTINUOUS
10
0.993469
20
0.0806378
11
0.99293
21
0.0899774
0
LINE
8
BLACK
6
CONTINUOUS
10
0.99293
20
0.0899774
11
0.993925
21
0.0992796
0
LINE
8
BLACK
6
CONTINUOUS
10
0.993925
20
0.0992796
11
0.996425
21
0.108295
0
LINE
8
BLACK
6
CONTINUOUS
10
0.996425
20
0.108295
11
1.00036
21
0.11678
0
LINE
8
BLACK
6
CONTINUOUS
10
1.00036
20
0.11678
11
1.00564
21
0.124508
0
LINE
8
BLACK
6
CONTINUOUS
10
1.00564
20
0.124508
11
1.0121
21
0.131272
0
LINE
8
BLACK
6
CONTINUOUS
10
1.0121
20
0.131272
11
1.01958
21
0.136889
0
LINE
8
BLACK
6
CONTINUOUS
10
1.01958
20
0.136889
11
1.02788
21
0.141209
0
LINE
8
BLACK
6
CONTINUOUS
10
1.02788
20
0.141209
11
1.03677
21
0.144115
0
LINE
8
BLACK
6
CONTINUOUS
10
1.03677
20
0.144115
11
1.04602
21
0.14553
0
LINE
8
BLACK
6
CONTINUOUS
10
1.04602
20
0.14553
11
1.05537
21
0.145416
0
LINE
8
BLACK
6
CONTINUOUS
10
2.55537
20
0.145416
11
2.56458
21
0.143775
0
LINE
8
BLACK
6
CONTINUOUS
10
2.56458
20
0.143775
11
2.5734
21
0.140653
0
LINE
8
BLACK
6
CONTINUOUS
10
2.5734
20
0.140653
11
2.58159
21
0.136131
0
LINE
8
BLACK
6
CONTINUOUS
10
2.58159
20
0.136131
11
2.58893
21
0.130333
0
LINE
8
BLACK
6
CONTINUOUS
10
2.58893
20
0.130333
11
2.59523
21
0.123414
0
LINE
8
BLACK
6
CONTINUOUS
10
2.59523
20
0.123414
11
2.60031
21
0.115559
0
LINE
8
BLACK
6
CONTINUOUS
10
2.60031
20
0.115559
11
2.60404
21
0.10698
0
LINE
8
BLACK
6
CONTINUOUS
10
2.60404
20
0.10698
11
2.60632
21
0.0979064
0
LINE
8
BLACK
6
CONTINUOUS
10
2.60632
20
0.0979064
11
2.60709
21
0.0885827
0
LINE
8
BLACK
6
CONTINUOUS
10
2.60709
20
0.0885827
11
2.60702
21
0.085794
0
LINE
8
BLACK
6
CONTINUOUS
10
2.60702
20
0.085794
11
2.6058
21
0.0765189
0
LINE
8
BLACK
6
CONTINUOUS
10
2.6058
20
0.0765189
11
2.60308
21
0.0675677
0
LINE
8
BLACK
6
CONTINUOUS
10
2.60308
20
0.0675677
11
2.59893
21
0.0591809
0
LINE
8
BLACK
6
CONTINUOUS
10
2.59893
20
0.0591809
11
2.59347
21
0.0515837
0
LINE
8
BLACK
6
CONTINUOUS
10
2.59347
20
0.0515837
11
2.58685
21
0.0449802
0
LINE
8
BLACK
6
CONTINUOUS
10
2.58685
20
0.0449802
11
2.57923
21
0.0395476
0
LINE
8
BLACK
6
CONTINUOUS
10
2.57923
20
0.0395476
11
2.57083
21
0.0354319
0
LINE
8
BLACK
6
CONTINUOUS
10
2.57083
20
0.0354319
11
2.56187
21
0.0327435
0
LINE
8
BLACK
6
CONTINUOUS
10
2.56187
20
0.0327435
11
2.55259
21
0.0315548
0
LINE
8
BLACK
6
CONTINUOUS
10
2.55259
20
0.0315548
11
2.54324
21
0.0318976
0
LINE
8
BLACK
6
CONTINUOUS
10
2.54324
20
0.0318976
11
2.53407
21
0.0337628
0
LINE
8
BLACK
6
CONTINUOUS
10
2.53407
20
0.0337628
11
2.52533
21
0.0371001
0
LINE
8
BLACK
6
CONTINUOUS
10
2.52533
20
0.0371001
11
2.51726
21
0.0418201
0
LINE
8
BLACK
6
CONTINUOUS
10
2.51726
20
0.0418201
11
2.51006
21
0.0477959
0
LINE
8
BLACK
6
CONTINUOUS
10
2.51006
20
0.0477959
11
2.50393
21
0.054867
0
LINE
8
BLACK
6
CONTINUOUS
10
2.50393
20
0.054867
11
2.49905
21
0.0628436
0
LINE
8
BLACK
6
CONTINUOUS
10
2.49905
20
0.0628436
11
2.49553
21
0.0715115
0
LINE
8
BLACK
6
CONTINUOUS
10
2.49553
20
0.0715115
11
2.49347
21
0.0806378
0
LINE
8
BLACK
6
CONTINUOUS
10
2.49347
20
0.0806378
11
2.49293
21
0.0899774
0
LINE
8
BLACK
6
CONTINUOUS
10
2.49293
20
0.0899774
11
2.49392
21
0.0992796
0
LINE
8
BLACK
6
CONTINUOUS
10
2.49392
20
0.0992796
11
2.49642
21
0.108295
0
LINE
8
BLACK
6
CONTINUOUS
10
2.49642
20
0.108295
11
2.50036
21
0.11678
0
LINE
8
BLACK
6
CONTINUOUS
10
2.50036
20
0.11678
11
2.50564
21
0.124508
0
LINE
8
BLACK
6
CONTINUOUS
10
2.50564
20
0.124508
11
2.5121
21
0.131272
0
LINE
8
BLACK
6
CONTINUOUS
10
2.5121
20
0.131272
11
2.51958
21
0.136889
0
LINE
8
BLACK
6
CONTINUOUS
10
2.51958
20
0.136889
11
2.52788
21
0.141209
0
LINE
8
BLACK
6
CONTINUOUS
10
2.52788
20
0.141209
11
2.53677
21
0.144115
0
LINE
8
BLACK
6
CONTINUOUS
10
2.53677
20
0.144115
11
2.54602
21
0.14553
0
LINE
8
BLACK
6
CONTINUOUS
10
2.54602
20
0.14553
11
2.55537
21
0.145416
0
LINE
8
BLACK
6
CONTINUOUS
10
0.133477
20
0.102048
11
0.138448
21
0.100303
0
LINE
8
BLACK
6
CONTINUOUS
10
0.138448
20
0.100303
11
0.142685
21
0.0971731
0
LINE
8
BLACK
6
CONTINUOUS
10
0.142685
20
0.0971731
11
0.145815
21
0.0929357
0
LINE
8
BLACK
6
CONTINUOUS
10
0.145815
20
0.0929357
11
0.14756
21
0.0879654
0
LINE
8
BLACK
6
CONTINUOUS
10
0.14756
20
0.0879654
11
0.147874
21
0.0846457
0
LINE
8
BLACK
6
CONTINUOUS
10
0.147874
20
0.0846457
11
0.147874
21
0.0649606
0
LINE
8
BLACK
6
CONTINUOUS
10
0.147874
20
0.0649606
11
0.14756
21
0.0616409
0
LINE
8
BLACK
6
CONTINUOUS
10
0.14756
20
0.0616409
11
0.145815
21
0.0566706
0
LINE
8
BLACK
6
CONTINUOUS
10
0.145815
20
0.0566706
11
0.142685
21
0.0524331
0
LINE
8
BLACK
6
CONTINUOUS
10
0.142685
20
0.0524331
11
0.138448
21
0.0493033
0
LINE
8
BLACK
6
CONTINUOUS
10
0.138448
20
0.0493033
11
0.133477
21
0.0475579
0
LINE
8
BLACK
6
CONTINUOUS
10
0.133477
20
0.0475579
11
0.130157
21
0.0472441
0
LINE
8
BLACK
6
CONTINUOUS
10
0.130157
20
0.0472441
11
0.0435433
21
0.0472441
0
LINE
8
BLACK
6
CONTINUOUS
10
0.0435433
20
0.0472441
11
0.0402235
21
0.0475579
0
LINE
8
BLACK
6
CONTINUOUS
10
0.0402235
20
0.0475579
11
0.0352532
21
0.0493033
0
LINE
8
BLACK
6
CONTINUOUS
10
0.0352532
20
0.0493033
11
0.0310158
21
0.0524331
0
LINE
8
BLACK
6
CONTINUOUS
10
0.0310158
20
0.0524331
11
0.027886
21
0.0566706
0
LINE
8
BLACK
6
CONTINUOUS
10
0.027886
20
0.0566706
11
0.0261406
21
0.0616409
0
LINE
8
BLACK
6
CONTINUOUS
10
0.0261406
20
0.0616409
11
0.0258268
21
0.0649606
0
LINE
8
BLACK
6
CONTINUOUS
10
0.0258268
20
0.0649606
11
0.0258268
21
0.0846457
0
LINE
8
BLACK
6
CONTINUOUS
10
0.0258268
20
0.0846457
11
0.0261406
21
0.0879654
0
LINE
8
BLACK
6
CONTINUOUS
10
0.0261406
20
0.0879654
11
0.027886
21
0.0929357
0
LINE
8
BLACK
6
CONTINUOUS
10
0.027886
20
0.0929357
11
0.0310158
21
0.0971731
0
LINE
8
BLACK
6
CONTINUOUS
10
0.0310158
20
0.0971731
11
0.0352532
21
0.100303
0
LINE
8
BLACK
6
CONTINUOUS
10
0.0352532
20
0.100303
11
0.0402235
21
0.102048
0
LINE
8
BLACK
6
CONTINUOUS
10
0.0402235
20
0.102048
11
0.0435433
21
0.102362
0
LINE
8
BLACK
6
CONTINUOUS
10
0.0435433
20
0.102362
11
0.130157
21
0.102362
0
LINE
8
BLACK
6
CONTINUOUS
10
0.130157
20
0.102362
11
0.133477
21
0.102048
0
LINE
8
BLACK
6
CONTINUOUS
10
3.55978
20
0.102048
11
3.56475
21
0.100303
0
LINE
8
BLACK
6
CONTINUOUS
10
3.56475
20
0.100303
11
3.56898
21
0.0971731
0
LINE
8
BLACK
6
CONTINUOUS
10
3.56898
20
0.0971731
11
3.57211
21
0.0929357
0
LINE
8
BLACK
6
CONTINUOUS
10
3.57211
20
0.0929357
11
3.57386
21
0.0879654
0
LINE
8
BLACK
6
CONTINUOUS
10
3.57386
20
0.0879654
11
3.57417
21
0.0846457
0
LINE
8
BLACK
6
CONTINUOUS
10
3.57417
20
0.0846457
11
3.57417
21
0.0649606
0
LINE
8
BLACK
6
CONTINUOUS
10
3.57417
20
0.0649606
11
3.57386
21
0.0616409
0
LINE
8
BLACK
6
CONTINUOUS
10
3.57386
20
0.0616409
11
3.57211
21
0.0566706
0
LINE
8
BLACK
6
CONTINUOUS
10
3.57211
20
0.0566706
11
3.56898
21
0.0524331
0
LINE
8
BLACK
6
CONTINUOUS
10
3.56898
20
0.0524331
11
3.56475
21
0.0493033
0
LINE
8
BLACK
6
CONTINUOUS
10
3.56475
20
0.0493033
11
3.55978
21
0.0475579
0
LINE
8
BLACK
6
CONTINUOUS
10
3.55978
20
0.0475579
11
3.55646
21
0.0472441
0
LINE
8
BLACK
6
CONTINUOUS
10
3.55646
20
0.0472441
11
3.46984
21
0.0472441
0
LINE
8
BLACK
6
CONTINUOUS
10
3.46984
20
0.0472441
11
3.46652
21
0.0475579
0
LINE
8
BLACK
6
CONTINUOUS
10
3.46652
20
0.0475579
11
3.46155
21
0.0493033
0
LINE
8
BLACK
6
CONTINUOUS
10
3.46155
20
0.0493033
11
3.45732
21
0.0524331
0
LINE
8
BLACK
6
CONTINUOUS
10
3.45732
20
0.0524331
11
3.45419
21
0.0566706
0
LINE
8
BLACK
6
CONTINUOUS
10
3.45419
20
0.0566706
11
3.45244
21
0.0616409
0
LINE
8
BLACK
6
CONTINUOUS
10
3.45244
20
0.0616409
11
3.45213
21
0.0649606
0
LINE
8
BLACK
6
CONTINUOUS
10
3.45213
20
0.0649606
11
3.45213
21
0.0846457
0
LINE
8
BLACK
6
CONTINUOUS
10
3.45213
20
0.0846457
11
3.45244
21
0.0879654
0
LINE
8
BLACK
6
CONTINUOUS
10
3.45244
20
0.0879654
11
3.45419
21
0.0929357
0
LINE
8
BLACK
6
CONTINUOUS
10
3.45419
20
0.0929357
11
3.45732
21
0.0971731
0
LINE
8
BLACK
6
CONTINUOUS
10
3.45732
20
0.0971731
11
3.46155
21
0.100303
0
LINE
8
BLACK
6
CONTINUOUS
10
3.46155
20
0.100303
11
3.46652
21
0.102048
0
LINE
8
BLACK
6
CONTINUOUS
10
3.46652
20
0.102048
11
3.46984
21
0.102362
0
LINE
8
BLACK
6
CONTINUOUS
10
3.46984
20
0.102362
11
3.55646
21
0.102362
0
LINE
8
BLACK
6
CONTINUOUS
10
3.55646
20
0.102362
11
3.55978
21
0.102048
0
LINE
8
BLACK
6
CONTINUOUS
10
3.41866
20
0.166749
11
3.42273
21
0.164761
0
LINE
8
BLACK
6
CONTINUOUS
10
3.42273
20
0.164761
11
3.42593
21
0.161565
0
LINE
8
BLACK
6
CONTINUOUS
10
3.42593
20
0.161565
11
3.42792
21
0.157503
0
LINE
8
BLACK
6
CONTINUOUS
10
3.42792
20
0.157503
11
3.4285
21
0.153543
0
LINE
8
BLACK
6
CONTINUOUS
10
3.4285
20
0.153543
11
3.4285
21
0.141732
0
LINE
8
BLACK
6
CONTINUOUS
10
3.4285
20
0.141732
11
3.42793
21
0.137796
0
LINE
8
BLACK
6
CONTINUOUS
10
3.42793
20
0.137796
11
3.42594
21
0.13373
0
LINE
8
BLACK
6
CONTINUOUS
10
3.42594
20
0.13373
11
3.42275
21
0.130528
0
LINE
8
BLACK
6
CONTINUOUS
10
3.42275
20
0.130528
11
3.41868
21
0.128534
0
LINE
8
BLACK
6
CONTINUOUS
10
3.41868
20
0.128534
11
3.41472
21
0.127953
0
LINE
8
BLACK
6
CONTINUOUS
10
3.41472
20
0.127953
11
3.35961
21
0.127953
0
LINE
8
BLACK
6
CONTINUOUS
10
3.35961
20
0.127953
11
3.35567
21
0.128527
0
LINE
8
BLACK
6
CONTINUOUS
10
3.35567
20
0.128527
11
3.3516
21
0.130514
0
LINE
8
BLACK
6
CONTINUOUS
10
3.3516
20
0.130514
11
3.3484
21
0.133711
0
LINE
8
BLACK
6
CONTINUOUS
10
3.3484
20
0.133711
11
3.34641
21
0.137773
0
LINE
8
BLACK
6
CONTINUOUS
10
3.34641
20
0.137773
11
3.34583
21
0.141732
0
LINE
8
BLACK
6
CONTINUOUS
10
3.34583
20
0.141732
11
3.34583
21
0.153543
0
LINE
8
BLACK
6
CONTINUOUS
10
3.34583
20
0.153543
11
3.3464
21
0.15748
0
LINE
8
BLACK
6
CONTINUOUS
10
3.3464
20
0.15748
11
3.34839
21
0.161545
0
LINE
8
BLACK
6
CONTINUOUS
10
3.34839
20
0.161545
11
3.35158
21
0.164747
0
LINE
8
BLACK
6
CONTINUOUS
10
3.35158
20
0.164747
11
3.35565
21
0.166742
0
LINE
8
BLACK
6
CONTINUOUS
10
3.35565
20
0.166742
11
3.35961
21
0.167323
0
LINE
8
BLACK
6
CONTINUOUS
10
3.35961
20
0.167323
11
3.41472
21
0.167323
0
LINE
8
BLACK
6
CONTINUOUS
10
3.41472
20
0.167323
11
3.41866
21
0.166749
0
LINE
8
BLACK
6
CONTINUOUS
10
0.24433
20
0.166749
11
0.248396
21
0.164761
0
LINE
8
BLACK
6
CONTINUOUS
10
0.248396
20
0.164761
11
0.251598
21
0.161565
0
LINE
8
BLACK
6
CONTINUOUS
10
0.251598
20
0.161565
11
0.253592
21
0.157503
0
LINE
8
BLACK
6
CONTINUOUS
10
0.253592
20
0.157503
11
0.254173
21
0.153543
0
LINE
8
BLACK
6
CONTINUOUS
10
0.254173
20
0.153543
11
0.254173
21
0.141732
0
LINE
8
BLACK
6
CONTINUOUS
10
0.254173
20
0.141732
11
0.253599
21
0.137796
0
LINE
8
BLACK
6
CONTINUOUS
10
0.253599
20
0.137796
11
0.251612
21
0.13373
0
LINE
8
BLACK
6
CONTINUOUS
10
0.251612
20
0.13373
11
0.248415
21
0.130528
0
LINE
8
BLACK
6
CONTINUOUS
10
0.248415
20
0.130528
11
0.244353
21
0.128534
0
LINE
8
BLACK
6
CONTINUOUS
10
0.244353
20
0.128534
11
0.240394
21
0.127953
0
LINE
8
BLACK
6
CONTINUOUS
10
0.240394
20
0.127953
11
0.185276
21
0.127953
0
LINE
8
BLACK
6
CONTINUOUS
10
0.185276
20
0.127953
11
0.181339
21
0.128527
0
LINE
8
BLACK
6
CONTINUOUS
10
0.181339
20
0.128527
11
0.177274
21
0.130514
0
LINE
8
BLACK
6
CONTINUOUS
10
0.177274
20
0.130514
11
0.174071
21
0.133711
0
LINE
8
BLACK
6
CONTINUOUS
10
0.174071
20
0.133711
11
0.172077
21
0.137773
0
LINE
8
BLACK
6
CONTINUOUS
10
0.172077
20
0.137773
11
0.171496
21
0.141732
0
LINE
8
BLACK
6
CONTINUOUS
10
0.171496
20
0.141732
11
0.171496
21
0.153543
0
LINE
8
BLACK
6
CONTINUOUS
10
0.171496
20
0.153543
11
0.17207
21
0.15748
0
LINE
8
BLACK
6
CONTINUOUS
10
0.17207
20
0.15748
11
0.174057
21
0.161545
0
LINE
8
BLACK
6
CONTINUOUS
10
0.174057
20
0.161545
11
0.177254
21
0.164747
0
LINE
8
BLACK
6
CONTINUOUS
10
0.177254
20
0.164747
11
0.181316
21
0.166742
0
LINE
8
BLACK
6
CONTINUOUS
10
0.181316
20
0.166742
11
0.185276
21
0.167323
0
LINE
8
BLACK
6
CONTINUOUS
10
0.185276
20
0.167323
11
0.240394
21
0.167323
0
LINE
8
BLACK
6
CONTINUOUS
10
0.240394
20
0.167323
11
0.24433
21
0.166749
0
LINE
8
BLACK
6
CONTINUOUS
10
3.41866
20
0.215961
11
3.42273
21
0.213974
0
LINE
8
BLACK
6
CONTINUOUS
10
3.42273
20
0.213974
11
3.42593
21
0.210777
0
LINE
8
BLACK
6
CONTINUOUS
10
3.42593
20
0.210777
11
3.42792
21
0.206716
0
LINE
8
BLACK
6
CONTINUOUS
10
3.42792
20
0.206716
11
3.4285
21
0.202756
0
LINE
8
BLACK
6
CONTINUOUS
10
3.4285
20
0.202756
11
3.4285
21
0.190945
0
LINE
8
BLACK
6
CONTINUOUS
10
3.4285
20
0.190945
11
3.42793
21
0.187008
0
LINE
8
BLACK
6
CONTINUOUS
10
3.42793
20
0.187008
11
3.42594
21
0.182943
0
LINE
8
BLACK
6
CONTINUOUS
10
3.42594
20
0.182943
11
3.42275
21
0.179741
0
LINE
8
BLACK
6
CONTINUOUS
10
3.42275
20
0.179741
11
3.41868
21
0.177747
0
LINE
8
BLACK
6
CONTINUOUS
10
3.41868
20
0.177747
11
3.41472
21
0.177165
0
LINE
8
BLACK
6
CONTINUOUS
10
3.41472
20
0.177165
11
3.35961
21
0.177165
0
LINE
8
BLACK
6
CONTINUOUS
10
3.35961
20
0.177165
11
3.35567
21
0.17774
0
LINE
8
BLACK
6
CONTINUOUS
10
3.35567
20
0.17774
11
3.3516
21
0.179727
0
LINE
8
BLACK
6
CONTINUOUS
10
3.3516
20
0.179727
11
3.3484
21
0.182924
0
LINE
8
BLACK
6
CONTINUOUS
10
3.3484
20
0.182924
11
3.34641
21
0.186985
0
LINE
8
BLACK
6
CONTINUOUS
10
3.34641
20
0.186985
11
3.34583
21
0.190945
0
LINE
8
BLACK
6
CONTINUOUS
10
3.34583
20
0.190945
11
3.34583
21
0.202756
0
LINE
8
BLACK
6
CONTINUOUS
10
3.34583
20
0.202756
11
3.3464
21
0.206693
0
LINE
8
BLACK
6
CONTINUOUS
10
3.3464
20
0.206693
11
3.34839
21
0.210758
0
LINE
8
BLACK
6
CONTINUOUS
10
3.34839
20
0.210758
11
3.35158
21
0.21396
0
LINE
8
BLACK
6
CONTINUOUS
10
3.35158
20
0.21396
11
3.35565
21
0.215954
0
LINE
8
BLACK
6
CONTINUOUS
10
3.35565
20
0.215954
11
3.35961
21
0.216535
0
LINE
8
BLACK
6
CONTINUOUS
10
3.35961
20
0.216535
11
3.41472
21
0.216535
0
LINE
8
BLACK
6
CONTINUOUS
10
3.41472
20
0.216535
11
3.41866
21
0.215961
0
LINE
8
BLACK
6
CONTINUOUS
10
0.24433
20
0.215961
11
0.248396
21
0.213974
0
LINE
8
BLACK
6
CONTINUOUS
10
0.248396
20
0.213974
11
0.251598
21
0.210777
0
LINE
8
BLACK
6
CONTINUOUS
10
0.251598
20
0.210777
11
0.253592
21
0.206716
0
LINE
8
BLACK
6
CONTINUOUS
10
0.253592
20
0.206716
11
0.254173
21
0.202756
0
LINE
8
BLACK
6
CONTINUOUS
10
0.254173
20
0.202756
11
0.254173
21
0.190945
0
LINE
8
BLACK
6
CONTINUOUS
10
0.254173
20
0.190945
11
0.253599
21
0.187008
0
LINE
8
BLACK
6
CONTINUOUS
10
0.253599
20
0.187008
11
0.251612
21
0.182943
0
LINE
8
BLACK
6
CONTINUOUS
10
0.251612
20
0.182943
11
0.248415
21
0.179741
0
LINE
8
BLACK
6
CONTINUOUS
10
0.248415
20
0.179741
11
0.244353
21
0.177747
0
LINE
8
BLACK
6
CONTINUOUS
10
0.244353
20
0.177747
11
0.240394
21
0.177165
0
LINE
8
BLACK
6
CONTINUOUS
10
0.240394
20
0.177165
11
0.185276
21
0.177165
0
LINE
8
BLACK
6
CONTINUOUS
10
0.185276
20
0.177165
11
0.181339
21
0.17774
0
LINE
8
BLACK
6
CONTINUOUS
10
0.181339
20
0.17774
11
0.177274
21
0.179727
0
LINE
8
BLACK
6
CONTINUOUS
10
0.177274
20
0.179727
11
0.174071
21
0.182924
0
LINE
8
BLACK
6
CONTINUOUS
10
0.174071
20
0.182924
11
0.172077
21
0.186985
0
LINE
8
BLACK
6
CONTINUOUS
10
0.172077
20
0.186985
11
0.171496
21
0.190945
0
LINE
8
BLACK
6
CONTINUOUS
10
0.171496
20
0.190945
11
0.171496
21
0.202756
0
LINE
8
BLACK
6
CONTINUOUS
10
0.171496
20
0.202756
11
0.17207
21
0.206693
0
LINE
8
BLACK
6
CONTINUOUS
10
0.17207
20
0.206693
11
0.174057
21
0.210758
0
LINE
8
BLACK
6
CONTINUOUS
10
0.174057
20
0.210758
11
0.177254
21
0.21396
0
LINE
8
BLACK
6
CONTINUOUS
10
0.177254
20
0.21396
11
0.181316
21
0.215954
0
LINE
8
BLACK
6
CONTINUOUS
10
0.181316
20
0.215954
11
0.185276
21
0.216535
0
LINE
8
BLACK
6
CONTINUOUS
10
0.185276
20
0.216535
11
0.240394
21
0.216535
0
LINE
8
BLACK
6
CONTINUOUS
10
0.240394
20
0.216535
11
0.24433
21
0.215961
0
LINE
8
BLACK
6
CONTINUOUS
10
3.41866
20
0.265174
11
3.42273
21
0.263187
0
LINE
8
BLACK
6
CONTINUOUS
10
3.42273
20
0.263187
11
3.42593
21
0.25999
0
LINE
8
BLACK
6
CONTINUOUS
10
3.42593
20
0.25999
11
3.42792
21
0.255928
0
LINE
8
BLACK
6
CONTINUOUS
10
3.42792
20
0.255928
11
3.4285
21
0.251969
0
LINE
8
BLACK
6
CONTINUOUS
10
3.4285
20
0.251969
11
3.4285
21
0.240157
0
LINE
8
BLACK
6
CONTINUOUS
10
3.4285
20
0.240157
11
3.42793
21
0.236221
0
LINE
8
BLACK
6
CONTINUOUS
10
3.42793
20
0.236221
11
3.42594
21
0.232156
0
LINE
8
BLACK
6
CONTINUOUS
10
3.42594
20
0.232156
11
3.42275
21
0.228953
0
LINE
8
BLACK
6
CONTINUOUS
10
3.42275
20
0.228953
11
3.41868
21
0.226959
0
LINE
8
BLACK
6
CONTINUOUS
10
3.41868
20
0.226959
11
3.41472
21
0.226378
0
LINE
8
BLACK
6
CONTINUOUS
10
3.41472
20
0.226378
11
3.35961
21
0.226378
0
LINE
8
BLACK
6
CONTINUOUS
10
3.35961
20
0.226378
11
3.35567
21
0.226952
0
LINE
8
BLACK
6
CONTINUOUS
10
3.35567
20
0.226952
11
3.3516
21
0.228939
0
LINE
8
BLACK
6
CONTINUOUS
10
3.3516
20
0.228939
11
3.3484
21
0.232136
0
LINE
8
BLACK
6
CONTINUOUS
10
3.3484
20
0.232136
11
3.34641
21
0.236198
0
LINE
8
BLACK
6
CONTINUOUS
10
3.34641
20
0.236198
11
3.34583
21
0.240157
0
LINE
8
BLACK
6
CONTINUOUS
10
3.34583
20
0.240157
11
3.34583
21
0.251969
0
LINE
8
BLACK
6
CONTINUOUS
10
3.34583
20
0.251969
11
3.3464
21
0.255905
0
LINE
8
BLACK
6
CONTINUOUS
10
3.3464
20
0.255905
11
3.34839
21
0.25997
0
LINE
8
BLACK
6
CONTINUOUS
10
3.34839
20
0.25997
11
3.35158
21
0.263173
0
LINE
8
BLACK
6
CONTINUOUS
10
3.35158
20
0.263173
11
3.35565
21
0.265167
0
LINE
8
BLACK
6
CONTINUOUS
10
3.35565
20
0.265167
11
3.35961
21
0.265748
0
LINE
8
BLACK
6
CONTINUOUS
10
3.35961
20
0.265748
11
3.41472
21
0.265748
0
LINE
8
BLACK
6
CONTINUOUS
10
3.41472
20
0.265748
11
3.41866
21
0.265174
0
LINE
8
BLACK
6
CONTINUOUS
10
0.24433
20
0.265174
11
0.248396
21
0.263187
0
LINE
8
BLACK
6
CONTINUOUS
10
0.248396
20
0.263187
11
0.251598
21
0.25999
0
LINE
8
BLACK
6
CONTINUOUS
10
0.251598
20
0.25999
11
0.253592
21
0.255928
0
LINE
8
BLACK
6
CONTINUOUS
10
0.253592
20
0.255928
11
0.254173
21
0.251969
0
LINE
8
BLACK
6
CONTINUOUS
10
0.254173
20
0.251969
11
0.254173
21
0.240157
0
LINE
8
BLACK
6
CONTINUOUS
10
0.254173
20
0.240157
11
0.253599
21
0.236221
0
LINE
8
BLACK
6
CONTINUOUS
10
0.253599
20
0.236221
11
0.251612
21
0.232156
0
LINE
8
BLACK
6
CONTINUOUS
10
0.251612
20
0.232156
11
0.248415
21
0.228953
0
LINE
8
BLACK
6
CONTINUOUS
10
0.248415
20
0.228953
11
0.244353
21
0.226959
0
LINE
8
BLACK
6
CONTINUOUS
10
0.244353
20
0.226959
11
0.240394
21
0.226378
0
LINE
8
BLACK
6
CONTINUOUS
10
0.240394
20
0.226378
11
0.185276
21
0.226378
0
LINE
8
BLACK
6
CONTINUOUS
10
0.185276
20
0.226378
11
0.181339
21
0.226952
0
LINE
8
BLACK
6
CONTINUOUS
10
0.181339
20
0.226952
11
0.177274
21
0.228939
0
LINE
8
BLACK
6
CONTINUOUS
10
0.177274
20
0.228939
11
0.174071
21
0.232136
0
LINE
8
BLACK
6
CONTINUOUS
10
0.174071
20
0.232136
11
0.172077
21
0.236198
0
LINE
8
BLACK
6
CONTINUOUS
10
0.172077
20
0.236198
11
0.171496
21
0.240157
0
LINE
8
BLACK
6
CONTINUOUS
10
0.171496
20
0.240157
11
0.171496
21
0.251969
0
LINE
8
BLACK
6
CONTINUOUS
10
0.171496
20
0.251969
11
0.17207
21
0.255905
0
LINE
8
BLACK
6
CONTINUOUS
10
0.17207
20
0.255905
11
0.174057
21
0.25997
0
LINE
8
BLACK
6
CONTINUOUS
10
0.174057
20
0.25997
11
0.177254
21
0.263173
0
LINE
8
BLACK
6
CONTINUOUS
10
0.177254
20
0.263173
11
0.181316
21
0.265167
0
LINE
8
BLACK
6
CONTINUOUS
10
0.181316
20
0.265167
11
0.185276
21
0.265748
0
LINE
8
BLACK
6
CONTINUOUS
10
0.185276
20
0.265748
11
0.240394
21
0.265748
0
LINE
8
BLACK
6
CONTINUOUS
10
0.240394
20
0.265748
11
0.24433
21
0.265174
0
LINE
8
BLACK
6
CONTINUOUS
10
3.55978
20
0.346143
11
3.56475
21
0.344397
0
LINE
8
BLACK
6
CONTINUOUS
10
3.56475
20
0.344397
11
3.56898
21
0.341268
0
LINE
8
BLACK
6
CONTINUOUS
10
3.56898
20
0.341268
11
3.57211
21
0.33703
0
LINE
8
BLACK
6
CONTINUOUS
10
3.57211
20
0.33703
11
3.57386
21
0.33206
0
LINE
8
BLACK
6
CONTINUOUS
10
3.57386
20
0.33206
11
3.57417
21
0.32874
0
LINE
8
BLACK
6
CONTINUOUS
10
3.57417
20
0.32874
11
3.57417
21
0.309055
0
LINE
8
BLACK
6
CONTINUOUS
10
3.57417
20
0.309055
11
3.57386
21
0.305735
0
LINE
8
BLACK
6
CONTINUOUS
10
3.57386
20
0.305735
11
3.57211
21
0.300765
0
LINE
8
BLACK
6
CONTINUOUS
10
3.57211
20
0.300765
11
3.56898
21
0.296528
0
LINE
8
BLACK
6
CONTINUOUS
10
3.56898
20
0.296528
11
3.56475
21
0.293398
0
LINE
8
BLACK
6
CONTINUOUS
10
3.56475
20
0.293398
11
3.55978
21
0.291652
0
LINE
8
BLACK
6
CONTINUOUS
10
3.55978
20
0.291652
11
3.55646
21
0.291339
0
LINE
8
BLACK
6
CONTINUOUS
10
3.55646
20
0.291339
11
3.46984
21
0.291339
0
LINE
8
BLACK
6
CONTINUOUS
10
3.46984
20
0.291339
11
3.46652
21
0.291652
0
LINE
8
BLACK
6
CONTINUOUS
10
3.46652
20
0.291652
11
3.46155
21
0.293398
0
LINE
8
BLACK
6
CONTINUOUS
10
3.46155
20
0.293398
11
3.45732
21
0.296528
0
LINE
8
BLACK
6
CONTINUOUS
10
3.45732
20
0.296528
11
3.45419
21
0.300765
0
LINE
8
BLACK
6
CONTINUOUS
10
3.45419
20
0.300765
11
3.45244
21
0.305735
0
LINE
8
BLACK
6
CONTINUOUS
10
3.45244
20
0.305735
11
3.45213
21
0.309055
0
LINE
8
BLACK
6
CONTINUOUS
10
3.45213
20
0.309055
11
3.45213
21
0.32874
0
LINE
8
BLACK
6
CONTINUOUS
10
3.45213
20
0.32874
11
3.45244
21
0.33206
0
LINE
8
BLACK
6
CONTINUOUS
10
3.45244
20
0.33206
11
3.45419
21
0.33703
0
LINE
8
BLACK
6
CONTINUOUS
10
3.45419
20
0.33703
11
3.45732
21
0.341268
0
LINE
8
BLACK
6
CONTINUOUS
10
3.45732
20
0.341268
11
3.46155
21
0.344397
0
LINE
8
BLACK
6
CONTINUOUS
10
3.46155
20
0.344397
11
3.46652
21
0.346143
0
LINE
8
BLACK
6
CONTINUOUS
10
3.46652
20
0.346143
11
3.46984
21
0.346457
0
LINE
8
BLACK
6
CONTINUOUS
10
3.46984
20
0.346457
11
3.55646
21
0.346457
0
LINE
8
BLACK
6
CONTINUOUS
10
3.55646
20
0.346457
11
3.55978
21
0.346143
0
LINE
8
BLACK
6
CONTINUOUS
10
0.133477
20
0.346143
11
0.138448
21
0.344397
0
LINE
8
BLACK
6
CONTINUOUS
10
0.138448
20
0.344397
11
0.142685
21
0.341268
0
LINE
8
BLACK
6
CONTINUOUS
10
0.142685
20
0.341268
11
0.145815
21
0.33703
0
LINE
8
BLACK
6
CONTINUOUS
10
0.145815
20
0.33703
11
0.14756
21
0.33206
0
LINE
8
BLACK
6
CONTINUOUS
10
0.14756
20
0.33206
11
0.147874
21
0.32874
0
LINE
8
BLACK
6
CONTINUOUS
10
0.147874
20
0.32874
11
0.147874
21
0.309055
0
LINE
8
BLACK
6
CONTINUOUS
10
0.147874
20
0.309055
11
0.14756
21
0.305735
0
LINE
8
BLACK
6
CONTINUOUS
10
0.14756
20
0.305735
11
0.145815
21
0.300765
0
LINE
8
BLACK
6
CONTINUOUS
10
0.145815
20
0.300765
11
0.142685
21
0.296528
0
LINE
8
BLACK
6
CONTINUOUS
10
0.142685
20
0.296528
11
0.138448
21
0.293398
0
LINE
8
BLACK
6
CONTINUOUS
10
0.138448
20
0.293398
11
0.133477
21
0.291652
0
LINE
8
BLACK
6
CONTINUOUS
10
0.133477
20
0.291652
11
0.130157
21
0.291339
0
LINE
8
BLACK
6
CONTINUOUS
10
0.130157
20
0.291339
11
0.0435433
21
0.291339
0
LINE
8
BLACK
6
CONTINUOUS
10
0.0435433
20
0.291339
11
0.0402235
21
0.291652
0
LINE
8
BLACK
6
CONTINUOUS
10
0.0402235
20
0.291652
11
0.0352532
21
0.293398
0
LINE
8
BLACK
6
CONTINUOUS
10
0.0352532
20
0.293398
11
0.0310158
21
0.296528
0
LINE
8
BLACK
6
CONTINUOUS
10
0.0310158
20
0.296528
11
0.027886
21
0.300765
0
LINE
8
BLACK
6
CONTINUOUS
10
0.027886
20
0.300765
11
0.0261406
21
0.305735
0
LINE
8
BLACK
6
CONTINUOUS
10
0.0261406
20
0.305735
11
0.0258268
21
0.309055
0
LINE
8
BLACK
6
CONTINUOUS
10
0.0258268
20
0.309055
11
0.0258268
21
0.32874
0
LINE
8
BLACK
6
CONTINUOUS
10
0.0258268
20
0.32874
11
0.0261406
21
0.33206
0
LINE
8
BLACK
6
CONTINUOUS
10
0.0261406
20
0.33206
11
0.027886
21
0.33703
0
LINE
8
BLACK
6
CONTINUOUS
10
0.027886
20
0.33703
11
0.0310158
21
0.341268
0
LINE
8
BLACK
6
CONTINUOUS
10
0.0310158
20
0.341268
11
0.0352532
21
0.344397
0
LINE
8
BLACK
6
CONTINUOUS
10
0.0352532
20
0.344397
11
0.0402235
21
0.346143
0
LINE
8
BLACK
6
CONTINUOUS
10
0.0402235
20
0.346143
11
0.0435433
21
0.346457
0
LINE
8
BLACK
6
CONTINUOUS
10
0.0435433
20
0.346457
11
0.130157
21
0.346457
0
LINE
8
BLACK
6
CONTINUOUS
10
0.130157
20
0.346457
11
0.133477
21
0.346143
0
LINE
8
BLACK
6
CONTINUOUS
10
0.183446
20
0.541172
11
0.186001
21
0.539465
0
LINE
8
BLACK
6
CONTINUOUS
10
0.186001
20
0.539465
11
0.187708
21
0.536911
0
LINE
8
BLACK
6
CONTINUOUS
10
0.187708
20
0.536911
11
0.188307
21
0.533898
0
LINE
8
BLACK
6
CONTINUOUS
10
0.188307
20
0.533898
11
0.188307
21
0.396102
0
LINE
8
BLACK
6
CONTINUOUS
10
0.188307
20
0.396102
11
0.187708
21
0.393089
0
LINE
8
BLACK
6
CONTINUOUS
10
0.187708
20
0.393089
11
0.186001
21
0.390535
0
LINE
8
BLACK
6
CONTINUOUS
10
0.186001
20
0.390535
11
0.183446
21
0.388828
0
LINE
8
BLACK
6
CONTINUOUS
10
0.183446
20
0.388828
11
0.180433
21
0.388228
0
LINE
8
BLACK
6
CONTINUOUS
10
0.180433
20
0.388228
11
0.109567
21
0.388228
0
LINE
8
BLACK
6
CONTINUOUS
10
0.109567
20
0.388228
11
0.106554
21
0.388828
0
LINE
8
BLACK
6
CONTINUOUS
10
0.106554
20
0.388828
11
0.103999
21
0.390535
0
LINE
8
BLACK
6
CONTINUOUS
10
0.103999
20
0.390535
11
0.102292
21
0.393089
0
LINE
8
BLACK
6
CONTINUOUS
10
0.102292
20
0.393089
11
0.101693
21
0.396102
0
LINE
8
BLACK
6
CONTINUOUS
10
0.101693
20
0.396102
11
0.101693
21
0.533898
0
LINE
8
BLACK
6
CONTINUOUS
10
0.101693
20
0.533898
11
0.102292
21
0.536911
0
LINE
8
BLACK
6
CONTINUOUS
10
0.102292
20
0.536911
11
0.103999
21
0.539465
0
LINE
8
BLACK
6
CONTINUOUS
10
0.103999
20
0.539465
11
0.106554
21
0.541172
0
LINE
8
BLACK
6
CONTINUOUS
10
0.106554
20
0.541172
11
0.109567
21
0.541772
0
LINE
8
BLACK
6
CONTINUOUS
10
0.109567
20
0.541772
11
0.180433
21
0.541772
0
LINE
8
BLACK
6
CONTINUOUS
10
0.180433
20
0.541772
11
0.183446
21
0.541172
0
LINE
8
BLACK
6
CONTINUOUS
10
3.47345
20
0.547747
11
3.476
21
0.54604
0
LINE
8
BLACK
6
CONTINUOUS
10
3.476
20
0.54604
11
3.47771
21
0.543486
0
LINE
8
BLACK
6
CONTINUOUS
10
3.47771
20
0.543486
11
3.47831
21
0.540472
0
LINE
8
BLACK
6
CONTINUOUS
10
3.47831
20
0.540472
11
3.47831
21
0.402677
0
LINE
8
BLACK
6
CONTINUOUS
10
3.47831
20
0.402677
11
3.47771
21
0.399664
0
LINE
8
BLACK
6
CONTINUOUS
10
3.47771
20
0.399664
11
3.476
21
0.397109
0
LINE
8
BLACK
6
CONTINUOUS
10
3.476
20
0.397109
11
3.47345
21
0.395403
0
LINE
8
BLACK
6
CONTINUOUS
10
3.47345
20
0.395403
11
3.47043
21
0.394803
0
LINE
8
BLACK
6
CONTINUOUS
10
3.47043
20
0.394803
11
3.39957
21
0.394803
0
LINE
8
BLACK
6
CONTINUOUS
10
3.39957
20
0.394803
11
3.39655
21
0.395403
0
LINE
8
BLACK
6
CONTINUOUS
10
3.39655
20
0.395403
11
3.394
21
0.397109
0
LINE
8
BLACK
6
CONTINUOUS
10
3.394
20
0.397109
11
3.39229
21
0.399664
0
LINE
8
BLACK
6
CONTINUOUS
10
3.39229
20
0.399664
11
3.39169
21
0.402677
0
LINE
8
BLACK
6
CONTINUOUS
10
3.39169
20
0.402677
11
3.39169
21
0.540472
0
LINE
8
BLACK
6
CONTINUOUS
10
3.39169
20
0.540472
11
3.39229
21
0.543486
0
LINE
8
BLACK
6
CONTINUOUS
10
3.39229
20
0.543486
11
3.394
21
0.54604
0
LINE
8
BLACK
6
CONTINUOUS
10
3.394
20
0.54604
11
3.39655
21
0.547747
0
LINE
8
BLACK
6
CONTINUOUS
10
3.39655
20
0.547747
11
3.39957
21
0.548346
0
LINE
8
BLACK
6
CONTINUOUS
10
3.39957
20
0.548346
11
3.47043
21
0.548346
0
LINE
8
BLACK
6
CONTINUOUS
10
3.47043
20
0.548346
11
3.47345
21
0.547747
0
LINE
8
BLACK
6
CONTINUOUS
10
0.183446
20
0.738023
11
0.186001
21
0.736316
0
LINE
8
BLACK
6
CONTINUOUS
10
0.186001
20
0.736316
11
0.187708
21
0.733761
0
LINE
8
BLACK
6
CONTINUOUS
10
0.187708
20
0.733761
11
0.188307
21
0.730748
0
LINE
8
BLACK
6
CONTINUOUS
10
0.188307
20
0.730748
11
0.188307
21
0.592953
0
LINE
8
BLACK
6
CONTINUOUS
10
0.188307
20
0.592953
11
0.187708
21
0.589939
0
LINE
8
BLACK
6
CONTINUOUS
10
0.187708
20
0.589939
11
0.186001
21
0.587385
0
LINE
8
BLACK
6
CONTINUOUS
10
0.186001
20
0.587385
11
0.183446
21
0.585678
0
LINE
8
BLACK
6
CONTINUOUS
10
0.183446
20
0.585678
11
0.180433
21
0.585079
0
LINE
8
BLACK
6
CONTINUOUS
10
0.180433
20
0.585079
11
0.109567
21
0.585079
0
LINE
8
BLACK
6
CONTINUOUS
10
0.109567
20
0.585079
11
0.106554
21
0.585678
0
LINE
8
BLACK
6
CONTINUOUS
10
0.106554
20
0.585678
11
0.103999
21
0.587385
0
LINE
8
BLACK
6
CONTINUOUS
10
0.103999
20
0.587385
11
0.102292
21
0.589939
0
LINE
8
BLACK
6
CONTINUOUS
10
0.102292
20
0.589939
11
0.101693
21
0.592953
0
LINE
8
BLACK
6
CONTINUOUS
10
0.101693
20
0.592953
11
0.101693
21
0.730748
0
LINE
8
BLACK
6
CONTINUOUS
10
0.101693
20
0.730748
11
0.102292
21
0.733761
0
LINE
8
BLACK
6
CONTINUOUS
10
0.102292
20
0.733761
11
0.103999
21
0.736316
0
LINE
8
BLACK
6
CONTINUOUS
10
0.103999
20
0.736316
11
0.106554
21
0.738023
0
LINE
8
BLACK
6
CONTINUOUS
10
0.106554
20
0.738023
11
0.109567
21
0.738622
0
LINE
8
BLACK
6
CONTINUOUS
10
0.109567
20
0.738622
11
0.180433
21
0.738622
0
LINE
8
BLACK
6
CONTINUOUS
10
0.180433
20
0.738622
11
0.183446
21
0.738023
0
LINE
8
BLACK
6
CONTINUOUS
10
3.47345
20
0.744597
11
3.476
21
0.742891
0
LINE
8
BLACK
6
CONTINUOUS
10
3.476
20
0.742891
11
3.47771
21
0.740336
0
LINE
8
BLACK
6
CONTINUOUS
10
3.47771
20
0.740336
11
3.47831
21
0.737323
0
LINE
8
BLACK
6
CONTINUOUS
10
3.47831
20
0.737323
11
3.47831
21
0.599528
0
LINE
8
BLACK
6
CONTINUOUS
10
3.47831
20
0.599528
11
3.47771
21
0.596514
0
LINE
8
BLACK
6
CONTINUOUS
10
3.47771
20
0.596514
11
3.476
21
0.59396
0
LINE
8
BLACK
6
CONTINUOUS
10
3.476
20
0.59396
11
3.47345
21
0.592253
0
LINE
8
BLACK
6
CONTINUOUS
10
3.47345
20
0.592253
11
3.47043
21
0.591654
0
LINE
8
BLACK
6
CONTINUOUS
10
3.47043
20
0.591654
11
3.39957
21
0.591654
0
LINE
8
BLACK
6
CONTINUOUS
10
3.39957
20
0.591654
11
3.39655
21
0.592253
0
LINE
8
BLACK
6
CONTINUOUS
10
3.39655
20
0.592253
11
3.394
21
0.59396
0
LINE
8
BLACK
6
CONTINUOUS
10
3.394
20
0.59396
11
3.39229
21
0.596514
0
LINE
8
BLACK
6
CONTINUOUS
10
3.39229
20
0.596514
11
3.39169
21
0.599528
0
LINE
8
BLACK
6
CONTINUOUS
10
3.39169
20
0.599528
11
3.39169
21
0.737323
0
LINE
8
BLACK
6
CONTINUOUS
10
3.39169
20
0.737323
11
3.39229
21
0.740336
0
LINE
8
BLACK
6
CONTINUOUS
10
3.39229
20
0.740336
11
3.394
21
0.742891
0
LINE
8
BLACK
6
CONTINUOUS
10
3.394
20
0.742891
11
3.39655
21
0.744597
0
LINE
8
BLACK
6
CONTINUOUS
10
3.39655
20
0.744597
11
3.39957
21
0.745197
0
LINE
8
BLACK
6
CONTINUOUS
10
3.39957
20
0.745197
11
3.47043
21
0.745197
0
LINE
8
BLACK
6
CONTINUOUS
10
3.47043
20
0.745197
11
3.47345
21
0.744597
0
LINE
8
BLACK
6
CONTINUOUS
10
1.06807
20
0.811284
11
1.07981
21
0.808271
0
LINE
8
BLACK
6
CONTINUOUS
10
1.07981
20
0.808271
11
1.09107
21
0.803812
0
LINE
8
BLACK
6
CONTINUOUS
10
1.09107
20
0.803812
11
1.10168
21
0.797976
0
LINE
8
BLACK
6
CONTINUOUS
10
1.10168
20
0.797976
11
1.11148
21
0.790857
0
LINE
8
BLACK
6
CONTINUOUS
10
1.11148
20
0.790857
11
1.12031
21
0.782565
0
LINE
8
BLACK
6
CONTINUOUS
10
1.12031
20
0.782565
11
1.12804
21
0.773231
0
LINE
8
BLACK
6
CONTINUOUS
10
1.12804
20
0.773231
11
1.13453
21
0.763004
0
LINE
8
BLACK
6
CONTINUOUS
10
1.13453
20
0.763004
11
1.13968
21
0.752044
0
LINE
8
BLACK
6
CONTINUOUS
10
1.13968
20
0.752044
11
1.14343
21
0.740523
0
LINE
8
BLACK
6
CONTINUOUS
10
1.14343
20
0.740523
11
1.1457
21
0.728625
0
LINE
8
BLACK
6
CONTINUOUS
10
1.1457
20
0.728625
11
1.14646
21
0.716535
0
LINE
8
BLACK
6
CONTINUOUS
10
1.14646
20
0.716535
11
1.1457
21
0.704446
0
LINE
8
BLACK
6
CONTINUOUS
10
1.1457
20
0.704446
11
1.14343
21
0.692548
0
LINE
8
BLACK
6
CONTINUOUS
10
1.14343
20
0.692548
11
1.13968
21
0.681027
0
LINE
8
BLACK
6
CONTINUOUS
10
1.13968
20
0.681027
11
1.13453
21
0.670067
0
LINE
8
BLACK
6
CONTINUOUS
10
1.13453
20
0.670067
11
1.12804
21
0.65984
0
LINE
8
BLACK
6
CONTINUOUS
10
1.12804
20
0.65984
11
1.12031
21
0.650506
0
LINE
8
BLACK
6
CONTINUOUS
10
1.12031
20
0.650506
11
1.11148
21
0.642214
0
LINE
8
BLACK
6
CONTINUOUS
10
1.11148
20
0.642214
11
1.10168
21
0.635094
0
LINE
8
BLACK
6
CONTINUOUS
10
1.10168
20
0.635094
11
1.09107
21
0.629259
0
LINE
8
BLACK
6
CONTINUOUS
10
1.09107
20
0.629259
11
1.07981
21
0.6248
0
LINE
8
BLACK
6
CONTINUOUS
10
1.07981
20
0.6248
11
1.06807
21
0.621787
0
LINE
8
BLACK
6
CONTINUOUS
10
1.06807
20
0.621787
11
1.05606
21
0.620269
0
LINE
8
BLACK
6
CONTINUOUS
10
1.05606
20
0.620269
11
1.04394
21
0.620269
0
LINE
8
BLACK
6
CONTINUOUS
10
1.04394
20
0.620269
11
1.03193
21
0.621787
0
LINE
8
BLACK
6
CONTINUOUS
10
1.03193
20
0.621787
11
1.02019
21
0.6248
0
LINE
8
BLACK
6
CONTINUOUS
10
1.02019
20
0.6248
11
1.00893
21
0.629259
0
LINE
8
BLACK
6
CONTINUOUS
10
1.00893
20
0.629259
11
0.998316
21
0.635094
0
LINE
8
BLACK
6
CONTINUOUS
10
0.998316
20
0.635094
11
0.988516
21
0.642214
0
LINE
8
BLACK
6
CONTINUOUS
10
0.988516
20
0.642214
11
0.979686
21
0.650506
0
LINE
8
BLACK
6
CONTINUOUS
10
0.979686
20
0.650506
11
0.971965
21
0.65984
0
LINE
8
BLACK
6
CONTINUOUS
10
0.971965
20
0.65984
11
0.965474
21
0.670067
0
LINE
8
BLACK
6
CONTINUOUS
10
0.965474
20
0.670067
11
0.960317
21
0.681027
0
LINE
8
BLACK
6
CONTINUOUS
10
0.960317
20
0.681027
11
0.956574
21
0.692548
0
LINE
8
BLACK
6
CONTINUOUS
10
0.956574
20
0.692548
11
0.954304
21
0.704446
0
LINE
8
BLACK
6
CONTINUOUS
10
0.954304
20
0.704446
11
0.953543
21
0.716535
0
LINE
8
BLACK
6
CONTINUOUS
10
0.953543
20
0.716535
11
0.954304
21
0.728625
0
LINE
8
BLACK
6
CONTINUOUS
10
0.954304
20
0.728625
11
0.956574
21
0.740523
0
LINE
8
BLACK
6
CONTINUOUS
10
0.956574
20
0.740523
11
0.960317
21
0.752044
0
LINE
8
BLACK
6
CONTINUOUS
10
0.960317
20
0.752044
11
0.965474
21
0.763004
0
LINE
8
BLACK
6
CONTINUOUS
10
0.965474
20
0.763004
11
0.971965
21
0.773231
0
LINE
8
BLACK
6
CONTINUOUS
10
0.971965
20
0.773231
11
0.979686
21
0.782565
0
LINE
8
BLACK
6
CONTINUOUS
10
0.979686
20
0.782565
11
0.988516
21
0.790857
0
LINE
8
BLACK
6
CONTINUOUS
10
0.988516
20
0.790857
11
0.998316
21
0.797976
0
LINE
8
BLACK
6
CONTINUOUS
10
0.998316
20
0.797976
11
1.00893
21
0.803812
0
LINE
8
BLACK
6
CONTINUOUS
10
1.00893
20
0.803812
11
1.02019
21
0.808271
0
LINE
8
BLACK
6
CONTINUOUS
10
1.02019
20
0.808271
11
1.03193
21
0.811284
0
LINE
8
BLACK
6
CONTINUOUS
10
1.03193
20
0.811284
11
1.04394
21
0.812802
0
LINE
8
BLACK
6
CONTINUOUS
10
1.04394
20
0.812802
11
1.05606
21
0.812802
0
LINE
8
BLACK
6
CONTINUOUS
10
1.05606
20
0.812802
11
1.06807
21
0.811284
0
LINE
8
BLACK
6
CONTINUOUS
10
2.56807
20
0.811284
11
2.57981
21
0.808271
0
LINE
8
BLACK
6
CONTINUOUS
10
2.57981
20
0.808271
11
2.59107
21
0.803812
0
LINE
8
BLACK
6
CONTINUOUS
10
2.59107
20
0.803812
11
2.60168
21
0.797976
0
LINE
8
BLACK
6
CONTINUOUS
10
2.60168
20
0.797976
11
2.61148
21
0.790857
0
LINE
8
BLACK
6
CONTINUOUS
10
2.61148
20
0.790857
11
2.62031
21
0.782565
0
LINE
8
BLACK
6
CONTINUOUS
10
2.62031
20
0.782565
11
2.62804
21
0.773231
0
LINE
8
BLACK
6
CONTINUOUS
10
2.62804
20
0.773231
11
2.63453
21
0.763004
0
LINE
8
BLACK
6
CONTINUOUS
10
2.63453
20
0.763004
11
2.63968
21
0.752044
0
LINE
8
BLACK
6
CONTINUOUS
10
2.63968
20
0.752044
11
2.64343
21
0.740523
0
LINE
8
BLACK
6
CONTINUOUS
10
2.64343
20
0.740523
11
2.6457
21
0.728625
0
LINE
8
BLACK
6
CONTINUOUS
10
2.6457
20
0.728625
11
2.64646
21
0.716535
0
LINE
8
BLACK
6
CONTINUOUS
10
2.64646
20
0.716535
11
2.6457
21
0.704446
0
LINE
8
BLACK
6
CONTINUOUS
10
2.6457
20
0.704446
11
2.64343
21
0.692548
0
LINE
8
BLACK
6
CONTINUOUS
10
2.64343
20
0.692548
11
2.63968
21
0.681027
0
LINE
8
BLACK
6
CONTINUOUS
10
2.63968
20
0.681027
11
2.63453
21
0.670067
0
LINE
8
BLACK
6
CONTINUOUS
10
2.63453
20
0.670067
11
2.62804
21
0.65984
0
LINE
8
BLACK
6
CONTINUOUS
10
2.62804
20
0.65984
11
2.62031
21
0.650506
0
LINE
8
BLACK
6
CONTINUOUS
10
2.62031
20
0.650506
11
2.61148
21
0.642214
0
LINE
8
BLACK
6
CONTINUOUS
10
2.61148
20
0.642214
11
2.60168
21
0.635094
0
LINE
8
BLACK
6
CONTINUOUS
10
2.60168
20
0.635094
11
2.59107
21
0.629259
0
LINE
8
BLACK
6
CONTINUOUS
10
2.59107
20
0.629259
11
2.57981
21
0.6248
0
LINE
8
BLACK
6
CONTINUOUS
10
2.57981
20
0.6248
11
2.56807
21
0.621787
0
LINE
8
BLACK
6
CONTINUOUS
10
2.56807
20
0.621787
11
2.55606
21
0.620269
0
LINE
8
BLACK
6
CONTINUOUS
10
2.55606
20
0.620269
11
2.54394
21
0.620269
0
LINE
8
BLACK
6
CONTINUOUS
10
2.54394
20
0.620269
11
2.53193
21
0.621787
0
LINE
8
BLACK
6
CONTINUOUS
10
2.53193
20
0.621787
11
2.52019
21
0.6248
0
LINE
8
BLACK
6
CONTINUOUS
10
2.52019
20
0.6248
11
2.50893
21
0.629259
0
LINE
8
BLACK
6
CONTINUOUS
10
2.50893
20
0.629259
11
2.49832
21
0.635094
0
LINE
8
BLACK
6
CONTINUOUS
10
2.49832
20
0.635094
11
2.48852
21
0.642214
0
LINE
8
BLACK
6
CONTINUOUS
10
2.48852
20
0.642214
11
2.47969
21
0.650506
0
LINE
8
BLACK
6
CONTINUOUS
10
2.47969
20
0.650506
11
2.47196
21
0.65984
0
LINE
8
BLACK
6
CONTINUOUS
10
2.47196
20
0.65984
11
2.46547
21
0.670067
0
LINE
8
BLACK
6
CONTINUOUS
10
2.46547
20
0.670067
11
2.46032
21
0.681027
0
LINE
8
BLACK
6
CONTINUOUS
10
2.46032
20
0.681027
11
2.45657
21
0.692548
0
LINE
8
BLACK
6
CONTINUOUS
10
2.45657
20
0.692548
11
2.4543
21
0.704446
0
LINE
8
BLACK
6
CONTINUOUS
10
2.4543
20
0.704446
11
2.45354
21
0.716535
0
LINE
8
BLACK
6
CONTINUOUS
10
2.45354
20
0.716535
11
2.4543
21
0.728625
0
LINE
8
BLACK
6
CONTINUOUS
10
2.4543
20
0.728625
11
2.45657
21
0.740523
0
LINE
8
BLACK
6
CONTINUOUS
10
2.45657
20
0.740523
11
2.46032
21
0.752044
0
LINE
8
BLACK
6
CONTINUOUS
10
2.46032
20
0.752044
11
2.46547
21
0.763004
0
LINE
8
BLACK
6
CONTINUOUS
10
2.46547
20
0.763004
11
2.47196
21
0.773231
0
LINE
8
BLACK
6
CONTINUOUS
10
2.47196
20
0.773231
11
2.47969
21
0.782565
0
LINE
8
BLACK
6
CONTINUOUS
10
2.47969
20
0.782565
11
2.48852
21
0.790857
0
LINE
8
BLACK
6
CONTINUOUS
10
2.48852
20
0.790857
11
2.49832
21
0.797976
0
LINE
8
BLACK
6
CONTINUOUS
10
2.49832
20
0.797976
11
2.50893
21
0.803812
0
LINE
8
BLACK
6
CONTINUOUS
10
2.50893
20
0.803812
11
2.52019
21
0.808271
0
LINE
8
BLACK
6
CONTINUOUS
10
2.52019
20
0.808271
11
2.53193
21
0.811284
0
LINE
8
BLACK
6
CONTINUOUS
10
2.53193
20
0.811284
11
2.54394
21
0.812802
0
LINE
8
BLACK
6
CONTINUOUS
10
2.54394
20
0.812802
11
2.55606
21
0.812802
0
LINE
8
BLACK
6
CONTINUOUS
10
2.55606
20
0.812802
11
2.56807
21
0.811284
0
LINE
8
BLACK
6
CONTINUOUS
10
0.191469
20
0.860119
11
0.19644
21
0.858374
0
LINE
8
BLACK
6
CONTINUOUS
10
0.19644
20
0.858374
11
0.200677
21
0.855244
0
LINE
8
BLACK
6
CONTINUOUS
10
0.200677
20
0.855244
11
0.203807
21
0.851007
0
LINE
8
BLACK
6
CONTINUOUS
10
0.203807
20
0.851007
11
0.205552
21
0.846036
0
LINE
8
BLACK
6
CONTINUOUS
10
0.205552
20
0.846036
11
0.205866
21
0.842717
0
LINE
8
BLACK
6
CONTINUOUS
10
0.205866
20
0.842717
11
0.205866
21
0.807283
0
LINE
8
BLACK
6
CONTINUOUS
10
0.205866
20
0.807283
11
0.205552
21
0.803964
0
LINE
8
BLACK
6
CONTINUOUS
10
0.205552
20
0.803964
11
0.203807
21
0.798993
0
LINE
8
BLACK
6
CONTINUOUS
10
0.203807
20
0.798993
11
0.200677
21
0.794756
0
LINE
8
BLACK
6
CONTINUOUS
10
0.200677
20
0.794756
11
0.19644
21
0.791626
0
LINE
8
BLACK
6
CONTINUOUS
10
0.19644
20
0.791626
11
0.191469
21
0.789881
0
LINE
8
BLACK
6
CONTINUOUS
10
0.191469
20
0.789881
11
0.18815
21
0.789567
0
LINE
8
BLACK
6
CONTINUOUS
10
0.18815
20
0.789567
11
0.162559
21
0.789567
0
LINE
8
BLACK
6
CONTINUOUS
10
0.162559
20
0.789567
11
0.159239
21
0.789881
0
LINE
8
BLACK
6
CONTINUOUS
10
0.159239
20
0.789881
11
0.154269
21
0.791626
0
LINE
8
BLACK
6
CONTINUOUS
10
0.154269
20
0.791626
11
0.150032
21
0.794756
0
LINE
8
BLACK
6
CONTINUOUS
10
0.150032
20
0.794756
11
0.146902
21
0.798993
0
LINE
8
BLACK
6
CONTINUOUS
10
0.146902
20
0.798993
11
0.145156
21
0.803964
0
LINE
8
BLACK
6
CONTINUOUS
10
0.145156
20
0.803964
11
0.144843
21
0.807283
0
LINE
8
BLACK
6
CONTINUOUS
10
0.144843
20
0.807283
11
0.144843
21
0.842717
0
LINE
8
BLACK
6
CONTINUOUS
10
0.144843
20
0.842717
11
0.145156
21
0.846036
0
LINE
8
BLACK
6
CONTINUOUS
10
0.145156
20
0.846036
11
0.146902
21
0.851007
0
LINE
8
BLACK
6
CONTINUOUS
10
0.146902
20
0.851007
11
0.150032
21
0.855244
0
LINE
8
BLACK
6
CONTINUOUS
10
0.150032
20
0.855244
11
0.154269
21
0.858374
0
LINE
8
BLACK
6
CONTINUOUS
10
0.154269
20
0.858374
11
0.159239
21
0.860119
0
LINE
8
BLACK
6
CONTINUOUS
10
0.159239
20
0.860119
11
0.162559
21
0.860433
0
LINE
8
BLACK
6
CONTINUOUS
10
0.162559
20
0.860433
11
0.18815
21
0.860433
0
LINE
8
BLACK
6
CONTINUOUS
10
0.18815
20
0.860433
11
0.191469
21
0.860119
0
LINE
8
BLACK
6
CONTINUOUS
10
0.110761
20
0.860119
11
0.115731
21
0.858374
0
LINE
8
BLACK
6
CONTINUOUS
10
0.115731
20
0.858374
11
0.119968
21
0.855244
0
LINE
8
BLACK
6
CONTINUOUS
10
0.119968
20
0.855244
11
0.123098
21
0.851007
0
LINE
8
BLACK
6
CONTINUOUS
10
0.123098
20
0.851007
11
0.124844
21
0.846036
0
LINE
8
BLACK
6
CONTINUOUS
10
0.124844
20
0.846036
11
0.125157
21
0.842717
0
LINE
8
BLACK
6
CONTINUOUS
10
0.125157
20
0.842717
11
0.125157
21
0.807283
0
LINE
8
BLACK
6
CONTINUOUS
10
0.125157
20
0.807283
11
0.124844
21
0.803964
0
LINE
8
BLACK
6
CONTINUOUS
10
0.124844
20
0.803964
11
0.123098
21
0.798993
0
LINE
8
BLACK
6
CONTINUOUS
10
0.123098
20
0.798993
11
0.119968
21
0.794756
0
LINE
8
BLACK
6
CONTINUOUS
10
0.119968
20
0.794756
11
0.115731
21
0.791626
0
LINE
8
BLACK
6
CONTINUOUS
10
0.115731
20
0.791626
11
0.110761
21
0.789881
0
LINE
8
BLACK
6
CONTINUOUS
10
0.110761
20
0.789881
11
0.107441
21
0.789567
0
LINE
8
BLACK
6
CONTINUOUS
10
0.107441
20
0.789567
11
0.0818504
21
0.789567
0
LINE
8
BLACK
6
CONTINUOUS
10
0.0818504
20
0.789567
11
0.0785306
21
0.789881
0
LINE
8
BLACK
6
CONTINUOUS
10
0.0785306
20
0.789881
11
0.0735603
21
0.791626
0
LINE
8
BLACK
6
CONTINUOUS
10
0.0735603
20
0.791626
11
0.0693229
21
0.794756
0
LINE
8
BLACK
6
CONTINUOUS
10
0.0693229
20
0.794756
11
0.0661931
21
0.798993
0
LINE
8
BLACK
6
CONTINUOUS
10
0.0661931
20
0.798993
11
0.0644477
21
0.803964
0
LINE
8
BLACK
6
CONTINUOUS
10
0.0644477
20
0.803964
11
0.0641339
21
0.807283
0
LINE
8
BLACK
6
CONTINUOUS
10
0.0641339
20
0.807283
11
0.0641339
21
0.842717
0
LINE
8
BLACK
6
CONTINUOUS
10
0.0641339
20
0.842717
11
0.0644477
21
0.846036
0
LINE
8
BLACK
6
CONTINUOUS
10
0.0644477
20
0.846036
11
0.0661931
21
0.851007
0
LINE
8
BLACK
6
CONTINUOUS
10
0.0661931
20
0.851007
11
0.0693229
21
0.855244
0
LINE
8
BLACK
6
CONTINUOUS
10
0.0693229
20
0.855244
11
0.0735603
21
0.858374
0
LINE
8
BLACK
6
CONTINUOUS
10
0.0735603
20
0.858374
11
0.0785306
21
0.860119
0
LINE
8
BLACK
6
CONTINUOUS
10
0.0785306
20
0.860119
11
0.0818504
21
0.860433
0
LINE
8
BLACK
6
CONTINUOUS
10
0.0818504
20
0.860433
11
0.107441
21
0.860433
0
LINE
8
BLACK
6
CONTINUOUS
10
0.107441
20
0.860433
11
0.110761
21
0.860119
0
LINE
8
BLACK
6
CONTINUOUS
10
3.42576
20
0.920119
11
3.43073
21
0.918374
0
LINE
8
BLACK
6
CONTINUOUS
10
3.43073
20
0.918374
11
3.43497
21
0.915244
0
LINE
8
BLACK
6
CONTINUOUS
10
3.43497
20
0.915244
11
3.4381
21
0.911007
0
LINE
8
BLACK
6
CONTINUOUS
10
3.4381
20
0.911007
11
3.43984
21
0.906036
0
LINE
8
BLACK
6
CONTINUOUS
10
3.43984
20
0.906036
11
3.44016
21
0.902717
0
LINE
8
BLACK
6
CONTINUOUS
10
3.44016
20
0.902717
11
3.44016
21
0.867283
0
LINE
8
BLACK
6
CONTINUOUS
10
3.44016
20
0.867283
11
3.43984
21
0.863964
0
LINE
8
BLACK
6
CONTINUOUS
10
3.43984
20
0.863964
11
3.4381
21
0.858993
0
LINE
8
BLACK
6
CONTINUOUS
10
3.4381
20
0.858993
11
3.43497
21
0.854756
0
LINE
8
BLACK
6
CONTINUOUS
10
3.43497
20
0.854756
11
3.43073
21
0.851626
0
LINE
8
BLACK
6
CONTINUOUS
10
3.43073
20
0.851626
11
3.42576
21
0.849881
0
LINE
8
BLACK
6
CONTINUOUS
10
3.42576
20
0.849881
11
3.42244
21
0.849567
0
LINE
8
BLACK
6
CONTINUOUS
10
3.42244
20
0.849567
11
3.39685
21
0.849567
0
LINE
8
BLACK
6
CONTINUOUS
10
3.39685
20
0.849567
11
3.39353
21
0.849881
0
LINE
8
BLACK
6
CONTINUOUS
10
3.39353
20
0.849881
11
3.38856
21
0.851626
0
LINE
8
BLACK
6
CONTINUOUS
10
3.38856
20
0.851626
11
3.38432
21
0.854756
0
LINE
8
BLACK
6
CONTINUOUS
10
3.38432
20
0.854756
11
3.38119
21
0.858993
0
LINE
8
BLACK
6
CONTINUOUS
10
3.38119
20
0.858993
11
3.37945
21
0.863964
0
LINE
8
BLACK
6
CONTINUOUS
10
3.37945
20
0.863964
11
3.37913
21
0.867283
0
LINE
8
BLACK
6
CONTINUOUS
10
3.37913
20
0.867283
11
3.37913
21
0.902717
0
LINE
8
BLACK
6
CONTINUOUS
10
3.37913
20
0.902717
11
3.37945
21
0.906036
0
LINE
8
BLACK
6
CONTINUOUS
10
3.37945
20
0.906036
11
3.38119
21
0.911007
0
LINE
8
BLACK
6
CONTINUOUS
10
3.38119
20
0.911007
11
3.38432
21
0.915244
0
LINE
8
BLACK
6
CONTINUOUS
10
3.38432
20
0.915244
11
3.38856
21
0.918374
0
LINE
8
BLACK
6
CONTINUOUS
10
3.38856
20
0.918374
11
3.39353
21
0.920119
0
LINE
8
BLACK
6
CONTINUOUS
10
3.39353
20
0.920119
11
3.39685
21
0.920433
0
LINE
8
BLACK
6
CONTINUOUS
10
3.39685
20
0.920433
11
3.42244
21
0.920433
0
LINE
8
BLACK
6
CONTINUOUS
10
3.42244
20
0.920433
11
3.42576
21
0.920119
0
LINE
8
BLACK
6
CONTINUOUS
10
3.50647
20
0.920119
11
3.51144
21
0.918374
0
LINE
8
BLACK
6
CONTINUOUS
10
3.51144
20
0.918374
11
3.51568
21
0.915244
0
LINE
8
BLACK
6
CONTINUOUS
10
3.51568
20
0.915244
11
3.51881
21
0.911007
0
LINE
8
BLACK
6
CONTINUOUS
10
3.51881
20
0.911007
11
3.52055
21
0.906036
0
LINE
8
BLACK
6
CONTINUOUS
10
3.52055
20
0.906036
11
3.52087
21
0.902717
0
LINE
8
BLACK
6
CONTINUOUS
10
3.52087
20
0.902717
11
3.52087
21
0.867283
0
LINE
8
BLACK
6
CONTINUOUS
10
3.52087
20
0.867283
11
3.52055
21
0.863964
0
LINE
8
BLACK
6
CONTINUOUS
10
3.52055
20
0.863964
11
3.51881
21
0.858993
0
LINE
8
BLACK
6
CONTINUOUS
10
3.51881
20
0.858993
11
3.51568
21
0.854756
0
LINE
8
BLACK
6
CONTINUOUS
10
3.51568
20
0.854756
11
3.51144
21
0.851626
0
LINE
8
BLACK
6
CONTINUOUS
10
3.51144
20
0.851626
11
3.50647
21
0.849881
0
LINE
8
BLACK
6
CONTINUOUS
10
3.50647
20
0.849881
11
3.50315
21
0.849567
0
LINE
8
BLACK
6
CONTINUOUS
10
3.50315
20
0.849567
11
3.47756
21
0.849567
0
LINE
8
BLACK
6
CONTINUOUS
10
3.47756
20
0.849567
11
3.47424
21
0.849881
0
LINE
8
BLACK
6
CONTINUOUS
10
3.47424
20
0.849881
11
3.46927
21
0.851626
0
LINE
8
BLACK
6
CONTINUOUS
10
3.46927
20
0.851626
11
3.46503
21
0.854756
0
LINE
8
BLACK
6
CONTINUOUS
10
3.46503
20
0.854756
11
3.4619
21
0.858993
0
LINE
8
BLACK
6
CONTINUOUS
10
3.4619
20
0.858993
11
3.46016
21
0.863964
0
LINE
8
BLACK
6
CONTINUOUS
10
3.46016
20
0.863964
11
3.45984
21
0.867283
0
LINE
8
BLACK
6
CONTINUOUS
10
3.45984
20
0.867283
11
3.45984
21
0.902717
0
LINE
8
BLACK
6
CONTINUOUS
10
3.45984
20
0.902717
11
3.46016
21
0.906036
0
LINE
8
BLACK
6
CONTINUOUS
10
3.46016
20
0.906036
11
3.4619
21
0.911007
0
LINE
8
BLACK
6
CONTINUOUS
10
3.4619
20
0.911007
11
3.46503
21
0.915244
0
LINE
8
BLACK
6
CONTINUOUS
10
3.46503
20
0.915244
11
3.46927
21
0.918374
0
LINE
8
BLACK
6
CONTINUOUS
10
3.46927
20
0.918374
11
3.47424
21
0.920119
0
LINE
8
BLACK
6
CONTINUOUS
10
3.47424
20
0.920119
11
3.47756
21
0.920433
0
LINE
8
BLACK
6
CONTINUOUS
10
3.47756
20
0.920433
11
3.50315
21
0.920433
0
LINE
8
BLACK
6
CONTINUOUS
10
3.50315
20
0.920433
11
3.50647
21
0.920119
0
LINE
8
BLACK
6
CONTINUOUS
10
2.56807
20
2.21286
11
2.57981
21
2.20985
0
LINE
8
BLACK
6
CONTINUOUS
10
2.57981
20
2.20985
11
2.59107
21
2.20539
0
LINE
8
BLACK
6
CONTINUOUS
10
2.59107
20
2.20539
11
2.60168
21
2.19955
0
LINE
8
BLACK
6
CONTINUOUS
10
2.60168
20
2.19955
11
2.61148
21
2.19243
0
LINE
8
BLACK
6
CONTINUOUS
10
2.61148
20
2.19243
11
2.62031
21
2.18414
0
LINE
8
BLACK
6
CONTINUOUS
10
2.62031
20
2.18414
11
2.62804
21
2.17481
0
LINE
8
BLACK
6
CONTINUOUS
10
2.62804
20
2.17481
11
2.63453
21
2.16458
0
LINE
8
BLACK
6
CONTINUOUS
10
2.63453
20
2.16458
11
2.63968
21
2.15362
0
LINE
8
BLACK
6
CONTINUOUS
10
2.63968
20
2.15362
11
2.64343
21
2.1421
0
LINE
8
BLACK
6
CONTINUOUS
10
2.64343
20
2.1421
11
2.6457
21
2.1302
0
LINE
8
BLACK
6
CONTINUOUS
10
2.6457
20
2.1302
11
2.64646
21
2.11811
0
LINE
8
BLACK
6
CONTINUOUS
10
2.64646
20
2.11811
11
2.6457
21
2.10602
0
LINE
8
BLACK
6
CONTINUOUS
10
2.6457
20
2.10602
11
2.64343
21
2.09412
0
LINE
8
BLACK
6
CONTINUOUS
10
2.64343
20
2.09412
11
2.63968
21
2.0826
0
LINE
8
BLACK
6
CONTINUOUS
10
2.63968
20
2.0826
11
2.63453
21
2.07164
0
LINE
8
BLACK
6
CONTINUOUS
10
2.63453
20
2.07164
11
2.62804
21
2.06141
0
LINE
8
BLACK
6
CONTINUOUS
10
2.62804
20
2.06141
11
2.62031
21
2.05208
0
LINE
8
BLACK
6
CONTINUOUS
10
2.62031
20
2.05208
11
2.61148
21
2.04379
0
LINE
8
BLACK
6
CONTINUOUS
10
2.61148
20
2.04379
11
2.60168
21
2.03667
0
LINE
8
BLACK
6
CONTINUOUS
10
2.60168
20
2.03667
11
2.59107
21
2.03083
0
LINE
8
BLACK
6
CONTINUOUS
10
2.59107
20
2.03083
11
2.57981
21
2.02637
0
LINE
8
BLACK
6
CONTINUOUS
10
2.57981
20
2.02637
11
2.56807
21
2.02336
0
LINE
8
BLACK
6
CONTINUOUS
10
2.56807
20
2.02336
11
2.55606
21
2.02184
0
LINE
8
BLACK
6
CONTINUOUS
10
2.55606
20
2.02184
11
2.54394
21
2.02184
0
LINE
8
BLACK
6
CONTINUOUS
10
2.54394
20
2.02184
11
2.53193
21
2.02336
0
LINE
8
BLACK
6
CONTINUOUS
10
2.53193
20
2.02336
11
2.52019
21
2.02637
0
LINE
8
BLACK
6
CONTINUOUS
10
2.52019
20
2.02637
11
2.50893
21
2.03083
0
LINE
8
BLACK
6
CONTINUOUS
10
2.50893
20
2.03083
11
2.49832
21
2.03667
0
LINE
8
BLACK
6
CONTINUOUS
10
2.49832
20
2.03667
11
2.48852
21
2.04379
0
LINE
8
BLACK
6
CONTINUOUS
10
2.48852
20
2.04379
11
2.47969
21
2.05208
0
LINE
8
BLACK
6
CONTINUOUS
10
2.47969
20
2.05208
11
2.47196
21
2.06141
0
LINE
8
BLACK
6
CONTINUOUS
10
2.47196
20
2.06141
11
2.46547
21
2.07164
0
LINE
8
BLACK
6
CONTINUOUS
10
2.46547
20
2.07164
11
2.46032
21
2.0826
0
LINE
8
BLACK
6
CONTINUOUS
10
2.46032
20
2.0826
11
2.45657
21
2.09412
0
LINE
8
BLACK
6
CONTINUOUS
10
2.45657
20
2.09412
11
2.4543
21
2.10602
0
LINE
8
BLACK
6
CONTINUOUS
10
2.4543
20
2.10602
11
2.45354
21
2.11811
0
LINE
8
BLACK
6
CONTINUOUS
10
2.45354
20
2.11811
11
2.4543
21
2.1302
0
LINE
8
BLACK
6
CONTINUOUS
10
2.4543
20
2.1302
11
2.45657
21
2.1421
0
LINE
8
BLACK
6
CONTINUOUS
10
2.45657
20
2.1421
11
2.46032
21
2.15362
0
LINE
8
BLACK
6
CONTINUOUS
10
2.46032
20
2.15362
11
2.46547
21
2.16458
0
LINE
8
BLACK
6
CONTINUOUS
10
2.46547
20
2.16458
11
2.47196
21
2.17481
0
LINE
8
BLACK
6
CONTINUOUS
10
2.47196
20
2.17481
11
2.47969
21
2.18414
0
LINE
8
BLACK
6
CONTINUOUS
10
2.47969
20
2.18414
11
2.48852
21
2.19243
0
LINE
8
BLACK
6
CONTINUOUS
10
2.48852
20
2.19243
11
2.49832
21
2.19955
0
LINE
8
BLACK
6
CONTINUOUS
10
2.49832
20
2.19955
11
2.50893
21
2.20539
0
LINE
8
BLACK
6
CONTINUOUS
10
2.50893
20
2.20539
11
2.52019
21
2.20985
0
LINE
8
BLACK
6
CONTINUOUS
10
2.52019
20
2.20985
11
2.53193
21
2.21286
0
LINE
8
BLACK
6
CONTINUOUS
10
2.53193
20
2.21286
11
2.54394
21
2.21438
0
LINE
8
BLACK
6
CONTINUOUS
10
2.54394
20
2.21438
11
2.55606
21
2.21438
0
LINE
8
BLACK
6
CONTINUOUS
10
2.55606
20
2.21438
11
2.56807
21
2.21286
0
LINE
8
BLACK
6
CONTINUOUS
10
1.06807
20
2.21286
11
1.07981
21
2.20985
0
LINE
8
BLACK
6
CONTINUOUS
10
1.07981
20
2.20985
11
1.09107
21
2.20539
0
LINE
8
BLACK
6
CONTINUOUS
10
1.09107
20
2.20539
11
1.10168
21
2.19955
0
LINE
8
BLACK
6
CONTINUOUS
10
1.10168
20
2.19955
11
1.11148
21
2.19243
0
LINE
8
BLACK
6
CONTINUOUS
10
1.11148
20
2.19243
11
1.12031
21
2.18414
0
LINE
8
BLACK
6
CONTINUOUS
10
1.12031
20
2.18414
11
1.12804
21
2.17481
0
LINE
8
BLACK
6
CONTINUOUS
10
1.12804
20
2.17481
11
1.13453
21
2.16458
0
LINE
8
BLACK
6
CONTINUOUS
10
1.13453
20
2.16458
11
1.13968
21
2.15362
0
LINE
8
BLACK
6
CONTINUOUS
10
1.13968
20
2.15362
11
1.14343
21
2.1421
0
LINE
8
BLACK
6
CONTINUOUS
10
1.14343
20
2.1421
11
1.1457
21
2.1302
0
LINE
8
BLACK
6
CONTINUOUS
10
1.1457
20
2.1302
11
1.14646
21
2.11811
0
LINE
8
BLACK
6
CONTINUOUS
10
1.14646
20
2.11811
11
1.1457
21
2.10602
0
LINE
8
BLACK
6
CONTINUOUS
10
1.1457
20
2.10602
11
1.14343
21
2.09412
0
LINE
8
BLACK
6
CONTINUOUS
10
1.14343
20
2.09412
11
1.13968
21
2.0826
0
LINE
8
BLACK
6
CONTINUOUS
10
1.13968
20
2.0826
11
1.13453
21
2.07164
0
LINE
8
BLACK
6
CONTINUOUS
10
1.13453
20
2.07164
11
1.12804
21
2.06141
0
LINE
8
BLACK
6
CONTINUOUS
10
1.12804
20
2.06141
11
1.12031
21
2.05208
0
LINE
8
BLACK
6
CONTINUOUS
10
1.12031
20
2.05208
11
1.11148
21
2.04379
0
LINE
8
BLACK
6
CONTINUOUS
10
1.11148
20
2.04379
11
1.10168
21
2.03667
0
LINE
8
BLACK
6
CONTINUOUS
10
1.10168
20
2.03667
11
1.09107
21
2.03083
0
LINE
8
BLACK
6
CONTINUOUS
10
1.09107
20
2.03083
11
1.07981
21
2.02637
0
LINE
8
BLACK
6
CONTINUOUS
10
1.07981
20
2.02637
11
1.06807
21
2.02336
0
LINE
8
BLACK
6
CONTINUOUS
10
1.06807
20
2.02336
11
1.05606
21
2.02184
0
LINE
8
BLACK
6
CONTINUOUS
10
1.05606
20
2.02184
11
1.04394
21
2.02184
0
LINE
8
BLACK
6
CONTINUOUS
10
1.04394
20
2.02184
11
1.03193
21
2.02336
0
LINE
8
BLACK
6
CONTINUOUS
10
1.03193
20
2.02336
11
1.02019
21
2.02637
0
LINE
8
BLACK
6
CONTINUOUS
10
1.02019
20
2.02637
11
1.00893
21
2.03083
0
LINE
8
BLACK
6
CONTINUOUS
10
1.00893
20
2.03083
11
0.998316
21
2.03667
0
LINE
8
BLACK
6
CONTINUOUS
10
0.998316
20
2.03667
11
0.988516
21
2.04379
0
LINE
8
BLACK
6
CONTINUOUS
10
0.988516
20
2.04379
11
0.979686
21
2.05208
0
LINE
8
BLACK
6
CONTINUOUS
10
0.979686
20
2.05208
11
0.971965
21
2.06141
0
LINE
8
BLACK
6
CONTINUOUS
10
0.971965
20
2.06141
11
0.965474
21
2.07164
0
LINE
8
BLACK
6
CONTINUOUS
10
0.965474
20
2.07164
11
0.960317
21
2.0826
0
LINE
8
BLACK
6
CONTINUOUS
10
0.960317
20
2.0826
11
0.956574
21
2.09412
0
LINE
8
BLACK
6
CONTINUOUS
10
0.956574
20
2.09412
11
0.954304
21
2.10602
0
LINE
8
BLACK
6
CONTINUOUS
10
0.954304
20
2.10602
11
0.953543
21
2.11811
0
LINE
8
BLACK
6
CONTINUOUS
10
0.953543
20
2.11811
11
0.954304
21
2.1302
0
LINE
8
BLACK
6
CONTINUOUS
10
0.954304
20
2.1302
11
0.956574
21
2.1421
0
LINE
8
BLACK
6
CONTINUOUS
10
0.956574
20
2.1421
11
0.960317
21
2.15362
0
LINE
8
BLACK
6
CONTINUOUS
10
0.960317
20
2.15362
11
0.965474
21
2.16458
0
LINE
8
BLACK
6
CONTINUOUS
10
0.965474
20
2.16458
11
0.971965
21
2.17481
0
LINE
8
BLACK
6
CONTINUOUS
10
0.971965
20
2.17481
11
0.979686
21
2.18414
0
LINE
8
BLACK
6
CONTINUOUS
10
0.979686
20
2.18414
11
0.988516
21
2.19243
0
LINE
8
BLACK
6
CONTINUOUS
10
0.988516
20
2.19243
11
0.998316
21
2.19955
0
LINE
8
BLACK
6
CONTINUOUS
10
0.998316
20
2.19955
11
1.00893
21
2.20539
0
LINE
8
BLACK
6
CONTINUOUS
10
1.00893
20
2.20539
11
1.02019
21
2.20985
0
LINE
8
BLACK
6
CONTINUOUS
10
1.02019
20
2.20985
11
1.03193
21
2.21286
0
LINE
8
BLACK
6
CONTINUOUS
10
1.03193
20
2.21286
11
1.04394
21
2.21438
0
LINE
8
BLACK
6
CONTINUOUS
10
1.04394
20
2.21438
11
1.05606
21
2.21438
0
LINE
8
BLACK
6
CONTINUOUS
10
1.05606
20
2.21438
11
1.06807
21
2.21286
0
LINE
8
BLACK
6
CONTINUOUS
10
2.55537
20
2.8029
11
2.56458
21
2.80126
0
LINE
8
BLACK
6
CONTINUOUS
10
2.56458
20
2.80126
11
2.5734
21
2.79813
0
LINE
8
BLACK
6
CONTINUOUS
10
2.5734
20
2.79813
11
2.58159
21
2.79361
0
LINE
8
BLACK
6
CONTINUOUS
10
2.58159
20
2.79361
11
2.58893
21
2.78781
0
LINE
8
BLACK
6
CONTINUOUS
10
2.58893
20
2.78781
11
2.59523
21
2.78089
0
LINE
8
BLACK
6
CONTINUOUS
10
2.59523
20
2.78089
11
2.60031
21
2.77304
0
LINE
8
BLACK
6
CONTINUOUS
10
2.60031
20
2.77304
11
2.60404
21
2.76446
0
LINE
8
BLACK
6
CONTINUOUS
10
2.60404
20
2.76446
11
2.60632
21
2.75539
0
LINE
8
BLACK
6
CONTINUOUS
10
2.60632
20
2.75539
11
2.60709
21
2.74606
0
LINE
8
BLACK
6
CONTINUOUS
10
2.60709
20
2.74606
11
2.60702
21
2.74327
0
LINE
8
BLACK
6
CONTINUOUS
10
2.60702
20
2.74327
11
2.6058
21
2.734
0
LINE
8
BLACK
6
CONTINUOUS
10
2.6058
20
2.734
11
2.60308
21
2.72505
0
LINE
8
BLACK
6
CONTINUOUS
10
2.60308
20
2.72505
11
2.59893
21
2.71666
0
LINE
8
BLACK
6
CONTINUOUS
10
2.59893
20
2.71666
11
2.59347
21
2.70906
0
LINE
8
BLACK
6
CONTINUOUS
10
2.59347
20
2.70906
11
2.58685
21
2.70246
0
LINE
8
BLACK
6
CONTINUOUS
10
2.58685
20
2.70246
11
2.57923
21
2.69703
0
LINE
8
BLACK
6
CONTINUOUS
10
2.57923
20
2.69703
11
2.57083
21
2.69291
0
LINE
8
BLACK
6
CONTINUOUS
10
2.57083
20
2.69291
11
2.56187
21
2.69022
0
LINE
8
BLACK
6
CONTINUOUS
10
2.56187
20
2.69022
11
2.55259
21
2.68904
0
LINE
8
BLACK
6
CONTINUOUS
10
2.55259
20
2.68904
11
2.54324
21
2.68938
0
LINE
8
BLACK
6
CONTINUOUS
10
2.54324
20
2.68938
11
2.53407
21
2.69124
0
LINE
8
BLACK
6
CONTINUOUS
10
2.53407
20
2.69124
11
2.52533
21
2.69458
0
LINE
8
BLACK
6
CONTINUOUS
10
2.52533
20
2.69458
11
2.51726
21
2.6993
0
LINE
8
BLACK
6
CONTINUOUS
10
2.51726
20
2.6993
11
2.51006
21
2.70528
0
LINE
8
BLACK
6
CONTINUOUS
10
2.51006
20
2.70528
11
2.50393
21
2.71235
0
LINE
8
BLACK
6
CONTINUOUS
10
2.50393
20
2.71235
11
2.49905
21
2.72032
0
LINE
8
BLACK
6
CONTINUOUS
10
2.49905
20
2.72032
11
2.49553
21
2.72899
0
LINE
8
BLACK
6
CONTINUOUS
10
2.49553
20
2.72899
11
2.49347
21
2.73812
0
LINE
8
BLACK
6
CONTINUOUS
10
2.49347
20
2.73812
11
2.49293
21
2.74746
0
LINE
8
BLACK
6
CONTINUOUS
10
2.49293
20
2.74746
11
2.49392
21
2.75676
0
LINE
8
BLACK
6
CONTINUOUS
10
2.49392
20
2.75676
11
2.49642
21
2.76577
0
LINE
8
BLACK
6
CONTINUOUS
10
2.49642
20
2.76577
11
2.50036
21
2.77426
0
LINE
8
BLACK
6
CONTINUOUS
10
2.50036
20
2.77426
11
2.50564
21
2.78199
0
LINE
8
BLACK
6
CONTINUOUS
10
2.50564
20
2.78199
11
2.5121
21
2.78875
0
LINE
8
BLACK
6
CONTINUOUS
10
2.5121
20
2.78875
11
2.51958
21
2.79437
0
LINE
8
BLACK
6
CONTINUOUS
10
2.51958
20
2.79437
11
2.52788
21
2.79869
0
LINE
8
BLACK
6
CONTINUOUS
10
2.52788
20
2.79869
11
2.53677
21
2.8016
0
LINE
8
BLACK
6
CONTINUOUS
10
2.53677
20
2.8016
11
2.54602
21
2.80301
0
LINE
8
BLACK
6
CONTINUOUS
10
2.54602
20
2.80301
11
2.55537
21
2.8029
0
LINE
8
BLACK
6
CONTINUOUS
10
1.05537
20
2.8029
11
1.06458
21
2.80126
0
LINE
8
BLACK
6
CONTINUOUS
10
1.06458
20
2.80126
11
1.0734
21
2.79813
0
LINE
8
BLACK
6
CONTINUOUS
10
1.0734
20
2.79813
11
1.08159
21
2.79361
0
LINE
8
BLACK
6
CONTINUOUS
10
1.08159
20
2.79361
11
1.08893
21
2.78781
0
LINE
8
BLACK
6
CONTINUOUS
10
1.08893
20
2.78781
11
1.09523
21
2.78089
0
LINE
8
BLACK
6
CONTINUOUS
10
1.09523
20
2.78089
11
1.10031
21
2.77304
0
LINE
8
BLACK
6
CONTINUOUS
10
1.10031
20
2.77304
11
1.10404
21
2.76446
0
LINE
8
BLACK
6
CONTINUOUS
10
1.10404
20
2.76446
11
1.10632
21
2.75539
0
LINE
8
BLACK
6
CONTINUOUS
10
1.10632
20
2.75539
11
1.10709
21
2.74606
0
LINE
8
BLACK
6
CONTINUOUS
10
1.10709
20
2.74606
11
1.10702
21
2.74327
0
LINE
8
BLACK
6
CONTINUOUS
10
1.10702
20
2.74327
11
1.1058
21
2.734
0
LINE
8
BLACK
6
CONTINUOUS
10
1.1058
20
2.734
11
1.10308
21
2.72505
0
LINE
8
BLACK
6
CONTINUOUS
10
1.10308
20
2.72505
11
1.09893
21
2.71666
0
LINE
8
BLACK
6
CONTINUOUS
10
1.09893
20
2.71666
11
1.09347
21
2.70906
0
LINE
8
BLACK
6
CONTINUOUS
10
1.09347
20
2.70906
11
1.08685
21
2.70246
0
LINE
8
BLACK
6
CONTINUOUS
10
1.08685
20
2.70246
11
1.07923
21
2.69703
0
LINE
8
BLACK
6
CONTINUOUS
10
1.07923
20
2.69703
11
1.07083
21
2.69291
0
LINE
8
BLACK
6
CONTINUOUS
10
1.07083
20
2.69291
11
1.06187
21
2.69022
0
LINE
8
BLACK
6
CONTINUOUS
10
1.06187
20
2.69022
11
1.05259
21
2.68904
0
LINE
8
BLACK
6
CONTINUOUS
10
1.05259
20
2.68904
11
1.04324
21
2.68938
0
LINE
8
BLACK
6
CONTINUOUS
10
1.04324
20
2.68938
11
1.03407
21
2.69124
0
LINE
8
BLACK
6
CONTINUOUS
10
1.03407
20
2.69124
11
1.02533
21
2.69458
0
LINE
8
BLACK
6
CONTINUOUS
10
1.02533
20
2.69458
11
1.01726
21
2.6993
0
LINE
8
BLACK
6
CONTINUOUS
10
1.01726
20
2.6993
11
1.01006
21
2.70528
0
LINE
8
BLACK
6
CONTINUOUS
10
1.01006
20
2.70528
11
1.00393
21
2.71235
0
LINE
8
BLACK
6
CONTINUOUS
10
1.00393
20
2.71235
11
0.999045
21
2.72032
0
LINE
8
BLACK
6
CONTINUOUS
10
0.999045
20
2.72032
11
0.995526
21
2.72899
0
LINE
8
BLACK
6
CONTINUOUS
10
0.995526
20
2.72899
11
0.993469
21
2.73812
0
LINE
8
BLACK
6
CONTINUOUS
10
0.993469
20
2.73812
11
0.99293
21
2.74746
0
LINE
8
BLACK
6
CONTINUOUS
10
0.99293
20
2.74746
11
0.993925
21
2.75676
0
LINE
8
BLACK
6
CONTINUOUS
10
0.993925
20
2.75676
11
0.996425
21
2.76577
0
LINE
8
BLACK
6
CONTINUOUS
10
0.996425
20
2.76577
11
1.00036
21
2.77426
0
LINE
8
BLACK
6
CONTINUOUS
10
1.00036
20
2.77426
11
1.00564
21
2.78199
0
LINE
8
BLACK
6
CONTINUOUS
10
1.00564
20
2.78199
11
1.0121
21
2.78875
0
LINE
8
BLACK
6
CONTINUOUS
10
1.0121
20
2.78875
11
1.01958
21
2.79437
0
LINE
8
BLACK
6
CONTINUOUS
10
1.01958
20
2.79437
11
1.02788
21
2.79869
0
LINE
8
BLACK
6
CONTINUOUS
10
1.02788
20
2.79869
11
1.03677
21
2.8016
0
LINE
8
BLACK
6
CONTINUOUS
10
1.03677
20
2.8016
11
1.04602
21
2.80301
0
LINE
8
BLACK
6
CONTINUOUS
10
1.04602
20
2.80301
11
1.05537
21
2.8029
  0
ENDSEC
  0
EOF
