  0
SECTION
  2
HEADER
  9
$ANGBASE
  50
0.0
  9
$ANGDIR
  70
1
  9
$MEASUREMENT
  70
0
  0
ENDSEC
  0
SECTION
  2
TABLES
  0
TABLE
  2
LTYPE
  70
4
  0
LTYPE
  5
40F
  2
CONTINUOUS
  70
0
  3
Solid line
  72
65
  73
0
  40
0.0
  0
LTYPE
  5
410
  2
DASHDOT
 70
0
  3
Dash Dot ____ _ ____ _
 72
65
 73
4
 40
2.0
 49
1.25
 49
-0.25
 49
0.25
 49
-0.25
  0
LTYPE
  5
411
  2
DASHED
 70
0
  3
Dashed __ __ __ __ __
 72
65
 73
2
 40
0.75
 49
0.5
 49
-0.25
  0
LTYPE
  5
43B
  2
DOTTED
 70
0
  3
Dotted .  .  .  .
 72
65
 73
2
 40
0.2
 49
0.0
 49
-0.2
  0
ENDTAB
  0
TABLE
  2
STYLE
  70
4
  0
STYLE
  2
KICAD
  70
0
  40
0
  41
1
  42
1
  50
0
  71
0
  3
isocp.shx
  0
STYLE
  2
KICADB
  70
0
  40
0
  41
1
  42
1
  50
0
  71
0
  3
isocp.shx
  0
STYLE
  2
KICADI
  70
0
  40
0
  41
1
  42
1
  50
15
  71
0
  3
isocp.shx
  0
STYLE
  2
KICADBI
  70
0
  40
0
  41
1
  42
1
  50
15
  71
0
  3
isocp.shx
  0
ENDTAB
  0
TABLE
  2
LAYER
  70
1
  0
LAYER
  2
BLACK
  70
0
  62
7
  6
CONTINUOUS
  0
ENDTAB
  0
ENDSEC
  0
SECTION
  2
ENTITIES
0
LINE
8
BLACK
6
CONTINUOUS
10
0.299616
20
0.0167999
11
0.299487
21
0.0167771
0
LINE
8
BLACK
6
CONTINUOUS
10
0.299487
20
0.0167771
11
0.299374
21
0.0168427
0
LINE
8
BLACK
6
CONTINUOUS
10
0.299374
20
0.0168427
11
0.29899
21
0.0169104
0
LINE
8
BLACK
6
CONTINUOUS
10
0.29899
20
0.0169104
11
0.298402
21
0.0174035
0
LINE
8
BLACK
6
CONTINUOUS
10
0.298402
20
0.0174035
11
0.297738
21
0.017787
0
LINE
8
BLACK
6
CONTINUOUS
10
0.297738
20
0.017787
11
0.297647
21
0.0180374
0
LINE
8
BLACK
6
CONTINUOUS
10
0.297647
20
0.0180374
11
0.297443
21
0.0182087
0
LINE
8
BLACK
6
CONTINUOUS
10
0.297443
20
0.0182087
11
0.29731
21
0.0189642
0
LINE
8
BLACK
6
CONTINUOUS
10
0.29731
20
0.0189642
11
0.297047
21
0.019685
0
LINE
8
BLACK
6
CONTINUOUS
10
0.297047
20
0.019685
11
0.297047
21
2.81496
0
LINE
8
BLACK
6
CONTINUOUS
10
0.297047
20
2.81496
11
0.297115
21
2.81534
0
LINE
8
BLACK
6
CONTINUOUS
10
0.297115
20
2.81534
11
0.297092
21
2.81547
0
LINE
8
BLACK
6
CONTINUOUS
10
0.297092
20
2.81547
11
0.297158
21
2.81559
0
LINE
8
BLACK
6
CONTINUOUS
10
0.297158
20
2.81559
11
0.297225
21
2.81597
0
LINE
8
BLACK
6
CONTINUOUS
10
0.297225
20
2.81597
11
0.297718
21
2.81656
0
LINE
8
BLACK
6
CONTINUOUS
10
0.297718
20
2.81656
11
0.298102
21
2.81722
0
LINE
8
BLACK
6
CONTINUOUS
10
0.298102
20
2.81722
11
0.298352
21
2.81731
0
LINE
8
BLACK
6
CONTINUOUS
10
0.298352
20
2.81731
11
0.298524
21
2.81752
0
LINE
8
BLACK
6
CONTINUOUS
10
0.298524
20
2.81752
11
0.299279
21
2.81765
0
LINE
8
BLACK
6
CONTINUOUS
10
0.299279
20
2.81765
11
0.3
21
2.81791
0
LINE
8
BLACK
6
CONTINUOUS
10
0.3
20
2.81791
11
3.3
21
2.81791
0
LINE
8
BLACK
6
CONTINUOUS
10
3.3
20
2.81791
11
3.30038
21
2.81785
0
LINE
8
BLACK
6
CONTINUOUS
10
3.30038
20
2.81785
11
3.30051
21
2.81787
0
LINE
8
BLACK
6
CONTINUOUS
10
3.30051
20
2.81787
11
3.30063
21
2.8178
0
LINE
8
BLACK
6
CONTINUOUS
10
3.30063
20
2.8178
11
3.30101
21
2.81774
0
LINE
8
BLACK
6
CONTINUOUS
10
3.30101
20
2.81774
11
3.3016
21
2.81724
0
LINE
8
BLACK
6
CONTINUOUS
10
3.3016
20
2.81724
11
3.30226
21
2.81686
0
LINE
8
BLACK
6
CONTINUOUS
10
3.30226
20
2.81686
11
3.30235
21
2.81661
0
LINE
8
BLACK
6
CONTINUOUS
10
3.30235
20
2.81661
11
3.30256
21
2.81644
0
LINE
8
BLACK
6
CONTINUOUS
10
3.30256
20
2.81644
11
3.30269
21
2.81568
0
LINE
8
BLACK
6
CONTINUOUS
10
3.30269
20
2.81568
11
3.30295
21
2.81496
0
LINE
8
BLACK
6
CONTINUOUS
10
3.30295
20
2.81496
11
3.30295
21
0.019685
0
LINE
8
BLACK
6
CONTINUOUS
10
3.30295
20
0.019685
11
3.30289
21
0.0193015
0
LINE
8
BLACK
6
CONTINUOUS
10
3.30289
20
0.0193015
11
3.30291
21
0.0191723
0
LINE
8
BLACK
6
CONTINUOUS
10
3.30291
20
0.0191723
11
3.30284
21
0.0190587
0
LINE
8
BLACK
6
CONTINUOUS
10
3.30284
20
0.0190587
11
3.30277
21
0.0186751
0
LINE
8
BLACK
6
CONTINUOUS
10
3.30277
20
0.0186751
11
3.30228
21
0.0180874
0
LINE
8
BLACK
6
CONTINUOUS
10
3.30228
20
0.0180874
11
3.3019
21
0.0174231
0
LINE
8
BLACK
6
CONTINUOUS
10
3.3019
20
0.0174231
11
3.30165
21
0.017332
0
LINE
8
BLACK
6
CONTINUOUS
10
3.30165
20
0.017332
11
3.30148
21
0.0171279
0
LINE
8
BLACK
6
CONTINUOUS
10
3.30148
20
0.0171279
11
3.30072
21
0.0169946
0
LINE
8
BLACK
6
CONTINUOUS
10
3.30072
20
0.0169946
11
3.3
21
0.0167323
0
LINE
8
BLACK
6
CONTINUOUS
10
3.3
20
0.0167323
11
0.3
21
0.0167323
0
LINE
8
BLACK
6
CONTINUOUS
10
0.3
20
0.0167323
11
0.299616
21
0.0167999
0
LINE
8
BLACK
6
CONTINUOUS
10
1.80295
20
2.81201
11
1.80295
21
0.0226378
0
LINE
8
BLACK
6
CONTINUOUS
10
1.80295
20
0.0226378
11
3.29705
21
0.0226378
0
LINE
8
BLACK
6
CONTINUOUS
10
3.29705
20
0.0226378
11
3.29705
21
2.81201
0
LINE
8
BLACK
6
CONTINUOUS
10
3.29705
20
2.81201
11
1.80295
21
2.81201
0
LINE
8
BLACK
6
CONTINUOUS
10
0.302953
20
2.81201
11
0.302953
21
0.0226378
0
LINE
8
BLACK
6
CONTINUOUS
10
0.302953
20
0.0226378
11
1.79705
21
0.0226378
0
LINE
8
BLACK
6
CONTINUOUS
10
1.79705
20
0.0226378
11
1.79705
21
2.81201
0
LINE
8
BLACK
6
CONTINUOUS
10
1.79705
20
2.81201
11
0.302953
21
2.81201
0
LINE
8
BLACK
6
CONTINUOUS
10
2.53038
20
0.519202
11
2.53107
21
0.517304
0
LINE
8
BLACK
6
CONTINUOUS
10
2.53107
20
0.517304
11
2.53107
21
0.370276
0
LINE
8
BLACK
6
CONTINUOUS
10
2.53107
20
0.370276
11
2.6781
21
0.370276
0
LINE
8
BLACK
6
CONTINUOUS
10
2.6781
20
0.370276
11
2.67911
21
0.370098
0
LINE
8
BLACK
6
CONTINUOUS
10
2.67911
20
0.370098
11
2.68066
21
0.368799
0
LINE
8
BLACK
6
CONTINUOUS
10
2.68066
20
0.368799
11
2.68101
21
0.36681
0
LINE
8
BLACK
6
CONTINUOUS
10
2.68101
20
0.36681
11
2.68
21
0.365061
0
LINE
8
BLACK
6
CONTINUOUS
10
2.68
20
0.365061
11
2.6781
21
0.36437
0
LINE
8
BLACK
6
CONTINUOUS
10
2.6781
20
0.36437
11
2.53107
21
0.36437
0
LINE
8
BLACK
6
CONTINUOUS
10
2.53107
20
0.36437
11
2.53107
21
0.217342
0
LINE
8
BLACK
6
CONTINUOUS
10
2.53107
20
0.217342
11
2.5309
21
0.216332
0
LINE
8
BLACK
6
CONTINUOUS
10
2.5309
20
0.216332
11
2.5296
21
0.214784
0
LINE
8
BLACK
6
CONTINUOUS
10
2.5296
20
0.214784
11
2.52761
21
0.214434
0
LINE
8
BLACK
6
CONTINUOUS
10
2.52761
20
0.214434
11
2.52586
21
0.215444
0
LINE
8
BLACK
6
CONTINUOUS
10
2.52586
20
0.215444
11
2.52517
21
0.217342
0
LINE
8
BLACK
6
CONTINUOUS
10
2.52517
20
0.217342
11
2.52517
21
0.36437
0
LINE
8
BLACK
6
CONTINUOUS
10
2.52517
20
0.36437
11
2.37814
21
0.36437
0
LINE
8
BLACK
6
CONTINUOUS
10
2.37814
20
0.36437
11
2.37713
21
0.364548
0
LINE
8
BLACK
6
CONTINUOUS
10
2.37713
20
0.364548
11
2.37558
21
0.365846
0
LINE
8
BLACK
6
CONTINUOUS
10
2.37558
20
0.365846
11
2.37523
21
0.367836
0
LINE
8
BLACK
6
CONTINUOUS
10
2.37523
20
0.367836
11
2.37624
21
0.369585
0
LINE
8
BLACK
6
CONTINUOUS
10
2.37624
20
0.369585
11
2.37814
21
0.370276
0
LINE
8
BLACK
6
CONTINUOUS
10
2.37814
20
0.370276
11
2.52517
21
0.370276
0
LINE
8
BLACK
6
CONTINUOUS
10
2.52517
20
0.370276
11
2.52517
21
0.517304
0
LINE
8
BLACK
6
CONTINUOUS
10
2.52517
20
0.517304
11
2.52535
21
0.518314
0
LINE
8
BLACK
6
CONTINUOUS
10
2.52535
20
0.518314
11
2.52665
21
0.519861
0
LINE
8
BLACK
6
CONTINUOUS
10
2.52665
20
0.519861
11
2.52863
21
0.520212
0
LINE
8
BLACK
6
CONTINUOUS
10
2.52863
20
0.520212
11
2.53038
21
0.519202
0
LINE
8
BLACK
6
CONTINUOUS
10
2.58101
20
1.39854
11
2.58114
21
1.39842
0
LINE
8
BLACK
6
CONTINUOUS
10
2.58114
20
1.39842
11
2.58132
21
1.3984
0
LINE
8
BLACK
6
CONTINUOUS
10
2.58132
20
1.3984
11
2.58507
21
1.39653
0
LINE
8
BLACK
6
CONTINUOUS
10
2.58507
20
1.39653
11
2.58578
21
1.396
0
LINE
8
BLACK
6
CONTINUOUS
10
2.58578
20
1.396
11
2.58583
21
1.39598
0
LINE
8
BLACK
6
CONTINUOUS
10
2.58583
20
1.39598
11
2.58771
21
1.3941
0
LINE
8
BLACK
6
CONTINUOUS
10
2.58771
20
1.3941
11
2.58821
21
1.39338
0
LINE
8
BLACK
6
CONTINUOUS
10
2.58821
20
1.39338
11
2.58826
21
1.39333
0
LINE
8
BLACK
6
CONTINUOUS
10
2.58826
20
1.39333
11
2.59014
21
1.38958
0
LINE
8
BLACK
6
CONTINUOUS
10
2.59014
20
1.38958
11
2.59043
21
1.3886
0
LINE
8
BLACK
6
CONTINUOUS
10
2.59043
20
1.3886
11
2.59039
21
1.38843
0
LINE
8
BLACK
6
CONTINUOUS
10
2.59039
20
1.38843
11
2.59045
21
1.38826
0
LINE
8
BLACK
6
CONTINUOUS
10
2.59045
20
1.38826
11
2.59045
21
1.37327
0
LINE
8
BLACK
6
CONTINUOUS
10
2.59045
20
1.37327
11
2.59038
21
1.37288
0
LINE
8
BLACK
6
CONTINUOUS
10
2.59038
20
1.37288
11
2.5904
21
1.37275
0
LINE
8
BLACK
6
CONTINUOUS
10
2.5904
20
1.37275
11
2.59034
21
1.37264
0
LINE
8
BLACK
6
CONTINUOUS
10
2.59034
20
1.37264
11
2.59027
21
1.37226
0
LINE
8
BLACK
6
CONTINUOUS
10
2.59027
20
1.37226
11
2.58978
21
1.37167
0
LINE
8
BLACK
6
CONTINUOUS
10
2.58978
20
1.37167
11
2.58939
21
1.371
0
LINE
8
BLACK
6
CONTINUOUS
10
2.58939
20
1.371
11
2.58914
21
1.37091
0
LINE
8
BLACK
6
CONTINUOUS
10
2.58914
20
1.37091
11
2.58897
21
1.37071
0
LINE
8
BLACK
6
CONTINUOUS
10
2.58897
20
1.37071
11
2.58822
21
1.37058
0
LINE
8
BLACK
6
CONTINUOUS
10
2.58822
20
1.37058
11
2.5875
21
1.37031
0
LINE
8
BLACK
6
CONTINUOUS
10
2.5875
20
1.37031
11
2.54813
21
1.37031
0
LINE
8
BLACK
6
CONTINUOUS
10
2.54813
20
1.37031
11
2.54774
21
1.37038
0
LINE
8
BLACK
6
CONTINUOUS
10
2.54774
20
1.37038
11
2.54761
21
1.37036
0
LINE
8
BLACK
6
CONTINUOUS
10
2.54761
20
1.37036
11
2.5475
21
1.37042
0
LINE
8
BLACK
6
CONTINUOUS
10
2.5475
20
1.37042
11
2.54712
21
1.37049
0
LINE
8
BLACK
6
CONTINUOUS
10
2.54712
20
1.37049
11
2.54653
21
1.37098
0
LINE
8
BLACK
6
CONTINUOUS
10
2.54653
20
1.37098
11
2.54586
21
1.37137
0
LINE
8
BLACK
6
CONTINUOUS
10
2.54586
20
1.37137
11
2.54577
21
1.37162
0
LINE
8
BLACK
6
CONTINUOUS
10
2.54577
20
1.37162
11
2.54557
21
1.37179
0
LINE
8
BLACK
6
CONTINUOUS
10
2.54557
20
1.37179
11
2.54543
21
1.37255
0
LINE
8
BLACK
6
CONTINUOUS
10
2.54543
20
1.37255
11
2.54517
21
1.37327
0
LINE
8
BLACK
6
CONTINUOUS
10
2.54517
20
1.37327
11
2.54517
21
1.38639
0
LINE
8
BLACK
6
CONTINUOUS
10
2.54517
20
1.38639
11
2.54535
21
1.3874
0
LINE
8
BLACK
6
CONTINUOUS
10
2.54535
20
1.3874
11
2.54546
21
1.38753
0
LINE
8
BLACK
6
CONTINUOUS
10
2.54546
20
1.38753
11
2.54548
21
1.38771
0
LINE
8
BLACK
6
CONTINUOUS
10
2.54548
20
1.38771
11
2.54736
21
1.39146
0
LINE
8
BLACK
6
CONTINUOUS
10
2.54736
20
1.39146
11
2.54788
21
1.39217
0
LINE
8
BLACK
6
CONTINUOUS
10
2.54788
20
1.39217
11
2.54791
21
1.39223
0
LINE
8
BLACK
6
CONTINUOUS
10
2.54791
20
1.39223
11
2.54979
21
1.3941
0
LINE
8
BLACK
6
CONTINUOUS
10
2.54979
20
1.3941
11
2.55051
21
1.39461
0
LINE
8
BLACK
6
CONTINUOUS
10
2.55051
20
1.39461
11
2.55055
21
1.39465
0
LINE
8
BLACK
6
CONTINUOUS
10
2.55055
20
1.39465
11
2.5543
21
1.39653
0
LINE
8
BLACK
6
CONTINUOUS
10
2.5543
20
1.39653
11
2.55529
21
1.39682
0
LINE
8
BLACK
6
CONTINUOUS
10
2.55529
20
1.39682
11
2.55546
21
1.39678
0
LINE
8
BLACK
6
CONTINUOUS
10
2.55546
20
1.39678
11
2.55562
21
1.39684
0
LINE
8
BLACK
6
CONTINUOUS
10
2.55562
20
1.39684
11
2.55937
21
1.39684
0
LINE
8
BLACK
6
CONTINUOUS
10
2.55937
20
1.39684
11
2.56038
21
1.39666
0
LINE
8
BLACK
6
CONTINUOUS
10
2.56038
20
1.39666
11
2.56052
21
1.39655
0
LINE
8
BLACK
6
CONTINUOUS
10
2.56052
20
1.39655
11
2.56069
21
1.39653
0
LINE
8
BLACK
6
CONTINUOUS
10
2.56069
20
1.39653
11
2.56444
21
1.39465
0
LINE
8
BLACK
6
CONTINUOUS
10
2.56444
20
1.39465
11
2.56515
21
1.39413
0
LINE
8
BLACK
6
CONTINUOUS
10
2.56515
20
1.39413
11
2.56521
21
1.3941
0
LINE
8
BLACK
6
CONTINUOUS
10
2.56521
20
1.3941
11
2.56609
21
1.39322
0
LINE
8
BLACK
6
CONTINUOUS
10
2.56609
20
1.39322
11
2.56643
21
1.39385
0
LINE
8
BLACK
6
CONTINUOUS
10
2.56643
20
1.39385
11
2.56659
21
1.39394
0
LINE
8
BLACK
6
CONTINUOUS
10
2.56659
20
1.39394
11
2.56666
21
1.3941
0
LINE
8
BLACK
6
CONTINUOUS
10
2.56666
20
1.3941
11
2.56853
21
1.39598
0
LINE
8
BLACK
6
CONTINUOUS
10
2.56853
20
1.39598
11
2.56926
21
1.39648
0
LINE
8
BLACK
6
CONTINUOUS
10
2.56926
20
1.39648
11
2.5693
21
1.39653
0
LINE
8
BLACK
6
CONTINUOUS
10
2.5693
20
1.39653
11
2.57305
21
1.3984
0
LINE
8
BLACK
6
CONTINUOUS
10
2.57305
20
1.3984
11
2.57403
21
1.3987
0
LINE
8
BLACK
6
CONTINUOUS
10
2.57403
20
1.3987
11
2.57421
21
1.39866
0
LINE
8
BLACK
6
CONTINUOUS
10
2.57421
20
1.39866
11
2.57437
21
1.39872
0
LINE
8
BLACK
6
CONTINUOUS
10
2.57437
20
1.39872
11
2.58
21
1.39872
0
LINE
8
BLACK
6
CONTINUOUS
10
2.58
20
1.39872
11
2.58101
21
1.39854
0
LINE
8
BLACK
6
CONTINUOUS
10
2.55632
20
1.39094
11
2.55362
21
1.38959
0
LINE
8
BLACK
6
CONTINUOUS
10
2.55362
20
1.38959
11
2.55243
21
1.38839
0
LINE
8
BLACK
6
CONTINUOUS
10
2.55243
20
1.38839
11
2.55108
21
1.38569
0
LINE
8
BLACK
6
CONTINUOUS
10
2.55108
20
1.38569
11
2.55108
21
1.37622
0
LINE
8
BLACK
6
CONTINUOUS
10
2.55108
20
1.37622
11
2.56392
21
1.37622
0
LINE
8
BLACK
6
CONTINUOUS
10
2.56392
20
1.37622
11
2.56392
21
1.38569
0
LINE
8
BLACK
6
CONTINUOUS
10
2.56392
20
1.38569
11
2.56257
21
1.38839
0
LINE
8
BLACK
6
CONTINUOUS
10
2.56257
20
1.38839
11
2.56137
21
1.38959
0
LINE
8
BLACK
6
CONTINUOUS
10
2.56137
20
1.38959
11
2.55868
21
1.39094
0
LINE
8
BLACK
6
CONTINUOUS
10
2.55868
20
1.39094
11
2.55632
21
1.39094
0
LINE
8
BLACK
6
CONTINUOUS
10
2.57507
20
1.39281
11
2.57237
21
1.39146
0
LINE
8
BLACK
6
CONTINUOUS
10
2.57237
20
1.39146
11
2.57133
21
1.39042
0
LINE
8
BLACK
6
CONTINUOUS
10
2.57133
20
1.39042
11
2.56983
21
1.38591
0
LINE
8
BLACK
6
CONTINUOUS
10
2.56983
20
1.38591
11
2.56983
21
1.37622
0
LINE
8
BLACK
6
CONTINUOUS
10
2.56983
20
1.37622
11
2.58454
21
1.37622
0
LINE
8
BLACK
6
CONTINUOUS
10
2.58454
20
1.37622
11
2.58454
21
1.38757
0
LINE
8
BLACK
6
CONTINUOUS
10
2.58454
20
1.38757
11
2.58319
21
1.39026
0
LINE
8
BLACK
6
CONTINUOUS
10
2.58319
20
1.39026
11
2.582
21
1.39146
0
LINE
8
BLACK
6
CONTINUOUS
10
2.582
20
1.39146
11
2.5793
21
1.39281
0
LINE
8
BLACK
6
CONTINUOUS
10
2.5793
20
1.39281
11
2.57507
21
1.39281
0
LINE
8
BLACK
6
CONTINUOUS
10
2.55039
20
1.43141
11
2.55108
21
1.42951
0
LINE
8
BLACK
6
CONTINUOUS
10
2.55108
20
1.42951
11
2.55108
21
1.42121
0
LINE
8
BLACK
6
CONTINUOUS
10
2.55108
20
1.42121
11
2.5875
21
1.42121
0
LINE
8
BLACK
6
CONTINUOUS
10
2.5875
20
1.42121
11
2.58851
21
1.42103
0
LINE
8
BLACK
6
CONTINUOUS
10
2.58851
20
1.42103
11
2.59005
21
1.41974
0
LINE
8
BLACK
6
CONTINUOUS
10
2.59005
20
1.41974
11
2.5904
21
1.41775
0
LINE
8
BLACK
6
CONTINUOUS
10
2.5904
20
1.41775
11
2.58939
21
1.416
0
LINE
8
BLACK
6
CONTINUOUS
10
2.58939
20
1.416
11
2.5875
21
1.41531
0
LINE
8
BLACK
6
CONTINUOUS
10
2.5875
20
1.41531
11
2.55108
21
1.41531
0
LINE
8
BLACK
6
CONTINUOUS
10
2.55108
20
1.41531
11
2.55108
21
1.40701
0
LINE
8
BLACK
6
CONTINUOUS
10
2.55108
20
1.40701
11
2.5509
21
1.406
0
LINE
8
BLACK
6
CONTINUOUS
10
2.5509
20
1.406
11
2.5496
21
1.40445
0
LINE
8
BLACK
6
CONTINUOUS
10
2.5496
20
1.40445
11
2.54761
21
1.4041
0
LINE
8
BLACK
6
CONTINUOUS
10
2.54761
20
1.4041
11
2.54586
21
1.40511
0
LINE
8
BLACK
6
CONTINUOUS
10
2.54586
20
1.40511
11
2.54517
21
1.40701
0
LINE
8
BLACK
6
CONTINUOUS
10
2.54517
20
1.40701
11
2.54517
21
1.42951
0
LINE
8
BLACK
6
CONTINUOUS
10
2.54517
20
1.42951
11
2.54535
21
1.43052
0
LINE
8
BLACK
6
CONTINUOUS
10
2.54535
20
1.43052
11
2.54665
21
1.43207
0
LINE
8
BLACK
6
CONTINUOUS
10
2.54665
20
1.43207
11
2.54864
21
1.43242
0
LINE
8
BLACK
6
CONTINUOUS
10
2.54864
20
1.43242
11
2.55039
21
1.43141
0
LINE
8
BLACK
6
CONTINUOUS
10
2.56024
20
1.46605
11
2.56031
21
1.46606
0
LINE
8
BLACK
6
CONTINUOUS
10
2.56031
20
1.46606
11
2.56593
21
1.46418
0
LINE
8
BLACK
6
CONTINUOUS
10
2.56593
20
1.46418
11
2.56683
21
1.46369
0
LINE
8
BLACK
6
CONTINUOUS
10
2.56683
20
1.46369
11
2.56693
21
1.46354
0
LINE
8
BLACK
6
CONTINUOUS
10
2.56693
20
1.46354
11
2.56709
21
1.46347
0
LINE
8
BLACK
6
CONTINUOUS
10
2.56709
20
1.46347
11
2.58454
21
1.44601
0
LINE
8
BLACK
6
CONTINUOUS
10
2.58454
20
1.44601
11
2.58454
21
1.46325
0
LINE
8
BLACK
6
CONTINUOUS
10
2.58454
20
1.46325
11
2.58472
21
1.46426
0
LINE
8
BLACK
6
CONTINUOUS
10
2.58472
20
1.46426
11
2.58602
21
1.46581
0
LINE
8
BLACK
6
CONTINUOUS
10
2.58602
20
1.46581
11
2.58801
21
1.46616
0
LINE
8
BLACK
6
CONTINUOUS
10
2.58801
20
1.46616
11
2.58976
21
1.46515
0
LINE
8
BLACK
6
CONTINUOUS
10
2.58976
20
1.46515
11
2.59045
21
1.46325
0
LINE
8
BLACK
6
CONTINUOUS
10
2.59045
20
1.46325
11
2.59045
21
1.43888
0
LINE
8
BLACK
6
CONTINUOUS
10
2.59045
20
1.43888
11
2.59034
21
1.43825
0
LINE
8
BLACK
6
CONTINUOUS
10
2.59034
20
1.43825
11
2.59035
21
1.43812
0
LINE
8
BLACK
6
CONTINUOUS
10
2.59035
20
1.43812
11
2.5903
21
1.43805
0
LINE
8
BLACK
6
CONTINUOUS
10
2.5903
20
1.43805
11
2.59027
21
1.43787
0
LINE
8
BLACK
6
CONTINUOUS
10
2.59027
20
1.43787
11
2.5897
21
1.43719
0
LINE
8
BLACK
6
CONTINUOUS
10
2.5897
20
1.43719
11
2.58919
21
1.43646
0
LINE
8
BLACK
6
CONTINUOUS
10
2.58919
20
1.43646
11
2.58906
21
1.43643
0
LINE
8
BLACK
6
CONTINUOUS
10
2.58906
20
1.43643
11
2.58897
21
1.43633
0
LINE
8
BLACK
6
CONTINUOUS
10
2.58897
20
1.43633
11
2.5881
21
1.43617
0
LINE
8
BLACK
6
CONTINUOUS
10
2.5881
20
1.43617
11
2.58724
21
1.43594
0
LINE
8
BLACK
6
CONTINUOUS
10
2.58724
20
1.43594
11
2.58712
21
1.436
0
LINE
8
BLACK
6
CONTINUOUS
10
2.58712
20
1.436
11
2.58698
21
1.43597
0
LINE
8
BLACK
6
CONTINUOUS
10
2.58698
20
1.43597
11
2.58621
21
1.43642
0
LINE
8
BLACK
6
CONTINUOUS
10
2.58621
20
1.43642
11
2.58541
21
1.43679
0
LINE
8
BLACK
6
CONTINUOUS
10
2.58541
20
1.43679
11
2.5634
21
1.4588
0
LINE
8
BLACK
6
CONTINUOUS
10
2.5634
20
1.4588
11
2.55889
21
1.4603
0
LINE
8
BLACK
6
CONTINUOUS
10
2.55889
20
1.4603
11
2.55632
21
1.4603
0
LINE
8
BLACK
6
CONTINUOUS
10
2.55632
20
1.4603
11
2.55362
21
1.45895
0
LINE
8
BLACK
6
CONTINUOUS
10
2.55362
20
1.45895
11
2.55243
21
1.45776
0
LINE
8
BLACK
6
CONTINUOUS
10
2.55243
20
1.45776
11
2.55108
21
1.45506
0
LINE
8
BLACK
6
CONTINUOUS
10
2.55108
20
1.45506
11
2.55108
21
1.44708
0
LINE
8
BLACK
6
CONTINUOUS
10
2.55108
20
1.44708
11
2.55243
21
1.44438
0
LINE
8
BLACK
6
CONTINUOUS
10
2.55243
20
1.44438
11
2.55396
21
1.44285
0
LINE
8
BLACK
6
CONTINUOUS
10
2.55396
20
1.44285
11
2.55455
21
1.44201
0
LINE
8
BLACK
6
CONTINUOUS
10
2.55455
20
1.44201
11
2.55473
21
1.43999
0
LINE
8
BLACK
6
CONTINUOUS
10
2.55473
20
1.43999
11
2.55357
21
1.43834
0
LINE
8
BLACK
6
CONTINUOUS
10
2.55357
20
1.43834
11
2.55162
21
1.43782
0
LINE
8
BLACK
6
CONTINUOUS
10
2.55162
20
1.43782
11
2.54979
21
1.43867
0
LINE
8
BLACK
6
CONTINUOUS
10
2.54979
20
1.43867
11
2.54791
21
1.44054
0
LINE
8
BLACK
6
CONTINUOUS
10
2.54791
20
1.44054
11
2.54741
21
1.44127
0
LINE
8
BLACK
6
CONTINUOUS
10
2.54741
20
1.44127
11
2.54736
21
1.44131
0
LINE
8
BLACK
6
CONTINUOUS
10
2.54736
20
1.44131
11
2.54548
21
1.44506
0
LINE
8
BLACK
6
CONTINUOUS
10
2.54548
20
1.44506
11
2.54519
21
1.44604
0
LINE
8
BLACK
6
CONTINUOUS
10
2.54519
20
1.44604
11
2.54523
21
1.44622
0
LINE
8
BLACK
6
CONTINUOUS
10
2.54523
20
1.44622
11
2.54517
21
1.44638
0
LINE
8
BLACK
6
CONTINUOUS
10
2.54517
20
1.44638
11
2.54517
21
1.45576
0
LINE
8
BLACK
6
CONTINUOUS
10
2.54517
20
1.45576
11
2.54535
21
1.45677
0
LINE
8
BLACK
6
CONTINUOUS
10
2.54535
20
1.45677
11
2.54546
21
1.4569
0
LINE
8
BLACK
6
CONTINUOUS
10
2.54546
20
1.4569
11
2.54548
21
1.45708
0
LINE
8
BLACK
6
CONTINUOUS
10
2.54548
20
1.45708
11
2.54736
21
1.46083
0
LINE
8
BLACK
6
CONTINUOUS
10
2.54736
20
1.46083
11
2.54788
21
1.46153
0
LINE
8
BLACK
6
CONTINUOUS
10
2.54788
20
1.46153
11
2.54791
21
1.46159
0
LINE
8
BLACK
6
CONTINUOUS
10
2.54791
20
1.46159
11
2.54979
21
1.46347
0
LINE
8
BLACK
6
CONTINUOUS
10
2.54979
20
1.46347
11
2.55051
21
1.46397
0
LINE
8
BLACK
6
CONTINUOUS
10
2.55051
20
1.46397
11
2.55055
21
1.46402
0
LINE
8
BLACK
6
CONTINUOUS
10
2.55055
20
1.46402
11
2.5543
21
1.4659
0
LINE
8
BLACK
6
CONTINUOUS
10
2.5543
20
1.4659
11
2.55529
21
1.46619
0
LINE
8
BLACK
6
CONTINUOUS
10
2.55529
20
1.46619
11
2.55546
21
1.46615
0
LINE
8
BLACK
6
CONTINUOUS
10
2.55546
20
1.46615
11
2.55562
21
1.46621
0
LINE
8
BLACK
6
CONTINUOUS
10
2.55562
20
1.46621
11
2.55937
21
1.46621
0
LINE
8
BLACK
6
CONTINUOUS
10
2.55937
20
1.46621
11
2.56024
21
1.46605
0
LINE
8
BLACK
6
CONTINUOUS
10
1.03038
20
0.519202
11
1.03107
21
0.517304
0
LINE
8
BLACK
6
CONTINUOUS
10
1.03107
20
0.517304
11
1.03107
21
0.370276
0
LINE
8
BLACK
6
CONTINUOUS
10
1.03107
20
0.370276
11
1.1781
21
0.370276
0
LINE
8
BLACK
6
CONTINUOUS
10
1.1781
20
0.370276
11
1.17911
21
0.370098
0
LINE
8
BLACK
6
CONTINUOUS
10
1.17911
20
0.370098
11
1.18066
21
0.368799
0
LINE
8
BLACK
6
CONTINUOUS
10
1.18066
20
0.368799
11
1.18101
21
0.36681
0
LINE
8
BLACK
6
CONTINUOUS
10
1.18101
20
0.36681
11
1.18
21
0.365061
0
LINE
8
BLACK
6
CONTINUOUS
10
1.18
20
0.365061
11
1.1781
21
0.36437
0
LINE
8
BLACK
6
CONTINUOUS
10
1.1781
20
0.36437
11
1.03107
21
0.36437
0
LINE
8
BLACK
6
CONTINUOUS
10
1.03107
20
0.36437
11
1.03107
21
0.217342
0
LINE
8
BLACK
6
CONTINUOUS
10
1.03107
20
0.217342
11
1.0309
21
0.216332
0
LINE
8
BLACK
6
CONTINUOUS
10
1.0309
20
0.216332
11
1.0296
21
0.214784
0
LINE
8
BLACK
6
CONTINUOUS
10
1.0296
20
0.214784
11
1.02761
21
0.214434
0
LINE
8
BLACK
6
CONTINUOUS
10
1.02761
20
0.214434
11
1.02586
21
0.215444
0
LINE
8
BLACK
6
CONTINUOUS
10
1.02586
20
0.215444
11
1.02517
21
0.217342
0
LINE
8
BLACK
6
CONTINUOUS
10
1.02517
20
0.217342
11
1.02517
21
0.36437
0
LINE
8
BLACK
6
CONTINUOUS
10
1.02517
20
0.36437
11
0.87814
21
0.36437
0
LINE
8
BLACK
6
CONTINUOUS
10
0.87814
20
0.36437
11
0.87713
21
0.364548
0
LINE
8
BLACK
6
CONTINUOUS
10
0.87713
20
0.364548
11
0.875583
21
0.365846
0
LINE
8
BLACK
6
CONTINUOUS
10
0.875583
20
0.365846
11
0.875232
21
0.367836
0
LINE
8
BLACK
6
CONTINUOUS
10
0.875232
20
0.367836
11
0.876242
21
0.369585
0
LINE
8
BLACK
6
CONTINUOUS
10
0.876242
20
0.369585
11
0.87814
21
0.370276
0
LINE
8
BLACK
6
CONTINUOUS
10
0.87814
20
0.370276
11
1.02517
21
0.370276
0
LINE
8
BLACK
6
CONTINUOUS
10
1.02517
20
0.370276
11
1.02517
21
0.517304
0
LINE
8
BLACK
6
CONTINUOUS
10
1.02517
20
0.517304
11
1.02535
21
0.518314
0
LINE
8
BLACK
6
CONTINUOUS
10
1.02535
20
0.518314
11
1.02665
21
0.519861
0
LINE
8
BLACK
6
CONTINUOUS
10
1.02665
20
0.519861
11
1.02863
21
0.520212
0
LINE
8
BLACK
6
CONTINUOUS
10
1.02863
20
0.520212
11
1.03038
21
0.519202
0
LINE
8
BLACK
6
CONTINUOUS
10
1.08101
20
1.39854
11
1.08114
21
1.39842
0
LINE
8
BLACK
6
CONTINUOUS
10
1.08114
20
1.39842
11
1.08132
21
1.3984
0
LINE
8
BLACK
6
CONTINUOUS
10
1.08132
20
1.3984
11
1.08507
21
1.39653
0
LINE
8
BLACK
6
CONTINUOUS
10
1.08507
20
1.39653
11
1.08578
21
1.396
0
LINE
8
BLACK
6
CONTINUOUS
10
1.08578
20
1.396
11
1.08583
21
1.39598
0
LINE
8
BLACK
6
CONTINUOUS
10
1.08583
20
1.39598
11
1.08771
21
1.3941
0
LINE
8
BLACK
6
CONTINUOUS
10
1.08771
20
1.3941
11
1.08821
21
1.39338
0
LINE
8
BLACK
6
CONTINUOUS
10
1.08821
20
1.39338
11
1.08826
21
1.39333
0
LINE
8
BLACK
6
CONTINUOUS
10
1.08826
20
1.39333
11
1.09014
21
1.38958
0
LINE
8
BLACK
6
CONTINUOUS
10
1.09014
20
1.38958
11
1.09043
21
1.3886
0
LINE
8
BLACK
6
CONTINUOUS
10
1.09043
20
1.3886
11
1.09039
21
1.38843
0
LINE
8
BLACK
6
CONTINUOUS
10
1.09039
20
1.38843
11
1.09045
21
1.38826
0
LINE
8
BLACK
6
CONTINUOUS
10
1.09045
20
1.38826
11
1.09045
21
1.37327
0
LINE
8
BLACK
6
CONTINUOUS
10
1.09045
20
1.37327
11
1.09038
21
1.37288
0
LINE
8
BLACK
6
CONTINUOUS
10
1.09038
20
1.37288
11
1.0904
21
1.37275
0
LINE
8
BLACK
6
CONTINUOUS
10
1.0904
20
1.37275
11
1.09034
21
1.37264
0
LINE
8
BLACK
6
CONTINUOUS
10
1.09034
20
1.37264
11
1.09027
21
1.37226
0
LINE
8
BLACK
6
CONTINUOUS
10
1.09027
20
1.37226
11
1.08978
21
1.37167
0
LINE
8
BLACK
6
CONTINUOUS
10
1.08978
20
1.37167
11
1.08939
21
1.371
0
LINE
8
BLACK
6
CONTINUOUS
10
1.08939
20
1.371
11
1.08914
21
1.37091
0
LINE
8
BLACK
6
CONTINUOUS
10
1.08914
20
1.37091
11
1.08897
21
1.37071
0
LINE
8
BLACK
6
CONTINUOUS
10
1.08897
20
1.37071
11
1.08822
21
1.37058
0
LINE
8
BLACK
6
CONTINUOUS
10
1.08822
20
1.37058
11
1.0875
21
1.37031
0
LINE
8
BLACK
6
CONTINUOUS
10
1.0875
20
1.37031
11
1.04813
21
1.37031
0
LINE
8
BLACK
6
CONTINUOUS
10
1.04813
20
1.37031
11
1.04774
21
1.37038
0
LINE
8
BLACK
6
CONTINUOUS
10
1.04774
20
1.37038
11
1.04761
21
1.37036
0
LINE
8
BLACK
6
CONTINUOUS
10
1.04761
20
1.37036
11
1.0475
21
1.37042
0
LINE
8
BLACK
6
CONTINUOUS
10
1.0475
20
1.37042
11
1.04712
21
1.37049
0
LINE
8
BLACK
6
CONTINUOUS
10
1.04712
20
1.37049
11
1.04653
21
1.37098
0
LINE
8
BLACK
6
CONTINUOUS
10
1.04653
20
1.37098
11
1.04586
21
1.37137
0
LINE
8
BLACK
6
CONTINUOUS
10
1.04586
20
1.37137
11
1.04577
21
1.37162
0
LINE
8
BLACK
6
CONTINUOUS
10
1.04577
20
1.37162
11
1.04557
21
1.37179
0
LINE
8
BLACK
6
CONTINUOUS
10
1.04557
20
1.37179
11
1.04543
21
1.37255
0
LINE
8
BLACK
6
CONTINUOUS
10
1.04543
20
1.37255
11
1.04517
21
1.37327
0
LINE
8
BLACK
6
CONTINUOUS
10
1.04517
20
1.37327
11
1.04517
21
1.38639
0
LINE
8
BLACK
6
CONTINUOUS
10
1.04517
20
1.38639
11
1.04535
21
1.3874
0
LINE
8
BLACK
6
CONTINUOUS
10
1.04535
20
1.3874
11
1.04546
21
1.38753
0
LINE
8
BLACK
6
CONTINUOUS
10
1.04546
20
1.38753
11
1.04548
21
1.38771
0
LINE
8
BLACK
6
CONTINUOUS
10
1.04548
20
1.38771
11
1.04736
21
1.39146
0
LINE
8
BLACK
6
CONTINUOUS
10
1.04736
20
1.39146
11
1.04788
21
1.39217
0
LINE
8
BLACK
6
CONTINUOUS
10
1.04788
20
1.39217
11
1.04791
21
1.39223
0
LINE
8
BLACK
6
CONTINUOUS
10
1.04791
20
1.39223
11
1.04979
21
1.3941
0
LINE
8
BLACK
6
CONTINUOUS
10
1.04979
20
1.3941
11
1.05051
21
1.39461
0
LINE
8
BLACK
6
CONTINUOUS
10
1.05051
20
1.39461
11
1.05055
21
1.39465
0
LINE
8
BLACK
6
CONTINUOUS
10
1.05055
20
1.39465
11
1.0543
21
1.39653
0
LINE
8
BLACK
6
CONTINUOUS
10
1.0543
20
1.39653
11
1.05529
21
1.39682
0
LINE
8
BLACK
6
CONTINUOUS
10
1.05529
20
1.39682
11
1.05546
21
1.39678
0
LINE
8
BLACK
6
CONTINUOUS
10
1.05546
20
1.39678
11
1.05562
21
1.39684
0
LINE
8
BLACK
6
CONTINUOUS
10
1.05562
20
1.39684
11
1.05937
21
1.39684
0
LINE
8
BLACK
6
CONTINUOUS
10
1.05937
20
1.39684
11
1.06038
21
1.39666
0
LINE
8
BLACK
6
CONTINUOUS
10
1.06038
20
1.39666
11
1.06052
21
1.39655
0
LINE
8
BLACK
6
CONTINUOUS
10
1.06052
20
1.39655
11
1.06069
21
1.39653
0
LINE
8
BLACK
6
CONTINUOUS
10
1.06069
20
1.39653
11
1.06444
21
1.39465
0
LINE
8
BLACK
6
CONTINUOUS
10
1.06444
20
1.39465
11
1.06515
21
1.39413
0
LINE
8
BLACK
6
CONTINUOUS
10
1.06515
20
1.39413
11
1.06521
21
1.3941
0
LINE
8
BLACK
6
CONTINUOUS
10
1.06521
20
1.3941
11
1.06609
21
1.39322
0
LINE
8
BLACK
6
CONTINUOUS
10
1.06609
20
1.39322
11
1.06643
21
1.39385
0
LINE
8
BLACK
6
CONTINUOUS
10
1.06643
20
1.39385
11
1.06659
21
1.39394
0
LINE
8
BLACK
6
CONTINUOUS
10
1.06659
20
1.39394
11
1.06666
21
1.3941
0
LINE
8
BLACK
6
CONTINUOUS
10
1.06666
20
1.3941
11
1.06853
21
1.39598
0
LINE
8
BLACK
6
CONTINUOUS
10
1.06853
20
1.39598
11
1.06926
21
1.39648
0
LINE
8
BLACK
6
CONTINUOUS
10
1.06926
20
1.39648
11
1.0693
21
1.39653
0
LINE
8
BLACK
6
CONTINUOUS
10
1.0693
20
1.39653
11
1.07305
21
1.3984
0
LINE
8
BLACK
6
CONTINUOUS
10
1.07305
20
1.3984
11
1.07403
21
1.3987
0
LINE
8
BLACK
6
CONTINUOUS
10
1.07403
20
1.3987
11
1.07421
21
1.39866
0
LINE
8
BLACK
6
CONTINUOUS
10
1.07421
20
1.39866
11
1.07437
21
1.39872
0
LINE
8
BLACK
6
CONTINUOUS
10
1.07437
20
1.39872
11
1.08
21
1.39872
0
LINE
8
BLACK
6
CONTINUOUS
10
1.08
20
1.39872
11
1.08101
21
1.39854
0
LINE
8
BLACK
6
CONTINUOUS
10
1.05632
20
1.39094
11
1.05362
21
1.38959
0
LINE
8
BLACK
6
CONTINUOUS
10
1.05362
20
1.38959
11
1.05243
21
1.38839
0
LINE
8
BLACK
6
CONTINUOUS
10
1.05243
20
1.38839
11
1.05108
21
1.38569
0
LINE
8
BLACK
6
CONTINUOUS
10
1.05108
20
1.38569
11
1.05108
21
1.37622
0
LINE
8
BLACK
6
CONTINUOUS
10
1.05108
20
1.37622
11
1.06392
21
1.37622
0
LINE
8
BLACK
6
CONTINUOUS
10
1.06392
20
1.37622
11
1.06392
21
1.38569
0
LINE
8
BLACK
6
CONTINUOUS
10
1.06392
20
1.38569
11
1.06257
21
1.38839
0
LINE
8
BLACK
6
CONTINUOUS
10
1.06257
20
1.38839
11
1.06137
21
1.38959
0
LINE
8
BLACK
6
CONTINUOUS
10
1.06137
20
1.38959
11
1.05868
21
1.39094
0
LINE
8
BLACK
6
CONTINUOUS
10
1.05868
20
1.39094
11
1.05632
21
1.39094
0
LINE
8
BLACK
6
CONTINUOUS
10
1.07507
20
1.39281
11
1.07237
21
1.39146
0
LINE
8
BLACK
6
CONTINUOUS
10
1.07237
20
1.39146
11
1.07133
21
1.39042
0
LINE
8
BLACK
6
CONTINUOUS
10
1.07133
20
1.39042
11
1.06983
21
1.38591
0
LINE
8
BLACK
6
CONTINUOUS
10
1.06983
20
1.38591
11
1.06983
21
1.37622
0
LINE
8
BLACK
6
CONTINUOUS
10
1.06983
20
1.37622
11
1.08454
21
1.37622
0
LINE
8
BLACK
6
CONTINUOUS
10
1.08454
20
1.37622
11
1.08454
21
1.38757
0
LINE
8
BLACK
6
CONTINUOUS
10
1.08454
20
1.38757
11
1.08319
21
1.39026
0
LINE
8
BLACK
6
CONTINUOUS
10
1.08319
20
1.39026
11
1.082
21
1.39146
0
LINE
8
BLACK
6
CONTINUOUS
10
1.082
20
1.39146
11
1.0793
21
1.39281
0
LINE
8
BLACK
6
CONTINUOUS
10
1.0793
20
1.39281
11
1.07507
21
1.39281
0
LINE
8
BLACK
6
CONTINUOUS
10
1.05039
20
1.43141
11
1.05108
21
1.42951
0
LINE
8
BLACK
6
CONTINUOUS
10
1.05108
20
1.42951
11
1.05108
21
1.42121
0
LINE
8
BLACK
6
CONTINUOUS
10
1.05108
20
1.42121
11
1.0875
21
1.42121
0
LINE
8
BLACK
6
CONTINUOUS
10
1.0875
20
1.42121
11
1.08851
21
1.42103
0
LINE
8
BLACK
6
CONTINUOUS
10
1.08851
20
1.42103
11
1.09005
21
1.41974
0
LINE
8
BLACK
6
CONTINUOUS
10
1.09005
20
1.41974
11
1.0904
21
1.41775
0
LINE
8
BLACK
6
CONTINUOUS
10
1.0904
20
1.41775
11
1.08939
21
1.416
0
LINE
8
BLACK
6
CONTINUOUS
10
1.08939
20
1.416
11
1.0875
21
1.41531
0
LINE
8
BLACK
6
CONTINUOUS
10
1.0875
20
1.41531
11
1.05108
21
1.41531
0
LINE
8
BLACK
6
CONTINUOUS
10
1.05108
20
1.41531
11
1.05108
21
1.40701
0
LINE
8
BLACK
6
CONTINUOUS
10
1.05108
20
1.40701
11
1.0509
21
1.406
0
LINE
8
BLACK
6
CONTINUOUS
10
1.0509
20
1.406
11
1.0496
21
1.40445
0
LINE
8
BLACK
6
CONTINUOUS
10
1.0496
20
1.40445
11
1.04761
21
1.4041
0
LINE
8
BLACK
6
CONTINUOUS
10
1.04761
20
1.4041
11
1.04586
21
1.40511
0
LINE
8
BLACK
6
CONTINUOUS
10
1.04586
20
1.40511
11
1.04517
21
1.40701
0
LINE
8
BLACK
6
CONTINUOUS
10
1.04517
20
1.40701
11
1.04517
21
1.42951
0
LINE
8
BLACK
6
CONTINUOUS
10
1.04517
20
1.42951
11
1.04535
21
1.43052
0
LINE
8
BLACK
6
CONTINUOUS
10
1.04535
20
1.43052
11
1.04665
21
1.43207
0
LINE
8
BLACK
6
CONTINUOUS
10
1.04665
20
1.43207
11
1.04864
21
1.43242
0
LINE
8
BLACK
6
CONTINUOUS
10
1.04864
20
1.43242
11
1.05039
21
1.43141
0
LINE
8
BLACK
6
CONTINUOUS
10
1.08976
20
1.46515
11
1.09045
21
1.46325
0
LINE
8
BLACK
6
CONTINUOUS
10
1.09045
20
1.46325
11
1.09045
21
1.44076
0
LINE
8
BLACK
6
CONTINUOUS
10
1.09045
20
1.44076
11
1.09027
21
1.43975
0
LINE
8
BLACK
6
CONTINUOUS
10
1.09027
20
1.43975
11
1.08897
21
1.4382
0
LINE
8
BLACK
6
CONTINUOUS
10
1.08897
20
1.4382
11
1.08698
21
1.43785
0
LINE
8
BLACK
6
CONTINUOUS
10
1.08698
20
1.43785
11
1.08523
21
1.43886
0
LINE
8
BLACK
6
CONTINUOUS
10
1.08523
20
1.43886
11
1.08454
21
1.44076
0
LINE
8
BLACK
6
CONTINUOUS
10
1.08454
20
1.44076
11
1.08454
21
1.44905
0
LINE
8
BLACK
6
CONTINUOUS
10
1.08454
20
1.44905
11
1.05713
21
1.44905
0
LINE
8
BLACK
6
CONTINUOUS
10
1.05713
20
1.44905
11
1.05959
21
1.44659
0
LINE
8
BLACK
6
CONTINUOUS
10
1.05959
20
1.44659
11
1.06009
21
1.44587
0
LINE
8
BLACK
6
CONTINUOUS
10
1.06009
20
1.44587
11
1.06014
21
1.44583
0
LINE
8
BLACK
6
CONTINUOUS
10
1.06014
20
1.44583
11
1.06201
21
1.44208
0
LINE
8
BLACK
6
CONTINUOUS
10
1.06201
20
1.44208
11
1.06231
21
1.4411
0
LINE
8
BLACK
6
CONTINUOUS
10
1.06231
20
1.4411
11
1.06184
21
1.43913
0
LINE
8
BLACK
6
CONTINUOUS
10
1.06184
20
1.43913
11
1.06022
21
1.43793
0
LINE
8
BLACK
6
CONTINUOUS
10
1.06022
20
1.43793
11
1.0582
21
1.43805
0
LINE
8
BLACK
6
CONTINUOUS
10
1.0582
20
1.43805
11
1.05673
21
1.43944
0
LINE
8
BLACK
6
CONTINUOUS
10
1.05673
20
1.43944
11
1.05507
21
1.44276
0
LINE
8
BLACK
6
CONTINUOUS
10
1.05507
20
1.44276
11
1.05187
21
1.44596
0
LINE
8
BLACK
6
CONTINUOUS
10
1.05187
20
1.44596
11
1.04649
21
1.44955
0
LINE
8
BLACK
6
CONTINUOUS
10
1.04649
20
1.44955
11
1.04575
21
1.45026
0
LINE
8
BLACK
6
CONTINUOUS
10
1.04575
20
1.45026
11
1.0457
21
1.45042
0
LINE
8
BLACK
6
CONTINUOUS
10
1.0457
20
1.45042
11
1.04557
21
1.45053
0
LINE
8
BLACK
6
CONTINUOUS
10
1.04557
20
1.45053
11
1.04542
21
1.45137
0
LINE
8
BLACK
6
CONTINUOUS
10
1.04542
20
1.45137
11
1.04518
21
1.4522
0
LINE
8
BLACK
6
CONTINUOUS
10
1.04518
20
1.4522
11
1.04525
21
1.45235
0
LINE
8
BLACK
6
CONTINUOUS
10
1.04525
20
1.45235
11
1.04522
21
1.45252
0
LINE
8
BLACK
6
CONTINUOUS
10
1.04522
20
1.45252
11
1.04565
21
1.45326
0
LINE
8
BLACK
6
CONTINUOUS
10
1.04565
20
1.45326
11
1.04599
21
1.45405
0
LINE
8
BLACK
6
CONTINUOUS
10
1.04599
20
1.45405
11
1.04614
21
1.45412
0
LINE
8
BLACK
6
CONTINUOUS
10
1.04614
20
1.45412
11
1.04623
21
1.45427
0
LINE
8
BLACK
6
CONTINUOUS
10
1.04623
20
1.45427
11
1.04703
21
1.45456
0
LINE
8
BLACK
6
CONTINUOUS
10
1.04703
20
1.45456
11
1.0478
21
1.45494
0
LINE
8
BLACK
6
CONTINUOUS
10
1.0478
20
1.45494
11
1.04797
21
1.4549
0
LINE
8
BLACK
6
CONTINUOUS
10
1.04797
20
1.4549
11
1.04813
21
1.45496
0
LINE
8
BLACK
6
CONTINUOUS
10
1.04813
20
1.45496
11
1.08454
21
1.45496
0
LINE
8
BLACK
6
CONTINUOUS
10
1.08454
20
1.45496
11
1.08454
21
1.46325
0
LINE
8
BLACK
6
CONTINUOUS
10
1.08454
20
1.46325
11
1.08472
21
1.46426
0
LINE
8
BLACK
6
CONTINUOUS
10
1.08472
20
1.46426
11
1.08602
21
1.46581
0
LINE
8
BLACK
6
CONTINUOUS
10
1.08602
20
1.46581
11
1.08801
21
1.46616
0
LINE
8
BLACK
6
CONTINUOUS
10
1.08801
20
1.46616
11
1.08976
21
1.46515
0
LINE
8
BLACK
6
CONTINUOUS
10
0.148566
20
0.0530541
11
0.147874
21
0.0547244
0
LINE
8
BLACK
6
CONTINUOUS
10
0.147874
20
0.0547244
11
0.148566
21
0.0563947
0
LINE
8
BLACK
6
CONTINUOUS
10
0.148566
20
0.0563947
11
0.150236
21
0.0570866
0
LINE
8
BLACK
6
CONTINUOUS
10
0.150236
20
0.0570866
11
0.204961
21
0.0570866
0
LINE
8
BLACK
6
CONTINUOUS
10
0.204961
20
0.0570866
11
0.204961
21
0.125591
0
LINE
8
BLACK
6
CONTINUOUS
10
0.204961
20
0.125591
11
0.205653
21
0.127261
0
LINE
8
BLACK
6
CONTINUOUS
10
0.205653
20
0.127261
11
0.207323
21
0.127953
0
LINE
8
BLACK
6
CONTINUOUS
10
0.207323
20
0.127953
11
0.208993
21
0.127261
0
LINE
8
BLACK
6
CONTINUOUS
10
0.208993
20
0.127261
11
0.209685
21
0.125591
0
LINE
8
BLACK
6
CONTINUOUS
10
0.209685
20
0.125591
11
0.209685
21
0.0547244
0
LINE
8
BLACK
6
CONTINUOUS
10
0.209685
20
0.0547244
11
0.208993
21
0.0530541
0
LINE
8
BLACK
6
CONTINUOUS
10
0.208993
20
0.0530541
11
0.207323
21
0.0523622
0
LINE
8
BLACK
6
CONTINUOUS
10
0.207323
20
0.0523622
11
0.150236
21
0.0523622
0
LINE
8
BLACK
6
CONTINUOUS
10
0.150236
20
0.0523622
11
0.148566
21
0.0530541
0
LINE
8
BLACK
6
CONTINUOUS
10
3.39435
20
0.127261
11
3.39504
21
0.125591
0
LINE
8
BLACK
6
CONTINUOUS
10
3.39504
20
0.125591
11
3.39504
21
0.0570866
0
LINE
8
BLACK
6
CONTINUOUS
10
3.39504
20
0.0570866
11
3.44976
21
0.0570866
0
LINE
8
BLACK
6
CONTINUOUS
10
3.44976
20
0.0570866
11
3.45143
21
0.0563947
0
LINE
8
BLACK
6
CONTINUOUS
10
3.45143
20
0.0563947
11
3.45213
21
0.0547244
0
LINE
8
BLACK
6
CONTINUOUS
10
3.45213
20
0.0547244
11
3.45143
21
0.0530541
0
LINE
8
BLACK
6
CONTINUOUS
10
3.45143
20
0.0530541
11
3.44976
21
0.0523622
0
LINE
8
BLACK
6
CONTINUOUS
10
3.44976
20
0.0523622
11
3.39268
21
0.0523622
0
LINE
8
BLACK
6
CONTINUOUS
10
3.39268
20
0.0523622
11
3.39101
21
0.0530541
0
LINE
8
BLACK
6
CONTINUOUS
10
3.39101
20
0.0530541
11
3.39031
21
0.0547244
0
LINE
8
BLACK
6
CONTINUOUS
10
3.39031
20
0.0547244
11
3.39031
21
0.123228
0
LINE
8
BLACK
6
CONTINUOUS
10
3.39031
20
0.123228
11
3.3537
21
0.123228
0
LINE
8
BLACK
6
CONTINUOUS
10
3.3537
20
0.123228
11
3.35203
21
0.12392
0
LINE
8
BLACK
6
CONTINUOUS
10
3.35203
20
0.12392
11
3.35134
21
0.125591
0
LINE
8
BLACK
6
CONTINUOUS
10
3.35134
20
0.125591
11
3.35203
21
0.127261
0
LINE
8
BLACK
6
CONTINUOUS
10
3.35203
20
0.127261
11
3.3537
21
0.127953
0
LINE
8
BLACK
6
CONTINUOUS
10
3.3537
20
0.127953
11
3.39268
21
0.127953
0
LINE
8
BLACK
6
CONTINUOUS
10
3.39268
20
0.127953
11
3.39435
21
0.127261
0
LINE
8
BLACK
6
CONTINUOUS
10
3.56246
20
0.290647
11
3.56315
21
0.288976
0
LINE
8
BLACK
6
CONTINUOUS
10
3.56315
20
0.288976
11
3.56315
21
0.104724
0
LINE
8
BLACK
6
CONTINUOUS
10
3.56315
20
0.104724
11
3.56246
21
0.103054
0
LINE
8
BLACK
6
CONTINUOUS
10
3.56246
20
0.103054
11
3.56079
21
0.102362
0
LINE
8
BLACK
6
CONTINUOUS
10
3.56079
20
0.102362
11
3.55912
21
0.103054
0
LINE
8
BLACK
6
CONTINUOUS
10
3.55912
20
0.103054
11
3.55843
21
0.104724
0
LINE
8
BLACK
6
CONTINUOUS
10
3.55843
20
0.104724
11
3.55843
21
0.288976
0
LINE
8
BLACK
6
CONTINUOUS
10
3.55843
20
0.288976
11
3.55912
21
0.290647
0
LINE
8
BLACK
6
CONTINUOUS
10
3.55912
20
0.290647
11
3.56079
21
0.291339
0
LINE
8
BLACK
6
CONTINUOUS
10
3.56079
20
0.291339
11
3.56246
21
0.290647
0
LINE
8
BLACK
6
CONTINUOUS
10
0.0408829
20
0.290647
11
0.0415748
21
0.288976
0
LINE
8
BLACK
6
CONTINUOUS
10
0.0415748
20
0.288976
11
0.0415748
21
0.104724
0
LINE
8
BLACK
6
CONTINUOUS
10
0.0415748
20
0.104724
11
0.0408829
21
0.103054
0
LINE
8
BLACK
6
CONTINUOUS
10
0.0408829
20
0.103054
11
0.0392126
21
0.102362
0
LINE
8
BLACK
6
CONTINUOUS
10
0.0392126
20
0.102362
11
0.0375423
21
0.103054
0
LINE
8
BLACK
6
CONTINUOUS
10
0.0375423
20
0.103054
11
0.0368504
21
0.104724
0
LINE
8
BLACK
6
CONTINUOUS
10
0.0368504
20
0.104724
11
0.0368504
21
0.288976
0
LINE
8
BLACK
6
CONTINUOUS
10
0.0368504
20
0.288976
11
0.0375423
21
0.290647
0
LINE
8
BLACK
6
CONTINUOUS
10
0.0375423
20
0.290647
11
0.0392126
21
0.291339
0
LINE
8
BLACK
6
CONTINUOUS
10
0.0392126
20
0.291339
11
0.0408829
21
0.290647
0
LINE
8
BLACK
6
CONTINUOUS
10
0.208993
20
0.340647
11
0.209685
21
0.338976
0
LINE
8
BLACK
6
CONTINUOUS
10
0.209685
20
0.338976
11
0.209685
21
0.270472
0
LINE
8
BLACK
6
CONTINUOUS
10
0.209685
20
0.270472
11
0.246299
21
0.270472
0
LINE
8
BLACK
6
CONTINUOUS
10
0.246299
20
0.270472
11
0.24797
21
0.269781
0
LINE
8
BLACK
6
CONTINUOUS
10
0.24797
20
0.269781
11
0.248661
21
0.26811
0
LINE
8
BLACK
6
CONTINUOUS
10
0.248661
20
0.26811
11
0.24797
21
0.26644
0
LINE
8
BLACK
6
CONTINUOUS
10
0.24797
20
0.26644
11
0.246299
21
0.265748
0
LINE
8
BLACK
6
CONTINUOUS
10
0.246299
20
0.265748
11
0.207323
21
0.265748
0
LINE
8
BLACK
6
CONTINUOUS
10
0.207323
20
0.265748
11
0.205653
21
0.26644
0
LINE
8
BLACK
6
CONTINUOUS
10
0.205653
20
0.26644
11
0.204961
21
0.26811
0
LINE
8
BLACK
6
CONTINUOUS
10
0.204961
20
0.26811
11
0.204961
21
0.336614
0
LINE
8
BLACK
6
CONTINUOUS
10
0.204961
20
0.336614
11
0.150236
21
0.336614
0
LINE
8
BLACK
6
CONTINUOUS
10
0.150236
20
0.336614
11
0.148566
21
0.337306
0
LINE
8
BLACK
6
CONTINUOUS
10
0.148566
20
0.337306
11
0.147874
21
0.338976
0
LINE
8
BLACK
6
CONTINUOUS
10
0.147874
20
0.338976
11
0.148566
21
0.340647
0
LINE
8
BLACK
6
CONTINUOUS
10
0.148566
20
0.340647
11
0.150236
21
0.341339
0
LINE
8
BLACK
6
CONTINUOUS
10
0.150236
20
0.341339
11
0.207323
21
0.341339
0
LINE
8
BLACK
6
CONTINUOUS
10
0.207323
20
0.341339
11
0.208993
21
0.340647
0
LINE
8
BLACK
6
CONTINUOUS
10
3.45143
20
0.340647
11
3.45213
21
0.338976
0
LINE
8
BLACK
6
CONTINUOUS
10
3.45213
20
0.338976
11
3.45143
21
0.337306
0
LINE
8
BLACK
6
CONTINUOUS
10
3.45143
20
0.337306
11
3.44976
21
0.336614
0
LINE
8
BLACK
6
CONTINUOUS
10
3.44976
20
0.336614
11
3.39504
21
0.336614
0
LINE
8
BLACK
6
CONTINUOUS
10
3.39504
20
0.336614
11
3.39504
21
0.26811
0
LINE
8
BLACK
6
CONTINUOUS
10
3.39504
20
0.26811
11
3.39435
21
0.26644
0
LINE
8
BLACK
6
CONTINUOUS
10
3.39435
20
0.26644
11
3.39268
21
0.265748
0
LINE
8
BLACK
6
CONTINUOUS
10
3.39268
20
0.265748
11
3.39101
21
0.26644
0
LINE
8
BLACK
6
CONTINUOUS
10
3.39101
20
0.26644
11
3.39031
21
0.26811
0
LINE
8
BLACK
6
CONTINUOUS
10
3.39031
20
0.26811
11
3.39031
21
0.338976
0
LINE
8
BLACK
6
CONTINUOUS
10
3.39031
20
0.338976
11
3.39101
21
0.340647
0
LINE
8
BLACK
6
CONTINUOUS
10
3.39101
20
0.340647
11
3.39268
21
0.341339
0
LINE
8
BLACK
6
CONTINUOUS
10
3.39268
20
0.341339
11
3.44976
21
0.341339
0
LINE
8
BLACK
6
CONTINUOUS
10
3.44976
20
0.341339
11
3.45143
21
0.340647
0
LINE
8
BLACK
6
CONTINUOUS
10
0.257431
20
0.309676
11
0.257495
21
0.309678
0
LINE
8
BLACK
6
CONTINUOUS
10
0.257495
20
0.309678
11
0.26312
21
0.307803
0
LINE
8
BLACK
6
CONTINUOUS
10
0.26312
20
0.307803
11
0.264021
21
0.307315
0
LINE
8
BLACK
6
CONTINUOUS
10
0.264021
20
0.307315
11
0.264114
21
0.307164
0
LINE
8
BLACK
6
CONTINUOUS
10
0.264114
20
0.307164
11
0.264274
21
0.30709
0
LINE
8
BLACK
6
CONTINUOUS
10
0.264274
20
0.30709
11
0.268023
21
0.30334
0
LINE
8
BLACK
6
CONTINUOUS
10
0.268023
20
0.30334
11
0.268612
21
0.3025
0
LINE
8
BLACK
6
CONTINUOUS
10
0.268612
20
0.3025
11
0.268627
21
0.302324
0
LINE
8
BLACK
6
CONTINUOUS
10
0.268627
20
0.302324
11
0.268737
21
0.302186
0
LINE
8
BLACK
6
CONTINUOUS
10
0.268737
20
0.302186
11
0.270611
21
0.296562
0
LINE
8
BLACK
6
CONTINUOUS
10
0.270611
20
0.296562
11
0.270741
21
0.295689
0
LINE
8
BLACK
6
CONTINUOUS
10
0.270741
20
0.295689
11
0.270763
21
0.295628
0
LINE
8
BLACK
6
CONTINUOUS
10
0.270763
20
0.295628
11
0.270763
21
0.291879
0
LINE
8
BLACK
6
CONTINUOUS
10
0.270763
20
0.291879
11
0.270585
21
0.290869
0
LINE
8
BLACK
6
CONTINUOUS
10
0.270585
20
0.290869
11
0.269287
21
0.289321
0
LINE
8
BLACK
6
CONTINUOUS
10
0.269287
20
0.289321
11
0.267297
21
0.288971
0
LINE
8
BLACK
6
CONTINUOUS
10
0.267297
20
0.288971
11
0.265548
21
0.289981
0
LINE
8
BLACK
6
CONTINUOUS
10
0.265548
20
0.289981
11
0.264857
21
0.291879
0
LINE
8
BLACK
6
CONTINUOUS
10
0.264857
20
0.291879
11
0.264857
21
0.295149
0
LINE
8
BLACK
6
CONTINUOUS
10
0.264857
20
0.295149
11
0.263355
21
0.299657
0
LINE
8
BLACK
6
CONTINUOUS
10
0.263355
20
0.299657
11
0.260591
21
0.302421
0
LINE
8
BLACK
6
CONTINUOUS
10
0.260591
20
0.302421
11
0.256083
21
0.303924
0
LINE
8
BLACK
6
CONTINUOUS
10
0.256083
20
0.303924
11
0.22844
21
0.303924
0
LINE
8
BLACK
6
CONTINUOUS
10
0.22844
20
0.303924
11
0.22743
21
0.304102
0
LINE
8
BLACK
6
CONTINUOUS
10
0.22743
20
0.304102
11
0.225883
21
0.3054
0
LINE
8
BLACK
6
CONTINUOUS
10
0.225883
20
0.3054
11
0.225532
21
0.307389
0
LINE
8
BLACK
6
CONTINUOUS
10
0.225532
20
0.307389
11
0.226542
21
0.309139
0
LINE
8
BLACK
6
CONTINUOUS
10
0.226542
20
0.309139
11
0.22844
21
0.309829
0
LINE
8
BLACK
6
CONTINUOUS
10
0.22844
20
0.309829
11
0.256562
21
0.309829
0
LINE
8
BLACK
6
CONTINUOUS
10
0.256562
20
0.309829
11
0.257431
21
0.309676
0
LINE
8
BLACK
6
CONTINUOUS
10
3.35243
20
0.319676
11
3.3525
21
0.319678
0
LINE
8
BLACK
6
CONTINUOUS
10
3.3525
20
0.319678
11
3.35812
21
0.317803
0
LINE
8
BLACK
6
CONTINUOUS
10
3.35812
20
0.317803
11
3.35902
21
0.317315
0
LINE
8
BLACK
6
CONTINUOUS
10
3.35902
20
0.317315
11
3.35911
21
0.317164
0
LINE
8
BLACK
6
CONTINUOUS
10
3.35911
20
0.317164
11
3.35927
21
0.31709
0
LINE
8
BLACK
6
CONTINUOUS
10
3.35927
20
0.31709
11
3.36302
21
0.31334
0
LINE
8
BLACK
6
CONTINUOUS
10
3.36302
20
0.31334
11
3.36361
21
0.3125
0
LINE
8
BLACK
6
CONTINUOUS
10
3.36361
20
0.3125
11
3.36363
21
0.312324
0
LINE
8
BLACK
6
CONTINUOUS
10
3.36363
20
0.312324
11
3.36374
21
0.312186
0
LINE
8
BLACK
6
CONTINUOUS
10
3.36374
20
0.312186
11
3.36561
21
0.306562
0
LINE
8
BLACK
6
CONTINUOUS
10
3.36561
20
0.306562
11
3.36574
21
0.305689
0
LINE
8
BLACK
6
CONTINUOUS
10
3.36574
20
0.305689
11
3.36576
21
0.305628
0
LINE
8
BLACK
6
CONTINUOUS
10
3.36576
20
0.305628
11
3.36576
21
0.301879
0
LINE
8
BLACK
6
CONTINUOUS
10
3.36576
20
0.301879
11
3.36558
21
0.300869
0
LINE
8
BLACK
6
CONTINUOUS
10
3.36558
20
0.300869
11
3.36429
21
0.299321
0
LINE
8
BLACK
6
CONTINUOUS
10
3.36429
20
0.299321
11
3.3623
21
0.298971
0
LINE
8
BLACK
6
CONTINUOUS
10
3.3623
20
0.298971
11
3.36055
21
0.299981
0
LINE
8
BLACK
6
CONTINUOUS
10
3.36055
20
0.299981
11
3.35986
21
0.301879
0
LINE
8
BLACK
6
CONTINUOUS
10
3.35986
20
0.301879
11
3.35986
21
0.305149
0
LINE
8
BLACK
6
CONTINUOUS
10
3.35986
20
0.305149
11
3.35835
21
0.309657
0
LINE
8
BLACK
6
CONTINUOUS
10
3.35835
20
0.309657
11
3.35559
21
0.312421
0
LINE
8
BLACK
6
CONTINUOUS
10
3.35559
20
0.312421
11
3.35108
21
0.313924
0
LINE
8
BLACK
6
CONTINUOUS
10
3.35108
20
0.313924
11
3.32344
21
0.313924
0
LINE
8
BLACK
6
CONTINUOUS
10
3.32344
20
0.313924
11
3.32243
21
0.314102
0
LINE
8
BLACK
6
CONTINUOUS
10
3.32243
20
0.314102
11
3.32088
21
0.3154
0
LINE
8
BLACK
6
CONTINUOUS
10
3.32088
20
0.3154
11
3.32053
21
0.317389
0
LINE
8
BLACK
6
CONTINUOUS
10
3.32053
20
0.317389
11
3.32154
21
0.319139
0
LINE
8
BLACK
6
CONTINUOUS
10
3.32154
20
0.319139
11
3.32344
21
0.319829
0
LINE
8
BLACK
6
CONTINUOUS
10
3.32344
20
0.319829
11
3.35156
21
0.319829
0
LINE
8
BLACK
6
CONTINUOUS
10
3.35156
20
0.319829
11
3.35243
21
0.319676
0
LINE
8
BLACK
6
CONTINUOUS
10
0.240558
20
0.349046
11
0.240623
21
0.349048
0
LINE
8
BLACK
6
CONTINUOUS
10
0.240623
20
0.349048
11
0.246247
21
0.347173
0
LINE
8
BLACK
6
CONTINUOUS
10
0.246247
20
0.347173
11
0.247149
21
0.346685
0
LINE
8
BLACK
6
CONTINUOUS
10
0.247149
20
0.346685
11
0.247241
21
0.346534
0
LINE
8
BLACK
6
CONTINUOUS
10
0.247241
20
0.346534
11
0.247401
21
0.34646
0
LINE
8
BLACK
6
CONTINUOUS
10
0.247401
20
0.34646
11
0.264857
21
0.329003
0
LINE
8
BLACK
6
CONTINUOUS
10
0.264857
20
0.329003
11
0.264857
21
0.346247
0
LINE
8
BLACK
6
CONTINUOUS
10
0.264857
20
0.346247
11
0.265036
21
0.347257
0
LINE
8
BLACK
6
CONTINUOUS
10
0.265036
20
0.347257
11
0.266334
21
0.348804
0
LINE
8
BLACK
6
CONTINUOUS
10
0.266334
20
0.348804
11
0.268323
21
0.349155
0
LINE
8
BLACK
6
CONTINUOUS
10
0.268323
20
0.349155
11
0.270072
21
0.348145
0
LINE
8
BLACK
6
CONTINUOUS
10
0.270072
20
0.348145
11
0.270763
21
0.346247
0
LINE
8
BLACK
6
CONTINUOUS
10
0.270763
20
0.346247
11
0.270763
21
0.321875
0
LINE
8
BLACK
6
CONTINUOUS
10
0.270763
20
0.321875
11
0.270651
21
0.32124
0
LINE
8
BLACK
6
CONTINUOUS
10
0.270651
20
0.32124
11
0.270662
21
0.321111
0
LINE
8
BLACK
6
CONTINUOUS
10
0.270662
20
0.321111
11
0.270617
21
0.321045
0
LINE
8
BLACK
6
CONTINUOUS
10
0.270617
20
0.321045
11
0.270585
21
0.320865
0
LINE
8
BLACK
6
CONTINUOUS
10
0.270585
20
0.320865
11
0.270014
21
0.320184
0
LINE
8
BLACK
6
CONTINUOUS
10
0.270014
20
0.320184
11
0.269504
21
0.319456
0
LINE
8
BLACK
6
CONTINUOUS
10
0.269504
20
0.319456
11
0.269373
21
0.319421
0
LINE
8
BLACK
6
CONTINUOUS
10
0.269373
20
0.319421
11
0.269287
21
0.319318
0
LINE
8
BLACK
6
CONTINUOUS
10
0.269287
20
0.319318
11
0.268411
21
0.319163
0
LINE
8
BLACK
6
CONTINUOUS
10
0.268411
20
0.319163
11
0.267553
21
0.318933
0
LINE
8
BLACK
6
CONTINUOUS
10
0.267553
20
0.318933
11
0.267431
21
0.31899
0
LINE
8
BLACK
6
CONTINUOUS
10
0.267431
20
0.31899
11
0.267297
21
0.318967
0
LINE
8
BLACK
6
CONTINUOUS
10
0.267297
20
0.318967
11
0.266528
21
0.319411
0
LINE
8
BLACK
6
CONTINUOUS
10
0.266528
20
0.319411
11
0.265722
21
0.319787
0
LINE
8
BLACK
6
CONTINUOUS
10
0.265722
20
0.319787
11
0.243718
21
0.341791
0
LINE
8
BLACK
6
CONTINUOUS
10
0.243718
20
0.341791
11
0.23921
21
0.343294
0
LINE
8
BLACK
6
CONTINUOUS
10
0.23921
20
0.343294
11
0.236636
21
0.343294
0
LINE
8
BLACK
6
CONTINUOUS
10
0.236636
20
0.343294
11
0.233939
21
0.341945
0
LINE
8
BLACK
6
CONTINUOUS
10
0.233939
20
0.341945
11
0.232742
21
0.340748
0
LINE
8
BLACK
6
CONTINUOUS
10
0.232742
20
0.340748
11
0.231393
21
0.338051
0
LINE
8
BLACK
6
CONTINUOUS
10
0.231393
20
0.338051
11
0.231393
21
0.330071
0
LINE
8
BLACK
6
CONTINUOUS
10
0.231393
20
0.330071
11
0.232742
21
0.327373
0
LINE
8
BLACK
6
CONTINUOUS
10
0.232742
20
0.327373
11
0.234278
21
0.325837
0
LINE
8
BLACK
6
CONTINUOUS
10
0.234278
20
0.325837
11
0.234866
21
0.324997
0
LINE
8
BLACK
6
CONTINUOUS
10
0.234866
20
0.324997
11
0.235042
21
0.322985
0
LINE
8
BLACK
6
CONTINUOUS
10
0.235042
20
0.322985
11
0.233883
21
0.321331
0
LINE
8
BLACK
6
CONTINUOUS
10
0.233883
20
0.321331
11
0.231932
21
0.320808
0
LINE
8
BLACK
6
CONTINUOUS
10
0.231932
20
0.320808
11
0.230102
21
0.321662
0
LINE
8
BLACK
6
CONTINUOUS
10
0.230102
20
0.321662
11
0.228227
21
0.323536
0
LINE
8
BLACK
6
CONTINUOUS
10
0.228227
20
0.323536
11
0.227721
21
0.324259
0
LINE
8
BLACK
6
CONTINUOUS
10
0.227721
20
0.324259
11
0.227674
21
0.324304
0
LINE
8
BLACK
6
CONTINUOUS
10
0.227674
20
0.324304
11
0.225799
21
0.328053
0
LINE
8
BLACK
6
CONTINUOUS
10
0.225799
20
0.328053
11
0.225507
21
0.329036
0
LINE
8
BLACK
6
CONTINUOUS
10
0.225507
20
0.329036
11
0.225548
21
0.329208
0
LINE
8
BLACK
6
CONTINUOUS
10
0.225548
20
0.329208
11
0.225487
21
0.329374
0
LINE
8
BLACK
6
CONTINUOUS
10
0.225487
20
0.329374
11
0.225487
21
0.338748
0
LINE
8
BLACK
6
CONTINUOUS
10
0.225487
20
0.338748
11
0.225665
21
0.339758
0
LINE
8
BLACK
6
CONTINUOUS
10
0.225665
20
0.339758
11
0.225779
21
0.339893
0
LINE
8
BLACK
6
CONTINUOUS
10
0.225779
20
0.339893
11
0.225799
21
0.340068
0
LINE
8
BLACK
6
CONTINUOUS
10
0.225799
20
0.340068
11
0.227674
21
0.343818
0
LINE
8
BLACK
6
CONTINUOUS
10
0.227674
20
0.343818
11
0.2282
21
0.344527
0
LINE
8
BLACK
6
CONTINUOUS
10
0.2282
20
0.344527
11
0.228227
21
0.344585
0
LINE
8
BLACK
6
CONTINUOUS
10
0.228227
20
0.344585
11
0.230102
21
0.34646
0
LINE
8
BLACK
6
CONTINUOUS
10
0.230102
20
0.34646
11
0.230825
21
0.346966
0
LINE
8
BLACK
6
CONTINUOUS
10
0.230825
20
0.346966
11
0.230869
21
0.347013
0
LINE
8
BLACK
6
CONTINUOUS
10
0.230869
20
0.347013
11
0.234619
21
0.348888
0
LINE
8
BLACK
6
CONTINUOUS
10
0.234619
20
0.348888
11
0.235602
21
0.34918
0
LINE
8
BLACK
6
CONTINUOUS
10
0.235602
20
0.34918
11
0.235773
21
0.349139
0
LINE
8
BLACK
6
CONTINUOUS
10
0.235773
20
0.349139
11
0.235939
21
0.349199
0
LINE
8
BLACK
6
CONTINUOUS
10
0.235939
20
0.349199
11
0.239689
21
0.349199
0
LINE
8
BLACK
6
CONTINUOUS
10
0.239689
20
0.349199
11
0.240558
21
0.349046
0
LINE
8
BLACK
6
CONTINUOUS
10
3.36507
20
0.358145
11
3.36576
21
0.356247
0
LINE
8
BLACK
6
CONTINUOUS
10
3.36576
20
0.356247
11
3.36576
21
0.33375
0
LINE
8
BLACK
6
CONTINUOUS
10
3.36576
20
0.33375
11
3.36558
21
0.33274
0
LINE
8
BLACK
6
CONTINUOUS
10
3.36558
20
0.33274
11
3.36429
21
0.331192
0
LINE
8
BLACK
6
CONTINUOUS
10
3.36429
20
0.331192
11
3.3623
21
0.330842
0
LINE
8
BLACK
6
CONTINUOUS
10
3.3623
20
0.330842
11
3.36055
21
0.331852
0
LINE
8
BLACK
6
CONTINUOUS
10
3.36055
20
0.331852
11
3.35986
21
0.33375
0
LINE
8
BLACK
6
CONTINUOUS
10
3.35986
20
0.33375
11
3.35986
21
0.342045
0
LINE
8
BLACK
6
CONTINUOUS
10
3.35986
20
0.342045
11
3.33244
21
0.342045
0
LINE
8
BLACK
6
CONTINUOUS
10
3.33244
20
0.342045
11
3.3349
21
0.339587
0
LINE
8
BLACK
6
CONTINUOUS
10
3.3349
20
0.339587
11
3.33541
21
0.338864
0
LINE
8
BLACK
6
CONTINUOUS
10
3.33541
20
0.338864
11
3.33546
21
0.33882
0
LINE
8
BLACK
6
CONTINUOUS
10
3.33546
20
0.33882
11
3.33733
21
0.33507
0
LINE
8
BLACK
6
CONTINUOUS
10
3.33733
20
0.33507
11
3.33762
21
0.334087
0
LINE
8
BLACK
6
CONTINUOUS
10
3.33762
20
0.334087
11
3.33715
21
0.332123
0
LINE
8
BLACK
6
CONTINUOUS
10
3.33715
20
0.332123
11
3.33553
21
0.330919
0
LINE
8
BLACK
6
CONTINUOUS
10
3.33553
20
0.330919
11
3.33351
21
0.33104
0
LINE
8
BLACK
6
CONTINUOUS
10
3.33351
20
0.33104
11
3.33205
21
0.332429
0
LINE
8
BLACK
6
CONTINUOUS
10
3.33205
20
0.332429
11
3.33039
21
0.33575
0
LINE
8
BLACK
6
CONTINUOUS
10
3.33039
20
0.33575
11
3.32718
21
0.338954
0
LINE
8
BLACK
6
CONTINUOUS
10
3.32718
20
0.338954
11
3.3218
21
0.342541
0
LINE
8
BLACK
6
CONTINUOUS
10
3.3218
20
0.342541
11
3.32106
21
0.34325
0
LINE
8
BLACK
6
CONTINUOUS
10
3.32106
20
0.34325
11
3.32101
21
0.343413
0
LINE
8
BLACK
6
CONTINUOUS
10
3.32101
20
0.343413
11
3.32088
21
0.343522
0
LINE
8
BLACK
6
CONTINUOUS
10
3.32088
20
0.343522
11
3.32073
21
0.344366
0
LINE
8
BLACK
6
CONTINUOUS
10
3.32073
20
0.344366
11
3.32049
21
0.345188
0
LINE
8
BLACK
6
CONTINUOUS
10
3.32049
20
0.345188
11
3.32056
21
0.345344
0
LINE
8
BLACK
6
CONTINUOUS
10
3.32056
20
0.345344
11
3.32053
21
0.345511
0
LINE
8
BLACK
6
CONTINUOUS
10
3.32053
20
0.345511
11
3.32096
21
0.346253
0
LINE
8
BLACK
6
CONTINUOUS
10
3.32096
20
0.346253
11
3.32131
21
0.347038
0
LINE
8
BLACK
6
CONTINUOUS
10
3.32131
20
0.347038
11
3.32146
21
0.347113
0
LINE
8
BLACK
6
CONTINUOUS
10
3.32146
20
0.347113
11
3.32154
21
0.34726
0
LINE
8
BLACK
6
CONTINUOUS
10
3.32154
20
0.34726
11
3.32235
21
0.347553
0
LINE
8
BLACK
6
CONTINUOUS
10
3.32235
20
0.347553
11
3.32312
21
0.347933
0
LINE
8
BLACK
6
CONTINUOUS
10
3.32312
20
0.347933
11
3.32328
21
0.347893
0
LINE
8
BLACK
6
CONTINUOUS
10
3.32328
20
0.347893
11
3.32344
21
0.347951
0
LINE
8
BLACK
6
CONTINUOUS
10
3.32344
20
0.347951
11
3.35986
21
0.347951
0
LINE
8
BLACK
6
CONTINUOUS
10
3.35986
20
0.347951
11
3.35986
21
0.356247
0
LINE
8
BLACK
6
CONTINUOUS
10
3.35986
20
0.356247
11
3.36004
21
0.357257
0
LINE
8
BLACK
6
CONTINUOUS
10
3.36004
20
0.357257
11
3.36133
21
0.358804
0
LINE
8
BLACK
6
CONTINUOUS
10
3.36133
20
0.358804
11
3.36332
21
0.359155
0
LINE
8
BLACK
6
CONTINUOUS
10
3.36332
20
0.359155
11
3.36507
21
0.358145
0
LINE
8
BLACK
6
CONTINUOUS
10
0.0783691
20
0.390101
11
0.0776772
21
0.391772
0
LINE
8
BLACK
6
CONTINUOUS
10
0.0776772
20
0.391772
11
0.0776772
21
0.663425
0
LINE
8
BLACK
6
CONTINUOUS
10
0.0776772
20
0.663425
11
0.0783691
21
0.665096
0
LINE
8
BLACK
6
CONTINUOUS
10
0.0783691
20
0.665096
11
0.0800394
21
0.665787
0
LINE
8
BLACK
6
CONTINUOUS
10
0.0800394
20
0.665787
11
0.0817097
21
0.665096
0
LINE
8
BLACK
6
CONTINUOUS
10
0.0817097
20
0.665096
11
0.0824016
21
0.663425
0
LINE
8
BLACK
6
CONTINUOUS
10
0.0824016
20
0.663425
11
0.0824016
21
0.394134
0
LINE
8
BLACK
6
CONTINUOUS
10
0.0824016
20
0.394134
11
0.207598
21
0.394134
0
LINE
8
BLACK
6
CONTINUOUS
10
0.207598
20
0.394134
11
0.207598
21
0.663425
0
LINE
8
BLACK
6
CONTINUOUS
10
0.207598
20
0.663425
11
0.20829
21
0.665096
0
LINE
8
BLACK
6
CONTINUOUS
10
0.20829
20
0.665096
11
0.209961
21
0.665787
0
LINE
8
BLACK
6
CONTINUOUS
10
0.209961
20
0.665787
11
0.211631
21
0.665096
0
LINE
8
BLACK
6
CONTINUOUS
10
0.211631
20
0.665096
11
0.212323
21
0.663425
0
LINE
8
BLACK
6
CONTINUOUS
10
0.212323
20
0.663425
11
0.212323
21
0.391772
0
LINE
8
BLACK
6
CONTINUOUS
10
0.212323
20
0.391772
11
0.211631
21
0.390101
0
LINE
8
BLACK
6
CONTINUOUS
10
0.211631
20
0.390101
11
0.209961
21
0.389409
0
LINE
8
BLACK
6
CONTINUOUS
10
0.209961
20
0.389409
11
0.0800394
21
0.389409
0
LINE
8
BLACK
6
CONTINUOUS
10
0.0800394
20
0.389409
11
0.0783691
21
0.390101
0
LINE
8
BLACK
6
CONTINUOUS
10
3.36837
20
0.395101
11
3.36768
21
0.396772
0
LINE
8
BLACK
6
CONTINUOUS
10
3.36768
20
0.396772
11
3.36768
21
0.668425
0
LINE
8
BLACK
6
CONTINUOUS
10
3.36768
20
0.668425
11
3.36837
21
0.670096
0
LINE
8
BLACK
6
CONTINUOUS
10
3.36837
20
0.670096
11
3.37004
21
0.670787
0
LINE
8
BLACK
6
CONTINUOUS
10
3.37004
20
0.670787
11
3.37171
21
0.670096
0
LINE
8
BLACK
6
CONTINUOUS
10
3.37171
20
0.670096
11
3.3724
21
0.668425
0
LINE
8
BLACK
6
CONTINUOUS
10
3.3724
20
0.668425
11
3.3724
21
0.399134
0
LINE
8
BLACK
6
CONTINUOUS
10
3.3724
20
0.399134
11
3.4976
21
0.399134
0
LINE
8
BLACK
6
CONTINUOUS
10
3.4976
20
0.399134
11
3.4976
21
0.668425
0
LINE
8
BLACK
6
CONTINUOUS
10
3.4976
20
0.668425
11
3.49829
21
0.670096
0
LINE
8
BLACK
6
CONTINUOUS
10
3.49829
20
0.670096
11
3.49996
21
0.670787
0
LINE
8
BLACK
6
CONTINUOUS
10
3.49996
20
0.670787
11
3.50163
21
0.670096
0
LINE
8
BLACK
6
CONTINUOUS
10
3.50163
20
0.670096
11
3.50232
21
0.668425
0
LINE
8
BLACK
6
CONTINUOUS
10
3.50232
20
0.668425
11
3.50232
21
0.396772
0
LINE
8
BLACK
6
CONTINUOUS
10
3.50232
20
0.396772
11
3.50163
21
0.395101
0
LINE
8
BLACK
6
CONTINUOUS
10
3.50163
20
0.395101
11
3.49996
21
0.394409
0
LINE
8
BLACK
6
CONTINUOUS
10
3.49996
20
0.394409
11
3.37004
21
0.394409
0
LINE
8
BLACK
6
CONTINUOUS
10
3.37004
20
0.394409
11
3.36837
21
0.395101
0
LINE
8
BLACK
6
CONTINUOUS
10
0.0480926
20
0.561289
11
0.0482283
21
0.561303
0
LINE
8
BLACK
6
CONTINUOUS
10
0.0482283
20
0.561303
11
0.0557274
21
0.559428
0
LINE
8
BLACK
6
CONTINUOUS
10
0.0557274
20
0.559428
11
0.0561928
21
0.559221
0
LINE
8
BLACK
6
CONTINUOUS
10
0.0561928
20
0.559221
11
0.0563317
21
0.559205
0
LINE
8
BLACK
6
CONTINUOUS
10
0.0563317
20
0.559205
11
0.0600813
21
0.55733
0
LINE
8
BLACK
6
CONTINUOUS
10
0.0600813
20
0.55733
11
0.0607903
21
0.556804
0
LINE
8
BLACK
6
CONTINUOUS
10
0.0607903
20
0.556804
11
0.0608487
21
0.556777
0
LINE
8
BLACK
6
CONTINUOUS
10
0.0608487
20
0.556777
11
0.0645982
21
0.553027
0
LINE
8
BLACK
6
CONTINUOUS
10
0.0645982
20
0.553027
11
0.0651864
21
0.552187
0
LINE
8
BLACK
6
CONTINUOUS
10
0.0651864
20
0.552187
11
0.0652018
21
0.552011
0
LINE
8
BLACK
6
CONTINUOUS
10
0.0652018
20
0.552011
11
0.0653115
21
0.551873
0
LINE
8
BLACK
6
CONTINUOUS
10
0.0653115
20
0.551873
11
0.0671863
21
0.546249
0
LINE
8
BLACK
6
CONTINUOUS
10
0.0671863
20
0.546249
11
0.0673157
21
0.545376
0
LINE
8
BLACK
6
CONTINUOUS
10
0.0673157
20
0.545376
11
0.0673378
21
0.545315
0
LINE
8
BLACK
6
CONTINUOUS
10
0.0673378
20
0.545315
11
0.0673378
21
0.535941
0
LINE
8
BLACK
6
CONTINUOUS
10
0.0673378
20
0.535941
11
0.0672702
21
0.535558
0
LINE
8
BLACK
6
CONTINUOUS
10
0.0672702
20
0.535558
11
0.067293
21
0.535428
0
LINE
8
BLACK
6
CONTINUOUS
10
0.067293
20
0.535428
11
0.0672274
21
0.535315
0
LINE
8
BLACK
6
CONTINUOUS
10
0.0672274
20
0.535315
11
0.0671597
21
0.534931
0
LINE
8
BLACK
6
CONTINUOUS
10
0.0671597
20
0.534931
11
0.0666666
21
0.534344
0
LINE
8
BLACK
6
CONTINUOUS
10
0.0666666
20
0.534344
11
0.066283
21
0.533679
0
LINE
8
BLACK
6
CONTINUOUS
10
0.066283
20
0.533679
11
0.0660327
21
0.533588
0
LINE
8
BLACK
6
CONTINUOUS
10
0.0660327
20
0.533588
11
0.0658614
21
0.533384
0
LINE
8
BLACK
6
CONTINUOUS
10
0.0658614
20
0.533384
11
0.0651059
21
0.533251
0
LINE
8
BLACK
6
CONTINUOUS
10
0.0651059
20
0.533251
11
0.064385
21
0.532988
0
LINE
8
BLACK
6
CONTINUOUS
10
0.064385
20
0.532988
11
0.025015
21
0.532988
0
LINE
8
BLACK
6
CONTINUOUS
10
0.025015
20
0.532988
11
0.0246314
21
0.533056
0
LINE
8
BLACK
6
CONTINUOUS
10
0.0246314
20
0.533056
11
0.0245022
21
0.533033
0
LINE
8
BLACK
6
CONTINUOUS
10
0.0245022
20
0.533033
11
0.0243886
21
0.533099
0
LINE
8
BLACK
6
CONTINUOUS
10
0.0243886
20
0.533099
11
0.024005
21
0.533166
0
LINE
8
BLACK
6
CONTINUOUS
10
0.024005
20
0.533166
11
0.0234174
21
0.53366
0
LINE
8
BLACK
6
CONTINUOUS
10
0.0234174
20
0.53366
11
0.022753
21
0.534043
0
LINE
8
BLACK
6
CONTINUOUS
10
0.022753
20
0.534043
11
0.0226619
21
0.534294
0
LINE
8
BLACK
6
CONTINUOUS
10
0.0226619
20
0.534294
11
0.0224578
21
0.534465
0
LINE
8
BLACK
6
CONTINUOUS
10
0.0224578
20
0.534465
11
0.0223246
21
0.53522
0
LINE
8
BLACK
6
CONTINUOUS
10
0.0223246
20
0.53522
11
0.0220622
21
0.535941
0
LINE
8
BLACK
6
CONTINUOUS
10
0.0220622
20
0.535941
11
0.0220622
21
0.545315
0
LINE
8
BLACK
6
CONTINUOUS
10
0.0220622
20
0.545315
11
0.0222155
21
0.546184
0
LINE
8
BLACK
6
CONTINUOUS
10
0.0222155
20
0.546184
11
0.0222137
21
0.546249
0
LINE
8
BLACK
6
CONTINUOUS
10
0.0222137
20
0.546249
11
0.0240885
21
0.551873
0
LINE
8
BLACK
6
CONTINUOUS
10
0.0240885
20
0.551873
11
0.0245769
21
0.552775
0
LINE
8
BLACK
6
CONTINUOUS
10
0.0245769
20
0.552775
11
0.0247273
21
0.552867
0
LINE
8
BLACK
6
CONTINUOUS
10
0.0247273
20
0.552867
11
0.0248019
21
0.553027
0
LINE
8
BLACK
6
CONTINUOUS
10
0.0248019
20
0.553027
11
0.0285514
21
0.556777
0
LINE
8
BLACK
6
CONTINUOUS
10
0.0285514
20
0.556777
11
0.0292745
21
0.557283
0
LINE
8
BLACK
6
CONTINUOUS
10
0.0292745
20
0.557283
11
0.0293188
21
0.55733
0
LINE
8
BLACK
6
CONTINUOUS
10
0.0293188
20
0.55733
11
0.0330683
21
0.559205
0
LINE
8
BLACK
6
CONTINUOUS
10
0.0330683
20
0.559205
11
0.0335568
21
0.55935
0
LINE
8
BLACK
6
CONTINUOUS
10
0.0335568
20
0.55935
11
0.0336727
21
0.559428
0
LINE
8
BLACK
6
CONTINUOUS
10
0.0336727
20
0.559428
11
0.0411717
21
0.561303
0
LINE
8
BLACK
6
CONTINUOUS
10
0.0411717
20
0.561303
11
0.0417596
21
0.561344
0
LINE
8
BLACK
6
CONTINUOUS
10
0.0417596
20
0.561344
11
0.0418879
21
0.561391
0
LINE
8
BLACK
6
CONTINUOUS
10
0.0418879
20
0.561391
11
0.0475122
21
0.561391
0
LINE
8
BLACK
6
CONTINUOUS
10
0.0475122
20
0.561391
11
0.0480926
21
0.561289
0
LINE
8
BLACK
6
CONTINUOUS
10
0.0422514
20
0.555486
11
0.0354194
21
0.553778
0
LINE
8
BLACK
6
CONTINUOUS
10
0.0354194
20
0.553778
11
0.0323884
21
0.552262
0
LINE
8
BLACK
6
CONTINUOUS
10
0.0323884
20
0.552262
11
0.0294706
21
0.549344
0
LINE
8
BLACK
6
CONTINUOUS
10
0.0294706
20
0.549344
11
0.0279677
21
0.544836
0
LINE
8
BLACK
6
CONTINUOUS
10
0.0279677
20
0.544836
11
0.0279677
21
0.538894
0
LINE
8
BLACK
6
CONTINUOUS
10
0.0279677
20
0.538894
11
0.0614323
21
0.538894
0
LINE
8
BLACK
6
CONTINUOUS
10
0.0614323
20
0.538894
11
0.0614323
21
0.544836
0
LINE
8
BLACK
6
CONTINUOUS
10
0.0614323
20
0.544836
11
0.0599295
21
0.549344
0
LINE
8
BLACK
6
CONTINUOUS
10
0.0599295
20
0.549344
11
0.0570117
21
0.552262
0
LINE
8
BLACK
6
CONTINUOUS
10
0.0570117
20
0.552262
11
0.0539807
21
0.553778
0
LINE
8
BLACK
6
CONTINUOUS
10
0.0539807
20
0.553778
11
0.0471486
21
0.555486
0
LINE
8
BLACK
6
CONTINUOUS
10
0.0471486
20
0.555486
11
0.0422514
21
0.555486
0
LINE
8
BLACK
6
CONTINUOUS
10
3.33809
20
0.566289
11
3.33823
21
0.566303
0
LINE
8
BLACK
6
CONTINUOUS
10
3.33823
20
0.566303
11
3.34573
21
0.564428
0
LINE
8
BLACK
6
CONTINUOUS
10
3.34573
20
0.564428
11
3.34619
21
0.564221
0
LINE
8
BLACK
6
CONTINUOUS
10
3.34619
20
0.564221
11
3.34633
21
0.564205
0
LINE
8
BLACK
6
CONTINUOUS
10
3.34633
20
0.564205
11
3.35008
21
0.56233
0
LINE
8
BLACK
6
CONTINUOUS
10
3.35008
20
0.56233
11
3.35079
21
0.561804
0
LINE
8
BLACK
6
CONTINUOUS
10
3.35079
20
0.561804
11
3.35085
21
0.561777
0
LINE
8
BLACK
6
CONTINUOUS
10
3.35085
20
0.561777
11
3.3546
21
0.558027
0
LINE
8
BLACK
6
CONTINUOUS
10
3.3546
20
0.558027
11
3.35519
21
0.557187
0
LINE
8
BLACK
6
CONTINUOUS
10
3.35519
20
0.557187
11
3.3552
21
0.557011
0
LINE
8
BLACK
6
CONTINUOUS
10
3.3552
20
0.557011
11
3.35531
21
0.556873
0
LINE
8
BLACK
6
CONTINUOUS
10
3.35531
20
0.556873
11
3.35719
21
0.551249
0
LINE
8
BLACK
6
CONTINUOUS
10
3.35719
20
0.551249
11
3.35732
21
0.550376
0
LINE
8
BLACK
6
CONTINUOUS
10
3.35732
20
0.550376
11
3.35734
21
0.550315
0
LINE
8
BLACK
6
CONTINUOUS
10
3.35734
20
0.550315
11
3.35734
21
0.540941
0
LINE
8
BLACK
6
CONTINUOUS
10
3.35734
20
0.540941
11
3.35727
21
0.540558
0
LINE
8
BLACK
6
CONTINUOUS
10
3.35727
20
0.540558
11
3.35729
21
0.540428
0
LINE
8
BLACK
6
CONTINUOUS
10
3.35729
20
0.540428
11
3.35723
21
0.540315
0
LINE
8
BLACK
6
CONTINUOUS
10
3.35723
20
0.540315
11
3.35716
21
0.539931
0
LINE
8
BLACK
6
CONTINUOUS
10
3.35716
20
0.539931
11
3.35667
21
0.539344
0
LINE
8
BLACK
6
CONTINUOUS
10
3.35667
20
0.539344
11
3.35628
21
0.538679
0
LINE
8
BLACK
6
CONTINUOUS
10
3.35628
20
0.538679
11
3.35603
21
0.538588
0
LINE
8
BLACK
6
CONTINUOUS
10
3.35603
20
0.538588
11
3.35586
21
0.538384
0
LINE
8
BLACK
6
CONTINUOUS
10
3.35586
20
0.538384
11
3.35511
21
0.538251
0
LINE
8
BLACK
6
CONTINUOUS
10
3.35511
20
0.538251
11
3.35439
21
0.537988
0
LINE
8
BLACK
6
CONTINUOUS
10
3.35439
20
0.537988
11
3.31501
21
0.537988
0
LINE
8
BLACK
6
CONTINUOUS
10
3.31501
20
0.537988
11
3.31463
21
0.538056
0
LINE
8
BLACK
6
CONTINUOUS
10
3.31463
20
0.538056
11
3.3145
21
0.538033
0
LINE
8
BLACK
6
CONTINUOUS
10
3.3145
20
0.538033
11
3.31439
21
0.538099
0
LINE
8
BLACK
6
CONTINUOUS
10
3.31439
20
0.538099
11
3.31401
21
0.538166
0
LINE
8
BLACK
6
CONTINUOUS
10
3.31401
20
0.538166
11
3.31342
21
0.53866
0
LINE
8
BLACK
6
CONTINUOUS
10
3.31342
20
0.53866
11
3.31275
21
0.539043
0
LINE
8
BLACK
6
CONTINUOUS
10
3.31275
20
0.539043
11
3.31266
21
0.539294
0
LINE
8
BLACK
6
CONTINUOUS
10
3.31266
20
0.539294
11
3.31246
21
0.539465
0
LINE
8
BLACK
6
CONTINUOUS
10
3.31246
20
0.539465
11
3.31232
21
0.54022
0
LINE
8
BLACK
6
CONTINUOUS
10
3.31232
20
0.54022
11
3.31206
21
0.540941
0
LINE
8
BLACK
6
CONTINUOUS
10
3.31206
20
0.540941
11
3.31206
21
0.550315
0
LINE
8
BLACK
6
CONTINUOUS
10
3.31206
20
0.550315
11
3.31222
21
0.551184
0
LINE
8
BLACK
6
CONTINUOUS
10
3.31222
20
0.551184
11
3.31221
21
0.551249
0
LINE
8
BLACK
6
CONTINUOUS
10
3.31221
20
0.551249
11
3.31409
21
0.556873
0
LINE
8
BLACK
6
CONTINUOUS
10
3.31409
20
0.556873
11
3.31458
21
0.557775
0
LINE
8
BLACK
6
CONTINUOUS
10
3.31458
20
0.557775
11
3.31473
21
0.557867
0
LINE
8
BLACK
6
CONTINUOUS
10
3.31473
20
0.557867
11
3.3148
21
0.558027
0
LINE
8
BLACK
6
CONTINUOUS
10
3.3148
20
0.558027
11
3.31855
21
0.561777
0
LINE
8
BLACK
6
CONTINUOUS
10
3.31855
20
0.561777
11
3.31927
21
0.562283
0
LINE
8
BLACK
6
CONTINUOUS
10
3.31927
20
0.562283
11
3.31932
21
0.56233
0
LINE
8
BLACK
6
CONTINUOUS
10
3.31932
20
0.56233
11
3.32307
21
0.564205
0
LINE
8
BLACK
6
CONTINUOUS
10
3.32307
20
0.564205
11
3.32356
21
0.56435
0
LINE
8
BLACK
6
CONTINUOUS
10
3.32356
20
0.56435
11
3.32367
21
0.564428
0
LINE
8
BLACK
6
CONTINUOUS
10
3.32367
20
0.564428
11
3.33117
21
0.566303
0
LINE
8
BLACK
6
CONTINUOUS
10
3.33117
20
0.566303
11
3.33176
21
0.566344
0
LINE
8
BLACK
6
CONTINUOUS
10
3.33176
20
0.566344
11
3.33189
21
0.566391
0
LINE
8
BLACK
6
CONTINUOUS
10
3.33189
20
0.566391
11
3.33751
21
0.566391
0
LINE
8
BLACK
6
CONTINUOUS
10
3.33751
20
0.566391
11
3.33809
21
0.566289
0
LINE
8
BLACK
6
CONTINUOUS
10
3.33225
20
0.560486
11
3.32542
21
0.558778
0
LINE
8
BLACK
6
CONTINUOUS
10
3.32542
20
0.558778
11
3.32239
21
0.557262
0
LINE
8
BLACK
6
CONTINUOUS
10
3.32239
20
0.557262
11
3.31947
21
0.554344
0
LINE
8
BLACK
6
CONTINUOUS
10
3.31947
20
0.554344
11
3.31797
21
0.549836
0
LINE
8
BLACK
6
CONTINUOUS
10
3.31797
20
0.549836
11
3.31797
21
0.543894
0
LINE
8
BLACK
6
CONTINUOUS
10
3.31797
20
0.543894
11
3.35143
21
0.543894
0
LINE
8
BLACK
6
CONTINUOUS
10
3.35143
20
0.543894
11
3.35143
21
0.549836
0
LINE
8
BLACK
6
CONTINUOUS
10
3.35143
20
0.549836
11
3.34993
21
0.554344
0
LINE
8
BLACK
6
CONTINUOUS
10
3.34993
20
0.554344
11
3.34701
21
0.557262
0
LINE
8
BLACK
6
CONTINUOUS
10
3.34701
20
0.557262
11
3.34398
21
0.558778
0
LINE
8
BLACK
6
CONTINUOUS
10
3.34398
20
0.558778
11
3.33715
21
0.560486
0
LINE
8
BLACK
6
CONTINUOUS
10
3.33715
20
0.560486
11
3.33225
21
0.560486
0
LINE
8
BLACK
6
CONTINUOUS
10
0.066647
20
0.597832
11
0.0673378
21
0.595934
0
LINE
8
BLACK
6
CONTINUOUS
10
0.0673378
20
0.595934
11
0.0673378
21
0.573436
0
LINE
8
BLACK
6
CONTINUOUS
10
0.0673378
20
0.573436
11
0.0671597
21
0.572427
0
LINE
8
BLACK
6
CONTINUOUS
10
0.0671597
20
0.572427
11
0.0658614
21
0.570879
0
LINE
8
BLACK
6
CONTINUOUS
10
0.0658614
20
0.570879
11
0.0638723
21
0.570529
0
LINE
8
BLACK
6
CONTINUOUS
10
0.0638723
20
0.570529
11
0.0621231
21
0.571538
0
LINE
8
BLACK
6
CONTINUOUS
10
0.0621231
20
0.571538
11
0.0614323
21
0.573436
0
LINE
8
BLACK
6
CONTINUOUS
10
0.0614323
20
0.573436
11
0.0614323
21
0.581732
0
LINE
8
BLACK
6
CONTINUOUS
10
0.0614323
20
0.581732
11
0.0340183
21
0.581732
0
LINE
8
BLACK
6
CONTINUOUS
10
0.0340183
20
0.581732
11
0.0364767
21
0.579274
0
LINE
8
BLACK
6
CONTINUOUS
10
0.0364767
20
0.579274
11
0.0369831
21
0.578551
0
LINE
8
BLACK
6
CONTINUOUS
10
0.0369831
20
0.578551
11
0.0370298
21
0.578506
0
LINE
8
BLACK
6
CONTINUOUS
10
0.0370298
20
0.578506
11
0.0389046
21
0.574757
0
LINE
8
BLACK
6
CONTINUOUS
10
0.0389046
20
0.574757
11
0.039197
21
0.573774
0
LINE
8
BLACK
6
CONTINUOUS
10
0.039197
20
0.573774
11
0.0387277
21
0.57181
0
LINE
8
BLACK
6
CONTINUOUS
10
0.0387277
20
0.57181
11
0.0371054
21
0.570606
0
LINE
8
BLACK
6
CONTINUOUS
10
0.0371054
20
0.570606
11
0.0350893
21
0.570727
0
LINE
8
BLACK
6
CONTINUOUS
10
0.0350893
20
0.570727
11
0.0336226
21
0.572116
0
LINE
8
BLACK
6
CONTINUOUS
10
0.0336226
20
0.572116
11
0.0319621
21
0.575437
0
LINE
8
BLACK
6
CONTINUOUS
10
0.0319621
20
0.575437
11
0.0287581
21
0.578641
0
LINE
8
BLACK
6
CONTINUOUS
10
0.0287581
20
0.578641
11
0.0233771
21
0.582228
0
LINE
8
BLACK
6
CONTINUOUS
10
0.0233771
20
0.582228
11
0.0226356
21
0.582937
0
LINE
8
BLACK
6
CONTINUOUS
10
0.0226356
20
0.582937
11
0.0225879
21
0.5831
0
LINE
8
BLACK
6
CONTINUOUS
10
0.0225879
20
0.5831
11
0.0224578
21
0.583209
0
LINE
8
BLACK
6
CONTINUOUS
10
0.0224578
20
0.583209
11
0.022309
21
0.584053
0
LINE
8
BLACK
6
CONTINUOUS
10
0.022309
20
0.584053
11
0.0220683
21
0.584875
0
LINE
8
BLACK
6
CONTINUOUS
10
0.0220683
20
0.584875
11
0.0221365
21
0.585031
0
LINE
8
BLACK
6
CONTINUOUS
10
0.0221365
20
0.585031
11
0.022107
21
0.585198
0
LINE
8
BLACK
6
CONTINUOUS
10
0.022107
20
0.585198
11
0.0225355
21
0.58594
0
LINE
8
BLACK
6
CONTINUOUS
10
0.0225355
20
0.58594
11
0.0228798
21
0.586725
0
LINE
8
BLACK
6
CONTINUOUS
10
0.0228798
20
0.586725
11
0.0230321
21
0.5868
0
LINE
8
BLACK
6
CONTINUOUS
10
0.0230321
20
0.5868
11
0.023117
21
0.586947
0
LINE
8
BLACK
6
CONTINUOUS
10
0.023117
20
0.586947
11
0.0239222
21
0.58724
0
LINE
8
BLACK
6
CONTINUOUS
10
0.0239222
20
0.58724
11
0.0246904
21
0.58762
0
LINE
8
BLACK
6
CONTINUOUS
10
0.0246904
20
0.58762
11
0.0248554
21
0.58758
0
LINE
8
BLACK
6
CONTINUOUS
10
0.0248554
20
0.58758
11
0.025015
21
0.587638
0
LINE
8
BLACK
6
CONTINUOUS
10
0.025015
20
0.587638
11
0.0614323
21
0.587638
0
LINE
8
BLACK
6
CONTINUOUS
10
0.0614323
20
0.587638
11
0.0614323
21
0.595934
0
LINE
8
BLACK
6
CONTINUOUS
10
0.0614323
20
0.595934
11
0.0616104
21
0.596944
0
LINE
8
BLACK
6
CONTINUOUS
10
0.0616104
20
0.596944
11
0.0629087
21
0.598491
0
LINE
8
BLACK
6
CONTINUOUS
10
0.0629087
20
0.598491
11
0.0648978
21
0.598842
0
LINE
8
BLACK
6
CONTINUOUS
10
0.0648978
20
0.598842
11
0.066647
21
0.597832
0
LINE
8
BLACK
6
CONTINUOUS
10
3.32713
20
0.603733
11
3.3272
21
0.603735
0
LINE
8
BLACK
6
CONTINUOUS
10
3.3272
20
0.603735
11
3.33282
21
0.60186
0
LINE
8
BLACK
6
CONTINUOUS
10
3.33282
20
0.60186
11
3.33372
21
0.601372
0
LINE
8
BLACK
6
CONTINUOUS
10
3.33372
20
0.601372
11
3.33382
21
0.601221
0
LINE
8
BLACK
6
CONTINUOUS
10
3.33382
20
0.601221
11
3.33398
21
0.601147
0
LINE
8
BLACK
6
CONTINUOUS
10
3.33398
20
0.601147
11
3.35143
21
0.58369
0
LINE
8
BLACK
6
CONTINUOUS
10
3.35143
20
0.58369
11
3.35143
21
0.600934
0
LINE
8
BLACK
6
CONTINUOUS
10
3.35143
20
0.600934
11
3.35161
21
0.601944
0
LINE
8
BLACK
6
CONTINUOUS
10
3.35161
20
0.601944
11
3.35291
21
0.603491
0
LINE
8
BLACK
6
CONTINUOUS
10
3.35291
20
0.603491
11
3.3549
21
0.603842
0
LINE
8
BLACK
6
CONTINUOUS
10
3.3549
20
0.603842
11
3.35665
21
0.602832
0
LINE
8
BLACK
6
CONTINUOUS
10
3.35665
20
0.602832
11
3.35734
21
0.600934
0
LINE
8
BLACK
6
CONTINUOUS
10
3.35734
20
0.600934
11
3.35734
21
0.576562
0
LINE
8
BLACK
6
CONTINUOUS
10
3.35734
20
0.576562
11
3.35723
21
0.575927
0
LINE
8
BLACK
6
CONTINUOUS
10
3.35723
20
0.575927
11
3.35724
21
0.575797
0
LINE
8
BLACK
6
CONTINUOUS
10
3.35724
20
0.575797
11
3.35719
21
0.575732
0
LINE
8
BLACK
6
CONTINUOUS
10
3.35719
20
0.575732
11
3.35716
21
0.575552
0
LINE
8
BLACK
6
CONTINUOUS
10
3.35716
20
0.575552
11
3.35659
21
0.574871
0
LINE
8
BLACK
6
CONTINUOUS
10
3.35659
20
0.574871
11
3.35608
21
0.574143
0
LINE
8
BLACK
6
CONTINUOUS
10
3.35608
20
0.574143
11
3.35595
21
0.574108
0
LINE
8
BLACK
6
CONTINUOUS
10
3.35595
20
0.574108
11
3.35586
21
0.574005
0
LINE
8
BLACK
6
CONTINUOUS
10
3.35586
20
0.574005
11
3.35499
21
0.57385
0
LINE
8
BLACK
6
CONTINUOUS
10
3.35499
20
0.57385
11
3.35413
21
0.57362
0
LINE
8
BLACK
6
CONTINUOUS
10
3.35413
20
0.57362
11
3.35401
21
0.573677
0
LINE
8
BLACK
6
CONTINUOUS
10
3.35401
20
0.573677
11
3.35387
21
0.573654
0
LINE
8
BLACK
6
CONTINUOUS
10
3.35387
20
0.573654
11
3.3531
21
0.574098
0
LINE
8
BLACK
6
CONTINUOUS
10
3.3531
20
0.574098
11
3.3523
21
0.574474
0
LINE
8
BLACK
6
CONTINUOUS
10
3.3523
20
0.574474
11
3.33029
21
0.596478
0
LINE
8
BLACK
6
CONTINUOUS
10
3.33029
20
0.596478
11
3.32578
21
0.597981
0
LINE
8
BLACK
6
CONTINUOUS
10
3.32578
20
0.597981
11
3.32321
21
0.597981
0
LINE
8
BLACK
6
CONTINUOUS
10
3.32321
20
0.597981
11
3.32051
21
0.596632
0
LINE
8
BLACK
6
CONTINUOUS
10
3.32051
20
0.596632
11
3.31932
21
0.595435
0
LINE
8
BLACK
6
CONTINUOUS
10
3.31932
20
0.595435
11
3.31797
21
0.592738
0
LINE
8
BLACK
6
CONTINUOUS
10
3.31797
20
0.592738
11
3.31797
21
0.584758
0
LINE
8
BLACK
6
CONTINUOUS
10
3.31797
20
0.584758
11
3.31932
21
0.58206
0
LINE
8
BLACK
6
CONTINUOUS
10
3.31932
20
0.58206
11
3.32085
21
0.580524
0
LINE
8
BLACK
6
CONTINUOUS
10
3.32085
20
0.580524
11
3.32144
21
0.579684
0
LINE
8
BLACK
6
CONTINUOUS
10
3.32144
20
0.579684
11
3.32162
21
0.577672
0
LINE
8
BLACK
6
CONTINUOUS
10
3.32162
20
0.577672
11
3.32046
21
0.576018
0
LINE
8
BLACK
6
CONTINUOUS
10
3.32046
20
0.576018
11
3.31851
21
0.575495
0
LINE
8
BLACK
6
CONTINUOUS
10
3.31851
20
0.575495
11
3.31668
21
0.576349
0
LINE
8
BLACK
6
CONTINUOUS
10
3.31668
20
0.576349
11
3.3148
21
0.578223
0
LINE
8
BLACK
6
CONTINUOUS
10
3.3148
20
0.578223
11
3.3143
21
0.578946
0
LINE
8
BLACK
6
CONTINUOUS
10
3.3143
20
0.578946
11
3.31425
21
0.578991
0
LINE
8
BLACK
6
CONTINUOUS
10
3.31425
20
0.578991
11
3.31237
21
0.58274
0
LINE
8
BLACK
6
CONTINUOUS
10
3.31237
20
0.58274
11
3.31208
21
0.583723
0
LINE
8
BLACK
6
CONTINUOUS
10
3.31208
20
0.583723
11
3.31212
21
0.583895
0
LINE
8
BLACK
6
CONTINUOUS
10
3.31212
20
0.583895
11
3.31206
21
0.584061
0
LINE
8
BLACK
6
CONTINUOUS
10
3.31206
20
0.584061
11
3.31206
21
0.593435
0
LINE
8
BLACK
6
CONTINUOUS
10
3.31206
20
0.593435
11
3.31224
21
0.594445
0
LINE
8
BLACK
6
CONTINUOUS
10
3.31224
20
0.594445
11
3.31235
21
0.59458
0
LINE
8
BLACK
6
CONTINUOUS
10
3.31235
20
0.59458
11
3.31237
21
0.594755
0
LINE
8
BLACK
6
CONTINUOUS
10
3.31237
20
0.594755
11
3.31425
21
0.598505
0
LINE
8
BLACK
6
CONTINUOUS
10
3.31425
20
0.598505
11
3.31477
21
0.599214
0
LINE
8
BLACK
6
CONTINUOUS
10
3.31477
20
0.599214
11
3.3148
21
0.599272
0
LINE
8
BLACK
6
CONTINUOUS
10
3.3148
20
0.599272
11
3.31668
21
0.601147
0
LINE
8
BLACK
6
CONTINUOUS
10
3.31668
20
0.601147
11
3.3174
21
0.601653
0
LINE
8
BLACK
6
CONTINUOUS
10
3.3174
20
0.601653
11
3.31744
21
0.6017
0
LINE
8
BLACK
6
CONTINUOUS
10
3.31744
20
0.6017
11
3.32119
21
0.603575
0
LINE
8
BLACK
6
CONTINUOUS
10
3.32119
20
0.603575
11
3.32218
21
0.603867
0
LINE
8
BLACK
6
CONTINUOUS
10
3.32218
20
0.603867
11
3.32235
21
0.603826
0
LINE
8
BLACK
6
CONTINUOUS
10
3.32235
20
0.603826
11
3.32251
21
0.603886
0
LINE
8
BLACK
6
CONTINUOUS
10
3.32251
20
0.603886
11
3.32626
21
0.603886
0
LINE
8
BLACK
6
CONTINUOUS
10
3.32626
20
0.603886
11
3.32713
21
0.603733
0
LINE
8
BLACK
6
CONTINUOUS
10
3.46163
20
0.824335
11
3.46177
21
0.824221
0
LINE
8
BLACK
6
CONTINUOUS
10
3.46177
20
0.824221
11
3.46194
21
0.824201
0
LINE
8
BLACK
6
CONTINUOUS
10
3.46194
20
0.824201
11
3.46569
21
0.822326
0
LINE
8
BLACK
6
CONTINUOUS
10
3.46569
20
0.822326
11
3.4664
21
0.8218
0
LINE
8
BLACK
6
CONTINUOUS
10
3.4664
20
0.8218
11
3.46646
21
0.821773
0
LINE
8
BLACK
6
CONTINUOUS
10
3.46646
20
0.821773
11
3.46833
21
0.819898
0
LINE
8
BLACK
6
CONTINUOUS
10
3.46833
20
0.819898
11
3.46884
21
0.819175
0
LINE
8
BLACK
6
CONTINUOUS
10
3.46884
20
0.819175
11
3.46889
21
0.819131
0
LINE
8
BLACK
6
CONTINUOUS
10
3.46889
20
0.819131
11
3.47076
21
0.815381
0
LINE
8
BLACK
6
CONTINUOUS
10
3.47076
20
0.815381
11
3.47105
21
0.814398
0
LINE
8
BLACK
6
CONTINUOUS
10
3.47105
20
0.814398
11
3.47101
21
0.814227
0
LINE
8
BLACK
6
CONTINUOUS
10
3.47101
20
0.814227
11
3.47107
21
0.814061
0
LINE
8
BLACK
6
CONTINUOUS
10
3.47107
20
0.814061
11
3.47107
21
0.810311
0
LINE
8
BLACK
6
CONTINUOUS
10
3.47107
20
0.810311
11
3.47092
21
0.809442
0
LINE
8
BLACK
6
CONTINUOUS
10
3.47092
20
0.809442
11
3.47092
21
0.809377
0
LINE
8
BLACK
6
CONTINUOUS
10
3.47092
20
0.809377
11
3.46905
21
0.803753
0
LINE
8
BLACK
6
CONTINUOUS
10
3.46905
20
0.803753
11
3.46856
21
0.802851
0
LINE
8
BLACK
6
CONTINUOUS
10
3.46856
20
0.802851
11
3.46841
21
0.802759
0
LINE
8
BLACK
6
CONTINUOUS
10
3.46841
20
0.802759
11
3.46833
21
0.802599
0
LINE
8
BLACK
6
CONTINUOUS
10
3.46833
20
0.802599
11
3.45088
21
0.785143
0
LINE
8
BLACK
6
CONTINUOUS
10
3.45088
20
0.785143
11
3.46812
21
0.785143
0
LINE
8
BLACK
6
CONTINUOUS
10
3.46812
20
0.785143
11
3.46913
21
0.784964
0
LINE
8
BLACK
6
CONTINUOUS
10
3.46913
20
0.784964
11
3.47068
21
0.783666
0
LINE
8
BLACK
6
CONTINUOUS
10
3.47068
20
0.783666
11
3.47103
21
0.781677
0
LINE
8
BLACK
6
CONTINUOUS
10
3.47103
20
0.781677
11
3.47002
21
0.779928
0
LINE
8
BLACK
6
CONTINUOUS
10
3.47002
20
0.779928
11
3.46812
21
0.779237
0
LINE
8
BLACK
6
CONTINUOUS
10
3.46812
20
0.779237
11
3.44375
21
0.779237
0
LINE
8
BLACK
6
CONTINUOUS
10
3.44375
20
0.779237
11
3.44311
21
0.779349
0
LINE
8
BLACK
6
CONTINUOUS
10
3.44311
20
0.779349
11
3.44299
21
0.779338
0
LINE
8
BLACK
6
CONTINUOUS
10
3.44299
20
0.779338
11
3.44292
21
0.779383
0
LINE
8
BLACK
6
CONTINUOUS
10
3.44292
20
0.779383
11
3.44274
21
0.779415
0
LINE
8
BLACK
6
CONTINUOUS
10
3.44274
20
0.779415
11
3.44206
21
0.779986
0
LINE
8
BLACK
6
CONTINUOUS
10
3.44206
20
0.779986
11
3.44133
21
0.780496
0
LINE
8
BLACK
6
CONTINUOUS
10
3.44133
20
0.780496
11
3.4413
21
0.780627
0
LINE
8
BLACK
6
CONTINUOUS
10
3.4413
20
0.780627
11
3.44119
21
0.780713
0
LINE
8
BLACK
6
CONTINUOUS
10
3.44119
20
0.780713
11
3.44104
21
0.781589
0
LINE
8
BLACK
6
CONTINUOUS
10
3.44104
20
0.781589
11
3.44081
21
0.782447
0
LINE
8
BLACK
6
CONTINUOUS
10
3.44081
20
0.782447
11
3.44087
21
0.782569
0
LINE
8
BLACK
6
CONTINUOUS
10
3.44087
20
0.782569
11
3.44084
21
0.782703
0
LINE
8
BLACK
6
CONTINUOUS
10
3.44084
20
0.782703
11
3.44129
21
0.783472
0
LINE
8
BLACK
6
CONTINUOUS
10
3.44129
20
0.783472
11
3.44166
21
0.784278
0
LINE
8
BLACK
6
CONTINUOUS
10
3.44166
20
0.784278
11
3.46367
21
0.806282
0
LINE
8
BLACK
6
CONTINUOUS
10
3.46367
20
0.806282
11
3.46517
21
0.81079
0
LINE
8
BLACK
6
CONTINUOUS
10
3.46517
20
0.81079
11
3.46517
21
0.813364
0
LINE
8
BLACK
6
CONTINUOUS
10
3.46517
20
0.813364
11
3.46382
21
0.816061
0
LINE
8
BLACK
6
CONTINUOUS
10
3.46382
20
0.816061
11
3.46262
21
0.817258
0
LINE
8
BLACK
6
CONTINUOUS
10
3.46262
20
0.817258
11
3.45993
21
0.818607
0
LINE
8
BLACK
6
CONTINUOUS
10
3.45993
20
0.818607
11
3.45195
21
0.818607
0
LINE
8
BLACK
6
CONTINUOUS
10
3.45195
20
0.818607
11
3.44925
21
0.817258
0
LINE
8
BLACK
6
CONTINUOUS
10
3.44925
20
0.817258
11
3.44771
21
0.815722
0
LINE
8
BLACK
6
CONTINUOUS
10
3.44771
20
0.815722
11
3.44687
21
0.815134
0
LINE
8
BLACK
6
CONTINUOUS
10
3.44687
20
0.815134
11
3.44486
21
0.814958
0
LINE
8
BLACK
6
CONTINUOUS
10
3.44486
20
0.814958
11
3.44321
21
0.816117
0
LINE
8
BLACK
6
CONTINUOUS
10
3.44321
20
0.816117
11
3.44268
21
0.818068
0
LINE
8
BLACK
6
CONTINUOUS
10
3.44268
20
0.818068
11
3.44354
21
0.819898
0
LINE
8
BLACK
6
CONTINUOUS
10
3.44354
20
0.819898
11
3.44541
21
0.821773
0
LINE
8
BLACK
6
CONTINUOUS
10
3.44541
20
0.821773
11
3.44613
21
0.822279
0
LINE
8
BLACK
6
CONTINUOUS
10
3.44613
20
0.822279
11
3.44618
21
0.822326
0
LINE
8
BLACK
6
CONTINUOUS
10
3.44618
20
0.822326
11
3.44993
21
0.824201
0
LINE
8
BLACK
6
CONTINUOUS
10
3.44993
20
0.824201
11
3.45091
21
0.824493
0
LINE
8
BLACK
6
CONTINUOUS
10
3.45091
20
0.824493
11
3.45108
21
0.824452
0
LINE
8
BLACK
6
CONTINUOUS
10
3.45108
20
0.824452
11
3.45125
21
0.824513
0
LINE
8
BLACK
6
CONTINUOUS
10
3.45125
20
0.824513
11
3.46062
21
0.824513
0
LINE
8
BLACK
6
CONTINUOUS
10
3.46062
20
0.824513
11
3.46163
21
0.824335
0
LINE
8
BLACK
6
CONTINUOUS
10
3.43351
20
0.824335
11
3.43506
21
0.823036
0
LINE
8
BLACK
6
CONTINUOUS
10
3.43506
20
0.823036
11
3.43541
21
0.821047
0
LINE
8
BLACK
6
CONTINUOUS
10
3.43541
20
0.821047
11
3.4344
21
0.819298
0
LINE
8
BLACK
6
CONTINUOUS
10
3.4344
20
0.819298
11
3.4325
21
0.818607
0
LINE
8
BLACK
6
CONTINUOUS
10
3.4325
20
0.818607
11
3.41671
21
0.818607
0
LINE
8
BLACK
6
CONTINUOUS
10
3.41671
20
0.818607
11
3.41671
21
0.805765
0
LINE
8
BLACK
6
CONTINUOUS
10
3.41671
20
0.805765
11
3.42688
21
0.805765
0
LINE
8
BLACK
6
CONTINUOUS
10
3.42688
20
0.805765
11
3.42789
21
0.805587
0
LINE
8
BLACK
6
CONTINUOUS
10
3.42789
20
0.805587
11
3.42943
21
0.804289
0
LINE
8
BLACK
6
CONTINUOUS
10
3.42943
20
0.804289
11
3.42978
21
0.802299
0
LINE
8
BLACK
6
CONTINUOUS
10
3.42978
20
0.802299
11
3.42877
21
0.80055
0
LINE
8
BLACK
6
CONTINUOUS
10
3.42877
20
0.80055
11
3.42688
21
0.799859
0
LINE
8
BLACK
6
CONTINUOUS
10
3.42688
20
0.799859
11
3.41671
21
0.799859
0
LINE
8
BLACK
6
CONTINUOUS
10
3.41671
20
0.799859
11
3.41671
21
0.78219
0
LINE
8
BLACK
6
CONTINUOUS
10
3.41671
20
0.78219
11
3.41653
21
0.78118
0
LINE
8
BLACK
6
CONTINUOUS
10
3.41653
20
0.78118
11
3.41523
21
0.779633
0
LINE
8
BLACK
6
CONTINUOUS
10
3.41523
20
0.779633
11
3.41324
21
0.779282
0
LINE
8
BLACK
6
CONTINUOUS
10
3.41324
20
0.779282
11
3.41149
21
0.780292
0
LINE
8
BLACK
6
CONTINUOUS
10
3.41149
20
0.780292
11
3.4108
21
0.78219
0
LINE
8
BLACK
6
CONTINUOUS
10
3.4108
20
0.78219
11
3.4108
21
0.82156
0
LINE
8
BLACK
6
CONTINUOUS
10
3.4108
20
0.82156
11
3.41087
21
0.821943
0
LINE
8
BLACK
6
CONTINUOUS
10
3.41087
20
0.821943
11
3.41085
21
0.822073
0
LINE
8
BLACK
6
CONTINUOUS
10
3.41085
20
0.822073
11
3.41091
21
0.822186
0
LINE
8
BLACK
6
CONTINUOUS
10
3.41091
20
0.822186
11
3.41098
21
0.82257
0
LINE
8
BLACK
6
CONTINUOUS
10
3.41098
20
0.82257
11
3.41147
21
0.823157
0
LINE
8
BLACK
6
CONTINUOUS
10
3.41147
20
0.823157
11
3.41186
21
0.823822
0
LINE
8
BLACK
6
CONTINUOUS
10
3.41186
20
0.823822
11
3.41211
21
0.823913
0
LINE
8
BLACK
6
CONTINUOUS
10
3.41211
20
0.823913
11
3.41228
21
0.824117
0
LINE
8
BLACK
6
CONTINUOUS
10
3.41228
20
0.824117
11
3.41303
21
0.82425
0
LINE
8
BLACK
6
CONTINUOUS
10
3.41303
20
0.82425
11
3.41375
21
0.824513
0
LINE
8
BLACK
6
CONTINUOUS
10
3.41375
20
0.824513
11
3.4325
21
0.824513
0
LINE
8
BLACK
6
CONTINUOUS
10
3.4325
20
0.824513
11
3.43351
21
0.824335
0
LINE
8
BLACK
6
CONTINUOUS
10
0.146956
20
0.798718
11
0.147648
21
0.797047
0
LINE
8
BLACK
6
CONTINUOUS
10
0.147648
20
0.797047
11
0.146956
21
0.795377
0
LINE
8
BLACK
6
CONTINUOUS
10
0.146956
20
0.795377
11
0.145286
21
0.794685
0
LINE
8
BLACK
6
CONTINUOUS
10
0.145286
20
0.794685
11
0.124714
21
0.794685
0
LINE
8
BLACK
6
CONTINUOUS
10
0.124714
20
0.794685
11
0.123044
21
0.795377
0
LINE
8
BLACK
6
CONTINUOUS
10
0.123044
20
0.795377
11
0.122352
21
0.797047
0
LINE
8
BLACK
6
CONTINUOUS
10
0.122352
20
0.797047
11
0.123044
21
0.798718
0
LINE
8
BLACK
6
CONTINUOUS
10
0.123044
20
0.798718
11
0.124714
21
0.799409
0
LINE
8
BLACK
6
CONTINUOUS
10
0.124714
20
0.799409
11
0.145286
21
0.799409
0
LINE
8
BLACK
6
CONTINUOUS
10
0.145286
20
0.799409
11
0.146956
21
0.798718
0
LINE
8
BLACK
6
CONTINUOUS
10
0.146956
20
0.854623
11
0.147648
21
0.852953
0
LINE
8
BLACK
6
CONTINUOUS
10
0.147648
20
0.852953
11
0.146956
21
0.851282
0
LINE
8
BLACK
6
CONTINUOUS
10
0.146956
20
0.851282
11
0.145286
21
0.850591
0
LINE
8
BLACK
6
CONTINUOUS
10
0.145286
20
0.850591
11
0.124714
21
0.850591
0
LINE
8
BLACK
6
CONTINUOUS
10
0.124714
20
0.850591
11
0.123044
21
0.851282
0
LINE
8
BLACK
6
CONTINUOUS
10
0.123044
20
0.851282
11
0.122352
21
0.852953
0
LINE
8
BLACK
6
CONTINUOUS
10
0.122352
20
0.852953
11
0.123044
21
0.854623
0
LINE
8
BLACK
6
CONTINUOUS
10
0.123044
20
0.854623
11
0.124714
21
0.855315
0
LINE
8
BLACK
6
CONTINUOUS
10
0.124714
20
0.855315
11
0.145286
21
0.855315
0
LINE
8
BLACK
6
CONTINUOUS
10
0.145286
20
0.855315
11
0.146956
21
0.854623
0
LINE
8
BLACK
6
CONTINUOUS
10
3.46196
20
0.858718
11
3.46265
21
0.857047
0
LINE
8
BLACK
6
CONTINUOUS
10
3.46265
20
0.857047
11
3.46196
21
0.855377
0
LINE
8
BLACK
6
CONTINUOUS
10
3.46196
20
0.855377
11
3.46029
21
0.854685
0
LINE
8
BLACK
6
CONTINUOUS
10
3.46029
20
0.854685
11
3.43971
21
0.854685
0
LINE
8
BLACK
6
CONTINUOUS
10
3.43971
20
0.854685
11
3.43804
21
0.855377
0
LINE
8
BLACK
6
CONTINUOUS
10
3.43804
20
0.855377
11
3.43735
21
0.857047
0
LINE
8
BLACK
6
CONTINUOUS
10
3.43735
20
0.857047
11
3.43804
21
0.858718
0
LINE
8
BLACK
6
CONTINUOUS
10
3.43804
20
0.858718
11
3.43971
21
0.859409
0
LINE
8
BLACK
6
CONTINUOUS
10
3.43971
20
0.859409
11
3.46029
21
0.859409
0
LINE
8
BLACK
6
CONTINUOUS
10
3.46029
20
0.859409
11
3.46196
21
0.858718
0
LINE
8
BLACK
6
CONTINUOUS
10
0.152218
20
0.914399
11
0.152386
21
0.914428
0
LINE
8
BLACK
6
CONTINUOUS
10
0.152386
20
0.914428
11
0.153128
21
0.914
0
LINE
8
BLACK
6
CONTINUOUS
10
0.153128
20
0.914
11
0.153913
21
0.913656
0
LINE
8
BLACK
6
CONTINUOUS
10
0.153913
20
0.913656
11
0.153988
21
0.913503
0
LINE
8
BLACK
6
CONTINUOUS
10
0.153988
20
0.913503
11
0.154135
21
0.913418
0
LINE
8
BLACK
6
CONTINUOUS
10
0.154135
20
0.913418
11
0.154428
21
0.912613
0
LINE
8
BLACK
6
CONTINUOUS
10
0.154428
20
0.912613
11
0.154808
21
0.911845
0
LINE
8
BLACK
6
CONTINUOUS
10
0.154808
20
0.911845
11
0.154768
21
0.91168
0
LINE
8
BLACK
6
CONTINUOUS
10
0.154768
20
0.91168
11
0.154826
21
0.91152
0
LINE
8
BLACK
6
CONTINUOUS
10
0.154826
20
0.91152
11
0.154826
21
0.875103
0
LINE
8
BLACK
6
CONTINUOUS
10
0.154826
20
0.875103
11
0.163121
21
0.875103
0
LINE
8
BLACK
6
CONTINUOUS
10
0.163121
20
0.875103
11
0.164131
21
0.874925
0
LINE
8
BLACK
6
CONTINUOUS
10
0.164131
20
0.874925
11
0.165679
21
0.873627
0
LINE
8
BLACK
6
CONTINUOUS
10
0.165679
20
0.873627
11
0.166029
21
0.871638
0
LINE
8
BLACK
6
CONTINUOUS
10
0.166029
20
0.871638
11
0.165019
21
0.869888
0
LINE
8
BLACK
6
CONTINUOUS
10
0.165019
20
0.869888
11
0.163121
21
0.869198
0
LINE
8
BLACK
6
CONTINUOUS
10
0.163121
20
0.869198
11
0.140624
21
0.869198
0
LINE
8
BLACK
6
CONTINUOUS
10
0.140624
20
0.869198
11
0.139614
21
0.869376
0
LINE
8
BLACK
6
CONTINUOUS
10
0.139614
20
0.869376
11
0.138067
21
0.870674
0
LINE
8
BLACK
6
CONTINUOUS
10
0.138067
20
0.870674
11
0.137716
21
0.872663
0
LINE
8
BLACK
6
CONTINUOUS
10
0.137716
20
0.872663
11
0.138726
21
0.874412
0
LINE
8
BLACK
6
CONTINUOUS
10
0.138726
20
0.874412
11
0.140624
21
0.875103
0
LINE
8
BLACK
6
CONTINUOUS
10
0.140624
20
0.875103
11
0.14892
21
0.875103
0
LINE
8
BLACK
6
CONTINUOUS
10
0.14892
20
0.875103
11
0.14892
21
0.902517
0
LINE
8
BLACK
6
CONTINUOUS
10
0.14892
20
0.902517
11
0.146462
21
0.900059
0
LINE
8
BLACK
6
CONTINUOUS
10
0.146462
20
0.900059
11
0.145739
21
0.899552
0
LINE
8
BLACK
6
CONTINUOUS
10
0.145739
20
0.899552
11
0.145694
21
0.899506
0
LINE
8
BLACK
6
CONTINUOUS
10
0.145694
20
0.899506
11
0.141945
21
0.897631
0
LINE
8
BLACK
6
CONTINUOUS
10
0.141945
20
0.897631
11
0.140962
21
0.897338
0
LINE
8
BLACK
6
CONTINUOUS
10
0.140962
20
0.897338
11
0.138997
21
0.897808
0
LINE
8
BLACK
6
CONTINUOUS
10
0.138997
20
0.897808
11
0.137794
21
0.89943
0
LINE
8
BLACK
6
CONTINUOUS
10
0.137794
20
0.89943
11
0.137915
21
0.901446
0
LINE
8
BLACK
6
CONTINUOUS
10
0.137915
20
0.901446
11
0.139304
21
0.902913
0
LINE
8
BLACK
6
CONTINUOUS
10
0.139304
20
0.902913
11
0.142625
21
0.904573
0
LINE
8
BLACK
6
CONTINUOUS
10
0.142625
20
0.904573
11
0.145829
21
0.907777
0
LINE
8
BLACK
6
CONTINUOUS
10
0.145829
20
0.907777
11
0.149416
21
0.913158
0
LINE
8
BLACK
6
CONTINUOUS
10
0.149416
20
0.913158
11
0.150124
21
0.9139
0
LINE
8
BLACK
6
CONTINUOUS
10
0.150124
20
0.9139
11
0.150287
21
0.913948
0
LINE
8
BLACK
6
CONTINUOUS
10
0.150287
20
0.913948
11
0.150396
21
0.914078
0
LINE
8
BLACK
6
CONTINUOUS
10
0.150396
20
0.914078
11
0.15124
21
0.914226
0
LINE
8
BLACK
6
CONTINUOUS
10
0.15124
20
0.914226
11
0.152063
21
0.914467
0
LINE
8
BLACK
6
CONTINUOUS
10
0.152063
20
0.914467
11
0.152218
21
0.914399
0
LINE
8
BLACK
6
CONTINUOUS
10
0.128511
20
0.914295
11
0.130058
21
0.912997
0
LINE
8
BLACK
6
CONTINUOUS
10
0.130058
20
0.912997
11
0.130409
21
0.911008
0
LINE
8
BLACK
6
CONTINUOUS
10
0.130409
20
0.911008
11
0.129399
21
0.909259
0
LINE
8
BLACK
6
CONTINUOUS
10
0.129399
20
0.909259
11
0.127501
21
0.908568
0
LINE
8
BLACK
6
CONTINUOUS
10
0.127501
20
0.908568
11
0.111706
21
0.908568
0
LINE
8
BLACK
6
CONTINUOUS
10
0.111706
20
0.908568
11
0.111706
21
0.895726
0
LINE
8
BLACK
6
CONTINUOUS
10
0.111706
20
0.895726
11
0.121877
21
0.895726
0
LINE
8
BLACK
6
CONTINUOUS
10
0.121877
20
0.895726
11
0.122887
21
0.895547
0
LINE
8
BLACK
6
CONTINUOUS
10
0.122887
20
0.895547
11
0.124434
21
0.894249
0
LINE
8
BLACK
6
CONTINUOUS
10
0.124434
20
0.894249
11
0.124785
21
0.89226
0
LINE
8
BLACK
6
CONTINUOUS
10
0.124785
20
0.89226
11
0.123775
21
0.890511
0
LINE
8
BLACK
6
CONTINUOUS
10
0.123775
20
0.890511
11
0.121877
21
0.88982
0
LINE
8
BLACK
6
CONTINUOUS
10
0.121877
20
0.88982
11
0.111706
21
0.88982
0
LINE
8
BLACK
6
CONTINUOUS
10
0.111706
20
0.88982
11
0.111706
21
0.87215
0
LINE
8
BLACK
6
CONTINUOUS
10
0.111706
20
0.87215
11
0.111528
21
0.87114
0
LINE
8
BLACK
6
CONTINUOUS
10
0.111528
20
0.87114
11
0.11023
21
0.869593
0
LINE
8
BLACK
6
CONTINUOUS
10
0.11023
20
0.869593
11
0.108241
21
0.869242
0
LINE
8
BLACK
6
CONTINUOUS
10
0.108241
20
0.869242
11
0.106491
21
0.870252
0
LINE
8
BLACK
6
CONTINUOUS
10
0.106491
20
0.870252
11
0.105801
21
0.87215
0
LINE
8
BLACK
6
CONTINUOUS
10
0.105801
20
0.87215
11
0.105801
21
0.91152
0
LINE
8
BLACK
6
CONTINUOUS
10
0.105801
20
0.91152
11
0.105868
21
0.911904
0
LINE
8
BLACK
6
CONTINUOUS
10
0.105868
20
0.911904
11
0.105845
21
0.912033
0
LINE
8
BLACK
6
CONTINUOUS
10
0.105845
20
0.912033
11
0.105911
21
0.912147
0
LINE
8
BLACK
6
CONTINUOUS
10
0.105911
20
0.912147
11
0.105979
21
0.91253
0
LINE
8
BLACK
6
CONTINUOUS
10
0.105979
20
0.91253
11
0.106472
21
0.913118
0
LINE
8
BLACK
6
CONTINUOUS
10
0.106472
20
0.913118
11
0.106855
21
0.913782
0
LINE
8
BLACK
6
CONTINUOUS
10
0.106855
20
0.913782
11
0.107106
21
0.913874
0
LINE
8
BLACK
6
CONTINUOUS
10
0.107106
20
0.913874
11
0.107277
21
0.914078
0
LINE
8
BLACK
6
CONTINUOUS
10
0.107277
20
0.914078
11
0.108032
21
0.914211
0
LINE
8
BLACK
6
CONTINUOUS
10
0.108032
20
0.914211
11
0.108753
21
0.914473
0
LINE
8
BLACK
6
CONTINUOUS
10
0.108753
20
0.914473
11
0.127501
21
0.914473
0
LINE
8
BLACK
6
CONTINUOUS
10
0.127501
20
0.914473
11
0.128511
21
0.914295
0
LINE
8
BLACK
6
CONTINUOUS
10
3.46196
20
0.914623
11
3.46265
21
0.912953
0
LINE
8
BLACK
6
CONTINUOUS
10
3.46265
20
0.912953
11
3.46196
21
0.911282
0
LINE
8
BLACK
6
CONTINUOUS
10
3.46196
20
0.911282
11
3.46029
21
0.910591
0
LINE
8
BLACK
6
CONTINUOUS
10
3.46029
20
0.910591
11
3.43971
21
0.910591
0
LINE
8
BLACK
6
CONTINUOUS
10
3.43971
20
0.910591
11
3.43804
21
0.911282
0
LINE
8
BLACK
6
CONTINUOUS
10
3.43804
20
0.911282
11
3.43735
21
0.912953
0
LINE
8
BLACK
6
CONTINUOUS
10
3.43735
20
0.912953
11
3.43804
21
0.914623
0
LINE
8
BLACK
6
CONTINUOUS
10
3.43804
20
0.914623
11
3.43971
21
0.915315
0
LINE
8
BLACK
6
CONTINUOUS
10
3.43971
20
0.915315
11
3.46029
21
0.915315
0
LINE
8
BLACK
6
CONTINUOUS
10
3.46029
20
0.915315
11
3.46196
21
0.914623
0
LINE
8
BLACK
6
CONTINUOUS
10
3.41294
20
1.39991
11
3.41357
21
1.3999
0
LINE
8
BLACK
6
CONTINUOUS
10
3.41357
20
1.3999
11
3.42089
21
1.39747
0
LINE
8
BLACK
6
CONTINUOUS
10
3.42089
20
1.39747
11
3.42162
21
1.39693
0
LINE
8
BLACK
6
CONTINUOUS
10
3.42162
20
1.39693
11
3.42242
21
1.39651
0
LINE
8
BLACK
6
CONTINUOUS
10
3.42242
20
1.39651
11
3.4273
21
1.39164
0
LINE
8
BLACK
6
CONTINUOUS
10
3.4273
20
1.39164
11
3.42771
21
1.39083
0
LINE
8
BLACK
6
CONTINUOUS
10
3.42771
20
1.39083
11
3.42825
21
1.3901
0
LINE
8
BLACK
6
CONTINUOUS
10
3.42825
20
1.3901
11
3.43069
21
1.38279
0
LINE
8
BLACK
6
CONTINUOUS
10
3.43069
20
1.38279
11
3.43069
21
1.38215
0
LINE
8
BLACK
6
CONTINUOUS
10
3.43069
20
1.38215
11
3.43089
21
1.38154
0
LINE
8
BLACK
6
CONTINUOUS
10
3.43089
20
1.38154
11
3.43089
21
1.37667
0
LINE
8
BLACK
6
CONTINUOUS
10
3.43089
20
1.37667
11
3.43014
21
1.37436
0
LINE
8
BLACK
6
CONTINUOUS
10
3.43014
20
1.37436
11
3.42817
21
1.37293
0
LINE
8
BLACK
6
CONTINUOUS
10
3.42817
20
1.37293
11
3.42574
21
1.37293
0
LINE
8
BLACK
6
CONTINUOUS
10
3.42574
20
1.37293
11
3.42377
21
1.37436
0
LINE
8
BLACK
6
CONTINUOUS
10
3.42377
20
1.37436
11
3.42302
21
1.37667
0
LINE
8
BLACK
6
CONTINUOUS
10
3.42302
20
1.37667
11
3.42302
21
1.38091
0
LINE
8
BLACK
6
CONTINUOUS
10
3.42302
20
1.38091
11
3.42107
21
1.38673
0
LINE
8
BLACK
6
CONTINUOUS
10
3.42107
20
1.38673
11
3.41751
21
1.39029
0
LINE
8
BLACK
6
CONTINUOUS
10
3.41751
20
1.39029
11
3.41169
21
1.39223
0
LINE
8
BLACK
6
CONTINUOUS
10
3.41169
20
1.39223
11
3.37577
21
1.39223
0
LINE
8
BLACK
6
CONTINUOUS
10
3.37577
20
1.39223
11
3.37346
21
1.39298
0
LINE
8
BLACK
6
CONTINUOUS
10
3.37346
20
1.39298
11
3.37203
21
1.39495
0
LINE
8
BLACK
6
CONTINUOUS
10
3.37203
20
1.39495
11
3.37203
21
1.39738
0
LINE
8
BLACK
6
CONTINUOUS
10
3.37203
20
1.39738
11
3.37346
21
1.39935
0
LINE
8
BLACK
6
CONTINUOUS
10
3.37346
20
1.39935
11
3.37577
21
1.4001
0
LINE
8
BLACK
6
CONTINUOUS
10
3.37577
20
1.4001
11
3.41233
21
1.4001
0
LINE
8
BLACK
6
CONTINUOUS
10
3.41233
20
1.4001
11
3.41294
21
1.39991
0
LINE
8
BLACK
6
CONTINUOUS
10
3.4734
20
1.43525
11
3.47404
21
1.43524
0
LINE
8
BLACK
6
CONTINUOUS
10
3.47404
20
1.43524
11
3.48135
21
1.43281
0
LINE
8
BLACK
6
CONTINUOUS
10
3.48135
20
1.43281
11
3.48208
21
1.43227
0
LINE
8
BLACK
6
CONTINUOUS
10
3.48208
20
1.43227
11
3.48289
21
1.43185
0
LINE
8
BLACK
6
CONTINUOUS
10
3.48289
20
1.43185
11
3.50542
21
1.40933
0
LINE
8
BLACK
6
CONTINUOUS
10
3.50542
20
1.40933
11
3.50542
21
1.43151
0
LINE
8
BLACK
6
CONTINUOUS
10
3.50542
20
1.43151
11
3.50617
21
1.43382
0
LINE
8
BLACK
6
CONTINUOUS
10
3.50617
20
1.43382
11
3.50814
21
1.43525
0
LINE
8
BLACK
6
CONTINUOUS
10
3.50814
20
1.43525
11
3.51057
21
1.43525
0
LINE
8
BLACK
6
CONTINUOUS
10
3.51057
20
1.43525
11
3.51254
21
1.43382
0
LINE
8
BLACK
6
CONTINUOUS
10
3.51254
20
1.43382
11
3.51329
21
1.43151
0
LINE
8
BLACK
6
CONTINUOUS
10
3.51329
20
1.43151
11
3.51329
21
1.39982
0
LINE
8
BLACK
6
CONTINUOUS
10
3.51329
20
1.39982
11
3.51301
21
1.39895
0
LINE
8
BLACK
6
CONTINUOUS
10
3.51301
20
1.39895
11
3.51286
21
1.39804
0
LINE
8
BLACK
6
CONTINUOUS
10
3.51286
20
1.39804
11
3.51264
21
1.39781
0
LINE
8
BLACK
6
CONTINUOUS
10
3.51264
20
1.39781
11
3.51254
21
1.39751
0
LINE
8
BLACK
6
CONTINUOUS
10
3.51254
20
1.39751
11
3.51179
21
1.39697
0
LINE
8
BLACK
6
CONTINUOUS
10
3.51179
20
1.39697
11
3.51114
21
1.39632
0
LINE
8
BLACK
6
CONTINUOUS
10
3.51114
20
1.39632
11
3.51083
21
1.39627
0
LINE
8
BLACK
6
CONTINUOUS
10
3.51083
20
1.39627
11
3.51057
21
1.39608
0
LINE
8
BLACK
6
CONTINUOUS
10
3.51057
20
1.39608
11
3.50965
21
1.39608
0
LINE
8
BLACK
6
CONTINUOUS
10
3.50965
20
1.39608
11
3.50874
21
1.39594
0
LINE
8
BLACK
6
CONTINUOUS
10
3.50874
20
1.39594
11
3.50846
21
1.39608
0
LINE
8
BLACK
6
CONTINUOUS
10
3.50846
20
1.39608
11
3.50814
21
1.39608
0
LINE
8
BLACK
6
CONTINUOUS
10
3.50814
20
1.39608
11
3.50739
21
1.39662
0
LINE
8
BLACK
6
CONTINUOUS
10
3.50739
20
1.39662
11
3.50657
21
1.39704
0
LINE
8
BLACK
6
CONTINUOUS
10
3.50657
20
1.39704
11
3.47798
21
1.42563
0
LINE
8
BLACK
6
CONTINUOUS
10
3.47798
20
1.42563
11
3.47216
21
1.42757
0
LINE
8
BLACK
6
CONTINUOUS
10
3.47216
20
1.42757
11
3.46885
21
1.42757
0
LINE
8
BLACK
6
CONTINUOUS
10
3.46885
20
1.42757
11
3.46538
21
1.42583
0
LINE
8
BLACK
6
CONTINUOUS
10
3.46538
20
1.42583
11
3.46385
21
1.4243
0
LINE
8
BLACK
6
CONTINUOUS
10
3.46385
20
1.4243
11
3.46211
21
1.42083
0
LINE
8
BLACK
6
CONTINUOUS
10
3.46211
20
1.42083
11
3.46211
21
1.4105
0
LINE
8
BLACK
6
CONTINUOUS
10
3.46211
20
1.4105
11
3.46385
21
1.40703
0
LINE
8
BLACK
6
CONTINUOUS
10
3.46385
20
1.40703
11
3.46583
21
1.40504
0
LINE
8
BLACK
6
CONTINUOUS
10
3.46583
20
1.40504
11
3.46694
21
1.40288
0
LINE
8
BLACK
6
CONTINUOUS
10
3.46694
20
1.40288
11
3.46656
21
1.40047
0
LINE
8
BLACK
6
CONTINUOUS
10
3.46656
20
1.40047
11
3.46483
21
1.39875
0
LINE
8
BLACK
6
CONTINUOUS
10
3.46483
20
1.39875
11
3.46243
21
1.39837
0
LINE
8
BLACK
6
CONTINUOUS
10
3.46243
20
1.39837
11
3.46026
21
1.39948
0
LINE
8
BLACK
6
CONTINUOUS
10
3.46026
20
1.39948
11
3.45783
21
1.40191
0
LINE
8
BLACK
6
CONTINUOUS
10
3.45783
20
1.40191
11
3.45754
21
1.40248
0
LINE
8
BLACK
6
CONTINUOUS
10
3.45754
20
1.40248
11
3.45709
21
1.40294
0
LINE
8
BLACK
6
CONTINUOUS
10
3.45709
20
1.40294
11
3.45465
21
1.40781
0
LINE
8
BLACK
6
CONTINUOUS
10
3.45465
20
1.40781
11
3.45452
21
1.40871
0
LINE
8
BLACK
6
CONTINUOUS
10
3.45452
20
1.40871
11
3.45424
21
1.40957
0
LINE
8
BLACK
6
CONTINUOUS
10
3.45424
20
1.40957
11
3.45424
21
1.42176
0
LINE
8
BLACK
6
CONTINUOUS
10
3.45424
20
1.42176
11
3.45452
21
1.42262
0
LINE
8
BLACK
6
CONTINUOUS
10
3.45452
20
1.42262
11
3.45465
21
1.42352
0
LINE
8
BLACK
6
CONTINUOUS
10
3.45465
20
1.42352
11
3.45709
21
1.42839
0
LINE
8
BLACK
6
CONTINUOUS
10
3.45709
20
1.42839
11
3.45754
21
1.42885
0
LINE
8
BLACK
6
CONTINUOUS
10
3.45754
20
1.42885
11
3.45783
21
1.42942
0
LINE
8
BLACK
6
CONTINUOUS
10
3.45783
20
1.42942
11
3.46026
21
1.43185
0
LINE
8
BLACK
6
CONTINUOUS
10
3.46026
20
1.43185
11
3.46083
21
1.43214
0
LINE
8
BLACK
6
CONTINUOUS
10
3.46083
20
1.43214
11
3.46129
21
1.43259
0
LINE
8
BLACK
6
CONTINUOUS
10
3.46129
20
1.43259
11
3.46616
21
1.43503
0
LINE
8
BLACK
6
CONTINUOUS
10
3.46616
20
1.43503
11
3.46706
21
1.43516
0
LINE
8
BLACK
6
CONTINUOUS
10
3.46706
20
1.43516
11
3.46792
21
1.43544
0
LINE
8
BLACK
6
CONTINUOUS
10
3.46792
20
1.43544
11
3.4728
21
1.43544
0
LINE
8
BLACK
6
CONTINUOUS
10
3.4728
20
1.43544
11
3.4734
21
1.43525
0
LINE
8
BLACK
6
CONTINUOUS
10
3.43012
20
1.44969
11
3.43089
21
1.44738
0
LINE
8
BLACK
6
CONTINUOUS
10
3.43089
20
1.44738
11
3.43016
21
1.44506
0
LINE
8
BLACK
6
CONTINUOUS
10
3.43016
20
1.44506
11
3.4282
21
1.44361
0
LINE
8
BLACK
6
CONTINUOUS
10
3.4282
20
1.44361
11
3.41627
21
1.43964
0
LINE
8
BLACK
6
CONTINUOUS
10
3.41627
20
1.43964
11
3.41627
21
1.42094
0
LINE
8
BLACK
6
CONTINUOUS
10
3.41627
20
1.42094
11
3.4282
21
1.41696
0
LINE
8
BLACK
6
CONTINUOUS
10
3.4282
20
1.41696
11
3.43016
21
1.41552
0
LINE
8
BLACK
6
CONTINUOUS
10
3.43016
20
1.41552
11
3.43089
21
1.4132
0
LINE
8
BLACK
6
CONTINUOUS
10
3.43089
20
1.4132
11
3.43012
21
1.41089
0
LINE
8
BLACK
6
CONTINUOUS
10
3.43012
20
1.41089
11
3.42814
21
1.40947
0
LINE
8
BLACK
6
CONTINUOUS
10
3.42814
20
1.40947
11
3.42571
21
1.40949
0
LINE
8
BLACK
6
CONTINUOUS
10
3.42571
20
1.40949
11
3.37453
21
1.42655
0
LINE
8
BLACK
6
CONTINUOUS
10
3.37453
20
1.42655
11
3.37357
21
1.42726
0
LINE
8
BLACK
6
CONTINUOUS
10
3.37357
20
1.42726
11
3.3726
21
1.42795
0
LINE
8
BLACK
6
CONTINUOUS
10
3.3726
20
1.42795
11
3.37259
21
1.42798
0
LINE
8
BLACK
6
CONTINUOUS
10
3.37259
20
1.42798
11
3.37257
21
1.428
0
LINE
8
BLACK
6
CONTINUOUS
10
3.37257
20
1.428
11
3.37221
21
1.42913
0
LINE
8
BLACK
6
CONTINUOUS
10
3.37221
20
1.42913
11
3.37183
21
1.43026
0
LINE
8
BLACK
6
CONTINUOUS
10
3.37183
20
1.43026
11
3.37184
21
1.43029
0
LINE
8
BLACK
6
CONTINUOUS
10
3.37184
20
1.43029
11
3.37183
21
1.43032
0
LINE
8
BLACK
6
CONTINUOUS
10
3.37183
20
1.43032
11
3.37221
21
1.43144
0
LINE
8
BLACK
6
CONTINUOUS
10
3.37221
20
1.43144
11
3.37257
21
1.43258
0
LINE
8
BLACK
6
CONTINUOUS
10
3.37257
20
1.43258
11
3.37259
21
1.4326
0
LINE
8
BLACK
6
CONTINUOUS
10
3.37259
20
1.4326
11
3.3726
21
1.43263
0
LINE
8
BLACK
6
CONTINUOUS
10
3.3726
20
1.43263
11
3.37357
21
1.43332
0
LINE
8
BLACK
6
CONTINUOUS
10
3.37357
20
1.43332
11
3.37453
21
1.43402
0
LINE
8
BLACK
6
CONTINUOUS
10
3.37453
20
1.43402
11
3.42571
21
1.45108
0
LINE
8
BLACK
6
CONTINUOUS
10
3.42571
20
1.45108
11
3.42814
21
1.4511
0
LINE
8
BLACK
6
CONTINUOUS
10
3.42814
20
1.4511
11
3.43012
21
1.44969
0
LINE
8
BLACK
6
CONTINUOUS
10
3.38822
20
1.43029
11
3.40839
21
1.42357
0
LINE
8
BLACK
6
CONTINUOUS
10
3.40839
20
1.42357
11
3.40839
21
1.43701
0
LINE
8
BLACK
6
CONTINUOUS
10
3.40839
20
1.43701
11
3.38822
21
1.43029
0
LINE
8
BLACK
6
CONTINUOUS
10
3.49032
20
1.48404
11
3.49081
21
1.48407
0
LINE
8
BLACK
6
CONTINUOUS
10
3.49081
20
1.48407
11
3.50056
21
1.48163
0
LINE
8
BLACK
6
CONTINUOUS
10
3.50056
20
1.48163
11
3.50093
21
1.4814
0
LINE
8
BLACK
6
CONTINUOUS
10
3.50093
20
1.4814
11
3.50137
21
1.48134
0
LINE
8
BLACK
6
CONTINUOUS
10
3.50137
20
1.48134
11
3.50624
21
1.4789
0
LINE
8
BLACK
6
CONTINUOUS
10
3.50624
20
1.4789
11
3.5067
21
1.47845
0
LINE
8
BLACK
6
CONTINUOUS
10
3.5067
20
1.47845
11
3.50726
21
1.47816
0
LINE
8
BLACK
6
CONTINUOUS
10
3.50726
20
1.47816
11
3.5097
21
1.47572
0
LINE
8
BLACK
6
CONTINUOUS
10
3.5097
20
1.47572
11
3.50999
21
1.47515
0
LINE
8
BLACK
6
CONTINUOUS
10
3.50999
20
1.47515
11
3.51044
21
1.4747
0
LINE
8
BLACK
6
CONTINUOUS
10
3.51044
20
1.4747
11
3.51288
21
1.46983
0
LINE
8
BLACK
6
CONTINUOUS
10
3.51288
20
1.46983
11
3.51301
21
1.46893
0
LINE
8
BLACK
6
CONTINUOUS
10
3.51301
20
1.46893
11
3.51329
21
1.46807
0
LINE
8
BLACK
6
CONTINUOUS
10
3.51329
20
1.46807
11
3.51329
21
1.46319
0
LINE
8
BLACK
6
CONTINUOUS
10
3.51329
20
1.46319
11
3.51301
21
1.46233
0
LINE
8
BLACK
6
CONTINUOUS
10
3.51301
20
1.46233
11
3.51288
21
1.46143
0
LINE
8
BLACK
6
CONTINUOUS
10
3.51288
20
1.46143
11
3.51044
21
1.45656
0
LINE
8
BLACK
6
CONTINUOUS
10
3.51044
20
1.45656
11
3.50999
21
1.4561
0
LINE
8
BLACK
6
CONTINUOUS
10
3.50999
20
1.4561
11
3.5097
21
1.45553
0
LINE
8
BLACK
6
CONTINUOUS
10
3.5097
20
1.45553
11
3.50726
21
1.4531
0
LINE
8
BLACK
6
CONTINUOUS
10
3.50726
20
1.4531
11
3.5067
21
1.45281
0
LINE
8
BLACK
6
CONTINUOUS
10
3.5067
20
1.45281
11
3.50624
21
1.45236
0
LINE
8
BLACK
6
CONTINUOUS
10
3.50624
20
1.45236
11
3.50137
21
1.44992
0
LINE
8
BLACK
6
CONTINUOUS
10
3.50137
20
1.44992
11
3.50093
21
1.44986
0
LINE
8
BLACK
6
CONTINUOUS
10
3.50093
20
1.44986
11
3.50056
21
1.44962
0
LINE
8
BLACK
6
CONTINUOUS
10
3.50056
20
1.44962
11
3.49081
21
1.44719
0
LINE
8
BLACK
6
CONTINUOUS
10
3.49081
20
1.44719
11
3.49032
21
1.44722
0
LINE
8
BLACK
6
CONTINUOUS
10
3.49032
20
1.44722
11
3.48986
21
1.44707
0
LINE
8
BLACK
6
CONTINUOUS
10
3.48986
20
1.44707
11
3.47767
21
1.44707
0
LINE
8
BLACK
6
CONTINUOUS
10
3.47767
20
1.44707
11
3.4772
21
1.44722
0
LINE
8
BLACK
6
CONTINUOUS
10
3.4772
20
1.44722
11
3.47672
21
1.44719
0
LINE
8
BLACK
6
CONTINUOUS
10
3.47672
20
1.44719
11
3.46697
21
1.44962
0
LINE
8
BLACK
6
CONTINUOUS
10
3.46697
20
1.44962
11
3.4666
21
1.44986
0
LINE
8
BLACK
6
CONTINUOUS
10
3.4666
20
1.44986
11
3.46616
21
1.44992
0
LINE
8
BLACK
6
CONTINUOUS
10
3.46616
20
1.44992
11
3.46129
21
1.45236
0
LINE
8
BLACK
6
CONTINUOUS
10
3.46129
20
1.45236
11
3.46083
21
1.45281
0
LINE
8
BLACK
6
CONTINUOUS
10
3.46083
20
1.45281
11
3.46026
21
1.4531
0
LINE
8
BLACK
6
CONTINUOUS
10
3.46026
20
1.4531
11
3.45783
21
1.45553
0
LINE
8
BLACK
6
CONTINUOUS
10
3.45783
20
1.45553
11
3.45754
21
1.4561
0
LINE
8
BLACK
6
CONTINUOUS
10
3.45754
20
1.4561
11
3.45709
21
1.45656
0
LINE
8
BLACK
6
CONTINUOUS
10
3.45709
20
1.45656
11
3.45465
21
1.46143
0
LINE
8
BLACK
6
CONTINUOUS
10
3.45465
20
1.46143
11
3.45452
21
1.46233
0
LINE
8
BLACK
6
CONTINUOUS
10
3.45452
20
1.46233
11
3.45424
21
1.46319
0
LINE
8
BLACK
6
CONTINUOUS
10
3.45424
20
1.46319
11
3.45424
21
1.46807
0
LINE
8
BLACK
6
CONTINUOUS
10
3.45424
20
1.46807
11
3.45452
21
1.46893
0
LINE
8
BLACK
6
CONTINUOUS
10
3.45452
20
1.46893
11
3.45465
21
1.46983
0
LINE
8
BLACK
6
CONTINUOUS
10
3.45465
20
1.46983
11
3.45709
21
1.4747
0
LINE
8
BLACK
6
CONTINUOUS
10
3.45709
20
1.4747
11
3.45754
21
1.47515
0
LINE
8
BLACK
6
CONTINUOUS
10
3.45754
20
1.47515
11
3.45783
21
1.47572
0
LINE
8
BLACK
6
CONTINUOUS
10
3.45783
20
1.47572
11
3.46026
21
1.47816
0
LINE
8
BLACK
6
CONTINUOUS
10
3.46026
20
1.47816
11
3.46083
21
1.47845
0
LINE
8
BLACK
6
CONTINUOUS
10
3.46083
20
1.47845
11
3.46129
21
1.4789
0
LINE
8
BLACK
6
CONTINUOUS
10
3.46129
20
1.4789
11
3.46616
21
1.48134
0
LINE
8
BLACK
6
CONTINUOUS
10
3.46616
20
1.48134
11
3.4666
21
1.4814
0
LINE
8
BLACK
6
CONTINUOUS
10
3.4666
20
1.4814
11
3.46697
21
1.48163
0
LINE
8
BLACK
6
CONTINUOUS
10
3.46697
20
1.48163
11
3.47672
21
1.48407
0
LINE
8
BLACK
6
CONTINUOUS
10
3.47672
20
1.48407
11
3.4772
21
1.48404
0
LINE
8
BLACK
6
CONTINUOUS
10
3.4772
20
1.48404
11
3.47767
21
1.48419
0
LINE
8
BLACK
6
CONTINUOUS
10
3.47767
20
1.48419
11
3.48986
21
1.48419
0
LINE
8
BLACK
6
CONTINUOUS
10
3.48986
20
1.48419
11
3.49032
21
1.48404
0
LINE
8
BLACK
6
CONTINUOUS
10
3.47816
20
1.47631
11
3.4693
21
1.4741
0
LINE
8
BLACK
6
CONTINUOUS
10
3.4693
20
1.4741
11
3.46538
21
1.47214
0
LINE
8
BLACK
6
CONTINUOUS
10
3.46538
20
1.47214
11
3.46385
21
1.47061
0
LINE
8
BLACK
6
CONTINUOUS
10
3.46385
20
1.47061
11
3.46211
21
1.46714
0
LINE
8
BLACK
6
CONTINUOUS
10
3.46211
20
1.46714
11
3.46211
21
1.46412
0
LINE
8
BLACK
6
CONTINUOUS
10
3.46211
20
1.46412
11
3.46385
21
1.46065
0
LINE
8
BLACK
6
CONTINUOUS
10
3.46385
20
1.46065
11
3.46538
21
1.45911
0
LINE
8
BLACK
6
CONTINUOUS
10
3.46538
20
1.45911
11
3.4693
21
1.45716
0
LINE
8
BLACK
6
CONTINUOUS
10
3.4693
20
1.45716
11
3.47816
21
1.45494
0
LINE
8
BLACK
6
CONTINUOUS
10
3.47816
20
1.45494
11
3.48937
21
1.45494
0
LINE
8
BLACK
6
CONTINUOUS
10
3.48937
20
1.45494
11
3.49823
21
1.45716
0
LINE
8
BLACK
6
CONTINUOUS
10
3.49823
20
1.45716
11
3.50215
21
1.45911
0
LINE
8
BLACK
6
CONTINUOUS
10
3.50215
20
1.45911
11
3.50368
21
1.46065
0
LINE
8
BLACK
6
CONTINUOUS
10
3.50368
20
1.46065
11
3.50542
21
1.46412
0
LINE
8
BLACK
6
CONTINUOUS
10
3.50542
20
1.46412
11
3.50542
21
1.46714
0
LINE
8
BLACK
6
CONTINUOUS
10
3.50542
20
1.46714
11
3.50368
21
1.47061
0
LINE
8
BLACK
6
CONTINUOUS
10
3.50368
20
1.47061
11
3.50215
21
1.47214
0
LINE
8
BLACK
6
CONTINUOUS
10
3.50215
20
1.47214
11
3.49823
21
1.4741
0
LINE
8
BLACK
6
CONTINUOUS
10
3.49823
20
1.4741
11
3.48937
21
1.47631
0
LINE
8
BLACK
6
CONTINUOUS
10
3.48937
20
1.47631
11
3.47816
21
1.47631
0
LINE
8
BLACK
6
CONTINUOUS
10
3.42486
20
1.49644
11
3.4273
21
1.494
0
LINE
8
BLACK
6
CONTINUOUS
10
3.4273
20
1.494
11
3.42771
21
1.49319
0
LINE
8
BLACK
6
CONTINUOUS
10
3.42771
20
1.49319
11
3.42825
21
1.49246
0
LINE
8
BLACK
6
CONTINUOUS
10
3.42825
20
1.49246
11
3.43069
21
1.48515
0
LINE
8
BLACK
6
CONTINUOUS
10
3.43069
20
1.48515
11
3.43069
21
1.48451
0
LINE
8
BLACK
6
CONTINUOUS
10
3.43069
20
1.48451
11
3.43089
21
1.48391
0
LINE
8
BLACK
6
CONTINUOUS
10
3.43089
20
1.48391
11
3.43089
21
1.47903
0
LINE
8
BLACK
6
CONTINUOUS
10
3.43089
20
1.47903
11
3.43069
21
1.47843
0
LINE
8
BLACK
6
CONTINUOUS
10
3.43069
20
1.47843
11
3.43069
21
1.47779
0
LINE
8
BLACK
6
CONTINUOUS
10
3.43069
20
1.47779
11
3.42825
21
1.47048
0
LINE
8
BLACK
6
CONTINUOUS
10
3.42825
20
1.47048
11
3.42771
21
1.46975
0
LINE
8
BLACK
6
CONTINUOUS
10
3.42771
20
1.46975
11
3.4273
21
1.46894
0
LINE
8
BLACK
6
CONTINUOUS
10
3.4273
20
1.46894
11
3.42242
21
1.46406
0
LINE
8
BLACK
6
CONTINUOUS
10
3.42242
20
1.46406
11
3.42186
21
1.46377
0
LINE
8
BLACK
6
CONTINUOUS
10
3.42186
20
1.46377
11
3.4214
21
1.46333
0
LINE
8
BLACK
6
CONTINUOUS
10
3.4214
20
1.46333
11
3.41653
21
1.46089
0
LINE
8
BLACK
6
CONTINUOUS
10
3.41653
20
1.46089
11
3.41609
21
1.46082
0
LINE
8
BLACK
6
CONTINUOUS
10
3.41609
20
1.46082
11
3.41572
21
1.46059
0
LINE
8
BLACK
6
CONTINUOUS
10
3.41572
20
1.46059
11
3.40597
21
1.45815
0
LINE
8
BLACK
6
CONTINUOUS
10
3.40597
20
1.45815
11
3.40548
21
1.45819
0
LINE
8
BLACK
6
CONTINUOUS
10
3.40548
20
1.45819
11
3.40502
21
1.45804
0
LINE
8
BLACK
6
CONTINUOUS
10
3.40502
20
1.45804
11
3.39771
21
1.45804
0
LINE
8
BLACK
6
CONTINUOUS
10
3.39771
20
1.45804
11
3.39724
21
1.45819
0
LINE
8
BLACK
6
CONTINUOUS
10
3.39724
20
1.45819
11
3.39675
21
1.45815
0
LINE
8
BLACK
6
CONTINUOUS
10
3.39675
20
1.45815
11
3.387
21
1.46059
0
LINE
8
BLACK
6
CONTINUOUS
10
3.387
20
1.46059
11
3.38663
21
1.46082
0
LINE
8
BLACK
6
CONTINUOUS
10
3.38663
20
1.46082
11
3.3862
21
1.46089
0
LINE
8
BLACK
6
CONTINUOUS
10
3.3862
20
1.46089
11
3.38132
21
1.46333
0
LINE
8
BLACK
6
CONTINUOUS
10
3.38132
20
1.46333
11
3.38087
21
1.46377
0
LINE
8
BLACK
6
CONTINUOUS
10
3.38087
20
1.46377
11
3.3803
21
1.46406
0
LINE
8
BLACK
6
CONTINUOUS
10
3.3803
20
1.46406
11
3.37542
21
1.46894
0
LINE
8
BLACK
6
CONTINUOUS
10
3.37542
20
1.46894
11
3.37501
21
1.46975
0
LINE
8
BLACK
6
CONTINUOUS
10
3.37501
20
1.46975
11
3.37447
21
1.47048
0
LINE
8
BLACK
6
CONTINUOUS
10
3.37447
20
1.47048
11
3.37204
21
1.47779
0
LINE
8
BLACK
6
CONTINUOUS
10
3.37204
20
1.47779
11
3.37203
21
1.47843
0
LINE
8
BLACK
6
CONTINUOUS
10
3.37203
20
1.47843
11
3.37183
21
1.47903
0
LINE
8
BLACK
6
CONTINUOUS
10
3.37183
20
1.47903
11
3.37183
21
1.48391
0
LINE
8
BLACK
6
CONTINUOUS
10
3.37183
20
1.48391
11
3.37203
21
1.48451
0
LINE
8
BLACK
6
CONTINUOUS
10
3.37203
20
1.48451
11
3.37204
21
1.48515
0
LINE
8
BLACK
6
CONTINUOUS
10
3.37204
20
1.48515
11
3.37447
21
1.49246
0
LINE
8
BLACK
6
CONTINUOUS
10
3.37447
20
1.49246
11
3.37501
21
1.49319
0
LINE
8
BLACK
6
CONTINUOUS
10
3.37501
20
1.49319
11
3.37542
21
1.494
0
LINE
8
BLACK
6
CONTINUOUS
10
3.37542
20
1.494
11
3.37786
21
1.49644
0
LINE
8
BLACK
6
CONTINUOUS
10
3.37786
20
1.49644
11
3.38003
21
1.49754
0
LINE
8
BLACK
6
CONTINUOUS
10
3.38003
20
1.49754
11
3.38243
21
1.49716
0
LINE
8
BLACK
6
CONTINUOUS
10
3.38243
20
1.49716
11
3.38415
21
1.49544
0
LINE
8
BLACK
6
CONTINUOUS
10
3.38415
20
1.49544
11
3.38453
21
1.49304
0
LINE
8
BLACK
6
CONTINUOUS
10
3.38453
20
1.49304
11
3.38343
21
1.49087
0
LINE
8
BLACK
6
CONTINUOUS
10
3.38343
20
1.49087
11
3.38165
21
1.48909
0
LINE
8
BLACK
6
CONTINUOUS
10
3.38165
20
1.48909
11
3.37971
21
1.48327
0
LINE
8
BLACK
6
CONTINUOUS
10
3.37971
20
1.48327
11
3.37971
21
1.47967
0
LINE
8
BLACK
6
CONTINUOUS
10
3.37971
20
1.47967
11
3.38165
21
1.47385
0
LINE
8
BLACK
6
CONTINUOUS
10
3.38165
20
1.47385
11
3.38542
21
1.47008
0
LINE
8
BLACK
6
CONTINUOUS
10
3.38542
20
1.47008
11
3.38933
21
1.46812
0
LINE
8
BLACK
6
CONTINUOUS
10
3.38933
20
1.46812
11
3.39819
21
1.46591
0
LINE
8
BLACK
6
CONTINUOUS
10
3.39819
20
1.46591
11
3.40453
21
1.46591
0
LINE
8
BLACK
6
CONTINUOUS
10
3.40453
20
1.46591
11
3.41339
21
1.46812
0
LINE
8
BLACK
6
CONTINUOUS
10
3.41339
20
1.46812
11
3.41731
21
1.47008
0
LINE
8
BLACK
6
CONTINUOUS
10
3.41731
20
1.47008
11
3.42107
21
1.47385
0
LINE
8
BLACK
6
CONTINUOUS
10
3.42107
20
1.47385
11
3.42302
21
1.47967
0
LINE
8
BLACK
6
CONTINUOUS
10
3.42302
20
1.47967
11
3.42302
21
1.48327
0
LINE
8
BLACK
6
CONTINUOUS
10
3.42302
20
1.48327
11
3.42107
21
1.48909
0
LINE
8
BLACK
6
CONTINUOUS
10
3.42107
20
1.48909
11
3.41929
21
1.49087
0
LINE
8
BLACK
6
CONTINUOUS
10
3.41929
20
1.49087
11
3.41819
21
1.49304
0
LINE
8
BLACK
6
CONTINUOUS
10
3.41819
20
1.49304
11
3.41857
21
1.49544
0
LINE
8
BLACK
6
CONTINUOUS
10
3.41857
20
1.49544
11
3.42029
21
1.49716
0
LINE
8
BLACK
6
CONTINUOUS
10
3.42029
20
1.49716
11
3.42269
21
1.49754
0
LINE
8
BLACK
6
CONTINUOUS
10
3.42269
20
1.49754
11
3.42486
21
1.49644
0
LINE
8
BLACK
6
CONTINUOUS
10
3.4734
20
1.53273
11
3.47404
21
1.53273
0
LINE
8
BLACK
6
CONTINUOUS
10
3.47404
20
1.53273
11
3.48135
21
1.53029
0
LINE
8
BLACK
6
CONTINUOUS
10
3.48135
20
1.53029
11
3.48208
21
1.52975
0
LINE
8
BLACK
6
CONTINUOUS
10
3.48208
20
1.52975
11
3.48289
21
1.52934
0
LINE
8
BLACK
6
CONTINUOUS
10
3.48289
20
1.52934
11
3.50542
21
1.50682
0
LINE
8
BLACK
6
CONTINUOUS
10
3.50542
20
1.50682
11
3.50542
21
1.529
0
LINE
8
BLACK
6
CONTINUOUS
10
3.50542
20
1.529
11
3.50617
21
1.53131
0
LINE
8
BLACK
6
CONTINUOUS
10
3.50617
20
1.53131
11
3.50814
21
1.53274
0
LINE
8
BLACK
6
CONTINUOUS
10
3.50814
20
1.53274
11
3.51057
21
1.53274
0
LINE
8
BLACK
6
CONTINUOUS
10
3.51057
20
1.53274
11
3.51254
21
1.53131
0
LINE
8
BLACK
6
CONTINUOUS
10
3.51254
20
1.53131
11
3.51329
21
1.529
0
LINE
8
BLACK
6
CONTINUOUS
10
3.51329
20
1.529
11
3.51329
21
1.49731
0
LINE
8
BLACK
6
CONTINUOUS
10
3.51329
20
1.49731
11
3.51301
21
1.49643
0
LINE
8
BLACK
6
CONTINUOUS
10
3.51301
20
1.49643
11
3.51286
21
1.49552
0
LINE
8
BLACK
6
CONTINUOUS
10
3.51286
20
1.49552
11
3.51264
21
1.4953
0
LINE
8
BLACK
6
CONTINUOUS
10
3.51264
20
1.4953
11
3.51254
21
1.495
0
LINE
8
BLACK
6
CONTINUOUS
10
3.51254
20
1.495
11
3.51179
21
1.49446
0
LINE
8
BLACK
6
CONTINUOUS
10
3.51179
20
1.49446
11
3.51114
21
1.4938
0
LINE
8
BLACK
6
CONTINUOUS
10
3.51114
20
1.4938
11
3.51083
21
1.49375
0
LINE
8
BLACK
6
CONTINUOUS
10
3.51083
20
1.49375
11
3.51057
21
1.49357
0
LINE
8
BLACK
6
CONTINUOUS
10
3.51057
20
1.49357
11
3.50965
21
1.49357
0
LINE
8
BLACK
6
CONTINUOUS
10
3.50965
20
1.49357
11
3.50874
21
1.49342
0
LINE
8
BLACK
6
CONTINUOUS
10
3.50874
20
1.49342
11
3.50846
21
1.49357
0
LINE
8
BLACK
6
CONTINUOUS
10
3.50846
20
1.49357
11
3.50814
21
1.49357
0
LINE
8
BLACK
6
CONTINUOUS
10
3.50814
20
1.49357
11
3.50739
21
1.49411
0
LINE
8
BLACK
6
CONTINUOUS
10
3.50739
20
1.49411
11
3.50657
21
1.49453
0
LINE
8
BLACK
6
CONTINUOUS
10
3.50657
20
1.49453
11
3.47798
21
1.52312
0
LINE
8
BLACK
6
CONTINUOUS
10
3.47798
20
1.52312
11
3.47216
21
1.52506
0
LINE
8
BLACK
6
CONTINUOUS
10
3.47216
20
1.52506
11
3.46885
21
1.52506
0
LINE
8
BLACK
6
CONTINUOUS
10
3.46885
20
1.52506
11
3.46538
21
1.52332
0
LINE
8
BLACK
6
CONTINUOUS
10
3.46538
20
1.52332
11
3.46385
21
1.52179
0
LINE
8
BLACK
6
CONTINUOUS
10
3.46385
20
1.52179
11
3.46211
21
1.51832
0
LINE
8
BLACK
6
CONTINUOUS
10
3.46211
20
1.51832
11
3.46211
21
1.50799
0
LINE
8
BLACK
6
CONTINUOUS
10
3.46211
20
1.50799
11
3.46385
21
1.50452
0
LINE
8
BLACK
6
CONTINUOUS
10
3.46385
20
1.50452
11
3.46583
21
1.50253
0
LINE
8
BLACK
6
CONTINUOUS
10
3.46583
20
1.50253
11
3.46694
21
1.50036
0
LINE
8
BLACK
6
CONTINUOUS
10
3.46694
20
1.50036
11
3.46656
21
1.49796
0
LINE
8
BLACK
6
CONTINUOUS
10
3.46656
20
1.49796
11
3.46483
21
1.49624
0
LINE
8
BLACK
6
CONTINUOUS
10
3.46483
20
1.49624
11
3.46243
21
1.49586
0
LINE
8
BLACK
6
CONTINUOUS
10
3.46243
20
1.49586
11
3.46026
21
1.49696
0
LINE
8
BLACK
6
CONTINUOUS
10
3.46026
20
1.49696
11
3.45783
21
1.4994
0
LINE
8
BLACK
6
CONTINUOUS
10
3.45783
20
1.4994
11
3.45754
21
1.49997
0
LINE
8
BLACK
6
CONTINUOUS
10
3.45754
20
1.49997
11
3.45709
21
1.50043
0
LINE
8
BLACK
6
CONTINUOUS
10
3.45709
20
1.50043
11
3.45465
21
1.5053
0
LINE
8
BLACK
6
CONTINUOUS
10
3.45465
20
1.5053
11
3.45452
21
1.5062
0
LINE
8
BLACK
6
CONTINUOUS
10
3.45452
20
1.5062
11
3.45424
21
1.50706
0
LINE
8
BLACK
6
CONTINUOUS
10
3.45424
20
1.50706
11
3.45424
21
1.51925
0
LINE
8
BLACK
6
CONTINUOUS
10
3.45424
20
1.51925
11
3.45452
21
1.52011
0
LINE
8
BLACK
6
CONTINUOUS
10
3.45452
20
1.52011
11
3.45465
21
1.52101
0
LINE
8
BLACK
6
CONTINUOUS
10
3.45465
20
1.52101
11
3.45709
21
1.52588
0
LINE
8
BLACK
6
CONTINUOUS
10
3.45709
20
1.52588
11
3.45754
21
1.52634
0
LINE
8
BLACK
6
CONTINUOUS
10
3.45754
20
1.52634
11
3.45783
21
1.5269
0
LINE
8
BLACK
6
CONTINUOUS
10
3.45783
20
1.5269
11
3.46026
21
1.52934
0
LINE
8
BLACK
6
CONTINUOUS
10
3.46026
20
1.52934
11
3.46083
21
1.52963
0
LINE
8
BLACK
6
CONTINUOUS
10
3.46083
20
1.52963
11
3.46129
21
1.53008
0
LINE
8
BLACK
6
CONTINUOUS
10
3.46129
20
1.53008
11
3.46616
21
1.53252
0
LINE
8
BLACK
6
CONTINUOUS
10
3.46616
20
1.53252
11
3.46706
21
1.53265
0
LINE
8
BLACK
6
CONTINUOUS
10
3.46706
20
1.53265
11
3.46792
21
1.53293
0
LINE
8
BLACK
6
CONTINUOUS
10
3.46792
20
1.53293
11
3.4728
21
1.53293
0
LINE
8
BLACK
6
CONTINUOUS
10
3.4728
20
1.53293
11
3.4734
21
1.53273
0
LINE
8
BLACK
6
CONTINUOUS
10
3.42927
20
1.54802
11
3.4307
21
1.54605
0
LINE
8
BLACK
6
CONTINUOUS
10
3.4307
20
1.54605
11
3.4307
21
1.54362
0
LINE
8
BLACK
6
CONTINUOUS
10
3.4307
20
1.54362
11
3.42927
21
1.54165
0
LINE
8
BLACK
6
CONTINUOUS
10
3.42927
20
1.54165
11
3.42695
21
1.5409
0
LINE
8
BLACK
6
CONTINUOUS
10
3.42695
20
1.5409
11
3.40408
21
1.5409
0
LINE
8
BLACK
6
CONTINUOUS
10
3.40408
20
1.5409
11
3.40408
21
1.51953
0
LINE
8
BLACK
6
CONTINUOUS
10
3.40408
20
1.51953
11
3.42695
21
1.51953
0
LINE
8
BLACK
6
CONTINUOUS
10
3.42695
20
1.51953
11
3.42927
21
1.51878
0
LINE
8
BLACK
6
CONTINUOUS
10
3.42927
20
1.51878
11
3.4307
21
1.51681
0
LINE
8
BLACK
6
CONTINUOUS
10
3.4307
20
1.51681
11
3.4307
21
1.51437
0
LINE
8
BLACK
6
CONTINUOUS
10
3.4307
20
1.51437
11
3.42927
21
1.51241
0
LINE
8
BLACK
6
CONTINUOUS
10
3.42927
20
1.51241
11
3.42695
21
1.51165
0
LINE
8
BLACK
6
CONTINUOUS
10
3.42695
20
1.51165
11
3.37577
21
1.51165
0
LINE
8
BLACK
6
CONTINUOUS
10
3.37577
20
1.51165
11
3.37346
21
1.51241
0
LINE
8
BLACK
6
CONTINUOUS
10
3.37346
20
1.51241
11
3.37203
21
1.51437
0
LINE
8
BLACK
6
CONTINUOUS
10
3.37203
20
1.51437
11
3.37203
21
1.51681
0
LINE
8
BLACK
6
CONTINUOUS
10
3.37203
20
1.51681
11
3.37346
21
1.51878
0
LINE
8
BLACK
6
CONTINUOUS
10
3.37346
20
1.51878
11
3.37577
21
1.51953
0
LINE
8
BLACK
6
CONTINUOUS
10
3.37577
20
1.51953
11
3.39621
21
1.51953
0
LINE
8
BLACK
6
CONTINUOUS
10
3.39621
20
1.51953
11
3.39621
21
1.5409
0
LINE
8
BLACK
6
CONTINUOUS
10
3.39621
20
1.5409
11
3.37577
21
1.5409
0
LINE
8
BLACK
6
CONTINUOUS
10
3.37577
20
1.5409
11
3.37346
21
1.54165
0
LINE
8
BLACK
6
CONTINUOUS
10
3.37346
20
1.54165
11
3.37203
21
1.54362
0
LINE
8
BLACK
6
CONTINUOUS
10
3.37203
20
1.54362
11
3.37203
21
1.54605
0
LINE
8
BLACK
6
CONTINUOUS
10
3.37203
20
1.54605
11
3.37346
21
1.54802
0
LINE
8
BLACK
6
CONTINUOUS
10
3.37346
20
1.54802
11
3.37577
21
1.54877
0
LINE
8
BLACK
6
CONTINUOUS
10
3.37577
20
1.54877
11
3.42695
21
1.54877
0
LINE
8
BLACK
6
CONTINUOUS
10
3.42695
20
1.54877
11
3.42927
21
1.54802
0
LINE
8
BLACK
6
CONTINUOUS
10
3.4734
20
1.58148
11
3.47404
21
1.58147
0
LINE
8
BLACK
6
CONTINUOUS
10
3.47404
20
1.58147
11
3.48135
21
1.57904
0
LINE
8
BLACK
6
CONTINUOUS
10
3.48135
20
1.57904
11
3.48208
21
1.5785
0
LINE
8
BLACK
6
CONTINUOUS
10
3.48208
20
1.5785
11
3.48289
21
1.57809
0
LINE
8
BLACK
6
CONTINUOUS
10
3.48289
20
1.57809
11
3.50542
21
1.55556
0
LINE
8
BLACK
6
CONTINUOUS
10
3.50542
20
1.55556
11
3.50542
21
1.57774
0
LINE
8
BLACK
6
CONTINUOUS
10
3.50542
20
1.57774
11
3.50617
21
1.58005
0
LINE
8
BLACK
6
CONTINUOUS
10
3.50617
20
1.58005
11
3.50814
21
1.58148
0
LINE
8
BLACK
6
CONTINUOUS
10
3.50814
20
1.58148
11
3.51057
21
1.58148
0
LINE
8
BLACK
6
CONTINUOUS
10
3.51057
20
1.58148
11
3.51254
21
1.58005
0
LINE
8
BLACK
6
CONTINUOUS
10
3.51254
20
1.58005
11
3.51329
21
1.57774
0
LINE
8
BLACK
6
CONTINUOUS
10
3.51329
20
1.57774
11
3.51329
21
1.54606
0
LINE
8
BLACK
6
CONTINUOUS
10
3.51329
20
1.54606
11
3.51301
21
1.54518
0
LINE
8
BLACK
6
CONTINUOUS
10
3.51301
20
1.54518
11
3.51286
21
1.54427
0
LINE
8
BLACK
6
CONTINUOUS
10
3.51286
20
1.54427
11
3.51264
21
1.54404
0
LINE
8
BLACK
6
CONTINUOUS
10
3.51264
20
1.54404
11
3.51254
21
1.54374
0
LINE
8
BLACK
6
CONTINUOUS
10
3.51254
20
1.54374
11
3.51179
21
1.5432
0
LINE
8
BLACK
6
CONTINUOUS
10
3.51179
20
1.5432
11
3.51114
21
1.54255
0
LINE
8
BLACK
6
CONTINUOUS
10
3.51114
20
1.54255
11
3.51083
21
1.5425
0
LINE
8
BLACK
6
CONTINUOUS
10
3.51083
20
1.5425
11
3.51057
21
1.54231
0
LINE
8
BLACK
6
CONTINUOUS
10
3.51057
20
1.54231
11
3.50965
21
1.54231
0
LINE
8
BLACK
6
CONTINUOUS
10
3.50965
20
1.54231
11
3.50874
21
1.54217
0
LINE
8
BLACK
6
CONTINUOUS
10
3.50874
20
1.54217
11
3.50846
21
1.54231
0
LINE
8
BLACK
6
CONTINUOUS
10
3.50846
20
1.54231
11
3.50814
21
1.54231
0
LINE
8
BLACK
6
CONTINUOUS
10
3.50814
20
1.54231
11
3.50739
21
1.54285
0
LINE
8
BLACK
6
CONTINUOUS
10
3.50739
20
1.54285
11
3.50657
21
1.54327
0
LINE
8
BLACK
6
CONTINUOUS
10
3.50657
20
1.54327
11
3.47798
21
1.57186
0
LINE
8
BLACK
6
CONTINUOUS
10
3.47798
20
1.57186
11
3.47216
21
1.5738
0
LINE
8
BLACK
6
CONTINUOUS
10
3.47216
20
1.5738
11
3.46885
21
1.5738
0
LINE
8
BLACK
6
CONTINUOUS
10
3.46885
20
1.5738
11
3.46538
21
1.57207
0
LINE
8
BLACK
6
CONTINUOUS
10
3.46538
20
1.57207
11
3.46385
21
1.57053
0
LINE
8
BLACK
6
CONTINUOUS
10
3.46385
20
1.57053
11
3.46211
21
1.56706
0
LINE
8
BLACK
6
CONTINUOUS
10
3.46211
20
1.56706
11
3.46211
21
1.55673
0
LINE
8
BLACK
6
CONTINUOUS
10
3.46211
20
1.55673
11
3.46385
21
1.55326
0
LINE
8
BLACK
6
CONTINUOUS
10
3.46385
20
1.55326
11
3.46583
21
1.55128
0
LINE
8
BLACK
6
CONTINUOUS
10
3.46583
20
1.55128
11
3.46694
21
1.54911
0
LINE
8
BLACK
6
CONTINUOUS
10
3.46694
20
1.54911
11
3.46656
21
1.54671
0
LINE
8
BLACK
6
CONTINUOUS
10
3.46656
20
1.54671
11
3.46483
21
1.54498
0
LINE
8
BLACK
6
CONTINUOUS
10
3.46483
20
1.54498
11
3.46243
21
1.5446
0
LINE
8
BLACK
6
CONTINUOUS
10
3.46243
20
1.5446
11
3.46026
21
1.54571
0
LINE
8
BLACK
6
CONTINUOUS
10
3.46026
20
1.54571
11
3.45783
21
1.54815
0
LINE
8
BLACK
6
CONTINUOUS
10
3.45783
20
1.54815
11
3.45754
21
1.54871
0
LINE
8
BLACK
6
CONTINUOUS
10
3.45754
20
1.54871
11
3.45709
21
1.54917
0
LINE
8
BLACK
6
CONTINUOUS
10
3.45709
20
1.54917
11
3.45465
21
1.55404
0
LINE
8
BLACK
6
CONTINUOUS
10
3.45465
20
1.55404
11
3.45452
21
1.55494
0
LINE
8
BLACK
6
CONTINUOUS
10
3.45452
20
1.55494
11
3.45424
21
1.5558
0
LINE
8
BLACK
6
CONTINUOUS
10
3.45424
20
1.5558
11
3.45424
21
1.56799
0
LINE
8
BLACK
6
CONTINUOUS
10
3.45424
20
1.56799
11
3.45452
21
1.56885
0
LINE
8
BLACK
6
CONTINUOUS
10
3.45452
20
1.56885
11
3.45465
21
1.56975
0
LINE
8
BLACK
6
CONTINUOUS
10
3.45465
20
1.56975
11
3.45709
21
1.57463
0
LINE
8
BLACK
6
CONTINUOUS
10
3.45709
20
1.57463
11
3.45754
21
1.57508
0
LINE
8
BLACK
6
CONTINUOUS
10
3.45754
20
1.57508
11
3.45783
21
1.57565
0
LINE
8
BLACK
6
CONTINUOUS
10
3.45783
20
1.57565
11
3.46026
21
1.57809
0
LINE
8
BLACK
6
CONTINUOUS
10
3.46026
20
1.57809
11
3.46083
21
1.57838
0
LINE
8
BLACK
6
CONTINUOUS
10
3.46083
20
1.57838
11
3.46129
21
1.57882
0
LINE
8
BLACK
6
CONTINUOUS
10
3.46129
20
1.57882
11
3.46616
21
1.58126
0
LINE
8
BLACK
6
CONTINUOUS
10
3.46616
20
1.58126
11
3.46706
21
1.5814
0
LINE
8
BLACK
6
CONTINUOUS
10
3.46706
20
1.5814
11
3.46792
21
1.58168
0
LINE
8
BLACK
6
CONTINUOUS
10
3.46792
20
1.58168
11
3.4728
21
1.58168
0
LINE
8
BLACK
6
CONTINUOUS
10
3.4728
20
1.58168
11
3.4734
21
1.58148
0
LINE
8
BLACK
6
CONTINUOUS
10
3.41036
20
1.60468
11
3.41085
21
1.60471
0
LINE
8
BLACK
6
CONTINUOUS
10
3.41085
20
1.60471
11
3.4206
21
1.60227
0
LINE
8
BLACK
6
CONTINUOUS
10
3.4206
20
1.60227
11
3.42149
21
1.60172
0
LINE
8
BLACK
6
CONTINUOUS
10
3.42149
20
1.60172
11
3.42242
21
1.60124
0
LINE
8
BLACK
6
CONTINUOUS
10
3.42242
20
1.60124
11
3.4273
21
1.59636
0
LINE
8
BLACK
6
CONTINUOUS
10
3.4273
20
1.59636
11
3.42759
21
1.5958
0
LINE
8
BLACK
6
CONTINUOUS
10
3.42759
20
1.5958
11
3.42804
21
1.59534
0
LINE
8
BLACK
6
CONTINUOUS
10
3.42804
20
1.59534
11
3.43047
21
1.59047
0
LINE
8
BLACK
6
CONTINUOUS
10
3.43047
20
1.59047
11
3.43061
21
1.58957
0
LINE
8
BLACK
6
CONTINUOUS
10
3.43061
20
1.58957
11
3.43089
21
1.58871
0
LINE
8
BLACK
6
CONTINUOUS
10
3.43089
20
1.58871
11
3.43089
21
1.57896
0
LINE
8
BLACK
6
CONTINUOUS
10
3.43089
20
1.57896
11
3.43061
21
1.57809
0
LINE
8
BLACK
6
CONTINUOUS
10
3.43061
20
1.57809
11
3.43047
21
1.5772
0
LINE
8
BLACK
6
CONTINUOUS
10
3.43047
20
1.5772
11
3.42804
21
1.57232
0
LINE
8
BLACK
6
CONTINUOUS
10
3.42804
20
1.57232
11
3.42759
21
1.57187
0
LINE
8
BLACK
6
CONTINUOUS
10
3.42759
20
1.57187
11
3.4273
21
1.5713
0
LINE
8
BLACK
6
CONTINUOUS
10
3.4273
20
1.5713
11
3.42242
21
1.56642
0
LINE
8
BLACK
6
CONTINUOUS
10
3.42242
20
1.56642
11
3.42149
21
1.56595
0
LINE
8
BLACK
6
CONTINUOUS
10
3.42149
20
1.56595
11
3.4206
21
1.56539
0
LINE
8
BLACK
6
CONTINUOUS
10
3.4206
20
1.56539
11
3.41085
21
1.56295
0
LINE
8
BLACK
6
CONTINUOUS
10
3.41085
20
1.56295
11
3.41036
21
1.56299
0
LINE
8
BLACK
6
CONTINUOUS
10
3.41036
20
1.56299
11
3.40989
21
1.56283
0
LINE
8
BLACK
6
CONTINUOUS
10
3.40989
20
1.56283
11
3.39283
21
1.56283
0
LINE
8
BLACK
6
CONTINUOUS
10
3.39283
20
1.56283
11
3.39237
21
1.56299
0
LINE
8
BLACK
6
CONTINUOUS
10
3.39237
20
1.56299
11
3.39188
21
1.56295
0
LINE
8
BLACK
6
CONTINUOUS
10
3.39188
20
1.56295
11
3.38213
21
1.56539
0
LINE
8
BLACK
6
CONTINUOUS
10
3.38213
20
1.56539
11
3.38124
21
1.56595
0
LINE
8
BLACK
6
CONTINUOUS
10
3.38124
20
1.56595
11
3.3803
21
1.56642
0
LINE
8
BLACK
6
CONTINUOUS
10
3.3803
20
1.56642
11
3.37542
21
1.5713
0
LINE
8
BLACK
6
CONTINUOUS
10
3.37542
20
1.5713
11
3.37514
21
1.57187
0
LINE
8
BLACK
6
CONTINUOUS
10
3.37514
20
1.57187
11
3.37469
21
1.57232
0
LINE
8
BLACK
6
CONTINUOUS
10
3.37469
20
1.57232
11
3.37225
21
1.5772
0
LINE
8
BLACK
6
CONTINUOUS
10
3.37225
20
1.5772
11
3.37211
21
1.57809
0
LINE
8
BLACK
6
CONTINUOUS
10
3.37211
20
1.57809
11
3.37183
21
1.57896
0
LINE
8
BLACK
6
CONTINUOUS
10
3.37183
20
1.57896
11
3.37183
21
1.58871
0
LINE
8
BLACK
6
CONTINUOUS
10
3.37183
20
1.58871
11
3.37211
21
1.58957
0
LINE
8
BLACK
6
CONTINUOUS
10
3.37211
20
1.58957
11
3.37225
21
1.59047
0
LINE
8
BLACK
6
CONTINUOUS
10
3.37225
20
1.59047
11
3.37469
21
1.59534
0
LINE
8
BLACK
6
CONTINUOUS
10
3.37469
20
1.59534
11
3.37514
21
1.5958
0
LINE
8
BLACK
6
CONTINUOUS
10
3.37514
20
1.5958
11
3.37542
21
1.59636
0
LINE
8
BLACK
6
CONTINUOUS
10
3.37542
20
1.59636
11
3.3803
21
1.60124
0
LINE
8
BLACK
6
CONTINUOUS
10
3.3803
20
1.60124
11
3.38124
21
1.60172
0
LINE
8
BLACK
6
CONTINUOUS
10
3.38124
20
1.60172
11
3.38213
21
1.60227
0
LINE
8
BLACK
6
CONTINUOUS
10
3.38213
20
1.60227
11
3.39188
21
1.60471
0
LINE
8
BLACK
6
CONTINUOUS
10
3.39188
20
1.60471
11
3.39237
21
1.60468
0
LINE
8
BLACK
6
CONTINUOUS
10
3.39237
20
1.60468
11
3.39283
21
1.60483
0
LINE
8
BLACK
6
CONTINUOUS
10
3.39283
20
1.60483
11
3.40989
21
1.60483
0
LINE
8
BLACK
6
CONTINUOUS
10
3.40989
20
1.60483
11
3.41036
21
1.60468
0
LINE
8
BLACK
6
CONTINUOUS
10
3.39332
20
1.59696
11
3.3851
21
1.5949
0
LINE
8
BLACK
6
CONTINUOUS
10
3.3851
20
1.5949
11
3.38144
21
1.59125
0
LINE
8
BLACK
6
CONTINUOUS
10
3.38144
20
1.59125
11
3.37971
21
1.58778
0
LINE
8
BLACK
6
CONTINUOUS
10
3.37971
20
1.58778
11
3.37971
21
1.57989
0
LINE
8
BLACK
6
CONTINUOUS
10
3.37971
20
1.57989
11
3.38144
21
1.57642
0
LINE
8
BLACK
6
CONTINUOUS
10
3.38144
20
1.57642
11
3.3851
21
1.57276
0
LINE
8
BLACK
6
CONTINUOUS
10
3.3851
20
1.57276
11
3.39332
21
1.57071
0
LINE
8
BLACK
6
CONTINUOUS
10
3.39332
20
1.57071
11
3.40941
21
1.57071
0
LINE
8
BLACK
6
CONTINUOUS
10
3.40941
20
1.57071
11
3.41763
21
1.57276
0
LINE
8
BLACK
6
CONTINUOUS
10
3.41763
20
1.57276
11
3.42128
21
1.57642
0
LINE
8
BLACK
6
CONTINUOUS
10
3.42128
20
1.57642
11
3.42302
21
1.57989
0
LINE
8
BLACK
6
CONTINUOUS
10
3.42302
20
1.57989
11
3.42302
21
1.58778
0
LINE
8
BLACK
6
CONTINUOUS
10
3.42302
20
1.58778
11
3.42128
21
1.59125
0
LINE
8
BLACK
6
CONTINUOUS
10
3.42128
20
1.59125
11
3.41763
21
1.5949
0
LINE
8
BLACK
6
CONTINUOUS
10
3.41763
20
1.5949
11
3.40941
21
1.59696
0
LINE
8
BLACK
6
CONTINUOUS
10
3.40941
20
1.59696
11
3.39332
21
1.59696
0
LINE
8
BLACK
6
CONTINUOUS
10
0.210468
20
2.18225
11
0.211366
21
2.18211
0
LINE
8
BLACK
6
CONTINUOUS
10
0.211366
20
2.18211
11
0.21624
21
2.17968
0
LINE
8
BLACK
6
CONTINUOUS
10
0.21624
20
2.17968
11
0.216695
21
2.17923
0
LINE
8
BLACK
6
CONTINUOUS
10
0.216695
20
2.17923
11
0.217264
21
2.17894
0
LINE
8
BLACK
6
CONTINUOUS
10
0.217264
20
2.17894
11
0.219701
21
2.1765
0
LINE
8
BLACK
6
CONTINUOUS
10
0.219701
20
2.1765
11
0.219991
21
2.17593
0
LINE
8
BLACK
6
CONTINUOUS
10
0.219991
20
2.17593
11
0.220438
21
2.17548
0
LINE
8
BLACK
6
CONTINUOUS
10
0.220438
20
2.17548
11
0.222876
21
2.1706
0
LINE
8
BLACK
6
CONTINUOUS
10
0.222876
20
2.1706
11
0.223011
21
2.16971
0
LINE
8
BLACK
6
CONTINUOUS
10
0.223011
20
2.16971
11
0.223291
21
2.16884
0
LINE
8
BLACK
6
CONTINUOUS
10
0.223291
20
2.16884
11
0.223291
21
2.15909
0
LINE
8
BLACK
6
CONTINUOUS
10
0.223291
20
2.15909
11
0.223011
21
2.15823
0
LINE
8
BLACK
6
CONTINUOUS
10
0.223011
20
2.15823
11
0.222876
21
2.15733
0
LINE
8
BLACK
6
CONTINUOUS
10
0.222876
20
2.15733
11
0.220438
21
2.15246
0
LINE
8
BLACK
6
CONTINUOUS
10
0.220438
20
2.15246
11
0.219991
21
2.152
0
LINE
8
BLACK
6
CONTINUOUS
10
0.219991
20
2.152
11
0.219701
21
2.15144
0
LINE
8
BLACK
6
CONTINUOUS
10
0.219701
20
2.15144
11
0.217264
21
2.149
0
LINE
8
BLACK
6
CONTINUOUS
10
0.217264
20
2.149
11
0.216695
21
2.14871
0
LINE
8
BLACK
6
CONTINUOUS
10
0.216695
20
2.14871
11
0.21624
21
2.14826
0
LINE
8
BLACK
6
CONTINUOUS
10
0.21624
20
2.14826
11
0.211366
21
2.14582
0
LINE
8
BLACK
6
CONTINUOUS
10
0.211366
20
2.14582
11
0.210468
21
2.14569
0
LINE
8
BLACK
6
CONTINUOUS
10
0.210468
20
2.14569
11
0.209605
21
2.14541
0
LINE
8
BLACK
6
CONTINUOUS
10
0.209605
20
2.14541
11
0.168173
21
2.14541
0
LINE
8
BLACK
6
CONTINUOUS
10
0.168173
20
2.14541
11
0.165859
21
2.14616
0
LINE
8
BLACK
6
CONTINUOUS
10
0.165859
20
2.14616
11
0.164429
21
2.14813
0
LINE
8
BLACK
6
CONTINUOUS
10
0.164429
20
2.14813
11
0.164429
21
2.15056
0
LINE
8
BLACK
6
CONTINUOUS
10
0.164429
20
2.15056
11
0.165859
21
2.15253
0
LINE
8
BLACK
6
CONTINUOUS
10
0.165859
20
2.15253
11
0.168173
21
2.15328
0
LINE
8
BLACK
6
CONTINUOUS
10
0.168173
20
2.15328
11
0.208676
21
2.15328
0
LINE
8
BLACK
6
CONTINUOUS
10
0.208676
20
2.15328
11
0.212148
21
2.15502
0
LINE
8
BLACK
6
CONTINUOUS
10
0.212148
20
2.15502
11
0.213681
21
2.15655
0
LINE
8
BLACK
6
CONTINUOUS
10
0.213681
20
2.15655
11
0.215417
21
2.16002
0
LINE
8
BLACK
6
CONTINUOUS
10
0.215417
20
2.16002
11
0.215417
21
2.16791
0
LINE
8
BLACK
6
CONTINUOUS
10
0.215417
20
2.16791
11
0.213681
21
2.17139
0
LINE
8
BLACK
6
CONTINUOUS
10
0.213681
20
2.17139
11
0.212148
21
2.17292
0
LINE
8
BLACK
6
CONTINUOUS
10
0.212148
20
2.17292
11
0.208676
21
2.17466
0
LINE
8
BLACK
6
CONTINUOUS
10
0.208676
20
2.17466
11
0.168173
21
2.17466
0
LINE
8
BLACK
6
CONTINUOUS
10
0.168173
20
2.17466
11
0.165859
21
2.17541
0
LINE
8
BLACK
6
CONTINUOUS
10
0.165859
20
2.17541
11
0.164429
21
2.17738
0
LINE
8
BLACK
6
CONTINUOUS
10
0.164429
20
2.17738
11
0.164429
21
2.17981
0
LINE
8
BLACK
6
CONTINUOUS
10
0.164429
20
2.17981
11
0.165859
21
2.18178
0
LINE
8
BLACK
6
CONTINUOUS
10
0.165859
20
2.18178
11
0.168173
21
2.18253
0
LINE
8
BLACK
6
CONTINUOUS
10
0.168173
20
2.18253
11
0.209605
21
2.18253
0
LINE
8
BLACK
6
CONTINUOUS
10
0.209605
20
2.18253
11
0.210468
21
2.18225
0
LINE
8
BLACK
6
CONTINUOUS
10
0.210468
20
2.23343
11
0.211366
21
2.23329
0
LINE
8
BLACK
6
CONTINUOUS
10
0.211366
20
2.23329
11
0.21624
21
2.23086
0
LINE
8
BLACK
6
CONTINUOUS
10
0.21624
20
2.23086
11
0.216695
21
2.23041
0
LINE
8
BLACK
6
CONTINUOUS
10
0.216695
20
2.23041
11
0.217264
21
2.23012
0
LINE
8
BLACK
6
CONTINUOUS
10
0.217264
20
2.23012
11
0.219701
21
2.22768
0
LINE
8
BLACK
6
CONTINUOUS
10
0.219701
20
2.22768
11
0.219991
21
2.22711
0
LINE
8
BLACK
6
CONTINUOUS
10
0.219991
20
2.22711
11
0.220438
21
2.22666
0
LINE
8
BLACK
6
CONTINUOUS
10
0.220438
20
2.22666
11
0.222876
21
2.22179
0
LINE
8
BLACK
6
CONTINUOUS
10
0.222876
20
2.22179
11
0.223011
21
2.22089
0
LINE
8
BLACK
6
CONTINUOUS
10
0.223011
20
2.22089
11
0.223291
21
2.22002
0
LINE
8
BLACK
6
CONTINUOUS
10
0.223291
20
2.22002
11
0.223291
21
2.20784
0
LINE
8
BLACK
6
CONTINUOUS
10
0.223291
20
2.20784
11
0.223094
21
2.20723
0
LINE
8
BLACK
6
CONTINUOUS
10
0.223094
20
2.20723
11
0.223089
21
2.20659
0
LINE
8
BLACK
6
CONTINUOUS
10
0.223089
20
2.20659
11
0.220652
21
2.19928
0
LINE
8
BLACK
6
CONTINUOUS
10
0.220652
20
2.19928
11
0.219207
21
2.19732
0
LINE
8
BLACK
6
CONTINUOUS
10
0.219207
20
2.19732
11
0.216887
21
2.19659
0
LINE
8
BLACK
6
CONTINUOUS
10
0.216887
20
2.19659
11
0.214579
21
2.19736
0
LINE
8
BLACK
6
CONTINUOUS
10
0.214579
20
2.19736
11
0.213163
21
2.19934
0
LINE
8
BLACK
6
CONTINUOUS
10
0.213163
20
2.19934
11
0.213182
21
2.20177
0
LINE
8
BLACK
6
CONTINUOUS
10
0.213182
20
2.20177
11
0.215417
21
2.20848
0
LINE
8
BLACK
6
CONTINUOUS
10
0.215417
20
2.20848
11
0.215417
21
2.21909
0
LINE
8
BLACK
6
CONTINUOUS
10
0.215417
20
2.21909
11
0.213681
21
2.22257
0
LINE
8
BLACK
6
CONTINUOUS
10
0.213681
20
2.22257
11
0.212148
21
2.2241
0
LINE
8
BLACK
6
CONTINUOUS
10
0.212148
20
2.2241
11
0.208676
21
2.22584
0
LINE
8
BLACK
6
CONTINUOUS
10
0.208676
20
2.22584
11
0.20566
21
2.22584
0
LINE
8
BLACK
6
CONTINUOUS
10
0.20566
20
2.22584
11
0.202189
21
2.2241
0
LINE
8
BLACK
6
CONTINUOUS
10
0.202189
20
2.2241
11
0.200655
21
2.22257
0
LINE
8
BLACK
6
CONTINUOUS
10
0.200655
20
2.22257
11
0.198697
21
2.21865
0
LINE
8
BLACK
6
CONTINUOUS
10
0.198697
20
2.21865
11
0.196364
21
2.20932
0
LINE
8
BLACK
6
CONTINUOUS
10
0.196364
20
2.20932
11
0.196132
21
2.20895
0
LINE
8
BLACK
6
CONTINUOUS
10
0.196132
20
2.20895
11
0.196066
21
2.20851
0
LINE
8
BLACK
6
CONTINUOUS
10
0.196066
20
2.20851
11
0.193629
21
2.20364
0
LINE
8
BLACK
6
CONTINUOUS
10
0.193629
20
2.20364
11
0.193181
21
2.20319
0
LINE
8
BLACK
6
CONTINUOUS
10
0.193181
20
2.20319
11
0.192892
21
2.20262
0
LINE
8
BLACK
6
CONTINUOUS
10
0.192892
20
2.20262
11
0.190454
21
2.20018
0
LINE
8
BLACK
6
CONTINUOUS
10
0.190454
20
2.20018
11
0.189886
21
2.19989
0
LINE
8
BLACK
6
CONTINUOUS
10
0.189886
20
2.19989
11
0.189431
21
2.19944
0
LINE
8
BLACK
6
CONTINUOUS
10
0.189431
20
2.19944
11
0.184557
21
2.19701
0
LINE
8
BLACK
6
CONTINUOUS
10
0.184557
20
2.19701
11
0.183659
21
2.19687
0
LINE
8
BLACK
6
CONTINUOUS
10
0.183659
20
2.19687
11
0.182796
21
2.19659
0
LINE
8
BLACK
6
CONTINUOUS
10
0.182796
20
2.19659
11
0.177922
21
2.19659
0
LINE
8
BLACK
6
CONTINUOUS
10
0.177922
20
2.19659
11
0.177059
21
2.19687
0
LINE
8
BLACK
6
CONTINUOUS
10
0.177059
20
2.19687
11
0.176161
21
2.19701
0
LINE
8
BLACK
6
CONTINUOUS
10
0.176161
20
2.19701
11
0.171287
21
2.19944
0
LINE
8
BLACK
6
CONTINUOUS
10
0.171287
20
2.19944
11
0.170832
21
2.19989
0
LINE
8
BLACK
6
CONTINUOUS
10
0.170832
20
2.19989
11
0.170264
21
2.20018
0
LINE
8
BLACK
6
CONTINUOUS
10
0.170264
20
2.20018
11
0.167826
21
2.20262
0
LINE
8
BLACK
6
CONTINUOUS
10
0.167826
20
2.20262
11
0.167537
21
2.20319
0
LINE
8
BLACK
6
CONTINUOUS
10
0.167537
20
2.20319
11
0.167089
21
2.20364
0
LINE
8
BLACK
6
CONTINUOUS
10
0.167089
20
2.20364
11
0.164652
21
2.20851
0
LINE
8
BLACK
6
CONTINUOUS
10
0.164652
20
2.20851
11
0.164516
21
2.20941
0
LINE
8
BLACK
6
CONTINUOUS
10
0.164516
20
2.20941
11
0.164236
21
2.21028
0
LINE
8
BLACK
6
CONTINUOUS
10
0.164236
20
2.21028
11
0.164236
21
2.22246
0
LINE
8
BLACK
6
CONTINUOUS
10
0.164236
20
2.22246
11
0.164433
21
2.22307
0
LINE
8
BLACK
6
CONTINUOUS
10
0.164433
20
2.22307
11
0.164438
21
2.22371
0
LINE
8
BLACK
6
CONTINUOUS
10
0.164438
20
2.22371
11
0.166875
21
2.23102
0
LINE
8
BLACK
6
CONTINUOUS
10
0.166875
20
2.23102
11
0.16832
21
2.23298
0
LINE
8
BLACK
6
CONTINUOUS
10
0.16832
20
2.23298
11
0.17064
21
2.23371
0
LINE
8
BLACK
6
CONTINUOUS
10
0.17064
20
2.23371
11
0.172948
21
2.23294
0
LINE
8
BLACK
6
CONTINUOUS
10
0.172948
20
2.23294
11
0.174364
21
2.23096
0
LINE
8
BLACK
6
CONTINUOUS
10
0.174364
20
2.23096
11
0.174345
21
2.22853
0
LINE
8
BLACK
6
CONTINUOUS
10
0.174345
20
2.22853
11
0.17211
21
2.22182
0
LINE
8
BLACK
6
CONTINUOUS
10
0.17211
20
2.22182
11
0.17211
21
2.21121
0
LINE
8
BLACK
6
CONTINUOUS
10
0.17211
20
2.21121
11
0.173846
21
2.20773
0
LINE
8
BLACK
6
CONTINUOUS
10
0.173846
20
2.20773
11
0.175379
21
2.2062
0
LINE
8
BLACK
6
CONTINUOUS
10
0.175379
20
2.2062
11
0.178851
21
2.20446
0
LINE
8
BLACK
6
CONTINUOUS
10
0.178851
20
2.20446
11
0.181867
21
2.20446
0
LINE
8
BLACK
6
CONTINUOUS
10
0.181867
20
2.20446
11
0.185338
21
2.2062
0
LINE
8
BLACK
6
CONTINUOUS
10
0.185338
20
2.2062
11
0.186872
21
2.20773
0
LINE
8
BLACK
6
CONTINUOUS
10
0.186872
20
2.20773
11
0.18883
21
2.21165
0
LINE
8
BLACK
6
CONTINUOUS
10
0.18883
20
2.21165
11
0.191163
21
2.22098
0
LINE
8
BLACK
6
CONTINUOUS
10
0.191163
20
2.22098
11
0.191395
21
2.22135
0
LINE
8
BLACK
6
CONTINUOUS
10
0.191395
20
2.22135
11
0.191461
21
2.22179
0
LINE
8
BLACK
6
CONTINUOUS
10
0.191461
20
2.22179
11
0.193898
21
2.22666
0
LINE
8
BLACK
6
CONTINUOUS
10
0.193898
20
2.22666
11
0.194346
21
2.22711
0
LINE
8
BLACK
6
CONTINUOUS
10
0.194346
20
2.22711
11
0.194635
21
2.22768
0
LINE
8
BLACK
6
CONTINUOUS
10
0.194635
20
2.22768
11
0.197073
21
2.23012
0
LINE
8
BLACK
6
CONTINUOUS
10
0.197073
20
2.23012
11
0.197641
21
2.23041
0
LINE
8
BLACK
6
CONTINUOUS
10
0.197641
20
2.23041
11
0.198096
21
2.23086
0
LINE
8
BLACK
6
CONTINUOUS
10
0.198096
20
2.23086
11
0.20297
21
2.23329
0
LINE
8
BLACK
6
CONTINUOUS
10
0.20297
20
2.23329
11
0.203868
21
2.23343
0
LINE
8
BLACK
6
CONTINUOUS
10
0.203868
20
2.23343
11
0.204731
21
2.23371
0
LINE
8
BLACK
6
CONTINUOUS
10
0.204731
20
2.23371
11
0.209605
21
2.23371
0
LINE
8
BLACK
6
CONTINUOUS
10
0.209605
20
2.23371
11
0.210468
21
2.23343
0
LINE
8
BLACK
6
CONTINUOUS
10
0.171358
20
2.27596
11
0.17211
21
2.27364
0
LINE
8
BLACK
6
CONTINUOUS
10
0.17211
20
2.27364
11
0.17211
21
2.26296
0
LINE
8
BLACK
6
CONTINUOUS
10
0.17211
20
2.26296
11
0.219354
21
2.26296
0
LINE
8
BLACK
6
CONTINUOUS
10
0.219354
20
2.26296
11
0.221668
21
2.2622
0
LINE
8
BLACK
6
CONTINUOUS
10
0.221668
20
2.2622
11
0.223098
21
2.26024
0
LINE
8
BLACK
6
CONTINUOUS
10
0.223098
20
2.26024
11
0.223098
21
2.2578
0
LINE
8
BLACK
6
CONTINUOUS
10
0.223098
20
2.2578
11
0.221668
21
2.25583
0
LINE
8
BLACK
6
CONTINUOUS
10
0.221668
20
2.25583
11
0.219354
21
2.25508
0
LINE
8
BLACK
6
CONTINUOUS
10
0.219354
20
2.25508
11
0.17211
21
2.25508
0
LINE
8
BLACK
6
CONTINUOUS
10
0.17211
20
2.25508
11
0.17211
21
2.2444
0
LINE
8
BLACK
6
CONTINUOUS
10
0.17211
20
2.2444
11
0.171358
21
2.24208
0
LINE
8
BLACK
6
CONTINUOUS
10
0.171358
20
2.24208
11
0.16939
21
2.24065
0
LINE
8
BLACK
6
CONTINUOUS
10
0.16939
20
2.24065
11
0.166956
21
2.24065
0
LINE
8
BLACK
6
CONTINUOUS
10
0.166956
20
2.24065
11
0.164988
21
2.24208
0
LINE
8
BLACK
6
CONTINUOUS
10
0.164988
20
2.24208
11
0.164236
21
2.2444
0
LINE
8
BLACK
6
CONTINUOUS
10
0.164236
20
2.2444
11
0.164236
21
2.27364
0
LINE
8
BLACK
6
CONTINUOUS
10
0.164236
20
2.27364
11
0.164988
21
2.27596
0
LINE
8
BLACK
6
CONTINUOUS
10
0.164988
20
2.27596
11
0.166956
21
2.27739
0
LINE
8
BLACK
6
CONTINUOUS
10
0.166956
20
2.27739
11
0.16939
21
2.27739
0
LINE
8
BLACK
6
CONTINUOUS
10
0.16939
20
2.27739
11
0.171358
21
2.27596
0
LINE
8
BLACK
6
CONTINUOUS
10
0.183403
20
2.32125
11
0.184041
21
2.32125
0
LINE
8
BLACK
6
CONTINUOUS
10
0.184041
20
2.32125
11
0.191353
21
2.31881
0
LINE
8
BLACK
6
CONTINUOUS
10
0.191353
20
2.31881
11
0.192083
21
2.31827
0
LINE
8
BLACK
6
CONTINUOUS
10
0.192083
20
2.31827
11
0.192892
21
2.31786
0
LINE
8
BLACK
6
CONTINUOUS
10
0.192892
20
2.31786
11
0.215417
21
2.29533
0
LINE
8
BLACK
6
CONTINUOUS
10
0.215417
20
2.29533
11
0.215417
21
2.31751
0
LINE
8
BLACK
6
CONTINUOUS
10
0.215417
20
2.31751
11
0.216169
21
2.31983
0
LINE
8
BLACK
6
CONTINUOUS
10
0.216169
20
2.31983
11
0.218138
21
2.32126
0
LINE
8
BLACK
6
CONTINUOUS
10
0.218138
20
2.32126
11
0.220571
21
2.32126
0
LINE
8
BLACK
6
CONTINUOUS
10
0.220571
20
2.32126
11
0.222539
21
2.31983
0
LINE
8
BLACK
6
CONTINUOUS
10
0.222539
20
2.31983
11
0.223291
21
2.31751
0
LINE
8
BLACK
6
CONTINUOUS
10
0.223291
20
2.31751
11
0.223291
21
2.28583
0
LINE
8
BLACK
6
CONTINUOUS
10
0.223291
20
2.28583
11
0.223006
21
2.28495
0
LINE
8
BLACK
6
CONTINUOUS
10
0.223006
20
2.28495
11
0.222862
21
2.28404
0
LINE
8
BLACK
6
CONTINUOUS
10
0.222862
20
2.28404
11
0.222637
21
2.28382
0
LINE
8
BLACK
6
CONTINUOUS
10
0.222637
20
2.28382
11
0.222539
21
2.28351
0
LINE
8
BLACK
6
CONTINUOUS
10
0.222539
20
2.28351
11
0.221793
21
2.28297
0
LINE
8
BLACK
6
CONTINUOUS
10
0.221793
20
2.28297
11
0.221141
21
2.28232
0
LINE
8
BLACK
6
CONTINUOUS
10
0.221141
20
2.28232
11
0.220828
21
2.28227
0
LINE
8
BLACK
6
CONTINUOUS
10
0.220828
20
2.28227
11
0.220571
21
2.28208
0
LINE
8
BLACK
6
CONTINUOUS
10
0.220571
20
2.28208
11
0.219649
21
2.28208
0
LINE
8
BLACK
6
CONTINUOUS
10
0.219649
20
2.28208
11
0.218738
21
2.28194
0
LINE
8
BLACK
6
CONTINUOUS
10
0.218738
20
2.28194
11
0.218455
21
2.28208
0
LINE
8
BLACK
6
CONTINUOUS
10
0.218455
20
2.28208
11
0.218138
21
2.28208
0
LINE
8
BLACK
6
CONTINUOUS
10
0.218138
20
2.28208
11
0.217392
21
2.28263
0
LINE
8
BLACK
6
CONTINUOUS
10
0.217392
20
2.28263
11
0.21657
21
2.28304
0
LINE
8
BLACK
6
CONTINUOUS
10
0.21657
20
2.28304
11
0.187981
21
2.31163
0
LINE
8
BLACK
6
CONTINUOUS
10
0.187981
20
2.31163
11
0.182157
21
2.31358
0
LINE
8
BLACK
6
CONTINUOUS
10
0.182157
20
2.31358
11
0.178851
21
2.31358
0
LINE
8
BLACK
6
CONTINUOUS
10
0.178851
20
2.31358
11
0.175379
21
2.31184
0
LINE
8
BLACK
6
CONTINUOUS
10
0.175379
20
2.31184
11
0.173846
21
2.31031
0
LINE
8
BLACK
6
CONTINUOUS
10
0.173846
20
2.31031
11
0.17211
21
2.30683
0
LINE
8
BLACK
6
CONTINUOUS
10
0.17211
20
2.30683
11
0.17211
21
2.29651
0
LINE
8
BLACK
6
CONTINUOUS
10
0.17211
20
2.29651
11
0.173846
21
2.29304
0
LINE
8
BLACK
6
CONTINUOUS
10
0.173846
20
2.29304
11
0.175831
21
2.29105
0
LINE
8
BLACK
6
CONTINUOUS
10
0.175831
20
2.29105
11
0.176936
21
2.28888
0
LINE
8
BLACK
6
CONTINUOUS
10
0.176936
20
2.28888
11
0.176555
21
2.28648
0
LINE
8
BLACK
6
CONTINUOUS
10
0.176555
20
2.28648
11
0.174835
21
2.28476
0
LINE
8
BLACK
6
CONTINUOUS
10
0.174835
20
2.28476
11
0.172431
21
2.28438
0
LINE
8
BLACK
6
CONTINUOUS
10
0.172431
20
2.28438
11
0.170264
21
2.28548
0
LINE
8
BLACK
6
CONTINUOUS
10
0.170264
20
2.28548
11
0.167826
21
2.28792
0
LINE
8
BLACK
6
CONTINUOUS
10
0.167826
20
2.28792
11
0.167537
21
2.28849
0
LINE
8
BLACK
6
CONTINUOUS
10
0.167537
20
2.28849
11
0.167089
21
2.28894
0
LINE
8
BLACK
6
CONTINUOUS
10
0.167089
20
2.28894
11
0.164652
21
2.29382
0
LINE
8
BLACK
6
CONTINUOUS
10
0.164652
20
2.29382
11
0.164516
21
2.29471
0
LINE
8
BLACK
6
CONTINUOUS
10
0.164516
20
2.29471
11
0.164236
21
2.29558
0
LINE
8
BLACK
6
CONTINUOUS
10
0.164236
20
2.29558
11
0.164236
21
2.30776
0
LINE
8
BLACK
6
CONTINUOUS
10
0.164236
20
2.30776
11
0.164516
21
2.30863
0
LINE
8
BLACK
6
CONTINUOUS
10
0.164516
20
2.30863
11
0.164652
21
2.30952
0
LINE
8
BLACK
6
CONTINUOUS
10
0.164652
20
2.30952
11
0.167089
21
2.3144
0
LINE
8
BLACK
6
CONTINUOUS
10
0.167089
20
2.3144
11
0.167537
21
2.31485
0
LINE
8
BLACK
6
CONTINUOUS
10
0.167537
20
2.31485
11
0.167826
21
2.31542
0
LINE
8
BLACK
6
CONTINUOUS
10
0.167826
20
2.31542
11
0.170264
21
2.31786
0
LINE
8
BLACK
6
CONTINUOUS
10
0.170264
20
2.31786
11
0.170832
21
2.31815
0
LINE
8
BLACK
6
CONTINUOUS
10
0.170832
20
2.31815
11
0.171287
21
2.3186
0
LINE
8
BLACK
6
CONTINUOUS
10
0.171287
20
2.3186
11
0.176161
21
2.32103
0
LINE
8
BLACK
6
CONTINUOUS
10
0.176161
20
2.32103
11
0.177059
21
2.32117
0
LINE
8
BLACK
6
CONTINUOUS
10
0.177059
20
2.32117
11
0.177922
21
2.32145
0
LINE
8
BLACK
6
CONTINUOUS
10
0.177922
20
2.32145
11
0.182796
21
2.32145
0
LINE
8
BLACK
6
CONTINUOUS
10
0.182796
20
2.32145
11
0.183403
21
2.32125
0
LINE
8
BLACK
6
CONTINUOUS
10
0.128067
20
2.32726
11
0.128964
21
2.32713
0
LINE
8
BLACK
6
CONTINUOUS
10
0.128964
20
2.32713
11
0.133839
21
2.32469
0
LINE
8
BLACK
6
CONTINUOUS
10
0.133839
20
2.32469
11
0.134294
21
2.32424
0
LINE
8
BLACK
6
CONTINUOUS
10
0.134294
20
2.32424
11
0.134862
21
2.32395
0
LINE
8
BLACK
6
CONTINUOUS
10
0.134862
20
2.32395
11
0.137299
21
2.32151
0
LINE
8
BLACK
6
CONTINUOUS
10
0.137299
20
2.32151
11
0.137589
21
2.32095
0
LINE
8
BLACK
6
CONTINUOUS
10
0.137589
20
2.32095
11
0.138037
21
2.32049
0
LINE
8
BLACK
6
CONTINUOUS
10
0.138037
20
2.32049
11
0.140474
21
2.31562
0
LINE
8
BLACK
6
CONTINUOUS
10
0.140474
20
2.31562
11
0.140609
21
2.31472
0
LINE
8
BLACK
6
CONTINUOUS
10
0.140609
20
2.31472
11
0.14089
21
2.31386
0
LINE
8
BLACK
6
CONTINUOUS
10
0.14089
20
2.31386
11
0.14089
21
2.30411
0
LINE
8
BLACK
6
CONTINUOUS
10
0.14089
20
2.30411
11
0.140609
21
2.30324
0
LINE
8
BLACK
6
CONTINUOUS
10
0.140609
20
2.30324
11
0.140474
21
2.30235
0
LINE
8
BLACK
6
CONTINUOUS
10
0.140474
20
2.30235
11
0.138037
21
2.29747
0
LINE
8
BLACK
6
CONTINUOUS
10
0.138037
20
2.29747
11
0.137589
21
2.29702
0
LINE
8
BLACK
6
CONTINUOUS
10
0.137589
20
2.29702
11
0.137299
21
2.29645
0
LINE
8
BLACK
6
CONTINUOUS
10
0.137299
20
2.29645
11
0.134862
21
2.29401
0
LINE
8
BLACK
6
CONTINUOUS
10
0.134862
20
2.29401
11
0.134294
21
2.29372
0
LINE
8
BLACK
6
CONTINUOUS
10
0.134294
20
2.29372
11
0.133839
21
2.29327
0
LINE
8
BLACK
6
CONTINUOUS
10
0.133839
20
2.29327
11
0.128964
21
2.29084
0
LINE
8
BLACK
6
CONTINUOUS
10
0.128964
20
2.29084
11
0.128067
21
2.2907
0
LINE
8
BLACK
6
CONTINUOUS
10
0.128067
20
2.2907
11
0.127204
21
2.29042
0
LINE
8
BLACK
6
CONTINUOUS
10
0.127204
20
2.29042
11
0.0857715
21
2.29042
0
LINE
8
BLACK
6
CONTINUOUS
10
0.0857715
20
2.29042
11
0.0834573
21
2.29117
0
LINE
8
BLACK
6
CONTINUOUS
10
0.0834573
20
2.29117
11
0.0820271
21
2.29314
0
LINE
8
BLACK
6
CONTINUOUS
10
0.0820271
20
2.29314
11
0.0820271
21
2.29558
0
LINE
8
BLACK
6
CONTINUOUS
10
0.0820271
20
2.29558
11
0.0834573
21
2.29754
0
LINE
8
BLACK
6
CONTINUOUS
10
0.0834573
20
2.29754
11
0.0857715
21
2.2983
0
LINE
8
BLACK
6
CONTINUOUS
10
0.0857715
20
2.2983
11
0.126274
21
2.2983
0
LINE
8
BLACK
6
CONTINUOUS
10
0.126274
20
2.2983
11
0.129746
21
2.30003
0
LINE
8
BLACK
6
CONTINUOUS
10
0.129746
20
2.30003
11
0.13128
21
2.30157
0
LINE
8
BLACK
6
CONTINUOUS
10
0.13128
20
2.30157
11
0.133016
21
2.30504
0
LINE
8
BLACK
6
CONTINUOUS
10
0.133016
20
2.30504
11
0.133016
21
2.31293
0
LINE
8
BLACK
6
CONTINUOUS
10
0.133016
20
2.31293
11
0.13128
21
2.3164
0
LINE
8
BLACK
6
CONTINUOUS
10
0.13128
20
2.3164
11
0.129746
21
2.31793
0
LINE
8
BLACK
6
CONTINUOUS
10
0.129746
20
2.31793
11
0.126274
21
2.31967
0
LINE
8
BLACK
6
CONTINUOUS
10
0.126274
20
2.31967
11
0.0857715
21
2.31967
0
LINE
8
BLACK
6
CONTINUOUS
10
0.0857715
20
2.31967
11
0.0834573
21
2.32042
0
LINE
8
BLACK
6
CONTINUOUS
10
0.0834573
20
2.32042
11
0.0820271
21
2.32239
0
LINE
8
BLACK
6
CONTINUOUS
10
0.0820271
20
2.32239
11
0.0820271
21
2.32482
0
LINE
8
BLACK
6
CONTINUOUS
10
0.0820271
20
2.32482
11
0.0834573
21
2.32679
0
LINE
8
BLACK
6
CONTINUOUS
10
0.0834573
20
2.32679
11
0.0857715
21
2.32754
0
LINE
8
BLACK
6
CONTINUOUS
10
0.0857715
20
2.32754
11
0.127204
21
2.32754
0
LINE
8
BLACK
6
CONTINUOUS
10
0.127204
20
2.32754
11
0.128067
21
2.32726
0
LINE
8
BLACK
6
CONTINUOUS
10
0.210468
20
2.37235
11
0.211366
21
2.37221
0
LINE
8
BLACK
6
CONTINUOUS
10
0.211366
20
2.37221
11
0.21624
21
2.36978
0
LINE
8
BLACK
6
CONTINUOUS
10
0.21624
20
2.36978
11
0.216695
21
2.36933
0
LINE
8
BLACK
6
CONTINUOUS
10
0.216695
20
2.36933
11
0.217264
21
2.36904
0
LINE
8
BLACK
6
CONTINUOUS
10
0.217264
20
2.36904
11
0.219701
21
2.3666
0
LINE
8
BLACK
6
CONTINUOUS
10
0.219701
20
2.3666
11
0.219991
21
2.36603
0
LINE
8
BLACK
6
CONTINUOUS
10
0.219991
20
2.36603
11
0.220438
21
2.36558
0
LINE
8
BLACK
6
CONTINUOUS
10
0.220438
20
2.36558
11
0.222876
21
2.36071
0
LINE
8
BLACK
6
CONTINUOUS
10
0.222876
20
2.36071
11
0.223011
21
2.35981
0
LINE
8
BLACK
6
CONTINUOUS
10
0.223011
20
2.35981
11
0.223291
21
2.35894
0
LINE
8
BLACK
6
CONTINUOUS
10
0.223291
20
2.35894
11
0.223291
21
2.33945
0
LINE
8
BLACK
6
CONTINUOUS
10
0.223291
20
2.33945
11
0.223098
21
2.33885
0
LINE
8
BLACK
6
CONTINUOUS
10
0.223098
20
2.33885
11
0.223098
21
2.33823
0
LINE
8
BLACK
6
CONTINUOUS
10
0.223098
20
2.33823
11
0.222732
21
2.33773
0
LINE
8
BLACK
6
CONTINUOUS
10
0.222732
20
2.33773
11
0.222539
21
2.33713
0
LINE
8
BLACK
6
CONTINUOUS
10
0.222539
20
2.33713
11
0.222035
21
2.33677
0
LINE
8
BLACK
6
CONTINUOUS
10
0.222035
20
2.33677
11
0.221668
21
2.33626
0
LINE
8
BLACK
6
CONTINUOUS
10
0.221668
20
2.33626
11
0.221075
21
2.33607
0
LINE
8
BLACK
6
CONTINUOUS
10
0.221075
20
2.33607
11
0.220571
21
2.3357
0
LINE
8
BLACK
6
CONTINUOUS
10
0.220571
20
2.3357
11
0.219947
21
2.3357
0
LINE
8
BLACK
6
CONTINUOUS
10
0.219947
20
2.3357
11
0.219354
21
2.33551
0
LINE
8
BLACK
6
CONTINUOUS
10
0.219354
20
2.33551
11
0.168173
21
2.33551
0
LINE
8
BLACK
6
CONTINUOUS
10
0.168173
20
2.33551
11
0.16758
21
2.3357
0
LINE
8
BLACK
6
CONTINUOUS
10
0.16758
20
2.3357
11
0.166956
21
2.3357
0
LINE
8
BLACK
6
CONTINUOUS
10
0.166956
20
2.3357
11
0.166452
21
2.33607
0
LINE
8
BLACK
6
CONTINUOUS
10
0.166452
20
2.33607
11
0.165859
21
2.33626
0
LINE
8
BLACK
6
CONTINUOUS
10
0.165859
20
2.33626
11
0.165492
21
2.33677
0
LINE
8
BLACK
6
CONTINUOUS
10
0.165492
20
2.33677
11
0.164988
21
2.33713
0
LINE
8
BLACK
6
CONTINUOUS
10
0.164988
20
2.33713
11
0.164795
21
2.33773
0
LINE
8
BLACK
6
CONTINUOUS
10
0.164795
20
2.33773
11
0.164429
21
2.33823
0
LINE
8
BLACK
6
CONTINUOUS
10
0.164429
20
2.33823
11
0.164429
21
2.33885
0
LINE
8
BLACK
6
CONTINUOUS
10
0.164429
20
2.33885
11
0.164236
21
2.33945
0
LINE
8
BLACK
6
CONTINUOUS
10
0.164236
20
2.33945
11
0.164236
21
2.35651
0
LINE
8
BLACK
6
CONTINUOUS
10
0.164236
20
2.35651
11
0.164516
21
2.35737
0
LINE
8
BLACK
6
CONTINUOUS
10
0.164516
20
2.35737
11
0.164652
21
2.35827
0
LINE
8
BLACK
6
CONTINUOUS
10
0.164652
20
2.35827
11
0.167089
21
2.36314
0
LINE
8
BLACK
6
CONTINUOUS
10
0.167089
20
2.36314
11
0.167537
21
2.3636
0
LINE
8
BLACK
6
CONTINUOUS
10
0.167537
20
2.3636
11
0.167826
21
2.36417
0
LINE
8
BLACK
6
CONTINUOUS
10
0.167826
20
2.36417
11
0.170264
21
2.3666
0
LINE
8
BLACK
6
CONTINUOUS
10
0.170264
20
2.3666
11
0.170832
21
2.36689
0
LINE
8
BLACK
6
CONTINUOUS
10
0.170832
20
2.36689
11
0.171287
21
2.36734
0
LINE
8
BLACK
6
CONTINUOUS
10
0.171287
20
2.36734
11
0.176161
21
2.36978
0
LINE
8
BLACK
6
CONTINUOUS
10
0.176161
20
2.36978
11
0.177059
21
2.36991
0
LINE
8
BLACK
6
CONTINUOUS
10
0.177059
20
2.36991
11
0.177922
21
2.37019
0
LINE
8
BLACK
6
CONTINUOUS
10
0.177922
20
2.37019
11
0.182796
21
2.37019
0
LINE
8
BLACK
6
CONTINUOUS
10
0.182796
20
2.37019
11
0.183659
21
2.36991
0
LINE
8
BLACK
6
CONTINUOUS
10
0.183659
20
2.36991
11
0.184557
21
2.36978
0
LINE
8
BLACK
6
CONTINUOUS
10
0.184557
20
2.36978
11
0.189431
21
2.36734
0
LINE
8
BLACK
6
CONTINUOUS
10
0.189431
20
2.36734
11
0.189886
21
2.36689
0
LINE
8
BLACK
6
CONTINUOUS
10
0.189886
20
2.36689
11
0.190454
21
2.3666
0
LINE
8
BLACK
6
CONTINUOUS
10
0.190454
20
2.3666
11
0.191564
21
2.36549
0
LINE
8
BLACK
6
CONTINUOUS
10
0.191564
20
2.36549
11
0.191786
21
2.36579
0
LINE
8
BLACK
6
CONTINUOUS
10
0.191786
20
2.36579
11
0.192198
21
2.3666
0
LINE
8
BLACK
6
CONTINUOUS
10
0.192198
20
2.3666
11
0.194635
21
2.36904
0
LINE
8
BLACK
6
CONTINUOUS
10
0.194635
20
2.36904
11
0.195204
21
2.36933
0
LINE
8
BLACK
6
CONTINUOUS
10
0.195204
20
2.36933
11
0.195659
21
2.36978
0
LINE
8
BLACK
6
CONTINUOUS
10
0.195659
20
2.36978
11
0.200533
21
2.37221
0
LINE
8
BLACK
6
CONTINUOUS
10
0.200533
20
2.37221
11
0.201431
21
2.37235
0
LINE
8
BLACK
6
CONTINUOUS
10
0.201431
20
2.37235
11
0.202294
21
2.37263
0
LINE
8
BLACK
6
CONTINUOUS
10
0.202294
20
2.37263
11
0.209605
21
2.37263
0
LINE
8
BLACK
6
CONTINUOUS
10
0.209605
20
2.37263
11
0.210468
21
2.37235
0
LINE
8
BLACK
6
CONTINUOUS
10
0.178851
20
2.36232
11
0.175379
21
2.36058
0
LINE
8
BLACK
6
CONTINUOUS
10
0.175379
20
2.36058
11
0.173846
21
2.35905
0
LINE
8
BLACK
6
CONTINUOUS
10
0.173846
20
2.35905
11
0.17211
21
2.35558
0
LINE
8
BLACK
6
CONTINUOUS
10
0.17211
20
2.35558
11
0.17211
21
2.34338
0
LINE
8
BLACK
6
CONTINUOUS
10
0.17211
20
2.34338
11
0.188608
21
2.34338
0
LINE
8
BLACK
6
CONTINUOUS
10
0.188608
20
2.34338
11
0.188608
21
2.35558
0
LINE
8
BLACK
6
CONTINUOUS
10
0.188608
20
2.35558
11
0.186872
21
2.35905
0
LINE
8
BLACK
6
CONTINUOUS
10
0.186872
20
2.35905
11
0.185339
21
2.36058
0
LINE
8
BLACK
6
CONTINUOUS
10
0.185339
20
2.36058
11
0.181867
21
2.36232
0
LINE
8
BLACK
6
CONTINUOUS
10
0.181867
20
2.36232
11
0.178851
21
2.36232
0
LINE
8
BLACK
6
CONTINUOUS
10
0.203223
20
2.36476
11
0.199751
21
2.36302
0
LINE
8
BLACK
6
CONTINUOUS
10
0.199751
20
2.36302
11
0.198423
21
2.36169
0
LINE
8
BLACK
6
CONTINUOUS
10
0.198423
20
2.36169
11
0.196482
21
2.35587
0
LINE
8
BLACK
6
CONTINUOUS
10
0.196482
20
2.35587
11
0.196482
21
2.34338
0
LINE
8
BLACK
6
CONTINUOUS
10
0.196482
20
2.34338
11
0.215417
21
2.34338
0
LINE
8
BLACK
6
CONTINUOUS
10
0.215417
20
2.34338
11
0.215417
21
2.35802
0
LINE
8
BLACK
6
CONTINUOUS
10
0.215417
20
2.35802
11
0.213681
21
2.36149
0
LINE
8
BLACK
6
CONTINUOUS
10
0.213681
20
2.36149
11
0.212148
21
2.36302
0
LINE
8
BLACK
6
CONTINUOUS
10
0.212148
20
2.36302
11
0.208676
21
2.36476
0
LINE
8
BLACK
6
CONTINUOUS
10
0.208676
20
2.36476
11
0.203223
21
2.36476
0
LINE
8
BLACK
6
CONTINUOUS
10
0.128067
20
2.37844
11
0.128964
21
2.37831
0
LINE
8
BLACK
6
CONTINUOUS
10
0.128964
20
2.37831
11
0.133839
21
2.37587
0
LINE
8
BLACK
6
CONTINUOUS
10
0.133839
20
2.37587
11
0.134294
21
2.37542
0
LINE
8
BLACK
6
CONTINUOUS
10
0.134294
20
2.37542
11
0.134862
21
2.37513
0
LINE
8
BLACK
6
CONTINUOUS
10
0.134862
20
2.37513
11
0.137299
21
2.3727
0
LINE
8
BLACK
6
CONTINUOUS
10
0.137299
20
2.3727
11
0.137589
21
2.37213
0
LINE
8
BLACK
6
CONTINUOUS
10
0.137589
20
2.37213
11
0.138037
21
2.37167
0
LINE
8
BLACK
6
CONTINUOUS
10
0.138037
20
2.37167
11
0.140474
21
2.3668
0
LINE
8
BLACK
6
CONTINUOUS
10
0.140474
20
2.3668
11
0.140609
21
2.3659
0
LINE
8
BLACK
6
CONTINUOUS
10
0.140609
20
2.3659
11
0.14089
21
2.36504
0
LINE
8
BLACK
6
CONTINUOUS
10
0.14089
20
2.36504
11
0.14089
21
2.35285
0
LINE
8
BLACK
6
CONTINUOUS
10
0.14089
20
2.35285
11
0.140692
21
2.35224
0
LINE
8
BLACK
6
CONTINUOUS
10
0.140692
20
2.35224
11
0.140688
21
2.35161
0
LINE
8
BLACK
6
CONTINUOUS
10
0.140688
20
2.35161
11
0.13825
21
2.34429
0
LINE
8
BLACK
6
CONTINUOUS
10
0.13825
20
2.34429
11
0.136805
21
2.34234
0
LINE
8
BLACK
6
CONTINUOUS
10
0.136805
20
2.34234
11
0.134485
21
2.3416
0
LINE
8
BLACK
6
CONTINUOUS
10
0.134485
20
2.3416
11
0.132177
21
2.34237
0
LINE
8
BLACK
6
CONTINUOUS
10
0.132177
20
2.34237
11
0.130762
21
2.34435
0
LINE
8
BLACK
6
CONTINUOUS
10
0.130762
20
2.34435
11
0.13078
21
2.34678
0
LINE
8
BLACK
6
CONTINUOUS
10
0.13078
20
2.34678
11
0.133016
21
2.35349
0
LINE
8
BLACK
6
CONTINUOUS
10
0.133016
20
2.35349
11
0.133016
21
2.36411
0
LINE
8
BLACK
6
CONTINUOUS
10
0.133016
20
2.36411
11
0.13128
21
2.36758
0
LINE
8
BLACK
6
CONTINUOUS
10
0.13128
20
2.36758
11
0.129746
21
2.36911
0
LINE
8
BLACK
6
CONTINUOUS
10
0.129746
20
2.36911
11
0.126274
21
2.37085
0
LINE
8
BLACK
6
CONTINUOUS
10
0.126274
20
2.37085
11
0.123259
21
2.37085
0
LINE
8
BLACK
6
CONTINUOUS
10
0.123259
20
2.37085
11
0.119787
21
2.36911
0
LINE
8
BLACK
6
CONTINUOUS
10
0.119787
20
2.36911
11
0.118253
21
2.36758
0
LINE
8
BLACK
6
CONTINUOUS
10
0.118253
20
2.36758
11
0.116295
21
2.36366
0
LINE
8
BLACK
6
CONTINUOUS
10
0.116295
20
2.36366
11
0.113963
21
2.35433
0
LINE
8
BLACK
6
CONTINUOUS
10
0.113963
20
2.35433
11
0.11373
21
2.35396
0
LINE
8
BLACK
6
CONTINUOUS
10
0.11373
20
2.35396
11
0.113665
21
2.35353
0
LINE
8
BLACK
6
CONTINUOUS
10
0.113665
20
2.35353
11
0.111228
21
2.34865
0
LINE
8
BLACK
6
CONTINUOUS
10
0.111228
20
2.34865
11
0.11078
21
2.3482
0
LINE
8
BLACK
6
CONTINUOUS
10
0.11078
20
2.3482
11
0.11049
21
2.34763
0
LINE
8
BLACK
6
CONTINUOUS
10
0.11049
20
2.34763
11
0.108053
21
2.34519
0
LINE
8
BLACK
6
CONTINUOUS
10
0.108053
20
2.34519
11
0.107484
21
2.3449
0
LINE
8
BLACK
6
CONTINUOUS
10
0.107484
20
2.3449
11
0.10703
21
2.34446
0
LINE
8
BLACK
6
CONTINUOUS
10
0.10703
20
2.34446
11
0.102155
21
2.34202
0
LINE
8
BLACK
6
CONTINUOUS
10
0.102155
20
2.34202
11
0.101258
21
2.34188
0
LINE
8
BLACK
6
CONTINUOUS
10
0.101258
20
2.34188
11
0.100395
21
2.3416
0
LINE
8
BLACK
6
CONTINUOUS
10
0.100395
20
2.3416
11
0.0955202
21
2.3416
0
LINE
8
BLACK
6
CONTINUOUS
10
0.0955202
20
2.3416
11
0.0946571
21
2.34188
0
LINE
8
BLACK
6
CONTINUOUS
10
0.0946571
20
2.34188
11
0.0937596
21
2.34202
0
LINE
8
BLACK
6
CONTINUOUS
10
0.0937596
20
2.34202
11
0.0888852
21
2.34446
0
LINE
8
BLACK
6
CONTINUOUS
10
0.0888852
20
2.34446
11
0.0884305
21
2.3449
0
LINE
8
BLACK
6
CONTINUOUS
10
0.0884305
20
2.3449
11
0.0878619
21
2.34519
0
LINE
8
BLACK
6
CONTINUOUS
10
0.0878619
20
2.34519
11
0.0854248
21
2.34763
0
LINE
8
BLACK
6
CONTINUOUS
10
0.0854248
20
2.34763
11
0.0851351
21
2.3482
0
LINE
8
BLACK
6
CONTINUOUS
10
0.0851351
20
2.3482
11
0.0846873
21
2.34865
0
LINE
8
BLACK
6
CONTINUOUS
10
0.0846873
20
2.34865
11
0.0822501
21
2.35353
0
LINE
8
BLACK
6
CONTINUOUS
10
0.0822501
20
2.35353
11
0.0821149
21
2.35443
0
LINE
8
BLACK
6
CONTINUOUS
10
0.0821149
20
2.35443
11
0.0818344
21
2.35529
0
LINE
8
BLACK
6
CONTINUOUS
10
0.0818344
20
2.35529
11
0.0818344
21
2.36747
0
LINE
8
BLACK
6
CONTINUOUS
10
0.0818344
20
2.36747
11
0.0820317
21
2.36808
0
LINE
8
BLACK
6
CONTINUOUS
10
0.0820317
20
2.36808
11
0.0820365
21
2.36872
0
LINE
8
BLACK
6
CONTINUOUS
10
0.0820365
20
2.36872
11
0.0844737
21
2.37603
0
LINE
8
BLACK
6
CONTINUOUS
10
0.0844737
20
2.37603
11
0.0859188
21
2.37799
0
LINE
8
BLACK
6
CONTINUOUS
10
0.0859188
20
2.37799
11
0.0882385
21
2.37872
0
LINE
8
BLACK
6
CONTINUOUS
10
0.0882385
20
2.37872
11
0.0905469
21
2.37795
0
LINE
8
BLACK
6
CONTINUOUS
10
0.0905469
20
2.37795
11
0.0919621
21
2.37597
0
LINE
8
BLACK
6
CONTINUOUS
10
0.0919621
20
2.37597
11
0.0919436
21
2.37354
0
LINE
8
BLACK
6
CONTINUOUS
10
0.0919436
20
2.37354
11
0.0897085
21
2.36684
0
LINE
8
BLACK
6
CONTINUOUS
10
0.0897085
20
2.36684
11
0.0897085
21
2.35622
0
LINE
8
BLACK
6
CONTINUOUS
10
0.0897085
20
2.35622
11
0.0914443
21
2.35275
0
LINE
8
BLACK
6
CONTINUOUS
10
0.0914443
20
2.35275
11
0.0929779
21
2.35121
0
LINE
8
BLACK
6
CONTINUOUS
10
0.0929779
20
2.35121
11
0.0964497
21
2.34948
0
LINE
8
BLACK
6
CONTINUOUS
10
0.0964497
20
2.34948
11
0.0994652
21
2.34948
0
LINE
8
BLACK
6
CONTINUOUS
10
0.0994652
20
2.34948
11
0.102937
21
2.35121
0
LINE
8
BLACK
6
CONTINUOUS
10
0.102937
20
2.35121
11
0.104471
21
2.35275
0
LINE
8
BLACK
6
CONTINUOUS
10
0.104471
20
2.35275
11
0.106429
21
2.35666
0
LINE
8
BLACK
6
CONTINUOUS
10
0.106429
20
2.35666
11
0.108761
21
2.36599
0
LINE
8
BLACK
6
CONTINUOUS
10
0.108761
20
2.36599
11
0.108994
21
2.36636
0
LINE
8
BLACK
6
CONTINUOUS
10
0.108994
20
2.36636
11
0.109059
21
2.3668
0
LINE
8
BLACK
6
CONTINUOUS
10
0.109059
20
2.3668
11
0.111496
21
2.37167
0
LINE
8
BLACK
6
CONTINUOUS
10
0.111496
20
2.37167
11
0.111944
21
2.37213
0
LINE
8
BLACK
6
CONTINUOUS
10
0.111944
20
2.37213
11
0.112234
21
2.3727
0
LINE
8
BLACK
6
CONTINUOUS
10
0.112234
20
2.3727
11
0.114671
21
2.37513
0
LINE
8
BLACK
6
CONTINUOUS
10
0.114671
20
2.37513
11
0.11524
21
2.37542
0
LINE
8
BLACK
6
CONTINUOUS
10
0.11524
20
2.37542
11
0.115694
21
2.37587
0
LINE
8
BLACK
6
CONTINUOUS
10
0.115694
20
2.37587
11
0.120569
21
2.37831
0
LINE
8
BLACK
6
CONTINUOUS
10
0.120569
20
2.37831
11
0.121466
21
2.37844
0
LINE
8
BLACK
6
CONTINUOUS
10
0.121466
20
2.37844
11
0.122329
21
2.37872
0
LINE
8
BLACK
6
CONTINUOUS
10
0.122329
20
2.37872
11
0.127204
21
2.37872
0
LINE
8
BLACK
6
CONTINUOUS
10
0.127204
20
2.37872
11
0.128067
21
2.37844
0
LINE
8
BLACK
6
CONTINUOUS
10
0.222522
20
2.41978
11
0.223291
21
2.41747
0
LINE
8
BLACK
6
CONTINUOUS
10
0.223291
20
2.41747
11
0.222557
21
2.41515
0
LINE
8
BLACK
6
CONTINUOUS
10
0.222557
20
2.41515
11
0.220599
21
2.4137
0
LINE
8
BLACK
6
CONTINUOUS
10
0.220599
20
2.4137
11
0.208668
21
2.40973
0
LINE
8
BLACK
6
CONTINUOUS
10
0.208668
20
2.40973
11
0.208668
21
2.39103
0
LINE
8
BLACK
6
CONTINUOUS
10
0.208668
20
2.39103
11
0.220599
21
2.38705
0
LINE
8
BLACK
6
CONTINUOUS
10
0.220599
20
2.38705
11
0.222557
21
2.38561
0
LINE
8
BLACK
6
CONTINUOUS
10
0.222557
20
2.38561
11
0.223291
21
2.38329
0
LINE
8
BLACK
6
CONTINUOUS
10
0.223291
20
2.38329
11
0.222522
21
2.38098
0
LINE
8
BLACK
6
CONTINUOUS
10
0.222522
20
2.38098
11
0.220542
21
2.37956
0
LINE
8
BLACK
6
CONTINUOUS
10
0.220542
20
2.37956
11
0.218109
21
2.37958
0
LINE
8
BLACK
6
CONTINUOUS
10
0.218109
20
2.37958
11
0.166928
21
2.39664
0
LINE
8
BLACK
6
CONTINUOUS
10
0.166928
20
2.39664
11
0.165972
21
2.39735
0
LINE
8
BLACK
6
CONTINUOUS
10
0.165972
20
2.39735
11
0.165006
21
2.39804
0
LINE
8
BLACK
6
CONTINUOUS
10
0.165006
20
2.39804
11
0.164996
21
2.39807
0
LINE
8
BLACK
6
CONTINUOUS
10
0.164996
20
2.39807
11
0.16497
21
2.39809
0
LINE
8
BLACK
6
CONTINUOUS
10
0.16497
20
2.39809
11
0.164612
21
2.39922
0
LINE
8
BLACK
6
CONTINUOUS
10
0.164612
20
2.39922
11
0.164236
21
2.40035
0
LINE
8
BLACK
6
CONTINUOUS
10
0.164236
20
2.40035
11
0.164246
21
2.40038
0
LINE
8
BLACK
6
CONTINUOUS
10
0.164246
20
2.40038
11
0.164236
21
2.40041
0
LINE
8
BLACK
6
CONTINUOUS
10
0.164236
20
2.40041
11
0.164612
21
2.40153
0
LINE
8
BLACK
6
CONTINUOUS
10
0.164612
20
2.40153
11
0.16497
21
2.40267
0
LINE
8
BLACK
6
CONTINUOUS
10
0.16497
20
2.40267
11
0.164996
21
2.40269
0
LINE
8
BLACK
6
CONTINUOUS
10
0.164996
20
2.40269
11
0.165006
21
2.40272
0
LINE
8
BLACK
6
CONTINUOUS
10
0.165006
20
2.40272
11
0.165972
21
2.40341
0
LINE
8
BLACK
6
CONTINUOUS
10
0.165972
20
2.40341
11
0.166928
21
2.40411
0
LINE
8
BLACK
6
CONTINUOUS
10
0.166928
20
2.40411
11
0.218109
21
2.42117
0
LINE
8
BLACK
6
CONTINUOUS
10
0.218109
20
2.42117
11
0.220542
21
2.42119
0
LINE
8
BLACK
6
CONTINUOUS
10
0.220542
20
2.42119
11
0.222522
21
2.41978
0
LINE
8
BLACK
6
CONTINUOUS
10
0.180623
20
2.40038
11
0.200794
21
2.39365
0
LINE
8
BLACK
6
CONTINUOUS
10
0.200794
20
2.39365
11
0.200794
21
2.4071
0
LINE
8
BLACK
6
CONTINUOUS
10
0.200794
20
2.4071
11
0.180623
21
2.40038
0
LINE
8
BLACK
6
CONTINUOUS
10
0.0889566
20
2.42097
11
0.0897085
21
2.41866
0
LINE
8
BLACK
6
CONTINUOUS
10
0.0897085
20
2.41866
11
0.0897085
21
2.40797
0
LINE
8
BLACK
6
CONTINUOUS
10
0.0897085
20
2.40797
11
0.136953
21
2.40797
0
LINE
8
BLACK
6
CONTINUOUS
10
0.136953
20
2.40797
11
0.139267
21
2.40722
0
LINE
8
BLACK
6
CONTINUOUS
10
0.139267
20
2.40722
11
0.140697
21
2.40525
0
LINE
8
BLACK
6
CONTINUOUS
10
0.140697
20
2.40525
11
0.140697
21
2.40282
0
LINE
8
BLACK
6
CONTINUOUS
10
0.140697
20
2.40282
11
0.139267
21
2.40085
0
LINE
8
BLACK
6
CONTINUOUS
10
0.139267
20
2.40085
11
0.136953
21
2.4001
0
LINE
8
BLACK
6
CONTINUOUS
10
0.136953
20
2.4001
11
0.0897085
21
2.4001
0
LINE
8
BLACK
6
CONTINUOUS
10
0.0897085
20
2.4001
11
0.0897085
21
2.38941
0
LINE
8
BLACK
6
CONTINUOUS
10
0.0897085
20
2.38941
11
0.0889566
21
2.3871
0
LINE
8
BLACK
6
CONTINUOUS
10
0.0889566
20
2.3871
11
0.0869881
21
2.38567
0
LINE
8
BLACK
6
CONTINUOUS
10
0.0869881
20
2.38567
11
0.0845548
21
2.38567
0
LINE
8
BLACK
6
CONTINUOUS
10
0.0845548
20
2.38567
11
0.0825863
21
2.3871
0
LINE
8
BLACK
6
CONTINUOUS
10
0.0825863
20
2.3871
11
0.0818344
21
2.38941
0
LINE
8
BLACK
6
CONTINUOUS
10
0.0818344
20
2.38941
11
0.0818344
21
2.41866
0
LINE
8
BLACK
6
CONTINUOUS
10
0.0818344
20
2.41866
11
0.0825863
21
2.42097
0
LINE
8
BLACK
6
CONTINUOUS
10
0.0825863
20
2.42097
11
0.0845548
21
2.4224
0
LINE
8
BLACK
6
CONTINUOUS
10
0.0845548
20
2.4224
11
0.0869881
21
2.4224
0
LINE
8
BLACK
6
CONTINUOUS
10
0.0869881
20
2.4224
11
0.0889566
21
2.42097
0
LINE
8
BLACK
6
CONTINUOUS
10
0.171358
20
2.45875
11
0.17211
21
2.45643
0
LINE
8
BLACK
6
CONTINUOUS
10
0.17211
20
2.45643
11
0.17211
21
2.44575
0
LINE
8
BLACK
6
CONTINUOUS
10
0.17211
20
2.44575
11
0.219354
21
2.44575
0
LINE
8
BLACK
6
CONTINUOUS
10
0.219354
20
2.44575
11
0.221668
21
2.44499
0
LINE
8
BLACK
6
CONTINUOUS
10
0.221668
20
2.44499
11
0.223098
21
2.44303
0
LINE
8
BLACK
6
CONTINUOUS
10
0.223098
20
2.44303
11
0.223098
21
2.44059
0
LINE
8
BLACK
6
CONTINUOUS
10
0.223098
20
2.44059
11
0.221668
21
2.43862
0
LINE
8
BLACK
6
CONTINUOUS
10
0.221668
20
2.43862
11
0.219354
21
2.43787
0
LINE
8
BLACK
6
CONTINUOUS
10
0.219354
20
2.43787
11
0.17211
21
2.43787
0
LINE
8
BLACK
6
CONTINUOUS
10
0.17211
20
2.43787
11
0.17211
21
2.42719
0
LINE
8
BLACK
6
CONTINUOUS
10
0.17211
20
2.42719
11
0.171358
21
2.42487
0
LINE
8
BLACK
6
CONTINUOUS
10
0.171358
20
2.42487
11
0.16939
21
2.42344
0
LINE
8
BLACK
6
CONTINUOUS
10
0.16939
20
2.42344
11
0.166956
21
2.42344
0
LINE
8
BLACK
6
CONTINUOUS
10
0.166956
20
2.42344
11
0.164988
21
2.42487
0
LINE
8
BLACK
6
CONTINUOUS
10
0.164988
20
2.42487
11
0.164236
21
2.42719
0
LINE
8
BLACK
6
CONTINUOUS
10
0.164236
20
2.42719
11
0.164236
21
2.45643
0
LINE
8
BLACK
6
CONTINUOUS
10
0.164236
20
2.45643
11
0.164988
21
2.45875
0
LINE
8
BLACK
6
CONTINUOUS
10
0.164988
20
2.45875
11
0.166956
21
2.46018
0
LINE
8
BLACK
6
CONTINUOUS
10
0.166956
20
2.46018
11
0.16939
21
2.46018
0
LINE
8
BLACK
6
CONTINUOUS
10
0.16939
20
2.46018
11
0.171358
21
2.45875
0
LINE
8
BLACK
6
CONTINUOUS
10
0.135687
20
2.44176
11
0.136303
21
2.44166
0
LINE
8
BLACK
6
CONTINUOUS
10
0.136303
20
2.44166
11
0.136744
21
2.44122
0
LINE
8
BLACK
6
CONTINUOUS
10
0.136744
20
2.44122
11
0.137299
21
2.44094
0
LINE
8
BLACK
6
CONTINUOUS
10
0.137299
20
2.44094
11
0.139736
21
2.4385
0
LINE
8
BLACK
6
CONTINUOUS
10
0.139736
20
2.4385
11
0.14002
21
2.43794
0
LINE
8
BLACK
6
CONTINUOUS
10
0.14002
20
2.43794
11
0.14046
21
2.4375
0
LINE
8
BLACK
6
CONTINUOUS
10
0.14046
20
2.4375
11
0.14051
21
2.43719
0
LINE
8
BLACK
6
CONTINUOUS
10
0.14051
20
2.43719
11
0.140697
21
2.43693
0
LINE
8
BLACK
6
CONTINUOUS
10
0.140697
20
2.43693
11
0.140697
21
2.43662
0
LINE
8
BLACK
6
CONTINUOUS
10
0.140697
20
2.43662
11
0.140841
21
2.43633
0
LINE
8
BLACK
6
CONTINUOUS
10
0.140841
20
2.43633
11
0.140744
21
2.43572
0
LINE
8
BLACK
6
CONTINUOUS
10
0.140744
20
2.43572
11
0.140841
21
2.4351
0
LINE
8
BLACK
6
CONTINUOUS
10
0.140841
20
2.4351
11
0.140697
21
2.43482
0
LINE
8
BLACK
6
CONTINUOUS
10
0.140697
20
2.43482
11
0.140697
21
2.4345
0
LINE
8
BLACK
6
CONTINUOUS
10
0.140697
20
2.4345
11
0.14051
21
2.43424
0
LINE
8
BLACK
6
CONTINUOUS
10
0.14051
20
2.43424
11
0.14046
21
2.43393
0
LINE
8
BLACK
6
CONTINUOUS
10
0.14046
20
2.43393
11
0.14002
21
2.43349
0
LINE
8
BLACK
6
CONTINUOUS
10
0.14002
20
2.43349
11
0.139736
21
2.43293
0
LINE
8
BLACK
6
CONTINUOUS
10
0.139736
20
2.43293
11
0.137299
21
2.4305
0
LINE
8
BLACK
6
CONTINUOUS
10
0.137299
20
2.4305
11
0.136744
21
2.43021
0
LINE
8
BLACK
6
CONTINUOUS
10
0.136744
20
2.43021
11
0.136303
21
2.42977
0
LINE
8
BLACK
6
CONTINUOUS
10
0.136303
20
2.42977
11
0.135687
21
2.42967
0
LINE
8
BLACK
6
CONTINUOUS
10
0.135687
20
2.42967
11
0.135131
21
2.42939
0
LINE
8
BLACK
6
CONTINUOUS
10
0.135131
20
2.42939
11
0.134515
21
2.42949
0
LINE
8
BLACK
6
CONTINUOUS
10
0.134515
20
2.42949
11
0.133899
21
2.42939
0
LINE
8
BLACK
6
CONTINUOUS
10
0.133899
20
2.42939
11
0.133344
21
2.42967
0
LINE
8
BLACK
6
CONTINUOUS
10
0.133344
20
2.42967
11
0.132728
21
2.42977
0
LINE
8
BLACK
6
CONTINUOUS
10
0.132728
20
2.42977
11
0.132287
21
2.43021
0
LINE
8
BLACK
6
CONTINUOUS
10
0.132287
20
2.43021
11
0.131731
21
2.4305
0
LINE
8
BLACK
6
CONTINUOUS
10
0.131731
20
2.4305
11
0.129294
21
2.43293
0
LINE
8
BLACK
6
CONTINUOUS
10
0.129294
20
2.43293
11
0.129011
21
2.43349
0
LINE
8
BLACK
6
CONTINUOUS
10
0.129011
20
2.43349
11
0.12857
21
2.43393
0
LINE
8
BLACK
6
CONTINUOUS
10
0.12857
20
2.43393
11
0.128521
21
2.43424
0
LINE
8
BLACK
6
CONTINUOUS
10
0.128521
20
2.43424
11
0.128334
21
2.4345
0
LINE
8
BLACK
6
CONTINUOUS
10
0.128334
20
2.4345
11
0.128334
21
2.43482
0
LINE
8
BLACK
6
CONTINUOUS
10
0.128334
20
2.43482
11
0.12819
21
2.4351
0
LINE
8
BLACK
6
CONTINUOUS
10
0.12819
20
2.4351
11
0.128287
21
2.43572
0
LINE
8
BLACK
6
CONTINUOUS
10
0.128287
20
2.43572
11
0.12819
21
2.43633
0
LINE
8
BLACK
6
CONTINUOUS
10
0.12819
20
2.43633
11
0.128334
21
2.43662
0
LINE
8
BLACK
6
CONTINUOUS
10
0.128334
20
2.43662
11
0.128334
21
2.43693
0
LINE
8
BLACK
6
CONTINUOUS
10
0.128334
20
2.43693
11
0.128521
21
2.43719
0
LINE
8
BLACK
6
CONTINUOUS
10
0.128521
20
2.43719
11
0.12857
21
2.4375
0
LINE
8
BLACK
6
CONTINUOUS
10
0.12857
20
2.4375
11
0.129011
21
2.43794
0
LINE
8
BLACK
6
CONTINUOUS
10
0.129011
20
2.43794
11
0.129294
21
2.4385
0
LINE
8
BLACK
6
CONTINUOUS
10
0.129294
20
2.4385
11
0.131731
21
2.44094
0
LINE
8
BLACK
6
CONTINUOUS
10
0.131731
20
2.44094
11
0.132287
21
2.44122
0
LINE
8
BLACK
6
CONTINUOUS
10
0.132287
20
2.44122
11
0.132728
21
2.44166
0
LINE
8
BLACK
6
CONTINUOUS
10
0.132728
20
2.44166
11
0.133344
21
2.44176
0
LINE
8
BLACK
6
CONTINUOUS
10
0.133344
20
2.44176
11
0.133899
21
2.44204
0
LINE
8
BLACK
6
CONTINUOUS
10
0.133899
20
2.44204
11
0.134515
21
2.44194
0
LINE
8
BLACK
6
CONTINUOUS
10
0.134515
20
2.44194
11
0.135131
21
2.44204
0
LINE
8
BLACK
6
CONTINUOUS
10
0.135131
20
2.44204
11
0.135687
21
2.44176
0
LINE
8
BLACK
6
CONTINUOUS
10
0.134862
20
2.49212
11
0.137299
21
2.48968
0
LINE
8
BLACK
6
CONTINUOUS
10
0.137299
20
2.48968
11
0.137711
21
2.48887
0
LINE
8
BLACK
6
CONTINUOUS
10
0.137711
20
2.48887
11
0.13825
21
2.48814
0
LINE
8
BLACK
6
CONTINUOUS
10
0.13825
20
2.48814
11
0.140688
21
2.48083
0
LINE
8
BLACK
6
CONTINUOUS
10
0.140688
20
2.48083
11
0.140692
21
2.48019
0
LINE
8
BLACK
6
CONTINUOUS
10
0.140692
20
2.48019
11
0.14089
21
2.47959
0
LINE
8
BLACK
6
CONTINUOUS
10
0.14089
20
2.47959
11
0.14089
21
2.47471
0
LINE
8
BLACK
6
CONTINUOUS
10
0.14089
20
2.47471
11
0.140692
21
2.4741
0
LINE
8
BLACK
6
CONTINUOUS
10
0.140692
20
2.4741
11
0.140688
21
2.47347
0
LINE
8
BLACK
6
CONTINUOUS
10
0.140688
20
2.47347
11
0.13825
21
2.46615
0
LINE
8
BLACK
6
CONTINUOUS
10
0.13825
20
2.46615
11
0.137711
21
2.46542
0
LINE
8
BLACK
6
CONTINUOUS
10
0.137711
20
2.46542
11
0.137299
21
2.46462
0
LINE
8
BLACK
6
CONTINUOUS
10
0.137299
20
2.46462
11
0.132425
21
2.45974
0
LINE
8
BLACK
6
CONTINUOUS
10
0.132425
20
2.45974
11
0.131856
21
2.45945
0
LINE
8
BLACK
6
CONTINUOUS
10
0.131856
20
2.45945
11
0.131402
21
2.459
0
LINE
8
BLACK
6
CONTINUOUS
10
0.131402
20
2.459
11
0.126527
21
2.45657
0
LINE
8
BLACK
6
CONTINUOUS
10
0.126527
20
2.45657
11
0.126093
21
2.4565
0
LINE
8
BLACK
6
CONTINUOUS
10
0.126093
20
2.4565
11
0.125721
21
2.45627
0
LINE
8
BLACK
6
CONTINUOUS
10
0.125721
20
2.45627
11
0.115973
21
2.45383
0
LINE
8
BLACK
6
CONTINUOUS
10
0.115973
20
2.45383
11
0.115484
21
2.45387
0
LINE
8
BLACK
6
CONTINUOUS
10
0.115484
20
2.45387
11
0.115018
21
2.45371
0
LINE
8
BLACK
6
CONTINUOUS
10
0.115018
20
2.45371
11
0.107706
21
2.45371
0
LINE
8
BLACK
6
CONTINUOUS
10
0.107706
20
2.45371
11
0.10724
21
2.45387
0
LINE
8
BLACK
6
CONTINUOUS
10
0.10724
20
2.45387
11
0.106751
21
2.45383
0
LINE
8
BLACK
6
CONTINUOUS
10
0.106751
20
2.45383
11
0.0970026
21
2.45627
0
LINE
8
BLACK
6
CONTINUOUS
10
0.0970026
20
2.45627
11
0.0966306
21
2.4565
0
LINE
8
BLACK
6
CONTINUOUS
10
0.0966306
20
2.4565
11
0.0961968
21
2.45657
0
LINE
8
BLACK
6
CONTINUOUS
10
0.0961968
20
2.45657
11
0.0913224
21
2.459
0
LINE
8
BLACK
6
CONTINUOUS
10
0.0913224
20
2.459
11
0.0908677
21
2.45945
0
LINE
8
BLACK
6
CONTINUOUS
10
0.0908677
20
2.45945
11
0.0902991
21
2.45974
0
LINE
8
BLACK
6
CONTINUOUS
10
0.0902991
20
2.45974
11
0.0854248
21
2.46462
0
LINE
8
BLACK
6
CONTINUOUS
10
0.0854248
20
2.46462
11
0.0850128
21
2.46542
0
LINE
8
BLACK
6
CONTINUOUS
10
0.0850128
20
2.46542
11
0.0844737
21
2.46615
0
LINE
8
BLACK
6
CONTINUOUS
10
0.0844737
20
2.46615
11
0.0820365
21
2.47347
0
LINE
8
BLACK
6
CONTINUOUS
10
0.0820365
20
2.47347
11
0.0820317
21
2.4741
0
LINE
8
BLACK
6
CONTINUOUS
10
0.0820317
20
2.4741
11
0.0818344
21
2.47471
0
LINE
8
BLACK
6
CONTINUOUS
10
0.0818344
20
2.47471
11
0.0818344
21
2.47959
0
LINE
8
BLACK
6
CONTINUOUS
10
0.0818344
20
2.47959
11
0.0820317
21
2.48019
0
LINE
8
BLACK
6
CONTINUOUS
10
0.0820317
20
2.48019
11
0.0820365
21
2.48083
0
LINE
8
BLACK
6
CONTINUOUS
10
0.0820365
20
2.48083
11
0.0844737
21
2.48814
0
LINE
8
BLACK
6
CONTINUOUS
10
0.0844737
20
2.48814
11
0.0850127
21
2.48887
0
LINE
8
BLACK
6
CONTINUOUS
10
0.0850127
20
2.48887
11
0.0854248
21
2.48968
0
LINE
8
BLACK
6
CONTINUOUS
10
0.0854248
20
2.48968
11
0.0878619
21
2.49212
0
LINE
8
BLACK
6
CONTINUOUS
10
0.0878619
20
2.49212
11
0.0900299
21
2.49322
0
LINE
8
BLACK
6
CONTINUOUS
10
0.0900299
20
2.49322
11
0.0924331
21
2.49284
0
LINE
8
BLACK
6
CONTINUOUS
10
0.0924331
20
2.49284
11
0.0941537
21
2.49112
0
LINE
8
BLACK
6
CONTINUOUS
10
0.0941537
20
2.49112
11
0.0945344
21
2.48872
0
LINE
8
BLACK
6
CONTINUOUS
10
0.0945344
20
2.48872
11
0.0934297
21
2.48655
0
LINE
8
BLACK
6
CONTINUOUS
10
0.0934297
20
2.48655
11
0.0916497
21
2.48477
0
LINE
8
BLACK
6
CONTINUOUS
10
0.0916497
20
2.48477
11
0.0897085
21
2.47895
0
LINE
8
BLACK
6
CONTINUOUS
10
0.0897085
20
2.47895
11
0.0897085
21
2.47535
0
LINE
8
BLACK
6
CONTINUOUS
10
0.0897085
20
2.47535
11
0.0916497
21
2.46953
0
LINE
8
BLACK
6
CONTINUOUS
10
0.0916497
20
2.46953
11
0.0954151
21
2.46576
0
LINE
8
BLACK
6
CONTINUOUS
10
0.0954151
20
2.46576
11
0.0993315
21
2.4638
0
LINE
8
BLACK
6
CONTINUOUS
10
0.0993315
20
2.4638
11
0.108191
21
2.46159
0
LINE
8
BLACK
6
CONTINUOUS
10
0.108191
20
2.46159
11
0.114533
21
2.46159
0
LINE
8
BLACK
6
CONTINUOUS
10
0.114533
20
2.46159
11
0.123392
21
2.4638
0
LINE
8
BLACK
6
CONTINUOUS
10
0.123392
20
2.4638
11
0.127309
21
2.46576
0
LINE
8
BLACK
6
CONTINUOUS
10
0.127309
20
2.46576
11
0.131074
21
2.46953
0
LINE
8
BLACK
6
CONTINUOUS
10
0.131074
20
2.46953
11
0.133016
21
2.47535
0
LINE
8
BLACK
6
CONTINUOUS
10
0.133016
20
2.47535
11
0.133016
21
2.47895
0
LINE
8
BLACK
6
CONTINUOUS
10
0.133016
20
2.47895
11
0.131074
21
2.48477
0
LINE
8
BLACK
6
CONTINUOUS
10
0.131074
20
2.48477
11
0.129294
21
2.48655
0
LINE
8
BLACK
6
CONTINUOUS
10
0.129294
20
2.48655
11
0.12819
21
2.48872
0
LINE
8
BLACK
6
CONTINUOUS
10
0.12819
20
2.48872
11
0.12857
21
2.49112
0
LINE
8
BLACK
6
CONTINUOUS
10
0.12857
20
2.49112
11
0.130291
21
2.49284
0
LINE
8
BLACK
6
CONTINUOUS
10
0.130291
20
2.49284
11
0.132694
21
2.49322
0
LINE
8
BLACK
6
CONTINUOUS
10
0.132694
20
2.49322
11
0.134862
21
2.49212
0
LINE
8
BLACK
6
CONTINUOUS
10
0.171358
20
2.49774
11
0.17211
21
2.49543
0
LINE
8
BLACK
6
CONTINUOUS
10
0.17211
20
2.49543
11
0.17211
21
2.48474
0
LINE
8
BLACK
6
CONTINUOUS
10
0.17211
20
2.48474
11
0.219354
21
2.48474
0
LINE
8
BLACK
6
CONTINUOUS
10
0.219354
20
2.48474
11
0.221668
21
2.48399
0
LINE
8
BLACK
6
CONTINUOUS
10
0.221668
20
2.48399
11
0.223098
21
2.48202
0
LINE
8
BLACK
6
CONTINUOUS
10
0.223098
20
2.48202
11
0.223098
21
2.47959
0
LINE
8
BLACK
6
CONTINUOUS
10
0.223098
20
2.47959
11
0.221668
21
2.47762
0
LINE
8
BLACK
6
CONTINUOUS
10
0.221668
20
2.47762
11
0.219354
21
2.47687
0
LINE
8
BLACK
6
CONTINUOUS
10
0.219354
20
2.47687
11
0.17211
21
2.47687
0
LINE
8
BLACK
6
CONTINUOUS
10
0.17211
20
2.47687
11
0.17211
21
2.46618
0
LINE
8
BLACK
6
CONTINUOUS
10
0.17211
20
2.46618
11
0.171358
21
2.46387
0
LINE
8
BLACK
6
CONTINUOUS
10
0.171358
20
2.46387
11
0.16939
21
2.46244
0
LINE
8
BLACK
6
CONTINUOUS
10
0.16939
20
2.46244
11
0.166956
21
2.46244
0
LINE
8
BLACK
6
CONTINUOUS
10
0.166956
20
2.46244
11
0.164988
21
2.46387
0
LINE
8
BLACK
6
CONTINUOUS
10
0.164988
20
2.46387
11
0.164236
21
2.46618
0
LINE
8
BLACK
6
CONTINUOUS
10
0.164236
20
2.46618
11
0.164236
21
2.49543
0
LINE
8
BLACK
6
CONTINUOUS
10
0.164236
20
2.49543
11
0.164988
21
2.49774
0
LINE
8
BLACK
6
CONTINUOUS
10
0.164988
20
2.49774
11
0.166956
21
2.49917
0
LINE
8
BLACK
6
CONTINUOUS
10
0.166956
20
2.49917
11
0.16939
21
2.49917
0
LINE
8
BLACK
6
CONTINUOUS
10
0.16939
20
2.49917
11
0.171358
21
2.49774
0
LINE
8
BLACK
6
CONTINUOUS
10
0.0862873
20
2.54426
11
0.0869881
21
2.54426
0
LINE
8
BLACK
6
CONTINUOUS
10
0.0869881
20
2.54426
11
0.0874298
21
2.54394
0
LINE
8
BLACK
6
CONTINUOUS
10
0.0874298
20
2.54394
11
0.0879553
21
2.54379
0
LINE
8
BLACK
6
CONTINUOUS
10
0.0879553
20
2.54379
11
0.133016
21
2.51375
0
LINE
8
BLACK
6
CONTINUOUS
10
0.133016
20
2.51375
11
0.133016
21
2.54052
0
LINE
8
BLACK
6
CONTINUOUS
10
0.133016
20
2.54052
11
0.133767
21
2.54283
0
LINE
8
BLACK
6
CONTINUOUS
10
0.133767
20
2.54283
11
0.135736
21
2.54426
0
LINE
8
BLACK
6
CONTINUOUS
10
0.135736
20
2.54426
11
0.138169
21
2.54426
0
LINE
8
BLACK
6
CONTINUOUS
10
0.138169
20
2.54426
11
0.140138
21
2.54283
0
LINE
8
BLACK
6
CONTINUOUS
10
0.140138
20
2.54283
11
0.14089
21
2.54052
0
LINE
8
BLACK
6
CONTINUOUS
10
0.14089
20
2.54052
11
0.14089
21
2.50639
0
LINE
8
BLACK
6
CONTINUOUS
10
0.14089
20
2.50639
11
0.140721
21
2.50588
0
LINE
8
BLACK
6
CONTINUOUS
10
0.140721
20
2.50588
11
0.140743
21
2.50533
0
LINE
8
BLACK
6
CONTINUOUS
10
0.140743
20
2.50533
11
0.140354
21
2.50475
0
LINE
8
BLACK
6
CONTINUOUS
10
0.140354
20
2.50475
11
0.140138
21
2.50408
0
LINE
8
BLACK
6
CONTINUOUS
10
0.140138
20
2.50408
11
0.139696
21
2.50376
0
LINE
8
BLACK
6
CONTINUOUS
10
0.139696
20
2.50376
11
0.139393
21
2.50331
0
LINE
8
BLACK
6
CONTINUOUS
10
0.139393
20
2.50331
11
0.138736
21
2.50306
0
LINE
8
BLACK
6
CONTINUOUS
10
0.138736
20
2.50306
11
0.138169
21
2.50265
0
LINE
8
BLACK
6
CONTINUOUS
10
0.138169
20
2.50265
11
0.137623
21
2.50265
0
LINE
8
BLACK
6
CONTINUOUS
10
0.137623
20
2.50265
11
0.137111
21
2.50246
0
LINE
8
BLACK
6
CONTINUOUS
10
0.137111
20
2.50246
11
0.136437
21
2.50265
0
LINE
8
BLACK
6
CONTINUOUS
10
0.136437
20
2.50265
11
0.135736
21
2.50265
0
LINE
8
BLACK
6
CONTINUOUS
10
0.135736
20
2.50265
11
0.135294
21
2.50297
0
LINE
8
BLACK
6
CONTINUOUS
10
0.135294
20
2.50297
11
0.134769
21
2.50312
0
LINE
8
BLACK
6
CONTINUOUS
10
0.134769
20
2.50312
11
0.0897085
21
2.53316
0
LINE
8
BLACK
6
CONTINUOUS
10
0.0897085
20
2.53316
11
0.0897085
21
2.50639
0
LINE
8
BLACK
6
CONTINUOUS
10
0.0897085
20
2.50639
11
0.0889566
21
2.50408
0
LINE
8
BLACK
6
CONTINUOUS
10
0.0889566
20
2.50408
11
0.0869881
21
2.50265
0
LINE
8
BLACK
6
CONTINUOUS
10
0.0869881
20
2.50265
11
0.0845548
21
2.50265
0
LINE
8
BLACK
6
CONTINUOUS
10
0.0845548
20
2.50265
11
0.0825863
21
2.50408
0
LINE
8
BLACK
6
CONTINUOUS
10
0.0825863
20
2.50408
11
0.0818344
21
2.50639
0
LINE
8
BLACK
6
CONTINUOUS
10
0.0818344
20
2.50639
11
0.0818344
21
2.54052
0
LINE
8
BLACK
6
CONTINUOUS
10
0.0818344
20
2.54052
11
0.0820031
21
2.54103
0
LINE
8
BLACK
6
CONTINUOUS
10
0.0820031
20
2.54103
11
0.0819811
21
2.54158
0
LINE
8
BLACK
6
CONTINUOUS
10
0.0819811
20
2.54158
11
0.0823698
21
2.54216
0
LINE
8
BLACK
6
CONTINUOUS
10
0.0823698
20
2.54216
11
0.0825863
21
2.54283
0
LINE
8
BLACK
6
CONTINUOUS
10
0.0825863
20
2.54283
11
0.083028
21
2.54315
0
LINE
8
BLACK
6
CONTINUOUS
10
0.083028
20
2.54315
11
0.0833308
21
2.5436
0
LINE
8
BLACK
6
CONTINUOUS
10
0.0833308
20
2.5436
11
0.083988
21
2.54385
0
LINE
8
BLACK
6
CONTINUOUS
10
0.083988
20
2.54385
11
0.0845548
21
2.54426
0
LINE
8
BLACK
6
CONTINUOUS
10
0.0845548
20
2.54426
11
0.0851008
21
2.54426
0
LINE
8
BLACK
6
CONTINUOUS
10
0.0851008
20
2.54426
11
0.0856128
21
2.54445
0
LINE
8
BLACK
6
CONTINUOUS
10
0.0856128
20
2.54445
11
0.0862873
21
2.54426
0
LINE
8
BLACK
6
CONTINUOUS
10
0.197885
20
2.54552
11
0.198374
21
2.54555
0
LINE
8
BLACK
6
CONTINUOUS
10
0.198374
20
2.54555
11
0.208123
21
2.54312
0
LINE
8
BLACK
6
CONTINUOUS
10
0.208123
20
2.54312
11
0.208495
21
2.54288
0
LINE
8
BLACK
6
CONTINUOUS
10
0.208495
20
2.54288
11
0.208929
21
2.54282
0
LINE
8
BLACK
6
CONTINUOUS
10
0.208929
20
2.54282
11
0.213803
21
2.54038
0
LINE
8
BLACK
6
CONTINUOUS
10
0.213803
20
2.54038
11
0.214258
21
2.53993
0
LINE
8
BLACK
6
CONTINUOUS
10
0.214258
20
2.53993
11
0.214826
21
2.53964
0
LINE
8
BLACK
6
CONTINUOUS
10
0.214826
20
2.53964
11
0.219701
21
2.53477
0
LINE
8
BLACK
6
CONTINUOUS
10
0.219701
20
2.53477
11
0.220113
21
2.53396
0
LINE
8
BLACK
6
CONTINUOUS
10
0.220113
20
2.53396
11
0.220652
21
2.53323
0
LINE
8
BLACK
6
CONTINUOUS
10
0.220652
20
2.53323
11
0.223089
21
2.52592
0
LINE
8
BLACK
6
CONTINUOUS
10
0.223089
20
2.52592
11
0.223094
21
2.52528
0
LINE
8
BLACK
6
CONTINUOUS
10
0.223094
20
2.52528
11
0.223291
21
2.52467
0
LINE
8
BLACK
6
CONTINUOUS
10
0.223291
20
2.52467
11
0.223291
21
2.51249
0
LINE
8
BLACK
6
CONTINUOUS
10
0.223291
20
2.51249
11
0.223098
21
2.51189
0
LINE
8
BLACK
6
CONTINUOUS
10
0.223098
20
2.51189
11
0.223098
21
2.51127
0
LINE
8
BLACK
6
CONTINUOUS
10
0.223098
20
2.51127
11
0.222732
21
2.51077
0
LINE
8
BLACK
6
CONTINUOUS
10
0.222732
20
2.51077
11
0.222539
21
2.51017
0
LINE
8
BLACK
6
CONTINUOUS
10
0.222539
20
2.51017
11
0.222035
21
2.50981
0
LINE
8
BLACK
6
CONTINUOUS
10
0.222035
20
2.50981
11
0.221668
21
2.5093
0
LINE
8
BLACK
6
CONTINUOUS
10
0.221668
20
2.5093
11
0.221075
21
2.50911
0
LINE
8
BLACK
6
CONTINUOUS
10
0.221075
20
2.50911
11
0.220571
21
2.50874
0
LINE
8
BLACK
6
CONTINUOUS
10
0.220571
20
2.50874
11
0.219947
21
2.50874
0
LINE
8
BLACK
6
CONTINUOUS
10
0.219947
20
2.50874
11
0.219354
21
2.50855
0
LINE
8
BLACK
6
CONTINUOUS
10
0.219354
20
2.50855
11
0.168173
21
2.50855
0
LINE
8
BLACK
6
CONTINUOUS
10
0.168173
20
2.50855
11
0.16758
21
2.50874
0
LINE
8
BLACK
6
CONTINUOUS
10
0.16758
20
2.50874
11
0.166956
21
2.50874
0
LINE
8
BLACK
6
CONTINUOUS
10
0.166956
20
2.50874
11
0.166452
21
2.50911
0
LINE
8
BLACK
6
CONTINUOUS
10
0.166452
20
2.50911
11
0.165859
21
2.5093
0
LINE
8
BLACK
6
CONTINUOUS
10
0.165859
20
2.5093
11
0.165492
21
2.50981
0
LINE
8
BLACK
6
CONTINUOUS
10
0.165492
20
2.50981
11
0.164988
21
2.51017
0
LINE
8
BLACK
6
CONTINUOUS
10
0.164988
20
2.51017
11
0.164795
21
2.51077
0
LINE
8
BLACK
6
CONTINUOUS
10
0.164795
20
2.51077
11
0.164429
21
2.51127
0
LINE
8
BLACK
6
CONTINUOUS
10
0.164429
20
2.51127
11
0.164429
21
2.51189
0
LINE
8
BLACK
6
CONTINUOUS
10
0.164429
20
2.51189
11
0.164236
21
2.51249
0
LINE
8
BLACK
6
CONTINUOUS
10
0.164236
20
2.51249
11
0.164236
21
2.52467
0
LINE
8
BLACK
6
CONTINUOUS
10
0.164236
20
2.52467
11
0.164433
21
2.52528
0
LINE
8
BLACK
6
CONTINUOUS
10
0.164433
20
2.52528
11
0.164438
21
2.52592
0
LINE
8
BLACK
6
CONTINUOUS
10
0.164438
20
2.52592
11
0.166875
21
2.53323
0
LINE
8
BLACK
6
CONTINUOUS
10
0.166875
20
2.53323
11
0.167414
21
2.53396
0
LINE
8
BLACK
6
CONTINUOUS
10
0.167414
20
2.53396
11
0.167826
21
2.53477
0
LINE
8
BLACK
6
CONTINUOUS
10
0.167826
20
2.53477
11
0.172701
21
2.53964
0
LINE
8
BLACK
6
CONTINUOUS
10
0.172701
20
2.53964
11
0.173269
21
2.53993
0
LINE
8
BLACK
6
CONTINUOUS
10
0.173269
20
2.53993
11
0.173724
21
2.54038
0
LINE
8
BLACK
6
CONTINUOUS
10
0.173724
20
2.54038
11
0.178598
21
2.54282
0
LINE
8
BLACK
6
CONTINUOUS
10
0.178598
20
2.54282
11
0.179032
21
2.54288
0
LINE
8
BLACK
6
CONTINUOUS
10
0.179032
20
2.54288
11
0.179404
21
2.54312
0
LINE
8
BLACK
6
CONTINUOUS
10
0.179404
20
2.54312
11
0.189153
21
2.54555
0
LINE
8
BLACK
6
CONTINUOUS
10
0.189153
20
2.54555
11
0.189642
21
2.54552
0
LINE
8
BLACK
6
CONTINUOUS
10
0.189642
20
2.54552
11
0.190108
21
2.54567
0
LINE
8
BLACK
6
CONTINUOUS
10
0.190108
20
2.54567
11
0.197419
21
2.54567
0
LINE
8
BLACK
6
CONTINUOUS
10
0.197419
20
2.54567
11
0.197885
21
2.54552
0
LINE
8
BLACK
6
CONTINUOUS
10
0.190592
20
2.5378
11
0.181733
21
2.53558
0
LINE
8
BLACK
6
CONTINUOUS
10
0.181733
20
2.53558
11
0.177817
21
2.53362
0
LINE
8
BLACK
6
CONTINUOUS
10
0.177817
20
2.53362
11
0.174051
21
2.52986
0
LINE
8
BLACK
6
CONTINUOUS
10
0.174051
20
2.52986
11
0.17211
21
2.52403
0
LINE
8
BLACK
6
CONTINUOUS
10
0.17211
20
2.52403
11
0.17211
21
2.51642
0
LINE
8
BLACK
6
CONTINUOUS
10
0.17211
20
2.51642
11
0.215417
21
2.51642
0
LINE
8
BLACK
6
CONTINUOUS
10
0.215417
20
2.51642
11
0.215417
21
2.52403
0
LINE
8
BLACK
6
CONTINUOUS
10
0.215417
20
2.52403
11
0.213476
21
2.52986
0
LINE
8
BLACK
6
CONTINUOUS
10
0.213476
20
2.52986
11
0.20971
21
2.53362
0
LINE
8
BLACK
6
CONTINUOUS
10
0.20971
20
2.53362
11
0.205794
21
2.53558
0
LINE
8
BLACK
6
CONTINUOUS
10
0.205794
20
2.53558
11
0.196935
21
2.5378
0
LINE
8
BLACK
6
CONTINUOUS
10
0.196935
20
2.5378
11
0.190592
21
2.5378
0
LINE
8
BLACK
6
CONTINUOUS
10
0.200323
20
2.59426
11
0.200811
21
2.5943
0
LINE
8
BLACK
6
CONTINUOUS
10
0.200811
20
2.5943
11
0.21056
21
2.59186
0
LINE
8
BLACK
6
CONTINUOUS
10
0.21056
20
2.59186
11
0.210932
21
2.59163
0
LINE
8
BLACK
6
CONTINUOUS
10
0.210932
20
2.59163
11
0.211366
21
2.59156
0
LINE
8
BLACK
6
CONTINUOUS
10
0.211366
20
2.59156
11
0.21624
21
2.58913
0
LINE
8
BLACK
6
CONTINUOUS
10
0.21624
20
2.58913
11
0.216695
21
2.58868
0
LINE
8
BLACK
6
CONTINUOUS
10
0.216695
20
2.58868
11
0.217264
21
2.58839
0
LINE
8
BLACK
6
CONTINUOUS
10
0.217264
20
2.58839
11
0.219701
21
2.58595
0
LINE
8
BLACK
6
CONTINUOUS
10
0.219701
20
2.58595
11
0.219991
21
2.58538
0
LINE
8
BLACK
6
CONTINUOUS
10
0.219991
20
2.58538
11
0.220438
21
2.58493
0
LINE
8
BLACK
6
CONTINUOUS
10
0.220438
20
2.58493
11
0.222876
21
2.58005
0
LINE
8
BLACK
6
CONTINUOUS
10
0.222876
20
2.58005
11
0.223011
21
2.57916
0
LINE
8
BLACK
6
CONTINUOUS
10
0.223011
20
2.57916
11
0.223291
21
2.57829
0
LINE
8
BLACK
6
CONTINUOUS
10
0.223291
20
2.57829
11
0.223291
21
2.57342
0
LINE
8
BLACK
6
CONTINUOUS
10
0.223291
20
2.57342
11
0.223011
21
2.57255
0
LINE
8
BLACK
6
CONTINUOUS
10
0.223011
20
2.57255
11
0.222876
21
2.57166
0
LINE
8
BLACK
6
CONTINUOUS
10
0.222876
20
2.57166
11
0.220438
21
2.56678
0
LINE
8
BLACK
6
CONTINUOUS
10
0.220438
20
2.56678
11
0.21999
21
2.56633
0
LINE
8
BLACK
6
CONTINUOUS
10
0.21999
20
2.56633
11
0.219701
21
2.56576
0
LINE
8
BLACK
6
CONTINUOUS
10
0.219701
20
2.56576
11
0.217264
21
2.56332
0
LINE
8
BLACK
6
CONTINUOUS
10
0.217264
20
2.56332
11
0.216695
21
2.56303
0
LINE
8
BLACK
6
CONTINUOUS
10
0.216695
20
2.56303
11
0.21624
21
2.56258
0
LINE
8
BLACK
6
CONTINUOUS
10
0.21624
20
2.56258
11
0.211366
21
2.56015
0
LINE
8
BLACK
6
CONTINUOUS
10
0.211366
20
2.56015
11
0.210932
21
2.56008
0
LINE
8
BLACK
6
CONTINUOUS
10
0.210932
20
2.56008
11
0.21056
21
2.55985
0
LINE
8
BLACK
6
CONTINUOUS
10
0.21056
20
2.55985
11
0.200811
21
2.55741
0
LINE
8
BLACK
6
CONTINUOUS
10
0.200811
20
2.55741
11
0.200323
21
2.55745
0
LINE
8
BLACK
6
CONTINUOUS
10
0.200323
20
2.55745
11
0.199857
21
2.55729
0
LINE
8
BLACK
6
CONTINUOUS
10
0.199857
20
2.55729
11
0.187671
21
2.55729
0
LINE
8
BLACK
6
CONTINUOUS
10
0.187671
20
2.55729
11
0.187205
21
2.55745
0
LINE
8
BLACK
6
CONTINUOUS
10
0.187205
20
2.55745
11
0.186716
21
2.55741
0
LINE
8
BLACK
6
CONTINUOUS
10
0.186716
20
2.55741
11
0.176967
21
2.55985
0
LINE
8
BLACK
6
CONTINUOUS
10
0.176967
20
2.55985
11
0.176595
21
2.56008
0
LINE
8
BLACK
6
CONTINUOUS
10
0.176595
20
2.56008
11
0.176161
21
2.56015
0
LINE
8
BLACK
6
CONTINUOUS
10
0.176161
20
2.56015
11
0.171287
21
2.56258
0
LINE
8
BLACK
6
CONTINUOUS
10
0.171287
20
2.56258
11
0.170832
21
2.56303
0
LINE
8
BLACK
6
CONTINUOUS
10
0.170832
20
2.56303
11
0.170264
21
2.56332
0
LINE
8
BLACK
6
CONTINUOUS
10
0.170264
20
2.56332
11
0.167826
21
2.56576
0
LINE
8
BLACK
6
CONTINUOUS
10
0.167826
20
2.56576
11
0.167537
21
2.56633
0
LINE
8
BLACK
6
CONTINUOUS
10
0.167537
20
2.56633
11
0.167089
21
2.56678
0
LINE
8
BLACK
6
CONTINUOUS
10
0.167089
20
2.56678
11
0.164652
21
2.57166
0
LINE
8
BLACK
6
CONTINUOUS
10
0.164652
20
2.57166
11
0.164516
21
2.57255
0
LINE
8
BLACK
6
CONTINUOUS
10
0.164516
20
2.57255
11
0.164236
21
2.57342
0
LINE
8
BLACK
6
CONTINUOUS
10
0.164236
20
2.57342
11
0.164236
21
2.57829
0
LINE
8
BLACK
6
CONTINUOUS
10
0.164236
20
2.57829
11
0.164516
21
2.57916
0
LINE
8
BLACK
6
CONTINUOUS
10
0.164516
20
2.57916
11
0.164652
21
2.58005
0
LINE
8
BLACK
6
CONTINUOUS
10
0.164652
20
2.58005
11
0.167089
21
2.58493
0
LINE
8
BLACK
6
CONTINUOUS
10
0.167089
20
2.58493
11
0.167537
21
2.58538
0
LINE
8
BLACK
6
CONTINUOUS
10
0.167537
20
2.58538
11
0.167826
21
2.58595
0
LINE
8
BLACK
6
CONTINUOUS
10
0.167826
20
2.58595
11
0.170264
21
2.58839
0
LINE
8
BLACK
6
CONTINUOUS
10
0.170264
20
2.58839
11
0.170832
21
2.58868
0
LINE
8
BLACK
6
CONTINUOUS
10
0.170832
20
2.58868
11
0.171287
21
2.58913
0
LINE
8
BLACK
6
CONTINUOUS
10
0.171287
20
2.58913
11
0.176161
21
2.59156
0
LINE
8
BLACK
6
CONTINUOUS
10
0.176161
20
2.59156
11
0.176595
21
2.59163
0
LINE
8
BLACK
6
CONTINUOUS
10
0.176595
20
2.59163
11
0.176967
21
2.59186
0
LINE
8
BLACK
6
CONTINUOUS
10
0.176967
20
2.59186
11
0.186716
21
2.5943
0
LINE
8
BLACK
6
CONTINUOUS
10
0.186716
20
2.5943
11
0.187205
21
2.59426
0
LINE
8
BLACK
6
CONTINUOUS
10
0.187205
20
2.59426
11
0.187671
21
2.59442
0
LINE
8
BLACK
6
CONTINUOUS
10
0.187671
20
2.59442
11
0.199857
21
2.59442
0
LINE
8
BLACK
6
CONTINUOUS
10
0.199857
20
2.59442
11
0.200323
21
2.59426
0
LINE
8
BLACK
6
CONTINUOUS
10
0.188155
20
2.58654
11
0.179296
21
2.58433
0
LINE
8
BLACK
6
CONTINUOUS
10
0.179296
20
2.58433
11
0.175379
21
2.58237
0
LINE
8
BLACK
6
CONTINUOUS
10
0.175379
20
2.58237
11
0.173846
21
2.58083
0
LINE
8
BLACK
6
CONTINUOUS
10
0.173846
20
2.58083
11
0.17211
21
2.57736
0
LINE
8
BLACK
6
CONTINUOUS
10
0.17211
20
2.57736
11
0.17211
21
2.57435
0
LINE
8
BLACK
6
CONTINUOUS
10
0.17211
20
2.57435
11
0.173846
21
2.57088
0
LINE
8
BLACK
6
CONTINUOUS
10
0.173846
20
2.57088
11
0.175379
21
2.56934
0
LINE
8
BLACK
6
CONTINUOUS
10
0.175379
20
2.56934
11
0.179296
21
2.56738
0
LINE
8
BLACK
6
CONTINUOUS
10
0.179296
20
2.56738
11
0.188155
21
2.56517
0
LINE
8
BLACK
6
CONTINUOUS
10
0.188155
20
2.56517
11
0.199372
21
2.56517
0
LINE
8
BLACK
6
CONTINUOUS
10
0.199372
20
2.56517
11
0.208231
21
2.56738
0
LINE
8
BLACK
6
CONTINUOUS
10
0.208231
20
2.56738
11
0.212148
21
2.56934
0
LINE
8
BLACK
6
CONTINUOUS
10
0.212148
20
2.56934
11
0.213681
21
2.57088
0
LINE
8
BLACK
6
CONTINUOUS
10
0.213681
20
2.57088
11
0.215417
21
2.57435
0
LINE
8
BLACK
6
CONTINUOUS
10
0.215417
20
2.57435
11
0.215417
21
2.57736
0
LINE
8
BLACK
6
CONTINUOUS
10
0.215417
20
2.57736
11
0.213681
21
2.58083
0
LINE
8
BLACK
6
CONTINUOUS
10
0.213681
20
2.58083
11
0.212148
21
2.58237
0
LINE
8
BLACK
6
CONTINUOUS
10
0.212148
20
2.58237
11
0.208231
21
2.58433
0
LINE
8
BLACK
6
CONTINUOUS
10
0.208231
20
2.58433
11
0.199372
21
2.58654
0
LINE
8
BLACK
6
CONTINUOUS
10
0.199372
20
2.58654
11
0.188155
21
2.58654
0
LINE
8
BLACK
6
CONTINUOUS
10
0.222539
20
2.64154
11
0.223291
21
2.63922
0
LINE
8
BLACK
6
CONTINUOUS
10
0.223291
20
2.63922
11
0.223291
21
2.60998
0
LINE
8
BLACK
6
CONTINUOUS
10
0.223291
20
2.60998
11
0.222539
21
2.60766
0
LINE
8
BLACK
6
CONTINUOUS
10
0.222539
20
2.60766
11
0.220571
21
2.60623
0
LINE
8
BLACK
6
CONTINUOUS
10
0.220571
20
2.60623
11
0.218138
21
2.60623
0
LINE
8
BLACK
6
CONTINUOUS
10
0.218138
20
2.60623
11
0.216169
21
2.60766
0
LINE
8
BLACK
6
CONTINUOUS
10
0.216169
20
2.60766
11
0.215417
21
2.60998
0
LINE
8
BLACK
6
CONTINUOUS
10
0.215417
20
2.60998
11
0.215417
21
2.62066
0
LINE
8
BLACK
6
CONTINUOUS
10
0.215417
20
2.62066
11
0.180115
21
2.62066
0
LINE
8
BLACK
6
CONTINUOUS
10
0.180115
20
2.62066
11
0.183143
21
2.61763
0
LINE
8
BLACK
6
CONTINUOUS
10
0.183143
20
2.61763
11
0.183433
21
2.61707
0
LINE
8
BLACK
6
CONTINUOUS
10
0.183433
20
2.61707
11
0.18388
21
2.61661
0
LINE
8
BLACK
6
CONTINUOUS
10
0.18388
20
2.61661
11
0.186318
21
2.61174
0
LINE
8
BLACK
6
CONTINUOUS
10
0.186318
20
2.61174
11
0.18668
21
2.60933
0
LINE
8
BLACK
6
CONTINUOUS
10
0.18668
20
2.60933
11
0.185559
21
2.60717
0
LINE
8
BLACK
6
CONTINUOUS
10
0.185559
20
2.60717
11
0.183382
21
2.60608
0
LINE
8
BLACK
6
CONTINUOUS
10
0.183382
20
2.60608
11
0.180982
21
2.60648
0
LINE
8
BLACK
6
CONTINUOUS
10
0.180982
20
2.60648
11
0.179275
21
2.60821
0
LINE
8
BLACK
6
CONTINUOUS
10
0.179275
20
2.60821
11
0.177123
21
2.61252
0
LINE
8
BLACK
6
CONTINUOUS
10
0.177123
20
2.61252
11
0.172976
21
2.61666
0
LINE
8
BLACK
6
CONTINUOUS
10
0.172976
20
2.61666
11
0.165989
21
2.62132
0
LINE
8
BLACK
6
CONTINUOUS
10
0.165989
20
2.62132
11
0.165938
21
2.62139
0
LINE
8
BLACK
6
CONTINUOUS
10
0.165938
20
2.62139
11
0.165859
21
2.62141
0
LINE
8
BLACK
6
CONTINUOUS
10
0.165859
20
2.62141
11
0.165188
21
2.62234
0
LINE
8
BLACK
6
CONTINUOUS
10
0.165188
20
2.62234
11
0.164481
21
2.62323
0
LINE
8
BLACK
6
CONTINUOUS
10
0.164481
20
2.62323
11
0.164477
21
2.62332
0
LINE
8
BLACK
6
CONTINUOUS
10
0.164477
20
2.62332
11
0.164429
21
2.62338
0
LINE
8
BLACK
6
CONTINUOUS
10
0.164429
20
2.62338
11
0.164429
21
2.62452
0
LINE
8
BLACK
6
CONTINUOUS
10
0.164429
20
2.62452
11
0.164383
21
2.62566
0
LINE
8
BLACK
6
CONTINUOUS
10
0.164383
20
2.62566
11
0.164429
21
2.62573
0
LINE
8
BLACK
6
CONTINUOUS
10
0.164429
20
2.62573
11
0.164429
21
2.62582
0
LINE
8
BLACK
6
CONTINUOUS
10
0.164429
20
2.62582
11
0.1651
21
2.62674
0
LINE
8
BLACK
6
CONTINUOUS
10
0.1651
20
2.62674
11
0.165732
21
2.62769
0
LINE
8
BLACK
6
CONTINUOUS
10
0.165732
20
2.62769
11
0.16581
21
2.62772
0
LINE
8
BLACK
6
CONTINUOUS
10
0.16581
20
2.62772
11
0.165859
21
2.62778
0
LINE
8
BLACK
6
CONTINUOUS
10
0.165859
20
2.62778
11
0.166944
21
2.62814
0
LINE
8
BLACK
6
CONTINUOUS
10
0.166944
20
2.62814
11
0.168014
21
2.62853
0
LINE
8
BLACK
6
CONTINUOUS
10
0.168014
20
2.62853
11
0.168094
21
2.62851
0
LINE
8
BLACK
6
CONTINUOUS
10
0.168094
20
2.62851
11
0.168173
21
2.62854
0
LINE
8
BLACK
6
CONTINUOUS
10
0.168173
20
2.62854
11
0.215417
21
2.62854
0
LINE
8
BLACK
6
CONTINUOUS
10
0.215417
20
2.62854
11
0.215417
21
2.63922
0
LINE
8
BLACK
6
CONTINUOUS
10
0.215417
20
2.63922
11
0.216169
21
2.64154
0
LINE
8
BLACK
6
CONTINUOUS
10
0.216169
20
2.64154
11
0.218138
21
2.64297
0
LINE
8
BLACK
6
CONTINUOUS
10
0.218138
20
2.64297
11
0.220571
21
2.64297
0
LINE
8
BLACK
6
CONTINUOUS
10
0.220571
20
2.64297
11
0.222539
21
2.64154
0
LINE
8
BLACK
6
CONTINUOUS
10
0.222522
20
2.6903
11
0.223291
21
2.688
0
LINE
8
BLACK
6
CONTINUOUS
10
0.223291
20
2.688
11
0.222557
21
2.68568
0
LINE
8
BLACK
6
CONTINUOUS
10
0.222557
20
2.68568
11
0.220599
21
2.68423
0
LINE
8
BLACK
6
CONTINUOUS
10
0.220599
20
2.68423
11
0.208668
21
2.68025
0
LINE
8
BLACK
6
CONTINUOUS
10
0.208668
20
2.68025
11
0.208668
21
2.66156
0
LINE
8
BLACK
6
CONTINUOUS
10
0.208668
20
2.66156
11
0.220599
21
2.65758
0
LINE
8
BLACK
6
CONTINUOUS
10
0.220599
20
2.65758
11
0.222557
21
2.65614
0
LINE
8
BLACK
6
CONTINUOUS
10
0.222557
20
2.65614
11
0.223291
21
2.65382
0
LINE
8
BLACK
6
CONTINUOUS
10
0.223291
20
2.65382
11
0.222522
21
2.65151
0
LINE
8
BLACK
6
CONTINUOUS
10
0.222522
20
2.65151
11
0.220542
21
2.65009
0
LINE
8
BLACK
6
CONTINUOUS
10
0.220542
20
2.65009
11
0.218109
21
2.65011
0
LINE
8
BLACK
6
CONTINUOUS
10
0.218109
20
2.65011
11
0.166928
21
2.66717
0
LINE
8
BLACK
6
CONTINUOUS
10
0.166928
20
2.66717
11
0.165972
21
2.66788
0
LINE
8
BLACK
6
CONTINUOUS
10
0.165972
20
2.66788
11
0.165006
21
2.66857
0
LINE
8
BLACK
6
CONTINUOUS
10
0.165006
20
2.66857
11
0.164996
21
2.6686
0
LINE
8
BLACK
6
CONTINUOUS
10
0.164996
20
2.6686
11
0.16497
21
2.66862
0
LINE
8
BLACK
6
CONTINUOUS
10
0.16497
20
2.66862
11
0.164612
21
2.66975
0
LINE
8
BLACK
6
CONTINUOUS
10
0.164612
20
2.66975
11
0.164236
21
2.67088
0
LINE
8
BLACK
6
CONTINUOUS
10
0.164236
20
2.67088
11
0.164246
21
2.67091
0
LINE
8
BLACK
6
CONTINUOUS
10
0.164246
20
2.67091
11
0.164236
21
2.67094
0
LINE
8
BLACK
6
CONTINUOUS
10
0.164236
20
2.67094
11
0.164612
21
2.67206
0
LINE
8
BLACK
6
CONTINUOUS
10
0.164612
20
2.67206
11
0.16497
21
2.6732
0
LINE
8
BLACK
6
CONTINUOUS
10
0.16497
20
2.6732
11
0.164996
21
2.67321
0
LINE
8
BLACK
6
CONTINUOUS
10
0.164996
20
2.67321
11
0.165006
21
2.67324
0
LINE
8
BLACK
6
CONTINUOUS
10
0.165006
20
2.67324
11
0.165972
21
2.67393
0
LINE
8
BLACK
6
CONTINUOUS
10
0.165972
20
2.67393
11
0.166928
21
2.67464
0
LINE
8
BLACK
6
CONTINUOUS
10
0.166928
20
2.67464
11
0.218109
21
2.6917
0
LINE
8
BLACK
6
CONTINUOUS
10
0.218109
20
2.6917
11
0.220542
21
2.69172
0
LINE
8
BLACK
6
CONTINUOUS
10
0.220542
20
2.69172
11
0.222522
21
2.6903
0
LINE
8
BLACK
6
CONTINUOUS
10
0.180623
20
2.67091
11
0.200794
21
2.66418
0
LINE
8
BLACK
6
CONTINUOUS
10
0.200794
20
2.66418
11
0.200794
21
2.67763
0
LINE
8
BLACK
6
CONTINUOUS
10
0.200794
20
2.67763
11
0.180623
21
2.67091
  0
ENDSEC
  0
EOF
