  0
SECTION
  2
HEADER
  9
$ANGBASE
  50
0.0
  9
$ANGDIR
  70
1
  9
$MEASUREMENT
  70
0
  0
ENDSEC
  0
SECTION
  2
TABLES
  0
TABLE
  2
LTYPE
  70
4
  0
LTYPE
  5
40F
  2
CONTINUOUS
  70
0
  3
Solid line
  72
65
  73
0
  40
0.0
  0
LTYPE
  5
410
  2
DASHDOT
 70
0
  3
Dash Dot ____ _ ____ _
 72
65
 73
4
 40
2.0
 49
1.25
 49
-0.25
 49
0.25
 49
-0.25
  0
LTYPE
  5
411
  2
DASHED
 70
0
  3
Dashed __ __ __ __ __
 72
65
 73
2
 40
0.75
 49
0.5
 49
-0.25
  0
LTYPE
  5
43B
  2
DOTTED
 70
0
  3
Dotted .  .  .  .
 72
65
 73
2
 40
0.2
 49
0.0
 49
-0.2
  0
ENDTAB
  0
TABLE
  2
STYLE
  70
4
  0
STYLE
  2
KICAD
  70
0
  40
0
  41
1
  42
1
  50
0
  71
0
  3
isocp.shx
  0
STYLE
  2
KICADB
  70
0
  40
0
  41
1
  42
1
  50
0
  71
0
  3
isocp.shx
  0
STYLE
  2
KICADI
  70
0
  40
0
  41
1
  42
1
  50
15
  71
0
  3
isocp.shx
  0
STYLE
  2
KICADBI
  70
0
  40
0
  41
1
  42
1
  50
15
  71
0
  3
isocp.shx
  0
ENDTAB
  0
TABLE
  2
LAYER
  70
1
  0
LAYER
  2
BLACK
  70
0
  62
7
  6
CONTINUOUS
  0
ENDTAB
  0
ENDSEC
  0
SECTION
  2
ENTITIES
0
LINE
8
BLACK
6
CONTINUOUS
10
3.33332
20
0.0347371
11
3.33303
21
0.0354331
0
LINE
8
BLACK
6
CONTINUOUS
10
3.33303
20
0.0354331
11
3.33303
21
0.358268
0
LINE
8
BLACK
6
CONTINUOUS
10
3.33303
20
0.358268
11
3.33332
21
0.358964
0
LINE
8
BLACK
6
CONTINUOUS
10
3.33332
20
0.358964
11
3.33402
21
0.359252
0
LINE
8
BLACK
6
CONTINUOUS
10
3.33402
20
0.359252
11
3.58598
21
0.359252
0
LINE
8
BLACK
6
CONTINUOUS
10
3.58598
20
0.359252
11
3.58668
21
0.358964
0
LINE
8
BLACK
6
CONTINUOUS
10
3.58668
20
0.358964
11
3.58697
21
0.358268
0
LINE
8
BLACK
6
CONTINUOUS
10
3.58697
20
0.358268
11
3.58697
21
0.0354331
0
LINE
8
BLACK
6
CONTINUOUS
10
3.58697
20
0.0354331
11
3.58668
21
0.0347371
0
LINE
8
BLACK
6
CONTINUOUS
10
3.58668
20
0.0347371
11
3.58598
21
0.0344488
0
LINE
8
BLACK
6
CONTINUOUS
10
3.58598
20
0.0344488
11
3.33402
21
0.0344488
0
LINE
8
BLACK
6
CONTINUOUS
10
3.33402
20
0.0344488
11
3.33332
21
0.0347371
0
LINE
8
BLACK
6
CONTINUOUS
10
3.335
20
0.357283
11
3.335
21
0.0364173
0
LINE
8
BLACK
6
CONTINUOUS
10
3.335
20
0.0364173
11
3.585
21
0.0364173
0
LINE
8
BLACK
6
CONTINUOUS
10
3.585
20
0.0364173
11
3.585
21
0.357283
0
LINE
8
BLACK
6
CONTINUOUS
10
3.585
20
0.357283
11
3.335
21
0.357283
0
LINE
8
BLACK
6
CONTINUOUS
10
0.0133198
20
0.0347371
11
0.0130315
21
0.0354331
0
LINE
8
BLACK
6
CONTINUOUS
10
0.0130315
20
0.0354331
11
0.0130315
21
0.358268
0
LINE
8
BLACK
6
CONTINUOUS
10
0.0130315
20
0.358268
11
0.0133198
21
0.358964
0
LINE
8
BLACK
6
CONTINUOUS
10
0.0133198
20
0.358964
11
0.0140157
21
0.359252
0
LINE
8
BLACK
6
CONTINUOUS
10
0.0140157
20
0.359252
11
0.265984
21
0.359252
0
LINE
8
BLACK
6
CONTINUOUS
10
0.265984
20
0.359252
11
0.26668
21
0.358964
0
LINE
8
BLACK
6
CONTINUOUS
10
0.26668
20
0.358964
11
0.266969
21
0.358268
0
LINE
8
BLACK
6
CONTINUOUS
10
0.266969
20
0.358268
11
0.266969
21
0.0354331
0
LINE
8
BLACK
6
CONTINUOUS
10
0.266969
20
0.0354331
11
0.26668
21
0.0347371
0
LINE
8
BLACK
6
CONTINUOUS
10
0.26668
20
0.0347371
11
0.265984
21
0.0344488
0
LINE
8
BLACK
6
CONTINUOUS
10
0.265984
20
0.0344488
11
0.0140157
21
0.0344488
0
LINE
8
BLACK
6
CONTINUOUS
10
0.0140157
20
0.0344488
11
0.0133198
21
0.0347371
0
LINE
8
BLACK
6
CONTINUOUS
10
0.015
20
0.357283
11
0.015
21
0.0364173
0
LINE
8
BLACK
6
CONTINUOUS
10
0.015
20
0.0364173
11
0.265
21
0.0364173
0
LINE
8
BLACK
6
CONTINUOUS
10
0.265
20
0.0364173
11
0.265
21
0.357283
0
LINE
8
BLACK
6
CONTINUOUS
10
0.265
20
0.357283
11
0.015
21
0.357283
0
LINE
8
BLACK
6
CONTINUOUS
10
0.0754064
20
0.387139
11
0.0751181
21
0.387835
0
LINE
8
BLACK
6
CONTINUOUS
10
0.0751181
20
0.387835
11
0.0751181
21
0.742165
0
LINE
8
BLACK
6
CONTINUOUS
10
0.0751181
20
0.742165
11
0.0754064
21
0.742861
0
LINE
8
BLACK
6
CONTINUOUS
10
0.0754064
20
0.742861
11
0.0761024
21
0.74315
0
LINE
8
BLACK
6
CONTINUOUS
10
0.0761024
20
0.74315
11
0.213898
21
0.74315
0
LINE
8
BLACK
6
CONTINUOUS
10
0.213898
20
0.74315
11
0.214594
21
0.742861
0
LINE
8
BLACK
6
CONTINUOUS
10
0.214594
20
0.742861
11
0.214882
21
0.742165
0
LINE
8
BLACK
6
CONTINUOUS
10
0.214882
20
0.742165
11
0.214882
21
0.387835
0
LINE
8
BLACK
6
CONTINUOUS
10
0.214882
20
0.387835
11
0.214594
21
0.387139
0
LINE
8
BLACK
6
CONTINUOUS
10
0.214594
20
0.387139
11
0.213898
21
0.38685
0
LINE
8
BLACK
6
CONTINUOUS
10
0.213898
20
0.38685
11
0.0761024
21
0.38685
0
LINE
8
BLACK
6
CONTINUOUS
10
0.0761024
20
0.38685
11
0.0754064
21
0.387139
0
LINE
8
BLACK
6
CONTINUOUS
10
0.0770866
20
0.741181
11
0.0770866
21
0.388819
0
LINE
8
BLACK
6
CONTINUOUS
10
0.0770866
20
0.388819
11
0.212913
21
0.388819
0
LINE
8
BLACK
6
CONTINUOUS
10
0.212913
20
0.388819
11
0.212913
21
0.741181
0
LINE
8
BLACK
6
CONTINUOUS
10
0.212913
20
0.741181
11
0.0770866
21
0.741181
0
LINE
8
BLACK
6
CONTINUOUS
10
3.36541
20
0.392139
11
3.36512
21
0.392835
0
LINE
8
BLACK
6
CONTINUOUS
10
3.36512
20
0.392835
11
3.36512
21
0.747165
0
LINE
8
BLACK
6
CONTINUOUS
10
3.36512
20
0.747165
11
3.36541
21
0.747861
0
LINE
8
BLACK
6
CONTINUOUS
10
3.36541
20
0.747861
11
3.3661
21
0.74815
0
LINE
8
BLACK
6
CONTINUOUS
10
3.3661
20
0.74815
11
3.5039
21
0.74815
0
LINE
8
BLACK
6
CONTINUOUS
10
3.5039
20
0.74815
11
3.50459
21
0.747861
0
LINE
8
BLACK
6
CONTINUOUS
10
3.50459
20
0.747861
11
3.50488
21
0.747165
0
LINE
8
BLACK
6
CONTINUOUS
10
3.50488
20
0.747165
11
3.50488
21
0.392835
0
LINE
8
BLACK
6
CONTINUOUS
10
3.50488
20
0.392835
11
3.50459
21
0.392139
0
LINE
8
BLACK
6
CONTINUOUS
10
3.50459
20
0.392139
11
3.5039
21
0.39185
0
LINE
8
BLACK
6
CONTINUOUS
10
3.5039
20
0.39185
11
3.3661
21
0.39185
0
LINE
8
BLACK
6
CONTINUOUS
10
3.3661
20
0.39185
11
3.36541
21
0.392139
0
LINE
8
BLACK
6
CONTINUOUS
10
3.36709
20
0.746181
11
3.36709
21
0.393819
0
LINE
8
BLACK
6
CONTINUOUS
10
3.36709
20
0.393819
11
3.50291
21
0.393819
0
LINE
8
BLACK
6
CONTINUOUS
10
3.50291
20
0.393819
11
3.50291
21
0.746181
0
LINE
8
BLACK
6
CONTINUOUS
10
3.50291
20
0.746181
11
3.36709
21
0.746181
0
LINE
8
BLACK
6
CONTINUOUS
10
0.0614694
20
0.786902
11
0.0611811
21
0.787598
0
LINE
8
BLACK
6
CONTINUOUS
10
0.0611811
20
0.787598
11
0.0611811
21
0.862402
0
LINE
8
BLACK
6
CONTINUOUS
10
0.0611811
20
0.862402
11
0.0614694
21
0.863098
0
LINE
8
BLACK
6
CONTINUOUS
10
0.0614694
20
0.863098
11
0.0621654
21
0.863386
0
LINE
8
BLACK
6
CONTINUOUS
10
0.0621654
20
0.863386
11
0.207835
21
0.863386
0
LINE
8
BLACK
6
CONTINUOUS
10
0.207835
20
0.863386
11
0.208531
21
0.863098
0
LINE
8
BLACK
6
CONTINUOUS
10
0.208531
20
0.863098
11
0.208819
21
0.862402
0
LINE
8
BLACK
6
CONTINUOUS
10
0.208819
20
0.862402
11
0.208819
21
0.787598
0
LINE
8
BLACK
6
CONTINUOUS
10
0.208819
20
0.787598
11
0.208531
21
0.786902
0
LINE
8
BLACK
6
CONTINUOUS
10
0.208531
20
0.786902
11
0.207835
21
0.786614
0
LINE
8
BLACK
6
CONTINUOUS
10
0.207835
20
0.786614
11
0.0621654
21
0.786614
0
LINE
8
BLACK
6
CONTINUOUS
10
0.0621654
20
0.786614
11
0.0614694
21
0.786902
0
LINE
8
BLACK
6
CONTINUOUS
10
0.0631496
20
0.861417
11
0.0631496
21
0.788583
0
LINE
8
BLACK
6
CONTINUOUS
10
0.0631496
20
0.788583
11
0.20685
21
0.788583
0
LINE
8
BLACK
6
CONTINUOUS
10
0.20685
20
0.788583
11
0.20685
21
0.861417
0
LINE
8
BLACK
6
CONTINUOUS
10
0.20685
20
0.861417
11
0.0631496
21
0.861417
0
LINE
8
BLACK
6
CONTINUOUS
10
3.37647
20
0.846902
11
3.37618
21
0.847598
0
LINE
8
BLACK
6
CONTINUOUS
10
3.37618
20
0.847598
11
3.37618
21
0.922402
0
LINE
8
BLACK
6
CONTINUOUS
10
3.37618
20
0.922402
11
3.37647
21
0.923098
0
LINE
8
BLACK
6
CONTINUOUS
10
3.37647
20
0.923098
11
3.37717
21
0.923386
0
LINE
8
BLACK
6
CONTINUOUS
10
3.37717
20
0.923386
11
3.52283
21
0.923386
0
LINE
8
BLACK
6
CONTINUOUS
10
3.52283
20
0.923386
11
3.52353
21
0.923098
0
LINE
8
BLACK
6
CONTINUOUS
10
3.52353
20
0.923098
11
3.52382
21
0.922402
0
LINE
8
BLACK
6
CONTINUOUS
10
3.52382
20
0.922402
11
3.52382
21
0.847598
0
LINE
8
BLACK
6
CONTINUOUS
10
3.52382
20
0.847598
11
3.52353
21
0.846902
0
LINE
8
BLACK
6
CONTINUOUS
10
3.52353
20
0.846902
11
3.52283
21
0.846614
0
LINE
8
BLACK
6
CONTINUOUS
10
3.52283
20
0.846614
11
3.37717
21
0.846614
0
LINE
8
BLACK
6
CONTINUOUS
10
3.37717
20
0.846614
11
3.37647
21
0.846902
0
LINE
8
BLACK
6
CONTINUOUS
10
3.37815
20
0.921417
11
3.37815
21
0.848583
0
LINE
8
BLACK
6
CONTINUOUS
10
3.37815
20
0.848583
11
3.52185
21
0.848583
0
LINE
8
BLACK
6
CONTINUOUS
10
3.52185
20
0.848583
11
3.52185
21
0.921417
0
LINE
8
BLACK
6
CONTINUOUS
10
3.52185
20
0.921417
11
3.37815
21
0.921417
  0
ENDSEC
  0
EOF
