  0
SECTION
  2
HEADER
  9
$ANGBASE
  50
0.0
  9
$ANGDIR
  70
1
  9
$MEASUREMENT
  70
0
  0
ENDSEC
  0
SECTION
  2
TABLES
  0
TABLE
  2
LTYPE
  70
4
  0
LTYPE
  5
40F
  2
CONTINUOUS
  70
0
  3
Solid line
  72
65
  73
0
  40
0.0
  0
LTYPE
  5
410
  2
DASHDOT
 70
0
  3
Dash Dot ____ _ ____ _
 72
65
 73
4
 40
2.0
 49
1.25
 49
-0.25
 49
0.25
 49
-0.25
  0
LTYPE
  5
411
  2
DASHED
 70
0
  3
Dashed __ __ __ __ __
 72
65
 73
2
 40
0.75
 49
0.5
 49
-0.25
  0
LTYPE
  5
43B
  2
DOTTED
 70
0
  3
Dotted .  .  .  .
 72
65
 73
2
 40
0.2
 49
0.0
 49
-0.2
  0
ENDTAB
  0
TABLE
  2
STYLE
  70
4
  0
STYLE
  2
KICAD
  70
0
  40
0
  41
1
  42
1
  50
0
  71
0
  3
isocp.shx
  0
STYLE
  2
KICADB
  70
0
  40
0
  41
1
  42
1
  50
0
  71
0
  3
isocp.shx
  0
STYLE
  2
KICADI
  70
0
  40
0
  41
1
  42
1
  50
15
  71
0
  3
isocp.shx
  0
STYLE
  2
KICADBI
  70
0
  40
0
  41
1
  42
1
  50
15
  71
0
  3
isocp.shx
  0
ENDTAB
  0
TABLE
  2
LAYER
  70
1
  0
LAYER
  2
BLACK
  70
0
  62
7
  6
CONTINUOUS
  0
ENDTAB
  0
ENDSEC
  0
SECTION
  2
ENTITIES
0
LINE
8
BLACK
6
CONTINUOUS
10
3.56022
20
0.093739
11
3.56342
21
0.0916054
0
LINE
8
BLACK
6
CONTINUOUS
10
3.56342
20
0.0916054
11
3.56555
21
0.0884122
0
LINE
8
BLACK
6
CONTINUOUS
10
3.56555
20
0.0884122
11
3.5663
21
0.0846457
0
LINE
8
BLACK
6
CONTINUOUS
10
3.5663
20
0.0846457
11
3.5663
21
0.0649606
0
LINE
8
BLACK
6
CONTINUOUS
10
3.5663
20
0.0649606
11
3.56555
21
0.0611941
0
LINE
8
BLACK
6
CONTINUOUS
10
3.56555
20
0.0611941
11
3.56342
21
0.0580009
0
LINE
8
BLACK
6
CONTINUOUS
10
3.56342
20
0.0580009
11
3.56022
21
0.0558673
0
LINE
8
BLACK
6
CONTINUOUS
10
3.56022
20
0.0558673
11
3.55646
21
0.0551181
0
LINE
8
BLACK
6
CONTINUOUS
10
3.55646
20
0.0551181
11
3.46984
21
0.0551181
0
LINE
8
BLACK
6
CONTINUOUS
10
3.46984
20
0.0551181
11
3.46608
21
0.0558673
0
LINE
8
BLACK
6
CONTINUOUS
10
3.46608
20
0.0558673
11
3.46288
21
0.0580009
0
LINE
8
BLACK
6
CONTINUOUS
10
3.46288
20
0.0580009
11
3.46075
21
0.0611941
0
LINE
8
BLACK
6
CONTINUOUS
10
3.46075
20
0.0611941
11
3.46
21
0.0649606
0
LINE
8
BLACK
6
CONTINUOUS
10
3.46
20
0.0649606
11
3.46
21
0.0846457
0
LINE
8
BLACK
6
CONTINUOUS
10
3.46
20
0.0846457
11
3.46075
21
0.0884122
0
LINE
8
BLACK
6
CONTINUOUS
10
3.46075
20
0.0884122
11
3.46288
21
0.0916054
0
LINE
8
BLACK
6
CONTINUOUS
10
3.46288
20
0.0916054
11
3.46608
21
0.093739
0
LINE
8
BLACK
6
CONTINUOUS
10
3.46608
20
0.093739
11
3.46984
21
0.0944882
0
LINE
8
BLACK
6
CONTINUOUS
10
3.46984
20
0.0944882
11
3.55646
21
0.0944882
0
LINE
8
BLACK
6
CONTINUOUS
10
3.55646
20
0.0944882
11
3.56022
21
0.093739
0
LINE
8
BLACK
6
CONTINUOUS
10
0.133924
20
0.093739
11
0.137117
21
0.0916054
0
LINE
8
BLACK
6
CONTINUOUS
10
0.137117
20
0.0916054
11
0.139251
21
0.0884122
0
LINE
8
BLACK
6
CONTINUOUS
10
0.139251
20
0.0884122
11
0.14
21
0.0846457
0
LINE
8
BLACK
6
CONTINUOUS
10
0.14
20
0.0846457
11
0.14
21
0.0649606
0
LINE
8
BLACK
6
CONTINUOUS
10
0.14
20
0.0649606
11
0.139251
21
0.0611941
0
LINE
8
BLACK
6
CONTINUOUS
10
0.139251
20
0.0611941
11
0.137117
21
0.0580009
0
LINE
8
BLACK
6
CONTINUOUS
10
0.137117
20
0.0580009
11
0.133924
21
0.0558673
0
LINE
8
BLACK
6
CONTINUOUS
10
0.133924
20
0.0558673
11
0.130157
21
0.0551181
0
LINE
8
BLACK
6
CONTINUOUS
10
0.130157
20
0.0551181
11
0.0435433
21
0.0551181
0
LINE
8
BLACK
6
CONTINUOUS
10
0.0435433
20
0.0551181
11
0.0397767
21
0.0558673
0
LINE
8
BLACK
6
CONTINUOUS
10
0.0397767
20
0.0558673
11
0.0365836
21
0.0580009
0
LINE
8
BLACK
6
CONTINUOUS
10
0.0365836
20
0.0580009
11
0.03445
21
0.0611941
0
LINE
8
BLACK
6
CONTINUOUS
10
0.03445
20
0.0611941
11
0.0337008
21
0.0649606
0
LINE
8
BLACK
6
CONTINUOUS
10
0.0337008
20
0.0649606
11
0.0337008
21
0.0846457
0
LINE
8
BLACK
6
CONTINUOUS
10
0.0337008
20
0.0846457
11
0.03445
21
0.0884122
0
LINE
8
BLACK
6
CONTINUOUS
10
0.03445
20
0.0884122
11
0.0365836
21
0.0916054
0
LINE
8
BLACK
6
CONTINUOUS
10
0.0365836
20
0.0916054
11
0.0397767
21
0.093739
0
LINE
8
BLACK
6
CONTINUOUS
10
0.0397767
20
0.093739
11
0.0435433
21
0.0944882
0
LINE
8
BLACK
6
CONTINUOUS
10
0.0435433
20
0.0944882
11
0.130157
21
0.0944882
0
LINE
8
BLACK
6
CONTINUOUS
10
0.130157
20
0.0944882
11
0.133924
21
0.093739
0
LINE
8
BLACK
6
CONTINUOUS
10
0.242654
20
0.158999
11
0.24457
21
0.157719
0
LINE
8
BLACK
6
CONTINUOUS
10
0.24457
20
0.157719
11
0.24585
21
0.155803
0
LINE
8
BLACK
6
CONTINUOUS
10
0.24585
20
0.155803
11
0.246299
21
0.153543
0
LINE
8
BLACK
6
CONTINUOUS
10
0.246299
20
0.153543
11
0.246299
21
0.141732
0
LINE
8
BLACK
6
CONTINUOUS
10
0.246299
20
0.141732
11
0.24585
21
0.139472
0
LINE
8
BLACK
6
CONTINUOUS
10
0.24585
20
0.139472
11
0.24457
21
0.137556
0
LINE
8
BLACK
6
CONTINUOUS
10
0.24457
20
0.137556
11
0.242654
21
0.136276
0
LINE
8
BLACK
6
CONTINUOUS
10
0.242654
20
0.136276
11
0.240394
21
0.135827
0
LINE
8
BLACK
6
CONTINUOUS
10
0.240394
20
0.135827
11
0.185276
21
0.135827
0
LINE
8
BLACK
6
CONTINUOUS
10
0.185276
20
0.135827
11
0.183016
21
0.136276
0
LINE
8
BLACK
6
CONTINUOUS
10
0.183016
20
0.136276
11
0.1811
21
0.137556
0
LINE
8
BLACK
6
CONTINUOUS
10
0.1811
20
0.137556
11
0.17982
21
0.139472
0
LINE
8
BLACK
6
CONTINUOUS
10
0.17982
20
0.139472
11
0.17937
21
0.141732
0
LINE
8
BLACK
6
CONTINUOUS
10
0.17937
20
0.141732
11
0.17937
21
0.153543
0
LINE
8
BLACK
6
CONTINUOUS
10
0.17937
20
0.153543
11
0.17982
21
0.155803
0
LINE
8
BLACK
6
CONTINUOUS
10
0.17982
20
0.155803
11
0.1811
21
0.157719
0
LINE
8
BLACK
6
CONTINUOUS
10
0.1811
20
0.157719
11
0.183016
21
0.158999
0
LINE
8
BLACK
6
CONTINUOUS
10
0.183016
20
0.158999
11
0.185276
21
0.159449
0
LINE
8
BLACK
6
CONTINUOUS
10
0.185276
20
0.159449
11
0.240394
21
0.159449
0
LINE
8
BLACK
6
CONTINUOUS
10
0.240394
20
0.159449
11
0.242654
21
0.158999
0
LINE
8
BLACK
6
CONTINUOUS
10
3.41698
20
0.158999
11
3.4189
21
0.157719
0
LINE
8
BLACK
6
CONTINUOUS
10
3.4189
20
0.157719
11
3.42018
21
0.155803
0
LINE
8
BLACK
6
CONTINUOUS
10
3.42018
20
0.155803
11
3.42063
21
0.153543
0
LINE
8
BLACK
6
CONTINUOUS
10
3.42063
20
0.153543
11
3.42063
21
0.141732
0
LINE
8
BLACK
6
CONTINUOUS
10
3.42063
20
0.141732
11
3.42018
21
0.139472
0
LINE
8
BLACK
6
CONTINUOUS
10
3.42018
20
0.139472
11
3.4189
21
0.137556
0
LINE
8
BLACK
6
CONTINUOUS
10
3.4189
20
0.137556
11
3.41698
21
0.136276
0
LINE
8
BLACK
6
CONTINUOUS
10
3.41698
20
0.136276
11
3.41472
21
0.135827
0
LINE
8
BLACK
6
CONTINUOUS
10
3.41472
20
0.135827
11
3.35961
21
0.135827
0
LINE
8
BLACK
6
CONTINUOUS
10
3.35961
20
0.135827
11
3.35735
21
0.136276
0
LINE
8
BLACK
6
CONTINUOUS
10
3.35735
20
0.136276
11
3.35543
21
0.137556
0
LINE
8
BLACK
6
CONTINUOUS
10
3.35543
20
0.137556
11
3.35415
21
0.139472
0
LINE
8
BLACK
6
CONTINUOUS
10
3.35415
20
0.139472
11
3.3537
21
0.141732
0
LINE
8
BLACK
6
CONTINUOUS
10
3.3537
20
0.141732
11
3.3537
21
0.153543
0
LINE
8
BLACK
6
CONTINUOUS
10
3.3537
20
0.153543
11
3.35415
21
0.155803
0
LINE
8
BLACK
6
CONTINUOUS
10
3.35415
20
0.155803
11
3.35543
21
0.157719
0
LINE
8
BLACK
6
CONTINUOUS
10
3.35543
20
0.157719
11
3.35735
21
0.158999
0
LINE
8
BLACK
6
CONTINUOUS
10
3.35735
20
0.158999
11
3.35961
21
0.159449
0
LINE
8
BLACK
6
CONTINUOUS
10
3.35961
20
0.159449
11
3.41472
21
0.159449
0
LINE
8
BLACK
6
CONTINUOUS
10
3.41472
20
0.159449
11
3.41698
21
0.158999
0
LINE
8
BLACK
6
CONTINUOUS
10
0.242654
20
0.208212
11
0.24457
21
0.206932
0
LINE
8
BLACK
6
CONTINUOUS
10
0.24457
20
0.206932
11
0.24585
21
0.205016
0
LINE
8
BLACK
6
CONTINUOUS
10
0.24585
20
0.205016
11
0.246299
21
0.202756
0
LINE
8
BLACK
6
CONTINUOUS
10
0.246299
20
0.202756
11
0.246299
21
0.190945
0
LINE
8
BLACK
6
CONTINUOUS
10
0.246299
20
0.190945
11
0.24585
21
0.188685
0
LINE
8
BLACK
6
CONTINUOUS
10
0.24585
20
0.188685
11
0.24457
21
0.186769
0
LINE
8
BLACK
6
CONTINUOUS
10
0.24457
20
0.186769
11
0.242654
21
0.185489
0
LINE
8
BLACK
6
CONTINUOUS
10
0.242654
20
0.185489
11
0.240394
21
0.185039
0
LINE
8
BLACK
6
CONTINUOUS
10
0.240394
20
0.185039
11
0.185276
21
0.185039
0
LINE
8
BLACK
6
CONTINUOUS
10
0.185276
20
0.185039
11
0.183016
21
0.185489
0
LINE
8
BLACK
6
CONTINUOUS
10
0.183016
20
0.185489
11
0.1811
21
0.186769
0
LINE
8
BLACK
6
CONTINUOUS
10
0.1811
20
0.186769
11
0.17982
21
0.188685
0
LINE
8
BLACK
6
CONTINUOUS
10
0.17982
20
0.188685
11
0.17937
21
0.190945
0
LINE
8
BLACK
6
CONTINUOUS
10
0.17937
20
0.190945
11
0.17937
21
0.202756
0
LINE
8
BLACK
6
CONTINUOUS
10
0.17937
20
0.202756
11
0.17982
21
0.205016
0
LINE
8
BLACK
6
CONTINUOUS
10
0.17982
20
0.205016
11
0.1811
21
0.206932
0
LINE
8
BLACK
6
CONTINUOUS
10
0.1811
20
0.206932
11
0.183016
21
0.208212
0
LINE
8
BLACK
6
CONTINUOUS
10
0.183016
20
0.208212
11
0.185276
21
0.208661
0
LINE
8
BLACK
6
CONTINUOUS
10
0.185276
20
0.208661
11
0.240394
21
0.208661
0
LINE
8
BLACK
6
CONTINUOUS
10
0.240394
20
0.208661
11
0.242654
21
0.208212
0
LINE
8
BLACK
6
CONTINUOUS
10
3.41698
20
0.208212
11
3.4189
21
0.206932
0
LINE
8
BLACK
6
CONTINUOUS
10
3.4189
20
0.206932
11
3.42018
21
0.205016
0
LINE
8
BLACK
6
CONTINUOUS
10
3.42018
20
0.205016
11
3.42063
21
0.202756
0
LINE
8
BLACK
6
CONTINUOUS
10
3.42063
20
0.202756
11
3.42063
21
0.190945
0
LINE
8
BLACK
6
CONTINUOUS
10
3.42063
20
0.190945
11
3.42018
21
0.188685
0
LINE
8
BLACK
6
CONTINUOUS
10
3.42018
20
0.188685
11
3.4189
21
0.186769
0
LINE
8
BLACK
6
CONTINUOUS
10
3.4189
20
0.186769
11
3.41698
21
0.185489
0
LINE
8
BLACK
6
CONTINUOUS
10
3.41698
20
0.185489
11
3.41472
21
0.185039
0
LINE
8
BLACK
6
CONTINUOUS
10
3.41472
20
0.185039
11
3.35961
21
0.185039
0
LINE
8
BLACK
6
CONTINUOUS
10
3.35961
20
0.185039
11
3.35735
21
0.185489
0
LINE
8
BLACK
6
CONTINUOUS
10
3.35735
20
0.185489
11
3.35543
21
0.186769
0
LINE
8
BLACK
6
CONTINUOUS
10
3.35543
20
0.186769
11
3.35415
21
0.188685
0
LINE
8
BLACK
6
CONTINUOUS
10
3.35415
20
0.188685
11
3.3537
21
0.190945
0
LINE
8
BLACK
6
CONTINUOUS
10
3.3537
20
0.190945
11
3.3537
21
0.202756
0
LINE
8
BLACK
6
CONTINUOUS
10
3.3537
20
0.202756
11
3.35415
21
0.205016
0
LINE
8
BLACK
6
CONTINUOUS
10
3.35415
20
0.205016
11
3.35543
21
0.206932
0
LINE
8
BLACK
6
CONTINUOUS
10
3.35543
20
0.206932
11
3.35735
21
0.208212
0
LINE
8
BLACK
6
CONTINUOUS
10
3.35735
20
0.208212
11
3.35961
21
0.208661
0
LINE
8
BLACK
6
CONTINUOUS
10
3.35961
20
0.208661
11
3.41472
21
0.208661
0
LINE
8
BLACK
6
CONTINUOUS
10
3.41472
20
0.208661
11
3.41698
21
0.208212
0
LINE
8
BLACK
6
CONTINUOUS
10
0.242654
20
0.257424
11
0.24457
21
0.256144
0
LINE
8
BLACK
6
CONTINUOUS
10
0.24457
20
0.256144
11
0.24585
21
0.254228
0
LINE
8
BLACK
6
CONTINUOUS
10
0.24585
20
0.254228
11
0.246299
21
0.251969
0
LINE
8
BLACK
6
CONTINUOUS
10
0.246299
20
0.251969
11
0.246299
21
0.240157
0
LINE
8
BLACK
6
CONTINUOUS
10
0.246299
20
0.240157
11
0.24585
21
0.237898
0
LINE
8
BLACK
6
CONTINUOUS
10
0.24585
20
0.237898
11
0.24457
21
0.235982
0
LINE
8
BLACK
6
CONTINUOUS
10
0.24457
20
0.235982
11
0.242654
21
0.234701
0
LINE
8
BLACK
6
CONTINUOUS
10
0.242654
20
0.234701
11
0.240394
21
0.234252
0
LINE
8
BLACK
6
CONTINUOUS
10
0.240394
20
0.234252
11
0.185276
21
0.234252
0
LINE
8
BLACK
6
CONTINUOUS
10
0.185276
20
0.234252
11
0.183016
21
0.234701
0
LINE
8
BLACK
6
CONTINUOUS
10
0.183016
20
0.234701
11
0.1811
21
0.235982
0
LINE
8
BLACK
6
CONTINUOUS
10
0.1811
20
0.235982
11
0.17982
21
0.237898
0
LINE
8
BLACK
6
CONTINUOUS
10
0.17982
20
0.237898
11
0.17937
21
0.240157
0
LINE
8
BLACK
6
CONTINUOUS
10
0.17937
20
0.240157
11
0.17937
21
0.251969
0
LINE
8
BLACK
6
CONTINUOUS
10
0.17937
20
0.251969
11
0.17982
21
0.254228
0
LINE
8
BLACK
6
CONTINUOUS
10
0.17982
20
0.254228
11
0.1811
21
0.256144
0
LINE
8
BLACK
6
CONTINUOUS
10
0.1811
20
0.256144
11
0.183016
21
0.257424
0
LINE
8
BLACK
6
CONTINUOUS
10
0.183016
20
0.257424
11
0.185276
21
0.257874
0
LINE
8
BLACK
6
CONTINUOUS
10
0.185276
20
0.257874
11
0.240394
21
0.257874
0
LINE
8
BLACK
6
CONTINUOUS
10
0.240394
20
0.257874
11
0.242654
21
0.257424
0
LINE
8
BLACK
6
CONTINUOUS
10
3.41698
20
0.257424
11
3.4189
21
0.256144
0
LINE
8
BLACK
6
CONTINUOUS
10
3.4189
20
0.256144
11
3.42018
21
0.254228
0
LINE
8
BLACK
6
CONTINUOUS
10
3.42018
20
0.254228
11
3.42063
21
0.251969
0
LINE
8
BLACK
6
CONTINUOUS
10
3.42063
20
0.251969
11
3.42063
21
0.240157
0
LINE
8
BLACK
6
CONTINUOUS
10
3.42063
20
0.240157
11
3.42018
21
0.237898
0
LINE
8
BLACK
6
CONTINUOUS
10
3.42018
20
0.237898
11
3.4189
21
0.235982
0
LINE
8
BLACK
6
CONTINUOUS
10
3.4189
20
0.235982
11
3.41698
21
0.234701
0
LINE
8
BLACK
6
CONTINUOUS
10
3.41698
20
0.234701
11
3.41472
21
0.234252
0
LINE
8
BLACK
6
CONTINUOUS
10
3.41472
20
0.234252
11
3.35961
21
0.234252
0
LINE
8
BLACK
6
CONTINUOUS
10
3.35961
20
0.234252
11
3.35735
21
0.234701
0
LINE
8
BLACK
6
CONTINUOUS
10
3.35735
20
0.234701
11
3.35543
21
0.235982
0
LINE
8
BLACK
6
CONTINUOUS
10
3.35543
20
0.235982
11
3.35415
21
0.237898
0
LINE
8
BLACK
6
CONTINUOUS
10
3.35415
20
0.237898
11
3.3537
21
0.240157
0
LINE
8
BLACK
6
CONTINUOUS
10
3.3537
20
0.240157
11
3.3537
21
0.251969
0
LINE
8
BLACK
6
CONTINUOUS
10
3.3537
20
0.251969
11
3.35415
21
0.254228
0
LINE
8
BLACK
6
CONTINUOUS
10
3.35415
20
0.254228
11
3.35543
21
0.256144
0
LINE
8
BLACK
6
CONTINUOUS
10
3.35543
20
0.256144
11
3.35735
21
0.257424
0
LINE
8
BLACK
6
CONTINUOUS
10
3.35735
20
0.257424
11
3.35961
21
0.257874
0
LINE
8
BLACK
6
CONTINUOUS
10
3.35961
20
0.257874
11
3.41472
21
0.257874
0
LINE
8
BLACK
6
CONTINUOUS
10
3.41472
20
0.257874
11
3.41698
21
0.257424
0
LINE
8
BLACK
6
CONTINUOUS
10
3.56022
20
0.337833
11
3.56342
21
0.3357
0
LINE
8
BLACK
6
CONTINUOUS
10
3.56342
20
0.3357
11
3.56555
21
0.332507
0
LINE
8
BLACK
6
CONTINUOUS
10
3.56555
20
0.332507
11
3.5663
21
0.32874
0
LINE
8
BLACK
6
CONTINUOUS
10
3.5663
20
0.32874
11
3.5663
21
0.309055
0
LINE
8
BLACK
6
CONTINUOUS
10
3.5663
20
0.309055
11
3.56555
21
0.305289
0
LINE
8
BLACK
6
CONTINUOUS
10
3.56555
20
0.305289
11
3.56342
21
0.302095
0
LINE
8
BLACK
6
CONTINUOUS
10
3.56342
20
0.302095
11
3.56022
21
0.299962
0
LINE
8
BLACK
6
CONTINUOUS
10
3.56022
20
0.299962
11
3.55646
21
0.299213
0
LINE
8
BLACK
6
CONTINUOUS
10
3.55646
20
0.299213
11
3.46984
21
0.299213
0
LINE
8
BLACK
6
CONTINUOUS
10
3.46984
20
0.299213
11
3.46608
21
0.299962
0
LINE
8
BLACK
6
CONTINUOUS
10
3.46608
20
0.299962
11
3.46288
21
0.302095
0
LINE
8
BLACK
6
CONTINUOUS
10
3.46288
20
0.302095
11
3.46075
21
0.305289
0
LINE
8
BLACK
6
CONTINUOUS
10
3.46075
20
0.305289
11
3.46
21
0.309055
0
LINE
8
BLACK
6
CONTINUOUS
10
3.46
20
0.309055
11
3.46
21
0.32874
0
LINE
8
BLACK
6
CONTINUOUS
10
3.46
20
0.32874
11
3.46075
21
0.332507
0
LINE
8
BLACK
6
CONTINUOUS
10
3.46075
20
0.332507
11
3.46288
21
0.3357
0
LINE
8
BLACK
6
CONTINUOUS
10
3.46288
20
0.3357
11
3.46608
21
0.337833
0
LINE
8
BLACK
6
CONTINUOUS
10
3.46608
20
0.337833
11
3.46984
21
0.338583
0
LINE
8
BLACK
6
CONTINUOUS
10
3.46984
20
0.338583
11
3.55646
21
0.338583
0
LINE
8
BLACK
6
CONTINUOUS
10
3.55646
20
0.338583
11
3.56022
21
0.337833
0
LINE
8
BLACK
6
CONTINUOUS
10
0.133924
20
0.337833
11
0.137117
21
0.3357
0
LINE
8
BLACK
6
CONTINUOUS
10
0.137117
20
0.3357
11
0.139251
21
0.332507
0
LINE
8
BLACK
6
CONTINUOUS
10
0.139251
20
0.332507
11
0.14
21
0.32874
0
LINE
8
BLACK
6
CONTINUOUS
10
0.14
20
0.32874
11
0.14
21
0.309055
0
LINE
8
BLACK
6
CONTINUOUS
10
0.14
20
0.309055
11
0.139251
21
0.305289
0
LINE
8
BLACK
6
CONTINUOUS
10
0.139251
20
0.305289
11
0.137117
21
0.302095
0
LINE
8
BLACK
6
CONTINUOUS
10
0.137117
20
0.302095
11
0.133924
21
0.299962
0
LINE
8
BLACK
6
CONTINUOUS
10
0.133924
20
0.299962
11
0.130157
21
0.299213
0
LINE
8
BLACK
6
CONTINUOUS
10
0.130157
20
0.299213
11
0.0435433
21
0.299213
0
LINE
8
BLACK
6
CONTINUOUS
10
0.0435433
20
0.299213
11
0.0397767
21
0.299962
0
LINE
8
BLACK
6
CONTINUOUS
10
0.0397767
20
0.299962
11
0.0365836
21
0.302095
0
LINE
8
BLACK
6
CONTINUOUS
10
0.0365836
20
0.302095
11
0.03445
21
0.305289
0
LINE
8
BLACK
6
CONTINUOUS
10
0.03445
20
0.305289
11
0.0337008
21
0.309055
0
LINE
8
BLACK
6
CONTINUOUS
10
0.0337008
20
0.309055
11
0.0337008
21
0.32874
0
LINE
8
BLACK
6
CONTINUOUS
10
0.0337008
20
0.32874
11
0.03445
21
0.332507
0
LINE
8
BLACK
6
CONTINUOUS
10
0.03445
20
0.332507
11
0.0365836
21
0.3357
0
LINE
8
BLACK
6
CONTINUOUS
10
0.0365836
20
0.3357
11
0.0397767
21
0.337833
0
LINE
8
BLACK
6
CONTINUOUS
10
0.0397767
20
0.337833
11
0.0435433
21
0.338583
0
LINE
8
BLACK
6
CONTINUOUS
10
0.0435433
20
0.338583
11
0.130157
21
0.338583
0
LINE
8
BLACK
6
CONTINUOUS
10
0.130157
20
0.338583
11
0.133924
21
0.337833
0
LINE
8
BLACK
6
CONTINUOUS
10
0.180433
20
0.396102
11
0.109567
21
0.396102
0
LINE
8
BLACK
6
CONTINUOUS
10
0.109567
20
0.396102
11
0.109567
21
0.533898
0
LINE
8
BLACK
6
CONTINUOUS
10
0.109567
20
0.533898
11
0.180433
21
0.533898
0
LINE
8
BLACK
6
CONTINUOUS
10
0.180433
20
0.533898
11
0.180433
21
0.396102
0
LINE
8
BLACK
6
CONTINUOUS
10
3.47043
20
0.402677
11
3.39957
21
0.402677
0
LINE
8
BLACK
6
CONTINUOUS
10
3.39957
20
0.402677
11
3.39957
21
0.540472
0
LINE
8
BLACK
6
CONTINUOUS
10
3.39957
20
0.540472
11
3.47043
21
0.540472
0
LINE
8
BLACK
6
CONTINUOUS
10
3.47043
20
0.540472
11
3.47043
21
0.402677
0
LINE
8
BLACK
6
CONTINUOUS
10
0.180433
20
0.592953
11
0.109567
21
0.592953
0
LINE
8
BLACK
6
CONTINUOUS
10
0.109567
20
0.592953
11
0.109567
21
0.730748
0
LINE
8
BLACK
6
CONTINUOUS
10
0.109567
20
0.730748
11
0.180433
21
0.730748
0
LINE
8
BLACK
6
CONTINUOUS
10
0.180433
20
0.730748
11
0.180433
21
0.592953
0
LINE
8
BLACK
6
CONTINUOUS
10
3.47043
20
0.599528
11
3.39957
21
0.599528
0
LINE
8
BLACK
6
CONTINUOUS
10
3.39957
20
0.599528
11
3.39957
21
0.737323
0
LINE
8
BLACK
6
CONTINUOUS
10
3.39957
20
0.737323
11
3.47043
21
0.737323
0
LINE
8
BLACK
6
CONTINUOUS
10
3.47043
20
0.737323
11
3.47043
21
0.599528
0
LINE
8
BLACK
6
CONTINUOUS
10
0.191916
20
0.85181
11
0.195109
21
0.849676
0
LINE
8
BLACK
6
CONTINUOUS
10
0.195109
20
0.849676
11
0.197243
21
0.846483
0
LINE
8
BLACK
6
CONTINUOUS
10
0.197243
20
0.846483
11
0.197992
21
0.842717
0
LINE
8
BLACK
6
CONTINUOUS
10
0.197992
20
0.842717
11
0.197992
21
0.807283
0
LINE
8
BLACK
6
CONTINUOUS
10
0.197992
20
0.807283
11
0.197243
21
0.803517
0
LINE
8
BLACK
6
CONTINUOUS
10
0.197243
20
0.803517
11
0.195109
21
0.800324
0
LINE
8
BLACK
6
CONTINUOUS
10
0.195109
20
0.800324
11
0.191916
21
0.79819
0
LINE
8
BLACK
6
CONTINUOUS
10
0.191916
20
0.79819
11
0.18815
21
0.797441
0
LINE
8
BLACK
6
CONTINUOUS
10
0.18815
20
0.797441
11
0.162559
21
0.797441
0
LINE
8
BLACK
6
CONTINUOUS
10
0.162559
20
0.797441
11
0.158792
21
0.79819
0
LINE
8
BLACK
6
CONTINUOUS
10
0.158792
20
0.79819
11
0.155599
21
0.800324
0
LINE
8
BLACK
6
CONTINUOUS
10
0.155599
20
0.800324
11
0.153466
21
0.803517
0
LINE
8
BLACK
6
CONTINUOUS
10
0.153466
20
0.803517
11
0.152717
21
0.807283
0
LINE
8
BLACK
6
CONTINUOUS
10
0.152717
20
0.807283
11
0.152717
21
0.842717
0
LINE
8
BLACK
6
CONTINUOUS
10
0.152717
20
0.842717
11
0.153466
21
0.846483
0
LINE
8
BLACK
6
CONTINUOUS
10
0.153466
20
0.846483
11
0.155599
21
0.849676
0
LINE
8
BLACK
6
CONTINUOUS
10
0.155599
20
0.849676
11
0.158792
21
0.85181
0
LINE
8
BLACK
6
CONTINUOUS
10
0.158792
20
0.85181
11
0.162559
21
0.852559
0
LINE
8
BLACK
6
CONTINUOUS
10
0.162559
20
0.852559
11
0.18815
21
0.852559
0
LINE
8
BLACK
6
CONTINUOUS
10
0.18815
20
0.852559
11
0.191916
21
0.85181
0
LINE
8
BLACK
6
CONTINUOUS
10
0.111208
20
0.85181
11
0.114401
21
0.849676
0
LINE
8
BLACK
6
CONTINUOUS
10
0.114401
20
0.849676
11
0.116534
21
0.846483
0
LINE
8
BLACK
6
CONTINUOUS
10
0.116534
20
0.846483
11
0.117283
21
0.842717
0
LINE
8
BLACK
6
CONTINUOUS
10
0.117283
20
0.842717
11
0.117283
21
0.807283
0
LINE
8
BLACK
6
CONTINUOUS
10
0.117283
20
0.807283
11
0.116534
21
0.803517
0
LINE
8
BLACK
6
CONTINUOUS
10
0.116534
20
0.803517
11
0.114401
21
0.800324
0
LINE
8
BLACK
6
CONTINUOUS
10
0.114401
20
0.800324
11
0.111208
21
0.79819
0
LINE
8
BLACK
6
CONTINUOUS
10
0.111208
20
0.79819
11
0.107441
21
0.797441
0
LINE
8
BLACK
6
CONTINUOUS
10
0.107441
20
0.797441
11
0.0818504
21
0.797441
0
LINE
8
BLACK
6
CONTINUOUS
10
0.0818504
20
0.797441
11
0.0780838
21
0.79819
0
LINE
8
BLACK
6
CONTINUOUS
10
0.0780838
20
0.79819
11
0.0748907
21
0.800324
0
LINE
8
BLACK
6
CONTINUOUS
10
0.0748907
20
0.800324
11
0.0727571
21
0.803517
0
LINE
8
BLACK
6
CONTINUOUS
10
0.0727571
20
0.803517
11
0.0720079
21
0.807283
0
LINE
8
BLACK
6
CONTINUOUS
10
0.0720079
20
0.807283
11
0.0720079
21
0.842717
0
LINE
8
BLACK
6
CONTINUOUS
10
0.0720079
20
0.842717
11
0.0727571
21
0.846483
0
LINE
8
BLACK
6
CONTINUOUS
10
0.0727571
20
0.846483
11
0.0748907
21
0.849676
0
LINE
8
BLACK
6
CONTINUOUS
10
0.0748907
20
0.849676
11
0.0780838
21
0.85181
0
LINE
8
BLACK
6
CONTINUOUS
10
0.0780838
20
0.85181
11
0.0818504
21
0.852559
0
LINE
8
BLACK
6
CONTINUOUS
10
0.0818504
20
0.852559
11
0.107441
21
0.852559
0
LINE
8
BLACK
6
CONTINUOUS
10
0.107441
20
0.852559
11
0.111208
21
0.85181
0
LINE
8
BLACK
6
CONTINUOUS
10
3.42621
20
0.91181
11
3.4294
21
0.909676
0
LINE
8
BLACK
6
CONTINUOUS
10
3.4294
20
0.909676
11
3.43153
21
0.906483
0
LINE
8
BLACK
6
CONTINUOUS
10
3.43153
20
0.906483
11
3.43228
21
0.902717
0
LINE
8
BLACK
6
CONTINUOUS
10
3.43228
20
0.902717
11
3.43228
21
0.867283
0
LINE
8
BLACK
6
CONTINUOUS
10
3.43228
20
0.867283
11
3.43153
21
0.863517
0
LINE
8
BLACK
6
CONTINUOUS
10
3.43153
20
0.863517
11
3.4294
21
0.860324
0
LINE
8
BLACK
6
CONTINUOUS
10
3.4294
20
0.860324
11
3.42621
21
0.85819
0
LINE
8
BLACK
6
CONTINUOUS
10
3.42621
20
0.85819
11
3.42244
21
0.857441
0
LINE
8
BLACK
6
CONTINUOUS
10
3.42244
20
0.857441
11
3.39685
21
0.857441
0
LINE
8
BLACK
6
CONTINUOUS
10
3.39685
20
0.857441
11
3.39308
21
0.85819
0
LINE
8
BLACK
6
CONTINUOUS
10
3.39308
20
0.85819
11
3.38989
21
0.860324
0
LINE
8
BLACK
6
CONTINUOUS
10
3.38989
20
0.860324
11
3.38776
21
0.863517
0
LINE
8
BLACK
6
CONTINUOUS
10
3.38776
20
0.863517
11
3.38701
21
0.867283
0
LINE
8
BLACK
6
CONTINUOUS
10
3.38701
20
0.867283
11
3.38701
21
0.902717
0
LINE
8
BLACK
6
CONTINUOUS
10
3.38701
20
0.902717
11
3.38776
21
0.906483
0
LINE
8
BLACK
6
CONTINUOUS
10
3.38776
20
0.906483
11
3.38989
21
0.909676
0
LINE
8
BLACK
6
CONTINUOUS
10
3.38989
20
0.909676
11
3.39308
21
0.91181
0
LINE
8
BLACK
6
CONTINUOUS
10
3.39308
20
0.91181
11
3.39685
21
0.912559
0
LINE
8
BLACK
6
CONTINUOUS
10
3.39685
20
0.912559
11
3.42244
21
0.912559
0
LINE
8
BLACK
6
CONTINUOUS
10
3.42244
20
0.912559
11
3.42621
21
0.91181
0
LINE
8
BLACK
6
CONTINUOUS
10
3.50692
20
0.91181
11
3.51011
21
0.909676
0
LINE
8
BLACK
6
CONTINUOUS
10
3.51011
20
0.909676
11
3.51224
21
0.906483
0
LINE
8
BLACK
6
CONTINUOUS
10
3.51224
20
0.906483
11
3.51299
21
0.902717
0
LINE
8
BLACK
6
CONTINUOUS
10
3.51299
20
0.902717
11
3.51299
21
0.867283
0
LINE
8
BLACK
6
CONTINUOUS
10
3.51299
20
0.867283
11
3.51224
21
0.863517
0
LINE
8
BLACK
6
CONTINUOUS
10
3.51224
20
0.863517
11
3.51011
21
0.860324
0
LINE
8
BLACK
6
CONTINUOUS
10
3.51011
20
0.860324
11
3.50692
21
0.85819
0
LINE
8
BLACK
6
CONTINUOUS
10
3.50692
20
0.85819
11
3.50315
21
0.857441
0
LINE
8
BLACK
6
CONTINUOUS
10
3.50315
20
0.857441
11
3.47756
21
0.857441
0
LINE
8
BLACK
6
CONTINUOUS
10
3.47756
20
0.857441
11
3.47379
21
0.85819
0
LINE
8
BLACK
6
CONTINUOUS
10
3.47379
20
0.85819
11
3.4706
21
0.860324
0
LINE
8
BLACK
6
CONTINUOUS
10
3.4706
20
0.860324
11
3.46847
21
0.863517
0
LINE
8
BLACK
6
CONTINUOUS
10
3.46847
20
0.863517
11
3.46772
21
0.867283
0
LINE
8
BLACK
6
CONTINUOUS
10
3.46772
20
0.867283
11
3.46772
21
0.902717
0
LINE
8
BLACK
6
CONTINUOUS
10
3.46772
20
0.902717
11
3.46847
21
0.906483
0
LINE
8
BLACK
6
CONTINUOUS
10
3.46847
20
0.906483
11
3.4706
21
0.909676
0
LINE
8
BLACK
6
CONTINUOUS
10
3.4706
20
0.909676
11
3.47379
21
0.91181
0
LINE
8
BLACK
6
CONTINUOUS
10
3.47379
20
0.91181
11
3.47756
21
0.912559
0
LINE
8
BLACK
6
CONTINUOUS
10
3.47756
20
0.912559
11
3.50315
21
0.912559
0
LINE
8
BLACK
6
CONTINUOUS
10
3.50315
20
0.912559
11
3.50692
21
0.91181
  0
ENDSEC
  0
EOF
