  0
SECTION
  2
HEADER
  9
$ANGBASE
  50
0.0
  9
$ANGDIR
  70
1
  9
$MEASUREMENT
  70
0
  0
ENDSEC
  0
SECTION
  2
TABLES
  0
TABLE
  2
LTYPE
  70
4
  0
LTYPE
  5
40F
  2
CONTINUOUS
  70
0
  3
Solid line
  72
65
  73
0
  40
0.0
  0
LTYPE
  5
410
  2
DASHDOT
 70
0
  3
Dash Dot ____ _ ____ _
 72
65
 73
4
 40
2.0
 49
1.25
 49
-0.25
 49
0.25
 49
-0.25
  0
LTYPE
  5
411
  2
DASHED
 70
0
  3
Dashed __ __ __ __ __
 72
65
 73
2
 40
0.75
 49
0.5
 49
-0.25
  0
LTYPE
  5
43B
  2
DOTTED
 70
0
  3
Dotted .  .  .  .
 72
65
 73
2
 40
0.2
 49
0.0
 49
-0.2
  0
ENDTAB
  0
TABLE
  2
STYLE
  70
4
  0
STYLE
  2
KICAD
  70
0
  40
0
  41
1
  42
1
  50
0
  71
0
  3
isocp.shx
  0
STYLE
  2
KICADB
  70
0
  40
0
  41
1
  42
1
  50
0
  71
0
  3
isocp.shx
  0
STYLE
  2
KICADI
  70
0
  40
0
  41
1
  42
1
  50
15
  71
0
  3
isocp.shx
  0
STYLE
  2
KICADBI
  70
0
  40
0
  41
1
  42
1
  50
15
  71
0
  3
isocp.shx
  0
ENDTAB
  0
TABLE
  2
LAYER
  70
1
  0
LAYER
  2
BLACK
  70
0
  62
7
  6
CONTINUOUS
  0
ENDTAB
  0
ENDSEC
  0
SECTION
  2
ENTITIES
0
LINE
8
BLACK
6
CONTINUOUS
10
1.05855
20
0.137048
11
1.06683
21
0.134827
0
LINE
8
BLACK
6
CONTINUOUS
10
1.06683
20
0.134827
11
1.07461
21
0.131202
0
LINE
8
BLACK
6
CONTINUOUS
10
1.07461
20
0.131202
11
1.08163
21
0.126282
0
LINE
8
BLACK
6
CONTINUOUS
10
1.08163
20
0.126282
11
1.0877
21
0.120216
0
LINE
8
BLACK
6
CONTINUOUS
10
1.0877
20
0.120216
11
1.09262
21
0.113189
0
LINE
8
BLACK
6
CONTINUOUS
10
1.09262
20
0.113189
11
1.09624
21
0.105414
0
LINE
8
BLACK
6
CONTINUOUS
10
1.09624
20
0.105414
11
1.09846
21
0.0971283
0
LINE
8
BLACK
6
CONTINUOUS
10
1.09846
20
0.0971283
11
1.09921
21
0.0885827
0
LINE
8
BLACK
6
CONTINUOUS
10
1.09921
20
0.0885827
11
1.09846
21
0.080037
0
LINE
8
BLACK
6
CONTINUOUS
10
1.09846
20
0.080037
11
1.09624
21
0.071751
0
LINE
8
BLACK
6
CONTINUOUS
10
1.09624
20
0.071751
11
1.09262
21
0.0639764
0
LINE
8
BLACK
6
CONTINUOUS
10
1.09262
20
0.0639764
11
1.0877
21
0.0569494
0
LINE
8
BLACK
6
CONTINUOUS
10
1.0877
20
0.0569494
11
1.08163
21
0.0508836
0
LINE
8
BLACK
6
CONTINUOUS
10
1.08163
20
0.0508836
11
1.07461
21
0.0459633
0
LINE
8
BLACK
6
CONTINUOUS
10
1.07461
20
0.0459633
11
1.06683
21
0.042338
0
LINE
8
BLACK
6
CONTINUOUS
10
1.06683
20
0.042338
11
1.05855
21
0.0401177
0
LINE
8
BLACK
6
CONTINUOUS
10
1.05855
20
0.0401177
11
1.05
21
0.0393701
0
LINE
8
BLACK
6
CONTINUOUS
10
1.05
20
0.0393701
11
1.04145
21
0.0401177
0
LINE
8
BLACK
6
CONTINUOUS
10
1.04145
20
0.0401177
11
1.03317
21
0.042338
0
LINE
8
BLACK
6
CONTINUOUS
10
1.03317
20
0.042338
11
1.02539
21
0.0459633
0
LINE
8
BLACK
6
CONTINUOUS
10
1.02539
20
0.0459633
11
1.01837
21
0.0508836
0
LINE
8
BLACK
6
CONTINUOUS
10
1.01837
20
0.0508836
11
1.0123
21
0.0569494
0
LINE
8
BLACK
6
CONTINUOUS
10
1.0123
20
0.0569494
11
1.00738
21
0.0639764
0
LINE
8
BLACK
6
CONTINUOUS
10
1.00738
20
0.0639764
11
1.00376
21
0.071751
0
LINE
8
BLACK
6
CONTINUOUS
10
1.00376
20
0.071751
11
1.00154
21
0.080037
0
LINE
8
BLACK
6
CONTINUOUS
10
1.00154
20
0.080037
11
1.00079
21
0.0885827
0
LINE
8
BLACK
6
CONTINUOUS
10
1.00079
20
0.0885827
11
1.00154
21
0.0971283
0
LINE
8
BLACK
6
CONTINUOUS
10
1.00154
20
0.0971283
11
1.00376
21
0.105414
0
LINE
8
BLACK
6
CONTINUOUS
10
1.00376
20
0.105414
11
1.00738
21
0.113189
0
LINE
8
BLACK
6
CONTINUOUS
10
1.00738
20
0.113189
11
1.0123
21
0.120216
0
LINE
8
BLACK
6
CONTINUOUS
10
1.0123
20
0.120216
11
1.01837
21
0.126282
0
LINE
8
BLACK
6
CONTINUOUS
10
1.01837
20
0.126282
11
1.02539
21
0.131202
0
LINE
8
BLACK
6
CONTINUOUS
10
1.02539
20
0.131202
11
1.03317
21
0.134827
0
LINE
8
BLACK
6
CONTINUOUS
10
1.03317
20
0.134827
11
1.04145
21
0.137048
0
LINE
8
BLACK
6
CONTINUOUS
10
1.04145
20
0.137048
11
1.05
21
0.137795
0
LINE
8
BLACK
6
CONTINUOUS
10
1.05
20
0.137795
11
1.05855
21
0.137048
0
LINE
8
BLACK
6
CONTINUOUS
10
2.55855
20
0.137048
11
2.56683
21
0.134827
0
LINE
8
BLACK
6
CONTINUOUS
10
2.56683
20
0.134827
11
2.57461
21
0.131202
0
LINE
8
BLACK
6
CONTINUOUS
10
2.57461
20
0.131202
11
2.58163
21
0.126282
0
LINE
8
BLACK
6
CONTINUOUS
10
2.58163
20
0.126282
11
2.5877
21
0.120216
0
LINE
8
BLACK
6
CONTINUOUS
10
2.5877
20
0.120216
11
2.59262
21
0.113189
0
LINE
8
BLACK
6
CONTINUOUS
10
2.59262
20
0.113189
11
2.59624
21
0.105414
0
LINE
8
BLACK
6
CONTINUOUS
10
2.59624
20
0.105414
11
2.59846
21
0.0971283
0
LINE
8
BLACK
6
CONTINUOUS
10
2.59846
20
0.0971283
11
2.59921
21
0.0885827
0
LINE
8
BLACK
6
CONTINUOUS
10
2.59921
20
0.0885827
11
2.59846
21
0.080037
0
LINE
8
BLACK
6
CONTINUOUS
10
2.59846
20
0.080037
11
2.59624
21
0.071751
0
LINE
8
BLACK
6
CONTINUOUS
10
2.59624
20
0.071751
11
2.59262
21
0.0639764
0
LINE
8
BLACK
6
CONTINUOUS
10
2.59262
20
0.0639764
11
2.5877
21
0.0569494
0
LINE
8
BLACK
6
CONTINUOUS
10
2.5877
20
0.0569494
11
2.58163
21
0.0508836
0
LINE
8
BLACK
6
CONTINUOUS
10
2.58163
20
0.0508836
11
2.57461
21
0.0459633
0
LINE
8
BLACK
6
CONTINUOUS
10
2.57461
20
0.0459633
11
2.56683
21
0.042338
0
LINE
8
BLACK
6
CONTINUOUS
10
2.56683
20
0.042338
11
2.55855
21
0.0401177
0
LINE
8
BLACK
6
CONTINUOUS
10
2.55855
20
0.0401177
11
2.55
21
0.0393701
0
LINE
8
BLACK
6
CONTINUOUS
10
2.55
20
0.0393701
11
2.54145
21
0.0401177
0
LINE
8
BLACK
6
CONTINUOUS
10
2.54145
20
0.0401177
11
2.53317
21
0.042338
0
LINE
8
BLACK
6
CONTINUOUS
10
2.53317
20
0.042338
11
2.52539
21
0.0459633
0
LINE
8
BLACK
6
CONTINUOUS
10
2.52539
20
0.0459633
11
2.51837
21
0.0508836
0
LINE
8
BLACK
6
CONTINUOUS
10
2.51837
20
0.0508836
11
2.5123
21
0.0569494
0
LINE
8
BLACK
6
CONTINUOUS
10
2.5123
20
0.0569494
11
2.50738
21
0.0639764
0
LINE
8
BLACK
6
CONTINUOUS
10
2.50738
20
0.0639764
11
2.50376
21
0.071751
0
LINE
8
BLACK
6
CONTINUOUS
10
2.50376
20
0.071751
11
2.50154
21
0.080037
0
LINE
8
BLACK
6
CONTINUOUS
10
2.50154
20
0.080037
11
2.50079
21
0.0885827
0
LINE
8
BLACK
6
CONTINUOUS
10
2.50079
20
0.0885827
11
2.50154
21
0.0971283
0
LINE
8
BLACK
6
CONTINUOUS
10
2.50154
20
0.0971283
11
2.50376
21
0.105414
0
LINE
8
BLACK
6
CONTINUOUS
10
2.50376
20
0.105414
11
2.50738
21
0.113189
0
LINE
8
BLACK
6
CONTINUOUS
10
2.50738
20
0.113189
11
2.5123
21
0.120216
0
LINE
8
BLACK
6
CONTINUOUS
10
2.5123
20
0.120216
11
2.51837
21
0.126282
0
LINE
8
BLACK
6
CONTINUOUS
10
2.51837
20
0.126282
11
2.52539
21
0.131202
0
LINE
8
BLACK
6
CONTINUOUS
10
2.52539
20
0.131202
11
2.53317
21
0.134827
0
LINE
8
BLACK
6
CONTINUOUS
10
2.53317
20
0.134827
11
2.54145
21
0.137048
0
LINE
8
BLACK
6
CONTINUOUS
10
2.54145
20
0.137048
11
2.55
21
0.137795
0
LINE
8
BLACK
6
CONTINUOUS
10
2.55
20
0.137795
11
2.55855
21
0.137048
0
LINE
8
BLACK
6
CONTINUOUS
10
3.56022
20
0.093739
11
3.56342
21
0.0916054
0
LINE
8
BLACK
6
CONTINUOUS
10
3.56342
20
0.0916054
11
3.56555
21
0.0884122
0
LINE
8
BLACK
6
CONTINUOUS
10
3.56555
20
0.0884122
11
3.5663
21
0.0846457
0
LINE
8
BLACK
6
CONTINUOUS
10
3.5663
20
0.0846457
11
3.5663
21
0.0649606
0
LINE
8
BLACK
6
CONTINUOUS
10
3.5663
20
0.0649606
11
3.56555
21
0.0611941
0
LINE
8
BLACK
6
CONTINUOUS
10
3.56555
20
0.0611941
11
3.56342
21
0.0580009
0
LINE
8
BLACK
6
CONTINUOUS
10
3.56342
20
0.0580009
11
3.56022
21
0.0558673
0
LINE
8
BLACK
6
CONTINUOUS
10
3.56022
20
0.0558673
11
3.55646
21
0.0551181
0
LINE
8
BLACK
6
CONTINUOUS
10
3.55646
20
0.0551181
11
3.46984
21
0.0551181
0
LINE
8
BLACK
6
CONTINUOUS
10
3.46984
20
0.0551181
11
3.46608
21
0.0558673
0
LINE
8
BLACK
6
CONTINUOUS
10
3.46608
20
0.0558673
11
3.46288
21
0.0580009
0
LINE
8
BLACK
6
CONTINUOUS
10
3.46288
20
0.0580009
11
3.46075
21
0.0611941
0
LINE
8
BLACK
6
CONTINUOUS
10
3.46075
20
0.0611941
11
3.46
21
0.0649606
0
LINE
8
BLACK
6
CONTINUOUS
10
3.46
20
0.0649606
11
3.46
21
0.0846457
0
LINE
8
BLACK
6
CONTINUOUS
10
3.46
20
0.0846457
11
3.46075
21
0.0884122
0
LINE
8
BLACK
6
CONTINUOUS
10
3.46075
20
0.0884122
11
3.46288
21
0.0916054
0
LINE
8
BLACK
6
CONTINUOUS
10
3.46288
20
0.0916054
11
3.46608
21
0.093739
0
LINE
8
BLACK
6
CONTINUOUS
10
3.46608
20
0.093739
11
3.46984
21
0.0944882
0
LINE
8
BLACK
6
CONTINUOUS
10
3.46984
20
0.0944882
11
3.55646
21
0.0944882
0
LINE
8
BLACK
6
CONTINUOUS
10
3.55646
20
0.0944882
11
3.56022
21
0.093739
0
LINE
8
BLACK
6
CONTINUOUS
10
0.133924
20
0.093739
11
0.137117
21
0.0916054
0
LINE
8
BLACK
6
CONTINUOUS
10
0.137117
20
0.0916054
11
0.139251
21
0.0884122
0
LINE
8
BLACK
6
CONTINUOUS
10
0.139251
20
0.0884122
11
0.14
21
0.0846457
0
LINE
8
BLACK
6
CONTINUOUS
10
0.14
20
0.0846457
11
0.14
21
0.0649606
0
LINE
8
BLACK
6
CONTINUOUS
10
0.14
20
0.0649606
11
0.139251
21
0.0611941
0
LINE
8
BLACK
6
CONTINUOUS
10
0.139251
20
0.0611941
11
0.137117
21
0.0580009
0
LINE
8
BLACK
6
CONTINUOUS
10
0.137117
20
0.0580009
11
0.133924
21
0.0558673
0
LINE
8
BLACK
6
CONTINUOUS
10
0.133924
20
0.0558673
11
0.130157
21
0.0551181
0
LINE
8
BLACK
6
CONTINUOUS
10
0.130157
20
0.0551181
11
0.0435433
21
0.0551181
0
LINE
8
BLACK
6
CONTINUOUS
10
0.0435433
20
0.0551181
11
0.0397767
21
0.0558673
0
LINE
8
BLACK
6
CONTINUOUS
10
0.0397767
20
0.0558673
11
0.0365836
21
0.0580009
0
LINE
8
BLACK
6
CONTINUOUS
10
0.0365836
20
0.0580009
11
0.03445
21
0.0611941
0
LINE
8
BLACK
6
CONTINUOUS
10
0.03445
20
0.0611941
11
0.0337008
21
0.0649606
0
LINE
8
BLACK
6
CONTINUOUS
10
0.0337008
20
0.0649606
11
0.0337008
21
0.0846457
0
LINE
8
BLACK
6
CONTINUOUS
10
0.0337008
20
0.0846457
11
0.03445
21
0.0884122
0
LINE
8
BLACK
6
CONTINUOUS
10
0.03445
20
0.0884122
11
0.0365836
21
0.0916054
0
LINE
8
BLACK
6
CONTINUOUS
10
0.0365836
20
0.0916054
11
0.0397767
21
0.093739
0
LINE
8
BLACK
6
CONTINUOUS
10
0.0397767
20
0.093739
11
0.0435433
21
0.0944882
0
LINE
8
BLACK
6
CONTINUOUS
10
0.0435433
20
0.0944882
11
0.130157
21
0.0944882
0
LINE
8
BLACK
6
CONTINUOUS
10
0.130157
20
0.0944882
11
0.133924
21
0.093739
0
LINE
8
BLACK
6
CONTINUOUS
10
0.242654
20
0.158999
11
0.24457
21
0.157719
0
LINE
8
BLACK
6
CONTINUOUS
10
0.24457
20
0.157719
11
0.24585
21
0.155803
0
LINE
8
BLACK
6
CONTINUOUS
10
0.24585
20
0.155803
11
0.246299
21
0.153543
0
LINE
8
BLACK
6
CONTINUOUS
10
0.246299
20
0.153543
11
0.246299
21
0.141732
0
LINE
8
BLACK
6
CONTINUOUS
10
0.246299
20
0.141732
11
0.24585
21
0.139472
0
LINE
8
BLACK
6
CONTINUOUS
10
0.24585
20
0.139472
11
0.24457
21
0.137556
0
LINE
8
BLACK
6
CONTINUOUS
10
0.24457
20
0.137556
11
0.242654
21
0.136276
0
LINE
8
BLACK
6
CONTINUOUS
10
0.242654
20
0.136276
11
0.240394
21
0.135827
0
LINE
8
BLACK
6
CONTINUOUS
10
0.240394
20
0.135827
11
0.185276
21
0.135827
0
LINE
8
BLACK
6
CONTINUOUS
10
0.185276
20
0.135827
11
0.183016
21
0.136276
0
LINE
8
BLACK
6
CONTINUOUS
10
0.183016
20
0.136276
11
0.1811
21
0.137556
0
LINE
8
BLACK
6
CONTINUOUS
10
0.1811
20
0.137556
11
0.17982
21
0.139472
0
LINE
8
BLACK
6
CONTINUOUS
10
0.17982
20
0.139472
11
0.17937
21
0.141732
0
LINE
8
BLACK
6
CONTINUOUS
10
0.17937
20
0.141732
11
0.17937
21
0.153543
0
LINE
8
BLACK
6
CONTINUOUS
10
0.17937
20
0.153543
11
0.17982
21
0.155803
0
LINE
8
BLACK
6
CONTINUOUS
10
0.17982
20
0.155803
11
0.1811
21
0.157719
0
LINE
8
BLACK
6
CONTINUOUS
10
0.1811
20
0.157719
11
0.183016
21
0.158999
0
LINE
8
BLACK
6
CONTINUOUS
10
0.183016
20
0.158999
11
0.185276
21
0.159449
0
LINE
8
BLACK
6
CONTINUOUS
10
0.185276
20
0.159449
11
0.240394
21
0.159449
0
LINE
8
BLACK
6
CONTINUOUS
10
0.240394
20
0.159449
11
0.242654
21
0.158999
0
LINE
8
BLACK
6
CONTINUOUS
10
3.41698
20
0.158999
11
3.4189
21
0.157719
0
LINE
8
BLACK
6
CONTINUOUS
10
3.4189
20
0.157719
11
3.42018
21
0.155803
0
LINE
8
BLACK
6
CONTINUOUS
10
3.42018
20
0.155803
11
3.42063
21
0.153543
0
LINE
8
BLACK
6
CONTINUOUS
10
3.42063
20
0.153543
11
3.42063
21
0.141732
0
LINE
8
BLACK
6
CONTINUOUS
10
3.42063
20
0.141732
11
3.42018
21
0.139472
0
LINE
8
BLACK
6
CONTINUOUS
10
3.42018
20
0.139472
11
3.4189
21
0.137556
0
LINE
8
BLACK
6
CONTINUOUS
10
3.4189
20
0.137556
11
3.41698
21
0.136276
0
LINE
8
BLACK
6
CONTINUOUS
10
3.41698
20
0.136276
11
3.41472
21
0.135827
0
LINE
8
BLACK
6
CONTINUOUS
10
3.41472
20
0.135827
11
3.35961
21
0.135827
0
LINE
8
BLACK
6
CONTINUOUS
10
3.35961
20
0.135827
11
3.35735
21
0.136276
0
LINE
8
BLACK
6
CONTINUOUS
10
3.35735
20
0.136276
11
3.35543
21
0.137556
0
LINE
8
BLACK
6
CONTINUOUS
10
3.35543
20
0.137556
11
3.35415
21
0.139472
0
LINE
8
BLACK
6
CONTINUOUS
10
3.35415
20
0.139472
11
3.3537
21
0.141732
0
LINE
8
BLACK
6
CONTINUOUS
10
3.3537
20
0.141732
11
3.3537
21
0.153543
0
LINE
8
BLACK
6
CONTINUOUS
10
3.3537
20
0.153543
11
3.35415
21
0.155803
0
LINE
8
BLACK
6
CONTINUOUS
10
3.35415
20
0.155803
11
3.35543
21
0.157719
0
LINE
8
BLACK
6
CONTINUOUS
10
3.35543
20
0.157719
11
3.35735
21
0.158999
0
LINE
8
BLACK
6
CONTINUOUS
10
3.35735
20
0.158999
11
3.35961
21
0.159449
0
LINE
8
BLACK
6
CONTINUOUS
10
3.35961
20
0.159449
11
3.41472
21
0.159449
0
LINE
8
BLACK
6
CONTINUOUS
10
3.41472
20
0.159449
11
3.41698
21
0.158999
0
LINE
8
BLACK
6
CONTINUOUS
10
3.41698
20
0.208212
11
3.4189
21
0.206932
0
LINE
8
BLACK
6
CONTINUOUS
10
3.4189
20
0.206932
11
3.42018
21
0.205016
0
LINE
8
BLACK
6
CONTINUOUS
10
3.42018
20
0.205016
11
3.42063
21
0.202756
0
LINE
8
BLACK
6
CONTINUOUS
10
3.42063
20
0.202756
11
3.42063
21
0.190945
0
LINE
8
BLACK
6
CONTINUOUS
10
3.42063
20
0.190945
11
3.42018
21
0.188685
0
LINE
8
BLACK
6
CONTINUOUS
10
3.42018
20
0.188685
11
3.4189
21
0.186769
0
LINE
8
BLACK
6
CONTINUOUS
10
3.4189
20
0.186769
11
3.41698
21
0.185489
0
LINE
8
BLACK
6
CONTINUOUS
10
3.41698
20
0.185489
11
3.41472
21
0.185039
0
LINE
8
BLACK
6
CONTINUOUS
10
3.41472
20
0.185039
11
3.35961
21
0.185039
0
LINE
8
BLACK
6
CONTINUOUS
10
3.35961
20
0.185039
11
3.35735
21
0.185489
0
LINE
8
BLACK
6
CONTINUOUS
10
3.35735
20
0.185489
11
3.35543
21
0.186769
0
LINE
8
BLACK
6
CONTINUOUS
10
3.35543
20
0.186769
11
3.35415
21
0.188685
0
LINE
8
BLACK
6
CONTINUOUS
10
3.35415
20
0.188685
11
3.3537
21
0.190945
0
LINE
8
BLACK
6
CONTINUOUS
10
3.3537
20
0.190945
11
3.3537
21
0.202756
0
LINE
8
BLACK
6
CONTINUOUS
10
3.3537
20
0.202756
11
3.35415
21
0.205016
0
LINE
8
BLACK
6
CONTINUOUS
10
3.35415
20
0.205016
11
3.35543
21
0.206932
0
LINE
8
BLACK
6
CONTINUOUS
10
3.35543
20
0.206932
11
3.35735
21
0.208212
0
LINE
8
BLACK
6
CONTINUOUS
10
3.35735
20
0.208212
11
3.35961
21
0.208661
0
LINE
8
BLACK
6
CONTINUOUS
10
3.35961
20
0.208661
11
3.41472
21
0.208661
0
LINE
8
BLACK
6
CONTINUOUS
10
3.41472
20
0.208661
11
3.41698
21
0.208212
0
LINE
8
BLACK
6
CONTINUOUS
10
0.242654
20
0.208212
11
0.24457
21
0.206932
0
LINE
8
BLACK
6
CONTINUOUS
10
0.24457
20
0.206932
11
0.24585
21
0.205016
0
LINE
8
BLACK
6
CONTINUOUS
10
0.24585
20
0.205016
11
0.246299
21
0.202756
0
LINE
8
BLACK
6
CONTINUOUS
10
0.246299
20
0.202756
11
0.246299
21
0.190945
0
LINE
8
BLACK
6
CONTINUOUS
10
0.246299
20
0.190945
11
0.24585
21
0.188685
0
LINE
8
BLACK
6
CONTINUOUS
10
0.24585
20
0.188685
11
0.24457
21
0.186769
0
LINE
8
BLACK
6
CONTINUOUS
10
0.24457
20
0.186769
11
0.242654
21
0.185489
0
LINE
8
BLACK
6
CONTINUOUS
10
0.242654
20
0.185489
11
0.240394
21
0.185039
0
LINE
8
BLACK
6
CONTINUOUS
10
0.240394
20
0.185039
11
0.185276
21
0.185039
0
LINE
8
BLACK
6
CONTINUOUS
10
0.185276
20
0.185039
11
0.183016
21
0.185489
0
LINE
8
BLACK
6
CONTINUOUS
10
0.183016
20
0.185489
11
0.1811
21
0.186769
0
LINE
8
BLACK
6
CONTINUOUS
10
0.1811
20
0.186769
11
0.17982
21
0.188685
0
LINE
8
BLACK
6
CONTINUOUS
10
0.17982
20
0.188685
11
0.17937
21
0.190945
0
LINE
8
BLACK
6
CONTINUOUS
10
0.17937
20
0.190945
11
0.17937
21
0.202756
0
LINE
8
BLACK
6
CONTINUOUS
10
0.17937
20
0.202756
11
0.17982
21
0.205016
0
LINE
8
BLACK
6
CONTINUOUS
10
0.17982
20
0.205016
11
0.1811
21
0.206932
0
LINE
8
BLACK
6
CONTINUOUS
10
0.1811
20
0.206932
11
0.183016
21
0.208212
0
LINE
8
BLACK
6
CONTINUOUS
10
0.183016
20
0.208212
11
0.185276
21
0.208661
0
LINE
8
BLACK
6
CONTINUOUS
10
0.185276
20
0.208661
11
0.240394
21
0.208661
0
LINE
8
BLACK
6
CONTINUOUS
10
0.240394
20
0.208661
11
0.242654
21
0.208212
0
LINE
8
BLACK
6
CONTINUOUS
10
0.242654
20
0.257424
11
0.24457
21
0.256144
0
LINE
8
BLACK
6
CONTINUOUS
10
0.24457
20
0.256144
11
0.24585
21
0.254228
0
LINE
8
BLACK
6
CONTINUOUS
10
0.24585
20
0.254228
11
0.246299
21
0.251969
0
LINE
8
BLACK
6
CONTINUOUS
10
0.246299
20
0.251969
11
0.246299
21
0.240157
0
LINE
8
BLACK
6
CONTINUOUS
10
0.246299
20
0.240157
11
0.24585
21
0.237898
0
LINE
8
BLACK
6
CONTINUOUS
10
0.24585
20
0.237898
11
0.24457
21
0.235982
0
LINE
8
BLACK
6
CONTINUOUS
10
0.24457
20
0.235982
11
0.242654
21
0.234701
0
LINE
8
BLACK
6
CONTINUOUS
10
0.242654
20
0.234701
11
0.240394
21
0.234252
0
LINE
8
BLACK
6
CONTINUOUS
10
0.240394
20
0.234252
11
0.185276
21
0.234252
0
LINE
8
BLACK
6
CONTINUOUS
10
0.185276
20
0.234252
11
0.183016
21
0.234701
0
LINE
8
BLACK
6
CONTINUOUS
10
0.183016
20
0.234701
11
0.1811
21
0.235982
0
LINE
8
BLACK
6
CONTINUOUS
10
0.1811
20
0.235982
11
0.17982
21
0.237898
0
LINE
8
BLACK
6
CONTINUOUS
10
0.17982
20
0.237898
11
0.17937
21
0.240157
0
LINE
8
BLACK
6
CONTINUOUS
10
0.17937
20
0.240157
11
0.17937
21
0.251969
0
LINE
8
BLACK
6
CONTINUOUS
10
0.17937
20
0.251969
11
0.17982
21
0.254228
0
LINE
8
BLACK
6
CONTINUOUS
10
0.17982
20
0.254228
11
0.1811
21
0.256144
0
LINE
8
BLACK
6
CONTINUOUS
10
0.1811
20
0.256144
11
0.183016
21
0.257424
0
LINE
8
BLACK
6
CONTINUOUS
10
0.183016
20
0.257424
11
0.185276
21
0.257874
0
LINE
8
BLACK
6
CONTINUOUS
10
0.185276
20
0.257874
11
0.240394
21
0.257874
0
LINE
8
BLACK
6
CONTINUOUS
10
0.240394
20
0.257874
11
0.242654
21
0.257424
0
LINE
8
BLACK
6
CONTINUOUS
10
3.41698
20
0.257424
11
3.4189
21
0.256144
0
LINE
8
BLACK
6
CONTINUOUS
10
3.4189
20
0.256144
11
3.42018
21
0.254228
0
LINE
8
BLACK
6
CONTINUOUS
10
3.42018
20
0.254228
11
3.42063
21
0.251969
0
LINE
8
BLACK
6
CONTINUOUS
10
3.42063
20
0.251969
11
3.42063
21
0.240157
0
LINE
8
BLACK
6
CONTINUOUS
10
3.42063
20
0.240157
11
3.42018
21
0.237898
0
LINE
8
BLACK
6
CONTINUOUS
10
3.42018
20
0.237898
11
3.4189
21
0.235982
0
LINE
8
BLACK
6
CONTINUOUS
10
3.4189
20
0.235982
11
3.41698
21
0.234701
0
LINE
8
BLACK
6
CONTINUOUS
10
3.41698
20
0.234701
11
3.41472
21
0.234252
0
LINE
8
BLACK
6
CONTINUOUS
10
3.41472
20
0.234252
11
3.35961
21
0.234252
0
LINE
8
BLACK
6
CONTINUOUS
10
3.35961
20
0.234252
11
3.35735
21
0.234701
0
LINE
8
BLACK
6
CONTINUOUS
10
3.35735
20
0.234701
11
3.35543
21
0.235982
0
LINE
8
BLACK
6
CONTINUOUS
10
3.35543
20
0.235982
11
3.35415
21
0.237898
0
LINE
8
BLACK
6
CONTINUOUS
10
3.35415
20
0.237898
11
3.3537
21
0.240157
0
LINE
8
BLACK
6
CONTINUOUS
10
3.3537
20
0.240157
11
3.3537
21
0.251969
0
LINE
8
BLACK
6
CONTINUOUS
10
3.3537
20
0.251969
11
3.35415
21
0.254228
0
LINE
8
BLACK
6
CONTINUOUS
10
3.35415
20
0.254228
11
3.35543
21
0.256144
0
LINE
8
BLACK
6
CONTINUOUS
10
3.35543
20
0.256144
11
3.35735
21
0.257424
0
LINE
8
BLACK
6
CONTINUOUS
10
3.35735
20
0.257424
11
3.35961
21
0.257874
0
LINE
8
BLACK
6
CONTINUOUS
10
3.35961
20
0.257874
11
3.41472
21
0.257874
0
LINE
8
BLACK
6
CONTINUOUS
10
3.41472
20
0.257874
11
3.41698
21
0.257424
0
LINE
8
BLACK
6
CONTINUOUS
10
3.56022
20
0.337833
11
3.56342
21
0.3357
0
LINE
8
BLACK
6
CONTINUOUS
10
3.56342
20
0.3357
11
3.56555
21
0.332507
0
LINE
8
BLACK
6
CONTINUOUS
10
3.56555
20
0.332507
11
3.5663
21
0.32874
0
LINE
8
BLACK
6
CONTINUOUS
10
3.5663
20
0.32874
11
3.5663
21
0.309055
0
LINE
8
BLACK
6
CONTINUOUS
10
3.5663
20
0.309055
11
3.56555
21
0.305289
0
LINE
8
BLACK
6
CONTINUOUS
10
3.56555
20
0.305289
11
3.56342
21
0.302095
0
LINE
8
BLACK
6
CONTINUOUS
10
3.56342
20
0.302095
11
3.56022
21
0.299962
0
LINE
8
BLACK
6
CONTINUOUS
10
3.56022
20
0.299962
11
3.55646
21
0.299213
0
LINE
8
BLACK
6
CONTINUOUS
10
3.55646
20
0.299213
11
3.46984
21
0.299213
0
LINE
8
BLACK
6
CONTINUOUS
10
3.46984
20
0.299213
11
3.46608
21
0.299962
0
LINE
8
BLACK
6
CONTINUOUS
10
3.46608
20
0.299962
11
3.46288
21
0.302095
0
LINE
8
BLACK
6
CONTINUOUS
10
3.46288
20
0.302095
11
3.46075
21
0.305289
0
LINE
8
BLACK
6
CONTINUOUS
10
3.46075
20
0.305289
11
3.46
21
0.309055
0
LINE
8
BLACK
6
CONTINUOUS
10
3.46
20
0.309055
11
3.46
21
0.32874
0
LINE
8
BLACK
6
CONTINUOUS
10
3.46
20
0.32874
11
3.46075
21
0.332507
0
LINE
8
BLACK
6
CONTINUOUS
10
3.46075
20
0.332507
11
3.46288
21
0.3357
0
LINE
8
BLACK
6
CONTINUOUS
10
3.46288
20
0.3357
11
3.46608
21
0.337833
0
LINE
8
BLACK
6
CONTINUOUS
10
3.46608
20
0.337833
11
3.46984
21
0.338583
0
LINE
8
BLACK
6
CONTINUOUS
10
3.46984
20
0.338583
11
3.55646
21
0.338583
0
LINE
8
BLACK
6
CONTINUOUS
10
3.55646
20
0.338583
11
3.56022
21
0.337833
0
LINE
8
BLACK
6
CONTINUOUS
10
0.133924
20
0.337833
11
0.137117
21
0.3357
0
LINE
8
BLACK
6
CONTINUOUS
10
0.137117
20
0.3357
11
0.139251
21
0.332507
0
LINE
8
BLACK
6
CONTINUOUS
10
0.139251
20
0.332507
11
0.14
21
0.32874
0
LINE
8
BLACK
6
CONTINUOUS
10
0.14
20
0.32874
11
0.14
21
0.309055
0
LINE
8
BLACK
6
CONTINUOUS
10
0.14
20
0.309055
11
0.139251
21
0.305289
0
LINE
8
BLACK
6
CONTINUOUS
10
0.139251
20
0.305289
11
0.137117
21
0.302095
0
LINE
8
BLACK
6
CONTINUOUS
10
0.137117
20
0.302095
11
0.133924
21
0.299962
0
LINE
8
BLACK
6
CONTINUOUS
10
0.133924
20
0.299962
11
0.130157
21
0.299213
0
LINE
8
BLACK
6
CONTINUOUS
10
0.130157
20
0.299213
11
0.0435433
21
0.299213
0
LINE
8
BLACK
6
CONTINUOUS
10
0.0435433
20
0.299213
11
0.0397767
21
0.299962
0
LINE
8
BLACK
6
CONTINUOUS
10
0.0397767
20
0.299962
11
0.0365836
21
0.302095
0
LINE
8
BLACK
6
CONTINUOUS
10
0.0365836
20
0.302095
11
0.03445
21
0.305289
0
LINE
8
BLACK
6
CONTINUOUS
10
0.03445
20
0.305289
11
0.0337008
21
0.309055
0
LINE
8
BLACK
6
CONTINUOUS
10
0.0337008
20
0.309055
11
0.0337008
21
0.32874
0
LINE
8
BLACK
6
CONTINUOUS
10
0.0337008
20
0.32874
11
0.03445
21
0.332507
0
LINE
8
BLACK
6
CONTINUOUS
10
0.03445
20
0.332507
11
0.0365836
21
0.3357
0
LINE
8
BLACK
6
CONTINUOUS
10
0.0365836
20
0.3357
11
0.0397767
21
0.337833
0
LINE
8
BLACK
6
CONTINUOUS
10
0.0397767
20
0.337833
11
0.0435433
21
0.338583
0
LINE
8
BLACK
6
CONTINUOUS
10
0.0435433
20
0.338583
11
0.130157
21
0.338583
0
LINE
8
BLACK
6
CONTINUOUS
10
0.130157
20
0.338583
11
0.133924
21
0.337833
0
LINE
8
BLACK
6
CONTINUOUS
10
0.180433
20
0.397677
11
0.109567
21
0.397677
0
LINE
8
BLACK
6
CONTINUOUS
10
0.109567
20
0.397677
11
0.109567
21
0.535472
0
LINE
8
BLACK
6
CONTINUOUS
10
0.109567
20
0.535472
11
0.180433
21
0.535472
0
LINE
8
BLACK
6
CONTINUOUS
10
0.180433
20
0.535472
11
0.180433
21
0.397677
0
LINE
8
BLACK
6
CONTINUOUS
10
3.47043
20
0.402677
11
3.39957
21
0.402677
0
LINE
8
BLACK
6
CONTINUOUS
10
3.39957
20
0.402677
11
3.39957
21
0.540472
0
LINE
8
BLACK
6
CONTINUOUS
10
3.39957
20
0.540472
11
3.47043
21
0.540472
0
LINE
8
BLACK
6
CONTINUOUS
10
3.47043
20
0.540472
11
3.47043
21
0.402677
0
LINE
8
BLACK
6
CONTINUOUS
10
0.180433
20
0.594528
11
0.109567
21
0.594528
0
LINE
8
BLACK
6
CONTINUOUS
10
0.109567
20
0.594528
11
0.109567
21
0.732323
0
LINE
8
BLACK
6
CONTINUOUS
10
0.109567
20
0.732323
11
0.180433
21
0.732323
0
LINE
8
BLACK
6
CONTINUOUS
10
0.180433
20
0.732323
11
0.180433
21
0.594528
0
LINE
8
BLACK
6
CONTINUOUS
10
3.47043
20
0.599528
11
3.39957
21
0.599528
0
LINE
8
BLACK
6
CONTINUOUS
10
3.39957
20
0.599528
11
3.39957
21
0.737323
0
LINE
8
BLACK
6
CONTINUOUS
10
3.39957
20
0.737323
11
3.47043
21
0.737323
0
LINE
8
BLACK
6
CONTINUOUS
10
3.47043
20
0.737323
11
3.47043
21
0.599528
0
LINE
8
BLACK
6
CONTINUOUS
10
1.06156
20
0.80436
11
1.07293
21
0.8021
0
LINE
8
BLACK
6
CONTINUOUS
10
1.07293
20
0.8021
11
1.0839
21
0.798375
0
LINE
8
BLACK
6
CONTINUOUS
10
1.0839
20
0.798375
11
1.09429
21
0.79325
0
LINE
8
BLACK
6
CONTINUOUS
10
1.09429
20
0.79325
11
1.10393
21
0.786813
0
LINE
8
BLACK
6
CONTINUOUS
10
1.10393
20
0.786813
11
1.11264
21
0.779173
0
LINE
8
BLACK
6
CONTINUOUS
10
1.11264
20
0.779173
11
1.12028
21
0.770461
0
LINE
8
BLACK
6
CONTINUOUS
10
1.12028
20
0.770461
11
1.12671
21
0.760827
0
LINE
8
BLACK
6
CONTINUOUS
10
1.12671
20
0.760827
11
1.13184
21
0.750435
0
LINE
8
BLACK
6
CONTINUOUS
10
1.13184
20
0.750435
11
1.13556
21
0.739462
0
LINE
8
BLACK
6
CONTINUOUS
10
1.13556
20
0.739462
11
1.13782
21
0.728098
0
LINE
8
BLACK
6
CONTINUOUS
10
1.13782
20
0.728098
11
1.13858
21
0.716535
0
LINE
8
BLACK
6
CONTINUOUS
10
1.13858
20
0.716535
11
1.13782
21
0.704973
0
LINE
8
BLACK
6
CONTINUOUS
10
1.13782
20
0.704973
11
1.13556
21
0.693609
0
LINE
8
BLACK
6
CONTINUOUS
10
1.13556
20
0.693609
11
1.13184
21
0.682636
0
LINE
8
BLACK
6
CONTINUOUS
10
1.13184
20
0.682636
11
1.12671
21
0.672244
0
LINE
8
BLACK
6
CONTINUOUS
10
1.12671
20
0.672244
11
1.12028
21
0.66261
0
LINE
8
BLACK
6
CONTINUOUS
10
1.12028
20
0.66261
11
1.11264
21
0.653898
0
LINE
8
BLACK
6
CONTINUOUS
10
1.11264
20
0.653898
11
1.10393
21
0.646258
0
LINE
8
BLACK
6
CONTINUOUS
10
1.10393
20
0.646258
11
1.09429
21
0.639821
0
LINE
8
BLACK
6
CONTINUOUS
10
1.09429
20
0.639821
11
1.0839
21
0.634696
0
LINE
8
BLACK
6
CONTINUOUS
10
1.0839
20
0.634696
11
1.07293
21
0.630971
0
LINE
8
BLACK
6
CONTINUOUS
10
1.07293
20
0.630971
11
1.06156
21
0.628711
0
LINE
8
BLACK
6
CONTINUOUS
10
1.06156
20
0.628711
11
1.05
21
0.627953
0
LINE
8
BLACK
6
CONTINUOUS
10
1.05
20
0.627953
11
1.03844
21
0.628711
0
LINE
8
BLACK
6
CONTINUOUS
10
1.03844
20
0.628711
11
1.02707
21
0.630971
0
LINE
8
BLACK
6
CONTINUOUS
10
1.02707
20
0.630971
11
1.0161
21
0.634696
0
LINE
8
BLACK
6
CONTINUOUS
10
1.0161
20
0.634696
11
1.00571
21
0.639821
0
LINE
8
BLACK
6
CONTINUOUS
10
1.00571
20
0.639821
11
0.996074
21
0.646258
0
LINE
8
BLACK
6
CONTINUOUS
10
0.996074
20
0.646258
11
0.987363
21
0.653898
0
LINE
8
BLACK
6
CONTINUOUS
10
0.987363
20
0.653898
11
0.979723
21
0.66261
0
LINE
8
BLACK
6
CONTINUOUS
10
0.979723
20
0.66261
11
0.973285
21
0.672244
0
LINE
8
BLACK
6
CONTINUOUS
10
0.973285
20
0.672244
11
0.96816
21
0.682636
0
LINE
8
BLACK
6
CONTINUOUS
10
0.96816
20
0.682636
11
0.964436
21
0.693609
0
LINE
8
BLACK
6
CONTINUOUS
10
0.964436
20
0.693609
11
0.962175
21
0.704973
0
LINE
8
BLACK
6
CONTINUOUS
10
0.962175
20
0.704973
11
0.961417
21
0.716535
0
LINE
8
BLACK
6
CONTINUOUS
10
0.961417
20
0.716535
11
0.962175
21
0.728098
0
LINE
8
BLACK
6
CONTINUOUS
10
0.962175
20
0.728098
11
0.964436
21
0.739462
0
LINE
8
BLACK
6
CONTINUOUS
10
0.964436
20
0.739462
11
0.96816
21
0.750435
0
LINE
8
BLACK
6
CONTINUOUS
10
0.96816
20
0.750435
11
0.973285
21
0.760827
0
LINE
8
BLACK
6
CONTINUOUS
10
0.973285
20
0.760827
11
0.979723
21
0.770461
0
LINE
8
BLACK
6
CONTINUOUS
10
0.979723
20
0.770461
11
0.987363
21
0.779173
0
LINE
8
BLACK
6
CONTINUOUS
10
0.987363
20
0.779173
11
0.996074
21
0.786813
0
LINE
8
BLACK
6
CONTINUOUS
10
0.996074
20
0.786813
11
1.00571
21
0.79325
0
LINE
8
BLACK
6
CONTINUOUS
10
1.00571
20
0.79325
11
1.0161
21
0.798375
0
LINE
8
BLACK
6
CONTINUOUS
10
1.0161
20
0.798375
11
1.02707
21
0.8021
0
LINE
8
BLACK
6
CONTINUOUS
10
1.02707
20
0.8021
11
1.03844
21
0.80436
0
LINE
8
BLACK
6
CONTINUOUS
10
1.03844
20
0.80436
11
1.05
21
0.805118
0
LINE
8
BLACK
6
CONTINUOUS
10
1.05
20
0.805118
11
1.06156
21
0.80436
0
LINE
8
BLACK
6
CONTINUOUS
10
2.56156
20
0.80436
11
2.57293
21
0.8021
0
LINE
8
BLACK
6
CONTINUOUS
10
2.57293
20
0.8021
11
2.5839
21
0.798375
0
LINE
8
BLACK
6
CONTINUOUS
10
2.5839
20
0.798375
11
2.59429
21
0.79325
0
LINE
8
BLACK
6
CONTINUOUS
10
2.59429
20
0.79325
11
2.60393
21
0.786813
0
LINE
8
BLACK
6
CONTINUOUS
10
2.60393
20
0.786813
11
2.61264
21
0.779173
0
LINE
8
BLACK
6
CONTINUOUS
10
2.61264
20
0.779173
11
2.62028
21
0.770461
0
LINE
8
BLACK
6
CONTINUOUS
10
2.62028
20
0.770461
11
2.62671
21
0.760827
0
LINE
8
BLACK
6
CONTINUOUS
10
2.62671
20
0.760827
11
2.63184
21
0.750435
0
LINE
8
BLACK
6
CONTINUOUS
10
2.63184
20
0.750435
11
2.63556
21
0.739462
0
LINE
8
BLACK
6
CONTINUOUS
10
2.63556
20
0.739462
11
2.63782
21
0.728098
0
LINE
8
BLACK
6
CONTINUOUS
10
2.63782
20
0.728098
11
2.63858
21
0.716535
0
LINE
8
BLACK
6
CONTINUOUS
10
2.63858
20
0.716535
11
2.63782
21
0.704973
0
LINE
8
BLACK
6
CONTINUOUS
10
2.63782
20
0.704973
11
2.63556
21
0.693609
0
LINE
8
BLACK
6
CONTINUOUS
10
2.63556
20
0.693609
11
2.63184
21
0.682636
0
LINE
8
BLACK
6
CONTINUOUS
10
2.63184
20
0.682636
11
2.62671
21
0.672244
0
LINE
8
BLACK
6
CONTINUOUS
10
2.62671
20
0.672244
11
2.62028
21
0.66261
0
LINE
8
BLACK
6
CONTINUOUS
10
2.62028
20
0.66261
11
2.61264
21
0.653898
0
LINE
8
BLACK
6
CONTINUOUS
10
2.61264
20
0.653898
11
2.60393
21
0.646258
0
LINE
8
BLACK
6
CONTINUOUS
10
2.60393
20
0.646258
11
2.59429
21
0.639821
0
LINE
8
BLACK
6
CONTINUOUS
10
2.59429
20
0.639821
11
2.5839
21
0.634696
0
LINE
8
BLACK
6
CONTINUOUS
10
2.5839
20
0.634696
11
2.57293
21
0.630971
0
LINE
8
BLACK
6
CONTINUOUS
10
2.57293
20
0.630971
11
2.56156
21
0.628711
0
LINE
8
BLACK
6
CONTINUOUS
10
2.56156
20
0.628711
11
2.55
21
0.627953
0
LINE
8
BLACK
6
CONTINUOUS
10
2.55
20
0.627953
11
2.53844
21
0.628711
0
LINE
8
BLACK
6
CONTINUOUS
10
2.53844
20
0.628711
11
2.52707
21
0.630971
0
LINE
8
BLACK
6
CONTINUOUS
10
2.52707
20
0.630971
11
2.5161
21
0.634696
0
LINE
8
BLACK
6
CONTINUOUS
10
2.5161
20
0.634696
11
2.50571
21
0.639821
0
LINE
8
BLACK
6
CONTINUOUS
10
2.50571
20
0.639821
11
2.49607
21
0.646258
0
LINE
8
BLACK
6
CONTINUOUS
10
2.49607
20
0.646258
11
2.48736
21
0.653898
0
LINE
8
BLACK
6
CONTINUOUS
10
2.48736
20
0.653898
11
2.47972
21
0.66261
0
LINE
8
BLACK
6
CONTINUOUS
10
2.47972
20
0.66261
11
2.47329
21
0.672244
0
LINE
8
BLACK
6
CONTINUOUS
10
2.47329
20
0.672244
11
2.46816
21
0.682636
0
LINE
8
BLACK
6
CONTINUOUS
10
2.46816
20
0.682636
11
2.46444
21
0.693609
0
LINE
8
BLACK
6
CONTINUOUS
10
2.46444
20
0.693609
11
2.46218
21
0.704973
0
LINE
8
BLACK
6
CONTINUOUS
10
2.46218
20
0.704973
11
2.46142
21
0.716535
0
LINE
8
BLACK
6
CONTINUOUS
10
2.46142
20
0.716535
11
2.46218
21
0.728098
0
LINE
8
BLACK
6
CONTINUOUS
10
2.46218
20
0.728098
11
2.46444
21
0.739462
0
LINE
8
BLACK
6
CONTINUOUS
10
2.46444
20
0.739462
11
2.46816
21
0.750435
0
LINE
8
BLACK
6
CONTINUOUS
10
2.46816
20
0.750435
11
2.47329
21
0.760827
0
LINE
8
BLACK
6
CONTINUOUS
10
2.47329
20
0.760827
11
2.47972
21
0.770461
0
LINE
8
BLACK
6
CONTINUOUS
10
2.47972
20
0.770461
11
2.48736
21
0.779173
0
LINE
8
BLACK
6
CONTINUOUS
10
2.48736
20
0.779173
11
2.49607
21
0.786813
0
LINE
8
BLACK
6
CONTINUOUS
10
2.49607
20
0.786813
11
2.50571
21
0.79325
0
LINE
8
BLACK
6
CONTINUOUS
10
2.50571
20
0.79325
11
2.5161
21
0.798375
0
LINE
8
BLACK
6
CONTINUOUS
10
2.5161
20
0.798375
11
2.52707
21
0.8021
0
LINE
8
BLACK
6
CONTINUOUS
10
2.52707
20
0.8021
11
2.53844
21
0.80436
0
LINE
8
BLACK
6
CONTINUOUS
10
2.53844
20
0.80436
11
2.55
21
0.805118
0
LINE
8
BLACK
6
CONTINUOUS
10
2.55
20
0.805118
11
2.56156
21
0.80436
0
LINE
8
BLACK
6
CONTINUOUS
10
0.111208
20
0.85181
11
0.114401
21
0.849676
0
LINE
8
BLACK
6
CONTINUOUS
10
0.114401
20
0.849676
11
0.116534
21
0.846483
0
LINE
8
BLACK
6
CONTINUOUS
10
0.116534
20
0.846483
11
0.117283
21
0.842717
0
LINE
8
BLACK
6
CONTINUOUS
10
0.117283
20
0.842717
11
0.117283
21
0.807283
0
LINE
8
BLACK
6
CONTINUOUS
10
0.117283
20
0.807283
11
0.116534
21
0.803517
0
LINE
8
BLACK
6
CONTINUOUS
10
0.116534
20
0.803517
11
0.114401
21
0.800324
0
LINE
8
BLACK
6
CONTINUOUS
10
0.114401
20
0.800324
11
0.111208
21
0.79819
0
LINE
8
BLACK
6
CONTINUOUS
10
0.111208
20
0.79819
11
0.107441
21
0.797441
0
LINE
8
BLACK
6
CONTINUOUS
10
0.107441
20
0.797441
11
0.0818504
21
0.797441
0
LINE
8
BLACK
6
CONTINUOUS
10
0.0818504
20
0.797441
11
0.0780838
21
0.79819
0
LINE
8
BLACK
6
CONTINUOUS
10
0.0780838
20
0.79819
11
0.0748907
21
0.800324
0
LINE
8
BLACK
6
CONTINUOUS
10
0.0748907
20
0.800324
11
0.0727571
21
0.803517
0
LINE
8
BLACK
6
CONTINUOUS
10
0.0727571
20
0.803517
11
0.0720079
21
0.807283
0
LINE
8
BLACK
6
CONTINUOUS
10
0.0720079
20
0.807283
11
0.0720079
21
0.842717
0
LINE
8
BLACK
6
CONTINUOUS
10
0.0720079
20
0.842717
11
0.0727571
21
0.846483
0
LINE
8
BLACK
6
CONTINUOUS
10
0.0727571
20
0.846483
11
0.0748907
21
0.849676
0
LINE
8
BLACK
6
CONTINUOUS
10
0.0748907
20
0.849676
11
0.0780838
21
0.85181
0
LINE
8
BLACK
6
CONTINUOUS
10
0.0780838
20
0.85181
11
0.0818504
21
0.852559
0
LINE
8
BLACK
6
CONTINUOUS
10
0.0818504
20
0.852559
11
0.107441
21
0.852559
0
LINE
8
BLACK
6
CONTINUOUS
10
0.107441
20
0.852559
11
0.111208
21
0.85181
0
LINE
8
BLACK
6
CONTINUOUS
10
0.191916
20
0.85181
11
0.195109
21
0.849676
0
LINE
8
BLACK
6
CONTINUOUS
10
0.195109
20
0.849676
11
0.197243
21
0.846483
0
LINE
8
BLACK
6
CONTINUOUS
10
0.197243
20
0.846483
11
0.197992
21
0.842717
0
LINE
8
BLACK
6
CONTINUOUS
10
0.197992
20
0.842717
11
0.197992
21
0.807283
0
LINE
8
BLACK
6
CONTINUOUS
10
0.197992
20
0.807283
11
0.197243
21
0.803517
0
LINE
8
BLACK
6
CONTINUOUS
10
0.197243
20
0.803517
11
0.195109
21
0.800324
0
LINE
8
BLACK
6
CONTINUOUS
10
0.195109
20
0.800324
11
0.191916
21
0.79819
0
LINE
8
BLACK
6
CONTINUOUS
10
0.191916
20
0.79819
11
0.18815
21
0.797441
0
LINE
8
BLACK
6
CONTINUOUS
10
0.18815
20
0.797441
11
0.162559
21
0.797441
0
LINE
8
BLACK
6
CONTINUOUS
10
0.162559
20
0.797441
11
0.158792
21
0.79819
0
LINE
8
BLACK
6
CONTINUOUS
10
0.158792
20
0.79819
11
0.155599
21
0.800324
0
LINE
8
BLACK
6
CONTINUOUS
10
0.155599
20
0.800324
11
0.153466
21
0.803517
0
LINE
8
BLACK
6
CONTINUOUS
10
0.153466
20
0.803517
11
0.152717
21
0.807283
0
LINE
8
BLACK
6
CONTINUOUS
10
0.152717
20
0.807283
11
0.152717
21
0.842717
0
LINE
8
BLACK
6
CONTINUOUS
10
0.152717
20
0.842717
11
0.153466
21
0.846483
0
LINE
8
BLACK
6
CONTINUOUS
10
0.153466
20
0.846483
11
0.155599
21
0.849676
0
LINE
8
BLACK
6
CONTINUOUS
10
0.155599
20
0.849676
11
0.158792
21
0.85181
0
LINE
8
BLACK
6
CONTINUOUS
10
0.158792
20
0.85181
11
0.162559
21
0.852559
0
LINE
8
BLACK
6
CONTINUOUS
10
0.162559
20
0.852559
11
0.18815
21
0.852559
0
LINE
8
BLACK
6
CONTINUOUS
10
0.18815
20
0.852559
11
0.191916
21
0.85181
0
LINE
8
BLACK
6
CONTINUOUS
10
3.42621
20
0.91181
11
3.4294
21
0.909676
0
LINE
8
BLACK
6
CONTINUOUS
10
3.4294
20
0.909676
11
3.43153
21
0.906483
0
LINE
8
BLACK
6
CONTINUOUS
10
3.43153
20
0.906483
11
3.43228
21
0.902717
0
LINE
8
BLACK
6
CONTINUOUS
10
3.43228
20
0.902717
11
3.43228
21
0.867283
0
LINE
8
BLACK
6
CONTINUOUS
10
3.43228
20
0.867283
11
3.43153
21
0.863517
0
LINE
8
BLACK
6
CONTINUOUS
10
3.43153
20
0.863517
11
3.4294
21
0.860324
0
LINE
8
BLACK
6
CONTINUOUS
10
3.4294
20
0.860324
11
3.42621
21
0.85819
0
LINE
8
BLACK
6
CONTINUOUS
10
3.42621
20
0.85819
11
3.42244
21
0.857441
0
LINE
8
BLACK
6
CONTINUOUS
10
3.42244
20
0.857441
11
3.39685
21
0.857441
0
LINE
8
BLACK
6
CONTINUOUS
10
3.39685
20
0.857441
11
3.39308
21
0.85819
0
LINE
8
BLACK
6
CONTINUOUS
10
3.39308
20
0.85819
11
3.38989
21
0.860324
0
LINE
8
BLACK
6
CONTINUOUS
10
3.38989
20
0.860324
11
3.38776
21
0.863517
0
LINE
8
BLACK
6
CONTINUOUS
10
3.38776
20
0.863517
11
3.38701
21
0.867283
0
LINE
8
BLACK
6
CONTINUOUS
10
3.38701
20
0.867283
11
3.38701
21
0.902717
0
LINE
8
BLACK
6
CONTINUOUS
10
3.38701
20
0.902717
11
3.38776
21
0.906483
0
LINE
8
BLACK
6
CONTINUOUS
10
3.38776
20
0.906483
11
3.38989
21
0.909676
0
LINE
8
BLACK
6
CONTINUOUS
10
3.38989
20
0.909676
11
3.39308
21
0.91181
0
LINE
8
BLACK
6
CONTINUOUS
10
3.39308
20
0.91181
11
3.39685
21
0.912559
0
LINE
8
BLACK
6
CONTINUOUS
10
3.39685
20
0.912559
11
3.42244
21
0.912559
0
LINE
8
BLACK
6
CONTINUOUS
10
3.42244
20
0.912559
11
3.42621
21
0.91181
0
LINE
8
BLACK
6
CONTINUOUS
10
3.50692
20
0.91181
11
3.51011
21
0.909676
0
LINE
8
BLACK
6
CONTINUOUS
10
3.51011
20
0.909676
11
3.51224
21
0.906483
0
LINE
8
BLACK
6
CONTINUOUS
10
3.51224
20
0.906483
11
3.51299
21
0.902717
0
LINE
8
BLACK
6
CONTINUOUS
10
3.51299
20
0.902717
11
3.51299
21
0.867283
0
LINE
8
BLACK
6
CONTINUOUS
10
3.51299
20
0.867283
11
3.51224
21
0.863517
0
LINE
8
BLACK
6
CONTINUOUS
10
3.51224
20
0.863517
11
3.51011
21
0.860324
0
LINE
8
BLACK
6
CONTINUOUS
10
3.51011
20
0.860324
11
3.50692
21
0.85819
0
LINE
8
BLACK
6
CONTINUOUS
10
3.50692
20
0.85819
11
3.50315
21
0.857441
0
LINE
8
BLACK
6
CONTINUOUS
10
3.50315
20
0.857441
11
3.47756
21
0.857441
0
LINE
8
BLACK
6
CONTINUOUS
10
3.47756
20
0.857441
11
3.47379
21
0.85819
0
LINE
8
BLACK
6
CONTINUOUS
10
3.47379
20
0.85819
11
3.4706
21
0.860324
0
LINE
8
BLACK
6
CONTINUOUS
10
3.4706
20
0.860324
11
3.46847
21
0.863517
0
LINE
8
BLACK
6
CONTINUOUS
10
3.46847
20
0.863517
11
3.46772
21
0.867283
0
LINE
8
BLACK
6
CONTINUOUS
10
3.46772
20
0.867283
11
3.46772
21
0.902717
0
LINE
8
BLACK
6
CONTINUOUS
10
3.46772
20
0.902717
11
3.46847
21
0.906483
0
LINE
8
BLACK
6
CONTINUOUS
10
3.46847
20
0.906483
11
3.4706
21
0.909676
0
LINE
8
BLACK
6
CONTINUOUS
10
3.4706
20
0.909676
11
3.47379
21
0.91181
0
LINE
8
BLACK
6
CONTINUOUS
10
3.47379
20
0.91181
11
3.47756
21
0.912559
0
LINE
8
BLACK
6
CONTINUOUS
10
3.47756
20
0.912559
11
3.50315
21
0.912559
0
LINE
8
BLACK
6
CONTINUOUS
10
3.50315
20
0.912559
11
3.50692
21
0.91181
0
LINE
8
BLACK
6
CONTINUOUS
10
2.56156
20
2.20594
11
2.57293
21
2.20367
0
LINE
8
BLACK
6
CONTINUOUS
10
2.57293
20
2.20367
11
2.5839
21
2.19995
0
LINE
8
BLACK
6
CONTINUOUS
10
2.5839
20
2.19995
11
2.59429
21
2.19483
0
LINE
8
BLACK
6
CONTINUOUS
10
2.59429
20
2.19483
11
2.60393
21
2.18839
0
LINE
8
BLACK
6
CONTINUOUS
10
2.60393
20
2.18839
11
2.61264
21
2.18075
0
LINE
8
BLACK
6
CONTINUOUS
10
2.61264
20
2.18075
11
2.62028
21
2.17204
0
LINE
8
BLACK
6
CONTINUOUS
10
2.62028
20
2.17204
11
2.62671
21
2.1624
0
LINE
8
BLACK
6
CONTINUOUS
10
2.62671
20
2.1624
11
2.63184
21
2.15201
0
LINE
8
BLACK
6
CONTINUOUS
10
2.63184
20
2.15201
11
2.63556
21
2.14104
0
LINE
8
BLACK
6
CONTINUOUS
10
2.63556
20
2.14104
11
2.63782
21
2.12967
0
LINE
8
BLACK
6
CONTINUOUS
10
2.63782
20
2.12967
11
2.63858
21
2.11811
0
LINE
8
BLACK
6
CONTINUOUS
10
2.63858
20
2.11811
11
2.63782
21
2.10655
0
LINE
8
BLACK
6
CONTINUOUS
10
2.63782
20
2.10655
11
2.63556
21
2.09518
0
LINE
8
BLACK
6
CONTINUOUS
10
2.63556
20
2.09518
11
2.63184
21
2.08421
0
LINE
8
BLACK
6
CONTINUOUS
10
2.63184
20
2.08421
11
2.62671
21
2.07382
0
LINE
8
BLACK
6
CONTINUOUS
10
2.62671
20
2.07382
11
2.62028
21
2.06418
0
LINE
8
BLACK
6
CONTINUOUS
10
2.62028
20
2.06418
11
2.61264
21
2.05547
0
LINE
8
BLACK
6
CONTINUOUS
10
2.61264
20
2.05547
11
2.60393
21
2.04783
0
LINE
8
BLACK
6
CONTINUOUS
10
2.60393
20
2.04783
11
2.59429
21
2.0414
0
LINE
8
BLACK
6
CONTINUOUS
10
2.59429
20
2.0414
11
2.5839
21
2.03627
0
LINE
8
BLACK
6
CONTINUOUS
10
2.5839
20
2.03627
11
2.57293
21
2.03255
0
LINE
8
BLACK
6
CONTINUOUS
10
2.57293
20
2.03255
11
2.56156
21
2.03029
0
LINE
8
BLACK
6
CONTINUOUS
10
2.56156
20
2.03029
11
2.55
21
2.02953
0
LINE
8
BLACK
6
CONTINUOUS
10
2.55
20
2.02953
11
2.53844
21
2.03029
0
LINE
8
BLACK
6
CONTINUOUS
10
2.53844
20
2.03029
11
2.52707
21
2.03255
0
LINE
8
BLACK
6
CONTINUOUS
10
2.52707
20
2.03255
11
2.5161
21
2.03627
0
LINE
8
BLACK
6
CONTINUOUS
10
2.5161
20
2.03627
11
2.50571
21
2.0414
0
LINE
8
BLACK
6
CONTINUOUS
10
2.50571
20
2.0414
11
2.49607
21
2.04783
0
LINE
8
BLACK
6
CONTINUOUS
10
2.49607
20
2.04783
11
2.48736
21
2.05547
0
LINE
8
BLACK
6
CONTINUOUS
10
2.48736
20
2.05547
11
2.47972
21
2.06418
0
LINE
8
BLACK
6
CONTINUOUS
10
2.47972
20
2.06418
11
2.47329
21
2.07382
0
LINE
8
BLACK
6
CONTINUOUS
10
2.47329
20
2.07382
11
2.46816
21
2.08421
0
LINE
8
BLACK
6
CONTINUOUS
10
2.46816
20
2.08421
11
2.46444
21
2.09518
0
LINE
8
BLACK
6
CONTINUOUS
10
2.46444
20
2.09518
11
2.46218
21
2.10655
0
LINE
8
BLACK
6
CONTINUOUS
10
2.46218
20
2.10655
11
2.46142
21
2.11811
0
LINE
8
BLACK
6
CONTINUOUS
10
2.46142
20
2.11811
11
2.46218
21
2.12967
0
LINE
8
BLACK
6
CONTINUOUS
10
2.46218
20
2.12967
11
2.46444
21
2.14104
0
LINE
8
BLACK
6
CONTINUOUS
10
2.46444
20
2.14104
11
2.46816
21
2.15201
0
LINE
8
BLACK
6
CONTINUOUS
10
2.46816
20
2.15201
11
2.47329
21
2.1624
0
LINE
8
BLACK
6
CONTINUOUS
10
2.47329
20
2.1624
11
2.47972
21
2.17204
0
LINE
8
BLACK
6
CONTINUOUS
10
2.47972
20
2.17204
11
2.48736
21
2.18075
0
LINE
8
BLACK
6
CONTINUOUS
10
2.48736
20
2.18075
11
2.49607
21
2.18839
0
LINE
8
BLACK
6
CONTINUOUS
10
2.49607
20
2.18839
11
2.50571
21
2.19483
0
LINE
8
BLACK
6
CONTINUOUS
10
2.50571
20
2.19483
11
2.5161
21
2.19995
0
LINE
8
BLACK
6
CONTINUOUS
10
2.5161
20
2.19995
11
2.52707
21
2.20367
0
LINE
8
BLACK
6
CONTINUOUS
10
2.52707
20
2.20367
11
2.53844
21
2.20594
0
LINE
8
BLACK
6
CONTINUOUS
10
2.53844
20
2.20594
11
2.55
21
2.20669
0
LINE
8
BLACK
6
CONTINUOUS
10
2.55
20
2.20669
11
2.56156
21
2.20594
0
LINE
8
BLACK
6
CONTINUOUS
10
1.06156
20
2.20594
11
1.07293
21
2.20367
0
LINE
8
BLACK
6
CONTINUOUS
10
1.07293
20
2.20367
11
1.0839
21
2.19995
0
LINE
8
BLACK
6
CONTINUOUS
10
1.0839
20
2.19995
11
1.09429
21
2.19483
0
LINE
8
BLACK
6
CONTINUOUS
10
1.09429
20
2.19483
11
1.10393
21
2.18839
0
LINE
8
BLACK
6
CONTINUOUS
10
1.10393
20
2.18839
11
1.11264
21
2.18075
0
LINE
8
BLACK
6
CONTINUOUS
10
1.11264
20
2.18075
11
1.12028
21
2.17204
0
LINE
8
BLACK
6
CONTINUOUS
10
1.12028
20
2.17204
11
1.12671
21
2.1624
0
LINE
8
BLACK
6
CONTINUOUS
10
1.12671
20
2.1624
11
1.13184
21
2.15201
0
LINE
8
BLACK
6
CONTINUOUS
10
1.13184
20
2.15201
11
1.13556
21
2.14104
0
LINE
8
BLACK
6
CONTINUOUS
10
1.13556
20
2.14104
11
1.13782
21
2.12967
0
LINE
8
BLACK
6
CONTINUOUS
10
1.13782
20
2.12967
11
1.13858
21
2.11811
0
LINE
8
BLACK
6
CONTINUOUS
10
1.13858
20
2.11811
11
1.13782
21
2.10655
0
LINE
8
BLACK
6
CONTINUOUS
10
1.13782
20
2.10655
11
1.13556
21
2.09518
0
LINE
8
BLACK
6
CONTINUOUS
10
1.13556
20
2.09518
11
1.13184
21
2.08421
0
LINE
8
BLACK
6
CONTINUOUS
10
1.13184
20
2.08421
11
1.12671
21
2.07382
0
LINE
8
BLACK
6
CONTINUOUS
10
1.12671
20
2.07382
11
1.12028
21
2.06418
0
LINE
8
BLACK
6
CONTINUOUS
10
1.12028
20
2.06418
11
1.11264
21
2.05547
0
LINE
8
BLACK
6
CONTINUOUS
10
1.11264
20
2.05547
11
1.10393
21
2.04783
0
LINE
8
BLACK
6
CONTINUOUS
10
1.10393
20
2.04783
11
1.09429
21
2.0414
0
LINE
8
BLACK
6
CONTINUOUS
10
1.09429
20
2.0414
11
1.0839
21
2.03627
0
LINE
8
BLACK
6
CONTINUOUS
10
1.0839
20
2.03627
11
1.07293
21
2.03255
0
LINE
8
BLACK
6
CONTINUOUS
10
1.07293
20
2.03255
11
1.06156
21
2.03029
0
LINE
8
BLACK
6
CONTINUOUS
10
1.06156
20
2.03029
11
1.05
21
2.02953
0
LINE
8
BLACK
6
CONTINUOUS
10
1.05
20
2.02953
11
1.03844
21
2.03029
0
LINE
8
BLACK
6
CONTINUOUS
10
1.03844
20
2.03029
11
1.02707
21
2.03255
0
LINE
8
BLACK
6
CONTINUOUS
10
1.02707
20
2.03255
11
1.0161
21
2.03627
0
LINE
8
BLACK
6
CONTINUOUS
10
1.0161
20
2.03627
11
1.00571
21
2.0414
0
LINE
8
BLACK
6
CONTINUOUS
10
1.00571
20
2.0414
11
0.996074
21
2.04783
0
LINE
8
BLACK
6
CONTINUOUS
10
0.996074
20
2.04783
11
0.987363
21
2.05547
0
LINE
8
BLACK
6
CONTINUOUS
10
0.987363
20
2.05547
11
0.979723
21
2.06418
0
LINE
8
BLACK
6
CONTINUOUS
10
0.979723
20
2.06418
11
0.973285
21
2.07382
0
LINE
8
BLACK
6
CONTINUOUS
10
0.973285
20
2.07382
11
0.96816
21
2.08421
0
LINE
8
BLACK
6
CONTINUOUS
10
0.96816
20
2.08421
11
0.964436
21
2.09518
0
LINE
8
BLACK
6
CONTINUOUS
10
0.964436
20
2.09518
11
0.962175
21
2.10655
0
LINE
8
BLACK
6
CONTINUOUS
10
0.962175
20
2.10655
11
0.961417
21
2.11811
0
LINE
8
BLACK
6
CONTINUOUS
10
0.961417
20
2.11811
11
0.962175
21
2.12967
0
LINE
8
BLACK
6
CONTINUOUS
10
0.962175
20
2.12967
11
0.964436
21
2.14104
0
LINE
8
BLACK
6
CONTINUOUS
10
0.964436
20
2.14104
11
0.96816
21
2.15201
0
LINE
8
BLACK
6
CONTINUOUS
10
0.96816
20
2.15201
11
0.973285
21
2.1624
0
LINE
8
BLACK
6
CONTINUOUS
10
0.973285
20
2.1624
11
0.979723
21
2.17204
0
LINE
8
BLACK
6
CONTINUOUS
10
0.979723
20
2.17204
11
0.987363
21
2.18075
0
LINE
8
BLACK
6
CONTINUOUS
10
0.987363
20
2.18075
11
0.996074
21
2.18839
0
LINE
8
BLACK
6
CONTINUOUS
10
0.996074
20
2.18839
11
1.00571
21
2.19483
0
LINE
8
BLACK
6
CONTINUOUS
10
1.00571
20
2.19483
11
1.0161
21
2.19995
0
LINE
8
BLACK
6
CONTINUOUS
10
1.0161
20
2.19995
11
1.02707
21
2.20367
0
LINE
8
BLACK
6
CONTINUOUS
10
1.02707
20
2.20367
11
1.03844
21
2.20594
0
LINE
8
BLACK
6
CONTINUOUS
10
1.03844
20
2.20594
11
1.05
21
2.20669
0
LINE
8
BLACK
6
CONTINUOUS
10
1.05
20
2.20669
11
1.06156
21
2.20594
0
LINE
8
BLACK
6
CONTINUOUS
10
2.55855
20
2.79453
11
2.56683
21
2.79231
0
LINE
8
BLACK
6
CONTINUOUS
10
2.56683
20
2.79231
11
2.57461
21
2.78868
0
LINE
8
BLACK
6
CONTINUOUS
10
2.57461
20
2.78868
11
2.58163
21
2.78376
0
LINE
8
BLACK
6
CONTINUOUS
10
2.58163
20
2.78376
11
2.5877
21
2.7777
0
LINE
8
BLACK
6
CONTINUOUS
10
2.5877
20
2.7777
11
2.59262
21
2.77067
0
LINE
8
BLACK
6
CONTINUOUS
10
2.59262
20
2.77067
11
2.59624
21
2.76289
0
LINE
8
BLACK
6
CONTINUOUS
10
2.59624
20
2.76289
11
2.59846
21
2.75461
0
LINE
8
BLACK
6
CONTINUOUS
10
2.59846
20
2.75461
11
2.59921
21
2.74606
0
LINE
8
BLACK
6
CONTINUOUS
10
2.59921
20
2.74606
11
2.59846
21
2.73752
0
LINE
8
BLACK
6
CONTINUOUS
10
2.59846
20
2.73752
11
2.59624
21
2.72923
0
LINE
8
BLACK
6
CONTINUOUS
10
2.59624
20
2.72923
11
2.59262
21
2.72146
0
LINE
8
BLACK
6
CONTINUOUS
10
2.59262
20
2.72146
11
2.5877
21
2.71443
0
LINE
8
BLACK
6
CONTINUOUS
10
2.5877
20
2.71443
11
2.58163
21
2.70836
0
LINE
8
BLACK
6
CONTINUOUS
10
2.58163
20
2.70836
11
2.57461
21
2.70344
0
LINE
8
BLACK
6
CONTINUOUS
10
2.57461
20
2.70344
11
2.56683
21
2.69982
0
LINE
8
BLACK
6
CONTINUOUS
10
2.56683
20
2.69982
11
2.55855
21
2.6976
0
LINE
8
BLACK
6
CONTINUOUS
10
2.55855
20
2.6976
11
2.55
21
2.69685
0
LINE
8
BLACK
6
CONTINUOUS
10
2.55
20
2.69685
11
2.54145
21
2.6976
0
LINE
8
BLACK
6
CONTINUOUS
10
2.54145
20
2.6976
11
2.53317
21
2.69982
0
LINE
8
BLACK
6
CONTINUOUS
10
2.53317
20
2.69982
11
2.52539
21
2.70344
0
LINE
8
BLACK
6
CONTINUOUS
10
2.52539
20
2.70344
11
2.51837
21
2.70836
0
LINE
8
BLACK
6
CONTINUOUS
10
2.51837
20
2.70836
11
2.5123
21
2.71443
0
LINE
8
BLACK
6
CONTINUOUS
10
2.5123
20
2.71443
11
2.50738
21
2.72146
0
LINE
8
BLACK
6
CONTINUOUS
10
2.50738
20
2.72146
11
2.50376
21
2.72923
0
LINE
8
BLACK
6
CONTINUOUS
10
2.50376
20
2.72923
11
2.50154
21
2.73752
0
LINE
8
BLACK
6
CONTINUOUS
10
2.50154
20
2.73752
11
2.50079
21
2.74606
0
LINE
8
BLACK
6
CONTINUOUS
10
2.50079
20
2.74606
11
2.50154
21
2.75461
0
LINE
8
BLACK
6
CONTINUOUS
10
2.50154
20
2.75461
11
2.50376
21
2.76289
0
LINE
8
BLACK
6
CONTINUOUS
10
2.50376
20
2.76289
11
2.50738
21
2.77067
0
LINE
8
BLACK
6
CONTINUOUS
10
2.50738
20
2.77067
11
2.5123
21
2.7777
0
LINE
8
BLACK
6
CONTINUOUS
10
2.5123
20
2.7777
11
2.51837
21
2.78376
0
LINE
8
BLACK
6
CONTINUOUS
10
2.51837
20
2.78376
11
2.52539
21
2.78868
0
LINE
8
BLACK
6
CONTINUOUS
10
2.52539
20
2.78868
11
2.53317
21
2.79231
0
LINE
8
BLACK
6
CONTINUOUS
10
2.53317
20
2.79231
11
2.54145
21
2.79453
0
LINE
8
BLACK
6
CONTINUOUS
10
2.54145
20
2.79453
11
2.55
21
2.79528
0
LINE
8
BLACK
6
CONTINUOUS
10
2.55
20
2.79528
11
2.55855
21
2.79453
0
LINE
8
BLACK
6
CONTINUOUS
10
1.05855
20
2.79453
11
1.06683
21
2.79231
0
LINE
8
BLACK
6
CONTINUOUS
10
1.06683
20
2.79231
11
1.07461
21
2.78868
0
LINE
8
BLACK
6
CONTINUOUS
10
1.07461
20
2.78868
11
1.08163
21
2.78376
0
LINE
8
BLACK
6
CONTINUOUS
10
1.08163
20
2.78376
11
1.0877
21
2.7777
0
LINE
8
BLACK
6
CONTINUOUS
10
1.0877
20
2.7777
11
1.09262
21
2.77067
0
LINE
8
BLACK
6
CONTINUOUS
10
1.09262
20
2.77067
11
1.09624
21
2.76289
0
LINE
8
BLACK
6
CONTINUOUS
10
1.09624
20
2.76289
11
1.09846
21
2.75461
0
LINE
8
BLACK
6
CONTINUOUS
10
1.09846
20
2.75461
11
1.09921
21
2.74606
0
LINE
8
BLACK
6
CONTINUOUS
10
1.09921
20
2.74606
11
1.09846
21
2.73752
0
LINE
8
BLACK
6
CONTINUOUS
10
1.09846
20
2.73752
11
1.09624
21
2.72923
0
LINE
8
BLACK
6
CONTINUOUS
10
1.09624
20
2.72923
11
1.09262
21
2.72146
0
LINE
8
BLACK
6
CONTINUOUS
10
1.09262
20
2.72146
11
1.0877
21
2.71443
0
LINE
8
BLACK
6
CONTINUOUS
10
1.0877
20
2.71443
11
1.08163
21
2.70836
0
LINE
8
BLACK
6
CONTINUOUS
10
1.08163
20
2.70836
11
1.07461
21
2.70344
0
LINE
8
BLACK
6
CONTINUOUS
10
1.07461
20
2.70344
11
1.06683
21
2.69982
0
LINE
8
BLACK
6
CONTINUOUS
10
1.06683
20
2.69982
11
1.05855
21
2.6976
0
LINE
8
BLACK
6
CONTINUOUS
10
1.05855
20
2.6976
11
1.05
21
2.69685
0
LINE
8
BLACK
6
CONTINUOUS
10
1.05
20
2.69685
11
1.04145
21
2.6976
0
LINE
8
BLACK
6
CONTINUOUS
10
1.04145
20
2.6976
11
1.03317
21
2.69982
0
LINE
8
BLACK
6
CONTINUOUS
10
1.03317
20
2.69982
11
1.02539
21
2.70344
0
LINE
8
BLACK
6
CONTINUOUS
10
1.02539
20
2.70344
11
1.01837
21
2.70836
0
LINE
8
BLACK
6
CONTINUOUS
10
1.01837
20
2.70836
11
1.0123
21
2.71443
0
LINE
8
BLACK
6
CONTINUOUS
10
1.0123
20
2.71443
11
1.00738
21
2.72146
0
LINE
8
BLACK
6
CONTINUOUS
10
1.00738
20
2.72146
11
1.00376
21
2.72923
0
LINE
8
BLACK
6
CONTINUOUS
10
1.00376
20
2.72923
11
1.00154
21
2.73752
0
LINE
8
BLACK
6
CONTINUOUS
10
1.00154
20
2.73752
11
1.00079
21
2.74606
0
LINE
8
BLACK
6
CONTINUOUS
10
1.00079
20
2.74606
11
1.00154
21
2.75461
0
LINE
8
BLACK
6
CONTINUOUS
10
1.00154
20
2.75461
11
1.00376
21
2.76289
0
LINE
8
BLACK
6
CONTINUOUS
10
1.00376
20
2.76289
11
1.00738
21
2.77067
0
LINE
8
BLACK
6
CONTINUOUS
10
1.00738
20
2.77067
11
1.0123
21
2.7777
0
LINE
8
BLACK
6
CONTINUOUS
10
1.0123
20
2.7777
11
1.01837
21
2.78376
0
LINE
8
BLACK
6
CONTINUOUS
10
1.01837
20
2.78376
11
1.02539
21
2.78868
0
LINE
8
BLACK
6
CONTINUOUS
10
1.02539
20
2.78868
11
1.03317
21
2.79231
0
LINE
8
BLACK
6
CONTINUOUS
10
1.03317
20
2.79231
11
1.04145
21
2.79453
0
LINE
8
BLACK
6
CONTINUOUS
10
1.04145
20
2.79453
11
1.05
21
2.79528
0
LINE
8
BLACK
6
CONTINUOUS
10
1.05
20
2.79528
11
1.05855
21
2.79453
  0
ENDSEC
  0
EOF
